<?xml version="1.0" encoding="UTF-8"?>
<!DOCTYPE svg PUBLIC "-//W3C//DTD SVG 1.1//EN" "http://www.w3.org/Graphics/SVG/1.1/DTD/svg11.dtd">
<!-- Creator: CorelDRAW 2021 (64-Bit) -->
<svg xmlns="http://www.w3.org/2000/svg" xml:space="preserve" width="33.867mm" height="33.867mm" version="1.1" style="shape-rendering:geometricPrecision; text-rendering:geometricPrecision; image-rendering:optimizeQuality; fill-rule:evenodd; clip-rule:evenodd"
viewBox="0 0 3386.7 3386.7"
 xmlns:xlink="http://www.w3.org/1999/xlink"
 xmlns:xodm="http://www.corel.com/coreldraw/odm/2003">
 <defs>
  <style type="text/css">
   <![CDATA[
    .str0 {stroke:black;stroke-width:20;stroke-linecap:round;stroke-linejoin:round;stroke-miterlimit:22.9256}
    .fil3 {fill:black}
    .fil0 {fill:black}
    .fil2 {fill:#A18174}
    .fil1 {fill:white}
   ]]>
  </style>
    <clipPath id="id0">
     <path d="M1678.83 1080.53l211.76 400.5 581.39 -185.95 -382.81 -378.51 -11.61 9.71 367.58 363.15 -546.13 173.65 -206.76 -388.05 -13.42 5.5z"/>
    </clipPath>
    <clipPath id="id1">
     <path d="M916.15 1296.45l375.25 -367.51 -10.98 -9.64 -376.48 375.85 12.21 1.3z"/>
    </clipPath>
    <clipPath id="id2">
     <path d="M910 1303.43l548.83 176.2 4.92 -13.74 -547.56 -176.26 -6.19 13.8z"/>
    </clipPath>
    <clipPath id="id3">
     <path d="M903.91 1295.17l155.25 396.58 408.2 -210.63 -7.23 -12.35 -392.29 202.21 -149.14 -381.35 -14.79 5.54z"/>
    </clipPath>
    <clipPath id="id4">
     <path d="M1065.32 1684.78l399.63 -202.37 -7.36 -12.42 -399.63 202.37 7.36 12.42z"/>
    </clipPath>
    <clipPath id="id5">
     <path d="M1457.64 1463.13l-539.01 -169.35 -6.14 13.81 539.01 169.29 6.14 -13.75z"/>
    </clipPath>
    <clipPath id="id6">
     <path d="M1059.24 1691.65l622.04 512.17 -3.56 -22.08 -603.89 -498.3 -14.59 8.21z"/>
    </clipPath>
    <clipPath id="id7">
     <path d="M1062.89 1687.53l608.69 503.86 11.03 -9.6 -608.7 -503.85 -11.02 9.59z"/>
    </clipPath>
    <clipPath id="id8">
     <path d="M1462.55 1478.18l200.39 700.79 14.69 -4.01 -200.46 -700.79 -14.62 4.01z"/>
    </clipPath>
    <clipPath id="id9">
     <path d="M1681.28 2203.79l624.56 -520.34 -9.68 -9.72 -619.72 501.04 4.84 29.02z"/>
    </clipPath>
    <clipPath id="id10">
     <path d="M1889.09 1472.78l-201.65 662.18 14.63 2.84 202.9 -661.04 -15.88 -3.98z"/>
    </clipPath>
    <clipPath id="id11">
     <path d="M1460.08 1475.48l186.98 649.89 12.24 -2.78 -183.32 -649.89 -15.9 2.78z"/>
    </clipPath>
    <clipPath id="id12">
     <path d="M1671.52 1084.51l0 1060.13 14.66 3.94 1.23 -1064.07 -15.89 0z"/>
    </clipPath>
    <clipPath id="id13">
     <path d="M1902.52 1489.29l378.92 185.83 7.32 -12.37 -378.91 -185.83 -7.33 12.37z"/>
    </clipPath>
    <clipPath id="id14">
     <path d="M2315.69 1683.37l152.75 -382.68 -14.71 -4.12 -152.75 381.35 14.71 5.45z"/>
    </clipPath>
    <clipPath id="id15">
     <path d="M1911.06 1472.74l547.65 -173.44 -4.94 -13.74 -548.75 174.78 6.04 12.4z"/>
    </clipPath>
    <clipPath id="id16">
     <path d="M1687.44 1096.96l202.84 384.11 13.5 -5.62 -201.71 -384 -14.63 5.51z"/>
    </clipPath>
    <clipPath id="id17">
     <path d="M1285.31 924.84l388.66 156.93 3.65 -12.4 -386.15 -158.27 -6.16 13.74z"/>
    </clipPath>
    <clipPath id="id18">
     <path d="M2071.17 906.94l-386.23 156.93 1.25 2.76 4.89 9.64 386.23 -155.55 -6.14 -13.78z"/>
    </clipPath>
    <clipPath id="id19">
     <path d="M2071.16 919.37l-174.76 545 14.68 4.22 174.76 -545 -14.68 -4.22z"/>
    </clipPath>
    <clipPath id="id20">
     <path d="M1906.2 1465.9l-206.55 -378.57 -14.69 5.5 206.55 378.56 14.69 -5.49z"/>
    </clipPath>
    <clipPath id="id21">
     <path d="M2071.16 922.24l-174.76 534.02 14.68 4.06 172.35 -546.5 -12.27 8.42z"/>
    </clipPath>
    <clipPath id="id22">
     <path d="M2074.86 929.02l372.81 367.55 12.21 -9.69 -372.82 -384.09 -12.2 26.23z"/>
    </clipPath>
    <clipPath id="id23">
     <path d="M1902.44 1490.66l386.3 185.85 7.32 -12.39 -393.62 -173.46z"/>
    </clipPath>
    <clipPath id="id24">
     <path d="M903.94 1295.2l558.54 184.44 6.17 -13.76 -559.84 -180.37 -4.87 9.69z"/>
    </clipPath>
 </defs>
 <g id="Layer_x0020_1">
  <metadata id="CorelCorpID_0Corel-Layer"/>
  <ellipse class="fil0 str0" cx="1693.35" cy="1693.35" rx="1641.67" ry="1611.82"/>
  <g id="_2023490617712">
   <path class="fil1" d="M1071.22 2437.64c0,9.64 -1.22,17.9 -3.66,23.41 -2.45,5.5 -7.34,11.01 -12.23,13.76 -6.1,4.13 -13.44,8.26 -24.45,11.02l-3.66 -9.64c7.34,-1.38 12.22,-4.13 14.67,-6.89 2.44,-2.75 4.89,-5.5 6.11,-8.25 1.23,-4.14 1.23,-8.27 1.23,-15.15l0 -115.64c0,-5.51 0,-9.64 -1.23,-12.39 0,-1.38 -1.22,-4.13 -2.45,-4.13 -2.44,-1.37 -4.89,-2.75 -9.77,-4.13l0 -5.51 47.66 0 0 5.51c-2.44,1.38 -4.89,1.38 -6.11,2.76 -2.43,0 -3.66,1.37 -3.66,2.74 -1.23,1.38 -2.45,2.76 -2.45,5.51 0,1.38 0,5.51 0,9.64l0 107.38zm267.68 -9.63c-4.89,4.13 -9.78,8.25 -13.45,11.01 -4.88,2.75 -8.56,4.13 -13.44,5.51 -4.89,1.37 -11,2.75 -15.89,2.75 -15.89,0 -28.11,-4.13 -36.67,-12.4 -7.34,-9.63 -11,-22.02 -11,-38.54 0,-9.63 1.22,-19.27 6.11,-26.16 3.66,-8.26 9.78,-13.76 17.11,-19.27 7.33,-4.13 15.89,-5.51 25.67,-5.51 8.55,0 14.67,1.38 19.55,2.75 6.12,2.76 9.79,5.51 13.45,9.64 3.67,2.75 6.11,8.26 7.33,13.77 2.45,5.51 2.45,13.77 3.67,23.4l-72.11 0 0 1.38c0,8.26 0,15.14 2.44,20.65 2.44,5.51 6.11,9.64 9.78,12.39 4.89,4.13 11,5.5 18.33,5.5 6.11,0 12.23,-1.37 17.11,-4.12 4.9,-1.38 9.79,-5.51 14.67,-9.64l7.34 6.89zm-19.56 -42.68c0,-6.89 -1.23,-12.39 -3.66,-17.9 -1.23,-4.13 -3.67,-8.26 -6.12,-11.01 -3.67,-1.38 -7.33,-2.76 -13.44,-2.76 -7.33,0 -13.45,2.76 -18.34,8.26 -4.89,5.51 -7.33,13.77 -8.55,23.41l50.11 0zm262.79 -16.52l-30.57 77.09 -15.88 0 -26.89 -77.09c-2.45,-4.13 -3.67,-8.27 -4.89,-9.64 -1.22,-2.75 -2.44,-4.13 -3.67,-4.13 -1.22,-1.38 -3.66,-2.75 -6.11,-2.75l0 -5.51 45.22 0 0 5.51c-4.88,0 -7.33,1.37 -9.77,2.75 -1.23,1.38 -1.23,4.13 -1.23,5.5 0,2.76 0,4.14 0,6.89 0,1.38 1.23,4.13 2.44,6.88l17.13 52.32 29.32 -79.85 17.12 0 24.44 79.85 19.56 -50.94c1.22,-2.75 2.44,-4.13 3.66,-6.88 0,-2.76 0,-4.13 0,-6.89 0,-2.75 0,-5.5 -2.44,-6.88 -1.22,-1.38 -3.67,-2.75 -8.56,-2.75l0 -5.51 40.34 0 0 5.51c-2.45,0 -3.67,0 -4.9,1.37 -1.21,0 -2.43,1.38 -3.66,1.38 -1.22,1.38 -1.22,2.75 -2.44,5.5 -2.44,1.38 -3.67,5.51 -4.89,9.64l-33 75.72 -15.89 0 -24.44 -77.09zm332.45 59.2c-4.9,4.13 -9.78,8.25 -13.45,11.01 -3.67,2.75 -8.55,4.13 -13.45,5.51 -4.88,1.37 -9.77,2.75 -15.88,2.75 -15.89,0 -28.12,-4.13 -35.45,-12.4 -8.55,-9.63 -12.22,-22.02 -12.22,-38.54 0,-9.63 2.44,-19.27 6.11,-26.16 3.67,-8.26 9.78,-13.76 17.12,-19.27 7.33,-4.13 15.88,-5.51 25.66,-5.51 8.56,0 14.66,1.38 20.78,2.75 4.89,2.76 9.78,5.51 12.23,9.64 3.65,2.75 6.1,8.26 7.32,13.77 2.45,5.51 3.68,13.77 3.68,23.4l-72.12 0 0 1.38c0,8.26 1.22,15.14 2.45,20.65 2.43,5.51 6.11,9.64 11,12.39 3.65,4.13 9.77,5.5 17.1,5.5 6.12,0 12.22,-1.37 17.12,-4.12 4.88,-1.38 9.77,-5.51 14.66,-9.64l7.34 6.89zm-19.56 -42.68c0,-6.89 -1.22,-12.39 -2.44,-17.9 -2.45,-4.13 -4.9,-8.26 -7.34,-11.01 -3.66,-1.38 -7.33,-2.76 -12.22,-2.76 -8.56,0 -14.66,2.76 -19.55,8.26 -4.9,5.51 -7.34,13.77 -8.56,23.41l50.11 0zm212.67 34.41c0,5.51 1.22,9.64 1.22,12.4 1.22,1.37 2.45,4.12 3.68,5.5 1.22,0 4.88,1.38 8.54,2.75l0 5.51 -45.21 0 0 -5.51c3.66,-1.37 6.1,-1.37 7.32,-2.75 1.23,-1.38 2.45,-2.76 3.67,-4.13 0,-1.37 1.23,-2.75 1.23,-5.5 0,-1.38 0,-4.14 0,-8.27l0 -86.73c0,-6.88 0,-11.01 0,-13.77 0,-2.75 0,-4.13 -1.23,-6.87 0,-1.38 -1.22,-2.76 -1.22,-4.14 -1.22,0 -2.45,-1.37 -3.67,-2.75 -1.22,0 -4.88,0 -8.55,-1.38l0 -5.5 28.12 0 6.1 0 0 121.14zm250.56 -50.93l-10.99 0c-1.23,-4.13 -3.68,-6.89 -6.12,-9.64 -2.44,-1.38 -4.89,-4.13 -7.33,-4.13 -3.67,-1.38 -7.33,-1.38 -11,-1.38 -6.12,0 -11,1.38 -14.67,2.76 -3.67,2.75 -4.89,6.88 -4.89,11.01 0,2.75 0,5.51 1.22,8.26 2.45,1.38 3.67,4.13 7.34,5.51 2.44,1.37 8.56,4.13 15.89,6.88 7.33,2.75 13.44,5.51 18.33,8.26 3.67,2.76 7.34,5.5 9.78,9.64 2.44,2.75 3.67,6.88 3.67,11.01 0,5.51 -1.23,11.02 -3.67,13.77 -1.22,4.12 -4.89,6.88 -8.55,9.63 -3.68,2.76 -7.34,4.14 -13.45,5.51 -4.89,0 -9.78,1.38 -15.89,1.38 -7.34,0 -13.45,-1.38 -19.56,-1.38 -6.11,-1.37 -10.99,-2.75 -17.11,-4.13l0 -20.65 11 0c2.45,5.51 4.89,11.02 9.78,13.76 3.67,2.76 8.55,4.14 15.89,4.14 2.45,0 6.11,0 8.56,-1.38 2.44,0 4.88,-1.38 7.33,-2.76 1.22,0 3.66,-2.74 4.89,-4.12 1.22,-2.75 1.22,-5.51 1.22,-8.26 0,-2.76 -1.22,-5.51 -2.45,-8.26 -1.22,-2.76 -3.66,-4.13 -7.33,-5.51 -2.44,-2.75 -8.55,-4.13 -15.89,-8.26 -7.33,-2.75 -13.44,-4.13 -17.11,-6.88 -3.66,-2.76 -7.34,-5.51 -9.77,-9.64 -2.45,-2.75 -3.68,-6.88 -3.68,-11.01 0,-5.51 1.23,-11.02 4.9,-15.15 3.66,-4.13 8.55,-6.88 14.66,-9.64 6.11,-1.37 13.44,-2.75 22,-2.75 6.11,0 11,0 14.67,0 4.89,1.38 11,1.38 18.33,2.75l0 20.66z"/>
   <path class="fil1" d="M1071.22 2437.64c0,9.64 -1.22,17.9 -3.66,23.41 -2.45,5.5 -7.34,11.01 -12.23,13.76 -6.1,4.13 -13.44,8.26 -24.45,11.02l-3.66 -9.64c7.34,-1.38 12.22,-4.13 14.67,-6.89 2.44,-2.75 4.89,-5.5 6.11,-8.25 1.23,-4.14 1.23,-8.27 1.23,-15.15l0 -115.64c0,-5.51 0,-9.64 -1.23,-12.39 0,-1.38 -1.22,-4.13 -2.45,-4.13 -2.44,-1.37 -4.89,-2.75 -9.77,-4.13l0 -5.51 47.66 0 0 5.51c-2.44,1.38 -4.89,1.38 -6.11,2.76 -2.43,0 -3.66,1.37 -3.66,2.74 -1.23,1.38 -2.45,2.76 -2.45,5.51 0,1.38 0,5.51 0,9.64l0 107.38zm267.68 -9.63c-4.89,4.13 -9.78,8.25 -13.45,11.01 -4.88,2.75 -8.56,4.13 -13.44,5.51 -4.89,1.37 -11,2.75 -15.89,2.75 -15.89,0 -28.11,-4.13 -36.67,-12.4 -7.34,-9.63 -11,-22.02 -11,-38.54 0,-9.63 1.22,-19.27 6.11,-26.16 3.66,-8.26 9.78,-13.76 17.11,-19.27 7.33,-4.13 15.89,-5.51 25.67,-5.51 8.55,0 14.67,1.38 19.55,2.75 6.12,2.76 9.79,5.51 13.45,9.64 3.67,2.75 6.11,8.26 7.33,13.77 2.45,5.51 2.45,13.77 3.67,23.4l-72.11 0 0 1.38c0,8.26 0,15.14 2.44,20.65 2.44,5.51 6.11,9.64 9.78,12.39 4.89,4.13 11,5.5 18.33,5.5 6.11,0 12.23,-1.37 17.11,-4.12 4.9,-1.38 9.79,-5.51 14.67,-9.64l7.34 6.89zm-19.56 -42.68c0,-6.89 -1.23,-12.39 -3.66,-17.9 -1.23,-4.13 -3.67,-8.26 -6.12,-11.01 -3.67,-1.38 -7.33,-2.76 -13.44,-2.76 -7.33,0 -13.45,2.76 -18.34,8.26 -4.89,5.51 -7.33,13.77 -8.55,23.41l50.11 0zm262.79 -16.52l-30.57 77.09 -15.88 0 -26.89 -77.09c-2.45,-4.13 -3.67,-8.27 -4.89,-9.64 -1.22,-2.75 -2.44,-4.13 -3.67,-4.13 -1.22,-1.38 -3.66,-2.75 -6.11,-2.75l0 -5.51 45.22 0 0 5.51c-4.88,0 -7.33,1.37 -9.77,2.75 -1.23,1.38 -1.23,4.13 -1.23,5.5 0,2.76 0,4.14 0,6.89 0,1.38 1.23,4.13 2.44,6.88l17.13 52.32 29.32 -79.85 17.12 0 24.44 79.85 19.56 -50.94c1.22,-2.75 2.44,-4.13 3.66,-6.88 0,-2.76 0,-4.13 0,-6.89 0,-2.75 0,-5.5 -2.44,-6.88 -1.22,-1.38 -3.67,-2.75 -8.56,-2.75l0 -5.51 40.34 0 0 5.51c-2.45,0 -3.67,0 -4.9,1.37 -1.21,0 -2.43,1.38 -3.66,1.38 -1.22,1.38 -1.22,2.75 -2.44,5.5 -2.44,1.38 -3.67,5.51 -4.89,9.64l-33 75.72 -15.89 0 -24.44 -77.09zm332.45 59.2c-4.9,4.13 -9.78,8.25 -13.45,11.01 -3.67,2.75 -8.55,4.13 -13.45,5.51 -4.88,1.37 -9.77,2.75 -15.88,2.75 -15.89,0 -28.12,-4.13 -35.45,-12.4 -8.55,-9.63 -12.22,-22.02 -12.22,-38.54 0,-9.63 2.44,-19.27 6.11,-26.16 3.67,-8.26 9.78,-13.76 17.12,-19.27 7.33,-4.13 15.88,-5.51 25.66,-5.51 8.56,0 14.66,1.38 20.78,2.75 4.89,2.76 9.78,5.51 12.23,9.64 3.65,2.75 6.1,8.26 7.32,13.77 2.45,5.51 3.68,13.77 3.68,23.4l-72.12 0 0 1.38c0,8.26 1.22,15.14 2.45,20.65 2.43,5.51 6.11,9.64 11,12.39 3.65,4.13 9.77,5.5 17.1,5.5 6.12,0 12.22,-1.37 17.12,-4.12 4.88,-1.38 9.77,-5.51 14.66,-9.64l7.34 6.89zm-19.56 -42.68c0,-6.89 -1.22,-12.39 -2.44,-17.9 -2.45,-4.13 -4.9,-8.26 -7.34,-11.01 -3.66,-1.38 -7.33,-2.76 -12.22,-2.76 -8.56,0 -14.66,2.76 -19.55,8.26 -4.9,5.51 -7.34,13.77 -8.56,23.41l50.11 0zm212.67 34.41c0,5.51 1.22,9.64 1.22,12.4 1.22,1.37 2.45,4.12 3.68,5.5 1.22,0 4.88,1.38 8.54,2.75l0 5.51 -45.21 0 0 -5.51c3.66,-1.37 6.1,-1.37 7.32,-2.75 1.23,-1.38 2.45,-2.76 3.67,-4.13 0,-1.37 1.23,-2.75 1.23,-5.5 0,-1.38 0,-4.14 0,-8.27l0 -86.73c0,-6.88 0,-11.01 0,-13.77 0,-2.75 0,-4.13 -1.23,-6.87 0,-1.38 -1.22,-2.76 -1.22,-4.14 -1.22,0 -2.45,-1.37 -3.67,-2.75 -1.22,0 -4.88,0 -8.55,-1.38l0 -5.5 28.12 0 6.1 0 0 121.14zm250.56 -50.93l-10.99 0c-1.23,-4.13 -3.68,-6.89 -6.12,-9.64 -2.44,-1.38 -4.89,-4.13 -7.33,-4.13 -3.67,-1.38 -7.33,-1.38 -11,-1.38 -6.12,0 -11,1.38 -14.67,2.76 -3.67,2.75 -4.89,6.88 -4.89,11.01 0,2.75 0,5.51 1.22,8.26 2.45,1.38 3.67,4.13 7.34,5.51 2.44,1.37 8.56,4.13 15.89,6.88 7.33,2.75 13.44,5.51 18.33,8.26 3.67,2.76 7.34,5.5 9.78,9.64 2.44,2.75 3.67,6.88 3.67,11.01 0,5.51 -1.23,11.02 -3.67,13.77 -1.22,4.12 -4.89,6.88 -8.55,9.63 -3.68,2.76 -7.34,4.14 -13.45,5.51 -4.89,0 -9.78,1.38 -15.89,1.38 -7.34,0 -13.45,-1.38 -19.56,-1.38 -6.11,-1.37 -10.99,-2.75 -17.11,-4.13l0 -20.65 11 0c2.45,5.51 4.89,11.02 9.78,13.76 3.67,2.76 8.55,4.14 15.89,4.14 2.45,0 6.11,0 8.56,-1.38 2.44,0 4.88,-1.38 7.33,-2.76 1.22,0 3.66,-2.74 4.89,-4.12 1.22,-2.75 1.22,-5.51 1.22,-8.26 0,-2.76 -1.22,-5.51 -2.45,-8.26 -1.22,-2.76 -3.66,-4.13 -7.33,-5.51 -2.44,-2.75 -8.55,-4.13 -15.89,-8.26 -7.33,-2.75 -13.44,-4.13 -17.11,-6.88 -3.66,-2.76 -7.34,-5.51 -9.77,-9.64 -2.45,-2.75 -3.68,-6.88 -3.68,-11.01 0,-5.51 1.23,-11.02 4.9,-15.15 3.66,-4.13 8.55,-6.88 14.66,-9.64 6.11,-1.37 13.44,-2.75 22,-2.75 6.11,0 11,0 14.67,0 4.89,1.38 11,1.38 18.33,2.75l0 20.66z"/>
   <path class="fil2" d="M1688.48 2197.71l129.56 -107.38c4.89,-5.51 9.77,-8.26 15.89,-12.39l264.01 -217.52c4.88,-5.5 7.33,-8.26 13.44,-12.39 29.33,-22.02 53.77,-45.43 86.77,-70.21 6.12,-5.5 8.56,-8.26 14.67,-13.77l58.67 -48.18c11,-6.88 19.56,-16.52 30.55,-23.4 9.79,-8.26 23.23,-12.39 28.12,-24.78 11,-23.41 20.78,-50.94 30.55,-74.35 37.89,-99.12 80.68,-198.24 117.34,-297.36 -3.66,-4.13 -7.33,-4.13 -13.44,-5.51l-146.67 367.58c-13.45,-1.38 -84.34,-37.17 -100.22,-45.43 -81.89,-41.3 -163.79,-77.09 -246.9,-119.77 -15.89,-8.26 -33,-15.15 -48.89,-24.78 1.22,-13.77 17.11,-56.45 21.99,-71.59l150.34 -468.08c3.68,-9.63 9.78,-17.89 -9.77,-27.53 -29.34,8.26 -262.79,104.63 -298.23,118.39 -17.12,6.89 -31.78,13.77 -48.89,20.66 -13.44,5.5 -37.89,16.52 -51.33,19.27 -15.89,5.51 -34.22,-6.88 -48.89,-13.77l-147.89 -61.95c-33,-13.76 -64.79,-27.53 -97.79,-41.3 -15.89,-6.88 -34.22,-13.77 -48.89,-20.65 -13.44,-5.51 -36.66,-16.52 -50.11,-19.27l-308.01 307c-8.55,8.26 -75.78,74.34 -75.78,77.09 -1.22,5.51 35.45,95 41.56,108.76 34.22,89.49 73.33,181.73 106.33,269.83 7.34,19.28 18.34,26.16 36.68,39.93 7.32,5.51 13.44,11.01 20.77,17.89 8.56,6.89 12.22,9.64 20.78,17.9l44.01 34.42c26.88,20.65 78.21,68.83 105.1,88.11l168.67 140.42c9.79,6.88 12.23,9.64 22.01,17.9l106.33 88.1c9.78,6.88 13.44,11.01 22,17.9 12.22,9.64 79.45,68.83 85.56,70.21z"/>
   <path class="fil3" d="M927.01 1293.23l147.9 375.83c12.22,-4.13 179.67,-90.86 196.78,-100.49l194.34 -99.13 -127.11 -404.74c-13.45,-41.3 -33,-94.99 -42.79,-136.3 -9.77,5.51 -102.67,100.5 -116.11,112.89 -9.77,8.26 -12.22,13.77 -23.22,23.41l-46.45 45.43c-14.66,13.76 -30.55,33.04 -46.44,45.43 -15.89,15.14 -73.34,75.72 -91.67,90.86l-45.23 46.81z"/>
   <path class="fil3" d="M1701.93 1068.83l-3.67 1054.54c4.89,-22.03 17.11,-52.32 23.22,-72.96 7.34,-26.16 15.89,-50.94 24.45,-75.72l141.77 -454.31c55.01,-177.6 113.68,-351.06 169.9,-527.27 7.33,-26.16 17.11,-50.94 23.23,-75.72l-378.9 151.44z"/>
   <path class="fil3" d="M1704.37 2163.29c8.55,-2.75 9.78,-6.88 18.34,-13.76l91.67 -74.35c7.32,-5.5 11,-11.01 18.33,-16.51l36.66 -28.92c37.89,-28.91 89.23,-75.72 130.79,-107.38l54.99 -45.43c7.34,-5.5 11.01,-11.01 18.34,-16.52 28.11,-20.65 77,-64.7 110.01,-90.86 7.32,-4.13 11,-9.64 18.33,-15.14 8.55,-5.51 10.99,-8.27 19.55,-15.14l73.34 -60.58c-4.9,-5.51 -361.79,-189.98 -378.9,-192.74 -8.56,16.53 -97.78,308.38 -106.34,337.29 -18.33,56.44 -35.44,112.89 -53.77,169.34 -7.34,23.4 -51.34,158.31 -51.34,170.7z"/>
   <path class="fil3" d="M1088.35 1680.08l7.34 8.26c3.67,2.75 6.1,4.13 9.78,6.88l272.56 227.15c6.11,5.51 11,8.26 17.11,13.77l55 45.43c7.33,5.51 11,9.64 17.11,15.14l108.78 90.87c7.33,5.5 13.45,8.26 19.56,15.14l73.33 59.2 -194.33 -680.09 -386.24 198.25z"/>
   <path class="fil3" d="M1682.37 2146.78l3.67 -1055.92c-8.56,11 -24.45,44.04 -31.79,57.81l-94.11 178.98c-20.77,39.92 -41.56,79.84 -63.56,118.39 -14.66,27.53 -3.66,41.3 3.68,70.21l140.55 490.1c6.11,24.78 33,128.03 41.56,140.43z"/>
   <polygon class="fil3" points="1478.25,1447.42 1675.04,1077.09 1312.03,924.28 "/>
   <g style="clip-path:url(#id0)">
    <image x="1675.19" y="913.34" width="802.48" height="570.43" xlink:href="aarnajewels_Images\aarnajewels_ImgID1.png"/>
   </g>
   <g style="clip-path:url(#id1)">
    <image x="901.5" y="918.54" width="391.45" height="382.13" xlink:href="aarnajewels_Images\aarnajewels_ImgID2.png"/>
   </g>
   <g style="clip-path:url(#id2)">
    <image x="907.61" y="1289.02" width="560.27" height="194.75" xlink:href="aarnajewels_Images\aarnajewels_ImgID3.png"/>
   </g>
   <g style="clip-path:url(#id3)">
    <image x="901.5" y="1288.82" width="566.98" height="406.96" xlink:href="aarnajewels_Images\aarnajewels_ImgID4.png"/>
   </g>
   <g style="clip-path:url(#id4)">
    <image x="1055.51" y="1467.07" width="412.25" height="219.08" xlink:href="aarnajewels_Images\aarnajewels_ImgID5.png"/>
   </g>
   <g style="clip-path:url(#id5)">
    <image x="907.61" y="1289.5" width="555.37" height="188.77" xlink:href="aarnajewels_Images\aarnajewels_ImgID6.png"/>
   </g>
   <g style="clip-path:url(#id6)">
    <image x="1055.51" y="1678.82" width="627.55" height="526.34" xlink:href="aarnajewels_Images\aarnajewels_ImgID7.png"/>
   </g>
   <g style="clip-path:url(#id7)">
    <image x="1060.4" y="1674.69" width="627.55" height="520.83" xlink:href="aarnajewels_Images\aarnajewels_ImgID8.png"/>
   </g>
   <g style="clip-path:url(#id8)">
    <image x="1461.29" y="1472.16" width="221.42" height="708.22" xlink:href="aarnajewels_Images\aarnajewels_ImgID9.png"/>
   </g>
   <g style="clip-path:url(#id9)">
    <image x="1675.19" y="1669.17" width="632.44" height="535.99" xlink:href="aarnajewels_Images\aarnajewels_ImgID10.png"/>
   </g>
   <g style="clip-path:url(#id10)">
    <image x="1686.19" y="1471.65" width="221.42" height="668.81" xlink:href="aarnajewels_Images\aarnajewels_ImgID11.png"/>
   </g>
   <g style="clip-path:url(#id11)">
    <image x="1455.18" y="1471.77" width="205.51" height="654.15" xlink:href="aarnajewels_Images\aarnajewels_ImgID12.png"/>
   </g>
   <g style="clip-path:url(#id12)">
    <image x="1670.3" y="1080.87" width="22.02" height="1069.22" xlink:href="aarnajewels_Images\aarnajewels_ImgID13.png"/>
   </g>
   <g style="clip-path:url(#id13)">
    <image x="1900.08" y="1472.59" width="391.45" height="203.92" xlink:href="aarnajewels_Images\aarnajewels_ImgID14.png"/>
   </g>
   <g style="clip-path:url(#id14)">
    <image x="2300.39" y="1293.79" width="171.85" height="392.36" xlink:href="aarnajewels_Images\aarnajewels_ImgID15.png"/>
   </g>
   <g style="clip-path:url(#id15)">
    <image x="1900.08" y="1283.99" width="561.49" height="190.14" xlink:href="aarnajewels_Images\aarnajewels_ImgID16.png"/>
   </g>
   <g style="clip-path:url(#id16)">
    <image x="1686.19" y="1086.95" width="221.42" height="396.82" xlink:href="aarnajewels_Images\aarnajewels_ImgID17.png"/>
   </g>
   <g style="clip-path:url(#id17)">
    <image x="1280.4" y="908.17" width="402.46" height="174.99" xlink:href="aarnajewels_Images\aarnajewels_ImgID18.png"/>
   </g>
   <g style="clip-path:url(#id18)">
    <image x="1681.3" y="904.04" width="401.24" height="173.61" xlink:href="aarnajewels_Images\aarnajewels_ImgID19.png"/>
   </g>
   <g style="clip-path:url(#id19)">
    <image x="1895.19" y="918.44" width="193.28" height="550.78" xlink:href="aarnajewels_Images\aarnajewels_ImgID20.png"/>
   </g>
   <g style="clip-path:url(#id20)">
    <image x="1681.3" y="1086.45" width="226.31" height="387.68" xlink:href="aarnajewels_Images\aarnajewels_ImgID21.png"/>
   </g>
   <g style="clip-path:url(#id21)">
    <image x="1895.19" y="912.88" width="193.28" height="550.24" xlink:href="aarnajewels_Images\aarnajewels_ImgID22.png"/>
   </g>
   <g style="clip-path:url(#id22)">
    <image x="2069.98" y="898.34" width="391.45" height="402.33" xlink:href="aarnajewels_Images\aarnajewels_ImgID23.png"/>
   </g>
   <g style="clip-path:url(#id23)">
    <image x="1900.08" y="1486.36" width="396.87" height="194.28" xlink:href="aarnajewels_Images\aarnajewels_ImgID24.png"/>
   </g>
   <g style="clip-path:url(#id24)">
    <image x="901.5" y="1283.98" width="572.5" height="199.79" xlink:href="aarnajewels_Images\aarnajewels_ImgID25.png"/>
   </g>
   <path class="fil1" d="M836.55 1686.99l0 -8.26c6.12,0 11.01,-1.37 13.45,-2.75 3.67,-1.38 6.1,-4.13 7.32,-5.51 1.23,-2.75 2.45,-6.88 2.45,-9.64 0,-4.13 -1.22,-8.26 -2.45,-13.76 0,-4.13 -2.43,-8.27 -3.65,-13.77l-7.34 -22.03 -86.78 0 -6.11 16.52c-3.66,8.26 -6.12,15.15 -7.34,19.28 -1.22,4.13 -1.22,8.26 -1.22,11.01 0,6.89 2.44,12.39 6.12,15.14 3.66,2.76 9.77,5.51 17.1,5.51l0 8.26 -79.44 0 0 -8.26c6.11,0 12.22,-4.13 18.33,-11.01 4.9,-5.51 9.79,-15.15 14.67,-26.16l78.22 -187.23 29.34 0 63.56 188.61c3.66,8.26 6.11,15.14 8.56,19.27 2.43,5.51 4.88,8.26 7.32,11.01 3.68,2.76 8.56,4.14 13.45,5.51l0 8.26 -85.56 0zm-72.11 -90.86l78.23 0 -35.45 -108.76 -42.78 108.76zm510.9 90.86l0 -8.26c6.12,0 9.77,-1.37 13.45,-2.75 2.44,-1.38 4.89,-4.13 7.33,-5.51 1.22,-2.75 1.22,-6.88 1.22,-9.64 0,-4.13 0,-8.26 -1.22,-13.76 -1.22,-4.13 -2.44,-8.27 -3.67,-13.77l-7.34 -22.03 -86.77 0 -7.34 16.52c-2.44,8.26 -4.88,15.15 -6.1,19.28 -1.23,4.13 -1.23,8.26 -1.23,11.01 0,6.89 1.23,12.39 6.11,15.14 3.67,2.76 8.56,5.51 17.11,5.51l0 8.26 -80.66 0 0 -8.26c7.33,0 13.44,-4.13 18.33,-11.01 6.11,-5.51 11,-15.15 15.89,-26.16l78.22 -187.23 29.34 0 63.55 188.61c2.45,8.26 6.11,15.14 7.34,19.27 2.44,5.51 6.11,8.26 8.56,11.01 3.66,2.76 8.55,4.14 13.44,5.51l0 8.26 -85.56 0zm-72.11 -90.86l78.23 0 -35.45 -108.76 -42.78 108.76zm441.23 -8.26l0 56.44c0,8.26 0,15.15 1.22,17.9 0,4.13 1.23,6.88 2.44,8.26 1.23,2.75 3.68,4.13 6.12,5.51 2.44,0 6.11,1.38 12.22,2.75l0 8.26 -79.45 0 0 -8.26c7.34,-1.37 12.23,-2.75 15.89,-5.51 2.45,-2.75 3.67,-5.5 4.89,-9.63 0,-4.13 1.22,-9.64 1.22,-17.9l0 -145.93c0,-8.26 0,-13.77 -1.22,-17.89 0,-2.76 -1.22,-5.51 -2.44,-8.27 -2.45,-1.37 -3.66,-2.75 -6.11,-4.12 -2.45,-1.38 -6.11,-2.76 -12.23,-4.13l0 -8.27 92.9 0c29.33,0 51.33,5.51 64.78,13.77 14.66,9.64 22,24.78 22,45.43 0,15.14 -4.89,28.91 -13.45,38.55 -9.77,11.01 -24.45,19.27 -42.78,26.16l0 1.37c7.34,2.76 14.67,6.89 19.56,11.01 4.89,5.51 11,13.77 18.33,24.79l17.11 27.53c4.89,8.26 8.56,15.14 12.23,19.28 3.66,4.12 7.33,6.88 9.77,9.63 3.67,2.76 8.56,4.13 14.68,4.13l0 8.26 -51.34 0c-4.9,-5.51 -9.78,-12.39 -13.45,-19.27 -4.89,-6.89 -8.56,-13.77 -12.22,-20.65l-17.11 -27.54c-4.89,-8.26 -8.56,-15.14 -12.23,-19.27 -3.66,-4.13 -6.11,-6.89 -8.56,-8.26 -2.43,-1.37 -6.1,-2.75 -8.54,-4.13 -3.68,0 -7.34,0 -14.67,0l-19.56 0zm0 -115.64l0 100.5 20.78 0c11,0 19.56,0 26.89,-1.38 6.11,-1.38 12.22,-4.13 18.33,-8.26 6.12,-4.13 9.78,-9.64 13.45,-16.52 3.66,-6.88 4.88,-16.52 4.88,-26.16 0,-11.01 -1.22,-19.27 -6.11,-26.16 -3.66,-8.26 -9.77,-12.38 -18.33,-16.52 -7.33,-4.13 -19.55,-5.5 -33,-5.5 -11,0 -20.78,0 -26.89,0zm530.45 123.9c4.89,6.89 8.57,12.39 11.01,17.9 3.67,5.5 7.33,11.01 9.77,16.52l2.45 0c0,-6.89 -1.22,-20.65 -1.22,-39.92 -1.23,-20.66 -1.23,-39.93 -1.23,-56.45l0 -34.42c0,-8.26 0,-13.77 0,-17.89 -1.22,-2.76 -2.44,-5.51 -3.66,-8.27 -1.22,-1.37 -2.44,-2.75 -4.89,-4.12 -2.44,-1.38 -6.11,-2.76 -12.23,-4.13l0 -8.27 67.23 0 0 8.27c-4.89,1.37 -9.78,2.75 -11.01,4.13 -2.43,1.37 -4.88,2.75 -6.1,4.12 -1.22,1.38 -2.44,4.13 -3.67,8.27 0,2.75 -1.22,9.63 -1.22,17.89l0 188.61 -23.22 0 -103.89 -156.95c-7.34,-9.63 -11.01,-17.89 -14.67,-22.02 -2.44,-4.13 -4.89,-8.26 -7.34,-13.77l-3.66 0c1.22,9.64 2.44,24.78 2.44,46.81 0,23.4 1.22,45.43 1.22,68.83l0 34.42c0,6.88 0,12.39 0,16.52 1.23,2.76 1.23,5.51 2.45,8.26 2.45,1.38 3.67,4.13 6.11,4.13 2.44,1.38 7.34,2.76 12.22,4.13l0 8.26 -67.22 0 0 -8.26c7.33,-1.37 12.22,-2.75 14.67,-5.51 2.44,-2.75 4.88,-5.5 4.88,-9.63 1.22,-4.13 1.22,-9.64 1.22,-17.9l0 -145.93c0,-8.26 0,-13.77 0,-17.89 -1.22,-2.76 -2.43,-5.51 -3.66,-8.27 -1.22,-1.37 -3.67,-2.75 -4.89,-4.12 -2.44,-1.38 -7.33,-2.76 -12.22,-4.13l0 -8.27 58.66 0 91.67 139.05zm436.35 90.86l0 -8.26c7.34,0 11,-1.37 14.67,-2.75 2.44,-1.38 4.89,-4.13 7.34,-5.51 1.21,-2.75 1.21,-6.88 1.21,-9.64 0,-4.13 0,-8.26 -1.21,-13.76 -1.23,-4.13 -2.45,-8.27 -3.68,-13.77l-7.33 -22.03 -88 0 -6.11 16.52c-2.45,8.26 -4.89,15.15 -6.11,19.28 -1.22,4.13 -1.22,8.26 -1.22,11.01 0,6.89 1.22,12.39 6.11,15.14 3.66,2.76 8.55,5.51 17.1,5.51l0 8.26 -80.66 0 0 -8.26c7.34,0 13.44,-4.13 18.34,-11.01 6.1,-5.51 10.99,-15.15 15.88,-26.16l78.22 -187.23 29.34 0 63.55 188.61c2.45,8.26 6.11,15.14 7.34,19.27 2.45,5.51 6.11,8.26 8.56,11.01 3.66,2.76 8.55,4.14 13.44,5.51l0 8.26 -86.78 0zm-70.89 -90.86l78.23 0 -35.45 -108.76 -42.78 108.76z"/>
   <path class="fil1" d="M836.55 1686.99l0 -8.26c6.12,0 11.01,-1.37 13.45,-2.75 3.67,-1.38 6.1,-4.13 7.32,-5.51 1.23,-2.75 2.45,-6.88 2.45,-9.64 0,-4.13 -1.22,-8.26 -2.45,-13.76 0,-4.13 -2.43,-8.27 -3.65,-13.77l-7.34 -22.03 -86.78 0 -6.11 16.52c-3.66,8.26 -6.12,15.15 -7.34,19.28 -1.22,4.13 -1.22,8.26 -1.22,11.01 0,6.89 2.44,12.39 6.12,15.14 3.66,2.76 9.77,5.51 17.1,5.51l0 8.26 -79.44 0 0 -8.26c6.11,0 12.22,-4.13 18.33,-11.01 4.9,-5.51 9.79,-15.15 14.67,-26.16l78.22 -187.23 29.34 0 63.56 188.61c3.66,8.26 6.11,15.14 8.56,19.27 2.43,5.51 4.88,8.26 7.32,11.01 3.68,2.76 8.56,4.14 13.45,5.51l0 8.26 -85.56 0zm-72.11 -90.86l78.23 0 -35.45 -108.76 -42.78 108.76zm510.9 90.86l0 -8.26c6.12,0 9.77,-1.37 13.45,-2.75 2.44,-1.38 4.89,-4.13 7.33,-5.51 1.22,-2.75 1.22,-6.88 1.22,-9.64 0,-4.13 0,-8.26 -1.22,-13.76 -1.22,-4.13 -2.44,-8.27 -3.67,-13.77l-7.34 -22.03 -86.77 0 -7.34 16.52c-2.44,8.26 -4.88,15.15 -6.1,19.28 -1.23,4.13 -1.23,8.26 -1.23,11.01 0,6.89 1.23,12.39 6.11,15.14 3.67,2.76 8.56,5.51 17.11,5.51l0 8.26 -80.66 0 0 -8.26c7.33,0 13.44,-4.13 18.33,-11.01 6.11,-5.51 11,-15.15 15.89,-26.16l78.22 -187.23 29.34 0 63.55 188.61c2.45,8.26 6.11,15.14 7.34,19.27 2.44,5.51 6.11,8.26 8.56,11.01 3.66,2.76 8.55,4.14 13.44,5.51l0 8.26 -85.56 0zm-72.11 -90.86l78.23 0 -35.45 -108.76 -42.78 108.76zm441.23 -8.26l0 56.44c0,8.26 0,15.15 1.22,17.9 0,4.13 1.23,6.88 2.44,8.26 1.23,2.75 3.68,4.13 6.12,5.51 2.44,0 6.11,1.38 12.22,2.75l0 8.26 -79.45 0 0 -8.26c7.34,-1.37 12.23,-2.75 15.89,-5.51 2.45,-2.75 3.67,-5.5 4.89,-9.63 0,-4.13 1.22,-9.64 1.22,-17.9l0 -145.93c0,-8.26 0,-13.77 -1.22,-17.89 0,-2.76 -1.22,-5.51 -2.44,-8.27 -2.45,-1.37 -3.66,-2.75 -6.11,-4.12 -2.45,-1.38 -6.11,-2.76 -12.23,-4.13l0 -8.27 92.9 0c29.33,0 51.33,5.51 64.78,13.77 14.66,9.64 22,24.78 22,45.43 0,15.14 -4.89,28.91 -13.45,38.55 -9.77,11.01 -24.45,19.27 -42.78,26.16l0 1.37c7.34,2.76 14.67,6.89 19.56,11.01 4.89,5.51 11,13.77 18.33,24.79l17.11 27.53c4.89,8.26 8.56,15.14 12.23,19.28 3.66,4.12 7.33,6.88 9.77,9.63 3.67,2.76 8.56,4.13 14.68,4.13l0 8.26 -51.34 0c-4.9,-5.51 -9.78,-12.39 -13.45,-19.27 -4.89,-6.89 -8.56,-13.77 -12.22,-20.65l-17.11 -27.54c-4.89,-8.26 -8.56,-15.14 -12.23,-19.27 -3.66,-4.13 -6.11,-6.89 -8.56,-8.26 -2.43,-1.37 -6.1,-2.75 -8.54,-4.13 -3.68,0 -7.34,0 -14.67,0l-19.56 0zm0 -115.64l0 100.5 20.78 0c11,0 19.56,0 26.89,-1.38 6.11,-1.38 12.22,-4.13 18.33,-8.26 6.12,-4.13 9.78,-9.64 13.45,-16.52 3.66,-6.88 4.88,-16.52 4.88,-26.16 0,-11.01 -1.22,-19.27 -6.11,-26.16 -3.66,-8.26 -9.77,-12.38 -18.33,-16.52 -7.33,-4.13 -19.55,-5.5 -33,-5.5 -11,0 -20.78,0 -26.89,0zm530.45 123.9c4.89,6.89 8.57,12.39 11.01,17.9 3.67,5.5 7.33,11.01 9.77,16.52l2.45 0c0,-6.89 -1.22,-20.65 -1.22,-39.92 -1.23,-20.66 -1.23,-39.93 -1.23,-56.45l0 -34.42c0,-8.26 0,-13.77 0,-17.89 -1.22,-2.76 -2.44,-5.51 -3.66,-8.27 -1.22,-1.37 -2.44,-2.75 -4.89,-4.12 -2.44,-1.38 -6.11,-2.76 -12.23,-4.13l0 -8.27 67.23 0 0 8.27c-4.89,1.37 -9.78,2.75 -11.01,4.13 -2.43,1.37 -4.88,2.75 -6.1,4.12 -1.22,1.38 -2.44,4.13 -3.67,8.27 0,2.75 -1.22,9.63 -1.22,17.89l0 188.61 -23.22 0 -103.89 -156.95c-7.34,-9.63 -11.01,-17.89 -14.67,-22.02 -2.44,-4.13 -4.89,-8.26 -7.34,-13.77l-3.66 0c1.22,9.64 2.44,24.78 2.44,46.81 0,23.4 1.22,45.43 1.22,68.83l0 34.42c0,6.88 0,12.39 0,16.52 1.23,2.76 1.23,5.51 2.45,8.26 2.45,1.38 3.67,4.13 6.11,4.13 2.44,1.38 7.34,2.76 12.22,4.13l0 8.26 -67.22 0 0 -8.26c7.33,-1.37 12.22,-2.75 14.67,-5.51 2.44,-2.75 4.88,-5.5 4.88,-9.63 1.22,-4.13 1.22,-9.64 1.22,-17.9l0 -145.93c0,-8.26 0,-13.77 0,-17.89 -1.22,-2.76 -2.43,-5.51 -3.66,-8.27 -1.22,-1.37 -3.67,-2.75 -4.89,-4.12 -2.44,-1.38 -7.33,-2.76 -12.22,-4.13l0 -8.27 58.66 0 91.67 139.05zm436.35 90.86l0 -8.26c7.34,0 11,-1.37 14.67,-2.75 2.44,-1.38 4.89,-4.13 7.34,-5.51 1.21,-2.75 1.21,-6.88 1.21,-9.64 0,-4.13 0,-8.26 -1.21,-13.76 -1.23,-4.13 -2.45,-8.27 -3.68,-13.77l-7.33 -22.03 -88 0 -6.11 16.52c-2.45,8.26 -4.89,15.15 -6.11,19.28 -1.22,4.13 -1.22,8.26 -1.22,11.01 0,6.89 1.22,12.39 6.11,15.14 3.66,2.76 8.55,5.51 17.1,5.51l0 8.26 -80.66 0 0 -8.26c7.34,0 13.44,-4.13 18.34,-11.01 6.1,-5.51 10.99,-15.15 15.88,-26.16l78.22 -187.23 29.34 0 63.55 188.61c2.45,8.26 6.11,15.14 7.34,19.27 2.45,5.51 6.11,8.26 8.56,11.01 3.66,2.76 8.55,4.14 13.44,5.51l0 8.26 -86.78 0zm-70.89 -90.86l78.23 0 -35.45 -108.76 -42.78 108.76z"/>
  </g>
 </g>
</svg>
