<?xml version="1.0" encoding="UTF-8"?>
<!DOCTYPE svg PUBLIC "-//W3C//DTD SVG 1.1//EN" "http://www.w3.org/Graphics/SVG/1.1/DTD/svg11.dtd">
<!-- Creator: CorelDRAW 2021 (64-Bit) -->
<svg xmlns="http://www.w3.org/2000/svg" xml:space="preserve" width="33.867mm" height="33.867mm" version="1.1" style="shape-rendering:geometricPrecision; text-rendering:geometricPrecision; image-rendering:optimizeQuality; fill-rule:evenodd; clip-rule:evenodd"
viewBox="0 0 3386.7 3386.7"
 xmlns:xlink="http://www.w3.org/1999/xlink"
 xmlns:xodm="http://www.corel.com/coreldraw/odm/2003">
 <defs>
  <style type="text/css">
   <![CDATA[
    .fil1 {fill:black}
    .fil2 {fill:#A18174}
    .fil0 {fill:white}
   ]]>
  </style>
    <clipPath id="id0">
     <path d="M1678.83 1080.53l211.76 400.5 581.39 -185.95 -382.81 -378.51 -11.61 9.71 367.58 363.15 -546.13 173.65 -206.76 -388.05 -13.42 5.5z"/>
    </clipPath>
    <clipPath id="id1">
     <path d="M916.15 1296.45l375.25 -367.51 -10.98 -9.64 -376.48 375.85 12.21 1.3z"/>
    </clipPath>
    <clipPath id="id2">
     <path d="M910 1303.43l548.83 176.2 4.92 -13.74 -547.56 -176.26 -6.19 13.8z"/>
    </clipPath>
    <clipPath id="id3">
     <path d="M903.91 1295.17l155.25 396.58 408.2 -210.63 -7.23 -12.35 -392.29 202.21 -149.14 -381.35 -14.79 5.54z"/>
    </clipPath>
    <clipPath id="id4">
     <path d="M1065.32 1684.78l399.63 -202.37 -7.36 -12.42 -399.63 202.37 7.36 12.42z"/>
    </clipPath>
    <clipPath id="id5">
     <path d="M1457.64 1463.13l-539.01 -169.35 -6.14 13.81 539.01 169.29 6.14 -13.75z"/>
    </clipPath>
    <clipPath id="id6">
     <path d="M1059.24 1691.65l622.04 512.17 -3.56 -22.08 -603.89 -498.3 -14.59 8.21z"/>
    </clipPath>
    <clipPath id="id7">
     <path d="M1062.89 1687.53l608.69 503.86 11.03 -9.6 -608.7 -503.85 -11.02 9.59z"/>
    </clipPath>
    <clipPath id="id8">
     <path d="M1462.55 1478.18l200.39 700.79 14.69 -4.01 -200.46 -700.79 -14.62 4.01z"/>
    </clipPath>
    <clipPath id="id9">
     <path d="M1681.28 2203.79l624.56 -520.34 -9.68 -9.72 -619.72 501.04 4.84 29.02z"/>
    </clipPath>
    <clipPath id="id10">
     <path d="M1889.09 1472.78l-201.65 662.18 14.63 2.84 202.9 -661.04 -15.88 -3.98z"/>
    </clipPath>
    <clipPath id="id11">
     <path d="M1460.08 1475.48l186.98 649.89 12.24 -2.78 -183.32 -649.89 -15.9 2.78z"/>
    </clipPath>
    <clipPath id="id12">
     <path d="M1671.52 1084.51l0 1060.13 14.66 3.94 1.23 -1064.07 -15.89 0z"/>
    </clipPath>
    <clipPath id="id13">
     <path d="M1902.52 1489.29l378.92 185.83 7.32 -12.37 -378.91 -185.83 -7.33 12.37z"/>
    </clipPath>
    <clipPath id="id14">
     <path d="M2315.69 1683.37l152.75 -382.68 -14.71 -4.12 -152.75 381.35 14.71 5.45z"/>
    </clipPath>
    <clipPath id="id15">
     <path d="M1911.06 1472.74l547.65 -173.44 -4.94 -13.74 -548.75 174.78 6.04 12.4z"/>
    </clipPath>
    <clipPath id="id16">
     <path d="M1687.44 1096.96l202.84 384.11 13.5 -5.62 -201.71 -384 -14.63 5.51z"/>
    </clipPath>
    <clipPath id="id17">
     <path d="M1285.31 924.84l388.66 156.93 3.65 -12.4 -386.15 -158.27 -6.16 13.74z"/>
    </clipPath>
    <clipPath id="id18">
     <path d="M2071.17 906.94l-386.23 156.93 1.25 2.76 4.89 9.64 386.23 -155.55 -6.14 -13.78z"/>
    </clipPath>
    <clipPath id="id19">
     <path d="M2071.16 919.37l-174.76 545 14.68 4.22 174.76 -545 -14.68 -4.22z"/>
    </clipPath>
    <clipPath id="id20">
     <path d="M1906.2 1465.9l-206.55 -378.57 -14.69 5.5 206.55 378.56 14.69 -5.49z"/>
    </clipPath>
    <clipPath id="id21">
     <path d="M2071.16 922.24l-174.76 534.02 14.68 4.06 172.35 -546.5 -12.27 8.42z"/>
    </clipPath>
    <clipPath id="id22">
     <path d="M2074.86 929.02l372.81 367.55 12.21 -9.69 -372.82 -384.09 -12.2 26.23z"/>
    </clipPath>
    <clipPath id="id23">
     <path d="M1902.44 1490.66l386.3 185.85 7.32 -12.39 -393.62 -173.46z"/>
    </clipPath>
    <clipPath id="id24">
     <path d="M903.94 1295.2l558.54 184.44 6.17 -13.76 -559.84 -180.37 -4.87 9.69z"/>
    </clipPath>
 </defs>
 <g id="Layer_x0020_1">
  <metadata id="CorelCorpID_0Corel-Layer"/>
  <g id="_2024653100272">
   <path class="fil0" d="M1071.22 2437.64c0,9.64 -1.22,17.9 -3.66,23.41 -2.45,5.5 -7.34,11.01 -12.23,13.76 -6.1,4.13 -13.44,8.26 -24.45,11.02l-3.66 -9.64c7.34,-1.38 12.22,-4.13 14.67,-6.89 2.44,-2.75 4.89,-5.5 6.11,-8.25 1.23,-4.14 1.23,-8.27 1.23,-15.15l0 -115.64c0,-5.51 0,-9.64 -1.23,-12.39 0,-1.38 -1.22,-4.13 -2.45,-4.13 -2.44,-1.37 -4.89,-2.75 -9.77,-4.13l0 -5.51 47.66 0 0 5.51c-2.44,1.38 -4.89,1.38 -6.11,2.76 -2.43,0 -3.66,1.37 -3.66,2.74 -1.23,1.38 -2.45,2.76 -2.45,5.51 0,1.38 0,5.51 0,9.64l0 107.38zm267.68 -9.63c-4.89,4.13 -9.78,8.25 -13.45,11.01 -4.88,2.75 -8.56,4.13 -13.44,5.51 -4.89,1.37 -11,2.75 -15.89,2.75 -15.89,0 -28.11,-4.13 -36.67,-12.4 -7.34,-9.63 -11,-22.02 -11,-38.54 0,-9.63 1.22,-19.27 6.11,-26.16 3.66,-8.26 9.78,-13.76 17.11,-19.27 7.33,-4.13 15.89,-5.51 25.67,-5.51 8.55,0 14.67,1.38 19.55,2.75 6.12,2.76 9.79,5.51 13.45,9.64 3.67,2.75 6.11,8.26 7.33,13.77 2.45,5.51 2.45,13.77 3.67,23.4l-72.11 0 0 1.38c0,8.26 0,15.14 2.44,20.65 2.44,5.51 6.11,9.64 9.78,12.39 4.89,4.13 11,5.5 18.33,5.5 6.11,0 12.23,-1.37 17.11,-4.12 4.9,-1.38 9.79,-5.51 14.67,-9.64l7.34 6.89zm-19.56 -42.68c0,-6.89 -1.23,-12.39 -3.66,-17.9 -1.23,-4.13 -3.67,-8.26 -6.12,-11.01 -3.67,-1.38 -7.33,-2.76 -13.44,-2.76 -7.33,0 -13.45,2.76 -18.34,8.26 -4.89,5.51 -7.33,13.77 -8.55,23.41l50.11 0zm262.79 -16.52l-30.57 77.09 -15.88 0 -26.89 -77.09c-2.45,-4.13 -3.67,-8.27 -4.89,-9.64 -1.22,-2.75 -2.44,-4.13 -3.67,-4.13 -1.22,-1.38 -3.66,-2.75 -6.11,-2.75l0 -5.51 45.22 0 0 5.51c-4.88,0 -7.33,1.37 -9.77,2.75 -1.23,1.38 -1.23,4.13 -1.23,5.5 0,2.76 0,4.14 0,6.89 0,1.38 1.23,4.13 2.44,6.88l17.13 52.32 29.32 -79.85 17.12 0 24.44 79.85 19.56 -50.94c1.22,-2.75 2.44,-4.13 3.66,-6.88 0,-2.76 0,-4.13 0,-6.89 0,-2.75 0,-5.5 -2.44,-6.88 -1.22,-1.38 -3.67,-2.75 -8.56,-2.75l0 -5.51 40.34 0 0 5.51c-2.45,0 -3.67,0 -4.9,1.37 -1.21,0 -2.43,1.38 -3.66,1.38 -1.22,1.38 -1.22,2.75 -2.44,5.5 -2.44,1.38 -3.67,5.51 -4.89,9.64l-33 75.72 -15.89 0 -24.44 -77.09zm332.45 59.2c-4.9,4.13 -9.78,8.25 -13.45,11.01 -3.67,2.75 -8.55,4.13 -13.45,5.51 -4.88,1.37 -9.77,2.75 -15.88,2.75 -15.89,0 -28.12,-4.13 -35.45,-12.4 -8.55,-9.63 -12.22,-22.02 -12.22,-38.54 0,-9.63 2.44,-19.27 6.11,-26.16 3.67,-8.26 9.78,-13.76 17.12,-19.27 7.33,-4.13 15.88,-5.51 25.66,-5.51 8.56,0 14.66,1.38 20.78,2.75 4.89,2.76 9.78,5.51 12.23,9.64 3.65,2.75 6.1,8.26 7.32,13.77 2.45,5.51 3.68,13.77 3.68,23.4l-72.12 0 0 1.38c0,8.26 1.22,15.14 2.45,20.65 2.43,5.51 6.11,9.64 11,12.39 3.65,4.13 9.77,5.5 17.1,5.5 6.12,0 12.22,-1.37 17.12,-4.12 4.88,-1.38 9.77,-5.51 14.66,-9.64l7.34 6.89zm-19.56 -42.68c0,-6.89 -1.22,-12.39 -2.44,-17.9 -2.45,-4.13 -4.9,-8.26 -7.34,-11.01 -3.66,-1.38 -7.33,-2.76 -12.22,-2.76 -8.56,0 -14.66,2.76 -19.55,8.26 -4.9,5.51 -7.34,13.77 -8.56,23.41l50.11 0zm212.67 34.41c0,5.51 1.22,9.64 1.22,12.4 1.22,1.37 2.45,4.12 3.68,5.5 1.22,0 4.88,1.38 8.54,2.75l0 5.51 -45.21 0 0 -5.51c3.66,-1.37 6.1,-1.37 7.32,-2.75 1.23,-1.38 2.45,-2.76 3.67,-4.13 0,-1.37 1.23,-2.75 1.23,-5.5 0,-1.38 0,-4.14 0,-8.27l0 -86.73c0,-6.88 0,-11.01 0,-13.77 0,-2.75 0,-4.13 -1.23,-6.87 0,-1.38 -1.22,-2.76 -1.22,-4.14 -1.22,0 -2.45,-1.37 -3.67,-2.75 -1.22,0 -4.88,0 -8.55,-1.38l0 -5.5 28.12 0 6.1 0 0 121.14zm250.56 -50.93l-10.99 0c-1.23,-4.13 -3.68,-6.89 -6.12,-9.64 -2.44,-1.38 -4.89,-4.13 -7.33,-4.13 -3.67,-1.38 -7.33,-1.38 -11,-1.38 -6.12,0 -11,1.38 -14.67,2.76 -3.67,2.75 -4.89,6.88 -4.89,11.01 0,2.75 0,5.51 1.22,8.26 2.45,1.38 3.67,4.13 7.34,5.51 2.44,1.37 8.56,4.13 15.89,6.88 7.33,2.75 13.44,5.51 18.33,8.26 3.67,2.76 7.34,5.5 9.78,9.64 2.44,2.75 3.67,6.88 3.67,11.01 0,5.51 -1.23,11.02 -3.67,13.77 -1.22,4.12 -4.89,6.88 -8.55,9.63 -3.68,2.76 -7.34,4.14 -13.45,5.51 -4.89,0 -9.78,1.38 -15.89,1.38 -7.34,0 -13.45,-1.38 -19.56,-1.38 -6.11,-1.37 -10.99,-2.75 -17.11,-4.13l0 -20.65 11 0c2.45,5.51 4.89,11.02 9.78,13.76 3.67,2.76 8.55,4.14 15.89,4.14 2.45,0 6.11,0 8.56,-1.38 2.44,0 4.88,-1.38 7.33,-2.76 1.22,0 3.66,-2.74 4.89,-4.12 1.22,-2.75 1.22,-5.51 1.22,-8.26 0,-2.76 -1.22,-5.51 -2.45,-8.26 -1.22,-2.76 -3.66,-4.13 -7.33,-5.51 -2.44,-2.75 -8.55,-4.13 -15.89,-8.26 -7.33,-2.75 -13.44,-4.13 -17.11,-6.88 -3.66,-2.76 -7.34,-5.51 -9.77,-9.64 -2.45,-2.75 -3.68,-6.88 -3.68,-11.01 0,-5.51 1.23,-11.02 4.9,-15.15 3.66,-4.13 8.55,-6.88 14.66,-9.64 6.11,-1.37 13.44,-2.75 22,-2.75 6.11,0 11,0 14.67,0 4.89,1.38 11,1.38 18.33,2.75l0 20.66z"/>
   <path class="fil1" d="M1071.22 2437.64c0,9.64 -1.22,17.9 -3.66,23.41 -2.45,5.5 -7.34,11.01 -12.23,13.76 -6.1,4.13 -13.44,8.26 -24.45,11.02l-3.66 -9.64c7.34,-1.38 12.22,-4.13 14.67,-6.89 2.44,-2.75 4.89,-5.5 6.11,-8.25 1.23,-4.14 1.23,-8.27 1.23,-15.15l0 -115.64c0,-5.51 0,-9.64 -1.23,-12.39 0,-1.38 -1.22,-4.13 -2.45,-4.13 -2.44,-1.37 -4.89,-2.75 -9.77,-4.13l0 -5.51 47.66 0 0 5.51c-2.44,1.38 -4.89,1.38 -6.11,2.76 -2.43,0 -3.66,1.37 -3.66,2.74 -1.23,1.38 -2.45,2.76 -2.45,5.51 0,1.38 0,5.51 0,9.64l0 107.38zm267.68 -9.63c-4.89,4.13 -9.78,8.25 -13.45,11.01 -4.88,2.75 -8.56,4.13 -13.44,5.51 -4.89,1.37 -11,2.75 -15.89,2.75 -15.89,0 -28.11,-4.13 -36.67,-12.4 -7.34,-9.63 -11,-22.02 -11,-38.54 0,-9.63 1.22,-19.27 6.11,-26.16 3.66,-8.26 9.78,-13.76 17.11,-19.27 7.33,-4.13 15.89,-5.51 25.67,-5.51 8.55,0 14.67,1.38 19.55,2.75 6.12,2.76 9.79,5.51 13.45,9.64 3.67,2.75 6.11,8.26 7.33,13.77 2.45,5.51 2.45,13.77 3.67,23.4l-72.11 0 0 1.38c0,8.26 0,15.14 2.44,20.65 2.44,5.51 6.11,9.64 9.78,12.39 4.89,4.13 11,5.5 18.33,5.5 6.11,0 12.23,-1.37 17.11,-4.12 4.9,-1.38 9.79,-5.51 14.67,-9.64l7.34 6.89zm-19.56 -42.68c0,-6.89 -1.23,-12.39 -3.66,-17.9 -1.23,-4.13 -3.67,-8.26 -6.12,-11.01 -3.67,-1.38 -7.33,-2.76 -13.44,-2.76 -7.33,0 -13.45,2.76 -18.34,8.26 -4.89,5.51 -7.33,13.77 -8.55,23.41l50.11 0zm262.79 -16.52l-30.57 77.09 -15.88 0 -26.89 -77.09c-2.45,-4.13 -3.67,-8.27 -4.89,-9.64 -1.22,-2.75 -2.44,-4.13 -3.67,-4.13 -1.22,-1.38 -3.66,-2.75 -6.11,-2.75l0 -5.51 45.22 0 0 5.51c-4.88,0 -7.33,1.37 -9.77,2.75 -1.23,1.38 -1.23,4.13 -1.23,5.5 0,2.76 0,4.14 0,6.89 0,1.38 1.23,4.13 2.44,6.88l17.13 52.32 29.32 -79.85 17.12 0 24.44 79.85 19.56 -50.94c1.22,-2.75 2.44,-4.13 3.66,-6.88 0,-2.76 0,-4.13 0,-6.89 0,-2.75 0,-5.5 -2.44,-6.88 -1.22,-1.38 -3.67,-2.75 -8.56,-2.75l0 -5.51 40.34 0 0 5.51c-2.45,0 -3.67,0 -4.9,1.37 -1.21,0 -2.43,1.38 -3.66,1.38 -1.22,1.38 -1.22,2.75 -2.44,5.5 -2.44,1.38 -3.67,5.51 -4.89,9.64l-33 75.72 -15.89 0 -24.44 -77.09zm332.45 59.2c-4.9,4.13 -9.78,8.25 -13.45,11.01 -3.67,2.75 -8.55,4.13 -13.45,5.51 -4.88,1.37 -9.77,2.75 -15.88,2.75 -15.89,0 -28.12,-4.13 -35.45,-12.4 -8.55,-9.63 -12.22,-22.02 -12.22,-38.54 0,-9.63 2.44,-19.27 6.11,-26.16 3.67,-8.26 9.78,-13.76 17.12,-19.27 7.33,-4.13 15.88,-5.51 25.66,-5.51 8.56,0 14.66,1.38 20.78,2.75 4.89,2.76 9.78,5.51 12.23,9.64 3.65,2.75 6.1,8.26 7.32,13.77 2.45,5.51 3.68,13.77 3.68,23.4l-72.12 0 0 1.38c0,8.26 1.22,15.14 2.45,20.65 2.43,5.51 6.11,9.64 11,12.39 3.65,4.13 9.77,5.5 17.1,5.5 6.12,0 12.22,-1.37 17.12,-4.12 4.88,-1.38 9.77,-5.51 14.66,-9.64l7.34 6.89zm-19.56 -42.68c0,-6.89 -1.22,-12.39 -2.44,-17.9 -2.45,-4.13 -4.9,-8.26 -7.34,-11.01 -3.66,-1.38 -7.33,-2.76 -12.22,-2.76 -8.56,0 -14.66,2.76 -19.55,8.26 -4.9,5.51 -7.34,13.77 -8.56,23.41l50.11 0zm212.67 34.41c0,5.51 1.22,9.64 1.22,12.4 1.22,1.37 2.45,4.12 3.68,5.5 1.22,0 4.88,1.38 8.54,2.75l0 5.51 -45.21 0 0 -5.51c3.66,-1.37 6.1,-1.37 7.32,-2.75 1.23,-1.38 2.45,-2.76 3.67,-4.13 0,-1.37 1.23,-2.75 1.23,-5.5 0,-1.38 0,-4.14 0,-8.27l0 -86.73c0,-6.88 0,-11.01 0,-13.77 0,-2.75 0,-4.13 -1.23,-6.87 0,-1.38 -1.22,-2.76 -1.22,-4.14 -1.22,0 -2.45,-1.37 -3.67,-2.75 -1.22,0 -4.88,0 -8.55,-1.38l0 -5.5 28.12 0 6.1 0 0 121.14zm250.56 -50.93l-10.99 0c-1.23,-4.13 -3.68,-6.89 -6.12,-9.64 -2.44,-1.38 -4.89,-4.13 -7.33,-4.13 -3.67,-1.38 -7.33,-1.38 -11,-1.38 -6.12,0 -11,1.38 -14.67,2.76 -3.67,2.75 -4.89,6.88 -4.89,11.01 0,2.75 0,5.51 1.22,8.26 2.45,1.38 3.67,4.13 7.34,5.51 2.44,1.37 8.56,4.13 15.89,6.88 7.33,2.75 13.44,5.51 18.33,8.26 3.67,2.76 7.34,5.5 9.78,9.64 2.44,2.75 3.67,6.88 3.67,11.01 0,5.51 -1.23,11.02 -3.67,13.77 -1.22,4.12 -4.89,6.88 -8.55,9.63 -3.68,2.76 -7.34,4.14 -13.45,5.51 -4.89,0 -9.78,1.38 -15.89,1.38 -7.34,0 -13.45,-1.38 -19.56,-1.38 -6.11,-1.37 -10.99,-2.75 -17.11,-4.13l0 -20.65 11 0c2.45,5.51 4.89,11.02 9.78,13.76 3.67,2.76 8.55,4.14 15.89,4.14 2.45,0 6.11,0 8.56,-1.38 2.44,0 4.88,-1.38 7.33,-2.76 1.22,0 3.66,-2.74 4.89,-4.12 1.22,-2.75 1.22,-5.51 1.22,-8.26 0,-2.76 -1.22,-5.51 -2.45,-8.26 -1.22,-2.76 -3.66,-4.13 -7.33,-5.51 -2.44,-2.75 -8.55,-4.13 -15.89,-8.26 -7.33,-2.75 -13.44,-4.13 -17.11,-6.88 -3.66,-2.76 -7.34,-5.51 -9.77,-9.64 -2.45,-2.75 -3.68,-6.88 -3.68,-11.01 0,-5.51 1.23,-11.02 4.9,-15.15 3.66,-4.13 8.55,-6.88 14.66,-9.64 6.11,-1.37 13.44,-2.75 22,-2.75 6.11,0 11,0 14.67,0 4.89,1.38 11,1.38 18.33,2.75l0 20.66z"/>
   <path class="fil2" d="M1706.91 2182.44l111.13 -92.1c0.78,-0.88 1.58,-1.69 2.36,-2.45l-113.49 94.55zm118.58 -98.8c2.6,-1.91 5.37,-3.63 8.44,-5.7l264.01 -217.51c4.89,-5.51 7.32,-8.26 13.44,-12.39 29.32,-22.03 53.77,-45.44 86.77,-70.22 6.12,-5.51 8.57,-8.26 14.67,-13.77l58.67 -48.18c11,-6.88 19.56,-16.52 30.56,-23.41 4.13,-3.48 8.91,-6.23 13.42,-9.18l-14.49 -5.36 8.85 -22.09c-21.98,-7.74 -72.77,-33.24 -89.69,-41.95l0 15.21 31.59 15.49 44.33 19.54 -6.66 11.28 2.73 1.59 4.03 -3.26 9.67 9.72 -480.34 400.19zm371.58 -481.32c-8.89,-4.39 -17.79,-8.74 -26.68,-13.04l4.52 6.86 0.2 0.28 0.03 0.04 0.16 0.23 0.06 0.09 0.14 0.19 0.09 0.13 0.1 0.14 0.12 0.17 0.07 0.11 0.15 0.21 0.05 0.06 0.17 0.25 0.02 0.02 0.18 0.26 0.02 0.03 0.17 0.24 0.05 0.07 0.14 0.2 0.07 0.1 0.11 0.16 0.1 0.15 0.08 0.11 0.13 0.19 0.05 0.08 0.16 0.22 0.03 0.04 0.17 0.26 0.01 0 0.17 0.25 0.04 0.05 0.14 0.21 0.06 0.09 0.11 0.17 0.09 0.12 0.09 0.13 0.11 0.17 0.06 0.08 0.14 0.21 0.03 0.05 0.16 0.24 0.01 0.01 0.17 0.25 0.02 0.03 0.14 0.22 0.05 0.07 0.12 0.17 0.07 0.11 0.09 0.14 0.1 0.15 0.07 0.1 0.12 0.18 0.04 0.06 0.14 0.22 0.02 0.03 0.16 0.24 0.01 0.01 0.15 0.23 0.03 0.06 0.12 0.18 0.06 0.09 0.1 0.15 0.08 0.13 0.07 0.11 0.11 0.17 0.04 0.07 0.13 0.2 0.02 0.04 0.15 0.24 0.15 0.24 0.03 0.03 0.12 0.2 0.04 0.07 0.1 0.17 0.07 0.11 0.08 0.12 0.09 0.15 0.05 0.08 0.11 0.19 0.03 0.05 0.13 0.22 0.01 0.01 0.14 0.23 0.01 0.02 0.13 0.21 0.03 0.06 0.1 0.17 0.06 0.1 0.08 0.13 0.08 0.13 0.05 0.1 0.1 0.17 0.03 0.06 0.12 0.2 0.01 0.03 0.13 0.23 0.01 0.01 0.12 0.22 0.03 0.04 0.1 0.19 0.04 0.08 0.08 0.14 0.07 0.12 0.06 0.11 0.08 0.15 0.04 0.08 0.1 0.18 0.02 0.04 0.12 0.22 0 0.01 0.12 0.22 0.02 0.03 0.1 0.2 0.03 0.06 0.08 0.16 0.06 0.1 0.06 0.13 0.07 0.13 0.04 0.09 0.01 0 12.79 6.27 -0.01 -0.21 -0.01 -0.17 0 -0.04 -0.01 -0.21 -0.01 -0.22 0 -0.13 -0.01 -0.08 -0.01 -0.22 -0.01 -0.22 0 -0.09 -0.01 -0.12 -0.01 -0.22 -0.01 -0.22 0 -0.05 -0.01 -0.17 -0.01 -0.23 -0.01 -0.22 0 -0.01 -0.01 -0.22 -0.01 -0.22 -0.01 -0.19 0 -0.04 -0.01 -0.23 -0.01 -0.23 -0.01 -0.15 0 -0.08 -0.01 -0.23 -0.01 -0.23 -0.01 -0.11 0 -0.13 -0.01 -0.23 -0.01 -0.24 0 -0.06 -0.01 -0.18 -0.01 -0.24 -0.01 -0.24 0 -0.01 -0.01 -0.23 -0.01 -0.24 -0.01 -0.21 0 -0.03 -0.01 -0.25 -0.01 -0.24 -0.01 -0.16 0 -0.09 -0.01 -0.25 -0.01 -0.25 0 -0.11 -0.01 -0.14 0 -0.25 -0.01 -0.25 -0.01 -0.07 0 -0.18 -0.01 -0.26 -0.01 -0.25 -0.01 -0.02 0 -0.24 -0.01 -0.26 -0.01 -0.22 0 -0.04 -0.01 -0.26 -0.01 -0.26 -0.01 -0.17 0 -0.09 0 -0.26 -0.01 -0.27 -0.01 -0.12 0 -0.14 -0.01 -0.27 -0.01 -0.27 0 -0.07 -0.01 -0.2 0 -0.27 -0.01 -0.27 -0.01 -0.02 0 -0.25 -0.01 -0.27 -0.01 -0.25 0 -0.03 0 -0.28 -0.01 -0.27 -0.01 -0.19 0 -0.09 -0.01 -0.28 0 -0.28 -0.01 -0.13 0 -0.15zm-83.77 -40.28l-43.5 -20.61 0 1.01 0 0.2 0 0.21 0 0.2 0 0.21 0 0.2 0 0.08 0 0.13 0 0.2 0 0.21 0 0.2 0 0.2 0 0.15 0 0.06 0 0.2 0 0.21 0.01 0.2 0 0.2 0 0.21 0 0.01 0 0.19 0 0.21 0 0.2 0 0.2 0 0.21 0 0.08 0 0.12 0.01 0.2 0 0.21 0 0.2 0 0.2 0 0.16 0 0.04 0 0.21 0 0.2 0.01 0.2 0 0.21 0 0.2 0 0.03 0 0.17 0 0.2 0 0.21 0.01 0.2 0 0.2 0 0.11 0 0.09 0 0.21 0 0.2 0.01 0.2 0 0.2 0 0.18 0 0.02 0 0.21 0.01 0.2 0 0.2 0 0.2 0 0.2 0.01 0.05 0 0.15 0 0.21 0 0.2 0 0.2 0.01 0.2 0 0.12 0 0.08 0 0.2 0.01 0.2 0 0.2 0 0.21 0 0.19 0 0.01 0.01 0.2 0 0.2 0 0.2 0.01 0.2 0 0.2 57.74 28.32 -14.35 -21.69zm-67.95 -32.3c-24.76,-11.9 -49.59,-24.09 -74.53,-36.89 -14.82,-7.71 -30.71,-14.21 -45.67,-22.87l-20.75 6.64 0.57 0.14 -202.91 661.04 -14.62 -2.84 10.9 -35.81 1.72 -493.03 -0.07 -0.11 -0.01 -0.01 -0.06 -0.09 -0.07 -0.11 -0.05 -0.08 -0.01 -0.03 -0.07 -0.1 -0.07 -0.11 -0.03 -0.04 -0.04 -0.06 -0.07 -0.11 -0.06 -0.1 -0.01 0 -0.06 -0.1 -0.07 -0.11 -0.04 -0.06 -0.03 -0.04 -0.07 -0.1 -0.07 -0.1 -0.01 -0.03 -0.05 -0.07 -0.07 -0.1 -0.06 -0.09 -0.01 -0.01 -0.07 -0.1 -0.06 -0.1 -0.03 -0.05 -0.04 -0.05 -0.07 -0.1 -0.06 -0.1 -0.01 -0.01 -0.06 -0.08 -0.07 -0.1 -0.04 -0.07 -0.02 -0.02 -0.07 -0.1 -0.07 -0.09 -0.02 -0.04 -0.05 -0.06 -0.06 -0.09 -0.06 -0.09 -0.01 -0.01 -0.06 -0.09 -0.07 -0.09 -0.04 -0.06 -0.03 -0.03 -0.06 -0.09 -0.07 -0.09 -0.01 -0.02 -0.06 -0.07 -0.06 -0.09 -0.06 -0.08 -0.01 -0.01 -0.07 -0.09 -0.06 -0.09 -0.03 -0.04 -0.04 -0.05 -0.06 -0.08 -0.07 -0.09 -0.07 -0.08 -0.06 -0.09 -0.04 -0.06 -0.09 -0.11 -0.07 -0.08 -0.02 -0.03 -0.04 -0.05 -0.07 -0.09 -0.06 -0.07 -0.01 -0.01 -0.06 -0.08 -0.07 -0.08 -0.03 -0.04 -0.03 -0.04 -0.07 -0.08 -0.06 -0.08 -0.01 -0.01 -0.06 -0.07 -0.07 -0.08 -0.05 -0.05 -0.01 -0.02 -0.07 -0.08 -0.06 -0.08 -0.03 -0.02 -0.04 -0.05 -0.06 -0.08 -0.07 -0.07c-3.66,-4.12 -6.11,-6.89 -8.56,-8.25l-0.11 -0.07 -0.12 -0.06 -0.12 -0.07 -0.05 -0.03 -0.65 556.79 -14.66 -3.94 0 -26.58c-11.32,-36.04 -26.34,-93.97 -30.71,-111.7l-140.56 -490.11c-7.34,-28.9 -18.33,-42.66 -3.67,-70.2 22,-38.56 42.78,-78.47 63.57,-118.39l94.11 -178.98c4.04,-7.59 10.68,-21.01 17.26,-33.39l0 -30.77 9.42 0 -2.11 -3.98 11.93 -4.89 -4.57 -9.01 -1.25 -2.76 386.23 -156.93 5.22 11.71 4.84 -3.32 5.83 -12.54 10.96 11.29c-0.67,-4.29 -4.15,-8.59 -13.53,-13.21 -29.34,8.26 -262.79,104.62 -298.23,118.4 -17.11,6.88 -31.77,13.77 -48.9,20.65 -13.43,5.51 -37.88,16.52 -51.32,19.27 -15.89,5.51 -34.22,-6.88 -48.89,-13.76l-147.89 -61.96c-33,-13.77 -64.79,-27.53 -97.79,-41.29 -15.89,-6.89 -34.21,-13.78 -48.9,-20.66 -13.43,-5.5 -36.65,-16.52 -50.1,-19.27l-308.01 307c-8.17,7.89 -69.88,68.55 -75.38,76.36l3.34 1.08 367.99 -367.39 5.3 4.64 5.76 -12.84 386.15 158.27 -3.66 12.4 -1.16 -0.47 -194.55 366.12 -162.09 -510.13 -19.82 -8c9.86,41.18 29.23,94.4 42.58,135.41l125.57 399.84 4.16 1.34 -3.94 8.79 11.27 -1.97 0.47 1.67 0.72 -0.2 200.2 699.87 29.76 -24.07c9.76,-37.5 42.35,-137.53 48.57,-157.38 18.34,-56.45 35.45,-112.89 53.78,-169.34 7.85,-26.54 83.67,-274.62 102.68,-327.91l-9.72 -4.68 9.84 4.34 0.28 -0.79 -10.04 -4.92 7.33 -12.37 135.5 66.45 0 -13.63zm-345.16 38.99l0.32 -92.76 -0.18 -0.07 -0.17 -0.06 -0.01 0 -0.18 -0.07 -0.18 -0.06 -0.05 -0.02 -0.14 -0.04 -0.18 -0.07 -0.11 -0.03 -0.08 -0.03 -0.19 -0.06 -0.16 -0.05 -0.02 -0.01 -0.19 -0.06 -0.19 -0.06 -0.04 -0.01 -0.16 -0.05 -0.19 -0.06 -0.09 -0.03 -0.1 -0.03 -0.2 -0.05 -0.15 -0.05 -0.04 -0.01 -0.2 -0.05 -0.2 -0.06 -0.02 -0.01 -0.18 -0.04 -0.2 -0.06 -0.08 -0.02 -0.12 -0.03 -0.2 -0.05 -0.15 -0.04 -0.05 -0.01 -0.21 -0.06 -0.2 -0.05 -0.01 0 -0.2 -0.05 -0.21 -0.04 -0.07 -0.02 -0.14 -0.03 -0.21 -0.05 -0.13 -0.03 -0.08 -0.02 -0.21 -0.05 -0.2 -0.04 -0.01 0 -0.21 -0.05 -0.22 -0.04 -0.06 -0.01 -0.15 -0.04 -0.22 -0.04 -0.13 -0.03 -0.09 -0.01 -0.21 -0.05 -0.2 -0.03 -0.02 -0.01 -0.22 -0.04 -0.22 -0.04 -0.05 -0.01 -0.18 -0.03 -0.22 -0.04 -0.11 -0.02 -0.11 -0.02 -0.23 -0.04 -0.18 -0.03 -0.04 0 -0.23 -0.04 -0.22 -0.04 -0.04 0 -0.19 -0.03 -0.23 -0.04 -0.1 -0.02 -0.13 -0.01 -0.23 -0.04 -0.18 -0.02 -0.05 -0.01 -0.23 -0.04 -0.24 -0.03 -0.01 0 -0.22 -0.03 -0.24 -0.03 -0.08 -0.01 -0.15 -0.02 -0.95 -0.12 -0.24 -0.03 -0.24 -0.03 -0.11 99.09 0.09 -0.01 0.08 -0.01 0.09 -0.01 0.02 0 0.06 -0.01 0.09 -0.01 0.03 0 0.05 0 0.09 -0.01 0.05 -0.01 0.03 0 0.09 -0.01 0.08 -0.01 0.09 -0.01 0.08 -0.01 0.09 -0.01 0.08 -0.01 0.09 -0.01 0.08 -0.01 0.02 0 0.06 -0.01 0.09 -0.01 0.08 -0.01 0.09 -0.01 0.05 -0.01 0.03 0 0.08 -0.01 0.09 -0.02 0.08 -0.01 0.08 -0.01 0.09 -0.01 0.08 -0.01 0.08 -0.01 0.08 -0.01 0.03 0 0.06 -0.01 0.08 -0.01 0.08 -0.02 0.08 -0.01 0.06 0 0.03 -0.01 0.08 -0.01 0.08 -0.01 0.08 -0.02 0.08 -0.01 0.01 0 0.08 -0.01 0.08 -0.01 0.08 -0.01 0.04 -0.01 0.04 -0.01 0.03 0 0.05 -0.01 0.09 -0.01 0.08 -0.02 0.08 -0.01 0.05 -0.01 0.03 0 0.08 -0.01 0.05 -0.01 0.03 -0.01 0.08 -0.01 0.08 -0.01 0.08 -0.02 0.08 -0.01 0.08 -0.02 0.08 -0.01 0.03 0 0.05 -0.01 0.08 -0.02 0.08 -0.01 0.08 -0.02 0.06 -0.01 0.02 0 0.08 -0.02 0.08 -0.01 0.08 -0.02 0.08 -0.01 0.13 -0.03 0.12 -0.03 0.04 -0.01 0.09 -0.02 0.12 -0.03 0.07 -0.01 0.06 -0.02 0.13 -0.03 0.1 -0.02 0.02 -0.01 0.13 -0.03 0.12 -0.03 0.02 0 0.11 -0.04 0.13 -0.03 0.04 -0.01 0.08 -0.02 0.13 -0.03 0.08 -0.02 0.04 -0.02 0.13 -0.03 0.12 -0.03 0.01 -0.01 0.12 -0.03 0.13 -0.04 0.02 0 0.1 -0.03 0.13 -0.04 0.06 -0.01 0.07 -0.02 0.12 -0.04 0.09 -0.03 0.04 -0.01 0.12 -0.04 0.13 -0.03 0.12 -0.04 0.13 -0.04 0.04 -0.01 0.09 -0.03 0.12 -0.04 0.07 -0.02 0.06 -0.02 0.12 -0.04 0.11 -0.03 0.02 -0.01 0.13 -0.04 0.12 -0.04 0.02 -0.01 0.11 -0.04 0.12 -0.04 0.05 -0.01 0.08 -0.03 0.13 -0.04 0.08 -0.03 0.04 -0.02 0.13 -0.04 0.12 -0.04 0 -0.01 0.13 -0.04 0.12 -0.04 0.03 -0.01 0.1 -0.04 0.13 -0.05 0.06 -0.02 0.06 -0.02 0.13 -0.05 0.38 -0.14 0.12 -0.05 0.13 -0.05 0.04 -0.01 0.08 -0.04 0.13 -0.05 0.63 -0.25 0.02 0 0.11 -0.05 0.12 -0.05 0.06 -0.02 0.07 -0.03 0.12 -0.06 0.09 -0.03 0.04 -0.02zm0.39 -110.64l1.16 -334.05 -7.2 -13.63 -7.14 -13.09 -0.42 359.88 0.22 0.01 0.22 0.01 0.23 0 0.22 0.01 0.1 0 0.12 0.01 0.22 0.01 0.22 0.01 0.22 0.01 0.66 0.02 0.22 0.01 0.22 0.01 0.22 0.01 0.87 0.05 0.21 0.01 0.22 0.01 0.22 0.01 0.21 0.01 0.05 0 0.38 0.03 0.22 0.01 0.21 0.01 2.97 0.19 0.01 0.01 0.41 0.03 0.21 0.02 0.42 0.03 0.19 0.01 0.02 0.01 0.41 0.03 0.21 0.02 0.42 0.03 0.16 0.01 0.04 0.01 0.21 0.02 0.2 0.02 0.41 0.03 0.21 0.02 0.15 0.01 0.05 0.01 0.21 0.02 0.2 0.02 0.2 0.02 0.21 0.02 0.2 0.02 0.14 0.01 0.06 0.01zm-8 -382.42l6.36 11.93 0.71 -0.27 2.21 4.05 0.06 -19.48 -9.34 3.77zm-404.65 -149.78l3.48 3.05 -368.68 361.07 5.64 1.81 43.87 -45.41c18.34,-15.13 75.78,-75.71 91.67,-90.85 15.89,-12.39 31.78,-31.67 46.44,-45.43l46.45 -45.43c11,-9.64 13.45,-15.15 23.23,-23.4 13.15,-12.13 102.34,-103.31 115.34,-112.41l-7.44 -3zm1027.88 757.17c6.06,-3.97 11.57,-8.34 14.35,-15.38 11,-23.4 20.78,-50.93 30.56,-74.34 37.88,-99.12 80.66,-198.24 117.33,-297.36 -2.93,-3.29 -5.86,-3.96 -10.01,-4.79l3.94 3.89 -10.56 3.38 -0.09 0.23 7.12 2 -152.64 382.37zm-639.28 492.2l-1.36 0.37 1.65 1.37 -0.29 -1.74zm-214.1 -691.57l-2.32 1.17 -154.89 79.92 1.15 3.4 157.16 -80.67 -1.1 -3.82zm-186.3 96.1l-31.69 16.35 7.45 0 25.33 -13 -1.09 -3.35zm-61.03 31.49l-21.74 11.22 -2.12 4.77 31.15 -15.99 -7.29 0zm-53.54 27.62l-83.04 42.85 579.38 479.58 -3.1 -10.82 -59.21 -47.78c-6.12,-6.89 -12.22,-9.65 -19.56,-15.15l-108.78 -90.86c-6.11,-5.51 -9.78,-9.64 -17.1,-15.14l-55.01 -45.44c-6.12,-5.51 -10.99,-8.26 -17.11,-13.77l-272.57 -227.15c-3.67,-2.76 -6.1,-4.13 -9.77,-6.88l-7.34 -8.26 71.21 -36.55 0.01 0 0.19 -0.43 0.23 -0.51 0.23 -0.51 0.23 -0.52 1.11 -2.66zm-88.38 25.75l-137.67 -349.84 -7.94 -2.49 139.08 355.64 6.53 -3.31zm851.8 -210.67c5.16,-18.54 15.23,-45.98 18.94,-57.5l145.52 -453.08 -7.56 -7.46 -167.16 521.31 10.26 -3.27z"/>
   <g style="clip-path:url(#id0)">
    <image x="1675.19" y="913.34" width="802.48" height="570.43" xlink:href="aarnajewels_Images\aarnajewels_ImgID1.png"/>
   </g>
   <g style="clip-path:url(#id1)">
    <image x="901.5" y="918.54" width="391.45" height="382.13" xlink:href="aarnajewels_Images\aarnajewels_ImgID2.png"/>
   </g>
   <g style="clip-path:url(#id2)">
    <image x="907.61" y="1289.02" width="560.27" height="194.75" xlink:href="aarnajewels_Images\aarnajewels_ImgID3.png"/>
   </g>
   <g style="clip-path:url(#id3)">
    <image x="901.5" y="1288.82" width="566.98" height="406.96" xlink:href="aarnajewels_Images\aarnajewels_ImgID4.png"/>
   </g>
   <g style="clip-path:url(#id4)">
    <image x="1055.51" y="1467.07" width="412.25" height="219.08" xlink:href="aarnajewels_Images\aarnajewels_ImgID5.png"/>
   </g>
   <g style="clip-path:url(#id5)">
    <image x="907.61" y="1289.5" width="555.37" height="188.77" xlink:href="aarnajewels_Images\aarnajewels_ImgID6.png"/>
   </g>
   <g style="clip-path:url(#id6)">
    <image x="1055.51" y="1678.82" width="627.55" height="526.34" xlink:href="aarnajewels_Images\aarnajewels_ImgID7.png"/>
   </g>
   <g style="clip-path:url(#id7)">
    <image x="1060.4" y="1674.69" width="627.55" height="520.83" xlink:href="aarnajewels_Images\aarnajewels_ImgID8.png"/>
   </g>
   <g style="clip-path:url(#id8)">
    <image x="1461.29" y="1472.16" width="221.42" height="708.22" xlink:href="aarnajewels_Images\aarnajewels_ImgID9.png"/>
   </g>
   <g style="clip-path:url(#id9)">
    <image x="1675.19" y="1669.17" width="632.44" height="535.99" xlink:href="aarnajewels_Images\aarnajewels_ImgID10.png"/>
   </g>
   <g style="clip-path:url(#id10)">
    <image x="1686.19" y="1471.65" width="221.42" height="668.81" xlink:href="aarnajewels_Images\aarnajewels_ImgID11.png"/>
   </g>
   <g style="clip-path:url(#id11)">
    <image x="1455.18" y="1471.77" width="205.51" height="654.15" xlink:href="aarnajewels_Images\aarnajewels_ImgID12.png"/>
   </g>
   <g style="clip-path:url(#id12)">
    <image x="1670.3" y="1080.87" width="22.02" height="1069.22" xlink:href="aarnajewels_Images\aarnajewels_ImgID13.png"/>
   </g>
   <g style="clip-path:url(#id13)">
    <image x="1900.08" y="1472.59" width="391.45" height="203.92" xlink:href="aarnajewels_Images\aarnajewels_ImgID14.png"/>
   </g>
   <g style="clip-path:url(#id14)">
    <image x="2300.39" y="1293.79" width="171.85" height="392.36" xlink:href="aarnajewels_Images\aarnajewels_ImgID15.png"/>
   </g>
   <g style="clip-path:url(#id15)">
    <image x="1900.08" y="1283.99" width="561.49" height="190.14" xlink:href="aarnajewels_Images\aarnajewels_ImgID16.png"/>
   </g>
   <g style="clip-path:url(#id16)">
    <image x="1686.19" y="1086.95" width="221.42" height="396.82" xlink:href="aarnajewels_Images\aarnajewels_ImgID17.png"/>
   </g>
   <g style="clip-path:url(#id17)">
    <image x="1280.4" y="908.17" width="402.46" height="174.99" xlink:href="aarnajewels_Images\aarnajewels_ImgID18.png"/>
   </g>
   <g style="clip-path:url(#id18)">
    <image x="1681.3" y="904.04" width="401.24" height="173.61" xlink:href="aarnajewels_Images\aarnajewels_ImgID19.png"/>
   </g>
   <g style="clip-path:url(#id19)">
    <image x="1895.19" y="918.44" width="193.28" height="550.78" xlink:href="aarnajewels_Images\aarnajewels_ImgID20.png"/>
   </g>
   <g style="clip-path:url(#id20)">
    <image x="1681.3" y="1086.45" width="226.31" height="387.68" xlink:href="aarnajewels_Images\aarnajewels_ImgID21.png"/>
   </g>
   <g style="clip-path:url(#id21)">
    <image x="1895.19" y="912.88" width="193.28" height="550.24" xlink:href="aarnajewels_Images\aarnajewels_ImgID22.png"/>
   </g>
   <g style="clip-path:url(#id22)">
    <image x="2069.98" y="898.34" width="391.45" height="402.33" xlink:href="aarnajewels_Images\aarnajewels_ImgID23.png"/>
   </g>
   <g style="clip-path:url(#id23)">
    <image x="1900.08" y="1486.36" width="396.87" height="194.28" xlink:href="aarnajewels_Images\aarnajewels_ImgID24.png"/>
   </g>
   <g style="clip-path:url(#id24)">
    <image x="901.5" y="1283.98" width="572.5" height="199.79" xlink:href="aarnajewels_Images\aarnajewels_ImgID25.png"/>
   </g>
   <path class="fil0" d="M836.55 1686.99l0 -8.26c6.12,0 11.01,-1.37 13.45,-2.75 3.67,-1.38 6.1,-4.13 7.32,-5.51 1.23,-2.75 2.45,-6.88 2.45,-9.64 0,-4.13 -1.22,-8.26 -2.45,-13.76 0,-4.13 -2.43,-8.27 -3.65,-13.77l-7.34 -22.03 -86.78 0 -6.11 16.52c-3.66,8.26 -6.12,15.15 -7.34,19.28 -1.22,4.13 -1.22,8.26 -1.22,11.01 0,6.89 2.44,12.39 6.12,15.14 3.66,2.76 9.77,5.51 17.1,5.51l0 8.26 -79.44 0 0 -8.26c6.11,0 12.22,-4.13 18.33,-11.01 4.9,-5.51 9.79,-15.15 14.67,-26.16l78.22 -187.23 29.34 0 63.56 188.61c3.66,8.26 6.11,15.14 8.56,19.27 2.43,5.51 4.88,8.26 7.32,11.01 3.68,2.76 8.56,4.14 13.45,5.51l0 8.26 -85.56 0zm-72.11 -90.86l78.23 0 -35.45 -108.76 -42.78 108.76zm510.9 90.86l0 -8.26c6.12,0 9.77,-1.37 13.45,-2.75 2.44,-1.38 4.89,-4.13 7.33,-5.51 1.22,-2.75 1.22,-6.88 1.22,-9.64 0,-4.13 0,-8.26 -1.22,-13.76 -1.22,-4.13 -2.44,-8.27 -3.67,-13.77l-7.34 -22.03 -86.77 0 -7.34 16.52c-2.44,8.26 -4.88,15.15 -6.1,19.28 -1.23,4.13 -1.23,8.26 -1.23,11.01 0,6.89 1.23,12.39 6.11,15.14 3.67,2.76 8.56,5.51 17.11,5.51l0 8.26 -80.66 0 0 -8.26c7.33,0 13.44,-4.13 18.33,-11.01 6.11,-5.51 11,-15.15 15.89,-26.16l78.22 -187.23 29.34 0 63.55 188.61c2.45,8.26 6.11,15.14 7.34,19.27 2.44,5.51 6.11,8.26 8.56,11.01 3.66,2.76 8.55,4.14 13.44,5.51l0 8.26 -85.56 0zm-72.11 -90.86l78.23 0 -35.45 -108.76 -42.78 108.76zm441.23 -8.26l0 56.44c0,8.26 0,15.15 1.22,17.9 0,4.13 1.23,6.88 2.44,8.26 1.23,2.75 3.68,4.13 6.12,5.51 2.44,0 6.11,1.38 12.22,2.75l0 8.26 -79.45 0 0 -8.26c7.34,-1.37 12.23,-2.75 15.89,-5.51 2.45,-2.75 3.67,-5.5 4.89,-9.63 0,-4.13 1.22,-9.64 1.22,-17.9l0 -145.93c0,-8.26 0,-13.77 -1.22,-17.89 0,-2.76 -1.22,-5.51 -2.44,-8.27 -2.45,-1.37 -3.66,-2.75 -6.11,-4.12 -2.45,-1.38 -6.11,-2.76 -12.23,-4.13l0 -8.27 92.9 0c29.33,0 51.33,5.51 64.78,13.77 14.66,9.64 22,24.78 22,45.43 0,15.14 -4.89,28.91 -13.45,38.55 -9.77,11.01 -24.45,19.27 -42.78,26.16l0 1.37c7.34,2.76 14.67,6.89 19.56,11.01 4.89,5.51 11,13.77 18.33,24.79l17.11 27.53c4.89,8.26 8.56,15.14 12.23,19.28 3.66,4.12 7.33,6.88 9.77,9.63 3.67,2.76 8.56,4.13 14.68,4.13l0 8.26 -51.34 0c-4.9,-5.51 -9.78,-12.39 -13.45,-19.27 -4.89,-6.89 -8.56,-13.77 -12.22,-20.65l-17.11 -27.54c-4.89,-8.26 -8.56,-15.14 -12.23,-19.27 -3.66,-4.13 -6.11,-6.89 -8.56,-8.26 -2.43,-1.37 -6.1,-2.75 -8.54,-4.13 -3.68,0 -7.34,0 -14.67,0l-19.56 0zm0 -115.64l0 100.5 20.78 0c11,0 19.56,0 26.89,-1.38 6.11,-1.38 12.22,-4.13 18.33,-8.26 6.12,-4.13 9.78,-9.64 13.45,-16.52 3.66,-6.88 4.88,-16.52 4.88,-26.16 0,-11.01 -1.22,-19.27 -6.11,-26.16 -3.66,-8.26 -9.77,-12.38 -18.33,-16.52 -7.33,-4.13 -19.55,-5.5 -33,-5.5 -11,0 -20.78,0 -26.89,0zm530.45 123.9c4.89,6.89 8.57,12.39 11.01,17.9 3.67,5.5 7.33,11.01 9.77,16.52l2.45 0c0,-6.89 -1.22,-20.65 -1.22,-39.92 -1.23,-20.66 -1.23,-39.93 -1.23,-56.45l0 -34.42c0,-8.26 0,-13.77 0,-17.89 -1.22,-2.76 -2.44,-5.51 -3.66,-8.27 -1.22,-1.37 -2.44,-2.75 -4.89,-4.12 -2.44,-1.38 -6.11,-2.76 -12.23,-4.13l0 -8.27 67.23 0 0 8.27c-4.89,1.37 -9.78,2.75 -11.01,4.13 -2.43,1.37 -4.88,2.75 -6.1,4.12 -1.22,1.38 -2.44,4.13 -3.67,8.27 0,2.75 -1.22,9.63 -1.22,17.89l0 188.61 -23.22 0 -103.89 -156.95c-7.34,-9.63 -11.01,-17.89 -14.67,-22.02 -2.44,-4.13 -4.89,-8.26 -7.34,-13.77l-3.66 0c1.22,9.64 2.44,24.78 2.44,46.81 0,23.4 1.22,45.43 1.22,68.83l0 34.42c0,6.88 0,12.39 0,16.52 1.23,2.76 1.23,5.51 2.45,8.26 2.45,1.38 3.67,4.13 6.11,4.13 2.44,1.38 7.34,2.76 12.22,4.13l0 8.26 -67.22 0 0 -8.26c7.33,-1.37 12.22,-2.75 14.67,-5.51 2.44,-2.75 4.88,-5.5 4.88,-9.63 1.22,-4.13 1.22,-9.64 1.22,-17.9l0 -145.93c0,-8.26 0,-13.77 0,-17.89 -1.22,-2.76 -2.43,-5.51 -3.66,-8.27 -1.22,-1.37 -3.67,-2.75 -4.89,-4.12 -2.44,-1.38 -7.33,-2.76 -12.22,-4.13l0 -8.27 58.66 0 91.67 139.05zm436.35 90.86l0 -8.26c7.34,0 11,-1.37 14.67,-2.75 2.44,-1.38 4.89,-4.13 7.34,-5.51 1.21,-2.75 1.21,-6.88 1.21,-9.64 0,-4.13 0,-8.26 -1.21,-13.76 -1.23,-4.13 -2.45,-8.27 -3.68,-13.77l-7.33 -22.03 -88 0 -6.11 16.52c-2.45,8.26 -4.89,15.15 -6.11,19.28 -1.22,4.13 -1.22,8.26 -1.22,11.01 0,6.89 1.22,12.39 6.11,15.14 3.66,2.76 8.55,5.51 17.1,5.51l0 8.26 -80.66 0 0 -8.26c7.34,0 13.44,-4.13 18.34,-11.01 6.1,-5.51 10.99,-15.15 15.88,-26.16l78.22 -187.23 29.34 0 63.55 188.61c2.45,8.26 6.11,15.14 7.34,19.27 2.45,5.51 6.11,8.26 8.56,11.01 3.66,2.76 8.55,4.14 13.44,5.51l0 8.26 -86.78 0zm-70.89 -90.86l78.23 0 -35.45 -108.76 -42.78 108.76z"/>
   <path class="fil1" d="M836.55 1686.99l0 -8.26c6.12,0 11.01,-1.37 13.45,-2.75 3.67,-1.38 6.1,-4.13 7.32,-5.51 1.23,-2.75 2.45,-6.88 2.45,-9.64 0,-4.13 -1.22,-8.26 -2.45,-13.76 0,-4.13 -2.43,-8.27 -3.65,-13.77l-7.34 -22.03 -86.78 0 -6.11 16.52c-3.66,8.26 -6.12,15.15 -7.34,19.28 -1.22,4.13 -1.22,8.26 -1.22,11.01 0,6.89 2.44,12.39 6.12,15.14 3.66,2.76 9.77,5.51 17.1,5.51l0 8.26 -79.44 0 0 -8.26c6.11,0 12.22,-4.13 18.33,-11.01 4.9,-5.51 9.79,-15.15 14.67,-26.16l78.22 -187.23 29.34 0 63.56 188.61c3.66,8.26 6.11,15.14 8.56,19.27 2.43,5.51 4.88,8.26 7.32,11.01 3.68,2.76 8.56,4.14 13.45,5.51l0 8.26 -85.56 0zm-72.11 -90.86l78.23 0 -35.45 -108.76 -42.78 108.76zm510.9 90.86l0 -8.26c6.12,0 9.77,-1.37 13.45,-2.75 2.44,-1.38 4.89,-4.13 7.33,-5.51 1.22,-2.75 1.22,-6.88 1.22,-9.64 0,-4.13 0,-8.26 -1.22,-13.76 -1.22,-4.13 -2.44,-8.27 -3.67,-13.77l-7.34 -22.03 -86.77 0 -7.34 16.52c-2.44,8.26 -4.88,15.15 -6.1,19.28 -1.23,4.13 -1.23,8.26 -1.23,11.01 0,6.89 1.23,12.39 6.11,15.14 3.67,2.76 8.56,5.51 17.11,5.51l0 8.26 -80.66 0 0 -8.26c7.33,0 13.44,-4.13 18.33,-11.01 6.11,-5.51 11,-15.15 15.89,-26.16l78.22 -187.23 29.34 0 63.55 188.61c2.45,8.26 6.11,15.14 7.34,19.27 2.44,5.51 6.11,8.26 8.56,11.01 3.66,2.76 8.55,4.14 13.44,5.51l0 8.26 -85.56 0zm-72.11 -90.86l78.23 0 -35.45 -108.76 -42.78 108.76zm441.23 -8.26l0 56.44c0,8.26 0,15.15 1.22,17.9 0,4.13 1.23,6.88 2.44,8.26 1.23,2.75 3.68,4.13 6.12,5.51 2.44,0 6.11,1.38 12.22,2.75l0 8.26 -79.45 0 0 -8.26c7.34,-1.37 12.23,-2.75 15.89,-5.51 2.45,-2.75 3.67,-5.5 4.89,-9.63 0,-4.13 1.22,-9.64 1.22,-17.9l0 -145.93c0,-8.26 0,-13.77 -1.22,-17.89 0,-2.76 -1.22,-5.51 -2.44,-8.27 -2.45,-1.37 -3.66,-2.75 -6.11,-4.12 -2.45,-1.38 -6.11,-2.76 -12.23,-4.13l0 -8.27 92.9 0c29.33,0 51.33,5.51 64.78,13.77 14.66,9.64 22,24.78 22,45.43 0,15.14 -4.89,28.91 -13.45,38.55 -9.77,11.01 -24.45,19.27 -42.78,26.16l0 1.37c7.34,2.76 14.67,6.89 19.56,11.01 4.89,5.51 11,13.77 18.33,24.79l17.11 27.53c4.89,8.26 8.56,15.14 12.23,19.28 3.66,4.12 7.33,6.88 9.77,9.63 3.67,2.76 8.56,4.13 14.68,4.13l0 8.26 -51.34 0c-4.9,-5.51 -9.78,-12.39 -13.45,-19.27 -4.89,-6.89 -8.56,-13.77 -12.22,-20.65l-17.11 -27.54c-4.89,-8.26 -8.56,-15.14 -12.23,-19.27 -3.66,-4.13 -6.11,-6.89 -8.56,-8.26 -2.43,-1.37 -6.1,-2.75 -8.54,-4.13 -3.68,0 -7.34,0 -14.67,0l-19.56 0zm0 -115.64l0 100.5 20.78 0c11,0 19.56,0 26.89,-1.38 6.11,-1.38 12.22,-4.13 18.33,-8.26 6.12,-4.13 9.78,-9.64 13.45,-16.52 3.66,-6.88 4.88,-16.52 4.88,-26.16 0,-11.01 -1.22,-19.27 -6.11,-26.16 -3.66,-8.26 -9.77,-12.38 -18.33,-16.52 -7.33,-4.13 -19.55,-5.5 -33,-5.5 -11,0 -20.78,0 -26.89,0zm530.45 123.9c4.89,6.89 8.57,12.39 11.01,17.9 3.67,5.5 7.33,11.01 9.77,16.52l2.45 0c0,-6.89 -1.22,-20.65 -1.22,-39.92 -1.23,-20.66 -1.23,-39.93 -1.23,-56.45l0 -34.42c0,-8.26 0,-13.77 0,-17.89 -1.22,-2.76 -2.44,-5.51 -3.66,-8.27 -1.22,-1.37 -2.44,-2.75 -4.89,-4.12 -2.44,-1.38 -6.11,-2.76 -12.23,-4.13l0 -8.27 67.23 0 0 8.27c-4.89,1.37 -9.78,2.75 -11.01,4.13 -2.43,1.37 -4.88,2.75 -6.1,4.12 -1.22,1.38 -2.44,4.13 -3.67,8.27 0,2.75 -1.22,9.63 -1.22,17.89l0 188.61 -23.22 0 -103.89 -156.95c-7.34,-9.63 -11.01,-17.89 -14.67,-22.02 -2.44,-4.13 -4.89,-8.26 -7.34,-13.77l-3.66 0c1.22,9.64 2.44,24.78 2.44,46.81 0,23.4 1.22,45.43 1.22,68.83l0 34.42c0,6.88 0,12.39 0,16.52 1.23,2.76 1.23,5.51 2.45,8.26 2.45,1.38 3.67,4.13 6.11,4.13 2.44,1.38 7.34,2.76 12.22,4.13l0 8.26 -67.22 0 0 -8.26c7.33,-1.37 12.22,-2.75 14.67,-5.51 2.44,-2.75 4.88,-5.5 4.88,-9.63 1.22,-4.13 1.22,-9.64 1.22,-17.9l0 -145.93c0,-8.26 0,-13.77 0,-17.89 -1.22,-2.76 -2.43,-5.51 -3.66,-8.27 -1.22,-1.37 -3.67,-2.75 -4.89,-4.12 -2.44,-1.38 -7.33,-2.76 -12.22,-4.13l0 -8.27 58.66 0 91.67 139.05zm436.35 90.86l0 -8.26c7.34,0 11,-1.37 14.67,-2.75 2.44,-1.38 4.89,-4.13 7.34,-5.51 1.21,-2.75 1.21,-6.88 1.21,-9.64 0,-4.13 0,-8.26 -1.21,-13.76 -1.23,-4.13 -2.45,-8.27 -3.68,-13.77l-7.33 -22.03 -88 0 -6.11 16.52c-2.45,8.26 -4.89,15.15 -6.11,19.28 -1.22,4.13 -1.22,8.26 -1.22,11.01 0,6.89 1.22,12.39 6.11,15.14 3.66,2.76 8.55,5.51 17.1,5.51l0 8.26 -80.66 0 0 -8.26c7.34,0 13.44,-4.13 18.34,-11.01 6.1,-5.51 10.99,-15.15 15.88,-26.16l78.22 -187.23 29.34 0 63.55 188.61c2.45,8.26 6.11,15.14 7.34,19.27 2.45,5.51 6.11,8.26 8.56,11.01 3.66,2.76 8.55,4.14 13.44,5.51l0 8.26 -86.78 0zm-70.89 -90.86l78.23 0 -35.45 -108.76 -42.78 108.76z"/>
  </g>
 </g>
</svg>
