<?xml version="1.0" encoding="UTF-8"?>
<!DOCTYPE svg PUBLIC "-//W3C//DTD SVG 1.1//EN" "http://www.w3.org/Graphics/SVG/1.1/DTD/svg11.dtd">
<!-- Creator: CorelDRAW 2021 (64-Bit) -->
<svg xmlns="http://www.w3.org/2000/svg" xml:space="preserve" width="33.8666mm" height="33.8666mm" version="1.1" style="shape-rendering:geometricPrecision; text-rendering:geometricPrecision; image-rendering:optimizeQuality; fill-rule:evenodd; clip-rule:evenodd"
viewBox="0 0 3386.66 3386.66"
 xmlns:xlink="http://www.w3.org/1999/xlink"
 xmlns:xodm="http://www.corel.com/coreldraw/odm/2003">
 <defs>
  <style type="text/css">
   <![CDATA[
    .fil1 {fill:black}
    .fil2 {fill:black;fill-rule:nonzero}
    .fil0 {fill:#000100;fill-rule:nonzero}
    .fil4 {fill:#0E1010;fill-rule:nonzero}
    .fil3 {fill:#CAC7C3;fill-rule:nonzero}
   ]]>
  </style>
 </defs>
 <g id="Layer_x0020_1">
  <metadata id="CorelCorpID_0Corel-Layer"/>
  <g id="_1357751695776">
   <path class="fil0" d="M1310.09 1849.2l-74.63 0 -18.57 72.39 -56.54 0 91.84 -318.95 44.76 0 92.3 318.95 -59.72 0 -19.45 -72.39 0.01 0zm-62.43 -46.15l52.49 0 -18.1 -73.75 -7.25 -49.76 -1.79 0 -7.7 50.23 -17.64 73.28 -0.01 0zm160.14 -107.68l40.26 0 5.42 25.79 1.36 0c6.94,-10.86 14.7,-18.78 23.3,-23.75 8.59,-5 19.23,-7.47 31.9,-7.47 22.92,0 40.19,8.66 51.81,26.01 11.61,17.34 17.43,46.22 17.43,86.63 0,40.42 -7.25,71.41 -21.73,92.97 -14.47,21.55 -35.43,32.34 -62.88,32.34 -7.25,0 -13.43,-0.6 -18.56,-1.79 -5.12,-1.23 -9.95,-3.21 -14.47,-5.9l0 91.84 -53.84 0 0 -316.67zm53.84 175.54c3.02,3.01 6.4,5.28 10.18,6.78 3.76,1.51 8.67,2.26 14.7,2.26 12.06,0 21.26,-5.95 27.61,-17.87 6.31,-11.91 9.49,-32.18 9.49,-60.84 0,-21.4 -2.42,-37.32 -7.24,-47.72 -4.83,-10.4 -12.82,-15.61 -23.97,-15.61 -15.08,0 -25.33,8.91 -30.76,26.7l0 106.3 -0.01 0zm148.37 -175.54l40.27 0 5.42 25.79 1.35 0c6.93,-10.86 14.7,-18.78 23.3,-23.75 8.59,-5 19.22,-7.47 31.88,-7.47 22.91,0 40.19,8.66 51.8,26.01 11.59,17.34 17.43,46.22 17.43,86.63 0,40.42 -7.25,71.41 -21.72,92.97 -14.48,21.55 -35.44,32.34 -62.89,32.34 -7.24,0 -13.42,-0.6 -18.55,-1.79 -5.13,-1.23 -9.96,-3.21 -14.48,-5.9l0 91.84 -53.84 0 0 -316.67 0.03 0zm53.84 175.54c3.02,3.01 6.41,5.28 10.19,6.78 3.76,1.51 8.66,2.26 14.69,2.26 12.07,0 21.26,-5.95 27.61,-17.87 6.32,-11.91 9.5,-32.18 9.5,-60.84 0,-21.4 -2.42,-37.32 -7.24,-47.72 -4.83,-10.38 -12.82,-15.61 -23.97,-15.61 -15.08,0 -25.33,8.91 -30.76,26.7l0 106.3 -0.02 0zm245.19 -113.1l97.72 0 0 140.24c-11.16,10.55 -24.22,18.18 -39.13,22.85 -14.92,4.66 -29.78,7 -44.58,7 -17.79,0 -33.92,-3.17 -48.4,-9.5 -14.47,-6.35 -26.75,-16.21 -36.86,-29.63 -10.11,-13.42 -17.95,-30.46 -23.53,-51.14 -5.59,-20.63 -8.37,-45.46 -8.37,-74.41 0,-30.15 3.31,-55.64 9.95,-76.45 6.63,-20.81 15.46,-37.78 26.48,-50.9 11,-13.12 23.81,-22.61 38.45,-28.5 14.62,-5.89 30.06,-8.83 46.36,-8.83 14.49,0 27.68,1.29 39.58,3.84 11.92,2.58 21.8,5.52 29.65,8.83l-11.78 49.32c-6.03,-2.71 -13.04,-4.97 -21.01,-6.78 -8.01,-1.81 -17.73,-2.72 -29.19,-2.72 -10.56,0 -20.14,2.12 -28.73,6.33 -8.6,4.23 -15.85,10.86 -21.72,19.91 -5.9,9.04 -10.42,20.73 -13.57,35.05 -3.19,14.33 -4.77,31.45 -4.77,51.36 0,38.3 5.81,66.5 17.43,84.59 11.59,18.1 26.91,27.14 45.91,27.14 6.03,0 11.84,-0.91 17.44,-2.73 5.56,-1.83 10.46,-4.72 14.7,-8.71l0 -65.47 -52.02 -7.09 0 -33.62 -0.01 0.02zm182.32 -62.44l0 135.26c0,17.81 1.66,30.18 4.98,37.13 3.31,6.93 9.34,10.39 18.09,10.39 8.44,0 15.53,-3.09 21.26,-9.27 5.73,-6.18 9.81,-13.65 12.22,-22.4l-0.01 -151.11 53.85 0 0 157.44c0,12.37 0.47,24.5 1.37,36.41 0.89,11.93 2.54,22.69 4.96,32.36l-40.71 -0.01 -9.5 -30.76 -1.37 0c-5.73,10.55 -13.5,19.32 -23.31,26.24 -9.8,6.93 -21.93,10.41 -36.41,10.41 -9.35,0 -17.64,-1.29 -24.87,-3.85 -7.26,-2.54 -13.44,-7.01 -18.57,-13.35 -5.12,-6.33 -9.04,-14.99 -11.75,-26 -2.73,-11.01 -4.09,-24.96 -4.09,-41.84l0 -147.05 53.85 0 0.01 0zm256.5 53.37c-7.25,-2.69 -13.88,-4.05 -19.9,-4.05 -8.14,0 -15.15,2.26 -21.03,6.78 -5.88,4.53 -9.9,10.86 -11.97,19l0 151.1 -53.85 0 0 -226.18 41.17 0 6.33 27.13 1.81 0.01c3.92,-9.95 9.57,-17.72 16.96,-23.31 7.38,-5.58 15.91,-8.37 25.56,-8.37 7.25,0 14.32,1.51 21.27,4.52l-6.34 53.39 -0.01 -0.02zm77.81 -53.37l0 135.26c0,17.81 1.66,30.18 4.98,37.13 3.31,6.93 9.32,10.39 18.09,10.39 8.44,0 15.52,-3.09 21.27,-9.27 5.72,-6.18 9.8,-13.65 12.2,-22.4l0 -151.11 53.83 0 0 157.44c0,12.37 0.47,24.5 1.37,36.41 0.91,11.93 2.55,22.69 4.97,32.36l-40.71 -0.01 -9.5 -30.76 -1.37 0c-5.73,10.55 -13.5,19.32 -23.31,26.24 -9.8,6.94 -21.93,10.41 -36.4,10.41 -9.35,0 -17.64,-1.29 -24.88,-3.85 -7.25,-2.54 -13.43,-7.01 -18.56,-13.35 -5.13,-6.33 -9.05,-14.99 -11.76,-26 -2.71,-11.01 -4.07,-24.96 -4.07,-41.84l0 -147.05 53.84 0 0.01 0zm141.15 178.23l73.29 -110.82 19.91 -19.46 -93.2 0 0 -47.95 149.74 0 0 47.95 -72.39 112.66 -19.45 17.62 91.84 0 0 47.97 -149.74 0 0 -47.97z"/>
   <path class="fil0" d="M1417.14 1543.53l-35.21 0 0 124.62 -26.88 0 0 -124.62 -35.44 0 0 -24.76 97.54 0 0 24.76 -0.01 0zm63.8 124.61l0 -64.46c0,-7.67 -0.89,-13.22 -2.66,-16.63 -1.77,-3.41 -4.99,-5.12 -9.71,-5.12 -3.39,0 -6.54,1.2 -9.38,3.62 -2.85,2.42 -4.77,5.48 -5.75,9.18l0 73.41 -25.4 0 0 -149.37 25.39 0 0 52.28 0.64 0c2.85,-3.7 6.32,-6.69 10.37,-8.95 4.05,-2.29 9.13,-3.42 15.24,-3.42 4.41,0 8.24,0.66 11.53,1.93 3.28,1.28 6.06,3.41 8.33,6.4 2.27,2.98 3.98,7.01 5.12,12.07 1.13,5.04 1.7,11.4 1.7,19.08l0 70 -25.38 0 -0.04 -0.02zm115.03 -7.88c-3.58,3.1 -8.41,5.68 -14.51,7.67 -6.13,1.98 -12.54,2.99 -19.23,2.99 -7.39,0 -13.76,-1.27 -19.09,-3.84 -5.34,-2.54 -9.71,-6.26 -13.13,-11.09 -3.42,-4.84 -5.94,-10.71 -7.57,-17.62 -1.63,-6.88 -2.45,-14.75 -2.45,-23.56 0,-19.23 3.8,-33.41 11.4,-42.6 7.62,-9.16 18.19,-13.75 31.7,-13.75 4.56,0 8.98,0.67 13.24,2.02 4.27,1.37 8.07,3.64 11.4,6.84 3.35,3.21 6.06,7.47 8.1,12.82 2.08,5.32 3.12,12.04 3.12,20.16 0,3.13 -0.19,6.47 -0.55,10.02 -0.36,3.54 -0.89,7.39 -1.6,11.51l-52.28 0c0.28,8.83 2.16,15.59 5.6,20.27 3.43,4.68 8.98,7.04 16.58,7.04 4.62,0 8.82,-0.7 12.63,-2.13 3.79,-1.41 6.69,-2.91 8.71,-4.48l7.92 17.72 0.01 0.01zm-33.48 -80.03c-5.49,0 -9.62,2.17 -12.35,6.5 -2.73,4.34 -4.33,10.42 -4.76,18.24l29.88 0c0.42,-8.1 -0.45,-14.25 -2.6,-18.45 -2.17,-4.2 -5.56,-6.29 -10.18,-6.29l0.01 0z"/>
   <path class="fil1" d="M904.16 1744.67c20.21,13.31 45.12,21.91 69.34,31.19 1.55,9.3 8.73,20.18 8.66,34.68 -0.03,6.29 -5.07,9.33 1.73,13.87 -6.73,12.98 5.42,17.72 12.13,29.47 3.74,6.5 4.46,13.57 6.94,17.34 12.12,18.36 32.55,34.24 43.35,46.8 16.19,2.32 24.03,-3.7 38.13,-3.45 -2.43,12.03 14.66,21.78 5.21,29.44 3.93,4.74 12.93,4.41 12.12,13.88 -26.61,1.11 -53.06,-12.73 -76.27,-20.79 3.43,22.5 -6.6,31.53 -15.6,41.59 2.55,8.21 4.29,15.05 0,22.55 -16.77,-0.41 -52.29,4.08 -64.13,-6.93 -33.36,7.73 -86.22,7.52 -119.62,0 -12.13,10.49 -51.31,8.16 -65.86,5.18 8.45,-31.05 -18.85,-28.91 -13.88,-60.67 -21.75,3.11 -44.14,20.57 -76.27,19.07 -0.63,-8.73 6.59,-9.59 12.13,-12.13 -6.12,-11.85 7.54,-17.53 5.21,-31.19 13.85,-0.58 20.73,5.82 36.4,3.44 27.99,-21.71 49.28,-50.09 65.87,-83.21 1.27,-5.28 -2.98,-5.09 -1.73,-10.39 2.33,-1.74 3.4,-4.69 6.94,-5.22 -10.01,-8.29 3.3,-28.88 3.47,-43.33 25.28,-7.09 44.57,-20.16 69.33,-27.74 1.72,-9.8 -5.2,-10.99 -3.46,-20.79 -3.07,-2.15 -7.03,-3.4 -8.67,-6.95 -2.08,-7.25 -1.79,-13.45 1.73,-19.06 -7.6,-32.61 10.99,-58.43 41.61,-46.81 1.81,0.7 9.68,6.13 10.4,6.93 8.71,9.9 4.03,22.03 5.18,38.13 0.28,4.05 4.39,7.79 3.49,13.85 -1.19,7.82 -6,6.82 -8.67,12.16 -2.94,5.82 0.12,12.91 -5.22,19.05l0.01 0.04zm-79.72 124.78c-12.27,13.18 -20.76,30.11 -29.48,46.82 17.2,-2.45 16.58,-22.71 29.47,-29.47l-0.01 -17.35c2.52,-1.04 -0.17,-2.07 0,0l0.02 0zm123.06 0l0 17.34c13.04,5.47 14.17,32.04 31.2,27.75 -12.53,-12.91 -17.57,-33.26 -31.2,-45.08 -1.07,-2.51 -2.09,0.19 0,0l0 -0.01zm-256.56 67.63c7.26,0.19 9.46,-3.39 6.95,-8.66 -4.99,0.21 -8.24,2.16 -6.94,8.66l-0.01 0zm381.37 -3.48c3.3,0.76 4.35,3.74 8.67,3.49 0.54,-4.04 -0.28,-6.67 -1.75,-8.67l-5.21 0c0.1,2.37 -0.8,3.79 -1.72,5.18l0.01 0z"/>
   <path class="fil2" d="M1071.89 1588.57c0.01,-0.28 0.04,-0.56 0.09,-0.82 0.09,-0.82 0.31,-1.65 0.6,-2.49 0.09,-0.28 0.19,-0.57 0.31,-0.85 0.64,-2.34 2.22,-4.46 2.75,-6.82 -2.37,0 -4.49,1.57 -7.12,1.05 3.41,-1.32 6.32,-3.96 5.88,-8.13 -0.09,-0.25 -0.17,-0.5 -0.28,-0.72 -0.66,-1.42 -1.65,-2.67 -2.98,-3.6 -0.13,-0.17 -0.2,-0.32 -0.25,-0.45 1.32,-1.64 4.5,-1.11 4.24,-2.43 -0.19,-2.45 -1.3,-4.46 -1.68,-6.66 -0.09,-0.55 -0.15,-1.1 -0.11,-1.7 0.19,-1.15 -1.39,-1.41 -1.13,-1.95 0.28,-4.24 2.63,-8.46 0.32,-12.31l0.01 -0.71c0.06,-0.96 0.12,-1.96 -0.05,-2.83 -0.38,-1.52 -0.95,-2.94 -1.45,-4.32 0,-0.4 -0.04,-0.78 0,-1.28 -0.14,-1.8 1.17,-3.67 0.39,-5.24 -0.26,0 -0.79,0 -1.31,-0.14 -0.19,0 -0.32,-0.09 -0.5,-0.09 0.01,-0.31 0.04,-0.62 0.09,-0.92l-0.23 -0.95c-0.22,-0.99 -0.45,-1.98 -0.7,-2.97 -0.06,-0.27 -0.12,-0.52 -0.27,-0.69 -3.68,-0.34 -2.9,-3.49 -1.89,-5.78 0,-0.28 -0.11,-0.47 -0.22,-0.68 -0.52,-0.4 -1.17,-0.6 -1.84,-0.46 0.46,-1.86 0.94,-3.88 0.75,-5.79 0,-0.27 -0.05,-0.54 -0.09,-0.79 0.23,-1.75 -0.15,-3.13 -1.04,-4.34l-0.51 -0.58c-2.1,-0.05 -3.79,-1.34 -4.62,-3.09 -0.08,-0.24 -0.18,-0.52 -0.26,-0.81 -0.28,-2.27 0.5,-4.9 -0.28,-7.29 -0.28,-0.79 -2.13,-1.05 -1.92,-2.75 -0.06,-0.25 -0.15,-0.47 -0.21,-0.68 -1.31,-3.44 -2.38,-5.56 -5.81,-6.88 1.07,-1.84 2.12,-3.95 1.79,-6.38 -0.03,-0.21 -0.07,-0.43 -0.16,-0.65 -0.09,-0.23 -0.19,-0.41 -0.31,-0.6 -1.07,-1.61 -3.44,-0.54 -4.77,-1.61 -2.9,-1.82 -0.79,-6.32 -1.04,-9.23 -0.27,-1.85 -3.98,-1.04 -5.55,-3.7 -0.27,-0.52 -1.86,0 -2.39,-0.52 -2.11,-1.86 -1.32,-4.76 -2.11,-7.41 -0.79,-2.89 -4.49,-2.89 -6.6,-1.58 -1.06,-1.6 -1.06,-3.44 -0.54,-5.02 0.54,-1.05 1.32,-2.64 0.54,-3.43 -1.78,-2.64 -5.19,-2.92 -7.81,-3.53 -0.53,-0.12 -1.08,-0.16 -1.79,0.03 -0.46,0.33 -1.25,0.58 -1.77,0.33 -1.05,-1.32 0.26,-2.91 0.37,-4.31 0,-0.37 -0.03,-0.66 -0.09,-0.94 -0.37,-1.39 -1.01,-2.68 -2.67,-3.26l-0.64 -0.58c-1.45,-1.38 -2.92,-2.74 -4.41,-4.09 -0.23,-0.22 -0.47,-0.42 -0.73,-0.64 -0.88,-1.18 -2.01,-0.16 -3.05,0.17 -0.26,0.1 -0.51,0.14 -0.75,0.1 -2.29,-0.2 -0.45,-2.83 -1.23,-4.15 -0.26,-0.53 -1.06,1.05 -1.06,0.53 -0.51,-1.58 -1.57,-2.89 -2.5,-3.99 -0.19,-0.15 -0.45,-0.23 -0.68,-0.41 -0.16,-0.09 -0.29,-0.19 -0.41,-0.27l-0.41 -0.29 -0.43 -0.23c-1.64,-1.14 -4.53,2.02 -5.07,-0.61 -0.28,-2.12 2.11,-5.03 0.26,-5.82 -2.39,-1.05 -5.56,0.53 -8.46,0.27 -1.84,0 -0.78,-2.39 -1.05,-3.71 0,-0.25 -0.53,-0.25 -0.87,-0.39 -0.32,0 -0.61,0.04 -0.92,0.12 -1.16,0.31 -2.17,1.07 -2.7,0.57 -1.06,-1.35 0.78,-4.25 -0.26,-5.57 -2.12,-1.84 -6.08,2.39 -7.42,0.53 -2.37,-3.69 -2.64,-7.4 -7.48,-7.69 -0.19,-0.04 -0.36,-0.07 -0.54,-0.09l-0.57 -0.01c-0.41,0.05 -0.9,0.19 -1.4,0.28 -0.51,0.1 -1,0.13 -1.5,0.25 -2.26,-0.69 -3.06,1.96 -4.91,1.69 -1.6,0 -0.8,-3.15 -2.38,-4.22 -0.38,-0.26 -0.58,-0.65 -0.81,-1.03 -0.45,-0.78 -0.85,-1.56 -2.04,-1.46 -0.23,-0.1 -0.46,-0.19 -0.69,-0.25 -1.16,-0.43 -2.34,-0.85 -3.49,-1.29 -0.33,-0.09 -0.63,-0.17 -0.95,-0.23 -0.89,0.13 -1.77,0 -2.59,-0.29 0.03,-0.65 -0.04,-0.9 -0.1,-1.17 -1.22,-2.45 0.36,-5.63 -1.76,-7.73 -1.83,2.9 -2.62,7.12 -6.51,8.01 -0.21,0 -0.41,0.01 -0.6,0 -0.2,0 -0.39,-0.05 -0.58,-0.12 -0.19,-0.06 -0.38,-0.17 -0.57,-0.32 -1.24,-1.53 -0.97,-5.22 -2.57,-5.22 -2.1,0.26 -1.57,4.25 -2.84,6.22 -0.19,0.25 -0.4,0.44 -0.64,0.57 -0.2,0.07 -0.45,0.11 -0.72,0.07 -0.19,-0.01 -0.32,-0.11 -0.45,-0.18 -0.12,-0.13 -0.24,-0.26 -0.35,-0.4 -1.59,0.07 -1.85,3.76 -3.17,1.66 -1.57,-2.12 -1.32,-4.76 -2.94,-6.54 -0.38,-0.23 -0.77,-0.45 -1.21,-0.6 -0.41,-0.17 -0.88,-0.26 -1.41,-0.26 -0.78,0 -1.57,-1.58 -2.64,-2.07 -0.32,-0.19 -0.62,-0.28 -0.92,-0.39 -0.83,0.18 -1.61,0.62 -2.25,1.41 -2.64,-2.66 -3.95,-1.86 -7.13,0 -0.54,0.25 -0.28,-3.18 -2.12,-2.92 -1.32,0.25 -1.6,2.12 -2.64,1.85 -1.58,-0.25 -1.86,-3.96 -2.92,-3.16 -3.16,2.12 -4.48,5.02 -7.73,1.34l-0.83 -0.06c-1.39,-0.09 -2.79,-0.2 -4.1,-0.2l-1.5 -0.01c-1.47,0.02 -2.96,0.05 -4.45,0.1 -0.28,0 -0.57,0 -0.85,0.07 -1.93,0.61 -1.93,2.99 -3.5,2.99 -1.86,0 -1.06,-2.92 -2.39,-3.7 -0.38,-0.25 -0.73,-0.31 -1.11,-0.23 -0.37,0.09 -0.76,0.31 -1.15,0.61 -2.22,0.69 -4.61,0.69 -6.72,0.69 -2.63,0 -3.44,3.18 -5.56,4.5 -0.25,-0.26 -0.25,-0.79 -0.51,-0.95 -0.18,-0.28 -0.37,-0.53 -0.56,-0.75 -1.6,-1.76 -3.63,-1.58 -5.56,-0.56l-0.73 0.39c-2.92,-0.27 -3.18,2.13 -5.04,3.7 -1.6,1.61 -2.89,-2.63 -5.17,-2.07 -0.22,0.17 -0.46,0.38 -0.68,0.66l-0.9 0.25 -1.79 0.47c-0.3,0.07 -0.6,0.15 -0.89,0.22 -2.2,2.86 -4.31,2.58 -7.73,2.33 -0.55,0 -1.06,0.54 -1.24,1l-0.43 0.47 -0.37 0.45 -0.53 0.55c-0.61,0.71 -1.41,1.51 -2.2,1.25 -2.12,-0.54 -3.18,-0.79 -5.3,-0.54 -0.52,0.27 -1.05,-0.25 -1.57,-0.52 -0.53,0 -1.03,0.52 -1.64,0.91 -0.19,0.1 -0.38,0.23 -0.54,0.35l-0.47 0.42c-0.21,0.18 -0.42,0.37 -0.63,0.54 -1.47,1.21 -1.75,3.86 -3.07,4.9 -1.32,0.8 -3.15,0.28 -5.02,0.55 -0.78,0.26 -1.84,-2.65 -2.64,-2.39 -2.9,1.07 -1.85,5.3 -3.7,7.15 -0.79,0.8 -2.9,-1.58 -4.05,0.39 -0.17,0.28 -0.34,0.58 -0.51,0.83 -1.69,2.62 -3.79,3.74 -7.07,3.39 -0.65,-0.05 -1.34,-0.18 -2.09,-0.37 -1.85,3.44 -1.61,6.6 -6.37,5.78 -0.24,0.07 -0.45,0.11 -0.69,0.14 -0.95,0.07 -2,-0.23 -3.25,-1.16 -0.48,0.68 -0.88,1.38 -1.3,2.07 -0.13,0.25 -0.28,0.47 -0.4,0.76 -1.06,1.7 0.41,4.73 -0.98,5.47 -0.18,0.09 -0.45,0.17 -0.78,0.19 -2.12,-0.02 -5.27,1.03 -3.98,3.67 -0.49,-0.82 -1.28,-1.09 -2.1,-0.91l-0.82 0.08c-1.9,0.26 -3.77,0.67 -5.24,1.59 -1.41,0.99 0.49,3.33 0.52,4.75 0.01,0.47 -0.2,0.85 -0.67,1.24 -0.11,0.35 -0.37,0.88 -0.64,0.88 -1.84,0.25 -3.16,-2.12 -5.02,-1.05 -0.2,0.09 -0.39,0.22 -0.57,0.37 -1.22,1 -1.95,2.99 -2.87,4.39 -0.53,1.32 2.12,2.63 2.36,4.48 -0.95,0.09 -1.94,0 -2.93,-0.11 -0.49,-0.06 -0.99,-0.12 -1.45,-0.12 -2.45,0.5 -3.76,2.6 -6.12,3.4 -0.19,0.19 -0.31,0.4 -0.44,0.6 -0.26,0.43 -0.5,0.89 -0.72,1.34 -0.12,0.27 -0.25,0.54 -0.35,0.8 -0.12,0.42 -0.38,1.22 -0.12,1.76 1.44,1.73 1.61,3.02 0.99,4.12 -0.22,0.38 -0.54,0.76 -0.93,1.11 -0.54,1.08 -0.23,2.35 0,3.47 0.12,0.56 0.09,0.94 0,1.32 -0.06,0.44 -0.13,1.03 -0.56,1.33 -0.47,0.2 -0.92,0.1 -1.36,-0.13 -1.37,-0.72 -2.73,-2.68 -4.69,-1.61 -0.07,0.26 -0.08,0.53 -0.1,0.81 0.02,0.88 0.1,1.7 -0.2,1.99 -2.93,3.16 -6.08,6.08 -9.73,8.69 -0.15,0.19 -0.26,0.36 -0.38,0.54l-0.33 0.57 -0.52 0.81c0.03,0.18 0.07,0.37 0.08,0.56 0.03,0.18 0.05,0.35 0.05,0.52 -0.11,0.78 0.1,1.7 0.29,2.57l0.28 0.94c0.47,1.7 0.73,3.3 1.53,4.62 -2.64,-0.8 -4.99,-3.17 -7.92,-1.95 -0.19,0.13 -0.28,0.28 -0.35,0.43 -0.04,0.16 0,0.32 0.07,0.45 0.27,0.47 0.63,0.88 1.04,1.32 0.38,0.41 0.8,0.79 1.18,1.19 0.78,0.8 1.36,1.58 1.23,2.51 -0.19,0.7 -1.29,0.12 -2.51,-0.12 -0.61,-0.11 -1.22,-0.13 -1.79,0.34 -1.42,2 -1.08,4.66 -2.29,6.71 0,-0.12 -0.05,-0.23 -0.28,-0.32 -1.06,2.11 -0.79,3.69 -0.79,6.06 0,0.54 -1.6,0.54 -2.17,1.23 -0.25,0.31 -0.59,0.6 -0.94,0.92 -0.32,0.28 -0.69,0.56 -1.04,0.86 -0.14,0.29 -0.26,0.59 -0.38,0.85l-0.35 0.95c0.09,2.86 2.22,5.76 -1.63,7 -0.15,0.21 -0.18,0.5 -0.15,0.79 0.07,0.89 0.25,1.79 0.58,2.73 -0.69,-0.06 -1.25,0.03 -1.73,0.24 -0.24,0.09 -0.45,0.24 -0.59,0.41 0.51,0.59 0.89,1.11 1.13,1.58 0.13,0.23 0.24,0.47 0.4,0.73 1.84,1.77 0.52,3.9 -1.91,3.83 -0.34,0.12 -0.6,0.28 -0.82,0.5l-0.71 0.63c-0.28,0.26 1.06,1.85 1.32,2.92 0,0.25 -0.26,0.38 -0.57,0.49 -0.28,0.1 -0.61,0.16 -0.75,0.31 -0.79,1.57 0.79,2.9 -1.15,4.03 -0.19,0.2 -0.4,0.37 -0.6,0.56 -0.18,0.13 -0.39,0.26 -0.58,0.4 -0.19,0.12 -0.34,0.26 -0.5,0.39 -1.13,1.47 2.04,2.27 1.79,3.58 -0.28,2.64 -5.29,1.86 -4.51,3.18 1.33,1.85 1.8,3.44 1.7,4.9 -0.02,0.26 -0.06,0.5 -0.03,0.75 2.06,2.8 -0.07,4.65 -1.07,7.39 0.07,0.19 0.16,0.34 0.26,0.52 0.15,0.25 0.3,0.51 0.43,0.79 0.31,0.71 0.57,1.5 0.31,2.29 -1.32,2.11 -1.06,4.75 -2.12,6.32 -0.39,0.41 -0.94,0.76 -1.41,1.19 -0.05,0.16 -0.13,0.32 -0.13,0.5 1.02,1.47 2.86,3.06 0.23,4.37 -0.26,0.29 0,0.81 0.39,1.14 -0.05,0.3 -0.09,0.59 -0.09,0.91 -0.02,0.9 -0.03,1.81 -0.03,2.73 0,1.5 0,3.01 0.05,4.5 0.07,0.28 0.15,0.59 0.28,0.86 3.62,1.77 2.83,4.42 0.22,7.13 -0.06,0.31 -0.08,0.61 -0.09,0.91l0.06 0.89 0.07 0.94c0.26,0.23 0.5,0.45 0.68,0.67 1.09,1.54 -1.28,2.61 -0.49,3.92 0.24,-0.28 0.52,-0.54 0.8,-0.77 -0.06,0.19 -0.09,0.35 0,0.51 1.03,3.7 2.92,6.59 0.71,10.02 0.04,0.28 0.08,0.57 0.13,0.85l0.56 3.36c0.07,0.3 0.13,0.62 0.22,0.94 2.83,2.26 2.9,3.58 1.89,6.43l-0.38 1c1.6,0.29 2.39,0.82 2.73,1.52 0.09,0.17 0.15,0.35 0.25,0.54 2.87,2.27 -0.57,4.4 -0.68,7.1l0.25 0.91c0.09,0.31 0.18,0.6 0.26,0.91 0.09,0.3 0.19,0.6 0.24,0.89 -0.1,0.92 0.43,1.98 0.96,2.51 0.17,0.18 0.39,0.32 0.66,0.42 1.98,0.62 4.36,-0.17 6.47,0.9 -1.85,2.37 -7.41,2.9 -6.03,6.85 0.14,0.17 0.33,0.28 0.53,0.43 0.78,0.56 1.6,1.15 1.91,2.19 0.09,0.32 0.21,0.6 0.31,0.89l0.28 0.74 0.28 0.72c1.11,2.19 3.76,1.93 5.34,2.98 1.03,0.72 0.45,1.8 0.04,2.9 -0.09,0.28 -0.19,0.59 -0.24,0.95 -0.34,1.98 1.51,2.77 2.83,3.83 1.59,1.6 -1.06,3.16 -1.3,5.09 -0.03,0.23 -0.04,0.49 -0.06,0.75 0,0.24 0,0.51 0.04,0.77 0,0.53 0.53,0.79 0.77,1.13 0.24,0.1 0.44,0.22 0.65,0.34 0.2,0.14 0.41,0.24 0.58,0.37 0.06,0.23 0.07,0.45 0.09,0.69 0.07,1.12 0,2.16 0.13,3.07 0.02,0.26 0.09,0.52 0.15,0.75 1.34,1.86 1.6,3.96 3.18,5.56 1.05,0.78 2.38,-0.53 3.13,0.68 0.15,0.21 0.3,0.41 0.47,0.6 0.69,1.77 1.64,3.14 2.73,4.39 0.18,0.2 0.38,0.41 0.57,0.65 0.87,1.04 1.34,2.36 1.99,3.49 0.14,0.22 0.27,0.44 0.42,0.66 0.2,0.24 0.34,0.47 0.41,0.72 0.07,0.23 0.09,0.49 0.07,0.72 0.25,1.04 -0.81,2.09 -0.57,2.36 2.92,1.03 6.09,-0.8 6.09,3.48l0.34 0.53c0.47,0.9 0.64,1.98 0.52,3.18 0.21,0.26 0.6,0.42 0.88,0.59 0.29,0.19 0.51,0.38 0.36,0.66 -0.07,0.78 -0.01,1.37 0.15,1.84 0.07,0.23 0.17,0.43 0.28,0.61 1.96,1.23 3.28,-0.61 4.86,-0.88 -0.55,2.36 -2.12,6.6 0.96,7.97 0.24,0.13 0.47,0.2 0.76,0.29 0.24,0.04 0.53,0.09 0.81,0.12l0.6 0.39c0.28,0.19 0.82,0.47 1.08,0.99 0.28,1.32 -0.79,2.93 0.28,3.45 1.32,1.32 3.43,-0.54 5.16,0.26 0.19,0.26 0.36,0.54 0.5,0.81 1.69,2.99 4.43,4.97 7.98,4.75 0.23,0.01 0.47,0.06 0.68,0.12 0.67,0.16 1.23,0.47 1.51,1.18 0.23,0.87 -0.09,1.94 0.45,2.86 0.1,0.19 0.26,0.35 0.46,0.54 0.09,0.23 0.21,0.47 0.32,0.72 0.64,2.48 2.49,4.05 5.12,4.05 0.8,-0.26 1.86,0.54 2.52,1.46 0.15,0.22 0.28,0.47 0.39,0.72 0.7,1.51 1.06,3.26 2.64,3.9 0.17,0.09 0.35,0.13 0.52,0.11 2.92,-1.15 4.76,2.26 7.48,3.39l0.56 0.59 0.43 0.41c2.63,1.61 4.75,-1.05 6.87,-2.11 1.04,2.38 -2.12,3.97 -1.34,6.35 0.54,1.31 1.07,2.91 2.92,2.63 1.58,-0.25 2.38,-1.84 3.96,-1.84 1.03,0 1.03,1.31 1.55,1.88 0.22,0.21 0.5,0.36 0.77,0.51l0.85 0.42c4.48,-1.23 3.44,3.53 5.54,5.64 2.38,2.39 6.34,-2.11 9.51,-2.11 1.32,0.28 0.53,3.18 2.36,4.11 0.28,0.17 0.57,0.28 0.87,0.4 0.3,0.09 0.6,0.19 0.9,0.34 0.62,0.43 1.43,1.22 1.96,0.97 2.38,-0.55 4.75,-0.8 6.2,1.79 0.28,0.12 0.58,0.21 0.89,0.32 18.03,5.66 37.22,8.71 57.1,8.71 9.01,0 17.88,-0.62 26.54,-1.84 0.16,-0.01 0.33,-0.04 0.45,-0.09 2.34,-3.34 6.56,-1.51 9.76,-1.63 0.18,-0.03 0.33,-0.05 0.5,-0.09 5.94,-1.17 11.78,-2.63 17.53,-4.36 0.3,-0.09 0.6,-0.19 0.95,-0.19 1.59,-0.25 2.41,2.39 3.46,1.59 2.91,-1.59 2.12,-6.33 3.96,-7.65 2.12,-1.32 4.24,3.71 6.88,3.71 2.9,0.25 0.78,-5.55 2.9,-6.88 2.38,-1.32 5.28,3.44 7.65,1.85 1.58,-1.05 0.26,-4.75 2.11,-5.8 1.86,-1.32 3.18,3.43 4.76,2.63 1.58,-1.06 0,-5.02 2.64,-5.56 2.13,-0.24 4.51,2.13 5.56,1.07 0.98,-0.78 0.5,-3.05 0.97,-4.71 0.1,-0.28 0.19,-0.54 0.33,-0.75 0.57,-0.6 1.36,-1.4 1.62,-1.14 2.64,1.85 4.76,2.64 7.14,1.32 1.58,-1.04 -0.79,-3.7 0.31,-5.87 0.17,-0.12 0.39,-0.19 0.65,-0.19 0.57,-0.05 1.25,0.08 2.08,0.38 0.28,-0.12 0.57,-0.28 0.83,-0.47 0.51,-0.38 1.03,-0.73 1.53,-1.1 0.27,-0.19 0.53,-0.38 0.76,-0.62 0.16,-0.59 0.36,-1.09 0.63,-1.53 0.11,-0.21 0.28,-0.41 0.42,-0.6 0.4,-0.61 1.01,-1.04 1.68,-1.45 -0.59,1.77 0,3.65 -0.41,5.32 -0.08,0.36 -0.19,0.62 -0.29,0.84l0.34 -0.28c0.07,-0.22 0.17,-0.39 0.22,-0.59 1.04,-2.02 -0.54,-5.47 1.83,-6.25 0.52,-0.28 1.59,0.53 2.5,0.98 0.19,-0.11 0.37,-0.32 0.52,-0.56 0.15,-0.24 0.34,-0.47 0.47,-0.71 1.25,-1.29 3.9,0 4.44,-1.03 0.52,-1.85 -1.34,-3.96 -1.61,-6.12 0.06,-0.19 0.15,-0.35 0.27,-0.47 1.62,-1.39 3.86,2.06 5.43,1.18 0.24,-0.12 0.46,-0.35 0.61,-0.75 0.3,-2.04 -0.23,-4.42 0.56,-6.54 0.53,-1.03 2.38,1.32 3.44,0.54 2.37,-2.11 5.54,0.79 6.87,-0.79 1.32,-1.59 -1.07,-3.96 -1.58,-6.06 0,-0.28 0.06,-0.53 0.18,-0.75 0.15,-0.19 0.33,-0.32 0.6,-0.32 1.58,0 3.42,1.6 4.22,-0.53 1.06,-2.64 -0.8,-6.86 1.32,-7.4 1.43,-0.55 2.64,-0.96 3.71,-1.46 0.21,-0.09 0.41,-0.24 0.58,-0.42 0.99,-1.28 0.74,-4.19 2.85,-3.93 0.79,0 1.32,1.6 2.75,0.66 0.13,-0.19 0.22,-0.44 0.28,-0.69 0.57,-1.82 -0.37,-3.47 -0.96,-5.25 -0.09,-0.26 -0.16,-0.53 -0.22,-0.8 -0.27,-0.78 0.52,-1.31 1.05,-1.31 2.35,0 5.02,3.43 6.87,1.6 1.57,-1.6 -1.86,-3.18 -1.36,-5.28 0.05,-0.22 0.15,-0.41 0.22,-0.63 0.48,-0.73 0.95,-1.46 1.4,-2.19 0.09,-0.19 0.22,-0.37 0.33,-0.54 1.23,-2.74 -1.92,-4.83 -1.15,-6.95 0.54,-1.05 2.36,0 3.73,0.05l0.86 -0.03c0.73,-0.17 1.35,-0.52 1.55,-1.46 0.07,-0.16 0.14,-0.33 0.2,-0.53 0.55,-1.01 1.09,-2.02 1.61,-3.04 0.15,-0.28 0.3,-0.56 0.39,-0.88 1.22,-1.28 1.22,-2.6 0.7,-4.47 0.2,-0.02 0.49,0 0.77,0.04 0.29,0.02 0.57,0.04 0.87,0.09 1,0.4 2.31,0.4 2.81,-0.54 0.12,-0.17 0.22,-0.37 0.3,-0.66 0.53,-2.35 -3.95,-4.47 -2.63,-6.05 1.31,-1.59 4.74,-1.85 6.85,-2.92 1.06,-0.52 -1.06,-3.16 -0.75,-5.13l0.08 -0.52c0.3,-0.75 0.58,-1.53 0.84,-2.31l0.33 -0.94c0.85,-1.4 -0.49,-2.45 -1.28,-3.25 1.37,-0.89 2.69,-1.94 3.64,-3.15 0.17,-0.19 0.31,-0.41 0.45,-0.6 0.38,-2.06 4.34,-3.37 2.51,-5.49 -1.07,-1.32 -4.5,-1.58 -3.98,-3.71 0.53,-1.03 2.92,1.07 4.02,-1.77 0.1,-0.27 0.17,-0.58 0.23,-0.87 0.61,-2.66 1.21,-5.33 1.73,-8.01 0.08,-0.32 0.1,-0.61 0.19,-0.92 0.44,-2.43 2.26,-4 3.08,-6.13 -4.5,-0.54 -3.18,-3.44 -1.92,-6.97l0.05 -0.06zm-116.05 81.64c-2.63,18.37 -33.52,66.31 -43.38,70.2 -4.38,1.74 -15.49,4.54 -29.57,5.9 0,0.09 0.02,0.21 0.05,0.32 -0.66,-0.05 -1.3,-0.09 -1.94,-0.16l-1.93 0.15 0.04 -0.32c-14.1,-1.36 -25.19,-4.15 -29.57,-5.9 -9.85,-3.89 -40.76,-51.82 -43.38,-70.2 -2.62,-18.37 -19.73,-65.21 -9.87,-109.22 8.89,-39.71 72.32,-11.41 84.67,-5.49 12.37,-5.92 75.79,-34.21 84.69,5.49 9.87,44.03 -7.22,90.84 -9.85,109.21l0.04 0.02z"/>
   <path class="fil3" d="M881.01 1555.51c-12.36,-5.92 -75.78,-34.21 -84.68,5.49 -9.86,44.03 7.24,90.84 9.86,109.22 2.63,18.37 33.53,66.31 43.39,70.2 4.37,1.74 15.45,4.54 29.55,5.9l-0.04 0.32c0.66,-0.05 1.29,-0.1 1.92,-0.16l1.94 0.16c-0.03,-0.1 -0.03,-0.23 -0.05,-0.32 14.09,-1.36 25.18,-4.15 29.56,-5.89 9.86,-3.9 40.76,-51.83 43.38,-70.2 2.64,-18.4 19.74,-65.22 9.88,-109.22 -8.91,-39.72 -72.35,-11.43 -84.72,-5.5l0.01 0zm0.43 165.24c-16.91,0.23 -28.27,-8.55 -27.95,-8.54 -0.21,0.06 11.71,7.1 27.92,6.83 16.11,-0.11 28.42,-6.05 28.4,-5.79 0.08,-0.28 -11.64,7.33 -28.38,7.5l0.01 0zm-34.32 -17.07c27.53,-7.86 68.18,0 68.18,0l-68.19 0 0.01 0zm11.16 -36.75c2.59,3.55 6.36,2.67 9.98,4.27 3.76,1.68 7.43,3.24 11.56,3.36 4.12,-0.12 7.8,-1.68 11.56,-3.36 3.62,-1.6 7.4,-0.72 9.99,-4.29 0.47,-0.67 1.64,-0.02 1.13,0.67 -0.91,1.26 -1.98,2.43 -3.46,3.04 -2.07,0.88 -4.4,0.71 -6.5,1.55 -3.82,1.52 -7.4,3.23 -11.4,3.64 -0.11,0.07 -0.23,0.09 -0.38,0.09 -0.33,0.02 -0.68,0 -1.03,0 -0.29,0 -0.57,0.02 -0.85,0 -0.09,0 -0.19,0 -0.28,-0.05 -1.56,-0.11 -3.11,-0.4 -4.62,-0.9 -2.35,-0.78 -4.52,-2.04 -6.87,-2.78 -2.13,-0.69 -4.44,-0.69 -6.49,-1.55 -1.47,-0.61 -2.54,-1.77 -3.47,-3.04 -0.52,-0.7 0.62,-1.34 1.13,-0.65l0 0zm91.46 -6.48c-2.45,3.99 -5.41,7.29 -8.61,9.63 -0.66,0.49 -1.35,0.94 -2.05,1.35 -10.15,5.31 -22.94,4.41 -33.14,-2.82 -0.85,-0.64 -1.65,-1.29 -2.47,-2.02 -5.25,-4.72 -9.92,-10.77 -13.57,-18.09 -0.15,-0.38 -0.34,-0.84 -0.53,-1.4 -1.42,-2.57 -2.64,-5.2 -3.66,-7.95 -0.34,-0.92 -0.66,-1.85 -0.95,-2.81 -2.35,-6.47 -2.01,-14.93 1.21,-19.92 -4.48,-0.32 -9.01,-0.36 -13.51,-0.1 3.25,5 3.63,13.51 1.27,20.03 -0.3,0.96 -0.61,1.89 -0.94,2.8 -1.02,2.77 -2.25,5.4 -3.64,7.97 -0.2,0.56 -0.4,1.02 -0.55,1.4 -3.65,7.32 -8.32,13.36 -13.56,18.09 -0.82,0.73 -1.63,1.38 -2.47,2.02 -10.2,7.23 -23,8.13 -33.14,2.83 -0.7,-0.42 -1.37,-0.86 -2.04,-1.36 -3.2,-2.34 -6.13,-5.66 -8.6,-9.63 -5.6,-9.24 -11.89,-25.23 -5.93,-36.94 0.44,-1.14 0.93,-2.22 1.45,-3.23 3.96,-7.65 9.9,-12.22 16.42,-14.59 0.81,-0.28 1.64,-0.57 2.45,-0.79 14.32,-2.56 28.4,2.02 42.65,7 8.77,-1.01 17.63,-0.97 26.38,0.17 14.43,-5.06 28.62,-9.77 43.07,-7.17 0.83,0.23 1.66,0.5 2.47,0.78 6.52,2.36 12.46,6.94 16.41,14.6 0.53,1 1.02,2.09 1.48,3.2 5.96,11.72 -0.34,27.71 -5.94,36.96l0.04 -0.01z"/>
   <path class="fil2" d="M847.12 1703.68l68.18 0c0,0 -40.65,-7.86 -68.19,0l0.01 0zm6.38 8.53c-0.34,0 11.03,8.76 27.94,8.53 16.75,-0.19 28.45,-7.8 28.38,-7.52 0.02,-0.25 -12.27,5.69 -28.4,5.79 -16.21,0.28 -28.12,-6.76 -27.93,-6.81l0.01 0.01z"/>
   <path class="fil4" d="M860.59 1670.62c2.07,0.85 4.35,0.85 6.48,1.53 2.36,0.76 4.54,2.02 6.9,2.79 1.51,0.5 3.05,0.78 4.62,0.89 0.07,0.04 0.17,0.07 0.28,0.07l1.89 0c0.14,0 0.25,-0.03 0.36,-0.09 4.02,-0.42 7.6,-2.13 11.4,-3.65 2.11,-0.85 4.43,-0.66 6.5,-1.55 1.49,-0.62 2.54,-1.79 3.49,-3.04 0.5,-0.7 -0.66,-1.35 -1.16,-0.66 -2.58,3.55 -6.36,2.67 -9.99,4.27 -3.75,1.7 -7.42,3.25 -11.55,3.37 -4.12,-0.12 -7.79,-1.67 -11.55,-3.35 -3.62,-1.61 -7.39,-0.72 -10,-4.28 -0.49,-0.68 -1.64,-0.03 -1.13,0.66 0.92,1.27 2.01,2.43 3.49,3.04l-0.03 0z"/>
   <path class="fil2" d="M954.2 1620.26c-3.93,-7.65 -9.89,-12.22 -16.41,-14.58 -0.8,-0.29 -1.63,-0.57 -2.48,-0.8 -14.44,-2.59 -28.65,2.12 -43.04,7.17 -8.77,-1.14 -17.62,-1.16 -26.39,-0.17 -14.25,-4.99 -28.34,-9.56 -42.65,-7 -0.82,0.24 -1.65,0.5 -2.45,0.8 -6.54,2.35 -12.47,6.93 -16.43,14.58 -0.52,1.01 -1,2.09 -1.46,3.21 -5.97,11.73 0.34,27.72 5.92,36.97 2.5,3.98 5.41,7.28 8.61,9.61 0.69,0.51 1.35,0.94 2.05,1.37 10.13,5.31 22.92,4.41 33.13,-2.83 0.84,-0.63 1.64,-1.28 2.46,-2.02 5.25,-4.71 9.92,-10.76 13.57,-18.09 0.16,-0.38 0.34,-0.82 0.55,-1.38 1.38,-2.57 2.61,-5.21 3.63,-7.96 0.34,-0.92 0.66,-1.85 0.94,-2.83 2.36,-6.5 1.99,-15.01 -1.27,-20 4.51,-0.27 9.04,-0.23 13.52,0.09 -3.23,5 -3.58,13.44 -1.23,19.91 0.29,0.96 0.61,1.89 0.95,2.81 1.02,2.76 2.24,5.39 3.65,7.96 0.19,0.56 0.38,1.01 0.53,1.39 3.66,7.32 8.32,13.36 13.57,18.09 0.83,0.74 1.64,1.39 2.48,2.03 10.2,7.22 22.98,8.12 33.14,2.83 0.7,-0.43 1.37,-0.87 2.04,-1.37 3.2,-2.34 6.14,-5.66 8.61,-9.63 5.6,-9.23 11.89,-25.24 5.94,-36.96 -0.47,-1.11 -0.95,-2.19 -1.48,-3.2l0 0z"/>
   <path class="fil1" d="M878.6 1674.83l0 12.79c0,0 -4.91,6.69 -12.39,8.07 -11.89,2.18 -14.74,14.32 -13.95,23.34 0.62,6.79 3.62,10.12 4.5,15.61 0.58,3.74 -3.74,4.92 -8.45,4.73 -4.72,-0.19 -7.09,-8.46 -7.29,-13.38 -0.19,-4.92 -1.37,-16.73 6.3,-26.95 6.23,-8.31 15.3,-9.95 21.51,-11.24l5.37 -1.13 1.56 -11.83 2.84 0 0 -0.01zm3.2 0l0 12.79c0,0 4.92,6.69 12.39,8.07 11.88,2.18 14.73,14.32 13.93,23.34 -0.6,6.79 -3.61,10.12 -4.49,15.61 -0.57,3.74 3.75,4.92 8.48,4.73 4.72,-0.19 7.07,-8.46 7.26,-13.38 0.2,-4.92 1.38,-16.73 -6.29,-26.95 -6.24,-8.31 -15.31,-9.95 -21.5,-11.24l-5.38 -1.13 -1.56 -11.83 -2.82 0 -0.02 -0.01zm-10.96 44.67c0,0 1.98,0.57 2.48,0.25 0.51,-0.31 2.3,-0.47 2.95,-0.31 0.67,0.17 1.63,0.26 2.6,0 0.96,-0.25 2.54,0.17 3.1,0.17 0.57,0 1.38,-0.51 2.39,-0.31 1.02,0.21 2.25,0.45 3.2,0.4 0.34,-0.02 2.8,-0.53 2.7,-0.25l-4.62 12.61c-4.7,-1.76 -5.42,-1.56 -10.23,0l-4.57 -12.53 0 -0.03z"/>
  </g>
 </g>
</svg>
