<?xml version="1.0" encoding="UTF-8"?>
<!DOCTYPE svg PUBLIC "-//W3C//DTD SVG 1.1//EN" "http://www.w3.org/Graphics/SVG/1.1/DTD/svg11.dtd">
<!-- Creator: CorelDRAW 2021 (64-Bit) -->
<svg xmlns="http://www.w3.org/2000/svg" xml:space="preserve" width="33.8666mm" height="33.8666mm" version="1.1" style="shape-rendering:geometricPrecision; text-rendering:geometricPrecision; image-rendering:optimizeQuality; fill-rule:evenodd; clip-rule:evenodd"
viewBox="0 0 3386.66 3386.66"
 xmlns:xlink="http://www.w3.org/1999/xlink"
 xmlns:xodm="http://www.corel.com/coreldraw/odm/2003">
 <defs>
  <style type="text/css">
   <![CDATA[
    .fil0 {fill:#8CA68C;fill-rule:nonzero}
   ]]>
  </style>
 </defs>
 <g id="Layer_x0020_1">
  <metadata id="CorelCorpID_0Corel-Layer"/>
  <g id="_1357533012368">
   <path class="fil0" d="M726.59 1670.91l11.7 10.62c32.37,-33.91 70.35,-50.4 116.1,-50.41 43.63,0 84.68,17.69 115.6,49.78 33.02,34.3 48.95,74.65 48.72,123.39 -0.23,45.49 -17.32,88.24 -48.11,120.38l0 0.01c-32.34,33.75 -70.35,50.16 -116.19,50.16 -45.76,0 -83.74,-16.49 -116.18,-50.49l-0.66 -0.68c-27.85,-29.47 -43.82,-71.28 -43.82,-114.69l0 -11.78c0,-43.48 15.97,-85.37 43.84,-114.92l-11 -11.37zm292.56 -40.39c-45.13,-47.49 -100.55,-71.57 -164.74,-71.57 -62.07,0 -116.11,22.76 -160.66,67.62l0 -286.92 -66.55 0 0 481.78c0,33.15 7.02,65.06 20.3,92.28 39.98,81.94 119.35,132.84 207.15,132.84 127,0 229.12,-104.13 232.46,-236.97 0.06,-2.18 0.06,-4.42 0.06,-6.59 0,-2.44 0,-4.92 -0.13,-7.35 -1.64,-64.03 -24.49,-119.58 -67.89,-165.12z"/>
   <path class="fil0" d="M1293.4 1642.22l0 -46.38 -66.54 0 0 439.58 66.54 0 0 -225.97c1.2,-45.28 16.91,-83.04 48.12,-115.49 21.08,-22.08 41.09,-33.73 59.44,-34.64l14.72 -0.71 0 -73.09 -16.2 0.83c-36.55,1.87 -72.24,20.67 -106.08,55.87z"/>
   <path class="fil0" d="M1824.59 1654.6l-225.12 235.81c-15.01,-25.88 -22.34,-54.72 -22.34,-87.63 0,-47.91 15.73,-87.63 48.09,-121.42 32.39,-33.81 70.26,-50.24 115.77,-50.24 31.34,0 58.85,7.71 83.6,23.48zm44.23 256.43c-3.79,4.79 -7.71,9.26 -11.71,13.4 -32.37,33.92 -70.36,50.41 -116.12,50.41 -37.03,0 -68.82,-10.81 -96.7,-32.98l278.83 -292.03 -10.05 -11.42c-2.31,-2.62 -4.67,-5.3 -7.17,-7.92 -6.98,-7.3 -13.56,-13.62 -20.28,-19.43 -41.13,-34.57 -89.79,-52.11 -144.63,-52.11 -63.86,0 -119.22,24.08 -164.53,71.54 -45.27,47.43 -68.23,105.39 -68.23,172.29 0,67.14 22.95,125.25 68.23,172.75 45.27,47.43 100.63,71.48 164.53,71.48 64.16,0 119.63,-24.05 164.91,-71.48 9.07,-9.5 17.46,-19.77 24.92,-30.53l12.14 -17.48 -67.23 -25.2 -6.91 8.71z"/>
   <path class="fil0" d="M2360.03 1654.62l-225.06 235.8c-15.05,-25.87 -22.38,-54.71 -22.38,-87.64 0,-47.91 15.73,-87.63 48.09,-121.42 32.39,-33.81 70.25,-50.24 115.77,-50.24 30.9,0 58.93,7.9 83.58,23.5zm51.16 247.7l-6.9 8.71c-3.81,4.79 -7.73,9.27 -11.72,13.39 -32.38,33.93 -70.36,50.42 -116.12,50.42 -36.99,0 -68.77,-10.82 -96.69,-32.98l278.82 -292.03 -10.05 -11.42c-2.3,-2.62 -4.67,-5.3 -7.17,-7.92 -6.99,-7.32 -13.57,-13.62 -20.29,-19.43 -41.12,-34.57 -89.78,-52.11 -144.62,-52.11 -63.86,0 -119.22,24.08 -164.53,71.54 -45.28,47.42 -68.24,105.39 -68.24,172.29 0,67.14 22.96,125.25 68.24,172.75 45.27,47.43 100.63,71.48 164.53,71.48 64.15,0 119.63,-24.05 164.92,-71.48 9.31,-9.76 17.71,-20.06 24.96,-30.58l12 -17.46 -67.14 -25.17z"/>
   <path class="fil0" d="M2585.16 2027.94l0 -82.95 -26.92 0 0 -18.07 72.05 0 0 18.07 -26.96 0 0 82.95 -18.17 0zm78.28 -101.02l17.9 0 29.52 53.47 1.07 0 29.51 -53.47 18.03 0 0 101.02 -18.03 0 0 -49.79 1.08 -16.96 -1.08 0 -24.5 45.31 -10.93 0 -24.67 -45.31 -1.07 0 1.07 16.96 0 49.79 -17.9 0 0 -101.02z"/>
  </g>
 </g>
</svg>
