<?xml version="1.0" encoding="UTF-8"?>
<!DOCTYPE svg PUBLIC "-//W3C//DTD SVG 1.1//EN" "http://www.w3.org/Graphics/SVG/1.1/DTD/svg11.dtd">
<!-- Creator: CorelDRAW 2021 (64-Bit) -->
<svg xmlns="http://www.w3.org/2000/svg" xml:space="preserve" width="33.8666mm" height="33.8666mm" version="1.1" style="shape-rendering:geometricPrecision; text-rendering:geometricPrecision; image-rendering:optimizeQuality; fill-rule:evenodd; clip-rule:evenodd"
viewBox="0 0 3386.66 3386.66"
 xmlns:xlink="http://www.w3.org/1999/xlink"
 xmlns:xodm="http://www.corel.com/coreldraw/odm/2003">
 <defs>
  <style type="text/css">
   <![CDATA[
    .str0 {stroke:#EE741D;stroke-width:10.58;stroke-linecap:round;stroke-linejoin:round;stroke-miterlimit:22.9256}
    .fil0 {fill:#2A608C}
    .fil3 {fill:#59B039}
    .fil2 {fill:#EE741D}
    .fil1 {fill:#2A608C;fill-rule:nonzero}
    .fil4 {fill:#EE741D;fill-rule:nonzero}
   ]]>
  </style>
 </defs>
 <g id="Layer_x0020_1">
  <metadata id="CorelCorpID_0Corel-Layer"/>
  <g id="_1357433920336">
   <polygon class="fil0" points="1899.77,1414.36 1801.96,1215.39 1792.26,1225.62 1887.37,1419.33 "/>
   <path class="fil0" d="M2065.49 1751.52l-135.52 -275.71 -12.58 4.62 135.74 276.44c6,8.94 13.08,14.34 21.35,15.83l2.42 -13.15c-4.15,0.24 -7.91,-2.79 -11.41,-8.05l0 0.02z"/>
   <polygon class="fil1" points="1207.47,1793.48 1236.66,1793.48 1236.66,1949.5 1207.47,1949.5 "/>
   <polygon class="fil1" points="1447.1,1793.24 1476.53,1793.24 1476.53,1949.5 1458.25,1949.5 1458.25,1949.73 1376.22,1844.29 1376.22,1949.5 1346.79,1949.5 1346.79,1793.48 1370.66,1793.48 1447.1,1890.21 "/>
   <path class="fil1" d="M1610.96 1921.19l32.09 0c35.43,0 49.48,-25.85 48.83,-51.26 -0.68,-24.3 -14.95,-48.61 -48.83,-48.61l-32.09 0 0 99.87zm110.12 -51.04c0.67,39.46 -23.41,79.37 -78.01,79.37l-61.31 0 0 -156.03 61.31 0c53.51,0 77.35,38.11 78.01,76.68l0 -0.02z"/>
   <polygon class="fil1" points="1820.94,1793.48 1850.15,1793.48 1850.15,1949.5 1820.94,1949.5 "/>
   <path class="fil1" d="M2028.04 1826.25l-28.97 66.43 57.96 0 -28.99 -66.43zm40.79 93.85l-81.59 0 -13.37 29.43 -31.89 0 70 -156.03 32.09 0 69.98 156.03 -32.09 0 -13.15 -29.43 0.02 0z"/>
   <path class="fil0" d="M1965.66 1387.97l38.16 -3.53 -143.22 -292.92c-26.76,-30.35 -54.47,-36.15 -83.83,1.7l-272.02 531.38c-13.07,24.81 -31.1,38.98 -53.21,44.33 -324.38,12.4 -410.08,-484.63 -16.02,-530.05l180.76 3.36c33.95,-0.67 32.52,-65.65 0,-70.72l-192.78 -0.97c-370.22,4.77 -492.19,616.62 21.74,676.93 37.67,-1.51 72.49,-14.16 95.94,-39.04l250.67 -496.22c11.15,-24.23 22.87,-25.96 35.33,-0.48l94.19 193.96 44.28 -17.73 0.01 0z"/>
   <path class="fil0" d="M2030.38 1438.8l-78.82 29.05 132.58 273.07c33.5,14.45 64.66,14.76 93,-1.94l-146.77 -300.18 0.01 0z"/>
   <path class="fil2" d="M1638.94 1432.43c182.49,-15.23 371.21,-73.72 557.64,-123.8 -179.14,92.44 -305.5,123.22 -461.33,166.34l46.3 89.56 -55.58 24.77 -87.01 -156.87 -0.02 0z"/>
   <path class="fil3" d="M1788.78 1494.85c206.27,-64.68 329.61,-102.52 501.47,-167.69 -122.27,72.71 -272.59,141.41 -416.15,197.07l47.22 84.81 -50.3 28.75 -82.24 -142.94 0 0z"/>
   <path class="fil4 str0" d="M697.63 2207.01c0,-12.65 2.86,-24.03 8.55,-34.13 5.71,-10.11 13.49,-18.01 23.35,-23.71 9.85,-5.71 20.8,-8.56 32.82,-8.56 14.14,0 26.47,3.41 37.01,10.23 10.54,6.82 18.22,16.49 23.06,29.01l-20.27 0c-3.6,-7.81 -8.78,-13.82 -15.53,-18.03 -6.76,-4.22 -14.85,-6.33 -24.27,-6.33 -9.04,0 -17.17,2.11 -24.36,6.33 -7.2,4.21 -12.84,10.19 -16.93,17.94 -4.09,7.75 -6.13,16.83 -6.13,27.25 0,10.28 2.04,19.3 6.13,27.05 4.09,7.75 9.73,13.73 16.93,17.95 7.19,4.22 15.32,6.32 24.36,6.32 9.42,0 17.51,-2.08 24.27,-6.23 6.75,-4.15 11.93,-10.13 15.53,-17.95l20.27 0c-4.84,12.41 -12.52,21.98 -23.06,28.74 -10.54,6.76 -22.87,10.13 -37.01,10.13 -12.02,0 -22.97,-2.81 -32.82,-8.46 -9.86,-5.64 -17.64,-13.48 -23.35,-23.52 -5.69,-10.05 -8.55,-21.39 -8.55,-34.03zm226.52 36.07l-56.54 0 -10.41 28.83 -17.85 0 46.86 -128.88 19.53 0 46.68 128.88 -17.86 0 -10.41 -28.83zm-4.83 -13.76l-23.44 -65.46 -23.43 65.46 46.87 0zm58.95 43.7c-3.22,0 -5.95,-1.11 -8.18,-3.34 -2.23,-2.23 -3.35,-4.96 -3.35,-8.19 0,-3.22 1.12,-5.94 3.35,-8.18 2.23,-2.23 4.96,-3.35 8.18,-3.35 3.1,0 5.73,1.12 7.91,3.35 2.16,2.24 3.25,4.96 3.25,8.18 0,3.23 -1.09,5.96 -3.25,8.19 -2.18,2.23 -4.81,3.34 -7.91,3.34zm159.93 -29.94l-56.53 0 -10.41 28.83 -17.86 0 46.87 -128.88 19.52 0 46.68 128.88 -17.85 0 -10.42 -28.83zm-4.83 -13.76l-23.43 -65.46 -23.44 65.46 46.87 0zm89.64 44.26c-7.81,0 -14.82,-1.33 -21.02,-4 -6.19,-2.66 -11.09,-6.38 -14.69,-11.15 -3.59,-4.77 -5.57,-10.27 -5.95,-16.46l17.49 0c0.49,5.08 2.87,9.24 7.15,12.46 4.28,3.22 9.89,4.83 16.83,4.83 6.45,0 11.53,-1.42 15.26,-4.27 3.71,-2.85 5.58,-6.45 5.58,-10.79 0,-4.46 -1.99,-7.78 -5.96,-9.95 -3.96,-2.17 -10.11,-4.31 -18.41,-6.42 -7.57,-1.98 -13.73,-4 -18.5,-6.04 -4.78,-2.05 -8.87,-5.09 -12.28,-9.12 -3.41,-4.02 -5.11,-9.32 -5.11,-15.89 0,-5.21 1.55,-9.98 4.65,-14.33 3.1,-4.33 7.5,-7.77 13.21,-10.31 5.69,-2.55 12.21,-3.82 19.52,-3.82 11.28,0 20.39,2.85 27.33,8.56 6.95,5.7 10.67,13.51 11.17,23.43l-16.93 0c-0.37,-5.33 -2.51,-9.61 -6.42,-12.83 -3.9,-3.23 -9.14,-4.84 -15.71,-4.84 -6.08,0 -10.91,1.3 -14.5,3.91 -3.6,2.6 -5.4,6.01 -5.4,10.23 0,3.34 1.08,6.11 3.26,8.27 2.16,2.17 4.9,3.91 8.18,5.21 3.28,1.3 7.84,2.76 13.67,4.37 7.31,1.99 13.26,3.94 17.85,5.86 4.58,1.92 8.53,4.8 11.81,8.65 3.28,3.84 4.99,8.86 5.11,15.06 0,5.58 -1.55,10.6 -4.65,15.06 -3.1,4.47 -7.46,7.97 -13.11,10.51 -5.64,2.54 -12.11,3.81 -19.43,3.81zm111.58 -105.44c7.69,0 14.63,1.64 20.84,4.92 6.19,3.29 11.06,8.22 14.59,14.79 3.53,6.57 5.3,14.57 5.3,23.99l0 60.07 -16.74 0 0 -57.65c0,-10.17 -2.54,-17.95 -7.62,-23.35 -5.08,-5.38 -12.02,-8.08 -20.83,-8.08 -8.93,0 -16.03,2.79 -21.29,8.37 -5.28,5.58 -7.91,13.69 -7.91,24.36l0 56.35 -16.92 0 0 -137.62 16.92 0 0 50.21c3.35,-5.21 7.97,-9.24 13.85,-12.09 5.9,-2.84 12.5,-4.27 19.81,-4.27zm112.89 105.44c-9.55,0 -18.2,-2.17 -25.95,-6.51 -7.74,-4.33 -13.82,-10.51 -18.22,-18.5 -4.4,-8 -6.6,-17.27 -6.6,-27.81 0,-10.41 2.26,-19.61 6.78,-27.61 4.53,-8 10.7,-14.13 18.51,-18.41 7.81,-4.27 16.55,-6.42 26.22,-6.42 9.67,0 18.41,2.15 26.23,6.42 7.8,4.28 13.98,10.38 18.5,18.32 4.52,7.93 6.79,17.17 6.79,27.7 0,10.54 -2.33,19.81 -6.98,27.81 -4.65,7.99 -10.94,14.17 -18.87,18.5 -7.94,4.34 -16.74,6.51 -26.41,6.51zm0 -14.87c6.07,0 11.77,-1.43 17.11,-4.28 5.33,-2.86 9.64,-7.13 12.92,-12.83 3.29,-5.71 4.93,-12.65 4.93,-20.84 0,-8.17 -1.61,-15.12 -4.84,-20.82 -3.22,-5.71 -7.43,-9.95 -12.64,-12.74 -5.21,-2.79 -10.85,-4.18 -16.92,-4.18 -6.2,0 -11.88,1.39 -17.02,4.18 -5.14,2.79 -9.27,7.03 -12.37,12.74 -3.1,5.7 -4.64,12.65 -4.64,20.82 0,8.31 1.51,15.32 4.55,21.02 3.03,5.7 7.1,9.95 12.18,12.74 5.08,2.79 10.66,4.19 16.74,4.19zm131.48 13.2l-39.98 -45 0 45 -16.93 0 0 -137.62 16.93 0 0 80.9 39.23 -45.2 23.62 0 -47.98 50.77 48.17 51.15 -23.06 0zm195.64 -129.62l-48.91 129.62 -19.52 0 -48.92 -129.62 18.04 0 40.73 111.77 40.73 -111.77 17.85 0zm23.99 130.73c-3.23,0 -5.95,-1.11 -8.18,-3.34 -2.24,-2.23 -3.35,-4.96 -3.35,-8.19 0,-3.22 1.11,-5.94 3.35,-8.18 2.23,-2.23 4.95,-3.35 8.18,-3.35 3.1,0 5.74,1.12 7.9,3.35 2.18,2.24 3.26,4.96 3.26,8.18 0,3.23 -1.08,5.96 -3.26,8.19 -2.16,2.23 -4.8,3.34 -7.9,3.34zm124.42 0.19c-8.56,0 -16.21,-1.52 -22.97,-4.56 -6.76,-3.03 -12.06,-7.25 -15.91,-12.64 -3.83,-5.4 -5.82,-11.63 -5.94,-18.69l18.03 0c0.63,6.07 3.14,11.19 7.53,15.34 4.41,4.15 10.82,6.24 19.26,6.24 8.05,0 14.41,-2.02 19.06,-6.05 4.65,-4.03 6.97,-9.21 6.97,-15.53 0,-4.96 -1.36,-8.99 -4.09,-12.09 -2.72,-3.1 -6.14,-5.46 -10.23,-7.06 -4.09,-1.62 -9.6,-3.35 -16.55,-5.21 -8.56,-2.24 -15.41,-4.47 -20.55,-6.7 -5.15,-2.23 -9.55,-5.73 -13.2,-10.51 -3.66,-4.77 -5.49,-11.19 -5.49,-19.24 0,-7.07 1.8,-13.34 5.39,-18.79 3.6,-5.45 8.65,-9.67 15.16,-12.64 6.51,-2.98 13.98,-4.47 22.41,-4.47 12.15,0 22.1,3.04 29.85,9.11 7.75,6.08 12.12,14.14 13.11,24.18l-18.6 0c-0.62,-4.96 -3.22,-9.32 -7.81,-13.11 -4.58,-3.78 -10.66,-5.67 -18.22,-5.67 -7.07,0 -12.83,1.82 -17.3,5.49 -4.46,3.65 -6.7,8.76 -6.7,15.34 0,4.71 1.34,8.55 4.01,11.53 2.66,2.97 5.94,5.24 9.85,6.78 3.9,1.55 9.39,3.32 16.46,5.3 8.55,2.36 15.44,4.69 20.64,6.98 5.21,2.29 9.67,5.83 13.39,10.6 3.72,4.77 5.58,11.26 5.58,19.43 0,6.33 -1.67,12.28 -5.02,17.86 -3.35,5.58 -8.31,10.11 -14.88,13.57 -6.57,3.47 -14.32,5.21 -23.24,5.21zm61.74 -52.63c0,-10.41 2.1,-19.56 6.32,-27.43 4.22,-7.87 10.01,-13.98 17.39,-18.32 7.38,-4.34 15.59,-6.51 24.64,-6.51 8.93,0 16.68,1.92 23.24,5.77 6.58,3.84 11.47,8.68 14.7,14.5l0 -18.6 17.11 0 0 101.92 -17.11 0 0 -18.97c-3.35,5.96 -8.34,10.88 -14.97,14.79 -6.63,3.9 -14.36,5.85 -23.15,5.85 -9.06,0 -17.24,-2.23 -24.56,-6.69 -7.31,-4.47 -13.07,-10.73 -17.29,-18.78 -4.22,-8.07 -6.32,-17.24 -6.32,-27.53zm86.29 0.18c0,-7.68 -1.55,-14.37 -4.65,-20.08 -3.1,-5.7 -7.29,-10.07 -12.55,-13.11 -5.27,-3.04 -11.07,-4.55 -17.39,-4.55 -6.32,0 -12.09,1.48 -17.3,4.46 -5.2,2.97 -9.36,7.31 -12.46,13.01 -3.1,5.71 -4.65,12.4 -4.65,20.09 0,7.82 1.55,14.6 4.65,20.36 3.1,5.77 7.26,10.17 12.46,13.21 5.21,3.04 10.98,4.56 17.3,4.56 6.32,0 12.12,-1.52 17.39,-4.56 5.26,-3.04 9.45,-7.44 12.55,-13.21 3.1,-5.76 4.65,-12.48 4.65,-20.18zm62.67 -31.79c3.47,-6.08 8.56,-11.04 15.25,-14.88 6.69,-3.85 14.32,-5.77 22.87,-5.77 9.18,0 17.42,2.17 24.74,6.51 7.31,4.34 13.08,10.45 17.29,18.32 4.22,7.87 6.33,17.02 6.33,27.43 0,10.29 -2.11,19.46 -6.33,27.53 -4.21,8.05 -10,14.31 -17.39,18.78 -7.37,4.46 -15.59,6.69 -24.64,6.69 -8.8,0 -16.52,-1.92 -23.15,-5.76 -6.63,-3.84 -11.62,-8.74 -14.97,-14.69l0 18.78 -16.92 0 0 -137.62 16.92 0 0 54.68zm69.18 31.61c0,-7.69 -1.55,-14.38 -4.65,-20.09 -3.1,-5.7 -7.28,-10.04 -12.55,-13.01 -5.27,-2.98 -11.07,-4.46 -17.39,-4.46 -6.2,0 -11.93,1.51 -17.2,4.55 -5.27,3.04 -9.48,7.44 -12.65,13.2 -3.16,5.77 -4.74,12.43 -4.74,19.99 0,7.7 1.58,14.42 4.74,20.18 3.17,5.77 7.38,10.17 12.65,13.21 5.27,3.04 11,4.56 17.2,4.56 6.32,0 12.12,-1.52 17.39,-4.56 5.27,-3.04 9.45,-7.44 12.55,-13.21 3.1,-5.76 4.65,-12.54 4.65,-20.36zm90.19 -52.44c7.7,0 14.63,1.64 20.84,4.92 6.19,3.29 11.07,8.22 14.6,14.79 3.53,6.57 5.29,14.57 5.29,23.99l0 60.07 -16.73 0 0 -57.65c0,-10.17 -2.54,-17.95 -7.63,-23.35 -5.08,-5.38 -12.02,-8.08 -20.83,-8.08 -8.92,0 -16.02,2.79 -21.29,8.37 -5.27,5.58 -7.9,13.69 -7.9,24.36l0 56.35 -16.93 0 0 -137.62 16.93 0 0 50.21c3.34,-5.21 7.96,-9.24 13.85,-12.09 5.89,-2.84 12.49,-4.27 19.8,-4.27zm62.12 52.44c0,-10.41 2.11,-19.56 6.32,-27.43 4.22,-7.87 10.02,-13.98 17.39,-18.32 7.38,-4.34 15.59,-6.51 24.64,-6.51 8.93,0 16.68,1.92 23.25,5.77 6.57,3.84 11.47,8.68 14.69,14.5l0 -18.6 17.11 0 0 101.92 -17.11 0 0 -18.97c-3.35,5.96 -8.34,10.88 -14.97,14.79 -6.63,3.9 -14.35,5.85 -23.15,5.85 -9.06,0 -17.24,-2.23 -24.55,-6.69 -7.32,-4.47 -13.08,-10.73 -17.3,-18.78 -4.21,-8.07 -6.32,-17.24 -6.32,-27.53zm86.29 0.18c0,-7.68 -1.55,-14.37 -4.65,-20.08 -3.1,-5.7 -7.28,-10.07 -12.55,-13.11 -5.27,-3.04 -11.07,-4.55 -17.39,-4.55 -6.32,0 -12.09,1.48 -17.3,4.46 -5.2,2.97 -9.36,7.31 -12.46,13.01 -3.1,5.71 -4.64,12.4 -4.64,20.09 0,7.82 1.54,14.6 4.64,20.36 3.1,5.77 7.26,10.17 12.46,13.21 5.21,3.04 10.98,4.56 17.3,4.56 6.32,0 12.12,-1.52 17.39,-4.56 5.27,-3.04 9.45,-7.44 12.55,-13.21 3.1,-5.76 4.65,-12.48 4.65,-20.18zm133.53 -50.77l-61.37 149.9 -17.49 0 20.09 -49.1 -41.1 -100.8 18.78 0 31.99 82.58 31.62 -82.58 17.48 0zm10.6 50.59c0,-10.41 2.11,-19.56 6.32,-27.43 4.22,-7.87 10.02,-13.98 17.39,-18.32 7.38,-4.34 15.59,-6.51 24.64,-6.51 8.93,0 16.67,1.92 23.25,5.77 6.57,3.84 11.47,8.68 14.69,14.5l0 -18.6 17.11 0 0 101.92 -17.11 0 0 -18.97c-3.35,5.96 -8.34,10.88 -14.97,14.79 -6.63,3.9 -14.36,5.85 -23.15,5.85 -9.06,0 -17.24,-2.23 -24.55,-6.69 -7.32,-4.47 -13.08,-10.73 -17.3,-18.78 -4.21,-8.07 -6.32,-17.24 -6.32,-27.53zm86.29 0.18c0,-7.68 -1.55,-14.37 -4.65,-20.08 -3.1,-5.7 -7.29,-10.07 -12.55,-13.11 -5.27,-3.04 -11.07,-4.55 -17.39,-4.55 -6.32,0 -12.09,1.48 -17.3,4.46 -5.2,2.97 -9.36,7.31 -12.46,13.01 -3.1,5.71 -4.64,12.4 -4.64,20.09 0,7.82 1.54,14.6 4.64,20.36 3.1,5.77 7.26,10.17 12.46,13.21 5.21,3.04 10.98,4.56 17.3,4.56 6.32,0 12.12,-1.52 17.39,-4.56 5.26,-3.04 9.45,-7.44 12.55,-13.21 3.1,-5.76 4.65,-12.48 4.65,-20.18z"/>
  </g>
 </g>
</svg>
