<?xml version="1.0" encoding="UTF-8"?>
<!DOCTYPE svg PUBLIC "-//W3C//DTD SVG 1.1//EN" "http://www.w3.org/Graphics/SVG/1.1/DTD/svg11.dtd">
<!-- Creator: CorelDRAW 2021 (64-Bit) -->
<svg xmlns="http://www.w3.org/2000/svg" xml:space="preserve" width="33.8666mm" height="33.8666mm" version="1.1" style="shape-rendering:geometricPrecision; text-rendering:geometricPrecision; image-rendering:optimizeQuality; fill-rule:evenodd; clip-rule:evenodd"
viewBox="0 0 3386.66 3386.66"
 xmlns:xlink="http://www.w3.org/1999/xlink"
 xmlns:xodm="http://www.corel.com/coreldraw/odm/2003">
 <defs>
  <style type="text/css">
   <![CDATA[
    .fil0 {fill:#FEFEFE}
    .fil3 {fill:#EE741D}
    .fil4 {fill:#59B039}
    .fil1 {fill:#2A608C}
    .fil2 {fill:#2A608C;fill-rule:nonzero}
   ]]>
  </style>
 </defs>
 <g id="Layer_x0020_1">
  <metadata id="CorelCorpID_0Corel-Layer"/>
  <g id="_1358473012432">
   <path class="fil0" d="M1652.85 1552.53c188.84,-53.16 351.75,-119.38 508.49,-200.16 17.24,-7.4 20.11,0.89 10.45,7.03 -132.8,85.03 -268.43,162.4 -412.94,215.83 9.22,28.08 18.41,56.14 27.63,84.21 -13.93,10.7 -33.22,23.2 -47.15,33.89l-86.48 -140.8z"/>
   <polygon class="fil1" points="1887.44,1397.47 1794.29,1207.96 1785.05,1217.71 1875.64,1402.2 "/>
   <path class="fil1" d="M2045.29 1718.56l-129.08 -262.58 -11.99 4.42 129.27 263.28c5.72,8.51 12.47,13.66 20.34,15.07l2.31 -12.53c-3.94,0.24 -7.52,-2.64 -10.85,-7.66z"/>
   <polygon class="fil2" points="1228.1,1758.52 1255.92,1758.52 1255.92,1907.13 1228.1,1907.13 "/>
   <polygon class="fil2" points="1456.34,1758.3 1484.36,1758.3 1484.36,1907.13 1466.95,1907.13 1466.95,1907.35 1388.83,1806.92 1388.83,1907.13 1360.8,1907.13 1360.8,1758.52 1383.51,1758.52 1456.34,1850.65 "/>
   <path class="fil2" d="M1612.38 1880.17l30.57 0c33.76,0 47.13,-24.63 46.5,-48.83 -0.64,-23.14 -14.23,-46.29 -46.5,-46.29l-30.57 0 0 95.12zm104.88 -48.61c0.64,37.57 -22.29,75.57 -74.31,75.57l-58.38 0 0 -148.61 58.38 0c50.96,0 73.68,36.3 74.31,73.04z"/>
   <polygon class="fil2" points="1812.37,1758.52 1840.19,1758.52 1840.19,1907.13 1812.37,1907.13 "/>
   <path class="fil2" d="M2009.61 1789.73l-27.6 63.26 55.2 0 -27.6 -63.26zm38.85 89.37l-77.7 0 -12.74 28.03 -30.37 0 66.68 -148.6 30.56 0 66.67 148.6 -30.57 0 -12.53 -28.03z"/>
   <path class="fil1" d="M2011.84 1420.73l-75.07 27.67 126.28 260.05c31.91,13.77 61.59,14.09 88.57,-1.84l-139.78 -285.88z"/>
   <path class="fil3" d="M1639.03 1414.65c173.82,-14.49 353.54,-70.21 531.1,-117.9 -170.6,88.03 -290.95,117.35 -439.37,158.43l44.08 85.3 -52.93 23.6 -82.88 -149.43z"/>
   <path class="fil4" d="M1781.74 1474.12c196.46,-61.59 313.9,-97.65 477.6,-159.7 -116.45,69.25 -259.61,134.68 -396.34,187.68l44.99 80.78 -47.92 27.37 -78.33 -136.13z"/>
   <g>
    <path class="fil1" d="M1950.21 1372.34l36.33 -3.37 -136.4 -278.97c-25.49,-28.89 -51.87,-34.43 -79.83,1.62l-259.06 506.08c-12.46,23.64 -29.62,37.14 -50.69,42.23 -308.93,11.8 -390.57,-461.57 -15.26,-504.8l172.15 3.18c32.35,-0.64 30.97,-62.53 0,-67.35l-183.6 -0.92c-352.59,4.54 -468.74,587.27 20.71,644.69 35.9,-1.43 69.04,-13.48 91.38,-37.18l238.75 -472.61c10.62,-23.08 21.79,-24.7 33.64,-0.45l89.7 184.73 42.18 -16.88z"/>
    <path class="fil2" d="M773.9 2210.72c0,8.16 0.29,13.75 0.79,16.8 0.56,2.99 1.64,5.54 3.28,7.55 1.63,2.02 4.61,3.7 8.97,5.11l0 10.49 -64.13 0 0 -10.49c4.74,-1.63 7.81,-3.21 9.19,-4.78 1.42,-1.64 2.39,-3.86 2.98,-6.8 0.55,-2.93 0.84,-8.86 0.84,-17.88l0 -63.86 -55.53 0 0 63.86c0,3.7 0.08,7.12 0.26,10.33 0.16,3.2 0.46,5.82 0.95,7.83 0.51,2.01 1.23,3.68 2.14,5.05 0.97,1.42 2.27,2.61 3.9,3.59 1.65,1.03 3.66,1.9 6,2.66l0 10.49 -64.5 0 0 -10.49c3.06,-1.09 5.45,-2.23 7.21,-3.43 1.77,-1.25 3.07,-2.93 3.91,-5.11 0.88,-2.17 1.43,-4.94 1.67,-8.25 0.25,-3.37 0.38,-7.62 0.38,-12.67l0 -137.28c0,-5 -0.13,-9.18 -0.34,-12.56 -0.17,-3.42 -0.71,-6.13 -1.58,-8.31 -0.85,-2.12 -2.15,-3.8 -3.91,-5.16 -1.76,-1.31 -4.2,-2.5 -7.34,-3.58l0 -10.49 64.5 0 0 10.49c-4.32,1.62 -7.3,3.37 -8.89,5.26 -1.59,1.91 -2.73,4.46 -3.4,7.56 -0.63,3.15 -0.96,8.8 -0.96,16.95l0 53.21 55.53 0 0 -53.21c0,-8.04 -0.25,-13.63 -0.81,-16.79 -0.53,-3.15 -1.59,-5.65 -3.18,-7.66 -1.59,-1.95 -4.61,-3.7 -9.02,-5.32l0 -10.49 64.13 0 0 10.49c-3.61,1.29 -6.24,2.66 -7.88,4.07 -1.64,1.41 -2.81,3.26 -3.48,5.48 -0.72,2.23 -1.14,4.73 -1.34,7.5 -0.22,2.78 -0.34,7.01 -0.34,12.72l0 137.12zm156.64 39.95l-64.5 0 0 -10.49c3.05,-1.09 5.45,-2.23 7.21,-3.43 1.77,-1.25 3.06,-2.93 3.9,-5.11 0.88,-2.17 1.43,-4.94 1.68,-8.25 0.25,-3.37 0.38,-7.62 0.38,-12.67l0 -137.28c0,-5 -0.13,-9.18 -0.35,-12.56 -0.16,-3.42 -0.7,-6.13 -1.58,-8.31 -0.85,-2.12 -2.14,-3.8 -3.9,-5.16 -1.76,-1.31 -4.2,-2.5 -7.34,-3.58l0 -10.49 71.63 0c9.7,0 17.9,0.87 24.67,2.6 6.74,1.8 12.65,4.45 17.74,8.05 4.27,2.99 7.88,6.74 10.81,11.24 2.94,4.52 5.2,9.79 6.79,15.77 1.65,5.98 2.44,12.98 2.44,20.92 0,10.38 -1.43,19.35 -4.24,26.74 -2.85,7.45 -6.67,13.64 -11.45,18.59 -4.78,4.89 -11.19,9.57 -19.2,13.9l0 1.58c6.04,3.43 11.07,7.94 15.01,13.65 3.98,5.64 7.59,12.88 10.78,21.58l7.72 21.62c3.43,9.68 6.87,16.91 10.27,21.74 3.4,4.84 7.43,7.77 12.12,8.86l0 10.49 -47.31 0c-4.78,-8.48 -10.15,-21.14 -16.11,-37.89l-9.59 -27.22c-2.86,-8.1 -5.33,-13.8 -7.34,-17.23 -2.06,-3.37 -4.19,-5.7 -6.33,-7 -2.19,-1.26 -5.54,-1.91 -10.03,-1.91l-7.14 0 0 51.3c0,7.93 0.31,13.53 0.85,16.69 0.59,3.2 1.71,5.76 3.35,7.66 1.64,1.9 4.66,3.59 9.06,5.11l0 10.49zm-13.26 -198.37l0 88.48 12.17 0c6.54,0 11.95,-1.14 16.23,-3.37 4.24,-2.28 7.64,-5.49 10.11,-9.57 2.52,-4.07 4.23,-8.91 5.16,-14.4 0.97,-5.55 1.43,-11.58 1.43,-18.15 0,-14.45 -2.6,-25.27 -7.85,-32.5 -5.24,-7.23 -13.05,-10.81 -23.36,-10.81 -7.04,0 -11.65,0.1 -13.89,0.32zm234.57 -18.96c13.67,0 25.08,1.35 34.27,4.12 9.19,2.78 17.33,7.12 24.45,13.06 7.13,5.97 12.88,13.03 17.27,21.23 4.37,8.27 7.64,17.83 9.78,28.71 2.1,10.87 3.18,23.15 3.18,36.84 0,16.58 -1.5,31.41 -4.48,44.56 -2.98,13.22 -7.47,24.46 -13.46,33.75 -5.32,8.43 -11.87,15.33 -19.58,20.71 -7.76,5.43 -16.65,9.24 -26.72,11.47 -8.68,1.91 -19.63,2.88 -32.85,2.88l-55.77 0 0 -10.49c3.06,-1.09 5.46,-2.23 7.21,-3.43 1.76,-1.25 3.06,-2.93 3.91,-5.11 0.87,-2.17 1.43,-4.94 1.67,-8.25 0.25,-3.37 0.38,-7.62 0.38,-12.67l0 -137.28c0,-5 -0.13,-9.18 -0.33,-12.56 -0.17,-3.42 -0.72,-6.13 -1.59,-8.31 -0.85,-2.12 -2.15,-3.8 -3.91,-5.16 -1.77,-1.31 -4.19,-2.5 -7.34,-3.58l0 -10.49 63.91 0zm-12.66 198.1c1.46,0.27 5.2,0.43 11.2,0.43 8.98,0 16.56,-1.69 22.73,-5.12 4.58,-2.5 8.48,-6.03 11.66,-10.49 5.33,-7.34 9.35,-16.79 12.04,-28.48 2.93,-12.77 4.39,-28.31 4.39,-46.67 0,-20.17 -2.05,-36.91 -6.23,-50.23 -4.2,-13.31 -10.07,-23.14 -17.63,-29.45 -7.58,-6.3 -16.65,-9.45 -27.21,-9.45 -5.08,0 -8.73,0.1 -10.95,0.32l0 179.14zm184.45 21.79c-12.03,0 -22.44,-2.72 -31.16,-8.21 -8.73,-5.49 -15.51,-14.24 -20.47,-26.24 -4.91,-12.08 -7.33,-27.4 -7.33,-45.99 0,-14.18 1.5,-26.52 4.52,-36.91 3.02,-10.43 7.26,-19.02 12.67,-25.81 5.42,-6.79 11.83,-11.79 19.33,-15.05 7.52,-3.21 15.65,-4.84 24.41,-4.84 19.8,0 34.77,6.74 44.83,20.27 10.07,13.53 15.11,33.38 15.11,59.52 0,18.42 -2.49,33.91 -7.47,46.41 -5,12.44 -12.12,21.73 -21.39,27.77 -9.27,6.03 -20.26,9.08 -33.05,9.08zm-21.64 -83.92c0,22.5 1.97,39.34 5.82,50.54 3.92,11.21 9.78,16.79 17.67,16.79 4.31,0 7.97,-1.4 10.86,-4.29 2.89,-2.88 5.24,-7.01 7,-12.39 1.77,-5.43 3.02,-11.96 3.73,-19.51 0.76,-7.61 1.13,-16.15 1.13,-25.6 0,-22.77 -1.97,-39.84 -5.82,-51.14 -3.91,-11.3 -9.65,-16.96 -17.29,-16.96 -5.56,0 -10.01,2.29 -13.36,6.86 -3.37,4.51 -5.84,11.36 -7.4,20.49 -1.54,9.12 -2.34,20.87 -2.34,35.21zm114.29 -91.74c0,-7.61 -0.05,-13.48 -0.12,-17.5 -0.09,-4.02 -0.35,-7.55 -0.78,-10.49 -0.36,-2.99 -1.03,-5.33 -1.96,-7.01 -0.88,-1.68 -2.09,-3.09 -3.6,-4.13 -1.51,-1.08 -3.98,-2.06 -7.42,-3.03l0 -10.5 34.26 -2.22 15.14 0 0 91.18 0.08 0.17c4.95,-5.81 9.23,-10.33 12.92,-13.53 3.7,-3.15 7.63,-5.71 11.79,-7.55 4.19,-1.86 8.63,-2.78 13.41,-2.78 14.55,0 25.5,6.64 32.8,20.01 7.31,13.3 10.95,33.19 10.95,59.78 0,18.31 -2.18,33.68 -6.46,46.08 -4.33,12.34 -10.75,21.63 -19.25,27.82 -8.52,6.25 -19,9.36 -31.45,9.36 -12.92,0 -24.79,-3.05 -35.49,-9.08l-9.09 9.08 -15.73 -2.88 0 -172.78zm35.52 120.87c0,13.04 1.72,22.71 5.2,28.92 3.48,6.19 8.85,9.28 16.15,9.28 7.54,0 13.29,-5.1 17.28,-15.38 3.98,-10.21 5.95,-24.83 5.95,-43.84 0,-20.88 -1.76,-36.54 -5.28,-46.8 -3.53,-10.27 -9.02,-15.43 -16.49,-15.43 -3.56,0 -7.13,1.18 -10.65,3.63 -3.53,2.45 -6.46,5.93 -8.72,10.44 -2.31,4.51 -3.44,9.45 -3.44,14.89l0 54.29zm176.9 31.35l-1.8 -0.75c-6.76,8.48 -13.25,14.62 -19.63,18.42 -6.34,3.86 -13.09,5.77 -20.21,5.77 -7.05,0 -13.18,-1.7 -18.38,-5 -5.19,-3.37 -9.14,-8 -11.78,-13.97 -2.64,-5.93 -3.97,-12.78 -3.97,-20.55 0,-15.6 5.9,-27.88 17.73,-36.85 11.82,-8.96 29.82,-14.61 53.88,-16.95l0 -15.1c0,-9.9 -0.88,-17.51 -2.6,-22.89 -1.71,-5.32 -3.89,-9.13 -6.62,-11.3 -2.69,-2.17 -5.95,-3.27 -9.68,-3.27 -3.79,0 -7.05,0.88 -9.78,2.56 -2.76,1.68 -5.25,4.89 -7.46,9.62 -2.18,4.73 -3.83,11.3 -4.91,19.67l-23.19 0 0 -28.97c7.51,-4.34 13.8,-7.71 18.78,-10.05 5,-2.33 9.94,-4.24 14.81,-5.82 4.86,-1.51 9.22,-2.61 13.08,-3.26 3.86,-0.59 7.68,-0.92 11.53,-0.92 9.95,0 17.88,1.69 23.79,5.11 5.95,3.37 10.4,8.91 13.33,16.52 2.94,7.67 4.41,18.22 4.41,31.69l0 62.12c0,7 0.13,12.38 0.37,16.25 0.26,3.8 0.64,6.62 1.18,8.47 0.54,1.91 1.22,3.37 2.01,4.45 0.85,1.15 1.85,2.08 3.03,2.73 1.2,0.7 3.43,1.57 6.7,2.66l0 10.49 -45.71 0 1.09 -20.88zm-4.03 -54.29c-12.7,0.43 -22.1,3.54 -28.22,9.25 -6.08,5.76 -9.15,14.13 -9.15,25.16 0,6.57 1.39,11.57 4.19,15.05 2.78,3.43 6.64,5.17 11.54,5.17 3.78,0 7.34,-1.31 10.69,-3.91 3.36,-2.62 6.04,-6.1 7.98,-10.45 1.96,-4.33 2.97,-8.97 2.97,-13.86l0 -26.41zm111.94 -60l1.59 0.45c5.96,-9.13 12.13,-15.72 18.41,-19.74 6.34,-4.02 13.17,-6.03 20.55,-6.03 5,0 10.24,0.7 15.73,2.06l0 43.97 -22.26 0c-1.39,-6.18 -3.19,-10.92 -5.46,-14.18 -2.26,-3.32 -5.29,-4.95 -9.02,-4.95 -1.8,0 -3.81,0.71 -5.99,2.18 -2.14,1.42 -4.16,3.41 -6,6.03 -1.85,2.6 -3.15,5.27 -3.95,7.94 -0.75,2.71 -1.29,5.42 -1.5,8.2 -0.26,2.77 -0.39,6.89 -0.39,12.45l0 50.75c0,10.12 0.3,17.18 0.84,21.2 0.59,4.02 1.73,7.17 3.44,9.46 1.73,2.28 4.66,3.92 8.73,4.89l0 10.49 -60.55 0 0 -10.49c3.93,-1.41 6.66,-3.21 8.17,-5.44 1.51,-2.22 2.51,-5.27 3.06,-9.07 0.54,-3.8 0.79,-10.75 0.79,-20.87l0 -65.44c0,-7.83 -0.07,-13.64 -0.29,-17.44 -0.2,-3.74 -0.71,-6.79 -1.46,-9.08 -0.81,-2.28 -1.98,-4.13 -3.57,-5.53 -1.59,-1.48 -4.36,-2.72 -8.3,-3.77l0 -10.81 33.68 -1.3 15.46 0 -1.71 24.07zm116.85 -86.3l0 39.02 -33.64 0 0 -39.02 33.64 0zm-46.69 210.98c4.03,-1.41 6.81,-3.21 8.32,-5.44 1.5,-2.22 2.5,-5.27 3.05,-9.07 0.55,-3.8 0.8,-10.75 0.8,-20.87l0 -74.02c0,-5.22 -0.17,-9.4 -0.55,-12.6 -0.38,-3.16 -1.04,-5.71 -2.1,-7.62 -1,-1.9 -2.38,-3.37 -4.14,-4.4 -1.77,-0.98 -4.07,-1.84 -6.84,-2.62l0 -10.81 33.8 -1.3 15.35 0 0 113.2c0,5.98 0.04,10.55 0.17,13.8 0.13,3.21 0.29,5.71 0.55,7.46 0.24,1.79 0.62,3.31 1.05,4.72 0.45,1.36 1.04,2.66 1.79,3.81 0.71,1.19 1.81,2.22 3.2,3.2 1.37,0.93 3.22,1.8 5.53,2.56l0 10.49 -59.98 0 0 -10.49zm134.59 17.66c-5.32,15.39 -10.36,27.45 -15.06,36.19 -4.73,8.76 -9.81,15.34 -15.26,19.68 -5.46,4.35 -12.21,6.52 -20.29,6.52 -6.17,0 -11.92,-0.98 -17.25,-2.99l0 -36.47 13.8 0c1.05,4.95 2.4,8.38 3.98,10.28 1.6,1.84 3.81,2.77 6.68,2.77 3.14,0 5.9,-1.14 8.42,-3.37 2.52,-2.23 5.33,-6.36 8.47,-12.5 3.15,-6.09 7.05,-15.17 11.62,-27.28l-7.01 0 -32.08 -119.57c-2.26,-8.43 -4.1,-14.12 -5.45,-17.27 -1.34,-3.17 -2.85,-5.55 -4.53,-7.18 -1.67,-1.64 -3.77,-2.78 -6.2,-3.43l0 -10.49 61.31 0 0 10.49c-3.86,0.98 -6.71,2.4 -8.52,4.3 -1.79,1.9 -2.68,4.79 -2.68,8.58 0,5.11 1.06,11.74 3.2,19.95l17.69 69.57 19.55 -60.98c1.63,-5.11 2.84,-9.57 3.68,-13.48 0.8,-3.86 1.22,-7.67 1.22,-11.36 0,-4.46 -0.96,-8.14 -2.94,-11.09 -1.96,-2.93 -4.78,-4.72 -8.34,-5.49l0 -10.49 47.76 0 0 10.66c-2.34,0.98 -4.27,2.12 -5.7,3.48 -1.42,1.41 -2.77,3.2 -4.07,5.44 -1.25,2.21 -2.8,5.53 -4.61,9.94 -1.8,4.4 -4.23,11.09 -7.34,20l-40.05 115.59zm138.82 -28.05l-1.81 -0.75c-6.75,8.48 -13.25,14.62 -19.62,18.42 -6.33,3.86 -13.08,5.77 -20.22,5.77 -7.04,0 -13.16,-1.7 -18.37,-5 -5.2,-3.37 -9.14,-8 -11.78,-13.97 -2.64,-5.93 -3.99,-12.78 -3.99,-20.55 0,-15.6 5.92,-27.88 17.74,-36.85 11.83,-8.96 29.83,-14.61 53.9,-16.95l0 -15.1c0,-9.9 -0.88,-17.51 -2.6,-22.89 -1.72,-5.32 -3.9,-9.13 -6.63,-11.3 -2.68,-2.17 -5.96,-3.27 -9.69,-3.27 -3.77,0 -7.05,0.88 -9.77,2.56 -2.77,1.68 -5.24,4.89 -7.46,9.62 -2.19,4.73 -3.82,11.3 -4.91,19.67l-23.2 0 0 -28.97c7.51,-4.34 13.81,-7.71 18.8,-10.05 4.99,-2.33 9.93,-4.24 14.8,-5.82 4.87,-1.51 9.23,-2.61 13.09,-3.26 3.86,-0.59 7.67,-0.92 11.53,-0.92 9.93,0 17.86,1.69 23.79,5.11 5.95,3.37 10.39,8.91 13.32,16.52 2.94,7.67 4.41,18.22 4.41,31.69l0 62.12c0,7 0.12,12.38 0.37,16.25 0.26,3.8 0.64,6.62 1.17,8.47 0.55,1.91 1.23,3.37 2.02,4.45 0.84,1.15 1.85,2.08 3.03,2.73 1.21,0.7 3.43,1.57 6.7,2.66l0 10.49 -45.71 0 1.09 -20.88zm-4.03 -54.29c-12.71,0.43 -22.1,3.54 -28.22,9.25 -6.07,5.76 -9.15,14.13 -9.15,25.16 0,6.57 1.39,11.57 4.2,15.05 2.76,3.43 6.62,5.17 11.53,5.17 3.78,0 7.34,-1.31 10.7,-3.91 3.35,-2.62 6.04,-6.1 7.97,-10.45 1.97,-4.33 2.97,-8.97 2.97,-13.86l0 -26.41zm225.93 57.34c-8.59,7.61 -16.94,12.93 -25.05,15.92 -8.13,2.99 -17.47,4.47 -28.13,4.47 -16.39,0 -29.11,-4.51 -38.17,-13.54 -9.05,-9.03 -13.58,-21.85 -13.58,-38.37 0,-5.33 0.55,-10.27 1.68,-14.84 1.09,-4.56 2.68,-8.85 4.74,-12.93 2.01,-4.13 4.61,-8.1 7.71,-11.95 3.11,-3.86 6.79,-7.66 10.99,-11.31 4.23,-3.69 10.07,-8.04 17.52,-13.15 -4.65,-8.27 -8,-14.89 -10.01,-19.89 -2.01,-5.01 -3.53,-10.11 -4.61,-15.39 -1.05,-5.21 -1.6,-10.86 -1.6,-16.79 0,-10.37 2.26,-19.72 6.75,-27.93 4.53,-8.21 11.03,-14.73 19.55,-19.4 8.51,-4.73 17.82,-7.12 27.88,-7.12 13.3,0 23.74,3.53 31.33,10.6 7.64,7.05 11.46,17.22 11.46,30.48 0,4.89 -0.55,9.46 -1.68,13.7 -1.1,4.24 -2.98,8.59 -5.66,12.98 -2.66,4.41 -6.17,8.81 -10.58,13.21 -4.36,4.41 -11.7,10.6 -22.05,18.54 5.19,8.8 11.49,18.86 18.99,30.16 7.51,11.3 13.93,20.7 19.25,28.1 3.69,-5.81 6.38,-11.47 8.14,-16.96 1.76,-5.44 2.64,-11.03 2.64,-16.79 0,-5.49 -0.92,-9.46 -2.72,-11.91 -1.85,-2.43 -4.79,-3.86 -8.8,-4.18l0 -10.49 38.32 0 0 9.24c0,1.35 -0.38,4.36 -1.08,8.91 -0.51,2.89 -1.14,5.76 -1.85,8.59 -0.67,3 -1.43,5.87 -2.36,8.65 -0.88,2.82 -1.92,5.59 -3.06,8.25 -1.13,2.77 -2.39,5.43 -3.69,8.09 -1.3,2.68 -2.72,5.28 -4.32,7.83 -1.63,2.67 -3.35,5.22 -5.16,7.78 -1.83,2.55 -3.77,5 -5.74,7.34 3.61,5.43 6.7,9.72 9.4,12.87 2.64,3.21 4.98,5.49 7.04,6.85 2.06,1.42 4.16,2.13 6.3,2.13 1.96,0 3.81,-0.61 5.53,-1.7 1.72,-1.13 4.11,-3.42 7.21,-6.95l8.02 13.1c-6.46,8.48 -12.67,14.62 -18.58,18.42 -5.88,3.86 -11.96,5.77 -18.16,5.77 -6.81,0 -12.72,-1.65 -17.71,-4.95 -4.98,-3.32 -10.35,-8.42 -16.1,-15.44zm-30.32 -118.32c8.09,-6.34 14.1,-13.2 18.03,-20.53 3.95,-7.34 5.91,-14.73 5.91,-22.29 0,-7.55 -1.5,-13.53 -4.58,-17.93 -3.01,-4.4 -6.99,-6.57 -12.02,-6.57 -3.44,0 -6.59,1.02 -9.44,3.09 -2.89,2.07 -5.16,5.27 -6.88,9.57 -1.71,4.29 -2.6,9.56 -2.6,15.81 0,6.57 0.89,12.83 2.65,18.65 1.75,5.81 4.74,12.55 8.93,20.2zm18.78 103.32c-6.33,-9.29 -13.67,-20.54 -22.05,-33.64 -8.39,-13.09 -14.81,-23.37 -19.26,-30.81 -4.9,5 -8.51,10.54 -10.85,16.73 -2.36,6.15 -3.49,13 -3.49,20.54 0,11.43 2.61,20.39 7.81,26.91 5.19,6.47 12.28,9.68 21.3,9.68 5.4,0 10.11,-0.76 14.04,-2.29 3.99,-1.52 8.14,-3.91 12.5,-7.12zm271.85 -179.57l0 46.15 -16.69 0c-1.97,-11.95 -5.07,-20.82 -9.35,-26.47 -4.23,-5.71 -9.81,-8.53 -16.69,-8.53 -12.96,0 -22.73,8.04 -29.36,24.12 -6.66,16.1 -9.97,39.96 -9.97,71.59 0,29.4 3.06,51.63 9.09,66.79 6.08,15.11 14.97,22.66 26.67,22.66 6,0 10.87,-1.31 14.64,-3.92 3.74,-2.6 6.76,-6.46 9.02,-11.68 2.27,-5.22 4.2,-12.5 5.82,-21.95l16.82 0 0 48.21c-8.96,2.77 -17.24,4.78 -24.65,6.08 -7.46,1.26 -15.22,1.91 -23.24,1.91 -17.02,0 -30.95,-3.98 -41.73,-11.97 -10.78,-7.93 -18.7,-20 -23.81,-36.03 -5.13,-16.09 -7.69,-36.46 -7.69,-61.08 0,-23.04 3.03,-43.04 9.03,-60.11 6.04,-17.01 14.88,-30.17 26.59,-39.4 11.73,-9.23 25.75,-13.86 42.01,-13.86 8.3,0 15.77,0.6 22.48,1.74 6.76,1.2 13.76,3.09 21.01,5.75zm78.9 214.96c-12.04,0 -22.44,-2.72 -31.16,-8.21 -8.73,-5.49 -15.52,-14.24 -20.47,-26.24 -4.9,-12.08 -7.33,-27.4 -7.33,-45.99 0,-14.18 1.5,-26.52 4.52,-36.91 3.02,-10.43 7.26,-19.02 12.66,-25.81 5.42,-6.79 11.84,-11.79 19.34,-15.05 7.51,-3.21 15.64,-4.84 24.4,-4.84 19.8,0 34.77,6.74 44.84,20.27 10.07,13.53 15.1,33.38 15.1,59.52 0,18.42 -2.47,33.91 -7.47,46.41 -4.99,12.44 -12.11,21.73 -21.38,27.77 -9.27,6.03 -20.27,9.08 -33.05,9.08zm-21.65 -83.92c0,22.5 1.98,39.34 5.84,50.54 3.9,11.21 9.77,16.79 17.66,16.79 4.31,0 7.97,-1.4 10.86,-4.29 2.89,-2.88 5.24,-7.01 7,-12.39 1.76,-5.43 3.03,-11.96 3.74,-19.51 0.75,-7.61 1.12,-16.15 1.12,-25.6 0,-22.77 -1.97,-39.84 -5.83,-51.14 -3.89,-11.3 -9.64,-16.96 -17.28,-16.96 -5.58,0 -10.02,2.29 -13.37,6.86 -3.37,4.51 -5.83,11.36 -7.38,20.49 -1.56,9.12 -2.36,20.87 -2.36,35.21zm137.98 33.26l0 48.1 -33.04 0 0 -48.1 33.04 0z"/>
   </g>
  </g>
 </g>
</svg>
