<?xml version="1.0" encoding="UTF-8"?>
<!DOCTYPE svg PUBLIC "-//W3C//DTD SVG 1.1//EN" "http://www.w3.org/Graphics/SVG/1.1/DTD/svg11.dtd">
<!-- Creator: CorelDRAW 2021 (64-Bit) -->
<svg xmlns="http://www.w3.org/2000/svg" xml:space="preserve" width="33.8666mm" height="33.8666mm" version="1.1" style="shape-rendering:geometricPrecision; text-rendering:geometricPrecision; image-rendering:optimizeQuality; fill-rule:evenodd; clip-rule:evenodd"
viewBox="0 0 3386.66 3386.66"
 xmlns:xlink="http://www.w3.org/1999/xlink"
 xmlns:xodm="http://www.corel.com/coreldraw/odm/2003">
 <defs>
  <style type="text/css">
   <![CDATA[
    .str0 {stroke:black;stroke-width:7.62;stroke-linecap:round;stroke-linejoin:round;stroke-miterlimit:22.9256}
    .fil0 {fill:#2A608C}
    .fil3 {fill:#59B039}
    .fil2 {fill:#EE741D}
    .fil1 {fill:#2A608C;fill-rule:nonzero}
   ]]>
  </style>
 </defs>
 <g id="Layer_x0020_1">
  <metadata id="CorelCorpID_0Corel-Layer"/>
  <g id="_1357794305184">
   <polygon class="fil0" points="1909.19,1441.58 1805.58,1230.79 1795.31,1241.63 1896.06,1446.84 "/>
   <path class="fil0" d="M2084.76 1798.75l-143.57 -292.08 -13.33 4.91 143.81 292.84c6.36,9.47 13.84,15.2 22.6,16.77l2.57 -13.93c-4.39,0.25 -8.38,-2.95 -12.08,-8.53l0 0.02z"/>
   <polygon class="fil1" points="1175.8,1843.2 1206.72,1843.2 1206.72,2008.5 1175.8,2008.5 "/>
   <polygon class="fil1" points="1429.65,1842.95 1460.83,1842.95 1460.83,2008.5 1441.46,2008.5 1441.46,2008.73 1354.56,1897.04 1354.56,2008.5 1323.39,2008.5 1323.39,1843.2 1348.67,1843.2 1429.65,1945.69 "/>
   <path class="fil1" d="M1603.24 1978.5l34 0c37.53,0 52.42,-27.39 51.72,-54.3 -0.71,-25.75 -15.83,-51.5 -51.72,-51.5l-34 0 0 105.8zm116.66 -54.07c0.71,41.8 -24.8,84.07 -82.65,84.07l-64.94 0 0 -165.28 64.94 0c56.69,0 81.95,40.37 82.65,81.23l0 -0.02z"/>
   <polygon class="fil1" points="1825.68,1843.2 1856.63,1843.2 1856.63,2008.5 1825.68,2008.5 "/>
   <path class="fil1" d="M2045.08 1877.92l-30.69 70.37 61.4 0 -30.71 -70.37zm43.21 99.42l-86.43 0 -14.16 31.18 -33.8 0 74.16 -165.29 34 0 74.14 165.29 -33.99 0 -13.94 -31.18 0.02 0z"/>
   <path class="fil0" d="M1979 1413.62l40.42 -3.74 -151.71 -310.32c-28.36,-32.15 -57.7,-38.29 -88.82,1.81l-288.17 562.92c-13.85,26.3 -32.94,41.31 -56.37,46.97 -343.64,13.14 -434.43,-513.41 -16.96,-561.52l191.48 3.56c35.98,-0.71 34.45,-69.55 0,-74.92l-204.22 -1.03c-392.21,5.06 -521.42,653.24 23.03,717.13 39.91,-1.6 76.79,-15.01 101.63,-41.37l265.56 -525.68c11.81,-25.66 24.23,-27.49 37.43,-0.51l99.78 205.48 46.91 -18.78 0.01 0z"/>
   <path class="fil0" d="M2047.56 1467.46l-83.5 30.78 140.45 289.29c35.49,15.3 68.5,15.63 98.52,-2.06l-155.48 -318.01 0.01 0z"/>
   <path class="fil2" d="M1632.87 1460.71c193.34,-16.13 393.26,-78.09 590.76,-131.14 -189.77,97.93 -323.64,130.54 -488.72,176.21l49.05 94.88 -58.88 26.25 -92.19 -166.2 -0.02 0z"/>
   <path class="fil3" d="M1791.62 1526.85c218.51,-68.53 349.18,-108.62 531.24,-177.65 -129.52,77.03 -288.78,149.8 -440.85,208.76l50.02 89.85 -53.28 30.46 -87.14 -151.42 0.01 0z"/>
   <path class="fil1 str0" d="M594.78 2276.77c0,5.42 -0.46,10.33 -1.42,14.86 -0.93,4.49 -2.57,8.33 -4.92,11.55 -2.3,3.23 -5.41,5.73 -9.25,7.49 -3.84,1.77 -8.6,2.65 -14.33,2.65 -2.03,0 -4.03,-0.19 -5.98,-0.57 -1.96,-0.39 -3.76,-0.89 -5.41,-1.46 -1.66,-0.58 -3.12,-1.19 -4.35,-1.85 -1.22,-0.65 -2.07,-1.18 -2.49,-1.65 -0.38,-0.42 -0.73,-0.84 -0.96,-1.22 -0.23,-0.39 -0.42,-0.81 -0.61,-1.35 -0.19,-0.5 -0.31,-1.15 -0.39,-1.92 -0.07,-0.73 -0.11,-1.65 -0.11,-2.69 0,-1.11 0.08,-2.03 0.23,-2.8 0.15,-0.73 0.34,-1.34 0.61,-1.73 0.27,-0.42 0.58,-0.73 0.96,-0.92 0.39,-0.19 0.81,-0.27 1.35,-0.27 0.61,0 1.38,0.31 2.37,0.96 0.96,0.66 2.16,1.31 3.54,2.04 1.38,0.73 3.03,1.38 4.91,2.03 1.88,0.65 4.07,0.96 6.53,0.96 2.8,0 5.18,-0.34 7.18,-1 1.95,-0.69 3.6,-1.99 4.87,-3.95 1.28,-1.96 2.23,-4.61 2.88,-8.02 0.66,-3.42 0.96,-7.91 0.96,-13.44l0 -106.35c0,-0.46 0.12,-0.84 0.35,-1.23 0.23,-0.39 0.62,-0.69 1.11,-0.92 0.54,-0.2 1.27,-0.39 2.15,-0.54 0.92,-0.15 2.04,-0.23 3.3,-0.23 1.27,0 2.38,0.08 3.31,0.23 0.88,0.15 1.6,0.34 2.15,0.54 0.5,0.23 0.88,0.53 1.11,0.92 0.23,0.39 0.35,0.77 0.35,1.23l0 108.65zm122.66 -23.77c0,2.74 -0.73,4.58 -2.15,5.57 -1.42,1.04 -2.8,1.54 -4.15,1.54l-69.25 0c0,6.29 0.6,11.98 1.83,17.08 1.24,5.11 3.31,9.45 6.15,13.09 2.84,3.66 6.53,6.42 11.09,8.38 4.57,1.95 10.18,2.91 16.86,2.91 4.72,0 8.94,-0.42 12.67,-1.26 3.76,-0.81 6.99,-1.73 9.71,-2.77 2.76,-1.03 4.99,-1.96 6.75,-2.76 1.78,-0.84 3.01,-1.27 3.77,-1.27 0.46,0 0.85,0.11 1.23,0.35 0.38,0.23 0.69,0.57 0.88,1.03 0.23,0.5 0.42,1.12 0.54,1.88 0.11,0.74 0.15,1.66 0.15,2.77 0,0.54 -0.04,1.03 -0.11,1.53 -0.08,0.46 -0.16,0.92 -0.27,1.35 -0.12,0.38 -0.31,0.8 -0.5,1.15 -0.23,0.38 -0.54,0.76 -0.92,1.11 -0.39,0.38 -1.53,1.04 -3.49,2 -1.93,0.96 -4.5,1.92 -7.65,2.88 -3.14,0.96 -6.79,1.84 -10.94,2.61 -4.18,0.77 -8.68,1.15 -13.47,1.15 -7.87,0 -14.82,-1.19 -20.89,-3.53 -6.1,-2.38 -11.21,-5.88 -15.32,-10.48 -4.11,-4.61 -7.25,-10.33 -9.4,-17.12 -2.12,-6.84 -3.19,-14.75 -3.19,-23.77 0,-8.6 1.11,-16.32 3.3,-23.15 2.23,-6.84 5.38,-12.63 9.52,-17.39 4.11,-4.77 9.1,-8.37 14.9,-10.91 5.8,-2.49 12.28,-3.76 19.39,-3.76 7.64,0 14.16,1.27 19.58,3.84 5.37,2.53 9.83,5.95 13.32,10.29 3.49,4.3 6.03,9.29 7.64,15.01 1.61,5.68 2.42,11.68 2.42,17.97l0 2.68zm-13.82 -3.95c0.23,-10.79 -2.27,-19.2 -7.41,-25.22 -5.15,-6.07 -12.67,-9.1 -22.58,-9.1 -5.07,0 -9.56,0.96 -13.39,2.84 -3.84,1.92 -7.1,4.45 -9.76,7.6 -2.65,3.11 -4.72,6.76 -6.14,10.94 -1.42,4.15 -2.23,8.45 -2.45,12.94l61.73 0zm92.44 53.98c0,1.57 -0.11,2.88 -0.38,3.84 -0.26,1 -0.69,1.77 -1.27,2.34 -0.53,0.54 -1.38,1.08 -2.45,1.58 -1.08,0.46 -2.34,0.88 -3.76,1.23 -1.42,0.34 -2.96,0.61 -4.54,0.8 -1.57,0.19 -3.11,0.27 -4.6,0.27 -5.04,0 -9.29,-0.69 -12.82,-2.03 -3.54,-1.35 -6.41,-3.39 -8.68,-6.11 -2.23,-2.77 -3.88,-6.22 -4.88,-10.44 -1.03,-4.19 -1.53,-9.14 -1.53,-14.82l0 -63.35 -15.09 0c-1.04,0 -1.84,-0.46 -2.46,-1.38 -0.57,-0.96 -0.88,-2.34 -0.88,-4.22 0,-0.96 0.07,-1.81 0.23,-2.5 0.15,-0.69 0.38,-1.3 0.65,-1.8 0.31,-0.46 0.66,-0.81 1.08,-1.04 0.42,-0.23 0.88,-0.34 1.38,-0.34l15.09 0 0 -24.96c0,-0.47 0.07,-0.85 0.27,-1.23 0.19,-0.39 0.53,-0.69 1.07,-0.96 0.54,-0.27 1.23,-0.46 2.07,-0.58 0.89,-0.12 1.92,-0.15 3.23,-0.15 1.34,0 2.42,0.03 3.3,0.15 0.84,0.12 1.54,0.31 2,0.58 0.5,0.27 0.84,0.57 1.07,0.96 0.23,0.38 0.35,0.76 0.35,1.23l0 24.96 28.18 0c0.53,0 0.99,0.11 1.41,0.34 0.4,0.23 0.78,0.58 1.08,1.04 0.27,0.5 0.5,1.11 0.65,1.8 0.16,0.69 0.23,1.54 0.23,2.5 0,1.88 -0.3,3.26 -0.96,4.22 -0.65,0.92 -1.46,1.38 -2.41,1.38l-28.18 0 0 61.51c0,7.71 1.11,13.59 3.34,17.65 2.19,4.04 6.26,6.07 12.09,6.07 1.81,0 3.45,-0.19 4.92,-0.57 1.46,-0.35 2.76,-0.77 3.87,-1.23 1.16,-0.46 2.08,-0.84 2.88,-1.23 0.81,-0.38 1.5,-0.57 2.07,-0.57 0.39,0 0.73,0.07 1.04,0.23 0.31,0.15 0.54,0.42 0.73,0.84 0.2,0.42 0.35,0.96 0.47,1.57 0.11,0.66 0.14,1.46 0.14,2.42zm109.35 6.22c0,0.46 -0.12,0.85 -0.35,1.23 -0.23,0.39 -0.57,0.69 -1.07,0.89 -0.46,0.22 -1.15,0.42 -2,0.57 -0.88,0.15 -1.92,0.23 -3.19,0.23 -1.38,0 -2.45,-0.08 -3.34,-0.23 -0.84,-0.15 -1.53,-0.35 -1.99,-0.57 -0.5,-0.2 -0.85,-0.5 -1.08,-0.89 -0.23,-0.38 -0.34,-0.77 -0.34,-1.23l0 -60.43c0,-6.29 -0.5,-11.44 -1.46,-15.36 -0.96,-3.95 -2.42,-7.33 -4.38,-10.13 -1.96,-2.8 -4.45,-4.99 -7.48,-6.53 -3.04,-1.54 -6.57,-2.31 -10.64,-2.31 -5.14,0 -10.33,1.85 -15.51,5.54 -5.14,3.64 -10.6,9.05 -16.28,16.2l0 73.02c0,0.46 -0.11,0.85 -0.35,1.23 -0.22,0.39 -0.57,0.69 -1.07,0.89 -0.46,0.22 -1.15,0.42 -2,0.57 -0.88,0.15 -1.96,0.23 -3.3,0.23 -1.3,0 -2.34,-0.08 -3.22,-0.23 -0.85,-0.15 -1.54,-0.35 -2.07,-0.57 -0.54,-0.2 -0.89,-0.5 -1.08,-0.89 -0.19,-0.38 -0.26,-0.77 -0.26,-1.23l0 -151.72c0,-0.46 0.07,-0.85 0.26,-1.23 0.19,-0.39 0.54,-0.69 1.08,-0.96 0.53,-0.27 1.22,-0.46 2.07,-0.58 0.88,-0.11 1.92,-0.16 3.22,-0.16 1.34,0 2.42,0.05 3.3,0.16 0.85,0.12 1.54,0.31 2,0.58 0.5,0.27 0.85,0.57 1.07,0.96 0.24,0.38 0.35,0.77 0.35,1.23l0 63.57c5.53,-6.14 11.1,-10.67 16.63,-13.55 5.57,-2.88 11.09,-4.34 16.62,-4.34 6.68,0 12.28,1.12 16.86,3.38 4.56,2.27 8.25,5.3 11.09,9.1 2.8,3.84 4.84,8.29 6.07,13.39 1.22,5.11 1.84,11.25 1.84,18.48l0 61.69zm111.03 -101.97c0,0.23 0,0.46 -0.03,0.73 -0.04,0.27 -0.08,0.5 -0.12,0.73 -0.04,0.23 -0.12,0.5 -0.19,0.73 -0.08,0.27 -0.16,0.54 -0.23,0.73l-36.82 99.05c-0.23,0.58 -0.58,1.08 -1.04,1.46 -0.42,0.39 -1,0.66 -1.69,0.88 -0.65,0.23 -1.46,0.39 -2.42,0.47 -0.92,0.07 -2.03,0.11 -3.3,0.11 -1.27,0 -2.42,-0.04 -3.38,-0.15 -0.96,-0.12 -1.8,-0.31 -2.45,-0.54 -0.7,-0.19 -1.27,-0.5 -1.7,-0.88 -0.46,-0.39 -0.8,-0.81 -1.04,-1.35l-36.93 -99.05c-0.22,-0.58 -0.42,-1.08 -0.54,-1.46 -0.11,-0.34 -0.19,-0.65 -0.22,-0.88 -0.05,-0.23 -0.05,-0.43 -0.05,-0.58 0,-0.5 0.12,-0.96 0.35,-1.35 0.24,-0.38 0.58,-0.64 1.04,-0.84 0.5,-0.19 1.15,-0.3 1.96,-0.38 0.84,-0.08 1.84,-0.11 3.03,-0.11 1.61,0 2.92,0.03 3.92,0.14 0.96,0.12 1.73,0.32 2.26,0.55 0.58,0.18 0.96,0.5 1.23,0.88 0.27,0.38 0.5,0.8 0.73,1.34l32.02 88.8 0.23 0.58 0.23 -0.58 31.1 -88.8c0.16,-0.54 0.38,-0.96 0.69,-1.34 0.31,-0.38 0.73,-0.7 1.31,-0.88 0.53,-0.23 1.3,-0.43 2.26,-0.55 0.92,-0.11 2.15,-0.14 3.69,-0.14 1.18,0 2.18,0.03 2.99,0.11 0.8,0.08 1.42,0.23 1.88,0.46 0.43,0.19 0.77,0.5 0.96,0.85 0.2,0.3 0.27,0.76 0.27,1.26zm91.41 101.97c0,0.73 -0.23,1.31 -0.72,1.73 -0.5,0.42 -1.12,0.73 -1.92,0.92 -0.77,0.19 -1.84,0.27 -3.19,0.27 -1.27,0 -2.35,-0.08 -3.27,-0.27 -0.88,-0.19 -1.57,-0.5 -2.07,-0.92 -0.5,-0.42 -0.73,-1 -0.73,-1.73l0 -11.36c-4.56,4.95 -9.6,8.75 -15.12,11.44 -5.49,2.65 -11.22,3.99 -17.13,3.99 -5.33,0 -10.09,-0.69 -14.32,-2.07 -4.26,-1.42 -7.83,-3.38 -10.75,-5.99 -2.92,-2.57 -5.18,-5.72 -6.76,-9.41 -1.57,-3.68 -2.34,-7.83 -2.34,-12.4 0,-5.64 1.15,-10.56 3.5,-14.7 2.3,-4.19 5.6,-7.64 9.86,-10.45 4.3,-2.76 9.41,-4.84 15.4,-6.26 6.03,-1.38 12.67,-2.07 20.04,-2.07l16.16 0 0 -8.71c0,-4.34 -0.46,-8.18 -1.34,-11.48 -0.92,-3.31 -2.38,-6.11 -4.37,-8.33 -2.04,-2.23 -4.65,-3.92 -7.88,-5.03 -3.22,-1.12 -7.18,-1.69 -11.82,-1.69 -4.49,0 -8.53,0.53 -12.14,1.65 -3.56,1.08 -6.71,2.3 -9.44,3.65 -2.69,1.34 -4.91,2.57 -6.68,3.64 -1.76,1.12 -3,1.66 -3.76,1.66 -0.47,0 -0.85,-0.08 -1.23,-0.24 -0.38,-0.15 -0.69,-0.42 -0.96,-0.84 -0.26,-0.38 -0.46,-0.92 -0.58,-1.57 -0.11,-0.62 -0.15,-1.39 -0.15,-2.31 0,-1.53 0.12,-2.8 0.34,-3.73 0.24,-0.95 0.81,-1.88 1.73,-2.8 0.96,-0.95 2.62,-2.07 5,-3.33 2.41,-1.31 5.18,-2.5 8.29,-3.61 3.07,-1.08 6.45,-2 10.02,-2.65 3.6,-0.69 7.22,-1.04 10.79,-1.04 6.99,0 12.86,0.84 17.65,2.54 4.81,1.68 8.68,4.1 11.64,7.25 2.96,3.15 5.07,7.03 6.34,11.67 1.26,4.61 1.91,9.83 1.91,15.66l0 68.92zm-13.36 -48.22l-18.5 0c-5.38,0 -10.1,0.5 -14.13,1.46 -4.03,1 -7.41,2.41 -10.1,4.3 -2.69,1.84 -4.68,4.11 -5.99,6.76 -1.3,2.61 -1.96,5.6 -1.96,8.98 0,5.87 1.85,10.56 5.57,14.05 3.69,3.5 8.91,5.22 15.63,5.22 5.3,0 10.25,-1.38 14.86,-4.1 4.6,-2.73 9.48,-6.96 14.62,-12.67l0 -24zm188.82 -53.33c0,6.76 -1.15,12.94 -3.42,18.58 -2.29,5.65 -5.57,10.49 -9.82,14.51 -4.31,4.08 -9.49,7.23 -15.63,9.49 -6.14,2.26 -13.59,3.38 -22.27,3.38l-18.89 0 0 55.59c0,0.46 -0.11,0.85 -0.35,1.23 -0.22,0.39 -0.6,0.69 -1.11,0.92 -0.54,0.19 -1.23,0.39 -2.11,0.54 -0.88,0.15 -1.99,0.23 -3.34,0.23 -1.26,0 -2.38,-0.08 -3.3,-0.23 -0.88,-0.15 -1.61,-0.35 -2.15,-0.57 -0.5,-0.2 -0.89,-0.5 -1.12,-0.89 -0.22,-0.38 -0.34,-0.77 -0.34,-1.23l0 -136.25c0,-2.73 0.73,-4.57 2.15,-5.57 1.43,-1.04 2.81,-1.54 4.15,-1.54l29.6 0c2.92,0 5.8,0.12 8.56,0.39 2.76,0.27 6.03,0.84 9.75,1.69 3.69,0.88 7.49,2.49 11.36,4.83 3.85,2.38 7.15,5.27 9.83,8.68 2.69,3.42 4.81,7.33 6.26,11.75 1.46,4.38 2.19,9.21 2.19,14.47zm-14.51 1.16c0,-6.3 -1.23,-11.64 -3.72,-16.06 -2.47,-4.37 -5.5,-7.63 -9.03,-9.78 -3.57,-2.15 -7.3,-3.5 -11.13,-4.08 -3.88,-0.57 -7.53,-0.84 -10.94,-0.84l-20.7 0 0 63.35 19.78 0c6.37,0 11.71,-0.81 15.96,-2.42 4.27,-1.61 7.88,-3.84 10.79,-6.72 2.92,-2.84 5.15,-6.3 6.68,-10.29 1.54,-4.03 2.31,-8.41 2.31,-13.16zm111.45 100.39c0,0.73 -0.23,1.31 -0.72,1.73 -0.51,0.42 -1.12,0.73 -1.93,0.92 -0.76,0.19 -1.84,0.27 -3.18,0.27 -1.27,0 -2.35,-0.08 -3.26,-0.27 -0.89,-0.19 -1.58,-0.5 -2.08,-0.92 -0.5,-0.42 -0.73,-1 -0.73,-1.73l0 -11.36c-4.57,4.95 -9.59,8.75 -15.13,11.44 -5.49,2.65 -11.21,3.99 -17.12,3.99 -5.33,0 -10.1,-0.69 -14.32,-2.07 -4.26,-1.42 -7.83,-3.38 -10.75,-5.99 -2.92,-2.57 -5.18,-5.72 -6.76,-9.41 -1.57,-3.68 -2.34,-7.83 -2.34,-12.4 0,-5.64 1.16,-10.56 3.5,-14.7 2.3,-4.19 5.6,-7.64 9.87,-10.45 4.29,-2.76 9.4,-4.84 15.38,-6.26 6.03,-1.38 12.68,-2.07 20.05,-2.07l16.16 0 0 -8.71c0,-4.34 -0.46,-8.18 -1.34,-11.48 -0.92,-3.31 -2.38,-6.11 -4.38,-8.33 -2.03,-2.23 -4.64,-3.92 -7.87,-5.03 -3.23,-1.12 -7.18,-1.69 -11.83,-1.69 -4.49,0 -8.51,0.53 -12.13,1.65 -3.57,1.08 -6.72,2.3 -9.44,3.65 -2.69,1.34 -4.91,2.57 -6.68,3.64 -1.77,1.12 -3,1.66 -3.76,1.66 -0.46,0 -0.85,-0.08 -1.23,-0.24 -0.38,-0.15 -0.69,-0.42 -0.96,-0.84 -0.27,-0.38 -0.46,-0.92 -0.58,-1.57 -0.11,-0.62 -0.15,-1.39 -0.15,-2.31 0,-1.53 0.12,-2.8 0.34,-3.73 0.24,-0.95 0.81,-1.88 1.73,-2.8 0.96,-0.95 2.61,-2.07 4.99,-3.33 2.42,-1.31 5.19,-2.5 8.3,-3.61 3.07,-1.08 6.44,-2 10.02,-2.65 3.6,-0.69 7.21,-1.04 10.79,-1.04 6.98,0 12.86,0.84 17.65,2.54 4.8,1.68 8.68,4.1 11.64,7.25 2.95,3.15 5.07,7.03 6.34,11.67 1.26,4.61 1.91,9.83 1.91,15.66l0 68.92zm-13.36 -48.22l-18.5 0c-5.38,0 -10.1,0.5 -14.13,1.46 -4.04,1 -7.41,2.41 -10.1,4.3 -2.68,1.84 -4.68,4.11 -5.99,6.76 -1.3,2.61 -1.95,5.6 -1.95,8.98 0,5.87 1.84,10.56 5.56,14.05 3.68,3.5 8.9,5.22 15.63,5.22 5.3,0 10.25,-1.38 14.85,-4.1 4.61,-2.73 9.49,-6.96 14.63,-12.67l0 -24zm97.21 42c0,1.57 -0.11,2.88 -0.38,3.84 -0.27,1 -0.69,1.77 -1.27,2.34 -0.54,0.54 -1.38,1.08 -2.45,1.58 -1.08,0.46 -2.35,0.88 -3.77,1.23 -1.42,0.34 -2.96,0.61 -4.53,0.8 -1.57,0.19 -3.11,0.27 -4.6,0.27 -5.04,0 -9.3,-0.69 -12.83,-2.03 -3.54,-1.35 -6.41,-3.39 -8.68,-6.11 -2.22,-2.77 -3.87,-6.22 -4.87,-10.44 -1.04,-4.19 -1.54,-9.14 -1.54,-14.82l0 -63.35 -15.09 0c-1.03,0 -1.84,-0.46 -2.46,-1.38 -0.57,-0.96 -0.88,-2.34 -0.88,-4.22 0,-0.96 0.08,-1.81 0.23,-2.5 0.16,-0.69 0.39,-1.3 0.65,-1.8 0.31,-0.46 0.66,-0.81 1.08,-1.04 0.42,-0.23 0.88,-0.34 1.38,-0.34l15.09 0 0 -24.96c0,-0.47 0.08,-0.85 0.27,-1.23 0.19,-0.39 0.54,-0.69 1.08,-0.96 0.53,-0.27 1.23,-0.46 2.07,-0.58 0.88,-0.12 1.92,-0.15 3.22,-0.15 1.35,0 2.42,0.03 3.3,0.15 0.85,0.12 1.54,0.31 2,0.58 0.5,0.27 0.84,0.57 1.08,0.96 0.22,0.38 0.35,0.76 0.35,1.23l0 24.96 28.17 0c0.54,0 1,0.11 1.42,0.34 0.39,0.23 0.77,0.58 1.08,1.04 0.27,0.5 0.5,1.11 0.65,1.8 0.15,0.69 0.23,1.54 0.23,2.5 0,1.88 -0.31,3.26 -0.96,4.22 -0.65,0.92 -1.46,1.38 -2.42,1.38l-28.17 0 0 61.51c0,7.71 1.11,13.59 3.33,17.65 2.19,4.04 6.26,6.07 12.1,6.07 1.8,0 3.45,-0.19 4.91,-0.57 1.46,-0.35 2.76,-0.77 3.88,-1.23 1.15,-0.46 2.08,-0.84 2.88,-1.23 0.81,-0.38 1.5,-0.57 2.07,-0.57 0.39,0 0.73,0.07 1.04,0.23 0.3,0.15 0.54,0.42 0.73,0.84 0.19,0.42 0.34,0.96 0.46,1.57 0.11,0.66 0.15,1.46 0.15,2.42zm107.54 -50.03c0,2.74 -0.72,4.58 -2.15,5.57 -1.42,1.04 -2.81,1.54 -4.15,1.54l-69.25 0c0,6.29 0.61,11.98 1.84,17.08 1.23,5.11 3.3,9.45 6.14,13.09 2.84,3.66 6.53,6.42 11.09,8.38 4.58,1.95 10.18,2.91 16.86,2.91 4.72,0 8.94,-0.42 12.67,-1.26 3.76,-0.81 6.99,-1.73 9.71,-2.77 2.77,-1.03 5,-1.96 6.76,-2.76 1.77,-0.84 2.99,-1.27 3.76,-1.27 0.46,0 0.84,0.11 1.23,0.35 0.38,0.23 0.69,0.57 0.88,1.03 0.23,0.5 0.42,1.12 0.54,1.88 0.11,0.74 0.15,1.66 0.15,2.77 0,0.54 -0.04,1.03 -0.11,1.53 -0.08,0.46 -0.16,0.92 -0.27,1.35 -0.12,0.38 -0.31,0.8 -0.5,1.15 -0.23,0.38 -0.54,0.76 -0.92,1.11 -0.38,0.38 -1.53,1.04 -3.49,2 -1.92,0.96 -4.49,1.92 -7.65,2.88 -3.14,0.96 -6.79,1.84 -10.93,2.61 -4.19,0.77 -8.68,1.15 -13.48,1.15 -7.87,0 -14.82,-1.19 -20.89,-3.53 -6.1,-2.38 -11.21,-5.88 -15.32,-10.48 -4.11,-4.61 -7.25,-10.33 -9.4,-17.12 -2.12,-6.84 -3.19,-14.75 -3.19,-23.77 0,-8.6 1.12,-16.32 3.3,-23.15 2.23,-6.84 5.38,-12.63 9.53,-17.39 4.1,-4.77 9.09,-8.37 14.89,-10.91 5.8,-2.49 12.29,-3.76 19.39,-3.76 7.64,0 14.16,1.27 19.58,3.84 5.37,2.53 9.83,5.95 13.32,10.29 3.5,4.3 6.03,9.29 7.64,15.01 1.62,5.68 2.42,11.68 2.42,17.97l0 2.68zm-13.82 -3.95c0.23,-10.79 -2.27,-19.2 -7.41,-25.22 -5.14,-6.07 -12.67,-9.1 -22.58,-9.1 -5.06,0 -9.56,0.96 -13.4,2.84 -3.83,1.92 -7.09,4.45 -9.75,7.6 -2.65,3.11 -4.72,6.76 -6.14,10.94 -1.42,4.15 -2.22,8.45 -2.45,12.94l61.73 0zm58.09 60.2c0,0.46 -0.12,0.85 -0.35,1.23 -0.23,0.39 -0.57,0.69 -1.07,0.89 -0.46,0.22 -1.15,0.42 -2,0.57 -0.88,0.15 -1.95,0.23 -3.3,0.23 -1.31,0 -2.34,-0.08 -3.22,-0.23 -0.85,-0.15 -1.54,-0.35 -2.08,-0.57 -0.54,-0.2 -0.88,-0.5 -1.07,-0.89 -0.2,-0.38 -0.27,-0.77 -0.27,-1.23l0 -151.72c0,-0.46 0.07,-0.85 0.27,-1.23 0.19,-0.39 0.53,-0.69 1.07,-0.96 0.54,-0.27 1.23,-0.46 2.08,-0.58 0.88,-0.11 1.91,-0.16 3.22,-0.16 1.35,0 2.42,0.05 3.3,0.16 0.85,0.12 1.54,0.31 2,0.58 0.5,0.27 0.84,0.57 1.07,0.96 0.23,0.38 0.35,0.77 0.35,1.23l0 151.72zm84.47 -34.94c0,-4.03 0.53,-7.95 1.57,-11.71 1.03,-3.72 2.76,-7.37 5.18,-10.94 2.38,-3.57 5.57,-7.02 9.56,-10.44 3.95,-3.42 8.83,-6.87 14.59,-10.4 -3.15,-4.35 -5.83,-8.26 -8.02,-11.67 -2.23,-3.46 -4.04,-6.65 -5.42,-9.57 -1.38,-2.91 -2.38,-5.72 -2.99,-8.33 -0.58,-2.61 -0.88,-5.3 -0.88,-7.98 0,-4.34 0.72,-8.53 2.14,-12.59 1.42,-4.04 3.73,-7.65 6.92,-10.79 3.18,-3.15 7.37,-5.69 12.51,-7.57 5.15,-1.92 11.36,-2.88 18.74,-2.88 5.87,0 10.98,0.73 15.36,2.15 4.41,1.42 8.06,3.38 10.97,5.95 2.96,2.54 5.15,5.61 6.65,9.14 1.5,3.57 2.26,7.49 2.26,11.75 0,4.37 -0.69,8.33 -2.07,11.98 -1.39,3.64 -3.65,7.18 -6.8,10.63 -3.15,3.45 -7.26,6.92 -12.32,10.44 -5.07,3.54 -11.25,7.3 -18.62,11.37 2.76,3.42 5.8,7.02 9.09,10.79 3.31,3.72 6.76,7.48 10.37,11.28 3.58,3.81 7.26,7.53 10.98,11.25 3.76,3.69 7.53,7.26 11.25,10.6 1.81,-2.3 3.38,-4.95 4.8,-7.87 1.43,-2.92 2.65,-6.03 3.69,-9.29 1.04,-3.27 1.84,-6.61 2.38,-10.06 0.58,-3.45 0.84,-6.94 0.84,-10.48l0 -4.38c0,-0.69 0.08,-1.23 0.27,-1.69 0.19,-0.46 0.5,-0.84 0.96,-1.11 0.46,-0.3 1.11,-0.53 1.96,-0.65 0.88,-0.12 1.99,-0.15 3.34,-0.15 1.12,0 2.11,0 2.96,0.03 0.88,0.04 1.57,0.2 2.15,0.43 0.53,0.23 0.96,0.57 1.26,1.11 0.31,0.53 0.46,1.26 0.46,2.26l0 2.23c0,4.53 -0.38,8.91 -1.19,13.24 -0.76,4.31 -1.84,8.49 -3.22,12.56 -1.39,4.03 -3.07,7.9 -5.07,11.59 -2,3.65 -4.26,7.07 -6.68,10.22 3.8,3.07 7.1,5.64 9.94,7.67 2.81,2.04 5.22,3.73 7.22,5 2.04,1.26 3.69,2.15 4.95,2.68 1.27,0.5 2.34,0.77 3.16,0.77 0.76,0 1.45,-0.04 2.07,-0.11 0.65,-0.08 1.19,0 1.57,0.15 0.42,0.19 0.73,0.61 0.96,1.26 0.23,0.66 0.34,1.69 0.34,3.12 0,1.42 0,2.61 -0.03,3.49 -0.04,0.92 -0.16,1.58 -0.31,2.04 -0.15,0.46 -0.42,0.84 -0.77,1.15 -0.38,0.27 -1.07,0.54 -2.07,0.77 -1.04,0.23 -2.5,0.34 -4.46,0.34 -1.42,0 -3.03,-0.27 -4.83,-0.84 -1.81,-0.58 -3.92,-1.54 -6.37,-3 -2.43,-1.42 -5.3,-3.3 -8.57,-5.72 -3.26,-2.38 -7.06,-5.45 -11.4,-9.21 -2.99,2.69 -6.18,5.18 -9.52,7.48 -3.3,2.27 -6.91,4.26 -10.72,5.95 -3.83,1.69 -7.9,3 -12.2,3.92 -4.34,0.96 -8.98,1.42 -14.02,1.42 -4.64,0 -8.98,-0.42 -12.97,-1.23 -4.03,-0.84 -7.72,-2.03 -11.06,-3.6 -3.3,-1.58 -6.3,-3.5 -8.86,-5.81 -2.58,-2.26 -4.77,-4.83 -6.54,-7.67 -1.76,-2.85 -3.1,-5.99 -4.02,-9.45 -0.96,-3.45 -1.42,-7.14 -1.42,-11.02zm27.87 -82.46c0,2.26 0.3,4.53 0.88,6.83 0.61,2.34 1.53,4.76 2.76,7.34 1.23,2.53 2.8,5.25 4.69,8.21 1.84,3 4.07,6.26 6.6,9.83 6.07,-3.42 11.13,-6.56 15.24,-9.41 4.11,-2.84 7.41,-5.64 9.95,-8.33 2.49,-2.68 4.29,-5.37 5.41,-8.02 1.12,-2.65 1.69,-5.53 1.69,-8.57 0,-2.42 -0.42,-4.72 -1.3,-6.9 -0.85,-2.23 -2.24,-4.19 -4.08,-5.92 -1.88,-1.73 -4.26,-3.11 -7.17,-4.15 -2.92,-1.03 -6.46,-1.57 -10.56,-1.57 -4.42,0 -8.14,0.58 -11.18,1.73 -2.99,1.19 -5.48,2.73 -7.45,4.68 -1.91,1.92 -3.33,4.15 -4.18,6.61 -0.88,2.49 -1.3,5.02 -1.3,7.64zm-13.36 80.28c0,4.29 0.69,8.18 2.07,11.71 1.38,3.49 3.45,6.56 6.18,9.13 2.73,2.58 6.14,4.57 10.21,5.99 4.07,1.42 8.79,2.15 14.09,2.15 3.61,0 7.03,-0.38 10.3,-1.11 3.26,-0.77 6.37,-1.77 9.36,-3.07 2.99,-1.31 5.8,-2.88 8.41,-4.65 2.65,-1.81 5.06,-3.72 7.33,-5.83 -4.22,-3.65 -8.36,-7.49 -12.44,-11.41 -4.11,-3.91 -8.06,-7.91 -11.86,-11.9 -3.84,-4.03 -7.52,-8.02 -11.06,-11.98 -3.53,-3.99 -6.76,-7.86 -9.79,-11.71 -4.38,2.81 -8.02,5.5 -10.94,8.14 -2.92,2.69 -5.26,5.34 -6.99,8.07 -1.77,2.68 -2.99,5.37 -3.76,8.06 -0.73,2.68 -1.11,5.49 -1.11,8.41z"/>
   <path class="fil1 str0" d="M2017.58 2306.87c0.46,1.15 0.69,2.08 0.65,2.77 -0.04,0.73 -0.31,1.26 -0.81,1.65 -0.46,0.34 -1.22,0.61 -2.22,0.73 -1.01,0.11 -2.31,0.15 -3.84,0.15 -1.58,0 -2.85,-0.04 -3.77,-0.15 -0.92,-0.12 -1.65,-0.31 -2.18,-0.54 -0.5,-0.19 -0.89,-0.5 -1.16,-0.88 -0.26,-0.39 -0.49,-0.81 -0.72,-1.35l-13.98 -38.78 -63.81 0 -13.43 38.55c-0.16,0.54 -0.39,0.96 -0.7,1.35 -0.27,0.38 -0.69,0.69 -1.23,0.96 -0.5,0.26 -1.23,0.46 -2.19,0.61 -0.92,0.15 -2.11,0.23 -3.53,0.23 -1.57,0 -2.87,-0.08 -3.95,-0.23 -1.04,-0.15 -1.8,-0.42 -2.31,-0.77 -0.5,-0.38 -0.73,-0.92 -0.76,-1.57 -0.04,-0.69 0.15,-1.58 0.61,-2.73l50.88 -138.52c0.22,-0.62 0.57,-1.12 0.99,-1.5 0.46,-0.42 1.03,-0.76 1.77,-0.96 0.69,-0.23 1.57,-0.42 2.57,-0.54 1,-0.11 2.15,-0.15 3.45,-0.15 1.35,0 2.5,0.04 3.53,0.15 1.01,0.12 1.88,0.31 2.58,0.54 0.73,0.2 1.26,0.54 1.69,0.96 0.42,0.38 0.73,0.88 0.96,1.5l50.91 138.52zm-60.36 -126.23l-0.11 0 -27.34 78.32 55.63 0 -28.18 -78.32zm144.32 101.43c0,4.88 -0.88,9.21 -2.69,13.09 -1.8,3.84 -4.37,7.14 -7.71,9.83 -3.34,2.73 -7.34,4.76 -11.98,6.18 -4.68,1.42 -9.79,2.15 -15.43,2.15 -3.54,0 -6.88,-0.27 -10.02,-0.84 -3.16,-0.58 -6,-1.27 -8.57,-2.15 -2.53,-0.85 -4.68,-1.77 -6.45,-2.73 -1.76,-0.99 -3.07,-1.84 -3.88,-2.61 -0.84,-0.73 -1.45,-1.69 -1.8,-2.81 -0.38,-1.11 -0.58,-2.6 -0.58,-4.48 0,-0.96 0.08,-1.81 0.23,-2.58 0.16,-0.73 0.35,-1.37 0.58,-1.88 0.19,-0.54 0.5,-0.92 0.88,-1.19 0.39,-0.27 0.81,-0.38 1.23,-0.38 0.85,0 2.04,0.53 3.61,1.57 1.58,1.04 3.57,2.15 5.91,3.38 2.38,1.23 5.19,2.34 8.45,3.38 3.26,1.03 7.03,1.57 11.33,1.57 3.45,0 6.6,-0.38 9.44,-1.11 2.88,-0.77 5.34,-1.88 7.45,-3.38 2.11,-1.5 3.72,-3.41 4.91,-5.76 1.15,-2.38 1.73,-5.1 1.73,-8.25 0,-3.15 -0.76,-5.8 -2.26,-7.99 -1.5,-2.19 -3.46,-4.07 -5.88,-5.68 -2.45,-1.62 -5.22,-3.04 -8.33,-4.26 -3.11,-1.27 -6.29,-2.54 -9.56,-3.84 -3.26,-1.3 -6.45,-2.76 -9.56,-4.34 -3.11,-1.57 -5.88,-3.5 -8.33,-5.72 -2.42,-2.26 -4.37,-4.95 -5.88,-8.1 -1.49,-3.15 -2.26,-6.95 -2.26,-11.36 0,-3.54 0.7,-6.99 2.03,-10.41 1.34,-3.41 3.42,-6.45 6.22,-9.17 2.81,-2.69 6.41,-4.88 10.8,-6.53 4.37,-1.65 9.56,-2.46 15.58,-2.46 2.53,0 5.07,0.19 7.57,0.62 2.53,0.42 4.79,0.96 6.87,1.61 2.07,0.69 3.83,1.42 5.33,2.19 1.5,0.77 2.65,1.46 3.42,2.07 0.81,0.58 1.31,1.07 1.57,1.5 0.27,0.42 0.46,0.84 0.58,1.3 0.11,0.46 0.19,1 0.27,1.65 0.07,0.61 0.11,1.38 0.11,2.3 0,0.93 -0.04,1.74 -0.15,2.43 -0.12,0.73 -0.31,1.34 -0.54,1.88 -0.19,0.53 -0.5,0.92 -0.84,1.19 -0.31,0.27 -0.73,0.38 -1.15,0.38 -0.62,0 -1.5,-0.42 -2.73,-1.23 -1.19,-0.8 -2.77,-1.72 -4.72,-2.68 -1.92,-0.96 -4.26,-1.89 -6.95,-2.69 -2.69,-0.81 -5.8,-1.24 -9.33,-1.24 -3.53,0 -6.64,0.43 -9.29,1.24 -2.65,0.84 -4.84,2 -6.56,3.49 -1.73,1.5 -3.04,3.26 -3.89,5.26 -0.88,2.03 -1.3,4.22 -1.3,6.64 0,3.27 0.77,6.07 2.26,8.29 1.5,2.27 3.46,4.23 5.96,5.88 2.45,1.65 5.29,3.11 8.44,4.38 3.15,1.26 6.34,2.53 9.6,3.79 3.27,1.31 6.45,2.7 9.6,4.23 3.14,1.54 5.99,3.42 8.45,5.57 2.49,2.18 4.45,4.79 5.95,7.83 1.49,3.03 2.26,6.68 2.26,10.98zm89.07 0c0,4.88 -0.88,9.21 -2.69,13.09 -1.8,3.84 -4.37,7.14 -7.71,9.83 -3.34,2.73 -7.33,4.76 -11.98,6.18 -4.69,1.42 -9.79,2.15 -15.43,2.15 -3.54,0 -6.88,-0.27 -10.02,-0.84 -3.16,-0.58 -5.99,-1.27 -8.57,-2.15 -2.53,-0.85 -4.68,-1.77 -6.44,-2.73 -1.77,-0.99 -3.08,-1.84 -3.88,-2.61 -0.85,-0.73 -1.46,-1.69 -1.81,-2.81 -0.38,-1.11 -0.57,-2.6 -0.57,-4.48 0,-0.96 0.07,-1.81 0.23,-2.58 0.15,-0.73 0.34,-1.37 0.57,-1.88 0.19,-0.54 0.5,-0.92 0.88,-1.19 0.39,-0.27 0.81,-0.38 1.23,-0.38 0.85,0 2.03,0.53 3.61,1.57 1.58,1.04 3.57,2.15 5.91,3.38 2.39,1.23 5.19,2.34 8.45,3.38 3.27,1.03 7.03,1.57 11.33,1.57 3.45,0 6.6,-0.38 9.44,-1.11 2.88,-0.77 5.34,-1.88 7.45,-3.38 2.11,-1.5 3.72,-3.41 4.91,-5.76 1.16,-2.38 1.73,-5.1 1.73,-8.25 0,-3.15 -0.77,-5.8 -2.27,-7.99 -1.49,-2.19 -3.45,-4.07 -5.87,-5.68 -2.45,-1.62 -5.22,-3.04 -8.33,-4.26 -3.11,-1.27 -6.29,-2.54 -9.56,-3.84 -3.26,-1.3 -6.45,-2.76 -9.56,-4.34 -3.11,-1.57 -5.87,-3.5 -8.33,-5.72 -2.42,-2.26 -4.37,-4.95 -5.88,-8.1 -1.49,-3.15 -2.26,-6.95 -2.26,-11.36 0,-3.54 0.69,-6.99 2.04,-10.41 1.34,-3.41 3.42,-6.45 6.22,-9.17 2.8,-2.69 6.41,-4.88 10.79,-6.53 4.37,-1.65 9.56,-2.46 15.58,-2.46 2.54,0 5.07,0.19 7.57,0.62 2.53,0.42 4.79,0.96 6.87,1.61 2.07,0.69 3.84,1.42 5.34,2.19 1.49,0.77 2.64,1.46 3.41,2.07 0.81,0.58 1.31,1.07 1.58,1.5 0.26,0.42 0.46,0.84 0.57,1.3 0.12,0.46 0.19,1 0.27,1.65 0.08,0.61 0.11,1.38 0.11,2.3 0,0.93 -0.03,1.74 -0.15,2.43 -0.11,0.73 -0.31,1.34 -0.54,1.88 -0.19,0.53 -0.49,0.92 -0.84,1.19 -0.31,0.27 -0.73,0.38 -1.15,0.38 -0.62,0 -1.5,-0.42 -2.72,-1.23 -1.2,-0.8 -2.77,-1.72 -4.73,-2.68 -1.92,-0.96 -4.26,-1.89 -6.95,-2.69 -2.69,-0.81 -5.8,-1.24 -9.33,-1.24 -3.53,0 -6.64,0.43 -9.29,1.24 -2.65,0.84 -4.84,2 -6.56,3.49 -1.73,1.5 -3.04,3.26 -3.88,5.26 -0.89,2.03 -1.31,4.22 -1.31,6.64 0,3.27 0.77,6.07 2.27,8.29 1.5,2.27 3.45,4.23 5.95,5.88 2.45,1.65 5.29,3.11 8.45,4.38 3.14,1.26 6.33,2.53 9.59,3.79 3.27,1.31 6.45,2.7 9.6,4.23 3.15,1.54 5.99,3.42 8.45,5.57 2.49,2.18 4.45,4.79 5.95,7.83 1.49,3.03 2.26,6.68 2.26,10.98zm119.25 -24.88c0,8.1 -1.03,15.55 -3.15,22.38 -2.11,6.84 -5.22,12.75 -9.4,17.78 -4.15,5.03 -9.37,8.94 -15.59,11.75 -6.22,2.8 -13.43,4.22 -21.69,4.22 -7.95,0 -14.94,-1.26 -20.89,-3.76 -5.95,-2.53 -10.94,-6.11 -14.97,-10.79 -3.99,-4.68 -7.02,-10.37 -8.98,-17.04 -2,-6.69 -3,-14.21 -3,-22.62 0,-8.1 1.04,-15.55 3.11,-22.38 2.04,-6.83 5.15,-12.75 9.33,-17.7 4.15,-5 9.37,-8.87 15.59,-11.67 6.22,-2.76 13.48,-4.15 21.8,-4.15 7.95,0 14.94,1.23 20.89,3.73 5.95,2.45 10.94,6.02 14.9,10.7 3.99,4.69 6.99,10.37 9.02,17.05 2.04,6.68 3.03,14.17 3.03,22.5zm-14.28 1.23c0,-5.76 -0.58,-11.25 -1.69,-16.51 -1.11,-5.22 -2.99,-9.86 -5.61,-13.86 -2.61,-4.03 -6.14,-7.18 -10.56,-9.56 -4.41,-2.34 -9.89,-3.53 -16.46,-3.53 -6.07,0 -11.29,1.07 -15.71,3.26 -4.41,2.15 -8.02,5.19 -10.82,9.02 -2.8,3.88 -4.88,8.41 -6.22,13.67 -1.35,5.23 -2.04,10.9 -2.04,16.97 0,5.84 0.58,11.41 1.69,16.66 1.12,5.3 3,9.91 5.61,13.9 2.61,3.96 6.14,7.11 10.56,9.41 4.41,2.34 9.9,3.49 16.47,3.49 6.06,0 11.28,-1.07 15.7,-3.26 4.41,-2.15 8.02,-5.14 10.82,-8.99 2.8,-3.79 4.88,-8.32 6.23,-13.59 1.34,-5.25 2.03,-10.94 2.03,-17.08zm115.3 35.55c0,0.88 -0.04,1.69 -0.12,2.42 -0.08,0.73 -0.19,1.34 -0.34,1.84 -0.16,0.54 -0.35,1 -0.62,1.42 -0.27,0.43 -0.88,1.12 -1.84,2.11 -0.97,0.96 -2.62,2.23 -4.88,3.73 -2.3,1.54 -4.87,2.84 -7.72,3.99 -2.83,1.12 -5.91,2.04 -9.21,2.77 -3.3,0.73 -6.72,1.07 -10.22,1.07 -7.06,0 -13.28,-1.19 -18.73,-3.53 -5.41,-2.38 -9.98,-5.88 -13.63,-10.48 -3.68,-4.61 -6.49,-10.26 -8.37,-16.97 -1.92,-6.72 -2.88,-14.48 -2.88,-23.23 0,-9.9 1.19,-18.35 3.54,-25.41 2.37,-7.07 5.6,-12.83 9.71,-17.32 4.14,-4.49 8.95,-7.83 14.47,-9.98 5.49,-2.11 11.41,-3.19 17.7,-3.19 3.34,0 6.57,0.3 9.64,0.96 3.07,0.62 5.91,1.46 8.49,2.54 2.6,1.03 4.91,2.22 6.9,3.57 2.04,1.34 3.49,2.49 4.46,3.41 0.92,0.96 1.57,1.65 1.92,2.15 0.31,0.5 0.57,1.04 0.77,1.66 0.19,0.57 0.3,1.22 0.38,1.95 0.08,0.73 0.12,1.58 0.12,2.54 0,2.18 -0.31,3.72 -0.96,4.56 -0.62,0.88 -1.31,1.31 -2.08,1.31 -1.04,0 -2.3,-0.69 -3.84,-2.04 -1.54,-1.34 -3.49,-2.8 -5.91,-4.41 -2.38,-1.61 -5.3,-3.07 -8.68,-4.42 -3.41,-1.34 -7.45,-2.03 -12.17,-2.03 -9.71,0 -17.23,3.76 -22.5,11.25 -5.26,7.49 -7.91,18.28 -7.91,32.44 0,7.11 0.73,13.36 2.16,18.69 1.41,5.38 3.45,9.84 6.1,13.37 2.65,3.57 5.87,6.22 9.67,7.98 3.84,1.77 8.14,2.65 12.9,2.65 4.5,0 8.49,-0.73 11.9,-2.15 3.46,-1.42 6.46,-3.03 8.99,-4.76 2.53,-1.73 4.64,-3.34 6.34,-4.76 1.68,-1.42 2.91,-2.15 3.76,-2.15 0.46,0 0.84,0.12 1.19,0.39 0.31,0.26 0.61,0.68 0.84,1.26 0.2,0.54 0.39,1.23 0.5,2.03 0.12,0.77 0.16,1.69 0.16,2.77zm40.38 15.28c0,0.46 -0.11,0.85 -0.34,1.23 -0.23,0.39 -0.58,0.69 -1.08,0.92 -0.46,0.19 -1.15,0.39 -1.99,0.54 -0.88,0.15 -1.96,0.23 -3.3,0.23 -1.31,0 -2.34,-0.08 -3.23,-0.23 -0.85,-0.15 -1.54,-0.35 -2.07,-0.54 -0.54,-0.23 -0.89,-0.53 -1.08,-0.92 -0.19,-0.38 -0.27,-0.77 -0.27,-1.23l0 -101.74c0,-0.46 0.08,-0.84 0.27,-1.23 0.19,-0.38 0.54,-0.69 1.08,-0.95 0.53,-0.27 1.22,-0.47 2.07,-0.59 0.89,-0.11 1.92,-0.14 3.23,-0.14 1.34,0 2.42,0.03 3.3,0.14 0.84,0.12 1.53,0.32 1.99,0.59 0.5,0.26 0.85,0.57 1.08,0.95 0.23,0.39 0.34,0.77 0.34,1.23l0 101.74zm2.08 -136.06c0,3.64 -0.66,6.1 -1.92,7.37 -1.27,1.27 -3.57,1.92 -6.95,1.92 -3.3,0 -5.57,-0.61 -6.8,-1.88 -1.23,-1.23 -1.84,-3.65 -1.84,-7.3 0,-3.6 0.65,-6.07 1.92,-7.33 1.27,-1.27 3.57,-1.92 6.95,-1.92 3.3,0 5.56,0.61 6.79,1.88 1.23,1.23 1.85,3.65 1.85,7.26zm106.58 136.06c0,0.73 -0.23,1.31 -0.73,1.73 -0.51,0.42 -1.12,0.73 -1.93,0.92 -0.76,0.19 -1.84,0.27 -3.18,0.27 -1.27,0 -2.34,-0.08 -3.26,-0.27 -0.89,-0.19 -1.58,-0.5 -2.08,-0.92 -0.49,-0.42 -0.72,-1 -0.72,-1.73l0 -11.36c-4.58,4.95 -9.6,8.75 -15.13,11.44 -5.49,2.65 -11.21,3.99 -17.13,3.99 -5.33,0 -10.1,-0.69 -14.32,-2.07 -4.26,-1.42 -7.83,-3.38 -10.75,-5.99 -2.91,-2.57 -5.18,-5.72 -6.75,-9.41 -1.58,-3.68 -2.35,-7.83 -2.35,-12.4 0,-5.64 1.16,-10.56 3.5,-14.7 2.3,-4.19 5.6,-7.64 9.87,-10.45 4.29,-2.76 9.4,-4.84 15.39,-6.26 6.03,-1.38 12.67,-2.07 20.04,-2.07l16.17 0 0 -8.71c0,-4.34 -0.46,-8.18 -1.35,-11.48 -0.92,-3.31 -2.38,-6.11 -4.38,-8.33 -2.03,-2.23 -4.64,-3.92 -7.86,-5.03 -3.23,-1.12 -7.19,-1.69 -11.83,-1.69 -4.49,0 -8.52,0.53 -12.13,1.65 -3.58,1.08 -6.72,2.3 -9.45,3.65 -2.68,1.34 -4.91,2.57 -6.68,3.64 -1.76,1.12 -2.99,1.66 -3.76,1.66 -0.46,0 -0.85,-0.08 -1.23,-0.24 -0.38,-0.15 -0.69,-0.42 -0.96,-0.84 -0.27,-0.38 -0.46,-0.92 -0.57,-1.57 -0.12,-0.62 -0.16,-1.39 -0.16,-2.31 0,-1.53 0.12,-2.8 0.35,-3.73 0.23,-0.95 0.8,-1.88 1.72,-2.8 0.96,-0.95 2.61,-2.07 4.99,-3.33 2.43,-1.31 5.19,-2.5 8.3,-3.61 3.07,-1.08 6.44,-2 10.02,-2.65 3.61,-0.69 7.21,-1.04 10.79,-1.04 6.98,0 12.86,0.84 17.66,2.54 4.79,1.68 8.68,4.1 11.63,7.25 2.96,3.15 5.07,7.03 6.33,11.67 1.28,4.61 1.93,9.83 1.93,15.66l0 68.92zm-13.36 -48.22l-18.51 0c-5.37,0 -10.1,0.5 -14.13,1.46 -4.03,1 -7.41,2.41 -10.1,4.3 -2.68,1.84 -4.68,4.11 -5.98,6.76 -1.31,2.61 -1.96,5.6 -1.96,8.98 0,5.87 1.84,10.56 5.56,14.05 3.68,3.5 8.91,5.22 15.63,5.22 5.3,0 10.25,-1.38 14.86,-4.1 4.6,-2.73 9.48,-6.96 14.63,-12.67l0 -24zm97.2 42c0,1.57 -0.11,2.88 -0.38,3.84 -0.27,1 -0.69,1.77 -1.27,2.34 -0.53,0.54 -1.38,1.08 -2.45,1.58 -1.08,0.46 -2.35,0.88 -3.76,1.23 -1.43,0.34 -2.96,0.61 -4.54,0.8 -1.57,0.19 -3.11,0.27 -4.6,0.27 -5.04,0 -9.3,-0.69 -12.83,-2.03 -3.53,-1.35 -6.41,-3.39 -8.68,-6.11 -2.22,-2.77 -3.87,-6.22 -4.87,-10.44 -1.03,-4.19 -1.53,-9.14 -1.53,-14.82l0 -63.35 -15.1 0c-1.03,0 -1.84,-0.46 -2.45,-1.38 -0.58,-0.96 -0.89,-2.34 -0.89,-4.22 0,-0.96 0.08,-1.81 0.24,-2.5 0.15,-0.69 0.38,-1.3 0.65,-1.8 0.3,-0.46 0.65,-0.81 1.07,-1.04 0.43,-0.23 0.89,-0.34 1.38,-0.34l15.1 0 0 -24.96c0,-0.47 0.07,-0.85 0.26,-1.23 0.2,-0.39 0.54,-0.69 1.08,-0.96 0.53,-0.27 1.23,-0.46 2.07,-0.58 0.88,-0.12 1.92,-0.15 3.23,-0.15 1.34,0 2.41,0.03 3.3,0.15 0.84,0.12 1.54,0.31 2,0.58 0.5,0.27 0.84,0.57 1.07,0.96 0.23,0.38 0.35,0.76 0.35,1.23l0 24.96 28.18 0c0.53,0 0.99,0.11 1.42,0.34 0.38,0.23 0.76,0.58 1.07,1.04 0.27,0.5 0.5,1.11 0.65,1.8 0.16,0.69 0.23,1.54 0.23,2.5 0,1.88 -0.31,3.26 -0.96,4.22 -0.65,0.92 -1.45,1.38 -2.41,1.38l-28.18 0 0 61.51c0,7.71 1.11,13.59 3.34,17.65 2.18,4.04 6.26,6.07 12.09,6.07 1.8,0 3.45,-0.19 4.91,-0.57 1.46,-0.35 2.77,-0.77 3.88,-1.23 1.15,-0.46 2.08,-0.84 2.88,-1.23 0.81,-0.38 1.5,-0.57 2.07,-0.57 0.39,0 0.73,0.07 1.04,0.23 0.31,0.15 0.54,0.42 0.73,0.84 0.19,0.42 0.34,0.96 0.46,1.57 0.11,0.66 0.15,1.46 0.15,2.42zm107.55 -50.03c0,2.74 -0.73,4.58 -2.15,5.57 -1.43,1.04 -2.81,1.54 -4.15,1.54l-69.26 0c0,6.29 0.61,11.98 1.84,17.08 1.23,5.11 3.3,9.45 6.14,13.09 2.84,3.66 6.53,6.42 11.09,8.38 4.57,1.95 10.18,2.91 16.86,2.91 4.73,0 8.95,-0.42 12.67,-1.26 3.77,-0.81 6.99,-1.73 9.71,-2.77 2.77,-1.03 5,-1.96 6.76,-2.76 1.77,-0.84 2.99,-1.27 3.76,-1.27 0.46,0 0.85,0.11 1.23,0.35 0.39,0.23 0.69,0.57 0.88,1.03 0.24,0.5 0.43,1.12 0.54,1.88 0.12,0.74 0.16,1.66 0.16,2.77 0,0.54 -0.04,1.03 -0.12,1.53 -0.08,0.46 -0.15,0.92 -0.27,1.35 -0.11,0.38 -0.31,0.8 -0.5,1.15 -0.23,0.38 -0.54,0.76 -0.92,1.11 -0.38,0.38 -1.53,1.04 -3.49,2 -1.92,0.96 -4.5,1.92 -7.64,2.88 -3.15,0.96 -6.8,1.84 -10.94,2.61 -4.19,0.77 -8.68,1.15 -13.48,1.15 -7.87,0 -14.82,-1.19 -20.88,-3.53 -6.11,-2.38 -11.21,-5.88 -15.33,-10.48 -4.1,-4.61 -7.25,-10.33 -9.4,-17.12 -2.11,-6.84 -3.19,-14.75 -3.19,-23.77 0,-8.6 1.12,-16.32 3.31,-23.15 2.22,-6.84 5.37,-12.63 9.52,-17.39 4.11,-4.77 9.09,-8.37 14.89,-10.91 5.8,-2.49 12.29,-3.76 19.39,-3.76 7.64,0 14.17,1.27 19.58,3.84 5.38,2.53 9.83,5.95 13.33,10.29 3.49,4.3 6.02,9.29 7.64,15.01 1.61,5.68 2.42,11.68 2.42,17.97l0 2.68zm-13.83 -3.95c0.23,-10.79 -2.26,-19.2 -7.41,-25.22 -5.14,-6.07 -12.67,-9.1 -22.57,-9.1 -5.07,0 -9.56,0.96 -13.4,2.84 -3.84,1.92 -7.1,4.45 -9.75,7.6 -2.66,3.11 -4.73,6.76 -6.15,10.94 -1.42,4.15 -2.22,8.45 -2.45,12.94l61.73 0zm104.62 33.02c0,4.88 -0.88,9.21 -2.68,13.09 -1.81,3.84 -4.38,7.14 -7.72,9.83 -3.34,2.73 -7.34,4.76 -11.98,6.18 -4.68,1.42 -9.79,2.15 -15.43,2.15 -3.54,0 -6.88,-0.27 -10.02,-0.84 -3.15,-0.58 -5.99,-1.27 -8.56,-2.15 -2.54,-0.85 -4.69,-1.77 -6.46,-2.73 -1.76,-0.99 -3.07,-1.84 -3.88,-2.61 -0.84,-0.73 -1.45,-1.69 -1.8,-2.81 -0.38,-1.11 -0.58,-2.6 -0.58,-4.48 0,-0.96 0.08,-1.81 0.23,-2.58 0.16,-0.73 0.35,-1.37 0.58,-1.88 0.2,-0.54 0.5,-0.92 0.89,-1.19 0.38,-0.27 0.8,-0.38 1.22,-0.38 0.85,0 2.04,0.53 3.61,1.57 1.58,1.04 3.57,2.15 5.91,3.38 2.39,1.23 5.19,2.34 8.45,3.38 3.27,1.03 7.03,1.57 11.33,1.57 3.45,0 6.6,-0.38 9.45,-1.11 2.87,-0.77 5.33,-1.88 7.44,-3.38 2.11,-1.5 3.73,-3.41 4.92,-5.76 1.15,-2.38 1.72,-5.1 1.72,-8.25 0,-3.15 -0.76,-5.8 -2.26,-7.99 -1.5,-2.19 -3.46,-4.07 -5.88,-5.68 -2.45,-1.62 -5.22,-3.04 -8.33,-4.26 -3.11,-1.27 -6.29,-2.54 -9.56,-3.84 -3.26,-1.3 -6.45,-2.76 -9.56,-4.34 -3.11,-1.57 -5.88,-3.5 -8.33,-5.72 -2.42,-2.26 -4.38,-4.95 -5.87,-8.1 -1.5,-3.15 -2.26,-6.95 -2.26,-11.36 0,-3.54 0.69,-6.99 2.03,-10.41 1.34,-3.41 3.41,-6.45 6.21,-9.17 2.81,-2.69 6.42,-4.88 10.79,-6.53 4.38,-1.65 9.56,-2.46 15.59,-2.46 2.54,0 5.07,0.19 7.56,0.62 2.54,0.42 4.8,0.96 6.88,1.61 2.07,0.69 3.84,1.42 5.33,2.19 1.5,0.77 2.65,1.46 3.42,2.07 0.81,0.58 1.3,1.07 1.57,1.5 0.27,0.42 0.46,0.84 0.58,1.3 0.12,0.46 0.19,1 0.27,1.65 0.07,0.61 0.12,1.38 0.12,2.3 0,0.93 -0.05,1.74 -0.16,2.43 -0.11,0.73 -0.3,1.34 -0.54,1.88 -0.19,0.53 -0.5,0.92 -0.84,1.19 -0.31,0.27 -0.73,0.38 -1.15,0.38 -0.62,0 -1.5,-0.42 -2.73,-1.23 -1.19,-0.8 -2.76,-1.72 -4.72,-2.68 -1.92,-0.96 -4.26,-1.89 -6.95,-2.69 -2.69,-0.81 -5.79,-1.24 -9.33,-1.24 -3.53,0 -6.64,0.43 -9.29,1.24 -2.65,0.84 -4.83,2 -6.57,3.49 -1.72,1.5 -3.03,3.26 -3.87,5.26 -0.88,2.03 -1.31,4.22 -1.31,6.64 0,3.27 0.77,6.07 2.27,8.29 1.49,2.27 3.45,4.23 5.95,5.88 2.46,1.65 5.3,3.11 8.44,4.38 3.15,1.26 6.34,2.53 9.6,3.79 3.27,1.31 6.45,2.7 9.6,4.23 3.15,1.54 5.99,3.42 8.45,5.57 2.5,2.18 4.45,4.79 5.95,7.83 1.5,3.03 2.26,6.68 2.26,10.98z"/>
  </g>
 </g>
</svg>
