<?xml version="1.0" encoding="UTF-8"?>
<!DOCTYPE svg PUBLIC "-//W3C//DTD SVG 1.1//EN" "http://www.w3.org/Graphics/SVG/1.1/DTD/svg11.dtd">
<!-- Creator: CorelDRAW 2021 (64-Bit) -->
<svg xmlns="http://www.w3.org/2000/svg" xml:space="preserve" width="33.8666mm" height="33.8666mm" version="1.1" style="shape-rendering:geometricPrecision; text-rendering:geometricPrecision; image-rendering:optimizeQuality; fill-rule:evenodd; clip-rule:evenodd"
viewBox="0 0 3386.66 3386.66"
 xmlns:xlink="http://www.w3.org/1999/xlink"
 xmlns:xodm="http://www.corel.com/coreldraw/odm/2003">
 <defs>
  <style type="text/css">
   <![CDATA[
    .fil0 {fill:#0F3F6B}
    .fil3 {fill:#59B039}
    .fil2 {fill:#EE741D}
    .fil1 {fill:#0F3F6B;fill-rule:nonzero}
   ]]>
  </style>
 </defs>
 <g id="Layer_x0020_1">
  <metadata id="CorelCorpID_0Corel-Layer"/>
  <g id="_1357855019456">
   <polygon class="fil0" points="1875.04,1447.59 1787.12,1268.73 1778.41,1277.93 1863.89,1452.06 "/>
   <path class="fil0" d="M2024.02 1750.66l-121.82 -247.84 -11.32 4.17 122.03 248.49c5.39,8.04 11.75,12.9 19.18,14.23l2.18 -11.82c-3.73,0.21 -7.11,-2.51 -10.25,-7.24l0 0.01z"/>
   <polygon class="fil1" points="1252.72,1788.39 1278.96,1788.39 1278.96,1928.65 1252.72,1928.65 "/>
   <polygon class="fil1" points="1468.13,1788.18 1494.58,1788.18 1494.58,1928.65 1478.15,1928.65 1478.15,1928.84 1404.41,1834.07 1404.41,1928.65 1377.96,1928.65 1377.96,1788.39 1399.41,1788.39 1468.13,1875.35 "/>
   <path class="fil1" d="M1615.42 1903.2l28.85 0c31.85,0 44.48,-23.25 43.9,-46.09 -0.61,-21.84 -13.44,-43.69 -43.9,-43.69l-28.85 0 0 89.78zm99 -45.89c0.6,35.47 -21.04,71.34 -70.13,71.34l-55.11 0 0 -140.26 55.11 0c48.1,0 69.54,34.27 70.13,68.94l0 -0.02z"/>
   <polygon class="fil1" points="1804.18,1788.39 1830.44,1788.39 1830.44,1928.65 1804.18,1928.65 "/>
   <path class="fil1" d="M1990.35 1817.85l-26.04 59.71 52.1 0 -26.06 -59.71zm36.66 84.36l-73.34 0 -12.02 26.46 -28.67 0 62.93 -140.26 28.85 0 62.91 140.26 -28.85 0 -11.82 -26.46 0.01 0z"/>
   <path class="fil0" d="M1934.28 1423.87l34.29 -3.18 -128.73 -263.32c-24.06,-27.28 -48.96,-32.49 -75.37,1.54l-244.52 477.66c-11.75,22.32 -27.95,35.05 -47.83,39.86 -291.6,11.15 -368.64,-435.66 -14.4,-476.47l162.48 3.02c30.53,-0.61 29.24,-59.02 0,-63.58l-173.29 -0.87c-332.8,4.29 -442.44,554.3 19.54,608.51 33.87,-1.35 65.17,-12.73 86.24,-35.1l225.34 -446.06c10.02,-21.78 20.57,-23.33 31.76,-0.44l84.68 174.36 39.79 -15.93 0.02 0z"/>
   <path class="fil0" d="M1992.46 1469.56l-70.86 26.11 119.18 245.47c30.11,13 58.12,13.28 83.59,-1.75l-131.93 -269.83 0.02 0z"/>
   <path class="fil2" d="M1640.58 1463.83c164.04,-13.69 333.69,-66.27 501.28,-111.29 -161.03,83.1 -274.62,110.77 -414.71,149.53l41.62 80.51 -49.96 22.27 -78.22 -141.02 -0.01 0z"/>
   <path class="fil3" d="M1775.28 1519.95c185.41,-58.15 296.29,-92.17 450.78,-150.75 -109.91,65.36 -245.04,127.12 -374.08,177.15l42.44 76.24 -45.22 25.85 -73.93 -128.49 0.01 0z"/>
   <path class="fil1" d="M704.34 2214.72l0 -125.56 47.35 0c8.42,0 14.73,0.35 19.11,1.23 6.32,1.05 11.4,2.98 15.61,5.78 4.21,2.99 7.54,7.02 9.99,12.1 2.64,5.26 3.86,10.88 3.86,17.19 0,10.52 -3.33,19.64 -10.17,27 -6.84,7.37 -19.11,11.05 -36.82,11.05l-32.27 0 0 51.21 -16.66 0zm16.66 -65.94l32.44 0c10.7,0 18.42,-1.93 22.98,-5.96 4.38,-4.03 6.66,-9.65 6.66,-17.01 0,-5.09 -1.23,-9.65 -4.03,-13.33 -2.63,-3.85 -6.14,-6.31 -10.35,-7.54 -2.81,-0.7 -8.07,-1.05 -15.61,-1.05l-32.09 0 0 44.89zm100.13 65.94l0 -125.56 17.01 0 65.93 98.55 0 -98.55 15.96 0 0 125.56 -17.01 0 -65.93 -98.56 0 98.56 -15.96 0zm175.88 0l0 -125.56 55.59 0c11.22,0 19.82,1.05 25.6,3.33 5.79,2.28 10.52,6.32 13.86,11.93 3.5,5.78 5.26,12.1 5.26,18.93 0,8.95 -2.81,16.49 -8.6,22.63 -5.78,5.96 -14.72,9.82 -26.65,11.57 4.38,2.1 7.72,4.21 10,6.31 4.73,4.39 9.47,10 13.67,16.66l21.75 34.2 -20.69 0 -16.66 -26.13c-4.91,-7.54 -8.77,-13.33 -11.93,-17.36 -3.15,-4.04 -5.96,-6.84 -8.41,-8.42 -2.46,-1.58 -5.09,-2.63 -7.72,-3.33 -1.75,-0.35 -4.91,-0.53 -9.12,-0.53l-19.29 0 0 55.77 -16.66 0zm16.66 -70.15l35.6 0c7.72,0 13.5,-0.87 17.89,-2.45 4.21,-1.4 7.54,-4.03 9.64,-7.54 2.28,-3.33 3.33,-7.19 3.33,-11.23 0,-5.96 -2.1,-10.87 -6.49,-14.55 -4.2,-3.86 -11.04,-5.79 -20.34,-5.79l-39.63 0 0 41.56zm167.12 58.75c-5.79,4.91 -11.23,8.24 -16.49,10.34 -5.26,1.93 -11.04,2.99 -17.01,2.99 -9.99,0 -17.71,-2.46 -23.14,-7.37 -5.44,-4.74 -8.07,-11.05 -8.07,-18.59 0,-4.38 1.05,-8.59 2.98,-12.27 2.11,-3.68 4.74,-6.49 8.07,-8.77 3.33,-2.28 7.01,-3.86 11.05,-5.09 3.15,-0.7 7.71,-1.57 13.85,-2.28 12.45,-1.4 21.57,-3.15 27.53,-5.26 0,-2.1 0,-3.5 0,-4.03 0,-6.31 -1.4,-10.7 -4.38,-13.15 -3.86,-3.51 -9.82,-5.26 -17.54,-5.26 -7.37,0 -12.63,1.22 -16.13,3.85 -3.51,2.46 -5.97,7.02 -7.72,13.51l-15.08 -2.11c1.4,-6.48 3.68,-11.74 6.84,-15.6 3.16,-4.04 7.72,-7.02 13.68,-9.3 5.96,-2.1 12.8,-3.15 20.69,-3.15 7.71,0 14.03,0.87 18.94,2.8 4.91,1.76 8.41,4.03 10.7,6.84 2.27,2.81 3.85,6.31 4.9,10.52 0.53,2.63 0.71,7.37 0.71,14.21l0 20.34c0,14.38 0.35,23.32 1.05,27.18 0.52,3.86 1.75,7.54 3.68,11.05l-16.13 0c-1.58,-3.33 -2.46,-7.02 -2.98,-11.4zm-1.23 -34.2c-5.61,2.28 -14.03,4.21 -25.25,5.79 -6.31,0.88 -10.87,1.93 -13.5,2.98 -2.63,1.23 -4.56,2.81 -6.14,5.09 -1.4,2.1 -2.11,4.55 -2.11,7.18 0,4.22 1.58,7.55 4.74,10.35 3.15,2.63 7.71,4.03 13.68,4.03 5.96,0 11.22,-1.22 15.78,-3.85 4.73,-2.63 8.06,-6.14 10.17,-10.7 1.75,-3.33 2.63,-8.59 2.63,-15.25l0 -5.62zm39.28 45.6l0 -91.01 13.85 0 0 12.97c6.67,-9.99 16.31,-14.9 28.94,-14.9 5.43,0 10.52,1.05 15.08,2.98 4.56,1.93 8.06,4.56 10.34,7.71 2.28,3.16 3.86,7.02 4.74,11.4 0.53,2.81 0.87,7.89 0.87,14.91l0 55.94 -15.43 0 0 -55.24c0,-6.31 -0.52,-11.05 -1.75,-14.2 -1.23,-2.99 -3.33,-5.62 -6.31,-7.37 -3.16,-1.93 -6.67,-2.81 -10.87,-2.81 -6.49,0 -12.11,2.11 -16.84,6.32 -4.73,4.03 -7.19,11.92 -7.19,23.67l0 49.63 -15.43 0zm94.69 7.54l14.91 2.1c0.52,4.56 2.28,8.07 5.26,10.17 3.86,2.81 8.94,4.21 15.61,4.21 7.18,0 12.62,-1.4 16.66,-4.21 3.85,-2.8 6.48,-6.84 7.89,-11.92 0.7,-3.16 1.05,-9.82 1.05,-19.82 -6.84,7.89 -15.08,11.93 -25.25,11.93 -12.45,0 -22.1,-4.56 -28.94,-13.51 -7.01,-9.12 -10.34,-19.81 -10.34,-32.44 0,-8.77 1.57,-16.66 4.73,-24.02 3.16,-7.37 7.72,-12.98 13.68,-17.01 5.96,-4.03 12.98,-5.96 21.04,-5.96 10.7,0 19.47,4.38 26.48,13.15l0 -11.22 14.2 0 0 78.56c0,14.2 -1.4,24.2 -4.38,30.16 -2.81,5.96 -7.37,10.52 -13.68,14.02 -6.14,3.34 -13.85,5.09 -22.97,5.09 -10.87,0 -19.64,-2.45 -26.3,-7.36 -6.67,-4.74 -9.82,-12.1 -9.65,-21.92zm12.63 -54.54c0,11.75 2.28,20.52 7.01,25.95 4.91,5.44 10.7,8.24 17.89,8.24 7.19,0 12.98,-2.8 17.88,-8.24 4.74,-5.43 7.19,-13.85 7.19,-25.6 0,-11.05 -2.45,-19.46 -7.36,-25.08 -5.09,-5.61 -11.05,-8.41 -17.89,-8.41 -6.84,0 -12.8,2.8 -17.53,8.24 -4.74,5.61 -7.19,13.85 -7.19,24.9zm147.12 35.6c-5.78,4.91 -11.22,8.24 -16.48,10.34 -5.26,1.93 -11.05,2.99 -17.01,2.99 -10,0 -17.71,-2.46 -23.15,-7.37 -5.43,-4.74 -8.06,-11.05 -8.06,-18.59 0,-4.38 1.05,-8.59 2.98,-12.27 2.1,-3.68 4.73,-6.49 8.07,-8.77 3.33,-2.28 7.01,-3.86 11.04,-5.09 3.16,-0.7 7.72,-1.57 13.86,-2.28 12.45,-1.4 21.57,-3.15 27.53,-5.26 0,-2.1 0,-3.5 0,-4.03 0,-6.31 -1.41,-10.7 -4.39,-13.15 -3.86,-3.51 -9.82,-5.26 -17.53,-5.26 -7.37,0 -12.63,1.22 -16.14,3.85 -3.5,2.46 -5.96,7.02 -7.71,13.51l-15.08 -2.11c1.4,-6.48 3.68,-11.74 6.84,-15.6 3.15,-4.04 7.71,-7.02 13.67,-9.3 5.97,-2.1 12.81,-3.15 20.7,-3.15 7.71,0 14.02,0.87 18.94,2.8 4.9,1.76 8.41,4.03 10.69,6.84 2.28,2.81 3.86,6.31 4.91,10.52 0.53,2.63 0.7,7.37 0.7,14.21l0 20.34c0,14.38 0.35,23.32 1.05,27.18 0.53,3.86 1.76,7.54 3.69,11.05l-16.14 0c-1.57,-3.33 -2.45,-7.02 -2.98,-11.4zm-1.22 -34.2c-5.62,2.28 -14.03,4.21 -25.26,5.79 -6.31,0.88 -10.87,1.93 -13.5,2.98 -2.63,1.23 -4.56,2.81 -6.14,5.09 -1.4,2.1 -2.1,4.55 -2.1,7.18 0,4.22 1.58,7.55 4.73,10.35 3.16,2.63 7.72,4.03 13.68,4.03 5.96,0 11.23,-1.22 15.78,-3.85 4.74,-2.63 8.07,-6.14 10.18,-10.7 1.75,-3.33 2.63,-8.59 2.63,-15.25l0 -5.62zm39.28 45.6l0 -91.01 13.85 0 0 12.97c6.66,-9.99 16.31,-14.9 28.93,-14.9 5.44,0 10.53,1.05 15.08,2.98 4.56,1.93 8.07,4.56 10.35,7.71 2.28,3.16 3.86,7.02 4.74,11.4 0.52,2.81 0.87,7.89 0.87,14.91l0 55.94 -15.43 0 0 -55.24c0,-6.31 -0.53,-11.05 -1.75,-14.2 -1.23,-2.99 -3.33,-5.62 -6.32,-7.37 -3.15,-1.93 -6.66,-2.81 -10.87,-2.81 -6.49,0 -12.1,2.11 -16.83,6.32 -4.74,4.03 -7.19,11.92 -7.19,23.67l0 49.63 -15.43 0zm97.49 -108.02l0 -17.54 15.44 0 0 17.54 -15.44 0zm0 108.02l0 -91.01 15.44 0 0 91.01 -15.44 0zm159.58 -14.91c-5.09,5.61 -10.7,9.82 -16.66,12.63 -5.96,2.8 -12.45,4.21 -19.46,4.21 -12.81,0 -23.15,-4.39 -30.69,-12.98 -5.96,-7.02 -9.12,-14.91 -9.12,-23.67 0,-7.72 2.45,-14.74 7.54,-20.87 4.91,-6.32 12.45,-11.75 22.27,-16.49 -5.61,-6.48 -9.47,-11.74 -11.4,-15.95 -1.75,-4.04 -2.8,-7.89 -2.8,-11.58 0,-7.54 2.98,-14.2 8.94,-19.64 5.78,-5.61 13.33,-8.41 22.27,-8.41 8.59,0 15.61,2.63 21.04,7.89 5.61,5.26 8.24,11.57 8.24,18.94 0,11.92 -7.89,22.27 -23.84,30.68l22.79 28.41c2.46,-4.91 4.56,-10.7 5.96,-17.36l15.96 3.33c-2.8,11.05 -6.49,19.99 -11.22,27.01 5.79,7.54 12.45,14.02 19.64,19.11l-10.35 12.28c-6.13,-4.04 -12.62,-9.82 -19.11,-17.54zm-31.56 -65.23c6.66,-4.04 11.04,-7.37 12.97,-10.35 1.93,-2.98 2.98,-6.31 2.98,-9.99 0,-4.21 -1.4,-7.72 -4.03,-10.53 -2.81,-2.63 -6.14,-4.03 -10.17,-4.03 -4.21,0 -7.72,1.4 -10.52,4.03 -2.81,2.64 -4.21,5.97 -4.21,9.82 0,1.93 0.52,4.04 1.57,6.14 0.88,2.28 2.46,4.56 4.39,6.84l7.02 8.07zm21.74 53.13l-28.23 -35.07c-8.25,4.91 -13.86,9.47 -16.84,13.85 -2.98,4.21 -4.38,8.42 -4.38,12.45 0,5.09 2.1,10.35 6.14,15.78 4.03,5.44 9.64,8.25 17.18,8.25 4.56,0 9.29,-1.4 14.21,-4.21 4.9,-2.81 8.94,-6.49 11.92,-11.05z"/>
   <path class="fil1" d="M1840.78 2214.72l48.22 -125.56 18.24 0 51.2 125.56 -18.93 0 -14.56 -38.06 -52.78 0 -13.68 38.06 -17.71 0zm36.3 -51.56l42.78 0 -13.15 -34.89c-4.03,-10.53 -7.01,-19.29 -8.94,-26.13 -1.75,8.24 -4.03,16.13 -7.01,24.2l-13.68 36.82zm86.45 24.37l15.26 -2.45c0.87,6.14 3.33,10.7 7.19,14.03 3.85,3.33 9.46,4.91 16.48,4.91 7.02,0 12.28,-1.4 15.78,-4.38 3.33,-2.81 5.09,-6.14 5.09,-10.18 0,-3.33 -1.58,-6.13 -4.56,-8.06 -2.28,-1.4 -7.54,-3.16 -15.78,-5.26 -11.4,-2.81 -19.12,-5.26 -23.5,-7.37 -4.39,-2.1 -7.72,-5.08 -10,-8.77 -2.1,-3.5 -3.33,-7.71 -3.33,-12.09 0,-4.04 0.88,-7.72 2.81,-11.23 1.93,-3.51 4.38,-6.31 7.54,-8.59 2.45,-1.75 5.61,-3.33 9.82,-4.56 4.21,-1.23 8.59,-1.75 13.32,-1.75 7.02,0 13.33,1.05 18.77,3.15 5.43,1.93 9.29,4.74 11.92,8.24 2.46,3.51 4.38,8.25 5.26,14.21l-15.08 2.1c-0.7,-4.73 -2.63,-8.41 -5.96,-11.05 -3.16,-2.8 -7.89,-4.03 -13.85,-4.03 -7.02,0 -12.1,1.23 -15.08,3.51 -2.98,2.28 -4.56,5.08 -4.56,8.24 0,1.93 0.7,3.68 1.92,5.44 1.23,1.58 3.16,2.98 5.79,4.03 1.58,0.53 6.14,1.93 13.68,3.86 10.87,2.98 18.41,5.44 22.8,7.19 4.38,1.93 7.71,4.56 10.17,8.07 2.45,3.5 3.68,7.89 3.68,13.15 0,5.08 -1.4,9.99 -4.56,14.55 -2.98,4.56 -7.19,8.07 -12.98,10.52 -5.61,2.46 -11.92,3.69 -19.11,3.69 -11.75,0 -20.87,-2.46 -27,-7.37 -6.32,-4.91 -10.18,-12.1 -11.93,-21.75zm87.68 0l15.26 -2.45c0.87,6.14 3.33,10.7 7.19,14.03 3.85,3.33 9.46,4.91 16.48,4.91 7.01,0 12.27,-1.4 15.78,-4.38 3.33,-2.81 5.09,-6.14 5.09,-10.18 0,-3.33 -1.58,-6.13 -4.56,-8.06 -2.28,-1.4 -7.54,-3.16 -15.78,-5.26 -11.4,-2.81 -19.12,-5.26 -23.5,-7.37 -4.39,-2.1 -7.72,-5.08 -10,-8.77 -2.1,-3.5 -3.33,-7.71 -3.33,-12.09 0,-4.04 0.88,-7.72 2.81,-11.23 1.93,-3.51 4.38,-6.31 7.54,-8.59 2.45,-1.75 5.61,-3.33 9.82,-4.56 4.21,-1.23 8.59,-1.75 13.32,-1.75 7.02,0 13.33,1.05 18.77,3.15 5.43,1.93 9.29,4.74 11.92,8.24 2.46,3.51 4.38,8.25 5.26,14.21l-15.08 2.1c-0.7,-4.73 -2.63,-8.41 -5.96,-11.05 -3.16,-2.8 -7.89,-4.03 -13.85,-4.03 -7.02,0 -12.1,1.23 -15.09,3.51 -2.97,2.28 -4.56,5.08 -4.56,8.24 0,1.93 0.71,3.68 1.93,5.44 1.23,1.58 3.16,2.98 5.79,4.03 1.58,0.53 6.14,1.93 13.68,3.86 10.87,2.98 18.41,5.44 22.8,7.19 4.38,1.93 7.71,4.56 10.17,8.07 2.45,3.5 3.68,7.89 3.68,13.15 0,5.08 -1.4,9.99 -4.56,14.55 -2.98,4.56 -7.19,8.07 -12.98,10.52 -5.61,2.46 -11.92,3.69 -19.11,3.69 -11.75,0 -20.87,-2.46 -27,-7.37 -6.32,-4.91 -10.18,-12.1 -11.93,-21.75zm88.03 -18.41c0,-16.66 4.73,-29.11 14.03,-37.35 7.89,-6.66 17.36,-9.99 28.58,-9.99 12.63,0 22.8,4.03 30.69,12.27 7.89,8.07 11.92,19.47 11.92,33.84 0,11.75 -1.75,20.87 -5.26,27.54 -3.51,6.66 -8.59,11.92 -15.25,15.6 -6.84,3.86 -14.03,5.62 -22.1,5.62 -12.63,0 -22.97,-4.04 -30.86,-12.28 -7.89,-8.07 -11.75,-19.81 -11.75,-35.25zm15.78 0.18c0,11.57 2.63,20.34 7.72,25.95 5.08,5.79 11.4,8.77 19.11,8.77 7.72,0 14.03,-2.98 19.29,-8.77 5.09,-5.79 7.54,-14.55 7.54,-26.48 0,-11.22 -2.63,-19.81 -7.71,-25.6 -5.09,-5.79 -11.4,-8.59 -19.12,-8.59 -7.71,0 -14.03,2.8 -19.11,8.59 -5.09,5.79 -7.72,14.38 -7.72,26.13zm146.95 12.1l15.08 2.1c-1.58,10.35 -5.78,18.41 -12.62,24.38 -6.84,5.78 -15.26,8.77 -25.08,8.77 -12.45,0 -22.45,-4.04 -29.98,-12.28 -7.55,-8.07 -11.4,-19.64 -11.4,-34.9 0,-9.82 1.58,-18.23 4.91,-25.6 3.15,-7.36 8.24,-12.97 14.9,-16.66 6.49,-3.68 13.86,-5.43 21.57,-5.43 9.82,0 18.06,2.45 24.2,7.54 6.31,4.91 10.35,12.1 12.1,21.22l-14.91 2.27c-1.4,-6.13 -3.85,-10.69 -7.54,-13.85 -3.68,-2.98 -8.06,-4.56 -13.15,-4.56 -7.89,0 -14.2,2.81 -18.94,8.24 -4.91,5.61 -7.36,14.38 -7.36,26.48 0,12.28 2.28,21.04 7.01,26.66 4.74,5.43 10.88,8.24 18.41,8.24 5.97,0 11.05,-1.93 15.09,-5.61 4.03,-3.69 6.66,-9.3 7.71,-17.01zm28.23 -74.7l0 -17.54 15.43 0 0 17.54 -15.43 0zm0 108.02l0 -91.01 15.43 0 0 91.01 -15.43 0zm98.38 -11.4c-5.79,4.91 -11.22,8.24 -16.48,10.34 -5.27,1.93 -11.05,2.99 -17.01,2.99 -10,0 -17.72,-2.46 -23.15,-7.37 -5.44,-4.74 -8.07,-11.05 -8.07,-18.59 0,-4.38 1.05,-8.59 2.98,-12.27 2.11,-3.68 4.74,-6.49 8.07,-8.77 3.33,-2.28 7.01,-3.86 11.05,-5.09 3.15,-0.7 7.71,-1.57 13.85,-2.28 12.45,-1.4 21.57,-3.15 27.53,-5.26 0,-2.1 0,-3.5 0,-4.03 0,-6.31 -1.4,-10.7 -4.38,-13.15 -3.86,-3.51 -9.82,-5.26 -17.54,-5.26 -7.36,0 -12.63,1.22 -16.13,3.85 -3.51,2.46 -5.96,7.02 -7.72,13.51l-15.08 -2.11c1.4,-6.48 3.68,-11.74 6.84,-15.6 3.16,-4.04 7.72,-7.02 13.68,-9.3 5.96,-2.1 12.8,-3.15 20.69,-3.15 7.72,0 14.03,0.87 18.94,2.8 4.91,1.76 8.42,4.03 10.7,6.84 2.28,2.81 3.85,6.31 4.91,10.52 0.52,2.63 0.7,7.37 0.7,14.21l0 20.34c0,14.38 0.35,23.32 1.05,27.18 0.52,3.86 1.75,7.54 3.68,11.05l-16.13 0c-1.58,-3.33 -2.45,-7.02 -2.98,-11.4zm-1.23 -34.2c-5.61,2.28 -14.03,4.21 -25.25,5.79 -6.31,0.88 -10.87,1.93 -13.5,2.98 -2.63,1.23 -4.56,2.81 -6.14,5.09 -1.4,2.1 -2.11,4.55 -2.11,7.18 0,4.22 1.58,7.55 4.74,10.35 3.16,2.63 7.71,4.03 13.68,4.03 5.96,0 11.22,-1.22 15.78,-3.85 4.74,-2.63 8.07,-6.14 10.17,-10.7 1.75,-3.33 2.63,-8.59 2.63,-15.25l0 -5.62zm72.77 31.74l2.11 13.68c-4.38,0.88 -8.24,1.4 -11.57,1.4 -5.62,0 -10,-0.87 -12.98,-2.63 -3.16,-1.75 -5.26,-4.21 -6.49,-7.01 -1.23,-2.98 -1.93,-8.95 -1.93,-18.24l0 -52.43 -11.4 0 0 -11.92 11.4 0 0 -22.45 15.43 -9.29 0 31.74 15.43 0 0 11.92 -15.43 0 0 53.31c0,4.38 0.35,7.19 0.88,8.41 0.53,1.41 1.4,2.29 2.63,3.16 1.23,0.7 2.98,1.06 5.26,1.06 1.58,0 3.86,-0.18 6.66,-0.71zm77.34 -15.6l15.95 2.1c-2.45,9.29 -7.19,16.48 -13.85,21.57 -6.84,5.09 -15.43,7.72 -25.95,7.72 -13.33,0 -23.85,-4.04 -31.57,-12.28 -7.89,-8.24 -11.74,-19.64 -11.74,-34.37 0,-15.26 3.85,-27.18 11.74,-35.6 7.9,-8.42 18.06,-12.62 30.69,-12.62 12.1,0 21.92,4.03 29.64,12.45 7.71,8.24 11.57,19.81 11.57,34.89 0,0.88 0,2.28 0,4.04l-67.86 0c0.52,9.99 3.33,17.53 8.41,22.97 5.09,5.26 11.4,7.89 19.12,7.89 5.61,0 10.34,-1.58 14.38,-4.56 4.03,-2.98 7.19,-7.71 9.47,-14.2zm-50.51 -24.73l50.68 0c-0.7,-7.72 -2.63,-13.33 -5.78,-17.18 -4.92,-5.97 -11.23,-8.95 -19.12,-8.95 -7.01,0 -12.97,2.28 -17.71,7.02 -4.91,4.73 -7.54,11.22 -8.07,19.11zm79.79 27l15.26 -2.45c0.87,6.14 3.33,10.7 7.19,14.03 3.85,3.33 9.46,4.91 16.48,4.91 7.02,0 12.28,-1.4 15.78,-4.38 3.33,-2.81 5.09,-6.14 5.09,-10.18 0,-3.33 -1.58,-6.13 -4.56,-8.06 -2.28,-1.4 -7.54,-3.16 -15.78,-5.26 -11.4,-2.81 -19.12,-5.26 -23.5,-7.37 -4.39,-2.1 -7.72,-5.08 -10,-8.77 -2.1,-3.5 -3.33,-7.71 -3.33,-12.09 0,-4.04 0.88,-7.72 2.81,-11.23 1.93,-3.51 4.38,-6.31 7.54,-8.59 2.45,-1.75 5.61,-3.33 9.82,-4.56 4.21,-1.23 8.59,-1.75 13.32,-1.75 7.02,0 13.33,1.05 18.77,3.15 5.43,1.93 9.29,4.74 11.92,8.24 2.46,3.51 4.38,8.25 5.26,14.21l-15.08 2.1c-0.7,-4.73 -2.63,-8.41 -5.96,-11.05 -3.16,-2.8 -7.89,-4.03 -13.85,-4.03 -7.02,0 -12.1,1.23 -15.08,3.51 -2.98,2.28 -4.56,5.08 -4.56,8.24 0,1.93 0.7,3.68 1.92,5.44 1.23,1.58 3.16,2.98 5.79,4.03 1.58,0.53 6.14,1.93 13.68,3.86 10.87,2.98 18.41,5.44 22.8,7.19 4.38,1.93 7.71,4.56 10.17,8.07 2.45,3.5 3.68,7.89 3.68,13.15 0,5.08 -1.4,9.99 -4.56,14.55 -2.98,4.56 -7.19,8.07 -12.98,10.52 -5.61,2.46 -11.92,3.69 -19.11,3.69 -11.75,0 -20.87,-2.46 -27,-7.37 -6.32,-4.91 -10.18,-12.1 -11.93,-21.75z"/>
  </g>
 </g>
</svg>
