<?xml version="1.0" encoding="UTF-8"?>
<!DOCTYPE svg PUBLIC "-//W3C//DTD SVG 1.1//EN" "http://www.w3.org/Graphics/SVG/1.1/DTD/svg11.dtd">
<!-- Creator: CorelDRAW 2021 (64-Bit) -->
<svg xmlns="http://www.w3.org/2000/svg" xml:space="preserve" width="33.8666mm" height="33.8666mm" version="1.1" style="shape-rendering:geometricPrecision; text-rendering:geometricPrecision; image-rendering:optimizeQuality; fill-rule:evenodd; clip-rule:evenodd"
viewBox="0 0 3386.66 3386.66"
 xmlns:xlink="http://www.w3.org/1999/xlink"
 xmlns:xodm="http://www.corel.com/coreldraw/odm/2003">
 <defs>
  <style type="text/css">
   <![CDATA[
    .fil0 {fill:#FEFEFE}
    .fil3 {fill:#EE741D}
    .fil4 {fill:#59B039}
    .fil1 {fill:#2A608C}
    .fil2 {fill:#2A608C;fill-rule:nonzero}
   ]]>
  </style>
 </defs>
 <g id="Layer_x0020_1">
  <metadata id="CorelCorpID_0Corel-Layer"/>
  <g id="_1357586532928">
   <path class="fil0" d="M1664.07 1586.54c159.58,-44.93 297.24,-100.88 429.69,-169.15 14.56,-6.25 16.99,0.76 8.83,5.95 -112.22,71.84 -226.83,137.23 -348.94,182.39 7.78,23.71 15.56,47.42 23.33,71.15 -11.76,9.03 -28.07,19.6 -39.83,28.64l-73.08 -118.98z"/>
   <polygon class="fil1" points="1862.31,1455.5 1783.59,1295.37 1775.78,1303.6 1852.33,1459.5 "/>
   <path class="fil1" d="M1995.69 1726.84l-109.08 -221.89 -10.13 3.73 109.25 222.48c4.83,7.2 10.52,11.55 17.18,12.73l1.96 -10.58c-3.34,0.2 -6.37,-2.23 -9.18,-6.47z"/>
   <polygon class="fil2" points="1305.15,1760.6 1328.65,1760.6 1328.65,1886.19 1305.15,1886.19 "/>
   <polygon class="fil2" points="1498.01,1760.42 1521.69,1760.42 1521.69,1886.19 1506.98,1886.19 1506.98,1886.36 1440.96,1801.51 1440.96,1886.19 1417.27,1886.19 1417.27,1760.6 1436.48,1760.6 1498.01,1838.46 "/>
   <path class="fil2" d="M1629.87 1863.4l25.84 0c28.52,0 39.82,-20.81 39.29,-41.26 -0.54,-19.55 -12.03,-39.11 -39.29,-39.11l-25.84 0 0 80.37zm88.63 -41.08c0.54,31.75 -18.83,63.87 -62.79,63.87l-49.34 0 0 -125.59 49.34 0c43.06,0 62.26,30.68 62.79,61.72z"/>
   <polygon class="fil2" points="1798.87,1760.6 1822.38,1760.6 1822.38,1886.19 1798.87,1886.19 "/>
   <path class="fil2" d="M1965.54 1786.97l-23.32 53.46 46.65 0 -23.33 -53.46zm32.83 75.53l-65.66 0 -10.76 23.69 -25.67 0 56.34 -125.58 25.84 0 56.34 125.58 -25.84 0 -10.59 -23.69z"/>
   <path class="fil1" d="M1915.34 1434.26l30.71 -2.83 -115.26 -235.75c-21.55,-24.41 -43.84,-29.09 -67.46,1.37l-218.92 427.66c-10.52,19.97 -25.03,31.38 -42.83,35.68 -261.06,9.97 -330.04,-390.03 -12.89,-426.57l145.47 2.69c27.34,-0.54 26.17,-52.84 0,-56.92l-155.15 -0.77c-297.95,3.83 -396.1,496.25 17.5,544.78 30.34,-1.21 58.34,-11.39 77.22,-31.42l201.75 -399.37c8.97,-19.5 18.41,-20.88 28.43,-0.38l75.8 156.1 35.63 -14.27z"/>
   <path class="fil1" d="M1967.43 1475.17l-63.44 23.38 106.71 219.75c26.97,11.63 52.05,11.9 74.84,-1.56l-118.11 -241.57z"/>
   <path class="fil3" d="M1652.4 1470.02c146.87,-12.24 298.74,-59.33 448.78,-99.63 -144.16,74.4 -245.85,99.17 -371.27,133.88l37.25 72.08 -44.73 19.94 -70.03 -126.27z"/>
   <path class="fil4" d="M1772.99 1520.28c166.01,-52.05 265.25,-82.52 403.58,-134.95 -98.4,58.51 -219.37,113.8 -334.92,158.6l38.01 68.25 -40.48 23.13 -66.19 -115.03z"/>
   <path class="fil2" d="M588.45 2137.04l0 23.42c6.34,0.55 12.41,0.55 17.92,0.55 48.76,0 69.16,-16.53 69.16,-60.34l0 -120.16 -50.42 0 0 112.44c0,32.52 -3.04,44.09 -31.42,44.09l-5.24 0zm150.74 25.63c12.12,0 21.77,-9.65 21.77,-21.78 0,-11.84 -9.65,-21.49 -21.77,-21.49 -12.13,0 -21.77,9.65 -21.77,21.49 0,12.13 9.92,21.78 21.77,21.78zm125.66 -25.63l0 23.42c6.34,0.55 12.4,0.55 17.92,0.55 48.76,0 69.16,-16.53 69.16,-60.34l0 -120.16 -50.43 0 0 112.44c0,32.52 -3.04,44.09 -31.42,44.09l-5.23 0zm150.73 25.63c12.12,0 21.77,-9.65 21.77,-21.78 0,-11.84 -9.65,-21.49 -21.77,-21.49 -12.12,0 -21.76,9.65 -21.76,21.49 0,12.13 9.91,21.78 21.76,21.78zm163.97 -47.96l-24.8 14.89c11.3,22.6 33.89,35.55 62,35.55 40.23,0 66.68,-25.08 66.68,-59.8 0,-16.54 -5.78,-27.84 -18.73,-38.58 -6.07,-4.96 -18.46,-11.02 -36.66,-20.12 -16.26,-8.27 -25.07,-14.6 -25.07,-26.46 0,-11.57 9.09,-20.66 22.05,-20.66 15.15,0 26.18,8.53 33.34,25.9l20.39 -14.33c-11.02,-22.31 -31.14,-34.71 -57.59,-34.71 -37.75,0 -62.83,24.8 -62.83,58.97 0,16.53 5.78,27 18.73,38.3 5.79,4.95 18.19,11.3 36.66,21.22 14.05,7.71 21.22,15.15 21.22,25.62 0,11.85 -9.37,21.22 -23.42,21.22 -12.96,0 -24.53,-9.37 -31.97,-27.01zm148.24 7.45l15.45 -51.81 14.32 51.81 -29.77 0zm-31.68 38.3l20.4 0 6.33 -21.76 39.68 0 6.62 21.76 40.78 0 -32.24 -99.2c-5.24,-16.54 -10.47,-23.98 -24.25,-23.98 -14.06,0 -20.39,7.71 -26.18,25.9l-31.14 97.28zm232.31 -119.32l-20.4 0 -24.24 92.04 -24.8 -92.04 -41.35 0 28.12 96.73c5.5,19.01 12.67,27 28.38,27 14.87,0 22.87,-8.26 28.11,-27.28l26.18 -96.45zm40.5 81.02l15.43 -51.81 14.34 51.81 -29.77 0zm-31.68 38.3l20.38 0 6.34 -21.76 39.68 0 6.61 21.76 40.79 0 -32.24 -99.2c-5.23,-16.54 -10.47,-23.98 -24.25,-23.98 -14.05,0 -20.39,7.71 -26.18,25.9l-31.13 97.28zm175.53 -36.92l0 -155.7 -38.86 0 0 156.25c0,26.17 7.72,36.37 33.35,36.37l33.07 0 0 -17.91 -9.65 0c-13.78,0 -17.91,-4.13 -17.91,-19.01zm43.82 -131.46c0,11.31 9.36,20.4 20.39,20.4 11.29,0 20.39,-9.09 20.39,-20.4 0,-11.29 -8.82,-20.38 -20.39,-20.38 -11.31,0 -20.39,9.09 -20.39,20.38zm0.82 168.38l38.85 0 0 -119.32 -38.85 0 0 119.32zm55.94 -119.32l45.75 100.3 -30.04 69.45 21.76 0 73.04 -169.75 -20.4 0 -23.15 56.76 -23.97 -56.76 -42.99 0zm146.05 81.02l15.43 -51.81 14.33 51.81 -29.76 0zm-31.7 38.3l20.4 0 6.34 -21.76 39.69 0 6.61 21.76 40.78 0 -32.24 -99.2c-5.24,-16.54 -10.48,-23.98 -24.25,-23.98 -14.05,0 -20.4,7.71 -26.18,25.9l-31.15 97.28zm334.27 0l55.67 0 -31.69 -47.67c8.54,-11.85 12.13,-26.72 12.13,-45.74 0,-4.69 0,-9.65 -0.55,-14.62l-18.19 0c1.1,6.08 1.65,11.03 1.65,15.17 0,11.57 -1.92,20.66 -6.34,28.1l-33.62 -51.53c10.48,-8.26 15.98,-18.74 15.98,-30.86 0,-20.95 -15.98,-36.65 -40.5,-36.65 -26.18,0 -45.75,17.91 -46.03,42.98l16.26 29.49c-30.86,17.37 -45.74,33.9 -45.74,58.42 0,31.97 25.9,57.05 62.83,57.05 19.56,0 35.83,-5.52 49.61,-17.09l8.53 12.95zm-20.11 -29.2c-5.78,3.02 -11.3,4.4 -16.54,4.4 -18.73,0 -35.54,-17.08 -35.54,-37.2 0,-11.02 4.68,-19.29 14.05,-24.25l38.03 57.05zm-31.97 -134.21c3.31,-3.31 7.17,-4.41 12.13,-4.41 8.81,0 15.7,7.16 15.7,16.26 0,6.62 -3.57,11.85 -10.46,15.7l-17.37 -27.55zm378.64 119.59l-21.5 -14.05c-12.39,25.63 -29.21,38.58 -49.04,38.58 -31.43,0 -53.19,-27.55 -53.19,-70.27 0,-46.57 18.46,-71.92 48.77,-71.92 21.23,0 36.65,12.67 47.12,35l22.87 -16.81c-17.91,-27.56 -41.89,-40.51 -74.95,-40.51 -57.87,0 -97.83,40.23 -97.83,95.62 0,29.48 11.3,53.74 33.62,71.93 16.81,13.77 38.03,20.66 62.56,20.66 38.02,0 66.68,-17.08 81.57,-48.23zm76.05 48.23c37.48,0 60.9,-23.7 60.9,-60.34 0,-38.58 -26.18,-67.25 -60.9,-67.25 -37.2,0 -61.18,23.98 -61.18,60.62 0,38.59 26.46,66.97 61.18,66.97zm19.02 -62.83c0,31.42 -6.06,47.12 -18.47,47.12 -13.22,0 -19.84,-16.53 -19.84,-49.05 0,-31.41 6.07,-46.84 18.47,-46.84 13.23,0 19.84,16.26 19.84,48.77zm92.86 60.63c12.13,0 21.77,-9.65 21.77,-21.78 0,-11.84 -9.64,-21.49 -21.77,-21.49 -12.12,0 -21.77,9.65 -21.77,21.49 0,12.13 9.92,21.78 21.77,21.78z"/>
  </g>
 </g>
</svg>
