<?xml version="1.0" encoding="UTF-8"?>
<!DOCTYPE svg PUBLIC "-//W3C//DTD SVG 1.1//EN" "http://www.w3.org/Graphics/SVG/1.1/DTD/svg11.dtd">
<!-- Creator: CorelDRAW 2021 (64-Bit) -->
<svg xmlns="http://www.w3.org/2000/svg" xml:space="preserve" width="33.867mm" height="33.867mm" version="1.1" style="shape-rendering:geometricPrecision; text-rendering:geometricPrecision; image-rendering:optimizeQuality; fill-rule:evenodd; clip-rule:evenodd"
viewBox="0 0 3386.7 3386.7"
 xmlns:xlink="http://www.w3.org/1999/xlink"
 xmlns:xodm="http://www.corel.com/coreldraw/odm/2003">
 <defs>
  <style type="text/css">
   <![CDATA[
    .str0 {stroke:#0F3F6B;stroke-width:10;stroke-linecap:round;stroke-linejoin:round;stroke-miterlimit:22.9256}
    .fil0 {fill:#0F3F6B}
    .fil3 {fill:#59B039}
    .fil2 {fill:#EE741D}
    .fil1 {fill:#0F3F6B;fill-rule:nonzero}
   ]]>
  </style>
 </defs>
 <g id="Layer_x0020_1">
  <metadata id="CorelCorpID_0Corel-Layer"/>
  <g id="_2023944252736">
   <g>
    <polygon class="fil0" points="1938.75,1317.48 1818.44,1072.74 1806.52,1085.33 1923.5,1323.6 "/>
    <path class="fil0" d="M2142.61 1732.2l-166.7 -339.14 -15.48 5.7 166.97 340.03c7.39,11 16.08,17.65 26.25,19.47l2.99 -16.17c-5.11,0.29 -9.73,-3.43 -14.03,-9.9l0 0.01z"/>
    <polygon class="fil1" points="1087.19,1783.82 1123.1,1783.82 1123.1,1975.75 1087.19,1975.75 "/>
    <polygon class="fil1" points="1381.95,1783.53 1418.15,1783.53 1418.15,1975.75 1395.66,1975.75 1395.66,1976.02 1294.76,1846.33 1294.76,1975.75 1258.56,1975.75 1258.56,1783.82 1287.92,1783.82 1381.95,1902.82 "/>
    <path class="fil1" d="M1583.5 1940.92l39.48 0c43.58,0 60.87,-31.8 60.06,-63.06 -0.83,-29.89 -18.38,-59.78 -60.06,-59.78l-39.48 0 0 122.84zm135.46 -62.79c0.83,48.54 -28.79,97.63 -95.96,97.63l-75.41 0 0 -191.93 75.41 0c65.82,0 95.15,46.89 95.96,94.33l0 -0.03z"/>
    <polygon class="fil1" points="1841.79,1783.82 1877.72,1783.82 1877.72,1975.75 1841.79,1975.75 "/>
    <path class="fil1" d="M2096.53 1824.14l-35.63 81.7 71.29 0 -35.66 -81.7zm50.18 115.44l-100.36 0 -16.45 36.2 -39.23 0 86.1 -191.93 39.48 0 86.09 191.93 -39.48 0 -16.17 -36.2 0.02 0z"/>
    <path class="fil0" d="M2019.81 1285.03l46.93 -4.35 -176.16 -360.31c-32.92,-37.33 -67,-44.46 -103.12,2.1l-334.6 653.62c-16.08,30.52 -38.25,47.95 -65.46,54.54 -399,15.25 -504.42,-596.14 -19.69,-651.99l222.33 4.13c41.77,-0.83 40.01,-80.76 0,-87l-237.13 -1.19c-455.39,5.87 -605.42,758.49 26.75,832.67 46.34,-1.86 89.16,-17.43 118.01,-48.03l308.34 -610.39c13.71,-29.79 28.14,-31.92 43.46,-0.58l115.86 238.58 54.46 -21.8 0.02 0z"/>
    <path class="fil0" d="M2099.42 1347.55l-96.96 35.73 163.08 335.9c41.21,17.77 79.54,18.15 114.39,-2.4l-180.53 -369.23 0.02 0z"/>
    <path class="fil2" d="M1617.92 1339.71c224.48,-18.73 456.62,-90.68 685.93,-152.28 -220.35,113.71 -375.78,151.57 -567.46,204.61l56.95 110.16 -68.37 30.48 -107.03 -192.97 -0.02 0z"/>
    <path class="fil3" d="M1802.24 1416.5c253.71,-79.56 405.43,-126.12 616.83,-206.27 -150.4,89.44 -335.31,173.94 -511.88,242.39l58.08 104.33 -61.87 35.36 -101.17 -175.81 0.01 0z"/>
   </g>
   <g>
    <path class="fil1" d="M904.02 2467.63l0 -99.37 37.52 0c6.6,0 11.64,0.32 15.13,0.94 4.88,0.81 8.98,2.36 12.29,4.63 3.3,2.29 5.96,5.48 7.98,9.58 2.01,4.09 3,8.6 3,13.53 0,8.42 -2.68,15.57 -8.07,21.4 -5.37,5.85 -15.11,8.76 -29.17,8.76l-25.49 0 0 40.53 -13.19 0zm13.19 -52.19l25.67 0c8.52,0 14.53,-1.57 18.12,-4.74 3.56,-3.17 5.34,-7.61 5.34,-13.37 0,-4.14 -1.04,-7.7 -3.15,-10.66 -2.1,-2.96 -4.88,-4.93 -8.3,-5.88 -2.22,-0.58 -6.32,-0.88 -12.26,-0.88l-25.42 0 0 35.53zm63.45 52.19l0 -13.88 13.88 0 0 13.88 -13.88 0zm36.62 0l0 -99.37 34.24 0c7.72,0 13.62,0.46 17.69,1.41 5.69,1.32 10.55,3.7 14.58,7.12 5.25,4.44 9.15,10.09 11.75,16.98 2.61,6.89 3.91,14.78 3.91,23.64 0,7.54 -0.88,14.23 -2.64,20.06 -1.76,5.83 -4.03,10.66 -6.78,14.48 -2.78,3.82 -5.78,6.82 -9.07,9 -3.26,2.19 -7.22,3.86 -11.84,4.99 -4.65,1.14 -9.97,1.69 -15.98,1.69l-35.86 0zm13.18 -11.66l21.19 0c6.55,0 11.69,-0.6 15.41,-1.82 3.72,-1.23 6.68,-2.94 8.9,-5.16 3.11,-3.13 5.53,-7.34 7.27,-12.61 1.73,-5.27 2.61,-11.66 2.61,-19.18 0,-10.41 -1.71,-18.41 -5.11,-24.01 -3.4,-5.6 -7.54,-9.34 -12.42,-11.24 -3.52,-1.37 -9.18,-2.04 -17,-2.04l-20.85 0 0 76.06zm121.31 -20.26l12.35 -1.11c0.58,5 1.95,9.09 4.1,12.3 2.15,3.2 5.48,5.79 9.99,7.78 4.51,1.97 9.6,2.96 15.25,2.96 5.02,0 9.43,-0.74 13.27,-2.25 3.84,-1.5 6.69,-3.56 8.56,-6.17 1.88,-2.62 2.82,-5.46 2.82,-8.51 0,-3.11 -0.9,-5.81 -2.7,-8.15 -1.81,-2.31 -4.79,-4.25 -8.95,-5.85 -2.66,-1.02 -8.56,-2.64 -17.7,-4.83 -9.14,-2.2 -15.52,-4.26 -19.18,-6.2 -4.74,-2.5 -8.26,-5.6 -10.57,-9.28 -2.34,-3.68 -3.49,-7.82 -3.49,-12.38 0,-5.04 1.43,-9.73 4.28,-14.08 2.84,-4.37 6.98,-7.68 12.47,-9.95 5.46,-2.27 11.54,-3.4 18.23,-3.4 7.35,0 13.85,1.18 19.47,3.56 5.62,2.36 9.95,5.85 12.98,10.48 3.03,4.6 4.65,9.83 4.88,15.66l-12.63 0.97c-0.67,-6.27 -2.96,-11.01 -6.87,-14.2 -3.91,-3.22 -9.69,-4.81 -17.33,-4.81 -7.95,0 -13.76,1.46 -17.39,4.37 -3.63,2.91 -5.46,6.43 -5.46,10.55 0,3.56 1.3,6.5 3.86,8.81 2.55,2.29 9.14,4.67 19.83,7.08 10.68,2.43 18.02,4.53 22,6.34 5.76,2.66 10.03,6.01 12.79,10.11 2.75,4.07 4.12,8.76 4.12,14.09 0,5.29 -1.51,10.24 -4.54,14.92 -3.03,4.67 -7.36,8.3 -13.02,10.89 -5.67,2.59 -12.03,3.89 -19.13,3.89 -8.98,0 -16.5,-1.32 -22.56,-3.93 -6.08,-2.62 -10.82,-6.55 -14.27,-11.83 -3.47,-5.25 -5.27,-11.19 -5.46,-17.83zm142.4 22.9c-4.53,3.86 -8.9,6.57 -13.09,8.17 -4.19,1.59 -8.67,2.38 -13.49,2.38 -7.91,0 -13.99,-1.92 -18.25,-5.79 -4.25,-3.84 -6.38,-8.76 -6.38,-14.75 0,-3.52 0.81,-6.73 2.4,-9.65 1.62,-2.91 3.73,-5.23 6.32,-6.98 2.61,-1.76 5.53,-3.11 8.79,-4.01 2.41,-0.62 6.04,-1.22 10.87,-1.83 9.86,-1.15 17.14,-2.56 21.79,-4.18 0.05,-1.67 0.07,-2.73 0.07,-3.17 0,-4.95 -1.15,-8.44 -3.47,-10.48 -3.12,-2.75 -7.77,-4.12 -13.92,-4.12 -5.76,0 -10.02,1.02 -12.75,3.03 -2.75,2.02 -4.77,5.58 -6.08,10.71l-11.94 -1.66c1.09,-5.11 2.87,-9.26 5.37,-12.4 2.5,-3.15 6.11,-5.55 10.82,-7.26 4.7,-1.69 10.18,-2.55 16.38,-2.55 6.15,0 11.17,0.72 15.04,2.17 3.84,1.46 6.68,3.27 8.49,5.46 1.8,2.2 3.07,4.98 3.81,8.33 0.4,2.08 0.61,5.83 0.61,11.22l0 16.19c0,11.32 0.25,18.46 0.76,21.49 0.48,3.03 1.5,5.93 2.98,8.7l-12.77 0c-1.22,-2.57 -2.01,-5.57 -2.36,-9.02zm-0.97 -27.07c-4.44,1.81 -11.1,3.34 -19.98,4.59 -5.05,0.71 -8.61,1.52 -10.69,2.43 -2.08,0.9 -3.68,2.22 -4.81,3.93 -1.14,1.73 -1.71,3.65 -1.71,5.78 0,3.22 1.22,5.92 3.7,8.07 2.47,2.15 6.08,3.24 10.82,3.24 4.7,0 8.88,-1.01 12.56,-3.08 3.66,-2.03 6.36,-4.83 8.08,-8.37 1.31,-2.75 1.96,-6.8 1.96,-12.14l0.07 -4.45zm31.12 36.09l0 -72.03 10.96 0 0 10.22c5.28,-7.84 12.91,-11.75 22.88,-11.75 4.35,0 8.33,0.79 11.96,2.34 3.63,1.55 6.36,3.61 8.16,6.13 1.81,2.52 3.08,5.52 3.8,9 0.44,2.26 0.67,6.22 0.67,11.86l0 44.23 -12.21 0 0 -43.76c0,-4.98 -0.47,-8.7 -1.42,-11.16 -0.94,-2.45 -2.63,-4.41 -5.04,-5.89 -2.4,-1.46 -5.25,-2.2 -8.49,-2.2 -5.18,0 -9.65,1.64 -13.42,4.95 -3.76,3.29 -5.64,9.55 -5.64,18.76l0 39.3 -12.21 0zm74.95 5.97l11.79 1.67c0.49,3.65 1.88,6.31 4.14,8 3.03,2.24 7.18,3.38 12.43,3.38 5.64,0 10.01,-1.14 13.09,-3.38 3.08,-2.24 5.16,-5.41 6.25,-9.46 0.62,-2.48 0.92,-7.68 0.87,-15.62 -5.34,6.3 -11.98,9.44 -19.94,9.44 -9.9,0 -17.58,-3.56 -22.99,-10.71 -5.43,-7.12 -8.14,-15.68 -8.14,-25.65 0,-6.87 1.25,-13.21 3.72,-19.02 2.48,-5.8 6.09,-10.27 10.81,-13.44 4.71,-3.17 10.27,-4.74 16.65,-4.74 8.49,0 15.5,3.47 21,10.41l0 -8.88 11.25 0 0 62.2c0,11.22 -1.14,19.15 -3.43,23.83 -2.26,4.67 -5.9,8.37 -10.82,11.08 -4.95,2.7 -11.04,4.07 -18.25,4.07 -8.59,0 -15.5,-1.92 -20.78,-5.79 -5.29,-3.84 -7.84,-9.64 -7.65,-17.39zm9.99 -43.21c0,9.41 1.87,16.28 5.62,20.61 3.77,4.33 8.47,6.5 14.11,6.5 5.62,0 10.32,-2.15 14.14,-6.46 3.79,-4.3 5.69,-11.05 5.69,-20.26 0,-8.79 -1.97,-15.43 -5.88,-19.89 -3.91,-4.47 -8.63,-6.69 -14.13,-6.69 -5.44,0 -10.04,2.2 -13.86,6.59 -3.79,4.4 -5.69,10.92 -5.69,19.6zm116.5 28.22c-4.54,3.86 -8.91,6.57 -13.1,8.17 -4.18,1.59 -8.67,2.38 -13.48,2.38 -7.91,0 -14,-1.92 -18.25,-5.79 -4.26,-3.84 -6.39,-8.76 -6.39,-14.75 0,-3.52 0.81,-6.73 2.41,-9.65 1.61,-2.91 3.72,-5.23 6.31,-6.98 2.62,-1.76 5.53,-3.11 8.79,-4.01 2.41,-0.62 6.04,-1.22 10.87,-1.83 9.86,-1.15 17.15,-2.56 21.8,-4.18 0.04,-1.67 0.06,-2.73 0.06,-3.17 0,-4.95 -1.15,-8.44 -3.47,-10.48 -3.12,-2.75 -7.77,-4.12 -13.92,-4.12 -5.76,0 -10.02,1.02 -12.75,3.03 -2.75,2.02 -4.76,5.58 -6.08,10.71l-11.94 -1.66c1.09,-5.11 2.87,-9.26 5.37,-12.4 2.5,-3.15 6.11,-5.55 10.82,-7.26 4.7,-1.69 10.18,-2.55 16.38,-2.55 6.16,0 11.18,0.72 15.04,2.17 3.84,1.46 6.68,3.27 8.49,5.46 1.8,2.2 3.07,4.98 3.82,8.33 0.39,2.08 0.6,5.83 0.6,11.22l0 16.19c0,11.32 0.25,18.46 0.76,21.49 0.49,3.03 1.5,5.93 2.99,8.7l-12.78 0c-1.22,-2.57 -2.01,-5.57 -2.35,-9.02zm-0.98 -27.07c-4.44,1.81 -11.1,3.34 -19.98,4.59 -5.04,0.71 -8.61,1.52 -10.69,2.43 -2.08,0.9 -3.68,2.22 -4.81,3.93 -1.14,1.73 -1.71,3.65 -1.71,5.78 0,3.22 1.22,5.92 3.7,8.07 2.47,2.15 6.08,3.24 10.82,3.24 4.7,0 8.89,-1.01 12.56,-3.08 3.66,-2.03 6.37,-4.83 8.08,-8.37 1.32,-2.75 1.97,-6.8 1.97,-12.14l0.06 -4.45zm31.12 36.09l0 -72.03 10.96 0 0 10.22c5.28,-7.84 12.91,-11.75 22.88,-11.75 4.35,0 8.33,0.79 11.96,2.34 3.63,1.55 6.36,3.61 8.17,6.13 1.8,2.52 3.07,5.52 3.79,9 0.44,2.26 0.67,6.22 0.67,11.86l0 44.23 -12.21 0 0 -43.76c0,-4.98 -0.46,-8.7 -1.42,-11.16 -0.94,-2.45 -2.63,-4.41 -5.04,-5.89 -2.4,-1.46 -5.25,-2.2 -8.49,-2.2 -5.18,0 -9.64,1.64 -13.41,4.95 -3.77,3.29 -5.65,9.55 -5.65,18.76l0 39.3 -12.21 0zm77.19 -85.5l0 -13.87 12.22 0 0 13.87 -12.22 0zm0 85.5l0 -72.03 12.22 0 0 72.03 -12.22 0zm126.26 -11.79c-4.02,4.44 -8.42,7.77 -13.16,9.99 -4.75,2.22 -9.88,3.33 -15.41,3.33 -10.18,0 -18.25,-3.42 -24.22,-10.27 -4.83,-5.6 -7.26,-11.82 -7.26,-18.72 0,-6.13 1.96,-11.66 5.92,-16.58 3.95,-4.95 9.88,-9.28 17.72,-13.03 -4.51,-5.13 -7.52,-9.32 -9.02,-12.53 -1.51,-3.2 -2.27,-6.29 -2.27,-9.28 0,-5.97 2.34,-11.15 7.03,-15.54 4.68,-4.42 10.57,-6.62 17.7,-6.62 6.78,0 12.35,2.08 16.68,6.25 4.32,4.16 6.47,9.18 6.47,15.01 0,9.46 -6.29,17.56 -18.9,24.24l18 22.58c2.06,-3.98 3.66,-8.58 4.79,-13.83l12.63 2.72c-2.17,8.66 -5.11,15.73 -8.84,21.26 4.56,6.04 9.74,11.11 15.5,15.22l-8.19 9.67c-4.9,-3.12 -9.94,-7.77 -15.17,-13.87zm-24.98 -51.62c5.32,-3.14 8.74,-5.87 10.31,-8.23 1.58,-2.36 2.36,-4.97 2.36,-7.84 0,-3.4 -1.08,-6.18 -3.23,-8.33 -2.16,-2.15 -4.86,-3.24 -8.08,-3.24 -3.31,0 -6.08,1.07 -8.28,3.19 -2.2,2.13 -3.31,4.75 -3.31,7.85 0,1.52 0.39,3.16 1.2,4.85 0.79,1.72 1.97,3.52 3.57,5.42l5.46 6.33zm17.21 42.08l-22.26 -27.78c-6.61,3.91 -11.08,7.54 -13.37,10.9 -2.31,3.35 -3.47,6.66 -3.47,9.94 0,4 1.6,8.17 4.82,12.49 3.19,4.33 7.72,6.48 13.57,6.48 3.66,0 7.45,-1.11 11.34,-3.35 3.91,-2.25 7.03,-5.14 9.37,-8.68zm65.02 21.33l38.12 -99.37 14.46 0 40.46 99.37 -14.97 0 -11.49 -30.12 -41.85 0 -10.78 30.12 -13.95 0zm28.59 -40.8l33.87 0 -10.36 -27.56c-3.13,-8.37 -5.49,-15.29 -7.13,-20.74 -1.36,6.47 -3.19,12.83 -5.48,19.13l-10.9 29.17zm68.5 19.29l12.07 -1.95c0.67,4.84 2.57,8.54 5.67,11.13 3.1,2.57 7.45,3.87 13,3.87 5.62,0 9.78,-1.14 12.51,-3.43 2.71,-2.27 4.08,-4.95 4.08,-8.03 0,-2.75 -1.23,-4.92 -3.66,-6.5 -1.71,-1.08 -5.87,-2.45 -12.49,-4.14 -8.93,-2.24 -15.1,-4.18 -18.58,-5.83 -3.44,-1.66 -6.06,-3.93 -7.84,-6.84 -1.78,-2.89 -2.68,-6.11 -2.68,-9.62 0,-3.22 0.74,-6.18 2.2,-8.91 1.48,-2.73 3.47,-5 5.99,-6.8 1.9,-1.39 4.49,-2.57 7.75,-3.54 3.28,-0.97 6.78,-1.46 10.52,-1.46 5.65,0 10.6,0.81 14.86,2.45 4.27,1.62 7.42,3.84 9.45,6.62 2.02,2.8 3.43,6.52 4.19,11.19l-11.93 1.67c-0.54,-3.75 -2.11,-6.68 -4.7,-8.79 -2.59,-2.11 -6.25,-3.14 -10.99,-3.14 -5.57,0 -9.57,0.92 -11.96,2.77 -2.38,1.85 -3.58,4.03 -3.58,6.5 0,1.57 0.48,3.01 1.48,4.28 0.99,1.3 2.54,2.38 4.67,3.24 1.23,0.46 4.79,1.5 10.76,3.12 8.6,2.29 14.62,4.19 18.04,5.64 3.42,1.46 6.11,3.61 8.05,6.39 1.97,2.8 2.94,6.27 2.94,10.43 0,4.05 -1.18,7.87 -3.56,11.45 -2.39,3.59 -5.81,6.36 -10.28,8.33 -4.48,1.97 -9.55,2.94 -15.19,2.94 -9.35,0 -16.5,-1.95 -21.4,-5.81 -4.9,-3.88 -8.03,-9.62 -9.39,-17.23zm69.4 0l12.07 -1.95c0.67,4.84 2.57,8.54 5.67,11.13 3.1,2.57 7.45,3.87 13,3.87 5.62,0 9.78,-1.14 12.51,-3.43 2.71,-2.27 4.07,-4.95 4.07,-8.03 0,-2.75 -1.22,-4.92 -3.65,-6.5 -1.71,-1.08 -5.88,-2.45 -12.49,-4.14 -8.93,-2.24 -15.11,-4.18 -18.58,-5.83 -3.45,-1.66 -6.06,-3.93 -7.84,-6.84 -1.78,-2.89 -2.68,-6.11 -2.68,-9.62 0,-3.22 0.74,-6.18 2.19,-8.91 1.49,-2.73 3.47,-5 5.99,-6.8 1.9,-1.39 4.49,-2.57 7.76,-3.54 3.28,-0.97 6.77,-1.46 10.52,-1.46 5.65,0 10.6,0.81 14.85,2.45 4.28,1.62 7.43,3.84 9.46,6.62 2.01,2.8 3.43,6.52 4.19,11.19l-11.94 1.67c-0.53,-3.75 -2.1,-6.68 -4.69,-8.79 -2.59,-2.11 -6.25,-3.14 -10.99,-3.14 -5.57,0 -9.58,0.92 -11.96,2.77 -2.38,1.85 -3.59,4.03 -3.59,6.5 0,1.57 0.49,3.01 1.49,4.28 0.99,1.3 2.54,2.38 4.67,3.24 1.22,0.46 4.79,1.5 10.75,3.12 8.61,2.29 14.62,4.19 18.05,5.64 3.42,1.46 6.1,3.61 8.05,6.39 1.97,2.8 2.93,6.27 2.93,10.43 0,4.05 -1.17,7.87 -3.56,11.45 -2.38,3.59 -5.8,6.36 -10.27,8.33 -4.49,1.97 -9.55,2.94 -15.2,2.94 -9.34,0 -16.49,-1.95 -21.39,-5.81 -4.91,-3.88 -8.03,-9.62 -9.39,-17.23zm69.67 -14.51c0,-13.3 3.7,-23.15 11.13,-29.56 6.17,-5.32 13.74,-7.98 22.64,-7.98 9.88,0 17.98,3.24 24.27,9.72 6.27,6.45 9.41,15.4 9.41,26.81 0,9.25 -1.38,16.51 -4.16,21.81 -2.78,5.3 -6.82,9.42 -12.14,12.35 -5.3,2.94 -11.11,4.4 -17.38,4.4 -10.08,0 -18.22,-3.22 -24.45,-9.67 -6.22,-6.45 -9.32,-15.75 -9.32,-27.88zm12.49 0.03c0,9.2 2.01,16.1 6.04,20.66 4.05,4.58 9.11,6.87 15.24,6.87 6.07,0 11.11,-2.29 15.16,-6.9 4.02,-4.6 6.03,-11.61 6.03,-21.03 0,-8.88 -2.03,-15.61 -6.08,-20.17 -4.05,-4.58 -9.09,-6.87 -15.11,-6.87 -6.13,0 -11.19,2.27 -15.24,6.83 -4.03,4.56 -6.04,11.42 -6.04,20.61zm116.34 9.62l11.93 1.67c-1.32,8.21 -4.65,14.62 -10.04,19.27 -5.39,4.65 -12.03,6.96 -19.87,6.96 -9.83,0 -17.74,-3.22 -23.71,-9.65 -5.99,-6.43 -8.97,-15.64 -8.97,-27.62 0,-7.77 1.29,-14.55 3.86,-20.38 2.57,-5.8 6.47,-10.17 11.75,-13.07 5.25,-2.91 10.97,-4.37 17.16,-4.37 7.8,0 14.21,1.97 19.16,5.92 4.97,3.96 8.16,9.58 9.55,16.84l-11.8 1.81c-1.13,-4.84 -3.12,-8.47 -6.01,-10.92 -2.87,-2.43 -6.34,-3.65 -10.41,-3.65 -6.15,0 -11.15,2.19 -15.01,6.59 -3.84,4.42 -5.76,11.35 -5.76,20.88 0,9.67 1.85,16.68 5.55,21.06 3.72,4.37 8.56,6.57 14.5,6.57 4.81,0 8.82,-1.46 12.01,-4.4 3.21,-2.92 5.25,-7.42 6.11,-13.51zm22.34 -59.13l0 -13.87 12.22 0 0 13.87 -12.22 0zm0 85.5l0 -72.03 12.22 0 0 72.03 -12.22 0zm77.89 -9.02c-4.54,3.86 -8.91,6.57 -13.1,8.17 -4.18,1.59 -8.67,2.38 -13.48,2.38 -7.91,0 -14,-1.92 -18.25,-5.79 -4.26,-3.84 -6.39,-8.76 -6.39,-14.75 0,-3.52 0.81,-6.73 2.41,-9.65 1.62,-2.91 3.72,-5.23 6.31,-6.98 2.62,-1.76 5.53,-3.11 8.79,-4.01 2.41,-0.62 6.04,-1.22 10.88,-1.83 9.85,-1.15 17.14,-2.56 21.79,-4.18 0.04,-1.67 0.06,-2.73 0.06,-3.17 0,-4.95 -1.15,-8.44 -3.46,-10.48 -3.13,-2.75 -7.78,-4.12 -13.93,-4.12 -5.76,0 -10.02,1.02 -12.75,3.03 -2.75,2.02 -4.76,5.58 -6.08,10.71l-11.94 -1.66c1.09,-5.11 2.87,-9.26 5.37,-12.4 2.5,-3.15 6.11,-5.55 10.83,-7.26 4.69,-1.69 10.18,-2.55 16.37,-2.55 6.16,0 11.18,0.72 15.04,2.17 3.84,1.46 6.69,3.27 8.49,5.46 1.8,2.2 3.08,4.98 3.82,8.33 0.39,2.08 0.6,5.83 0.6,11.22l0 16.19c0,11.32 0.25,18.46 0.76,21.49 0.49,3.03 1.51,5.93 2.99,8.7l-12.77 0c-1.23,-2.57 -2.02,-5.57 -2.36,-9.02zm-0.98 -27.07c-4.44,1.81 -11.1,3.34 -19.98,4.59 -5.04,0.71 -8.61,1.52 -10.69,2.43 -2.08,0.9 -3.68,2.22 -4.81,3.93 -1.13,1.73 -1.71,3.65 -1.71,5.78 0,3.22 1.22,5.92 3.7,8.07 2.47,2.15 6.08,3.24 10.83,3.24 4.69,0 8.88,-1.01 12.56,-3.08 3.65,-2.03 6.36,-4.83 8.07,-8.37 1.32,-2.75 1.97,-6.8 1.97,-12.14l0.06 -4.45zm57.63 25.2l1.67 10.78c-3.43,0.71 -6.51,1.08 -9.19,1.08 -4.42,0 -7.84,-0.69 -10.29,-2.1 -2.43,-1.41 -4.14,-3.24 -5.14,-5.53 -0.99,-2.29 -1.48,-7.1 -1.48,-14.43l0 -41.51 -9.02 0 0 -9.43 9.02 0 0 -17.81 12.22 -7.34 0 25.15 12.21 0 0 9.43 -12.21 0 0 42.2c0,3.49 0.2,5.73 0.64,6.73 0.42,1 1.11,1.78 2.09,2.38 0.97,0.58 2.36,0.88 4.16,0.88 1.34,0 3.12,-0.16 5.32,-0.48zm61.19 -12.42l12.63 1.66c-1.97,7.33 -5.65,13.05 -11.01,17.09 -5.37,4.05 -12.22,6.09 -20.57,6.09 -10.5,0 -18.83,-3.24 -24.98,-9.72 -6.16,-6.45 -9.23,-15.54 -9.23,-27.22 0,-12.08 3.1,-21.47 9.32,-28.13 6.22,-6.69 14.3,-10.02 24.22,-10.02 9.6,0 17.44,3.26 23.52,9.81 6.09,6.55 9.14,15.75 9.14,27.62 0,0.72 -0.02,1.8 -0.07,3.24l-53.64 0c0.46,7.89 2.68,13.95 6.71,18.13 4,4.19 9.02,6.3 15.01,6.3 4.47,0 8.28,-1.18 11.43,-3.54 3.17,-2.36 5.66,-6.13 7.52,-11.31zm-39.98 -19.58l40.11 0c-0.53,-6.06 -2.08,-10.59 -4.6,-13.62 -3.86,-4.7 -8.9,-7.05 -15.08,-7.05 -5.6,0 -10.29,1.87 -14.11,5.61 -3.8,3.75 -5.9,8.77 -6.32,15.06zm63.18 21.38l12.07 -1.95c0.67,4.84 2.57,8.54 5.67,11.13 3.1,2.57 7.45,3.87 13,3.87 5.62,0 9.79,-1.14 12.52,-3.43 2.7,-2.27 4.07,-4.95 4.07,-8.03 0,-2.75 -1.23,-4.92 -3.66,-6.5 -1.71,-1.08 -5.87,-2.45 -12.49,-4.14 -8.93,-2.24 -15.1,-4.18 -18.57,-5.83 -3.45,-1.66 -6.07,-3.93 -7.85,-6.84 -1.78,-2.89 -2.68,-6.11 -2.68,-9.62 0,-3.22 0.74,-6.18 2.2,-8.91 1.48,-2.73 3.47,-5 5.99,-6.8 1.9,-1.39 4.49,-2.57 7.75,-3.54 3.28,-0.97 6.78,-1.46 10.53,-1.46 5.64,0 10.59,0.81 14.85,2.45 4.28,1.62 7.42,3.84 9.46,6.62 2.01,2.8 3.42,6.52 4.18,11.19l-11.93 1.67c-0.54,-3.75 -2.11,-6.68 -4.7,-8.79 -2.59,-2.11 -6.25,-3.14 -10.99,-3.14 -5.57,0 -9.57,0.92 -11.96,2.77 -2.38,1.85 -3.58,4.03 -3.58,6.5 0,1.57 0.48,3.01 1.48,4.28 0.99,1.3 2.54,2.38 4.67,3.24 1.23,0.46 4.79,1.5 10.76,3.12 8.6,2.29 14.62,4.19 18.04,5.64 3.42,1.46 6.11,3.61 8.05,6.39 1.97,2.8 2.94,6.27 2.94,10.43 0,4.05 -1.18,7.87 -3.56,11.45 -2.39,3.59 -5.81,6.36 -10.27,8.33 -4.49,1.97 -9.56,2.94 -15.2,2.94 -9.35,0 -16.49,-1.95 -21.4,-5.81 -4.9,-3.88 -8.03,-9.62 -9.39,-17.23z"/>
    <path class="fil1 str0" d="M1152.74 2274.63l13.94 3.52c-2.91,11.42 -8.14,20.1 -15.7,26.09 -7.55,5.99 -16.8,9 -27.73,9 -11.29,0 -20.49,-2.3 -27.58,-6.92 -7.09,-4.6 -12.47,-11.27 -16.17,-20 -3.69,-8.76 -5.55,-18.12 -5.55,-28.15 0,-10.93 2.08,-20.47 6.26,-28.61 4.19,-8.14 10.13,-14.33 17.83,-18.56 7.7,-4.23 16.19,-6.33 25.43,-6.33 10.52,0 19.34,2.66 26.49,8.02 7.16,5.35 12.15,12.86 14.96,22.54l-13.64 3.23c-2.42,-7.63 -5.97,-13.2 -10.59,-16.68 -4.62,-3.49 -10.44,-5.23 -17.46,-5.23 -8.05,0 -14.8,1.93 -20.2,5.8 -5.41,3.86 -9.22,9.07 -11.4,15.57 -2.2,6.53 -3.3,13.26 -3.3,20.18 0,8.92 1.3,16.72 3.89,23.38 2.59,6.67 6.63,11.63 12.1,14.94 5.48,3.3 11.4,4.94 17.78,4.94 7.78,0 14.33,-2.25 19.71,-6.73 5.38,-4.5 9.03,-11.15 10.93,-20zm19.62 36.85l40.3 -105.05 15.28 0 42.77 105.05 -15.82 0 -12.16 -31.84 -44.23 0 -11.4 31.84 -14.74 0zm30.22 -43.14l35.8 0 -10.95 -29.12c-3.31,-8.85 -5.8,-16.16 -7.54,-21.94 -1.44,6.85 -3.37,13.58 -5.79,20.23l-11.52 30.83zm111.83 43.14l0 -105.05 39.66 0c6.97,0 12.3,0.34 16,1 5.15,0.85 9.48,2.49 12.98,4.89 3.5,2.42 6.31,5.79 8.44,10.12 2.12,4.33 3.18,9.1 3.18,14.31 0,8.9 -2.84,16.46 -8.54,22.62 -5.67,6.19 -15.97,9.27 -30.83,9.27l-26.95 0 0 42.84 -13.94 0zm13.94 -55.17l27.14 0c9,0 15.36,-1.66 19.15,-5.01 3.76,-3.35 5.65,-8.05 5.65,-14.13 0,-4.38 -1.1,-8.15 -3.33,-11.28 -2.22,-3.13 -5.16,-5.21 -8.78,-6.21 -2.34,-0.61 -6.67,-0.93 -12.96,-0.93l-26.87 0 0 37.56zm82.31 -35.21l0 -14.67 12.91 0 0 14.67 -12.91 0zm0 90.38l0 -76.15 12.91 0 0 76.15 -12.91 0zm32.01 29.27l-1.47 -11.93c2.84,0.76 5.28,1.15 7.39,1.15 2.88,0 5.18,-0.49 6.89,-1.44 1.74,-0.96 3.16,-2.3 4.26,-4.01 0.81,-1.3 2.13,-4.51 3.94,-9.64 0.24,-0.71 0.61,-1.76 1.14,-3.16l-28.9 -76.39 13.79 0 15.9 43.97c2.08,5.55 3.91,11.42 5.55,17.58 1.49,-5.79 3.25,-11.52 5.31,-17.14l16.23 -44.41 12.89 0 -28.78 77.47c-3.11,8.34 -5.53,14.06 -7.27,17.22 -2.3,4.23 -4.94,7.33 -7.9,9.31 -2.98,1.99 -6.52,2.96 -10.63,2.96 -2.5,0 -5.28,-0.51 -8.34,-1.54zm123.69 -29.27l0 -11.32c-5.92,8.63 -13.94,12.94 -24.09,12.94 -4.47,0 -8.66,-0.86 -12.54,-2.57 -3.89,-1.74 -6.78,-3.89 -8.66,-6.48 -1.88,-2.62 -3.21,-5.8 -3.96,-9.56 -0.52,-2.55 -0.78,-6.56 -0.78,-12.04l0 -47.12 12.91 0 0 42.13c0,6.73 0.27,11.28 0.78,13.6 0.81,3.4 2.52,6.04 5.16,7.97 2.62,1.94 5.84,2.91 9.71,2.91 3.86,0 7.48,-0.97 10.85,-2.95 3.38,-1.99 5.78,-4.7 7.19,-8.1 1.4,-3.4 2.11,-8.36 2.11,-14.84l0 -40.72 12.91 0 0 76.15 -11.59 0zm26.73 -22.74l12.76 -2.05c0.71,5.11 2.72,9.02 5.99,11.76 3.28,2.71 7.88,4.08 13.74,4.08 5.95,0 10.35,-1.2 13.24,-3.62 2.86,-2.39 4.3,-5.23 4.3,-8.48 0,-2.91 -1.3,-5.21 -3.87,-6.87 -1.8,-1.16 -6.21,-2.6 -13.2,-4.38 -9.44,-2.38 -15.97,-4.43 -19.64,-6.16 -3.64,-1.76 -6.4,-4.16 -8.29,-7.24 -1.88,-3.06 -2.83,-6.46 -2.83,-10.18 0,-3.4 0.78,-6.53 2.32,-9.41 1.56,-2.89 3.67,-5.28 6.33,-7.19 2.01,-1.47 4.75,-2.71 8.2,-3.74 3.47,-1.03 7.16,-1.54 11.12,-1.54 5.97,0 11.2,0.85 15.7,2.59 4.52,1.71 7.85,4.06 10,6.99 2.13,2.96 3.62,6.9 4.43,11.84l-12.62 1.76c-0.56,-3.96 -2.23,-7.07 -4.96,-9.29 -2.74,-2.23 -6.61,-3.33 -11.62,-3.33 -5.89,0 -10.12,0.98 -12.64,2.94 -2.52,1.95 -3.79,4.25 -3.79,6.87 0,1.66 0.51,3.18 1.56,4.52 1.06,1.37 2.69,2.52 4.94,3.42 1.3,0.49 5.07,1.59 11.38,3.31 9.09,2.42 15.45,4.42 19.07,5.96 3.62,1.54 6.45,3.82 8.51,6.75 2.08,2.96 3.1,6.63 3.1,11.03 0,4.28 -1.24,8.32 -3.76,12.1 -2.52,3.8 -6.14,6.73 -10.86,8.81 -4.75,2.08 -10.1,3.11 -16.06,3.11 -9.89,0 -17.44,-2.06 -22.63,-6.14 -5.18,-4.11 -8.48,-10.18 -9.92,-18.22zm78.49 22.74l0 -105.05 12.92 0 0 37.8c5.99,-7.02 13.54,-10.51 22.69,-10.51 5.6,0 10.46,1.1 14.62,3.32 4.14,2.23 7.09,5.28 8.88,9.2 1.78,3.91 2.66,9.61 2.66,17.04l0 48.2 -12.91 0 0 -48.15c0,-6.43 -1.39,-11.13 -4.15,-14.06 -2.79,-2.93 -6.71,-4.4 -11.79,-4.4 -3.79,0 -7.36,0.98 -10.71,2.96 -3.35,1.98 -5.73,4.67 -7.17,8.07 -1.42,3.37 -2.12,8.04 -2.12,14.01l0 41.57 -12.92 0zm119.44 -33.74l13.05 -1.18c0.62,5.28 2.06,9.61 4.33,13.01 2.28,3.37 5.8,6.11 10.57,8.22 4.76,2.08 10.15,3.13 16.11,3.13 5.31,0 9.98,-0.79 14.04,-2.38 4.06,-1.59 7.07,-3.76 9.05,-6.52 1.98,-2.77 2.98,-5.78 2.98,-9 0,-3.28 -0.95,-6.14 -2.86,-8.61 -1.91,-2.45 -5.06,-4.5 -9.47,-6.19 -2.81,-1.07 -9.04,-2.78 -18.7,-5.11 -9.66,-2.32 -16.41,-4.5 -20.28,-6.55 -5.01,-2.64 -8.72,-5.92 -11.17,-9.81 -2.47,-3.89 -3.69,-8.27 -3.69,-13.08 0,-5.33 1.51,-10.3 4.52,-14.89 3.01,-4.62 7.39,-8.12 13.18,-10.52 5.77,-2.4 12.21,-3.59 19.27,-3.59 7.78,0 14.65,1.24 20.59,3.76 5.94,2.5 10.52,6.19 13.72,11.08 3.21,4.87 4.92,10.39 5.16,16.55l-13.35 1.03c-0.71,-6.62 -3.13,-11.64 -7.26,-15.01 -4.14,-3.4 -10.25,-5.09 -18.32,-5.09 -8.41,0 -14.55,1.54 -18.39,4.62 -3.84,3.09 -5.77,6.8 -5.77,11.15 0,3.77 1.37,6.88 4.08,9.32 2.69,2.42 9.66,4.94 20.96,7.48 11.3,2.57 19.05,4.8 23.26,6.7 6.08,2.82 10.61,6.36 13.52,10.69 2.91,4.31 4.35,9.27 4.35,14.89 0,5.6 -1.59,10.84 -4.79,15.78 -3.2,4.94 -7.78,8.78 -13.77,11.51 -5.99,2.74 -12.72,4.11 -20.22,4.11 -9.49,0 -17.44,-1.39 -23.84,-4.16 -6.44,-2.76 -11.45,-6.91 -15.09,-12.49 -3.67,-5.55 -5.58,-11.84 -5.77,-18.85zm150.53 24.2c-4.79,4.09 -9.41,6.95 -13.84,8.64 -4.42,1.68 -9.17,2.52 -14.25,2.52 -8.37,0 -14.8,-2.04 -19.3,-6.12 -4.5,-4.06 -6.75,-9.27 -6.75,-15.6 0,-3.72 0.86,-7.12 2.55,-10.2 1.71,-3.08 3.93,-5.52 6.67,-7.38 2.77,-1.86 5.85,-3.28 9.29,-4.23 2.55,-0.66 6.39,-1.3 11.5,-1.94 10.42,-1.22 18.12,-2.71 23.04,-4.42 0.04,-1.76 0.07,-2.89 0.07,-3.35 0,-5.24 -1.23,-8.93 -3.67,-11.08 -3.3,-2.91 -8.22,-4.35 -14.72,-4.35 -6.09,0 -10.59,1.07 -13.48,3.2 -2.91,2.13 -5.03,5.9 -6.43,11.33l-12.62 -1.77c1.15,-5.4 3.04,-9.78 5.68,-13.1 2.64,-3.33 6.45,-5.87 11.44,-7.68 4.97,-1.79 10.76,-2.69 17.31,-2.69 6.51,0 11.82,0.76 15.9,2.29 4.06,1.55 7.07,3.46 8.98,5.78 1.9,2.32 3.25,5.26 4.03,8.8 0.41,2.2 0.64,6.16 0.64,11.86l0 17.12c0,11.96 0.26,19.51 0.8,22.72 0.52,3.2 1.59,6.26 3.16,9.19l-13.5 0c-1.3,-2.71 -2.13,-5.89 -2.5,-9.54zm-1.02 -28.61c-4.7,1.91 -11.74,3.53 -21.13,4.84 -5.33,0.76 -9.1,1.62 -11.3,2.57 -2.2,0.95 -3.89,2.35 -5.08,4.16 -1.2,1.83 -1.82,3.86 -1.82,6.11 0,3.4 1.3,6.26 3.92,8.54 2.61,2.27 6.43,3.42 11.44,3.42 4.97,0 9.39,-1.08 13.28,-3.25 3.86,-2.15 6.73,-5.11 8.54,-8.85 1.39,-2.91 2.08,-7.19 2.08,-12.84l0.07 -4.7zm32.89 38.15l0 -76.15 11.59 0 0 10.81c5.57,-8.29 13.64,-12.42 24.18,-12.42 4.6,0 8.81,0.83 12.65,2.47 3.84,1.64 6.72,3.81 8.63,6.48 1.91,2.66 3.25,5.84 4.01,9.51 0.46,2.4 0.71,6.58 0.71,12.55l0 46.75 -12.91 0 0 -46.27c0,-5.25 -0.49,-9.19 -1.5,-11.78 -1,-2.59 -2.78,-4.67 -5.33,-6.24 -2.54,-1.54 -5.55,-2.32 -8.97,-2.32 -5.48,0 -10.2,1.73 -14.18,5.23 -3.99,3.47 -5.97,10.1 -5.97,19.83l0 41.55 -12.91 0zm79.23 6.31l12.47 1.76c0.51,3.87 1.98,6.68 4.38,8.46 3.2,2.37 7.58,3.57 13.13,3.57 5.97,0 10.59,-1.2 13.84,-3.57 3.25,-2.37 5.45,-5.72 6.6,-10 0.66,-2.62 0.98,-8.12 0.93,-16.51 -5.65,6.66 -12.67,9.98 -21.08,9.98 -10.46,0 -18.58,-3.77 -24.31,-11.32 -5.74,-7.53 -8.6,-16.58 -8.6,-27.12 0,-7.26 1.32,-13.96 3.94,-20.1 2.61,-6.14 6.42,-10.86 11.42,-14.21 4.98,-3.35 10.85,-5.01 17.6,-5.01 8.98,0 16.38,3.67 22.2,11l0 -9.39 11.89 0 0 65.76c0,11.86 -1.2,20.25 -3.62,25.19 -2.39,4.93 -6.23,8.85 -11.44,11.71 -5.24,2.86 -11.67,4.3 -19.3,4.3 -9.07,0 -16.38,-2.03 -21.96,-6.11 -5.6,-4.06 -8.29,-10.2 -8.09,-18.39zm10.56 -45.68c0,9.95 1.98,17.22 5.94,21.79 3.99,4.57 8.95,6.87 14.92,6.87 5.94,0 10.91,-2.27 14.94,-6.82 4.01,-4.55 6.02,-11.69 6.02,-21.42 0,-9.3 -2.08,-16.32 -6.21,-21.04 -4.13,-4.71 -9.13,-7.06 -14.94,-7.06 -5.75,0 -10.62,2.32 -14.65,6.97 -4.01,4.64 -6.02,11.54 -6.02,20.71zm123.15 29.83c-4.79,4.09 -9.41,6.95 -13.84,8.64 -4.43,1.68 -9.17,2.52 -14.26,2.52 -8.36,0 -14.79,-2.04 -19.29,-6.12 -4.5,-4.06 -6.75,-9.27 -6.75,-15.6 0,-3.72 0.86,-7.12 2.55,-10.2 1.71,-3.08 3.93,-5.52 6.67,-7.38 2.76,-1.86 5.84,-3.28 9.29,-4.23 2.55,-0.66 6.39,-1.3 11.5,-1.94 10.41,-1.22 18.12,-2.71 23.03,-4.42 0.05,-1.76 0.08,-2.89 0.08,-3.35 0,-5.24 -1.23,-8.93 -3.67,-11.08 -3.3,-2.91 -8.22,-4.35 -14.72,-4.35 -6.09,0 -10.59,1.07 -13.48,3.2 -2.91,2.13 -5.04,5.9 -6.43,11.33l-12.62 -1.77c1.15,-5.4 3.03,-9.78 5.67,-13.1 2.65,-3.33 6.46,-5.87 11.45,-7.68 4.96,-1.79 10.76,-2.69 17.31,-2.69 6.51,0 11.81,0.76 15.9,2.29 4.06,1.55 7.07,3.46 8.97,5.78 1.91,2.32 3.26,5.26 4.04,8.8 0.41,2.2 0.63,6.16 0.63,11.86l0 17.12c0,11.96 0.27,19.51 0.81,22.72 0.51,3.2 1.59,6.26 3.16,9.19l-13.5 0c-1.3,-2.71 -2.13,-5.89 -2.5,-9.54zm-1.02 -28.61c-4.7,1.91 -11.74,3.53 -21.13,4.84 -5.33,0.76 -9.1,1.62 -11.3,2.57 -2.2,0.95 -3.89,2.35 -5.09,4.16 -1.2,1.83 -1.81,3.86 -1.81,6.11 0,3.4 1.3,6.26 3.92,8.54 2.61,2.27 6.43,3.42 11.44,3.42 4.96,0 9.39,-1.08 13.28,-3.25 3.86,-2.15 6.72,-5.11 8.53,-8.85 1.4,-2.91 2.08,-7.19 2.08,-12.84l0.08 -4.7zm32.89 38.15l0 -76.15 11.59 0 0 10.81c5.57,-8.29 13.64,-12.42 24.18,-12.42 4.6,0 8.81,0.83 12.64,2.47 3.84,1.64 6.73,3.81 8.64,6.48 1.9,2.66 3.25,5.84 4.01,9.51 0.46,2.4 0.71,6.58 0.71,12.55l0 46.75 -12.91 0 0 -46.27c0,-5.25 -0.5,-9.19 -1.5,-11.78 -1,-2.59 -2.78,-4.67 -5.33,-6.24 -2.54,-1.54 -5.55,-2.32 -8.97,-2.32 -5.48,0 -10.2,1.73 -14.19,5.23 -3.98,3.47 -5.96,10.1 -5.96,19.83l0 41.55 -12.91 0zm81.6 -90.38l0 -14.67 12.91 0 0 14.67 -12.91 0zm0 90.38l0 -76.15 12.91 0 0 76.15 -12.91 0z"/>
   </g>
  </g>
 </g>
</svg>
