<?xml version="1.0" encoding="UTF-8"?>
<!DOCTYPE svg PUBLIC "-//W3C//DTD SVG 1.1//EN" "http://www.w3.org/Graphics/SVG/1.1/DTD/svg11.dtd">
<!-- Creator: CorelDRAW 2021 (64-Bit) -->
<svg xmlns="http://www.w3.org/2000/svg" xml:space="preserve" width="33.8666mm" height="33.8666mm" version="1.1" style="shape-rendering:geometricPrecision; text-rendering:geometricPrecision; image-rendering:optimizeQuality; fill-rule:evenodd; clip-rule:evenodd"
viewBox="0 0 3386.66 3386.66"
 xmlns:xlink="http://www.w3.org/1999/xlink"
 xmlns:xodm="http://www.corel.com/coreldraw/odm/2003">
 <defs>
  <style type="text/css">
   <![CDATA[
    .str0 {stroke:#0F3F6B;stroke-width:18.86;stroke-linejoin:bevel;stroke-miterlimit:2.61313}
    .str1 {stroke:#0F3F6B;stroke-width:7.62;stroke-linecap:round;stroke-linejoin:round;stroke-miterlimit:2.61313}
    .fil0 {fill:none}
    .fil5 {fill:#FEFEFE}
    .fil3 {fill:#61A346}
    .fil4 {fill:#0F3F6B}
    .fil2 {fill:#61A346;fill-rule:nonzero}
    .fil1 {fill:#0F3F6B;fill-rule:nonzero}
   ]]>
  </style>
 </defs>
 <g id="Layer_x0020_1">
  <metadata id="CorelCorpID_0Corel-Layer"/>
  <g id="_1358001588912">
   <path class="fil0 str0" d="M1011.52 1717.31c5.39,0 10.59,-0.62 15.6,-1.9 4.97,-1.24 9.68,-2.99 14.17,-5.33 4.49,-2.32 8.64,-5.08 12.45,-8.32 3.81,-3.17 7.21,-6.78 10.16,-10.77l25.86 22.28c-4.54,5.75 -9.69,10.98 -15.41,15.72 -5.73,4.72 -11.92,8.75 -18.6,12.08 -6.68,3.37 -13.69,5.94 -21.09,7.74 -7.44,1.81 -15.12,2.71 -23.14,2.71 -9.2,0 -18.12,-1.18 -26.61,-3.56 -8.53,-2.33 -16.5,-5.7 -24,-10.08 -7.43,-4.37 -14.16,-9.55 -20.22,-15.59 -6.06,-6.02 -11.26,-12.78 -15.64,-20.19 -4.39,-7.41 -7.78,-15.35 -10.12,-23.85 -2.39,-8.51 -3.58,-17.35 -3.58,-26.52 0,-9.17 1.19,-18.01 3.58,-26.52 2.34,-8.5 5.73,-16.44 10.12,-23.85 4.38,-7.42 9.58,-14.16 15.64,-20.2 6.06,-6.03 12.79,-11.22 20.22,-15.59 7.5,-4.36 15.47,-7.74 24,-10.07 8.49,-2.38 17.41,-3.57 26.61,-3.57 8.02,0 15.7,0.91 23.14,2.71 7.4,1.81 14.41,4.38 21.09,7.75 6.68,3.32 12.87,7.32 18.6,12.02 5.72,4.66 10.87,9.88 15.41,15.64l-25.86 22.43c-2.95,-3.99 -6.35,-7.61 -10.16,-10.89 -3.81,-3.22 -7.96,-5.98 -12.45,-8.26 -4.49,-2.28 -9.2,-4.05 -14.17,-5.28 -5.01,-1.28 -10.21,-1.9 -15.6,-1.9 -9.06,0 -17.55,1.71 -25.57,5.13 -8.01,3.47 -15.02,8.13 -20.98,14.07 -5.97,5.94 -10.64,12.88 -14.13,20.82 -3.42,7.93 -5.14,16.48 -5.14,25.56 0,8.98 1.72,17.49 5.14,25.47 3.49,7.99 8.16,14.97 14.13,20.91 5.96,5.94 12.97,10.6 20.98,14.07 8.02,3.42 16.51,5.13 25.57,5.13zm203.26 -165.38l0.96 2.76 -19.57 50.18 -27.09 68.52 54.1 0 -13.03 -32.44 19.56 -50.24 62.48 160.67 -40.26 0 -14.78 -40.91 -82.05 0 -16.78 40.91 -39.12 0 77.28 -199.45 38.3 0zm138.66 199.64l-38.35 0 0 -199.64 73.41 0c17.8,0 33.05,6.27 45.7,18.83 12.97,12.58 19.46,27.75 19.46,45.38l0 2.61c0,17.62 -6.49,32.79 -19.46,45.38 -12.73,12.45 -28.01,18.68 -45.7,18.68l-35.06 0 0 68.76zm31.29 -105.83c8.02,0 14.65,-2.66 19.85,-7.99 5.34,-5.17 7.97,-11.82 7.97,-19.81 0,-8.03 -2.63,-14.87 -7.97,-20.57 -5.3,-5.57 -11.93,-8.36 -19.85,-8.36l-31.29 0 0 56.73 31.29 0zm92.07 -93.81l37.2 0 0 199.64 -37.2 0 0 -199.64zm212.06 0l0 37.35 -18.12 0 -36.63 0 0 162.34 -39.21 0 0 -162.34 -35.63 0 -18.18 0 0 -37.35 147.77 0zm102.23 0l0.96 2.76 -19.56 50.18 -27.09 68.52 54.1 0 -13.03 -32.44 19.56 -50.24 62.49 160.67 -40.27 0 -14.78 -40.91 -82.04 0 -16.8 40.91 -39.11 0 77.28 -199.45 38.29 0zm137.53 0l0 163.38 73.94 0 0 36.21 -111.15 0 0 -199.59 37.21 0z"/>
   <path class="fil1" d="M1011.53 1717.26c5.39,0 10.59,-0.62 15.6,-1.9 4.96,-1.23 9.68,-2.99 14.17,-5.32 4.48,-2.33 8.63,-5.09 12.45,-8.32 3.81,-3.18 7.2,-6.79 10.16,-10.78l25.85 22.28c-4.53,5.75 -9.68,10.98 -15.41,15.73 -5.72,4.71 -11.92,8.74 -18.6,12.07 -6.68,3.38 -13.69,5.95 -21.09,7.75 -7.43,1.8 -15.11,2.7 -23.13,2.7 -9.2,0 -18.12,-1.18 -26.62,-3.56 -8.53,-2.33 -16.5,-5.7 -23.99,-10.08 -7.44,-4.36 -14.17,-9.54 -20.22,-15.58 -6.06,-6.03 -11.27,-12.78 -15.65,-20.2 -4.39,-7.41 -7.77,-15.34 -10.11,-23.85 -2.39,-8.5 -3.58,-17.35 -3.58,-26.52 0,-9.17 1.19,-18.01 3.58,-26.51 2.34,-8.51 5.72,-16.45 10.11,-23.86 4.38,-7.41 9.59,-14.16 15.65,-20.19 6.05,-6.04 12.78,-11.22 20.22,-15.59 7.49,-4.37 15.46,-7.75 23.99,-10.08 8.5,-2.37 17.42,-3.56 26.62,-3.56 8.02,0 15.7,0.9 23.13,2.71 7.4,1.81 14.41,4.37 21.09,7.74 6.68,3.33 12.88,7.33 18.6,12.03 5.73,4.66 10.88,9.88 15.41,15.63l-25.85 22.43c-2.96,-3.99 -6.35,-7.61 -10.16,-10.88 -3.82,-3.23 -7.97,-5.99 -12.45,-8.27 -4.49,-2.28 -9.21,-4.04 -14.17,-5.27 -5.01,-1.29 -10.21,-1.91 -15.6,-1.91 -9.06,0 -17.55,1.71 -25.57,5.14 -8.01,3.47 -15.02,8.13 -20.98,14.06 -5.97,5.95 -10.64,12.88 -14.13,20.82 -3.43,7.94 -5.15,16.49 -5.15,25.56 0,8.98 1.72,17.49 5.15,25.47 3.49,7.99 8.16,14.97 14.13,20.91 5.96,5.94 12.97,10.6 20.98,14.07 8.02,3.42 16.51,5.13 25.57,5.13zm203.26 -165.37l0.95 2.75 -19.56 50.18 -27.09 68.53 54.09 0 -13.02 -32.45 19.56 -50.23 62.48 160.66 -40.26 0 -14.78 -40.91 -82.05 0 -16.79 40.91 -39.11 0 77.27 -199.44 38.31 0zm138.66 199.64l-38.35 0 0 -199.64 73.41 0c17.79,0 33.05,6.27 45.7,18.82 12.97,12.59 19.46,27.75 19.46,45.38l0 2.61c0,17.63 -6.49,32.79 -19.46,45.39 -12.74,12.45 -28.01,18.67 -45.7,18.67l-35.06 0 0 68.77zm31.29 -105.84c8.01,0 14.65,-2.65 19.84,-7.98 5.35,-5.17 7.97,-11.83 7.97,-19.81 0,-8.04 -2.62,-14.88 -7.97,-20.58 -5.29,-5.56 -11.92,-8.36 -19.84,-8.36l-31.29 0 0 56.73 31.29 0zm92.06 -93.8l37.21 0 0 199.64 -37.21 0 0 -199.64zm212.07 0l0 37.35 -18.12 0 -36.63 0 0 162.33 -39.21 0 0 -162.33 -35.63 0 -18.18 0 0 -37.35 147.77 0zm102.23 0l0.96 2.75 -19.56 50.18 -27.1 68.53 54.1 0 -13.03 -32.45 19.57 -50.23 62.48 160.66 -40.26 0 -14.78 -40.91 -82.05 0 -16.79 40.91 -39.12 0 77.28 -199.44 38.3 0zm137.53 0l0 163.38 73.93 0 0 36.2 -111.14 0 0 -199.58 37.21 0z"/>
   <g>
    <path class="fil2" d="M2224.39 1713.67l1.38 5.38 0.03 0 -0.49 0.12 -0.5 0.12 -0.5 0.12 -0.5 0.1 -0.48 0.1 -0.5 0.11 -0.52 0.1 -0.47 0.09 -0.5 0.09 -0.52 0.09 -0.51 0.08 -0.52 0.08 -0.47 0.07 -0.52 0.07 -0.52 0.07 -0.48 0.06 -0.52 0.06 -0.52 0.05 -0.52 0.05 -0.52 0.05 -0.49 0.04 -0.5 0.04 -0.52 0.04 -0.55 0.03 -0.5 0.02 -0.5 0.03 -0.56 0.03 -0.53 0.01 -0.5 0.01 -0.5 0.01 -0.54 0.01 -0.53 0 0 -5.56 0.47 0 0.48 -0.01 0.5 -0.01 0.5 -0.01 0.47 -0.01 0.44 -0.01 0.5 -0.03 0.5 -0.02 0.43 -0.03 0.46 -0.04 0.5 -0.04 0.49 -0.04 0.46 -0.03 0.46 -0.05 0.46 -0.05 0.46 -0.06 0.48 -0.06 0.46 -0.05 0.44 -0.07 0.49 -0.07 0.46 -0.06 0.45 -0.08 0.44 -0.07 0.44 -0.09 0.49 -0.09 0.44 -0.08 0.44 -0.09 0.48 -0.1 0.44 -0.1 0.44 -0.1 0.44 -0.1 0.45 -0.12 0.03 0zm13.52 -4.96l2.66 4.92 0 0 -0.44 0.22 -0.46 0.23 -0.43 0.2 -0.44 0.22 -0.47 0.21 -0.42 0.19 -0.44 0.2 -0.45 0.2 -0.47 0.2 -0.46 0.19 -0.46 0.2 -0.43 0.17 -0.45 0.18 -0.5 0.19 -0.44 0.16 -0.44 0.17 -0.5 0.18 -0.45 0.15 -0.44 0.16 -0.49 0.17 -0.48 0.16 -0.48 0.14 -0.45 0.14 -0.45 0.15 -0.5 0.15 -0.48 0.13 -0.45 0.13 -0.5 0.14 -0.49 0.13 -0.46 0.12 -0.5 0.13 -0.48 0.11 -1.38 -5.38 0.44 -0.11 0.44 -0.11 0.46 -0.12 0.43 -0.11 0.42 -0.12 0.45 -0.13 0.44 -0.13 0.42 -0.13 0.45 -0.13 0.45 -0.14 0.42 -0.14 0.42 -0.14 0.41 -0.13 0.44 -0.16 0.45 -0.15 0.38 -0.14 0.44 -0.17 0.44 -0.16 0.38 -0.15 0.43 -0.18 0.43 -0.17 0.42 -0.16 0.4 -0.17 0.41 -0.18 0.41 -0.18 0.4 -0.18 0.44 -0.21 0.39 -0.17 0.4 -0.2 0.43 -0.2 0.38 -0.19 0.4 -0.2 0 0zm11.94 -7.79l3.68 4.26 0.02 -0.02 -0.37 0.3 -0.36 0.3 -0.41 0.33 -0.37 0.28 -0.36 0.29 -0.41 0.31 -0.4 0.31 -0.38 0.27 -0.37 0.28 -0.44 0.31 -0.38 0.26 -0.38 0.27 -0.4 0.27 -0.39 0.27 -0.43 0.28 -0.39 0.25 -0.39 0.26 -0.43 0.28 -0.41 0.25 -0.41 0.26 -0.42 0.25 -0.43 0.26 -0.4 0.23 -0.41 0.24 -0.43 0.25 -0.43 0.24 -0.43 0.23 -0.42 0.23 -0.42 0.23 -0.43 0.23 -0.45 0.24 -0.43 0.21 -2.66 -4.92 0.41 -0.21 0.39 -0.2 0.39 -0.21 0.4 -0.21 0.42 -0.23 0.39 -0.21 0.37 -0.22 0.39 -0.21 0.39 -0.24 0.4 -0.23 0.37 -0.22 0.38 -0.23 0.39 -0.24 0.37 -0.23 0.35 -0.22 0.39 -0.26 0.39 -0.25 0.35 -0.24 0.37 -0.25 0.36 -0.25 0.38 -0.27 0.38 -0.26 0.32 -0.23 0.37 -0.28 0.38 -0.27 0.34 -0.25 0.33 -0.25 0.36 -0.29 0.37 -0.28 0.31 -0.25 0.36 -0.3 0.35 -0.28 0.02 -0.02zm13.86 -10.49l-3.76 4.2 4.19 -0.46 -0.29 0.38 -0.28 0.37 -0.32 0.41 -0.29 0.35 -0.3 0.37 -0.32 0.39 -0.28 0.33 -0.3 0.37 -0.33 0.38 -0.32 0.36 -0.31 0.35 -0.32 0.37 -0.33 0.35 -0.32 0.35 -0.34 0.35 -0.31 0.33 -0.35 0.36 -0.32 0.32 -0.33 0.34 -0.37 0.35 -0.34 0.34 -0.33 0.31 -0.35 0.33 -0.37 0.34 -0.36 0.33 -0.34 0.3 -0.34 0.31 -0.37 0.33 -0.38 0.33 -0.35 0.29 -0.37 0.31 -0.38 0.31 -3.68 -4.26 0.34 -0.27 0.33 -0.29 0.35 -0.29 0.32 -0.27 0.31 -0.27 0.34 -0.31 0.34 -0.3 0.32 -0.29 0.31 -0.28 0.31 -0.31 0.33 -0.31 0.32 -0.3 0.29 -0.29 0.31 -0.32 0.32 -0.32 0.29 -0.3 0.31 -0.33 0.3 -0.31 0.3 -0.33 0.29 -0.31 0.28 -0.31 0.31 -0.35 0.28 -0.32 0.27 -0.32 0.28 -0.33 0.3 -0.37 0.28 -0.31 0.26 -0.35 0.29 -0.35 0.24 -0.31 0.28 -0.37 0.27 -0.34 4.19 -0.46zm22.07 25.95l-25.83 -21.75 3.76 -4.2 25.83 21.75 0.37 3.81 -4.13 0.39zm-11.68 15.39l-3.64 -4.28 -0.02 0.01 0.51 -0.42 0.53 -0.44 0.52 -0.43 0.5 -0.42 0.5 -0.44 0.51 -0.44 0.5 -0.44 0.5 -0.44 0.48 -0.45 0.5 -0.46 0.49 -0.44 0.48 -0.45 0.48 -0.46 0.48 -0.46 0.48 -0.47 0.45 -0.45 0.47 -0.48 0.47 -0.47 0.45 -0.47 0.46 -0.48 0.46 -0.49 0.45 -0.47 0.43 -0.48 0.45 -0.49 0.44 -0.5 0.44 -0.48 0.42 -0.49 0.44 -0.5 0.42 -0.5 0.42 -0.51 0.43 -0.52 0.41 -0.49 4.5 3.42 -0.45 0.55 -0.43 0.52 -0.44 0.53 -0.46 0.54 -0.44 0.52 -0.46 0.53 -0.46 0.52 -0.46 0.52 -0.47 0.51 -0.47 0.52 -0.49 0.51 -0.46 0.49 -0.48 0.5 -0.49 0.51 -0.49 0.49 -0.49 0.5 -0.51 0.49 -0.5 0.49 -0.5 0.48 -0.5 0.48 -0.52 0.49 -0.51 0.48 -0.5 0.46 -0.52 0.47 -0.54 0.48 -0.52 0.46 -0.53 0.46 -0.54 0.46 -0.54 0.46 -0.54 0.45 -0.53 0.44 -0.55 0.46 -0.02 0.01zm-19.12 12.12l-2.6 -4.96 0.01 0 0.61 -0.3 0.62 -0.31 0.58 -0.3 0.61 -0.31 0.58 -0.3 0.6 -0.33 0.58 -0.31 0.58 -0.33 0.61 -0.34 0.59 -0.33 0.56 -0.32 0.58 -0.36 0.57 -0.33 0.57 -0.36 0.57 -0.35 0.56 -0.35 0.58 -0.37 0.55 -0.35 0.56 -0.38 0.55 -0.36 0.54 -0.37 0.57 -0.39 0.54 -0.38 0.54 -0.39 0.55 -0.39 0.54 -0.39 0.54 -0.4 0.53 -0.4 0.53 -0.4 0.53 -0.42 0.53 -0.41 0.52 -0.41 3.64 4.28 -0.56 0.45 -0.55 0.43 -0.55 0.42 -0.57 0.44 -0.57 0.42 -0.56 0.42 -0.58 0.43 -0.57 0.41 -0.58 0.41 -0.58 0.4 -0.57 0.39 -0.58 0.41 -0.61 0.4 -0.58 0.38 -0.61 0.39 -0.58 0.37 -0.6 0.39 -0.61 0.37 -0.59 0.36 -0.61 0.37 -0.62 0.36 -0.62 0.36 -0.61 0.35 -0.61 0.34 -0.62 0.35 -0.64 0.35 -0.62 0.33 -0.64 0.34 -0.63 0.33 -0.64 0.32 -0.64 0.31 -0.63 0.32 0.01 0zm-21.68 7.78l-1.36 -5.4 -0.01 0 0.68 -0.16 0.67 -0.17 0.66 -0.17 0.68 -0.18 0.67 -0.18 0.63 -0.17 0.65 -0.2 0.68 -0.2 0.65 -0.19 0.67 -0.2 0.65 -0.21 0.64 -0.2 0.64 -0.21 0.63 -0.22 0.66 -0.23 0.64 -0.23 0.64 -0.23 0.62 -0.23 0.63 -0.24 0.65 -0.25 0.62 -0.24 0.62 -0.26 0.64 -0.25 0.62 -0.27 0.62 -0.26 0.61 -0.26 0.63 -0.29 0.61 -0.27 0.62 -0.29 0.62 -0.29 0.58 -0.28 0.62 -0.31 2.6 4.96 -0.64 0.31 -0.66 0.32 -0.64 0.29 -0.66 0.31 -0.65 0.29 -0.65 0.29 -0.67 0.3 -0.66 0.28 -0.66 0.27 -0.64 0.27 -0.68 0.28 -0.68 0.26 -0.65 0.25 -0.67 0.26 -0.68 0.25 -0.68 0.25 -0.68 0.23 -0.66 0.23 -0.69 0.24 -0.7 0.23 -0.68 0.22 -0.69 0.21 -0.69 0.22 -0.69 0.21 -0.68 0.2 -0.69 0.2 -0.73 0.21 -0.71 0.18 -0.68 0.18 -0.72 0.19 -0.71 0.17 -0.7 0.18 -0.01 0zm-23.8 2.72l0 -5.56 0 0 0.73 0 0.73 -0.01 0.72 -0.01 0.73 -0.02 0.72 -0.02 0.7 -0.02 0.74 -0.04 0.72 -0.03 0.69 -0.05 0.73 -0.05 0.71 -0.05 0.69 -0.06 0.71 -0.06 0.73 -0.07 0.69 -0.07 0.68 -0.08 0.7 -0.08 0.72 -0.09 0.7 -0.09 0.68 -0.1 0.69 -0.1 0.71 -0.11 0.7 -0.11 0.67 -0.11 0.68 -0.13 0.69 -0.13 0.69 -0.13 0.67 -0.14 0.68 -0.14 0.68 -0.15 0.68 -0.15 0.68 -0.16 1.36 5.4 -0.72 0.16 -0.72 0.17 -0.72 0.15 -0.72 0.16 -0.73 0.14 -0.73 0.15 -0.73 0.13 -0.72 0.13 -0.75 0.13 -0.74 0.11 -0.71 0.11 -0.73 0.12 -0.76 0.1 -0.74 0.09 -0.72 0.09 -0.74 0.1 -0.76 0.08 -0.75 0.07 -0.73 0.07 -0.75 0.08 -0.77 0.06 -0.75 0.05 -0.73 0.05 -0.77 0.05 -0.76 0.03 -0.74 0.04 -0.78 0.04 -0.76 0.02 -0.77 0.02 -0.76 0.01 -0.77 0.01 -0.77 0 0 0zm-27.35 -3.58l1.52 -5.36 0.02 0.01 0.77 0.2 0.78 0.2 0.78 0.2 0.77 0.19 0.77 0.17 0.81 0.18 0.78 0.18 0.77 0.15 0.82 0.16 0.77 0.15 0.78 0.13 0.82 0.14 0.8 0.13 0.81 0.13 0.79 0.11 0.82 0.11 0.79 0.1 0.82 0.09 0.82 0.1 0.8 0.08 0.83 0.07 0.81 0.07 0.82 0.06 0.83 0.06 0.83 0.05 0.84 0.05 0.81 0.04 0.83 0.02 0.83 0.02 0.84 0.02 0.83 0.01 0.84 0 0 5.56 -0.88 0 -0.89 -0.01 -0.88 -0.02 -0.87 -0.02 -0.89 -0.04 -0.89 -0.04 -0.86 -0.05 -0.87 -0.05 -0.87 -0.06 -0.86 -0.06 -0.87 -0.07 -0.87 -0.09 -0.88 -0.08 -0.84 -0.1 -0.86 -0.09 -0.87 -0.12 -0.84 -0.11 -0.87 -0.13 -0.85 -0.13 -0.84 -0.13 -0.84 -0.14 -0.86 -0.15 -0.85 -0.17 -0.82 -0.16 -0.85 -0.17 -0.84 -0.18 -0.81 -0.18 -0.85 -0.19 -0.83 -0.21 -0.82 -0.2 -0.82 -0.22 -0.83 -0.22 0.02 0.01zm-24.67 -10.12l2.92 -4.78 -0.01 0 0.68 0.39 0.69 0.37 0.7 0.39 0.68 0.36 0.69 0.36 0.7 0.36 0.7 0.35 0.7 0.35 0.7 0.34 0.7 0.33 0.73 0.33 0.72 0.34 0.7 0.31 0.71 0.31 0.73 0.3 0.73 0.31 0.72 0.29 0.73 0.29 0.74 0.29 0.74 0.28 0.73 0.27 0.74 0.26 0.76 0.27 0.74 0.26 0.75 0.24 0.77 0.25 0.75 0.23 0.75 0.24 0.77 0.22 0.78 0.22 0.78 0.22 0.77 0.21 -1.52 5.36 -0.83 -0.23 -0.8 -0.22 -0.82 -0.24 -0.81 -0.24 -0.81 -0.24 -0.81 -0.25 -0.79 -0.27 -0.81 -0.26 -0.8 -0.28 -0.78 -0.27 -0.78 -0.28 -0.79 -0.29 -0.78 -0.3 -0.78 -0.29 -0.77 -0.31 -0.78 -0.31 -0.77 -0.33 -0.75 -0.32 -0.77 -0.33 -0.78 -0.35 -0.74 -0.34 -0.75 -0.35 -0.74 -0.35 -0.76 -0.36 -0.74 -0.37 -0.74 -0.37 -0.74 -0.38 -0.73 -0.38 -0.74 -0.4 -0.72 -0.39 -0.73 -0.41 -0.72 -0.41 -0.01 0zm-20.78 -15.64l4.06 -3.92 0 0 0.55 0.53 0.55 0.52 0.57 0.54 0.56 0.52 0.57 0.51 0.58 0.51 0.58 0.52 0.57 0.49 0.58 0.49 0.59 0.5 0.6 0.49 0.59 0.48 0.59 0.47 0.62 0.48 0.6 0.47 0.59 0.44 0.64 0.47 0.62 0.47 0.62 0.44 0.62 0.44 0.65 0.46 0.61 0.43 0.64 0.42 0.65 0.44 0.65 0.42 0.64 0.41 0.67 0.41 0.66 0.42 0.67 0.4 0.66 0.41 0.66 0.39 0.69 0.39 -2.92 4.78 -0.71 -0.41 -0.72 -0.43 -0.7 -0.41 -0.71 -0.44 -0.68 -0.42 -0.69 -0.43 -0.7 -0.45 -0.69 -0.46 -0.67 -0.44 -0.68 -0.46 -0.69 -0.47 -0.65 -0.46 -0.66 -0.46 -0.68 -0.5 -0.64 -0.47 -0.64 -0.47 -0.67 -0.5 -0.64 -0.51 -0.62 -0.48 -0.65 -0.51 -0.63 -0.52 -0.62 -0.51 -0.63 -0.52 -0.62 -0.53 -0.61 -0.53 -0.62 -0.54 -0.58 -0.53 -0.61 -0.55 -0.6 -0.56 -0.59 -0.54 -0.59 -0.56 -0.59 -0.57 0 0zm-16.07 -20.26l4.94 -2.82 0 0 0.4 0.67 0.4 0.64 0.41 0.65 0.43 0.65 0.41 0.64 0.43 0.64 0.43 0.63 0.43 0.63 0.44 0.62 0.45 0.63 0.45 0.63 0.46 0.62 0.45 0.61 0.46 0.61 0.46 0.6 0.48 0.59 0.49 0.62 0.46 0.58 0.5 0.59 0.49 0.59 0.48 0.57 0.51 0.58 0.52 0.59 0.5 0.57 0.5 0.55 0.53 0.57 0.54 0.57 0.51 0.54 0.53 0.54 0.55 0.57 0.55 0.54 0.54 0.53 -4.06 3.92 -0.58 -0.57 -0.57 -0.58 -0.57 -0.57 -0.57 -0.58 -0.57 -0.6 -0.54 -0.59 -0.55 -0.59 -0.56 -0.61 -0.54 -0.61 -0.52 -0.59 -0.53 -0.6 -0.54 -0.63 -0.51 -0.61 -0.52 -0.63 -0.52 -0.64 -0.49 -0.62 -0.5 -0.63 -0.5 -0.66 -0.48 -0.63 -0.49 -0.65 -0.48 -0.66 -0.47 -0.65 -0.47 -0.65 -0.46 -0.66 -0.47 -0.67 -0.45 -0.67 -0.45 -0.68 -0.45 -0.68 -0.43 -0.69 -0.43 -0.67 -0.44 -0.7 -0.42 -0.69 0 0zm-10.4 -23.95l5.52 -1.48 0 0.01 0.22 0.76 0.22 0.73 0.23 0.76 0.24 0.76 0.23 0.73 0.25 0.73 0.26 0.76 0.25 0.73 0.26 0.71 0.27 0.73 0.27 0.73 0.28 0.71 0.29 0.72 0.29 0.71 0.31 0.71 0.3 0.72 0.31 0.71 0.31 0.68 0.33 0.7 0.32 0.7 0.34 0.69 0.34 0.69 0.34 0.69 0.35 0.68 0.36 0.68 0.36 0.68 0.37 0.67 0.37 0.68 0.37 0.66 0.39 0.67 0.39 0.66 0.4 0.66 -4.94 2.82 -0.42 -0.7 -0.41 -0.7 -0.41 -0.71 -0.41 -0.72 -0.39 -0.7 -0.39 -0.71 -0.38 -0.72 -0.38 -0.72 -0.37 -0.74 -0.36 -0.71 -0.36 -0.73 -0.36 -0.75 -0.34 -0.72 -0.35 -0.74 -0.33 -0.76 -0.33 -0.75 -0.32 -0.74 -0.31 -0.75 -0.31 -0.75 -0.31 -0.76 -0.3 -0.77 -0.29 -0.77 -0.29 -0.75 -0.28 -0.79 -0.27 -0.79 -0.26 -0.76 -0.27 -0.79 -0.25 -0.79 -0.24 -0.78 -0.25 -0.78 -0.24 -0.81 -0.22 -0.8 0 0.01zm-3.67 -26.62l5.72 0 0 0 0 0.82 0.01 0.8 0.02 0.81 0.03 0.81 0.03 0.82 0.04 0.81 0.04 0.81 0.05 0.79 0.05 0.8 0.07 0.8 0.07 0.8 0.08 0.78 0.09 0.8 0.08 0.8 0.1 0.77 0.11 0.78 0.11 0.79 0.12 0.8 0.13 0.78 0.12 0.77 0.15 0.76 0.15 0.8 0.14 0.77 0.16 0.76 0.17 0.78 0.18 0.77 0.17 0.77 0.18 0.75 0.2 0.76 0.2 0.76 0.21 0.76 0.21 0.76 -5.52 1.48 -0.23 -0.8 -0.21 -0.8 -0.22 -0.8 -0.2 -0.82 -0.2 -0.81 -0.19 -0.81 -0.18 -0.81 -0.17 -0.82 -0.18 -0.82 -0.16 -0.83 -0.15 -0.8 -0.15 -0.84 -0.14 -0.83 -0.13 -0.82 -0.12 -0.82 -0.13 -0.83 -0.11 -0.84 -0.1 -0.85 -0.1 -0.82 -0.09 -0.84 -0.08 -0.84 -0.07 -0.84 -0.07 -0.84 -0.07 -0.86 -0.05 -0.85 -0.04 -0.85 -0.04 -0.85 -0.03 -0.84 -0.03 -0.85 -0.02 -0.87 -0.01 -0.86 0 -0.86 0 0zm3.67 -26.61l5.52 1.46 0 0.01 -0.21 0.76 -0.21 0.76 -0.2 0.76 -0.2 0.76 -0.18 0.75 -0.17 0.77 -0.18 0.77 -0.17 0.78 -0.16 0.76 -0.14 0.77 -0.15 0.8 -0.15 0.76 -0.12 0.77 -0.13 0.78 -0.12 0.8 -0.11 0.79 -0.11 0.78 -0.1 0.77 -0.08 0.8 -0.09 0.8 -0.08 0.78 -0.07 0.8 -0.07 0.8 -0.05 0.8 -0.05 0.79 -0.04 0.81 -0.04 0.81 -0.03 0.82 -0.03 0.81 -0.02 0.81 -0.01 0.8 0 0.82 -5.72 0 0 -0.86 0.01 -0.86 0.02 -0.87 0.03 -0.85 0.03 -0.84 0.04 -0.85 0.04 -0.85 0.05 -0.85 0.07 -0.86 0.07 -0.84 0.07 -0.84 0.08 -0.84 0.09 -0.84 0.1 -0.82 0.1 -0.85 0.11 -0.84 0.13 -0.83 0.12 -0.82 0.13 -0.82 0.14 -0.83 0.15 -0.84 0.15 -0.8 0.16 -0.83 0.18 -0.82 0.17 -0.82 0.18 -0.81 0.19 -0.81 0.2 -0.81 0.2 -0.82 0.22 -0.8 0.21 -0.8 0.23 -0.8 0 0.01zm10.4 -23.96l4.94 2.82 0 0 -0.4 0.66 -0.39 0.66 -0.39 0.67 -0.37 0.66 -0.37 0.67 -0.37 0.69 -0.36 0.67 -0.36 0.69 -0.35 0.67 -0.34 0.69 -0.35 0.71 -0.33 0.67 -0.32 0.7 -0.33 0.71 -0.31 0.68 -0.31 0.71 -0.3 0.72 -0.31 0.71 -0.29 0.71 -0.29 0.72 -0.28 0.71 -0.27 0.73 -0.27 0.73 -0.26 0.71 -0.25 0.74 -0.26 0.75 -0.25 0.72 -0.23 0.74 -0.24 0.76 -0.23 0.75 -0.22 0.73 -0.22 0.76 -5.52 -1.46 0.22 -0.8 0.24 -0.81 0.25 -0.79 0.24 -0.76 0.25 -0.8 0.27 -0.8 0.26 -0.75 0.27 -0.78 0.28 -0.79 0.29 -0.75 0.29 -0.77 0.3 -0.77 0.31 -0.76 0.31 -0.75 0.31 -0.75 0.32 -0.74 0.33 -0.75 0.33 -0.76 0.35 -0.73 0.34 -0.74 0.37 -0.75 0.35 -0.71 0.36 -0.73 0.37 -0.73 0.38 -0.73 0.38 -0.71 0.39 -0.71 0.39 -0.71 0.41 -0.72 0.41 -0.71 0.41 -0.7 0.42 -0.7 0 0zm16.07 -20.26l4.06 3.92 0 0 -0.54 0.53 -0.55 0.55 -0.55 0.55 -0.52 0.54 -0.52 0.55 -0.54 0.57 -0.53 0.57 -0.51 0.56 -0.49 0.55 -0.52 0.6 -0.51 0.58 -0.48 0.57 -0.49 0.59 -0.5 0.59 -0.47 0.59 -0.48 0.6 -0.48 0.6 -0.46 0.59 -0.45 0.61 -0.47 0.63 -0.46 0.61 -0.44 0.62 -0.45 0.62 -0.43 0.63 -0.44 0.64 -0.43 0.63 -0.43 0.64 -0.42 0.64 -0.42 0.64 -0.4 0.65 -0.41 0.65 -0.4 0.67 -4.94 -2.82 0.42 -0.69 0.43 -0.69 0.44 -0.69 0.44 -0.68 0.44 -0.68 0.45 -0.68 0.45 -0.67 0.46 -0.66 0.47 -0.67 0.47 -0.66 0.48 -0.66 0.48 -0.65 0.47 -0.63 0.49 -0.65 0.5 -0.65 0.5 -0.64 0.5 -0.62 0.51 -0.63 0.52 -0.63 0.51 -0.61 0.54 -0.63 0.53 -0.6 0.52 -0.6 0.55 -0.61 0.55 -0.6 0.55 -0.59 0.54 -0.59 0.56 -0.59 0.58 -0.6 0.57 -0.57 0.57 -0.57 0.58 -0.57 0 0zm20.79 -15.65l2.9 4.8 0.01 -0.01 -0.69 0.39 -0.66 0.39 -0.66 0.41 -0.67 0.4 -0.66 0.42 -0.67 0.41 -0.64 0.41 -0.65 0.42 -0.65 0.44 -0.64 0.42 -0.61 0.43 -0.65 0.46 -0.62 0.44 -0.62 0.44 -0.62 0.47 -0.64 0.47 -0.59 0.44 -0.6 0.47 -0.62 0.48 -0.59 0.47 -0.59 0.48 -0.6 0.49 -0.59 0.5 -0.58 0.49 -0.57 0.49 -0.58 0.52 -0.58 0.51 -0.57 0.51 -0.56 0.52 -0.57 0.54 -0.55 0.52 -0.55 0.53 -4.06 -3.92 0.59 -0.57 0.59 -0.56 0.59 -0.54 0.6 -0.56 0.61 -0.55 0.58 -0.53 0.62 -0.54 0.61 -0.53 0.62 -0.53 0.63 -0.52 0.62 -0.51 0.63 -0.52 0.65 -0.51 0.62 -0.48 0.64 -0.51 0.67 -0.5 0.64 -0.47 0.64 -0.47 0.68 -0.5 0.66 -0.46 0.65 -0.46 0.69 -0.47 0.68 -0.46 0.67 -0.44 0.69 -0.46 0.7 -0.45 0.69 -0.43 0.68 -0.42 0.71 -0.44 0.7 -0.41 0.72 -0.43 0.71 -0.41 0.01 -0.01zm24.64 -10.1l1.56 5.34 -0.02 0.01 -0.77 0.21 -0.78 0.22 -0.78 0.22 -0.77 0.22 -0.74 0.23 -0.76 0.25 -0.78 0.25 -0.74 0.23 -0.74 0.26 -0.76 0.27 -0.74 0.26 -0.73 0.27 -0.74 0.28 -0.74 0.29 -0.71 0.28 -0.74 0.31 -0.73 0.3 -0.71 0.31 -0.73 0.31 -0.72 0.32 -0.71 0.32 -0.72 0.33 -0.68 0.33 -0.72 0.35 -0.7 0.34 -0.7 0.36 -0.7 0.35 -0.68 0.36 -0.71 0.38 -0.69 0.37 -0.68 0.37 -0.68 0.4 -2.9 -4.8 0.72 -0.4 0.74 -0.41 0.73 -0.39 0.71 -0.38 0.74 -0.4 0.74 -0.37 0.74 -0.38 0.74 -0.36 0.74 -0.37 0.76 -0.35 0.76 -0.35 0.75 -0.34 0.76 -0.34 0.75 -0.33 0.77 -0.33 0.77 -0.32 0.76 -0.31 0.79 -0.32 0.78 -0.29 0.78 -0.3 0.79 -0.29 0.78 -0.28 0.78 -0.27 0.8 -0.28 0.82 -0.27 0.78 -0.25 0.8 -0.25 0.82 -0.25 0.81 -0.24 0.82 -0.24 0.8 -0.22 0.83 -0.23 -0.02 0.01zm27.37 -3.59l0 5.56 0 0 -0.84 0 -0.83 0.01 -0.84 0.02 -0.83 0.02 -0.83 0.02 -0.81 0.04 -0.84 0.05 -0.83 0.05 -0.83 0.06 -0.82 0.06 -0.81 0.07 -0.83 0.07 -0.8 0.08 -0.82 0.1 -0.82 0.09 -0.79 0.1 -0.82 0.11 -0.79 0.11 -0.81 0.13 -0.8 0.13 -0.82 0.14 -0.78 0.13 -0.77 0.15 -0.82 0.16 -0.77 0.15 -0.78 0.18 -0.81 0.18 -0.77 0.17 -0.77 0.19 -0.78 0.2 -0.78 0.2 -0.77 0.2 -1.56 -5.34 0.83 -0.22 0.82 -0.22 0.82 -0.2 0.83 -0.21 0.85 -0.19 0.81 -0.18 0.84 -0.18 0.85 -0.17 0.82 -0.16 0.85 -0.17 0.86 -0.15 0.84 -0.14 0.84 -0.13 0.85 -0.13 0.87 -0.13 0.84 -0.11 0.87 -0.12 0.86 -0.09 0.84 -0.1 0.88 -0.08 0.87 -0.09 0.87 -0.07 0.86 -0.06 0.87 -0.06 0.87 -0.05 0.86 -0.05 0.89 -0.04 0.89 -0.04 0.87 -0.02 0.88 -0.02 0.89 -0.01 0.88 0 0 0zm23.8 2.73l-1.36 5.4 0 0 -0.68 -0.16 -0.68 -0.15 -0.68 -0.15 -0.68 -0.14 -0.67 -0.14 -0.69 -0.13 -0.69 -0.13 -0.68 -0.13 -0.67 -0.11 -0.72 -0.11 -0.69 -0.12 -0.67 -0.09 -0.72 -0.1 -0.7 -0.1 -0.7 -0.09 -0.7 -0.08 -0.68 -0.08 -0.69 -0.07 -0.73 -0.07 -0.71 -0.06 -0.69 -0.06 -0.71 -0.05 -0.71 -0.05 -0.71 -0.04 -0.74 -0.04 -0.7 -0.04 -0.72 -0.01 -0.74 -0.03 -0.71 -0.02 -0.72 -0.01 -0.73 -0.01 -0.73 0 0 -5.56 0.77 0 0.77 0.01 0.76 0.01 0.79 0.02 0.74 0.03 0.76 0.03 0.78 0.04 0.74 0.04 0.75 0.04 0.75 0.05 0.75 0.05 0.77 0.06 0.75 0.08 0.73 0.07 0.75 0.07 0.76 0.08 0.74 0.1 0.74 0.09 0.74 0.1 0.72 0.1 0.75 0.11 0.73 0.12 0.72 0.11 0.75 0.13 0.72 0.13 0.73 0.13 0.73 0.15 0.73 0.14 0.72 0.16 0.72 0.15 0.72 0.17 0.72 0.16 0 0zm21.67 7.77l-2.58 4.96 -0.01 0 -0.62 -0.31 -0.58 -0.28 -0.62 -0.29 -0.62 -0.29 -0.61 -0.27 -0.63 -0.29 -0.61 -0.26 -0.62 -0.26 -0.62 -0.27 -0.62 -0.25 -0.64 -0.25 -0.63 -0.26 -0.64 -0.24 -0.63 -0.24 -0.62 -0.23 -0.64 -0.23 -0.64 -0.23 -0.66 -0.23 -0.63 -0.22 -0.64 -0.21 -0.64 -0.2 -0.65 -0.21 -0.67 -0.2 -0.65 -0.19 -0.66 -0.2 -0.65 -0.18 -0.67 -0.19 -0.67 -0.18 -0.64 -0.17 -0.66 -0.17 -0.69 -0.17 -0.67 -0.16 1.36 -5.4 0.71 0.18 0.69 0.17 0.72 0.17 0.72 0.19 0.71 0.2 0.69 0.19 0.69 0.2 0.7 0.2 0.69 0.21 0.69 0.22 0.69 0.21 0.68 0.22 0.7 0.23 0.69 0.24 0.66 0.23 0.68 0.23 0.68 0.25 0.68 0.25 0.67 0.26 0.66 0.26 0.67 0.26 0.66 0.27 0.66 0.27 0.66 0.27 0.66 0.28 0.67 0.3 0.65 0.29 0.65 0.29 0.66 0.31 0.64 0.29 0.66 0.32 0.64 0.31 -0.01 0zm19.13 12.07l-3.64 4.3 0 -0.01 -0.52 -0.41 -0.53 -0.41 -0.53 -0.42 -0.53 -0.4 -0.53 -0.4 -0.53 -0.39 -0.54 -0.38 -0.56 -0.4 -0.54 -0.39 -0.54 -0.38 -0.56 -0.38 -0.55 -0.37 -0.55 -0.37 -0.54 -0.36 -0.57 -0.36 -0.58 -0.37 -0.56 -0.35 -0.56 -0.35 -0.58 -0.35 -0.57 -0.34 -0.57 -0.34 -0.57 -0.33 -0.59 -0.33 -0.59 -0.33 -0.58 -0.32 -0.6 -0.32 -0.6 -0.33 -0.58 -0.3 -0.61 -0.31 -0.58 -0.3 -0.62 -0.31 -0.61 -0.3 2.58 -4.96 0.63 0.32 0.64 0.31 0.64 0.32 0.63 0.33 0.64 0.34 0.62 0.33 0.62 0.34 0.62 0.34 0.63 0.35 0.61 0.35 0.61 0.35 0.63 0.36 0.61 0.38 0.58 0.35 0.62 0.37 0.6 0.39 0.58 0.37 0.59 0.38 0.6 0.38 0.61 0.41 0.57 0.39 0.58 0.4 0.58 0.4 0.58 0.41 0.56 0.4 0.58 0.42 0.57 0.43 0.57 0.42 0.57 0.44 0.55 0.42 0.55 0.43 0.56 0.45 0 -0.01zm15.44 19.49l-3.76 -4.18 -0.37 3.8 -0.42 -0.5 -0.42 -0.52 -0.41 -0.49 -0.43 -0.51 -0.44 -0.5 -0.43 -0.5 -0.43 -0.48 -0.43 -0.48 -0.46 -0.5 -0.43 -0.48 -0.45 -0.47 -0.46 -0.49 -0.46 -0.48 -0.45 -0.47 -0.46 -0.46 -0.46 -0.47 -0.46 -0.45 -0.48 -0.46 -0.49 -0.47 -0.47 -0.44 -0.48 -0.44 -0.5 -0.46 -0.49 -0.45 -0.47 -0.43 -0.51 -0.44 -0.49 -0.44 -0.5 -0.42 -0.52 -0.44 -0.5 -0.42 -0.51 -0.41 -0.53 -0.43 -0.51 -0.41 3.64 -4.3 0.55 0.45 0.53 0.43 0.55 0.45 0.54 0.46 0.52 0.44 0.54 0.46 0.53 0.46 0.53 0.46 0.53 0.47 0.51 0.47 0.5 0.46 0.52 0.48 0.51 0.5 0.49 0.47 0.5 0.48 0.5 0.49 0.5 0.49 0.5 0.5 0.49 0.51 0.48 0.5 0.46 0.49 0.49 0.51 0.47 0.52 0.46 0.5 0.47 0.52 0.47 0.54 0.45 0.52 0.44 0.52 0.45 0.53 0.45 0.53 0.44 0.54 0.44 0.54 -0.37 3.8zm-29.59 17.72l25.83 -21.9 3.76 4.18 -25.83 21.9 -4.19 -0.45 0.43 -3.73zm-10.12 -6.42l3.72 -4.22 0.02 0.01 0.36 0.31 0.38 0.32 0.37 0.33 0.35 0.31 0.35 0.31 0.38 0.34 0.34 0.32 0.34 0.31 0.37 0.35 0.34 0.34 0.33 0.32 0.33 0.32 0.37 0.35 0.35 0.36 0.32 0.33 0.33 0.34 0.31 0.33 0.34 0.35 0.33 0.37 0.33 0.36 0.3 0.34 0.32 0.35 0.33 0.38 0.3 0.36 0.32 0.37 0.29 0.36 0.31 0.37 0.3 0.37 0.29 0.35 0.32 0.41 0.28 0.37 0.29 0.38 -4.62 3.28 -0.27 -0.34 -0.28 -0.37 -0.24 -0.31 -0.29 -0.35 -0.26 -0.35 -0.29 -0.33 -0.29 -0.36 -0.26 -0.31 -0.3 -0.34 -0.27 -0.32 -0.3 -0.33 -0.3 -0.34 -0.29 -0.32 -0.29 -0.31 -0.3 -0.31 -0.31 -0.33 -0.31 -0.32 -0.32 -0.33 -0.29 -0.3 -0.29 -0.29 -0.33 -0.32 -0.33 -0.32 -0.32 -0.3 -0.31 -0.29 -0.34 -0.31 -0.34 -0.32 -0.3 -0.28 -0.33 -0.29 -0.35 -0.31 -0.33 -0.29 -0.32 -0.28 -0.36 -0.29 0.02 0.01zm-11.9 -7.71l2.62 -4.94 -0.01 0 0.43 0.21 0.46 0.23 0.42 0.23 0.42 0.21 0.45 0.25 0.41 0.22 0.42 0.23 0.44 0.24 0.43 0.25 0.43 0.26 0.4 0.24 0.4 0.24 0.41 0.25 0.43 0.26 0.41 0.26 0.41 0.27 0.39 0.26 0.4 0.26 0.42 0.28 0.4 0.27 0.4 0.29 0.38 0.27 0.4 0.28 0.37 0.27 0.4 0.28 0.4 0.31 0.41 0.31 0.36 0.29 0.37 0.28 0.41 0.33 0.36 0.3 0.37 0.3 -3.72 4.22 -0.35 -0.28 -0.36 -0.3 -0.31 -0.25 -0.37 -0.28 -0.36 -0.29 -0.33 -0.25 -0.34 -0.25 -0.36 -0.26 -0.37 -0.27 -0.36 -0.26 -0.38 -0.27 -0.36 -0.25 -0.36 -0.25 -0.34 -0.24 -0.38 -0.24 -0.39 -0.26 -0.37 -0.23 -0.37 -0.24 -0.35 -0.22 -0.39 -0.23 -0.4 -0.24 -0.4 -0.24 -0.37 -0.22 -0.37 -0.21 -0.38 -0.22 -0.38 -0.21 -0.41 -0.22 -0.39 -0.21 -0.4 -0.21 -0.4 -0.21 -0.38 -0.19 -0.41 -0.21 -0.01 0zm-13.56 -4.94l1.42 -5.38 -0.01 0 0.47 0.11 0.5 0.13 0.49 0.13 0.46 0.13 0.47 0.12 0.51 0.14 0.45 0.14 0.47 0.13 0.48 0.16 0.48 0.14 0.48 0.16 0.45 0.15 0.46 0.16 0.47 0.16 0.48 0.17 0.45 0.16 0.46 0.17 0.44 0.17 0.47 0.17 0.48 0.19 0.43 0.17 0.46 0.2 0.43 0.18 0.47 0.19 0.48 0.21 0.42 0.19 0.44 0.19 0.47 0.22 0.42 0.2 0.43 0.2 0.46 0.22 0.44 0.22 -2.62 4.94 -0.4 -0.2 -0.38 -0.18 -0.43 -0.2 -0.42 -0.2 -0.39 -0.18 -0.42 -0.19 -0.42 -0.19 -0.38 -0.17 -0.41 -0.17 -0.43 -0.18 -0.42 -0.16 -0.43 -0.17 -0.4 -0.17 -0.41 -0.15 -0.44 -0.17 -0.42 -0.15 -0.43 -0.16 -0.42 -0.15 -0.41 -0.14 -0.44 -0.14 -0.45 -0.15 -0.42 -0.14 -0.42 -0.14 -0.42 -0.12 -0.45 -0.13 -0.47 -0.14 -0.39 -0.12 -0.45 -0.12 -0.46 -0.13 -0.43 -0.11 -0.44 -0.11 -0.45 -0.11 -0.01 0zm-14.87 -1.76l0 -5.56 0 0 0.53 0 0.54 0.01 0.5 0.01 0.5 0.01 0.53 0.01 0.56 0.03 0.5 0.03 0.53 0.02 0.52 0.04 0.49 0.03 0.53 0.04 0.49 0.04 0.52 0.05 0.52 0.05 0.52 0.05 0.52 0.06 0.48 0.06 0.52 0.07 0.52 0.07 0.47 0.07 0.52 0.08 0.51 0.08 0.52 0.09 0.5 0.09 0.47 0.09 0.49 0.09 0.5 0.1 0.54 0.11 0.47 0.11 0.5 0.11 0.5 0.13 0.48 0.11 -1.42 5.38 -0.46 -0.11 -0.44 -0.11 -0.44 -0.09 -0.47 -0.11 -0.42 -0.09 -0.44 -0.08 -0.47 -0.09 -0.49 -0.09 -0.44 -0.09 -0.44 -0.07 -0.45 -0.08 -0.46 -0.06 -0.49 -0.07 -0.44 -0.07 -0.46 -0.05 -0.48 -0.06 -0.46 -0.06 -0.46 -0.05 -0.46 -0.05 -0.46 -0.03 -0.49 -0.04 -0.47 -0.04 -0.49 -0.03 -0.46 -0.04 -0.47 -0.02 -0.5 -0.03 -0.44 -0.01 -0.47 -0.01 -0.5 -0.01 -0.5 -0.01 -0.48 -0.01 -0.47 0 0 0zm-24.4 4.79l-2.28 -5.1 0.01 0 0.78 -0.32 0.8 -0.32 0.79 -0.3 0.79 -0.29 0.8 -0.29 0.8 -0.27 0.81 -0.26 0.8 -0.25 0.81 -0.24 0.82 -0.23 0.81 -0.22 0.82 -0.21 0.83 -0.2 0.82 -0.19 0.81 -0.17 0.84 -0.18 0.85 -0.16 0.84 -0.15 0.85 -0.13 0.82 -0.13 0.86 -0.12 0.86 -0.11 0.84 -0.09 0.85 -0.09 0.88 -0.08 0.85 -0.06 0.86 -0.06 0.87 -0.04 0.87 -0.05 0.88 -0.02 0.88 -0.02 0.88 0 0 5.56 -0.82 0 -0.8 0.02 -0.8 0.02 -0.81 0.03 -0.79 0.04 -0.8 0.06 -0.81 0.06 -0.76 0.06 -0.79 0.09 -0.8 0.09 -0.76 0.09 -0.78 0.12 -0.78 0.11 -0.77 0.13 -0.76 0.13 -0.75 0.14 -0.76 0.16 -0.77 0.17 -0.76 0.17 -0.75 0.18 -0.74 0.19 -0.75 0.2 -0.74 0.21 -0.73 0.22 -0.74 0.23 -0.73 0.24 -0.74 0.25 -0.72 0.25 -0.73 0.27 -0.73 0.28 -0.72 0.28 -0.72 0.3 0.01 0zm-20.08 13.12l-4.06 -3.92 0 0 0.59 -0.57 0.59 -0.54 0.6 -0.56 0.62 -0.55 0.6 -0.51 0.62 -0.54 0.63 -0.51 0.62 -0.51 0.65 -0.51 0.64 -0.49 0.64 -0.48 0.66 -0.49 0.65 -0.46 0.67 -0.47 0.68 -0.47 0.69 -0.45 0.69 -0.44 0.69 -0.43 0.7 -0.43 0.7 -0.41 0.71 -0.42 0.72 -0.41 0.71 -0.39 0.75 -0.4 0.73 -0.37 0.73 -0.39 0.76 -0.36 0.74 -0.36 0.77 -0.36 0.76 -0.34 0.77 -0.34 0.78 -0.34 2.28 5.1 -0.72 0.3 -0.71 0.32 -0.72 0.32 -0.69 0.32 -0.7 0.34 -0.68 0.34 -0.69 0.35 -0.69 0.35 -0.65 0.36 -0.67 0.37 -0.66 0.37 -0.67 0.38 -0.64 0.39 -0.64 0.39 -0.65 0.41 -0.63 0.4 -0.61 0.41 -0.62 0.41 -0.61 0.43 -0.61 0.44 -0.6 0.43 -0.6 0.46 -0.6 0.45 -0.57 0.45 -0.58 0.47 -0.57 0.47 -0.56 0.48 -0.58 0.51 -0.54 0.47 -0.54 0.5 -0.55 0.52 -0.53 0.51 0 0zm-13.51 19.47l-5.26 -2.2 0 -0.01 0.35 -0.75 0.35 -0.74 0.35 -0.73 0.37 -0.75 0.37 -0.72 0.38 -0.73 0.39 -0.72 0.38 -0.7 0.41 -0.72 0.4 -0.69 0.42 -0.7 0.44 -0.7 0.43 -0.67 0.43 -0.67 0.45 -0.68 0.46 -0.67 0.46 -0.65 0.47 -0.66 0.48 -0.65 0.49 -0.64 0.49 -0.64 0.51 -0.63 0.5 -0.61 0.51 -0.62 0.53 -0.62 0.53 -0.6 0.55 -0.61 0.55 -0.6 0.55 -0.58 0.57 -0.59 0.56 -0.56 0.58 -0.58 4.06 3.92 -0.52 0.52 -0.54 0.54 -0.51 0.53 -0.51 0.54 -0.51 0.54 -0.49 0.55 -0.49 0.56 -0.47 0.54 -0.47 0.58 -0.48 0.57 -0.45 0.59 -0.47 0.58 -0.43 0.58 -0.44 0.59 -0.43 0.6 -0.42 0.61 -0.42 0.61 -0.41 0.62 -0.41 0.63 -0.41 0.63 -0.38 0.62 -0.38 0.64 -0.38 0.65 -0.37 0.64 -0.36 0.66 -0.37 0.66 -0.34 0.67 -0.35 0.68 -0.33 0.67 -0.33 0.69 -0.33 0.7 -0.31 0.69 0 -0.01zm-4.91 23.84l-5.72 0 0 0 0.01 -0.86 0.01 -0.87 0.03 -0.85 0.03 -0.85 0.05 -0.85 0.05 -0.85 0.08 -0.84 0.07 -0.85 0.09 -0.83 0.1 -0.83 0.11 -0.84 0.12 -0.83 0.13 -0.83 0.14 -0.82 0.16 -0.82 0.15 -0.81 0.18 -0.81 0.18 -0.82 0.2 -0.82 0.2 -0.79 0.21 -0.8 0.23 -0.79 0.23 -0.79 0.26 -0.81 0.26 -0.77 0.26 -0.79 0.28 -0.78 0.28 -0.77 0.31 -0.79 0.31 -0.75 0.31 -0.76 0.34 -0.77 5.26 2.2 -0.3 0.69 -0.29 0.7 -0.29 0.71 -0.27 0.69 -0.26 0.71 -0.26 0.7 -0.24 0.71 -0.24 0.73 -0.22 0.71 -0.21 0.73 -0.21 0.73 -0.19 0.72 -0.2 0.75 -0.18 0.72 -0.16 0.74 -0.16 0.75 -0.15 0.75 -0.14 0.74 -0.12 0.76 -0.13 0.75 -0.1 0.77 -0.11 0.76 -0.08 0.77 -0.09 0.77 -0.07 0.77 -0.06 0.78 -0.05 0.77 -0.05 0.79 -0.03 0.79 -0.03 0.79 -0.01 0.79 -0.01 0.8 0 0zm4.91 23.76l-5.26 2.2 0 -0.01 -0.34 -0.77 -0.31 -0.77 -0.31 -0.75 -0.31 -0.8 -0.28 -0.77 -0.28 -0.78 -0.26 -0.78 -0.26 -0.78 -0.26 -0.79 -0.23 -0.8 -0.23 -0.8 -0.21 -0.8 -0.2 -0.77 -0.2 -0.83 -0.18 -0.81 -0.18 -0.8 -0.15 -0.82 -0.16 -0.82 -0.14 -0.82 -0.13 -0.81 -0.12 -0.83 -0.11 -0.83 -0.1 -0.83 -0.09 -0.83 -0.07 -0.84 -0.08 -0.84 -0.05 -0.83 -0.05 -0.85 -0.03 -0.85 -0.03 -0.84 -0.01 -0.86 -0.01 -0.85 5.72 0 0.01 0.79 0.01 0.78 0.03 0.78 0.03 0.79 0.05 0.77 0.05 0.77 0.06 0.78 0.07 0.76 0.09 0.77 0.08 0.75 0.11 0.77 0.1 0.75 0.13 0.75 0.12 0.76 0.14 0.74 0.15 0.74 0.16 0.74 0.16 0.75 0.18 0.71 0.2 0.75 0.19 0.74 0.21 0.72 0.21 0.72 0.22 0.71 0.24 0.74 0.24 0.7 0.26 0.72 0.26 0.71 0.27 0.7 0.29 0.71 0.29 0.71 0.3 0.69 0 -0.01zm13.51 19.54l-4.06 3.92 0 0 -0.58 -0.58 -0.56 -0.56 -0.57 -0.59 -0.55 -0.58 -0.55 -0.6 -0.55 -0.61 -0.53 -0.6 -0.53 -0.62 -0.51 -0.63 -0.5 -0.61 -0.51 -0.62 -0.5 -0.66 -0.48 -0.64 -0.48 -0.65 -0.47 -0.65 -0.46 -0.67 -0.46 -0.66 -0.45 -0.68 -0.43 -0.67 -0.43 -0.68 -0.44 -0.7 -0.42 -0.71 -0.4 -0.7 -0.41 -0.71 -0.38 -0.71 -0.39 -0.72 -0.38 -0.73 -0.37 -0.72 -0.37 -0.75 -0.35 -0.74 -0.35 -0.74 -0.35 -0.77 5.26 -2.2 0.31 0.69 0.33 0.7 0.33 0.7 0.33 0.67 0.35 0.68 0.34 0.67 0.37 0.66 0.36 0.67 0.37 0.65 0.38 0.66 0.38 0.63 0.38 0.62 0.41 0.64 0.41 0.63 0.41 0.62 0.42 0.62 0.42 0.61 0.43 0.59 0.44 0.61 0.44 0.58 0.46 0.58 0.45 0.58 0.48 0.59 0.47 0.57 0.47 0.54 0.49 0.56 0.49 0.55 0.51 0.54 0.51 0.54 0.51 0.53 0.54 0.54 0.52 0.52 0 0zm20.07 13.14l-2.26 5.1 -0.02 0 -0.77 -0.34 -0.77 -0.34 -0.77 -0.34 -0.76 -0.37 -0.74 -0.35 -0.76 -0.37 -0.73 -0.38 -0.75 -0.38 -0.73 -0.4 -0.71 -0.39 -0.7 -0.4 -0.73 -0.42 -0.72 -0.43 -0.68 -0.42 -0.69 -0.43 -0.69 -0.44 -0.69 -0.45 -0.68 -0.47 -0.67 -0.47 -0.65 -0.46 -0.66 -0.49 -0.64 -0.48 -0.64 -0.49 -0.65 -0.51 -0.64 -0.51 -0.61 -0.52 -0.61 -0.52 -0.62 -0.53 -0.62 -0.56 -0.59 -0.55 -0.59 -0.54 -0.59 -0.57 4.06 -3.92 0.53 0.51 0.55 0.52 0.55 0.51 0.54 0.48 0.56 0.49 0.57 0.48 0.59 0.48 0.56 0.47 0.57 0.45 0.6 0.45 0.6 0.46 0.6 0.43 0.61 0.44 0.61 0.43 0.62 0.41 0.61 0.41 0.63 0.4 0.65 0.41 0.66 0.4 0.62 0.39 0.65 0.36 0.68 0.38 0.67 0.37 0.67 0.36 0.67 0.36 0.69 0.34 0.68 0.35 0.7 0.33 0.7 0.33 0.71 0.32 0.71 0.32 0.73 0.3 -0.02 0zm24.41 4.78l0 5.56 0 0 -0.88 0 -0.88 -0.02 -0.88 -0.02 -0.87 -0.05 -0.87 -0.04 -0.86 -0.06 -0.85 -0.06 -0.88 -0.08 -0.85 -0.09 -0.84 -0.09 -0.85 -0.11 -0.87 -0.11 -0.84 -0.14 -0.83 -0.13 -0.84 -0.15 -0.83 -0.16 -0.86 -0.17 -0.82 -0.19 -0.81 -0.18 -0.83 -0.2 -0.82 -0.21 -0.81 -0.22 -0.82 -0.23 -0.81 -0.24 -0.8 -0.25 -0.81 -0.26 -0.8 -0.27 -0.78 -0.28 -0.8 -0.28 -0.8 -0.31 -0.8 -0.32 -0.78 -0.32 2.26 -5.1 0.72 0.3 0.72 0.28 0.72 0.27 0.72 0.26 0.74 0.26 0.74 0.25 0.73 0.24 0.74 0.23 0.73 0.22 0.74 0.21 0.75 0.2 0.74 0.19 0.75 0.18 0.77 0.18 0.76 0.17 0.74 0.15 0.77 0.14 0.76 0.13 0.79 0.13 0.76 0.12 0.77 0.11 0.77 0.09 0.8 0.09 0.79 0.09 0.76 0.06 0.81 0.06 0.8 0.06 0.79 0.04 0.81 0.03 0.8 0.02 0.8 0.02 0.82 0 0 0zm241.69 -155.83l-37.18 0 0 -5.56 37.18 0 2.86 2.78 -2.86 2.78zm-2.86 120.68l0 -123.46 5.72 0 0 123.46 0 0 -5.72 0zm-0.33 28.88l-5.26 -2.2 0 -0.01 0.35 -0.77 0.33 -0.79 0.32 -0.78 0.3 -0.78 0.3 -0.8 0.29 -0.79 0.28 -0.81 0.27 -0.79 0.25 -0.8 0.25 -0.82 0.23 -0.82 0.23 -0.82 0.21 -0.81 0.2 -0.84 0.19 -0.83 0.18 -0.81 0.17 -0.84 0.16 -0.85 0.15 -0.84 0.14 -0.85 0.12 -0.84 0.12 -0.86 0.1 -0.84 0.09 -0.87 0.09 -0.87 0.06 -0.87 0.07 -0.88 0.05 -0.86 0.04 -0.88 0.03 -0.88 0.01 -0.89 0.01 -0.89 5.72 0 -0.01 0.95 -0.01 0.95 -0.03 0.96 -0.04 0.94 -0.05 0.96 -0.07 0.94 -0.08 0.93 -0.09 0.93 -0.09 0.93 -0.12 0.94 -0.12 0.92 -0.14 0.92 -0.16 0.91 -0.15 0.92 -0.18 0.89 -0.17 0.92 -0.2 0.91 -0.21 0.89 -0.22 0.88 -0.23 0.91 -0.25 0.88 -0.25 0.88 -0.27 0.88 -0.27 0.88 -0.29 0.87 -0.3 0.87 -0.31 0.87 -0.32 0.84 -0.34 0.88 -0.36 0.84 -0.35 0.85 -0.37 0.85 0 -0.01zm-16.34 23.5l-4.04 -3.94 -0.01 0.01 0.6 -0.59 0.59 -0.59 0.57 -0.58 0.57 -0.62 0.57 -0.6 0.54 -0.61 0.55 -0.63 0.54 -0.62 0.53 -0.65 0.53 -0.63 0.5 -0.63 0.52 -0.66 0.5 -0.66 0.49 -0.66 0.49 -0.67 0.47 -0.67 0.47 -0.69 0.46 -0.69 0.45 -0.69 0.44 -0.7 0.45 -0.72 0.43 -0.71 0.42 -0.72 0.41 -0.71 0.41 -0.74 0.4 -0.74 0.39 -0.76 0.39 -0.75 0.37 -0.75 0.36 -0.77 0.36 -0.78 0.36 -0.78 5.26 2.2 -0.38 0.84 -0.38 0.82 -0.4 0.83 -0.41 0.83 -0.41 0.81 -0.43 0.8 -0.42 0.78 -0.43 0.8 -0.45 0.79 -0.46 0.78 -0.47 0.77 -0.47 0.76 -0.48 0.76 -0.49 0.75 -0.5 0.75 -0.51 0.73 -0.51 0.73 -0.53 0.73 -0.53 0.72 -0.54 0.7 -0.54 0.7 -0.56 0.71 -0.57 0.69 -0.57 0.67 -0.58 0.68 -0.59 0.67 -0.6 0.67 -0.61 0.66 -0.61 0.64 -0.63 0.66 -0.63 0.63 -0.64 0.63 -0.01 0.01zm-24.22 15.82l-2.3 -5.08 0.01 -0.01 0.8 -0.35 0.81 -0.35 0.78 -0.35 0.79 -0.37 0.78 -0.36 0.76 -0.39 0.77 -0.38 0.74 -0.4 0.76 -0.4 0.75 -0.41 0.73 -0.41 0.73 -0.43 0.73 -0.43 0.72 -0.44 0.7 -0.44 0.7 -0.45 0.71 -0.48 0.7 -0.46 0.68 -0.48 0.66 -0.47 0.69 -0.51 0.67 -0.49 0.64 -0.5 0.67 -0.53 0.65 -0.52 0.62 -0.52 0.65 -0.54 0.63 -0.55 0.62 -0.56 0.62 -0.55 0.6 -0.57 0.61 -0.58 4.04 3.94 -0.65 0.62 -0.66 0.61 -0.66 0.61 -0.68 0.6 -0.69 0.59 -0.67 0.58 -0.7 0.58 -0.71 0.56 -0.69 0.55 -0.72 0.56 -0.73 0.53 -0.71 0.53 -0.74 0.53 -0.76 0.52 -0.74 0.5 -0.73 0.48 -0.76 0.51 -0.78 0.48 -0.78 0.48 -0.77 0.45 -0.79 0.47 -0.81 0.45 -0.79 0.43 -0.8 0.44 -0.82 0.42 -0.81 0.42 -0.84 0.41 -0.84 0.4 -0.83 0.39 -0.86 0.39 -0.85 0.37 -0.86 0.37 0.01 -0.01zm-29.65 5.9l0 -5.56 0 0 0.92 -0.01 0.91 -0.01 0.89 -0.03 0.9 -0.03 0.9 -0.05 0.89 -0.06 0.89 -0.07 0.88 -0.08 0.89 -0.09 0.88 -0.11 0.87 -0.1 0.86 -0.13 0.87 -0.13 0.87 -0.14 0.87 -0.16 0.86 -0.16 0.83 -0.17 0.86 -0.19 0.85 -0.2 0.85 -0.21 0.84 -0.21 0.82 -0.23 0.84 -0.24 0.82 -0.25 0.83 -0.26 0.83 -0.27 0.8 -0.27 0.82 -0.3 0.8 -0.3 0.82 -0.31 0.8 -0.32 0.79 -0.33 2.3 5.08 -0.87 0.37 -0.88 0.34 -0.86 0.35 -0.88 0.32 -0.88 0.32 -0.9 0.31 -0.89 0.29 -0.89 0.28 -0.9 0.27 -0.9 0.26 -0.92 0.25 -0.92 0.23 -0.91 0.23 -0.91 0.2 -0.92 0.21 -0.93 0.19 -0.94 0.18 -0.93 0.16 -0.93 0.16 -0.93 0.15 -0.96 0.13 -0.95 0.12 -0.94 0.11 -0.95 0.09 -0.96 0.1 -0.97 0.07 -0.97 0.06 -0.96 0.05 -0.96 0.05 -0.99 0.03 -0.97 0.01 -0.98 0.01 0 0zm-29.69 -5.89l2.28 -5.1 0.01 0.01 0.79 0.33 0.8 0.32 0.81 0.31 0.82 0.3 0.82 0.3 0.8 0.27 0.83 0.27 0.83 0.26 0.82 0.25 0.84 0.24 0.82 0.23 0.85 0.21 0.83 0.21 0.86 0.2 0.85 0.19 0.85 0.17 0.85 0.16 0.87 0.16 0.87 0.14 0.87 0.13 0.85 0.13 0.89 0.1 0.88 0.11 0.89 0.09 0.89 0.08 0.89 0.07 0.89 0.06 0.9 0.05 0.91 0.03 0.89 0.03 0.92 0.01 0.92 0.01 0 5.56 -0.98 -0.01 -0.98 -0.01 -0.99 -0.03 -0.97 -0.05 -0.96 -0.05 -0.97 -0.06 -0.97 -0.07 -0.97 -0.1 -0.95 -0.09 -0.94 -0.11 -0.95 -0.12 -0.97 -0.13 -0.93 -0.15 -0.93 -0.16 -0.93 -0.16 -0.93 -0.18 -0.95 -0.19 -0.91 -0.21 -0.92 -0.2 -0.91 -0.23 -0.91 -0.23 -0.92 -0.25 -0.9 -0.26 -0.9 -0.27 -0.89 -0.28 -0.89 -0.29 -0.9 -0.31 -0.88 -0.32 -0.88 -0.32 -0.87 -0.35 -0.88 -0.34 -0.87 -0.37 0.01 0.01zm-24.15 -15.84l4.06 -3.92 0 0 0.59 0.57 0.61 0.57 0.61 0.56 0.63 0.56 0.63 0.55 0.62 0.53 0.63 0.52 0.66 0.53 0.64 0.52 0.65 0.5 0.68 0.5 0.66 0.5 0.67 0.47 0.69 0.49 0.67 0.45 0.72 0.48 0.69 0.46 0.7 0.43 0.71 0.44 0.73 0.43 0.74 0.44 0.71 0.4 0.75 0.41 0.76 0.4 0.74 0.4 0.77 0.38 0.77 0.39 0.76 0.36 0.8 0.37 0.77 0.36 0.81 0.34 0.8 0.35 -2.28 5.1 -0.86 -0.37 -0.85 -0.38 -0.85 -0.38 -0.84 -0.39 -0.84 -0.4 -0.83 -0.41 -0.81 -0.42 -0.82 -0.42 -0.8 -0.44 -0.79 -0.43 -0.81 -0.46 -0.78 -0.46 -0.77 -0.45 -0.77 -0.48 -0.78 -0.49 -0.75 -0.5 -0.74 -0.48 -0.75 -0.51 -0.73 -0.51 -0.75 -0.53 -0.72 -0.54 -0.7 -0.52 -0.73 -0.56 -0.7 -0.56 -0.68 -0.55 -0.71 -0.58 -0.68 -0.59 -0.67 -0.59 -0.67 -0.6 -0.65 -0.6 -0.67 -0.61 -0.65 -0.63 0 0zm-16.27 -23.48l5.26 -2.22 0 0.01 0.36 0.78 0.36 0.78 0.36 0.77 0.37 0.75 0.39 0.76 0.38 0.75 0.41 0.72 0.41 0.77 0.4 0.71 0.42 0.71 0.44 0.72 0.43 0.72 0.44 0.69 0.45 0.69 0.47 0.7 0.46 0.69 0.47 0.67 0.48 0.67 0.48 0.65 0.5 0.66 0.52 0.66 0.51 0.64 0.51 0.63 0.53 0.64 0.54 0.62 0.55 0.63 0.55 0.62 0.55 0.59 0.58 0.61 0.58 0.6 0.58 0.59 0.59 0.58 -4.06 3.92 -0.65 -0.64 -0.62 -0.63 -0.62 -0.64 -0.62 -0.65 -0.61 -0.67 -0.59 -0.66 -0.59 -0.67 -0.58 -0.68 -0.57 -0.68 -0.57 -0.69 -0.55 -0.7 -0.54 -0.7 -0.54 -0.7 -0.54 -0.73 -0.52 -0.73 -0.51 -0.73 -0.5 -0.73 -0.49 -0.74 -0.49 -0.75 -0.48 -0.77 -0.47 -0.76 -0.46 -0.76 -0.46 -0.79 -0.44 -0.79 -0.43 -0.77 -0.43 -0.8 -0.42 -0.81 -0.41 -0.8 -0.41 -0.83 -0.4 -0.83 -0.38 -0.82 -0.38 -0.84 0 0.01zm-6.05 -28.89l5.72 0 0 0 0.01 0.89 0.01 0.89 0.03 0.88 0.04 0.88 0.05 0.86 0.07 0.88 0.06 0.87 0.09 0.87 0.09 0.87 0.1 0.84 0.12 0.86 0.12 0.84 0.14 0.85 0.15 0.84 0.16 0.85 0.17 0.84 0.18 0.81 0.19 0.83 0.2 0.84 0.21 0.81 0.23 0.82 0.23 0.82 0.25 0.82 0.25 0.8 0.27 0.79 0.28 0.81 0.29 0.79 0.3 0.8 0.3 0.78 0.32 0.78 0.33 0.79 0.35 0.77 -5.26 2.22 -0.37 -0.85 -0.35 -0.85 -0.36 -0.84 -0.34 -0.88 -0.32 -0.84 -0.31 -0.87 -0.3 -0.87 -0.29 -0.87 -0.27 -0.88 -0.27 -0.88 -0.25 -0.88 -0.25 -0.88 -0.23 -0.91 -0.22 -0.88 -0.21 -0.89 -0.2 -0.91 -0.17 -0.92 -0.18 -0.89 -0.15 -0.92 -0.16 -0.91 -0.14 -0.92 -0.12 -0.92 -0.12 -0.94 -0.09 -0.93 -0.09 -0.93 -0.08 -0.93 -0.07 -0.94 -0.05 -0.96 -0.04 -0.94 -0.03 -0.96 -0.01 -0.95 -0.01 -0.95 0 0zm5.72 -123.46l0 123.46 -5.72 0 0 -123.46 2.86 -2.78 2.86 2.78zm34.32 2.78l-37.18 0 0 -5.56 37.18 0 2.86 2.78 -2.86 2.78zm-2.86 121.6l0 -124.38 5.72 0 0 124.38 0 0 -5.72 0zm8.34 12.62l-5.26 2.22 0 -0.01 -0.19 -0.42 -0.19 -0.46 -0.18 -0.45 -0.16 -0.42 -0.17 -0.44 -0.16 -0.46 -0.15 -0.43 -0.15 -0.44 -0.15 -0.49 -0.13 -0.45 -0.12 -0.42 -0.13 -0.45 -0.12 -0.48 -0.11 -0.45 -0.11 -0.47 -0.1 -0.49 -0.09 -0.46 -0.08 -0.43 -0.08 -0.47 -0.08 -0.49 -0.07 -0.48 -0.06 -0.47 -0.06 -0.47 -0.05 -0.47 -0.04 -0.47 -0.05 -0.48 -0.03 -0.48 -0.03 -0.51 -0.01 -0.48 -0.02 -0.45 -0.01 -0.51 0 -0.49 5.72 0 0 0.43 0.01 0.39 0.02 0.45 0.01 0.42 0.03 0.39 0.03 0.42 0.03 0.42 0.04 0.41 0.05 0.41 0.04 0.41 0.06 0.41 0.05 0.4 0.06 0.37 0.08 0.41 0.08 0.43 0.07 0.4 0.08 0.37 0.09 0.39 0.09 0.39 0.1 0.36 0.11 0.39 0.12 0.42 0.11 0.39 0.11 0.35 0.13 0.38 0.13 0.39 0.14 0.38 0.13 0.36 0.16 0.4 0.14 0.37 0.15 0.34 0.17 0.38 0 -0.01zm7.17 10.28l-4.06 3.92 0 0 -0.33 -0.33 -0.31 -0.31 -0.31 -0.32 -0.33 -0.34 -0.3 -0.33 -0.3 -0.33 -0.33 -0.37 -0.29 -0.34 -0.28 -0.34 -0.28 -0.34 -0.29 -0.35 -0.29 -0.37 -0.29 -0.38 -0.26 -0.36 -0.27 -0.36 -0.25 -0.35 -0.28 -0.41 -0.25 -0.38 -0.24 -0.35 -0.28 -0.43 -0.23 -0.4 -0.22 -0.36 -0.23 -0.38 -0.24 -0.41 -0.25 -0.44 -0.21 -0.41 -0.2 -0.38 -0.22 -0.42 -0.21 -0.44 -0.19 -0.4 -0.21 -0.41 -0.2 -0.44 5.26 -2.22 0.16 0.36 0.17 0.37 0.19 0.4 0.17 0.34 0.18 0.34 0.2 0.38 0.19 0.35 0.17 0.32 0.2 0.33 0.21 0.36 0.22 0.36 0.21 0.34 0.18 0.29 0.24 0.35 0.21 0.34 0.22 0.29 0.23 0.33 0.23 0.32 0.24 0.32 0.23 0.3 0.23 0.29 0.25 0.31 0.26 0.32 0.26 0.3 0.25 0.3 0.23 0.27 0.28 0.29 0.26 0.29 0.27 0.28 0.27 0.28 0.29 0.29 0.27 0.27 0 0zm10.58 6.87l-2.24 5.12 0 0 -0.46 -0.19 -0.42 -0.2 -0.41 -0.18 -0.45 -0.2 -0.44 -0.21 -0.39 -0.19 -0.41 -0.2 -0.43 -0.22 -0.42 -0.22 -0.41 -0.23 -0.42 -0.23 -0.38 -0.23 -0.4 -0.22 -0.41 -0.26 -0.37 -0.23 -0.41 -0.26 -0.38 -0.25 -0.38 -0.25 -0.4 -0.28 -0.36 -0.26 -0.35 -0.25 -0.38 -0.28 -0.4 -0.31 -0.37 -0.3 -0.33 -0.27 -0.33 -0.27 -0.36 -0.3 -0.38 -0.32 -0.33 -0.31 -0.34 -0.31 -0.35 -0.32 -0.33 -0.32 4.06 -3.92 0.29 0.28 0.27 0.26 0.3 0.27 0.31 0.27 0.26 0.24 0.3 0.24 0.33 0.27 0.33 0.27 0.29 0.24 0.28 0.21 0.3 0.22 0.35 0.25 0.32 0.24 0.3 0.2 0.34 0.23 0.34 0.23 0.31 0.2 0.35 0.21 0.33 0.2 0.34 0.2 0.36 0.21 0.34 0.19 0.35 0.19 0.34 0.18 0.35 0.18 0.37 0.18 0.39 0.19 0.34 0.17 0.35 0.16 0.41 0.18 0.38 0.16 0.36 0.15 0 0zm12.89 2.52l0 5.56 0 0 -0.49 0 -0.5 -0.01 -0.5 -0.01 -0.52 -0.03 -0.48 -0.03 -0.46 -0.03 -0.49 -0.03 -0.52 -0.05 -0.49 -0.05 -0.48 -0.05 -0.47 -0.07 -0.49 -0.06 -0.47 -0.08 -0.48 -0.07 -0.47 -0.09 -0.47 -0.09 -0.51 -0.1 -0.46 -0.11 -0.44 -0.1 -0.47 -0.11 -0.49 -0.12 -0.46 -0.13 -0.44 -0.12 -0.46 -0.13 -0.47 -0.15 -0.46 -0.15 -0.47 -0.16 -0.44 -0.16 -0.41 -0.14 -0.46 -0.17 -0.48 -0.18 -0.43 -0.18 2.24 -5.12 0.39 0.16 0.34 0.14 0.38 0.13 0.43 0.16 0.38 0.14 0.37 0.12 0.4 0.13 0.37 0.11 0.38 0.11 0.42 0.12 0.4 0.11 0.37 0.1 0.39 0.09 0.44 0.1 0.4 0.09 0.37 0.08 0.41 0.07 0.41 0.07 0.4 0.07 0.41 0.06 0.41 0.06 0.41 0.05 0.42 0.05 0.41 0.05 0.4 0.03 0.41 0.03 0.46 0.03 0.42 0.03 0.4 0.01 0.42 0.01 0.44 0.01 0.43 0 0 0zm12.99 -2.52l2.24 5.12 -0.01 0 -0.43 0.18 -0.48 0.18 -0.44 0.16 -0.43 0.16 -0.45 0.16 -0.46 0.15 -0.46 0.15 -0.48 0.15 -0.47 0.13 -0.43 0.12 -0.47 0.13 -0.5 0.13 -0.46 0.1 -0.45 0.1 -0.47 0.11 -0.5 0.1 -0.47 0.09 -0.48 0.09 -0.49 0.07 -0.48 0.08 -0.48 0.06 -0.48 0.07 -0.48 0.05 -0.49 0.05 -0.53 0.05 -0.49 0.03 -0.46 0.03 -0.49 0.03 -0.52 0.03 -0.51 0.01 -0.49 0.01 -0.5 0 0 -5.56 0.44 0 0.43 -0.01 0.43 -0.01 0.4 -0.01 0.43 -0.03 0.46 -0.03 0.43 -0.03 0.39 -0.03 0.41 -0.05 0.42 -0.05 0.42 -0.05 0.42 -0.06 0.42 -0.06 0.41 -0.07 0.4 -0.07 0.41 -0.07 0.38 -0.08 0.41 -0.09 0.43 -0.1 0.4 -0.1 0.38 -0.09 0.39 -0.11 0.43 -0.12 0.39 -0.11 0.36 -0.11 0.4 -0.13 0.38 -0.13 0.39 -0.14 0.41 -0.14 0.38 -0.14 0.36 -0.14 0.39 -0.16 -0.01 0zm10.58 -6.87l4.04 3.92 0.01 0 -0.33 0.32 -0.35 0.32 -0.34 0.31 -0.33 0.31 -0.36 0.31 -0.36 0.3 -0.34 0.28 -0.35 0.29 -0.38 0.3 -0.38 0.29 -0.36 0.26 -0.36 0.27 -0.38 0.27 -0.38 0.26 -0.36 0.25 -0.4 0.26 -0.41 0.26 -0.37 0.23 -0.41 0.26 -0.4 0.22 -0.37 0.22 -0.41 0.24 -0.43 0.23 -0.42 0.22 -0.4 0.21 -0.45 0.22 -0.4 0.19 -0.42 0.2 -0.44 0.2 -0.41 0.18 -0.45 0.2 -0.44 0.19 -2.24 -5.12 0.38 -0.15 0.37 -0.16 0.39 -0.18 0.36 -0.16 0.36 -0.18 0.4 -0.19 0.33 -0.16 0.36 -0.19 0.36 -0.18 0.33 -0.19 0.33 -0.18 0.37 -0.22 0.34 -0.2 0.33 -0.2 0.35 -0.21 0.31 -0.2 0.32 -0.22 0.34 -0.23 0.32 -0.22 0.32 -0.23 0.32 -0.23 0.32 -0.24 0.3 -0.23 0.3 -0.24 0.31 -0.25 0.32 -0.26 0.28 -0.24 0.28 -0.25 0.31 -0.27 0.3 -0.27 0.27 -0.26 0.29 -0.28 0.01 0zm7.16 -10.28l5.26 2.22 0 0 -0.2 0.44 -0.21 0.41 -0.19 0.4 -0.21 0.44 -0.22 0.42 -0.2 0.38 -0.21 0.41 -0.25 0.44 -0.23 0.38 -0.23 0.41 -0.24 0.39 -0.22 0.37 -0.27 0.41 -0.24 0.37 -0.26 0.38 -0.27 0.41 -0.28 0.37 -0.25 0.34 -0.26 0.36 -0.29 0.38 -0.28 0.35 -0.27 0.35 -0.3 0.36 -0.3 0.36 -0.3 0.34 -0.29 0.33 -0.31 0.35 -0.31 0.33 -0.32 0.34 -0.33 0.33 -0.3 0.3 -0.34 0.33 -4.04 -3.92 0.26 -0.27 0.3 -0.3 0.27 -0.27 0.26 -0.28 0.27 -0.29 0.25 -0.27 0.27 -0.31 0.26 -0.3 0.24 -0.28 0.24 -0.3 0.25 -0.31 0.24 -0.31 0.23 -0.3 0.24 -0.32 0.25 -0.34 0.22 -0.31 0.21 -0.29 0.22 -0.34 0.22 -0.33 0.19 -0.31 0.22 -0.37 0.22 -0.33 0.19 -0.33 0.21 -0.36 0.17 -0.32 0.19 -0.35 0.2 -0.38 0.18 -0.34 0.17 -0.34 0.19 -0.4 0.17 -0.37 0.16 -0.36 0 0zm2.63 -12.62l5.72 0 0 0 0 0.49 -0.01 0.51 -0.02 0.45 -0.01 0.48 -0.03 0.51 -0.03 0.48 -0.05 0.48 -0.04 0.47 -0.05 0.47 -0.06 0.47 -0.06 0.47 -0.07 0.48 -0.08 0.49 -0.08 0.47 -0.08 0.43 -0.09 0.49 -0.11 0.46 -0.1 0.47 -0.12 0.48 -0.11 0.42 -0.12 0.45 -0.14 0.48 -0.14 0.45 -0.13 0.43 -0.15 0.47 -0.16 0.43 -0.15 0.46 -0.19 0.46 -0.15 0.4 -0.18 0.45 -0.19 0.46 -0.19 0.43 -5.26 -2.22 0.17 -0.37 0.15 -0.34 0.14 -0.37 0.17 -0.42 0.13 -0.34 0.13 -0.38 0.14 -0.39 0.11 -0.35 0.13 -0.41 0.12 -0.39 0.1 -0.36 0.1 -0.39 0.11 -0.42 0.1 -0.36 0.08 -0.39 0.09 -0.4 0.07 -0.37 0.08 -0.43 0.08 -0.41 0.06 -0.37 0.05 -0.4 0.06 -0.41 0.04 -0.41 0.05 -0.41 0.04 -0.41 0.03 -0.42 0.03 -0.42 0.03 -0.39 0.01 -0.42 0.02 -0.45 0.01 -0.39 0 -0.43 0 0zm5.72 -124.38l0 124.38 -5.72 0 0 -124.38 2.86 -2.78 2.86 2.78zm162.86 192.09l40.89 0 0 5.56 -40.89 0 -2.53 -1.48 2.53 -4.08zm-33.89 -65.11l36.42 66.59 -5.06 2.6 -36.42 -66.59 2.53 -4.08 2.53 1.48zm-24.74 -1.48l22.21 0 0 5.56 -22.21 0 -2.86 -2.78 2.86 -2.78zm-2.86 69.37l0 -66.59 5.72 0 0 66.59 -2.86 2.78 -2.86 -2.78zm-35.45 -2.78l38.31 0 0 5.56 -38.31 0 -2.86 -2.78 2.86 -2.78zm2.86 -192.09l0 194.87 -5.72 0 0 -194.87 2.86 -2.78 2.86 2.78zm70.53 2.78l-73.39 0 0 -5.56 73.39 0 0 0 0 5.56zm47.64 13.63l-4.06 3.92 0 0 -1.14 -1.09 -1.15 -1.05 -1.18 -1.01 -1.18 -0.99 -1.18 -0.93 -1.23 -0.91 -1.23 -0.89 -1.22 -0.84 -1.25 -0.8 -1.27 -0.77 -1.28 -0.73 -1.3 -0.71 -1.3 -0.67 -1.31 -0.62 -1.35 -0.6 -1.33 -0.56 -1.37 -0.53 -1.38 -0.5 -1.4 -0.46 -1.41 -0.43 -1.42 -0.39 -1.44 -0.36 -1.45 -0.32 -1.47 -0.29 -1.49 -0.26 -1.5 -0.22 -1.52 -0.19 -1.53 -0.15 -1.56 -0.13 -1.56 -0.09 -1.58 -0.04 -1.6 -0.02 0 -5.56 1.72 0.02 1.72 0.06 1.7 0.09 1.68 0.13 1.67 0.17 1.66 0.21 1.64 0.24 1.61 0.28 1.61 0.31 1.61 0.36 1.58 0.4 1.56 0.43 1.55 0.47 1.54 0.52 1.5 0.54 1.51 0.57 1.49 0.62 1.47 0.66 1.45 0.7 1.44 0.73 1.42 0.77 1.4 0.81 1.39 0.85 1.37 0.88 1.36 0.92 1.33 0.95 1.31 0.99 1.32 1.03 1.28 1.07 1.26 1.09 1.25 1.15 1.24 1.17 0 0zm19.66 46.39l-5.72 0 0 0 -0.02 -1.56 -0.05 -1.54 -0.1 -1.54 -0.12 -1.51 -0.16 -1.51 -0.19 -1.48 -0.22 -1.46 -0.27 -1.45 -0.3 -1.44 -0.33 -1.42 -0.38 -1.4 -0.4 -1.4 -0.43 -1.36 -0.48 -1.36 -0.51 -1.35 -0.55 -1.34 -0.57 -1.31 -0.62 -1.29 -0.65 -1.29 -0.68 -1.28 -0.72 -1.25 -0.75 -1.24 -0.79 -1.24 -0.83 -1.22 -0.85 -1.2 -0.9 -1.18 -0.93 -1.18 -0.96 -1.16 -1.01 -1.15 -1.04 -1.13 -1.07 -1.12 -1.12 -1.11 4.06 -3.92 1.2 1.19 1.17 1.22 1.12 1.23 1.09 1.25 1.06 1.26 1.01 1.28 0.98 1.3 0.95 1.32 0.89 1.34 0.87 1.34 0.83 1.36 0.78 1.39 0.76 1.4 0.71 1.41 0.68 1.43 0.63 1.45 0.59 1.46 0.57 1.47 0.52 1.5 0.49 1.52 0.44 1.52 0.4 1.54 0.37 1.56 0.32 1.56 0.29 1.59 0.26 1.6 0.21 1.62 0.16 1.63 0.14 1.63 0.1 1.66 0.05 1.68 0.02 1.68 0 0zm-5.72 1.9l0 -1.9 5.72 0 0 1.9 0 0 -5.72 0zm-33.79 56.99l-5.06 2.6 1.26 -3.79 2.34 -1.16 2.26 -1.2 2.19 -1.23 2.11 -1.28 2.04 -1.3 1.95 -1.35 1.88 -1.38 1.8 -1.43 1.73 -1.45 1.64 -1.49 1.58 -1.53 1.5 -1.56 1.41 -1.6 1.35 -1.64 1.28 -1.68 1.2 -1.71 1.12 -1.74 1.06 -1.8 0.98 -1.83 0.91 -1.86 0.83 -1.91 0.77 -1.94 0.69 -1.99 0.62 -2.02 0.55 -2.07 0.47 -2.1 0.4 -2.16 0.34 -2.2 0.26 -2.22 0.18 -2.28 0.11 -2.32 0.04 -2.37 5.72 0 -0.04 2.53 -0.11 2.5 -0.2 2.46 -0.28 2.42 -0.36 2.38 -0.44 2.34 -0.51 2.3 -0.61 2.27 -0.68 2.22 -0.77 2.19 -0.83 2.14 -0.93 2.11 -1.01 2.06 -1.08 2.01 -1.16 1.98 -1.24 1.94 -1.34 1.89 -1.4 1.84 -1.47 1.8 -1.57 1.76 -1.64 1.72 -1.72 1.67 -1.8 1.63 -1.87 1.57 -1.94 1.53 -2.02 1.5 -2.11 1.45 -2.18 1.4 -2.25 1.36 -2.33 1.31 -2.4 1.28 -2.48 1.22 1.26 -3.79zm34.12 74.48l-39.18 -71.88 5.06 -2.6 39.18 71.88 -2.53 4.08 -2.53 -1.48zm-47.88 -114.46l4.06 3.92 0.03 -0.03 -0.57 0.56 -0.58 0.55 -0.59 0.52 -0.57 0.5 -0.62 0.51 -0.62 0.48 -0.59 0.44 -0.64 0.46 -0.63 0.42 -0.63 0.41 -0.65 0.39 -0.66 0.38 -0.67 0.36 -0.66 0.33 -0.68 0.32 -0.69 0.3 -0.68 0.29 -0.71 0.27 -0.7 0.24 -0.7 0.23 -0.73 0.22 -0.72 0.19 -0.73 0.17 -0.74 0.16 -0.74 0.13 -0.74 0.13 -0.75 0.09 -0.75 0.09 -0.78 0.07 -0.77 0.04 -0.77 0.03 -0.77 0.01 0 -5.56 0.65 -0.01 0.63 -0.01 0.61 -0.04 0.6 -0.05 0.63 -0.07 0.61 -0.09 0.6 -0.09 0.6 -0.11 0.58 -0.12 0.59 -0.15 0.58 -0.15 0.55 -0.16 0.58 -0.19 0.56 -0.2 0.55 -0.21 0.56 -0.23 0.55 -0.24 0.54 -0.26 0.54 -0.27 0.53 -0.28 0.52 -0.3 0.53 -0.33 0.53 -0.33 0.51 -0.34 0.5 -0.36 0.53 -0.4 0.5 -0.38 0.48 -0.41 0.51 -0.44 0.49 -0.44 0.48 -0.45 0.49 -0.48 0.03 -0.03zm7.51 -18.04l5.72 0 0 0 -0.01 0.79 -0.02 0.79 -0.04 0.8 -0.07 0.77 -0.07 0.76 -0.1 0.78 -0.12 0.75 -0.13 0.75 -0.16 0.75 -0.16 0.73 -0.19 0.75 -0.21 0.72 -0.22 0.7 -0.25 0.73 -0.26 0.7 -0.27 0.69 -0.3 0.68 -0.31 0.68 -0.34 0.69 -0.35 0.66 -0.37 0.65 -0.39 0.65 -0.4 0.63 -0.41 0.63 -0.46 0.64 -0.46 0.61 -0.46 0.58 -0.49 0.61 -0.52 0.59 -0.54 0.58 -0.54 0.56 -0.55 0.56 -4.06 -3.92 0.47 -0.46 0.46 -0.48 0.44 -0.48 0.4 -0.47 0.41 -0.49 0.4 -0.52 0.38 -0.49 0.34 -0.5 0.35 -0.51 0.34 -0.53 0.31 -0.51 0.29 -0.53 0.29 -0.54 0.26 -0.53 0.25 -0.56 0.24 -0.56 0.23 -0.57 0.22 -0.56 0.19 -0.57 0.18 -0.6 0.17 -0.58 0.15 -0.59 0.14 -0.61 0.12 -0.61 0.11 -0.63 0.1 -0.63 0.08 -0.62 0.07 -0.66 0.05 -0.65 0.04 -0.64 0.02 -0.67 0.01 -0.69 0 0zm-7.49 -17.35l4.02 -3.96 -0.03 -0.02 0.57 0.54 0.53 0.53 0.54 0.56 0.52 0.58 0.48 0.56 0.48 0.57 0.47 0.6 0.44 0.61 0.42 0.6 0.41 0.61 0.4 0.65 0.36 0.62 0.35 0.64 0.34 0.66 0.32 0.67 0.29 0.66 0.28 0.67 0.26 0.67 0.25 0.71 0.22 0.7 0.21 0.7 0.19 0.72 0.17 0.73 0.15 0.72 0.13 0.72 0.12 0.75 0.1 0.76 0.08 0.74 0.07 0.76 0.04 0.78 0.02 0.76 0.01 0.78 -5.72 0 -0.01 -0.66 -0.02 -0.66 -0.04 -0.62 -0.05 -0.64 -0.06 -0.62 -0.08 -0.6 -0.1 -0.61 -0.11 -0.6 -0.13 -0.6 -0.13 -0.59 -0.15 -0.56 -0.17 -0.58 -0.18 -0.56 -0.19 -0.53 -0.22 -0.55 -0.22 -0.55 -0.25 -0.54 -0.24 -0.53 -0.26 -0.5 -0.29 -0.52 -0.3 -0.52 -0.3 -0.49 -0.33 -0.49 -0.34 -0.5 -0.36 -0.47 -0.37 -0.48 -0.38 -0.47 -0.42 -0.48 -0.4 -0.46 -0.44 -0.44 -0.47 -0.47 -0.45 -0.44 -0.03 -0.02zm-17.76 -7.09l0 -5.56 0 0 0.78 0.01 0.77 0.03 0.77 0.04 0.76 0.05 0.77 0.08 0.76 0.1 0.74 0.11 0.74 0.13 0.72 0.14 0.75 0.16 0.72 0.19 0.71 0.19 0.73 0.22 0.68 0.23 0.7 0.24 0.68 0.27 0.68 0.27 0.7 0.31 0.66 0.32 0.66 0.33 0.66 0.36 0.62 0.35 0.66 0.39 0.63 0.41 0.62 0.4 0.61 0.44 0.61 0.45 0.59 0.46 0.58 0.47 0.6 0.52 0.55 0.5 0.57 0.52 -4.02 3.96 -0.47 -0.44 -0.49 -0.44 -0.46 -0.4 -0.5 -0.39 -0.49 -0.4 -0.49 -0.35 -0.51 -0.36 -0.5 -0.34 -0.51 -0.33 -0.5 -0.29 -0.54 -0.31 -0.52 -0.28 -0.54 -0.27 -0.54 -0.26 -0.52 -0.23 -0.56 -0.23 -0.56 -0.21 -0.56 -0.2 -0.58 -0.19 -0.55 -0.18 -0.59 -0.15 -0.58 -0.15 -0.57 -0.12 -0.62 -0.12 -0.6 -0.11 -0.62 -0.09 -0.62 -0.08 -0.61 -0.06 -0.62 -0.05 -0.65 -0.04 -0.63 -0.01 -0.66 -0.01 0 0zm-31.37 -5.56l31.37 0 0 5.56 -31.37 0 -2.86 -2.78 2.86 -2.78zm-2.86 58.44l0 -55.66 5.72 0 0 55.66 -2.86 2.78 -2.86 -2.78zm34.23 2.78l-31.37 0 0 -5.56 31.37 0 0 0 0 5.56zm203.49 -58.71l0 -36.18 5.72 0 0 36.18 -2.86 2.78 -2.86 -2.78zm-80.06 -2.78l82.92 0 0 5.56 -82.92 0 -2.86 -2.78 2.86 -2.78zm-2.86 46.18l0 -43.4 5.72 0 0 43.4 -2.86 2.78 -2.86 -2.78zm85.78 2.78l-82.92 0 0 -5.56 82.92 0 2.86 2.78 -2.86 2.78zm-2.86 32.56l0 -35.34 5.72 0 0 35.34 -2.86 2.78 -2.86 -2.78zm-80.06 -2.78l82.92 0 0 5.56 -82.92 0 -2.86 -2.78 2.86 -2.78zm-2.86 46.47l0 -43.69 5.72 0 0 43.69 -2.86 2.78 -2.86 -2.78zm85.78 2.78l-82.92 0 0 -5.56 82.92 0 2.86 2.78 -2.86 2.78zm-2.86 33.39l0 -36.17 5.72 0 0 36.17 -2.86 2.78 -2.86 -2.78zm-117.24 -2.78l120.1 0 0 5.56 -120.1 0 -2.86 -2.78 2.86 -2.78zm2.86 -192l0 194.78 -5.72 0 0 -194.78 2.86 -2.78 2.86 2.78zm117.24 2.78l-120.1 0 0 -5.56 120.1 0 2.86 2.78 -2.86 2.78z"/>
   </g>
   <path class="fil2" d="M2209.51 1718.09c5.39,0 10.58,-0.6 15.58,-1.85 4.96,-1.21 9.68,-2.92 14.16,-5.2 4.48,-2.27 8.63,-4.96 12.44,-8.12 3.81,-3.1 7.2,-6.63 10.15,-10.52l25.83 21.75c-4.53,5.61 -9.67,10.71 -15.39,15.35 -5.72,4.59 -11.92,8.53 -18.59,11.78 -6.67,3.3 -13.67,5.79 -21.06,7.56 -7.44,1.76 -15.11,2.64 -23.12,2.64 -9.2,0 -18.11,-1.16 -26.59,-3.47 -8.54,-2.28 -16.49,-5.58 -23.97,-9.84 -7.44,-4.26 -14.16,-9.32 -20.21,-15.21 -6.06,-5.89 -11.25,-12.48 -15.63,-19.71 -4.39,-7.24 -7.77,-14.98 -10.11,-23.28 -2.38,-8.3 -3.57,-16.93 -3.57,-25.88 0,-8.95 1.19,-17.58 3.57,-25.88 2.34,-8.3 5.72,-16.04 10.11,-23.28 4.38,-7.23 9.57,-13.82 15.63,-19.7 6.05,-5.9 12.77,-10.95 20.21,-15.22 7.48,-4.26 15.43,-7.56 23.97,-9.83 8.48,-2.32 17.39,-3.48 26.59,-3.48 8.01,0 15.68,0.88 23.12,2.65 7.39,1.76 14.39,4.26 21.06,7.55 6.67,3.25 12.87,7.15 18.59,11.74 5.72,4.54 10.86,9.64 15.39,15.25l-25.83 21.89c-2.95,-3.89 -6.34,-7.41 -10.15,-10.62 -3.81,-3.15 -7.96,-5.84 -12.44,-8.06 -4.48,-2.23 -9.2,-3.95 -14.16,-5.16 -5,-1.24 -10.19,-1.85 -15.58,-1.85 -9.05,0 -17.54,1.67 -25.54,5.01 -8.01,3.39 -15.02,7.93 -20.97,13.73 -5.96,5.79 -10.63,12.57 -14.11,20.31 -3.44,7.75 -5.14,16.09 -5.14,24.95 0,8.76 1.7,17.07 5.14,24.86 3.48,7.79 8.15,14.61 14.11,20.41 5.95,5.79 12.96,10.33 20.97,13.72 8,3.34 16.49,5.01 25.54,5.01zm204.51 -161.39l37.18 0 0 123.46c0,9.87 -1.96,19.15 -5.82,27.78 -3.86,8.66 -9.1,16.18 -15.73,22.62 -6.67,6.45 -14.44,11.51 -23.35,15.26 -8.86,3.76 -18.4,5.66 -28.5,5.66 -10.15,0 -19.68,-1.9 -28.55,-5.66 -8.91,-3.75 -16.63,-8.81 -23.26,-15.26 -6.62,-6.44 -11.82,-13.96 -15.68,-22.62 -3.86,-8.63 -5.81,-17.91 -5.81,-27.78l0 -123.46 37.17 0 0 124.38c0,4.87 0.96,9.46 2.86,13.73 1.91,4.27 4.53,7.97 7.77,11.13 3.29,3.2 7.11,5.66 11.49,7.47 4.38,1.8 9.05,2.73 14.01,2.73 5,0 9.72,-0.93 14.11,-2.73 4.38,-1.81 8.19,-4.27 11.48,-7.47 3.25,-3.16 5.86,-6.86 7.77,-11.13 1.91,-4.27 2.86,-8.86 2.86,-13.73l0 -124.38zm206.61 194.87l-40.9 0 -36.41 -66.59 -22.21 0 0 66.59 -38.31 0 0 -194.87 73.39 0c17.82,0 33.02,6.12 45.61,18.37 12.53,12.19 18.83,27.03 18.83,44.43l0 1.9c0,26.34 -13.07,45.77 -39.18,58.29l39.18 71.88zm-68.15 -102.76c7.57,0 14.19,-2.83 19.77,-8.44 5.57,-5.43 8.34,-12.11 8.34,-20 0,-7.69 -2.77,-14.14 -8.34,-19.33 -5.48,-5.24 -12.11,-7.89 -19.77,-7.89l-31.37 0 0 55.66 31.37 0zm206.35 -92.11l0 36.17 -82.92 0 0 43.42 82.92 0 0 35.33 -82.92 0 0 43.69 82.92 0 0 36.17 -120.1 0 0 -194.78 120.1 0z"/>
   <path class="fil1" d="M2119.7 1815.62c2.04,0 3.64,-0.38 4.77,-1.14 1.15,-0.76 1.95,-1.65 2.44,-2.71 0.48,-1.05 0.76,-2.13 0.85,-3.23 0.09,-1.11 0.14,-2.01 0.14,-2.71 0,-3.09 -0.77,-5.3 -2.3,-6.64 -1.53,-1.34 -4.01,-2.01 -7.43,-2.01l-8.74 0 0 18.44 10.27 0zm-10.27 33.47l-11.17 0 0 -62.75 24.32 0c5.17,0 9.19,1.81 12.07,5.42 2.88,3.61 4.33,8.5 4.33,14.68 0,1.4 -0.22,3.24 -0.64,5.51 -0.41,2.27 -1.24,4.48 -2.47,6.63 -1.23,2.17 -2.96,4.01 -5.18,5.56 -2.22,1.54 -5.1,2.31 -8.65,2.31l-12.61 0 0 22.64zm66.09 -35.13c2.88,0 5.03,-0.65 6.44,-1.93 1.41,-1.28 2.11,-3.49 2.11,-6.64 0,-0.81 -0.1,-1.7 -0.31,-2.66 -0.22,-0.97 -0.59,-1.85 -1.13,-2.67 -0.54,-0.81 -1.32,-1.5 -2.34,-2.05 -1.02,-0.56 -2.34,-0.83 -3.97,-0.83l-13.78 0 0 16.78 12.98 0zm-23.88 -27.62l26.94 0c3.48,0 6.32,0.67 8.51,2.01 2.19,1.34 3.87,2.96 5.05,4.85 1.17,1.89 1.96,3.84 2.38,5.86 0.42,2.01 0.63,3.68 0.63,5.02 0,3.49 -0.68,6.6 -2.07,9.31 -1.38,2.71 -3.39,4.58 -6.03,5.63 1.08,0.59 2.04,1.18 2.88,1.8 0.84,0.61 1.53,1.49 2.07,2.62 0.54,1.13 0.96,2.61 1.26,4.41 0.3,1.81 0.45,4.17 0.45,7.08 0,2.28 0.02,4.17 0.05,5.68 0.03,1.51 0.11,2.73 0.27,3.63 0.15,0.9 0.37,1.6 0.67,2.09 0.3,0.5 0.75,0.87 1.35,1.09l0 1.67 -12.25 0c-0.36,-1.52 -0.64,-3.19 -0.86,-5.03 -0.2,-1.84 -0.31,-4.38 -0.31,-7.65 0,-2.15 -0.06,-3.97 -0.18,-5.46 -0.12,-1.48 -0.46,-2.71 -1.03,-3.66 -0.57,-0.97 -1.44,-1.67 -2.62,-2.11 -1.17,-0.43 -2.78,-0.65 -4.82,-0.65l-11.44 0 0 24.56 -10.8 0 -0.1 -62.75zm67.71 62.75l-11.08 0 0 -62.75 11.08 0 0 62.75zm45.19 -62.75l11.53 0 -18.02 62.75 -10.63 0 -17.92 -62.75 11.98 0 11.34 47.54 0.1 0 11.62 -47.54zm29.6 38.98l13.51 0 -6.57 -24.82 -0.18 0 -6.76 24.82zm-6.66 23.77l-11.72 0 18.93 -62.75 12.88 0 18.65 62.75 -12.08 0 -3.42 -12.94 -19.55 0 -3.69 12.94zm64.37 0l-11.17 0 0 -51.65 -15.95 0 0 -11.1 43.15 0 0 11.1 -16.03 0 0 51.65zm65.63 -51.65l-28.11 0 0 13.2 25.86 0 0 11.09 -25.86 0 0 16.26 29.38 0 0 11.1 -40.27 0 0 -62.75 39 0 0 11.1zm50.2 40.28l26.31 0 0 11.37 -37.48 0 0 -62.75 11.17 0 0 51.38zm48.34 11.37l-11.08 0 0 -62.75 11.08 0 0 62.75zm65.37 0l-10.36 0 0 -52.53 -0.18 0 -9.91 52.53 -10.81 0 -9.73 -52.53 -0.18 0 0 52.53 -10.36 0 0 -62.75 16.22 0 9.63 49.46 0.1 0 9.45 -49.46 16.13 0 0 62.75zm24.92 0l-11.09 0 0 -62.75 11.09 0 0 62.75zm36.98 0l-11.16 0 0 -51.65 -15.95 0 0 -11.1 43.15 0 0 11.1 -16.04 0 0 51.65zm65.64 -51.65l-28.11 0 0 13.2 25.86 0 0 11.09 -25.86 0 0 16.26 29.38 0 0 11.1 -40.28 0 0 -62.75 39.01 0 0 11.1zm25.28 40.81l10.76 0c2.22,0 4.1,-0.61 5.67,-1.84 1.54,-1.22 2.79,-2.82 3.71,-4.8 0.92,-1.98 1.6,-4.24 2.02,-6.77 0.41,-2.53 0.63,-5.09 0.63,-7.65 0,-4.6 -0.42,-8.24 -1.26,-10.93 -0.83,-2.67 -1.86,-4.68 -3.09,-6.02 -1.24,-1.35 -2.55,-2.19 -4,-2.54 -1.42,-0.35 -2.72,-0.52 -3.86,-0.52l-10.58 0 0 41.07zm-10.9 -51.91l23.42 0c3,0 5.62,0.46 7.84,1.4 2.21,0.93 4.12,2.17 5.72,3.71 1.59,1.54 2.91,3.34 3.96,5.37 1.05,2.05 1.88,4.17 2.48,6.39 0.6,2.21 1.02,4.44 1.26,6.68 0.24,2.24 0.36,4.36 0.36,6.34 0,2.21 -0.13,4.57 -0.41,7.07 -0.27,2.51 -0.73,4.99 -1.4,7.44 -0.65,2.44 -1.54,4.77 -2.65,6.98 -1.11,2.22 -2.48,4.17 -4.1,5.86 -1.62,1.69 -3.55,3.03 -5.81,4.02 -2.25,0.99 -4.82,1.49 -7.7,1.49l-22.88 0 -0.09 -62.75z"/>
   <polygon class="fil3" points="916.35,1787.25 2072.92,1787.25 2072.92,1811.42 916.35,1811.42 "/>
   <polygon class="fil3" points="916.35,1819.79 2072.92,1819.79 2072.92,1832.65 916.35,1832.65 "/>
   <polygon class="fil3" points="916.35,1838.74 2072.92,1838.74 2072.92,1845.19 916.35,1845.19 "/>
   <path class="fil4" d="M742.64 1881.48c10.37,0 18.78,8.4 18.78,18.77 0,10.37 -8.41,18.78 -18.78,18.78 -10.37,0 -18.77,-8.41 -18.77,-18.78 0,-10.37 8.4,-18.77 18.77,-18.77z"/>
   <path class="fil4" d="M742.64 1833.2c8.03,0 14.53,6.5 14.53,14.52 0,8.03 -6.5,14.53 -14.53,14.53 -8.02,0 -14.52,-6.5 -14.52,-14.53 0,-8.02 6.5,-14.52 14.52,-14.52z"/>
   <path class="fil4" d="M742.64 1790.62c6.88,0 12.46,5.58 12.46,12.46 0,6.88 -5.58,12.46 -12.46,12.46 -6.88,0 -12.46,-5.58 -12.46,-12.46 0,-6.88 5.58,-12.46 12.46,-12.46z"/>
   <path class="fil4" d="M742.64 1505.18c10.37,0 18.78,-8.41 18.78,-18.77 0,-10.38 -8.41,-18.78 -18.78,-18.78 -10.37,0 -18.77,8.4 -18.77,18.78 0,10.36 8.4,18.77 18.77,18.77z"/>
   <path class="fil4" d="M742.64 1553.46c8.03,0 14.53,-6.51 14.53,-14.53 0,-8.02 -6.5,-14.52 -14.53,-14.52 -8.02,0 -14.52,6.5 -14.52,14.52 0,8.02 6.5,14.53 14.52,14.53z"/>
   <path class="fil4" d="M742.64 1596.04c6.88,0 12.46,-5.58 12.46,-12.46 0,-6.88 -5.58,-12.46 -12.46,-12.46 -6.88,0 -12.46,5.58 -12.46,12.46 0,6.88 5.58,12.46 12.46,12.46z"/>
   <path class="fil4" d="M836.71 1856.27c8.99,-5.18 20.47,-2.11 25.65,6.87 5.19,8.98 2.11,20.46 -6.87,25.65 -8.98,5.18 -20.46,2.1 -25.65,-6.88 -5.18,-8.97 -2.11,-20.45 6.87,-25.64z"/>
   <path class="fil4" d="M812.58 1814.46c6.94,-4.02 15.83,-1.63 19.84,5.32 4.01,6.94 1.63,15.83 -5.32,19.84 -6.95,4.01 -15.83,1.63 -19.84,-5.32 -4.01,-6.95 -1.63,-15.83 5.32,-19.84z"/>
   <path class="fil4" d="M791.29 1777.58c5.96,-3.44 13.57,-1.39 17.02,4.56 3.44,5.96 1.39,13.58 -4.57,17.03 -5.95,3.44 -13.57,1.39 -17.01,-4.56 -3.44,-5.97 -1.4,-13.58 4.56,-17.03z"/>
   <path class="fil4" d="M648.57 1530.39c8.98,-5.19 12.06,-16.67 6.87,-25.65 -5.18,-8.98 -16.67,-12.06 -25.65,-6.87 -8.98,5.19 -12.06,16.67 -6.87,25.64 5.18,8.98 16.67,12.06 25.65,6.88z"/>
   <path class="fil4" d="M672.71 1572.2c6.95,-4.01 9.33,-12.9 5.32,-19.85 -4.02,-6.95 -12.9,-9.32 -19.85,-5.31 -6.95,4.01 -9.33,12.9 -5.32,19.84 4.01,6.95 12.9,9.33 19.85,5.32z"/>
   <path class="fil4" d="M694 1609.07c5.95,-3.44 8,-11.06 4.56,-17.02 -3.44,-5.96 -11.06,-8 -17.02,-4.56 -5.96,3.45 -8,11.06 -4.56,17.02 3.44,5.96 11.06,8 17.02,4.56z"/>
   <path class="fil4" d="M579.7 1599.25c5.19,-8.97 2.11,-20.46 -6.87,-25.64 -8.98,-5.19 -20.46,-2.11 -25.65,6.87 -5.18,8.98 -2.11,20.46 6.88,25.65 8.98,5.19 20.46,2.1 25.64,-6.88z"/>
   <path class="fil4" d="M621.51 1623.4c4.02,-6.95 1.64,-15.84 -5.31,-19.85 -6.95,-4.01 -15.84,-1.63 -19.85,5.32 -4.01,6.94 -1.63,15.83 5.32,19.84 6.95,4.01 15.83,1.64 19.84,-5.31z"/>
   <path class="fil4" d="M658.39 1644.68c3.43,-5.96 1.39,-13.57 -4.56,-17.02 -5.96,-3.44 -13.58,-1.39 -17.02,4.57 -3.44,5.95 -1.4,13.57 4.56,17.01 5.96,3.44 13.58,1.4 17.02,-4.56z"/>
   <path class="fil4" d="M602.77 1693.33c0,-8.03 -6.5,-14.53 -14.52,-14.53 -8.03,0 -14.53,6.5 -14.53,14.53 0,8.02 6.5,14.53 14.53,14.53 8.02,0 14.52,-6.51 14.52,-14.53z"/>
   <path class="fil4" d="M645.35 1693.33c0,-6.88 -5.58,-12.46 -12.46,-12.46 -6.88,0 -12.45,5.58 -12.45,12.46 0,6.88 5.57,12.46 12.45,12.46 6.88,0 12.46,-5.58 12.46,-12.46z"/>
   <path class="fil4" d="M579.7 1787.4c-5.18,-8.98 -16.66,-12.06 -25.64,-6.87 -8.99,5.18 -12.06,16.67 -6.88,25.65 5.19,8.98 16.67,12.05 25.65,6.87 8.98,-5.18 12.06,-16.67 6.87,-25.65z"/>
   <path class="fil4" d="M836.71 1530.39c-8.98,-5.19 -12.05,-16.67 -6.87,-25.65 5.19,-8.98 16.67,-12.06 25.65,-6.87 8.98,5.19 12.06,16.67 6.87,25.64 -5.18,8.98 -16.66,12.06 -25.65,6.88z"/>
   <path class="fil4" d="M812.58 1572.2c-6.95,-4.01 -9.33,-12.9 -5.32,-19.85 4.01,-6.95 12.89,-9.32 19.84,-5.31 6.95,4.01 9.33,12.9 5.32,19.84 -4.01,6.95 -12.9,9.33 -19.84,5.32z"/>
   <path class="fil4" d="M791.29 1609.07c-5.96,-3.44 -8,-11.06 -4.56,-17.02 3.44,-5.96 11.06,-8 17.01,-4.56 5.96,3.45 8.01,11.06 4.57,17.02 -3.45,5.96 -11.06,8 -17.02,4.56z"/>
   <path class="fil4" d="M648.57 1856.27c-8.98,-5.18 -20.47,-2.11 -25.65,6.87 -5.19,8.98 -2.11,20.46 6.87,25.65 8.98,5.18 20.47,2.1 25.65,-6.88 5.19,-8.97 2.11,-20.45 -6.87,-25.64z"/>
   <path class="fil4" d="M672.71 1814.46c-6.95,-4.02 -15.84,-1.63 -19.85,5.32 -4.01,6.94 -1.63,15.83 5.32,19.84 6.95,4.01 15.83,1.63 19.85,-5.32 4.01,-6.95 1.63,-15.83 -5.32,-19.84z"/>
   <path class="fil4" d="M694 1777.58c-5.96,-3.44 -13.58,-1.39 -17.02,4.56 -3.44,5.96 -1.4,13.58 4.56,17.03 5.96,3.44 13.58,1.39 17.02,-4.56 3.44,-5.97 1.39,-13.58 -4.56,-17.03z"/>
   <path class="fil4" d="M703.36 1550.42c6.65,-1.79 13.48,2.16 15.26,8.8 1.78,6.65 -2.16,13.48 -8.81,15.26 -6.65,1.79 -13.48,-2.16 -15.26,-8.81 -1.78,-6.64 2.17,-13.48 8.81,-15.25z"/>
   <path class="fil4" d="M776.21 1812.46c6.64,-1.78 13.47,2.16 15.25,8.81 1.78,6.65 -2.16,13.48 -8.81,15.26 -6.64,1.78 -13.47,-2.17 -15.25,-8.81 -1.78,-6.65 2.16,-13.48 8.81,-15.26z"/>
   <path class="fil4" d="M637.63 1590.26c4.87,-4.87 12.75,-4.87 17.62,0 4.87,4.86 4.87,12.75 0,17.61 -4.87,4.87 -12.75,4.87 -17.62,0 -4.86,-4.86 -4.86,-12.75 0,-17.61z"/>
   <path class="fil4" d="M599.81 1656.54c1.78,-6.65 8.61,-10.59 15.25,-8.81 6.65,1.78 10.59,8.61 8.81,15.26 -1.78,6.65 -8.61,10.59 -15.25,8.81 -6.65,-1.78 -10.59,-8.61 -8.81,-15.26z"/>
   <path class="fil4" d="M600.7 1733.43c-1.78,-6.65 2.16,-13.48 8.81,-15.26 6.65,-1.79 13.48,2.16 15.26,8.81 1.78,6.64 -2.16,13.48 -8.81,15.25 -6.65,1.79 -13.48,-2.16 -15.26,-8.8z"/>
   <path class="fil4" d="M639.75 1799.22c-4.87,-4.87 -4.87,-12.75 0,-17.62 4.86,-4.86 12.75,-4.86 17.62,0 4.86,4.87 4.86,12.75 0,17.62 -4.87,4.87 -12.76,4.87 -17.62,0z"/>
   <path class="fil4" d="M706.38 1837.31c-6.65,-1.78 -10.59,-8.61 -8.81,-15.25 1.78,-6.65 8.61,-10.59 15.26,-8.81 6.64,1.77 10.59,8.61 8.81,15.25 -1.78,6.65 -8.61,10.6 -15.26,8.81z"/>
   <path class="fil4" d="M773.33 1573.59c-6.65,-1.77 -10.59,-8.61 -8.81,-15.25 1.78,-6.65 8.61,-10.59 15.26,-8.81 6.64,1.78 10.59,8.61 8.81,15.26 -1.78,6.64 -8.62,10.59 -15.26,8.8z"/>
   <path class="fil2" d="M742.17 1736.99c1.76,0 3.48,-0.1 5.14,-0.29 1.71,-0.22 3.35,-0.52 4.9,-0.92l0.02 0c1.61,-0.41 3.18,-0.89 4.68,-1.45l0 -0.01c1.5,-0.56 2.98,-1.22 4.44,-1.98l0.01 0c1.46,-0.76 2.86,-1.58 4.19,-2.47l0.01 0c1.33,-0.9 2.61,-1.86 3.84,-2.91l0.01 -0.01c1.23,-1.02 2.39,-2.12 3.46,-3.26 1.1,-1.16 2.13,-2.39 3.08,-3.68l1.84 -2.47 2.33 2.01 17.81 15.37 2.07 1.78 -1.69 2.15c-1.61,2.04 -3.35,4.02 -5.21,5.91 -1.82,1.85 -3.77,3.64 -5.83,5.36l-0.01 0.01c-2.06,1.7 -4.21,3.27 -6.44,4.72 -2.26,1.46 -4.57,2.79 -6.91,3.96l0 -0.01c-2.42,1.22 -4.87,2.29 -7.37,3.21 -2.48,0.91 -5.07,1.69 -7.76,2.35 -2.7,0.66 -5.42,1.15 -8.17,1.47 -2.78,0.32 -5.59,0.49 -8.44,0.49 -6.58,0 -12.99,-0.86 -19.1,-2.57l0 -0.01c-3.06,-0.83 -6.01,-1.85 -8.87,-3.06 -2.92,-1.22 -5.69,-2.62 -8.33,-4.15l0 -0.02c-2.67,-1.57 -5.22,-3.28 -7.62,-5.14 -2.1,-1.62 -4.11,-3.36 -6.03,-5.2 7.73,-5.72 15.44,-12.03 23.11,-18.7 0.98,0.8 2.01,1.56 3.07,2.27 2.27,1.52 4.7,2.84 7.28,3.96l0 -0.01c2.6,1.11 5.25,1.94 7.98,2.49 2.7,0.54 5.54,0.81 8.51,0.81zm-65.1 -11.97c-0.38,-0.81 -0.75,-1.63 -1.11,-2.47 -1.2,-2.84 -2.23,-5.79 -3.07,-8.84l0 0c-0.86,-3.05 -1.5,-6.17 -1.93,-9.36 -0.43,-3.22 -0.65,-6.45 -0.65,-9.69 0,-3.25 0.22,-6.48 0.65,-9.7 0.43,-3.19 1.07,-6.31 1.93,-9.36l0 0c0.84,-3.05 1.87,-6 3.07,-8.84 1.23,-2.89 2.63,-5.65 4.18,-8.29 1.57,-2.65 3.3,-5.2 5.19,-7.64 1.86,-2.41 3.88,-4.7 6.04,-6.85 2.17,-2.16 4.46,-4.17 6.88,-6.04 2.4,-1.85 4.94,-3.57 7.62,-5.14l0 -0.01c2.64,-1.54 5.41,-2.94 8.33,-4.16 2.86,-1.21 5.81,-2.23 8.87,-3.06l0 -0.01c3.03,-0.85 6.16,-1.49 9.36,-1.92l0.01 0c3.23,-0.43 6.48,-0.65 9.73,-0.65 2.85,0 5.66,0.17 8.44,0.49 2.75,0.32 5.47,0.82 8.17,1.47 2.69,0.66 5.28,1.44 7.76,2.36 2.5,0.91 4.95,1.98 7.37,3.2l0 -0.01c2.37,1.19 4.68,2.5 6.92,3.95 2.2,1.42 4.34,2.98 6.42,4.69l0 -0.01c0.39,0.33 0.78,0.66 1.17,0.98 -7.53,6.67 -15.08,13.17 -22.59,19.46l-0.27 -0.18c-1.32,-0.88 -2.72,-1.7 -4.19,-2.44 -1.48,-0.75 -2.97,-1.41 -4.45,-1.96 -1.51,-0.56 -3.07,-1.05 -4.69,-1.45l-0.02 -0.01c-1.55,-0.4 -3.19,-0.71 -4.9,-0.91 -1.66,-0.2 -3.38,-0.3 -5.14,-0.3 -2.97,0 -5.81,0.27 -8.51,0.82 -2.73,0.54 -5.38,1.37 -7.98,2.48l0 -0.01c-2.58,1.13 -5.01,2.44 -7.28,3.96 -2.25,1.51 -4.35,3.22 -6.28,5.14 -1.92,1.93 -3.64,4 -5.15,6.23l0.01 0c-1.53,2.27 -2.85,4.68 -3.97,7.23l-0.01 0c-1.1,2.54 -1.92,5.19 -2.47,7.93 -0.55,2.72 -0.82,5.57 -0.82,8.56 0,4.92 0.79,9.62 2.38,14.06 -7.62,5.33 -16.05,10.96 -25.02,16.3zm118.84 -77.54c0.83,0.95 1.63,1.91 2.4,2.89l1.68 2.13 -2.06 1.8 -17.81 15.46 -2.33 2.03 -1.84 -2.49 -0.14 -0.19c6.9,-7.23 13.61,-14.48 20.1,-21.63z"/>
   <path class="fil3" d="M873.25 1559.96c-1.08,1.16 -0.76,-1.6 -1.86,-0.45 -25.62,26.63 -54.79,54.85 -82.97,80.6 1.63,1.39 3.19,2.83 4.68,4.35 0.97,0.98 1.91,1.99 2.81,3.02 33.74,-37.2 63.52,-70.86 77.34,-87.52zm-107.42 99.61c-21.57,18.06 -42.76,34.37 -61.93,47.88l-1.81 1.27c0.28,0.79 0.59,1.59 0.93,2.37l-0.01 0c1.13,2.58 2.45,5.01 3.96,7.26l0.01 -0.01c1.53,2.27 3.24,4.36 5.14,6.26 1.03,1.02 2.09,1.98 3.21,2.87 11.51,-10.01 22.93,-20.83 34.14,-31.72 8.99,-8.73 17.81,-17.67 26.34,-26.64 -0.91,-1.21 -1.89,-2.37 -2.93,-3.5 -1.1,-1.17 -2.26,-2.28 -3.48,-3.33l0 0c-1.14,-0.97 -2.34,-1.88 -3.57,-2.71zm-88.76 65.45c-35.46,21.14 -79.39,37.86 -115.02,14.03 -20.04,-13.42 -35.25,-37.97 -16.23,-73.33 -19.94,27.57 -16.29,63.95 -2.32,83.82 28.15,40.05 84.67,34.1 123.57,12.93 8.37,-4.56 16.77,-10.08 25.15,-16.3l-0.85 -0.84c-2.17,-2.16 -4.2,-4.47 -6.07,-6.88 -1.88,-2.43 -3.6,-4.98 -5.16,-7.61 -1.1,-1.87 -2.13,-3.82 -3.07,-5.82z"/>
   <polygon class="fil3" points="850.95,1555.09 894.48,1530.79 881.79,1578.67 871.66,1560.63 "/>
   <path class="fil5" d="M712.12 1724.6c-1.9,-1.9 -3.61,-3.99 -5.14,-6.25 -1.52,-2.25 -2.84,-4.68 -3.96,-7.27l-0.93 -2.36c-7.62,5.33 -16.05,10.96 -25.02,16.3l3.07 5.82c1.56,2.63 3.28,5.18 5.16,7.61 1.88,2.41 3.9,4.71 6.07,6.88l0.85 0.84c7.73,-5.72 15.44,-12.03 23.11,-18.7l-3.21 -2.87z"/>
   <path class="fil5" d="M769.4 1662.28l3.48 3.33 2.93 3.5c6.9,-7.23 13.61,-14.48 20.1,-21.63l-2.81 -3.02 -4.68 -4.35c-7.53,6.67 -15.09,13.17 -22.59,19.46l3.57 2.71z"/>
   <path class="fil1 str1" d="M2817.75 1481.17c6.2,0 12.27,1.59 18.19,4.79 5.91,3.18 10.53,7.75 13.83,13.67 3.3,5.95 4.96,12.15 4.96,18.58 0,6.38 -1.63,12.52 -4.89,18.39 -3.25,5.9 -7.8,10.47 -13.68,13.72 -5.87,3.26 -12.02,4.89 -18.41,4.89 -6.42,0 -12.56,-1.63 -18.44,-4.89 -5.88,-3.25 -10.45,-7.82 -13.71,-13.72 -3.27,-5.87 -4.91,-12.01 -4.91,-18.39 0,-6.43 1.66,-12.63 4.97,-18.58 3.34,-5.92 7.96,-10.49 13.87,-13.67 5.92,-3.2 11.99,-4.79 18.22,-4.79zm0 6.13c-5.21,0 -10.28,1.34 -15.21,4 -4.92,2.66 -8.77,6.48 -11.55,11.44 -2.78,4.95 -4.17,10.11 -4.17,15.47 0,5.33 1.37,10.44 4.11,15.34 2.72,4.88 6.54,8.7 11.45,11.43 4.9,2.73 10.02,4.1 15.37,4.1 5.32,0 10.44,-1.37 15.35,-4.1 4.9,-2.73 8.72,-6.55 11.43,-11.43 2.72,-4.9 4.07,-10.01 4.07,-15.34 0,-5.36 -1.39,-10.52 -4.15,-15.47 -2.76,-4.96 -6.62,-8.78 -11.56,-11.44 -4.93,-2.66 -9.99,-4 -15.14,-4zm-16.26 51.33l0 -39.78 13.69 0c4.69,0 8.07,0.37 10.17,1.1 2.1,0.74 3.76,2.01 5.02,3.86 1.24,1.82 1.86,3.77 1.86,5.82 0,2.9 -1.04,5.45 -3.13,7.59 -2.08,2.16 -4.84,3.36 -8.29,3.63 1.41,0.59 2.54,1.29 3.38,2.11 1.61,1.55 3.57,4.19 5.9,7.89l4.85 7.78 -7.8 0 -3.55 -6.26c-2.78,-4.94 -5.04,-8.04 -6.75,-9.28 -1.17,-0.9 -2.88,-1.35 -5.14,-1.33l-3.78 0 0 16.87 -6.43 0zm6.43 -22.4l7.8 0c3.73,0 6.27,-0.55 7.63,-1.66 1.36,-1.1 2.04,-2.57 2.04,-4.38 0,-1.18 -0.33,-2.23 -0.98,-3.15 -0.65,-0.94 -1.56,-1.63 -2.72,-2.08 -1.16,-0.45 -3.31,-0.69 -6.46,-0.69l-7.31 0 0 11.96z"/>
  </g>
 </g>
</svg>
