<?xml version="1.0" encoding="UTF-8"?>
<!DOCTYPE svg PUBLIC "-//W3C//DTD SVG 1.1//EN" "http://www.w3.org/Graphics/SVG/1.1/DTD/svg11.dtd">
<!-- Creator: CorelDRAW 2021 (64-Bit) -->
<svg xmlns="http://www.w3.org/2000/svg" xml:space="preserve" width="33.8666mm" height="33.8666mm" version="1.1" style="shape-rendering:geometricPrecision; text-rendering:geometricPrecision; image-rendering:optimizeQuality; fill-rule:evenodd; clip-rule:evenodd"
viewBox="0 0 3386.66 3386.66"
 xmlns:xlink="http://www.w3.org/1999/xlink"
 xmlns:xodm="http://www.corel.com/coreldraw/odm/2003">
 <defs>
  <style type="text/css">
   <![CDATA[
    .fil1 {fill:#FEFEFE;fill-rule:nonzero}
    .fil9 {fill:#2B2A29;fill-rule:nonzero}
    .fil6 {fill:#FEFBFD;fill-rule:nonzero}
    .fil0 {fill:#E4242D;fill-rule:nonzero}
    .fil7 {fill:#E4212D;fill-rule:nonzero}
    .fil2 {fill:#EFA6AB;fill-rule:nonzero}
    .fil4 {fill:#92D3EF;fill-rule:nonzero}
    .fil5 {fill:#1E1C20;fill-rule:nonzero}
    .fil3 {fill:#1F1C20;fill-rule:nonzero}
    .fil8 {fill:#1F1B20;fill-rule:nonzero}
   ]]>
  </style>
 </defs>
 <g id="Layer_x0020_1">
  <metadata id="CorelCorpID_0Corel-Layer"/>
  <g id="_1357754438640">
   <polygon class="fil0" points="2011.16,1499.32 1771.18,1499.32 1771.18,1261.82 1531.21,1261.82 1531.21,1499.32 1290.4,1499.32 1290.4,1729.33 1531.21,1729.33 1531.21,1965.15 1771.18,1965.15 1771.18,1729.33 2011.16,1729.33 "/>
   <polygon class="fil1" points="1681.93,1760.16 1681.93,1820.35 1620.89,1820.35 1620.89,1760.16 1567.09,1760.16 1567.09,1934.34 1620.88,1934.34 1620.88,1863.89 1681.93,1863.89 1681.93,1934.34 1735.29,1934.34 1735.29,1760.16 "/>
   <polygon class="fil1" points="1921.5,1529.66 1921.5,1589.85 1860.46,1589.85 1860.46,1529.66 1806.65,1529.66 1806.65,1703.83 1860.44,1703.83 1860.44,1633.39 1921.5,1633.39 1921.5,1703.83 1974.85,1703.83 1974.85,1529.66 "/>
   <path class="fil1" d="M1660.81 1664.53l-28.16 0 0 -95.58 29.98 0c2.52,0 22.97,-2.58 22.97,47.79 0,50.38 -24.79,47.79 -24.79,47.79zm8.99 -134.87l-91.35 0 0 174.17 85.81 0c0,0 75.55,4.68 75.55,-87.09 0,-91.77 -62.33,-87.08 -70.01,-87.08z"/>
   <path class="fil1" d="M1734.77 1343.46c0,0 -7.66,-26.86 -28.22,-40.3 -20.55,-13.42 -54.79,-12.06 -54.79,-12.06 0,0 -86.62,-4.37 -86.62,89.63 0,37 18.7,89.35 84.85,89.35 66.16,0 84.24,-31.52 87.27,-58.65 -13.44,-4.38 -46.6,-14.25 -46.6,-14.25 0,0 -5.21,33.97 -35.36,33.71 -30.15,-0.28 -34.26,-26.9 -34.26,-50.31 0,-23.42 4.93,-50.01 33.71,-50.01 19.19,0 26.58,9.06 34.26,23.58 14.53,-3.02 45.76,-10.69 45.76,-10.69z"/>
   <path class="fil1" d="M1494.39 1577.21c0,0 -7.68,-26.86 -28.23,-40.3 -20.55,-13.42 -54.79,-12.06 -54.79,-12.06 0,0 -86.63,-4.38 -86.63,89.62 0,37.01 18.71,89.35 84.86,89.35 66.15,0 84.24,-31.52 87.25,-58.64 -13.43,-4.39 -46.59,-14.26 -46.59,-14.26 0,0 -5.21,33.98 -35.35,33.71 -30.15,-0.27 -34.25,-26.89 -34.25,-50.31 0,-23.41 4.93,-49.99 33.69,-49.99 19.19,0 26.59,9.04 34.27,23.57 14.52,-3.02 45.77,-10.69 45.77,-10.69z"/>
   <path class="fil2" d="M2068.89 1453.31c0,15.2 -58.84,27.51 -131.42,27.51 -72.58,0 -131.42,-12.31 -131.42,-27.51 0,-15.21 58.84,-27.52 131.42,-27.52 72.58,0 131.42,12.31 131.42,27.52z"/>
   <path class="fil3" d="M1882.27 1469.1c-2.01,0.71 -16.92,0.05 -17.68,0 -0.76,-0.05 1.81,-2.51 3.32,-3.72 1.52,-1.23 8.97,-9.69 11.95,-11.09 0,0 2.37,7.81 2.87,9.07 0.51,1.26 1.56,5.05 -0.46,5.74zm-45.88 -132.56c-0.23,1.15 -8.93,-2.72 -11.36,-6 -2.44,-3.28 -2.68,-5.49 -0.82,-9.19 1.86,-3.71 3.25,-11.25 6.04,-11.01 0,0 6.36,25.05 6.14,26.2zm259.63 -112.15c0.93,-2.55 -0.69,-8.1 -7.41,-11 -6.73,-2.9 -16.36,1.03 -19.72,7.77 -3.37,6.72 -8.47,24.45 -9.16,27.59 -0.7,3.13 -3.02,4.31 -5.1,4.18 -2.1,-0.11 -5.92,-0.35 -8.69,0.45 -2.79,0.82 -8.47,13.11 -10.1,18.67 -1.62,5.58 -4.99,10.68 -7.65,12.77 -2.67,2.08 1.28,7.42 2.43,9.74 1.16,2.32 2.55,3.94 7.89,2.2 5.34,-1.74 6.15,1.74 4.06,2.79 -4.29,2.3 -3.95,8.46 -5.8,16.11 -1.87,7.65 -5.92,1.06 -5.92,1.06 0,0 -7.18,-10.68 -9.5,-13.23 -2.33,-2.56 2.78,-16.93 3.48,-23.2 0.69,-6.25 4.64,-27.36 -10.44,-53.32 -15.08,-25.99 -28.98,-25.29 -32.23,-25.29 -3.25,0 -16.47,-1.86 -26.45,-6.28 -12.29,-7.19 -20.87,-4.16 -25.74,-1.39 -4.86,2.79 -4.41,-4.16 -12.07,-4.05 -7.64,0.12 -17.15,5.44 -24.35,6.62 -7.18,1.14 -15.76,-5.81 -25.97,-6.5 -10.2,-0.71 -17.39,1.63 -26.43,11.36 -18.8,23.43 -17.79,49.78 -17.17,54.42 0.62,4.64 1.54,6.81 -1.85,14.38 -3.56,8.2 -31.85,47.94 -34.33,50.56 -2.47,2.63 -2.47,4.34 0,8.97 12.07,18.56 34.94,23.5 38.5,24.59 3.56,1.08 4.33,1.99 4.17,3.55 -0.15,1.55 -0.92,4.02 -3.7,2.33 -2.79,-1.71 -10.05,-5.88 -12.84,-5.88 -2.78,0 -7.42,3.39 -7.58,6.18 -0.14,2.78 0.16,6.49 -1.7,9.09 -1.85,2.58 -3.55,1.44 -1.54,6.84 2.01,5.41 12.37,9.74 19.48,12.21 7.11,2.47 19.64,1.55 24.74,-1.54 5.1,-3.11 3.85,-5.88 6.33,-12.84 2.47,-6.96 4.18,-4.95 6.97,-1.7 2.79,3.25 9.26,7.89 11.13,15.15 1.85,7.27 4.87,29.5 5.8,32.74 0.92,3.26 2.31,6.96 0.23,11.83 -2.09,4.88 -3.02,9.51 -1.16,10.91 1.85,1.39 2.67,2.77 1.05,5.09 -1.64,2.33 -14.16,15.08 -16.82,16.58 -2.67,1.52 -1.98,4.53 0,6.16 1.97,1.61 8.82,1.84 12.98,1.84 4.18,0 13.8,0.12 17.63,0.94 3.83,0.8 23.31,1.03 23.31,1.03 0,0 3.94,-3 4.75,-3.81 0.82,-0.82 1.75,-3.84 0,-5.45 -1.74,-1.63 -6.95,-8.13 -6.95,-8.13 -3.89,-4.72 5.43,-10.67 10.19,-13.91 4.8,-3.25 24.75,-16.54 32.33,-22.27 7.58,-5.71 8.66,-14.68 7.72,-22.25 -0.91,-7.6 9.12,-25.52 13.76,-33.56 4.64,-8.04 29.07,-34.7 30.63,-37.6 1.55,-2.9 4.51,-0.58 5.09,0.53 0.58,1.1 12.06,14.26 14.15,17.52 2.07,3.23 2.07,10.67 -2.09,13.21 -4.17,2.56 -3.01,3.25 -6.49,13.45 -3.48,10.19 -27.14,74.67 -29.45,82.79 -2.33,8.13 -4.4,16.93 1.62,19.48 6.02,2.56 13.22,-3.71 19.47,-16.23 6.27,-12.53 36.54,-99.95 36.54,-99.95 0,0 11.12,-32.82 12.98,-35.6 1.86,-2.79 5.68,-0.35 10.32,-0.35 4.64,0 7.19,-1.73 7.31,-6.73 0.12,-4.98 2.9,-8 5.1,-9.74 2.2,-1.74 3.72,-7.08 2.09,-9.16 -1.62,-2.09 2.66,-4.29 3.71,-6.96 1.05,-2.67 0.46,-8.94 -0.46,-13.68 -0.93,-4.75 -8.01,-15.08 -8.7,-18.44 -0.7,-3.36 5.33,-13.92 6.96,-18.44 1.62,-4.53 9.74,-12.62 10.66,-15.2z"/>
   <path class="fil1" d="M1882.54 1426.4c0,0 -1.34,-35.55 -7.53,-44.36 -6.19,-8.82 -29.23,-37.42 -32.94,-48.87 -3.7,-11.44 -2.62,-18.7 -5.72,-31.23 -3.08,-12.52 -8.96,-52.42 -6.33,-66.32 2.62,-13.93 14.84,-42.68 33.4,-41.45 18.55,1.23 35.24,9.58 41.12,11.3 5.86,1.69 14.07,6.48 16.08,2.15 0.93,-3.23 -7.89,-4.17 -7.89,-4.17 0,0 -14.85,-4.64 -11.12,-5.88 3.7,-1.24 10.96,-2.32 14.07,-2.32 3.08,0 10.2,2.95 15.61,1.4 5.41,-1.55 18.09,-2.94 23.64,0.62 3.73,2.62 -2.45,4.32 -2.45,4.32 0,0 -17.17,7.59 -24.12,11.45 -6.98,3.86 -21.2,8.03 -26.3,7.27 -5.09,-0.78 -12.22,-4.49 -14.07,-5.73 -1.86,-1.24 -5.25,1.24 -2.16,3.55 3.09,2.33 12.98,8.67 24.57,6.19 11.62,-2.47 45.93,-20.72 55.22,-21.95 9.26,-1.24 26.43,0.63 36.63,14.38 10.22,13.76 21.5,36.03 18.87,59.22 -2.64,23.18 -11.14,40.75 -29.22,61.61 -11.61,16.22 -30.39,39.89 -34.1,53.57 -3.01,12.53 -3.24,18.32 -3.48,22.73 -0.7,4.87 -7.89,9.05 -7.89,9.05 0,0 -17.39,10.43 -26.43,14.61 -9.05,4.17 -8.82,6.49 -9.74,7.89 -0.93,1.38 -3.66,1.91 -4.64,-1.86 -0.98,-2.9 -5.22,-0.87 -3.84,3.19 1.41,4.06 7.49,12.58 9.4,14.43 1.91,1.86 6.9,4.87 3.9,6.62 -3.02,1.73 -11.5,2.83 -13.92,2.83 -2.44,0 -10.22,-2.77 -12.3,-9.51 -2.08,-6.72 -5.67,-15.36 -6.32,-18.48 -0.64,-3.13 -0.45,-9.92 1.97,-11.54 2.44,-1.63 13.34,-7.84 18.45,-11.42 5.09,-3.6 9.5,-10.8 9.73,-19.26 0.23,-8.47 1.05,-25.05 -0.58,-31.31 -1.62,-6.26 -4.52,-16.01 -7.3,-15.19 -2.79,0.81 1.04,11.94 1.04,15.77 0,3.83 -0.58,37.8 -2.33,41.99 -1.74,4.16 -4.86,5.32 -9.96,8.23 -5.1,2.9 -7.55,6.02 -11.02,6.48z"/>
   <path class="fil4" d="M1953.1 1206.63c-5.86,0.32 9.94,-3.91 12.52,-4.26 9.26,-1.24 26.43,0.63 36.64,14.38 10.2,13.76 21.49,36.03 18.87,59.21 -2.65,23.19 -11.15,40.76 -29.24,61.63 -11.6,16.22 -30.38,39.89 -34.08,53.56 -3.03,12.53 -3.26,18.32 -3.49,22.73 -0.69,4.88 -7.88,9.04 -7.88,9.04 0,0 -17.4,10.44 -26.44,14.62 -9.04,4.18 -8.82,6.49 -9.74,7.88 -0.92,1.39 -3.66,1.92 -4.64,-1.85 -0.98,-2.9 -5.22,-0.87 -3.84,3.18 1.41,4.07 7.49,12.59 9.4,14.44 1.91,1.86 6.9,4.87 3.9,6.61 -3.02,1.75 -11.49,2.84 -13.92,2.84 -1.07,0 -3.13,-0.51 -5.29,-1.68 0,0 7.2,0.74 9.75,-0.81 2.55,-1.54 0.15,-6.17 -1.85,-8.81 -2.02,-2.64 -7.46,-11.3 -7.9,-15 -0.46,-3.71 -0.31,-8.04 4.04,-9.74 4.32,-1.69 21.01,-1.24 27.51,-5.1 6.49,-3.86 14.69,-8.2 17.01,-10.67 2.32,-2.47 3.39,-6.49 3.09,-11.44 -0.31,-4.95 2.01,-16.39 5.87,-21.18 3.86,-4.8 10.2,-9.59 10.36,-15.93 0.15,-6.33 2.01,-12.84 4.17,-15.46 2.17,-2.63 30.93,-36.95 35.26,-42.97 4.33,-6.05 19.48,-27.68 13.76,-51.35 -5.71,-23.64 -17.32,-40.04 -29.23,-46.08 -11.9,-6.03 -24.69,-8.32 -34.61,-7.79z"/>
   <path class="fil4" d="M1916.58 1209.33c-3.44,-0.35 -8.23,-2.76 -12.04,-3.86 -5.88,-1.72 -22.59,-10.07 -41.13,-11.3 -18.55,-1.23 -30.77,27.52 -33.39,41.45 -2.63,13.9 3.25,53.8 6.33,66.32 3.1,12.53 2.02,19.79 5.72,31.23 3.71,11.45 26.75,40.05 32.94,48.87 6.19,8.81 7.53,44.36 7.53,44.36 1.81,-0.23 3.33,-1.19 5.1,-2.46 0,0 -2.12,-20.26 -2.44,-29.16 -0.3,-8.88 -2.31,-14.53 -5.1,-19.86 -2.78,-5.34 -18.09,-23.35 -23.41,-29.84 -5.34,-6.49 -9.75,-7.98 -11.22,-19.71 -1.46,-11.76 -8.74,-44.15 -8.74,-59.68 -0.46,-15.77 0.47,-32.71 3.71,-41.75 3.26,-9.05 10.21,-22.96 16.7,-23.65 6.5,-0.7 26.21,4.39 33.87,7.17 0,0 11.37,4.06 16.76,4.3 5.38,0.23 8.81,-2.43 8.81,-2.43z"/>
   <path class="fil4" d="M1988.01 1240.84c-2.22,1.34 -7.73,-3.68 -11.14,-6.38 -3.42,-2.68 -6.1,-3.43 -5.05,-7.44 0,0 6.98,1.04 10.84,4.76 3.87,3.71 7.59,7.73 5.35,9.06zm7.28 -16.5c-20.96,-20.48 -35.36,-7.56 -35.36,-7.56 -5.65,8.02 -0.74,17.38 5.36,25.98 6.08,8.63 25.99,16.35 32.53,12.34 6.53,-4.01 7.28,-19.61 -2.53,-30.76z"/>
   <path class="fil2" d="M2025.9 1339.7c0,0 -0.62,-2.27 -2.63,-5.25 -2.01,-2.96 -6.97,-8.02 -8.46,-10.81 -1.48,-2.79 -2.36,-8.29 -0.44,-10.04 1.93,-1.74 3.49,-4.36 4.29,-4.27 0.77,0.09 2.35,1.66 3.22,3.33 0.88,1.65 7.14,9.23 7.77,10.29 0.61,1.03 1.21,4.26 0.61,7.75 -0.61,3.5 -1.49,10.57 -4.36,9z"/>
   <path class="fil2" d="M2047.98 1259.24c0,0 4.8,-3.74 5.67,-2.27 0.88,1.49 1.39,6.38 -1.05,9.78 -2.44,3.4 -4.28,5.58 -4.62,9.77 -0.35,4.19 -0.52,11.34 -6.11,15.11 -5.59,3.74 -6.12,0 -6.72,0 -0.61,0 -5.07,-3.33 -1.75,-5.85 3.32,-2.55 6.64,-8.3 6.64,-11.7 0,-3.41 6.03,-13.5 7.94,-14.84z"/>
   <path class="fil2" d="M2075.47 1272.51c0,0 -0.45,-5.85 1.22,-5.5 1.65,0.35 5.41,7.24 6.11,9.69 0.69,2.45 0.96,12.74 0,13.95 -0.96,1.24 -6.55,3.5 -11.7,3.5 -5.15,0 -8.99,0.35 -11.87,-2.79 -2.88,-3.15 -6.2,-6.72 -6.2,-10.78 0,-4.06 0.97,-6.5 3.93,-5.98 2.98,0.54 9.45,3.41 11.27,5.4 1.83,2.02 3.57,2.63 5.57,0.58 2.01,-2.05 2.71,-3.71 1.67,-8.07z"/>
   <path class="fil2" d="M2050.5 1299.16c0,0 -2.94,-8.66 0,-8.81 2.93,-0.16 2.62,5.25 7.72,6.03 5.11,0.77 12.52,2.78 16.53,2.78 4.03,0 6.36,2.93 4.81,4.79 -1.55,1.85 -4.18,5.8 -8.51,5.37 -4.33,-0.42 -17.01,-4.44 -18.02,-5.99 -1,-1.55 -2.53,-4.17 -2.53,-4.17z"/>
   <path class="fil2" d="M2072.27 1315.15c0,0 1.57,3.59 -2,3.89 -3.58,0.29 -16.33,-0.69 -20.43,-3.28 -4.11,-2.62 -5.51,-5 -5.51,-8.2 0,-3.21 0.15,-4.78 1.19,-4.62 1.05,0.15 0.97,2.9 4.25,4.24 3.28,1.34 10.28,5.07 13.33,5.74 3.07,0.67 8.84,0.44 9.17,2.23z"/>
   <path class="fil2" d="M1824.56 1276.34c0,0 -25.62,39.2 -30,43.58 -4.37,4.37 -2.68,7.77 -1.15,9.46 1.5,1.7 16.25,16.08 28.12,18.67 9.65,2.5 14.82,4.82 14.65,5.98 -0.19,1.16 -1.95,17.59 -6.97,18.93 -5,1.34 -8.66,0 -13.29,-1.08 -4.66,-1.07 -9.21,0.19 -7.7,2.24 1.53,2.05 9.66,9.91 19.92,10.44 10.26,0.55 18.22,0.55 22.06,-11.69 1.79,-5.17 2.41,-9.28 -0.53,-13.4 -2.96,-4.1 -7.59,-15.71 -15.09,-17.04 -7.51,-1.35 -8.58,-2.52 -10.02,-4.75 -1.41,-2.22 -7.32,-10.62 -11.33,-10.71 -4.02,-0.09 -7.85,-0.18 -4.82,-2.23 3.03,-2.06 8.85,-4.29 11.43,-9.74 2.59,-5.45 7.32,-12.41 7.32,-14.28 0,-1.88 -0.28,-21.79 -2.6,-24.38z"/>
   <path class="fil3" d="M1937.86 1263.37c0,2.95 -1.93,5.33 -4.3,5.33 -2.36,0 -4.28,-2.38 -4.28,-5.33 0,-2.95 1.92,-5.34 4.28,-5.34 2.37,0 4.3,2.39 4.3,5.34z"/>
   <path class="fil3" d="M1913.5 1263.37c0,2.95 -1.91,5.33 -4.29,5.33 -2.37,0 -4.29,-2.38 -4.29,-5.33 0,-2.95 1.92,-5.34 4.29,-5.34 2.38,0 4.29,2.39 4.29,5.34z"/>
   <path class="fil5" d="M1921.82 1297.72c0,0 22.23,0.4 31.37,-10.78 9.14,-11.18 7.5,-12.82 9.41,-13.09 1.92,-0.27 -0.27,11.86 -3.15,20.32 -2.85,8.47 -10.07,32.74 -24.26,42.15 -5.46,3.27 -30.68,7.09 -42,-4.51 -11.32,-11.59 -16.93,-28.23 -16.78,-49.78 0.28,-9.67 2.73,-14.04 4.23,-14.04 1.5,0 6.54,12.68 11.45,17.19 4.91,4.49 13.23,13.08 29.73,12.54z"/>
   <path class="fil6" d="M1881.59 1292.13c0,0 -2.72,-7.23 0,-10.24 4.09,1.77 5.33,5.33 8.46,8.33 3.14,3.01 17.19,11.32 34.37,11.32 17.19,0 24.82,-5.18 27.68,-7.91 2.87,-2.73 4.37,-1.09 3.81,1.22 -0.54,2.32 -3.95,13.51 -10.76,15.56 -6.83,2.04 -20.87,4.36 -31.65,3.13 -10.76,-1.23 -26.86,-10.09 -31.91,-21.41z"/>
   <path class="fil7" d="M1925.1 1335.9c4.66,-0.79 5.72,-2.3 8.46,-3.16 2.74,-0.84 2.45,-4.47 -2.33,-5.04 -4.76,-0.56 -7.91,3.98 -9.95,4.94 -2.04,0.96 -0.41,-4.52 -6.82,-4.93 -6.41,-0.4 -10.64,4.93 -10.64,4.93 0,0 3.14,6.41 21.28,3.26z"/>
   <path class="fil1" d="M1882.27 1469.1c-2.01,0.71 -16.92,0.05 -17.68,0 -0.76,-0.05 1.81,-2.51 3.32,-3.72 1.52,-1.23 8.97,-9.69 11.95,-11.09 0,0 2.37,7.81 2.87,9.07 0.51,1.26 1.56,5.05 -0.46,5.74z"/>
   <path class="fil8" d="M1493.56 1276.15l2.07 0c2.41,0 4.36,-0.8 4.36,-2.75 0,-1.73 -1.26,-2.87 -4.02,-2.87 -1.15,0 -1.95,0.12 -2.41,0.23l0 5.39zm-0.11 10.68l-4.37 0 0 -18.82c1.73,-0.35 4.14,-0.58 7.24,-0.58 3.56,0 5.16,0.58 6.54,1.38 1.04,0.8 1.84,2.29 1.84,4.13 0,2.07 -1.61,3.68 -3.9,4.37l0 0.23c1.84,0.68 2.87,2.06 3.44,4.59 0.57,2.86 0.92,4.01 1.37,4.7l-4.7 0c-0.58,-0.69 -0.92,-2.41 -1.49,-4.59 -0.35,-2.07 -1.5,-2.99 -3.9,-2.99l-2.07 0 0 7.58zm-11.59 -9.87c0,8.38 6.2,15.03 14.69,15.03 8.26,0 14.35,-6.65 14.35,-14.92 0,-8.38 -6.09,-15.14 -14.46,-15.14 -8.38,0 -14.58,6.76 -14.58,15.03zm33.85 0c0,10.67 -8.37,19.05 -19.27,19.05 -10.79,0 -19.4,-8.38 -19.4,-19.05 0,-10.45 8.61,-18.82 19.4,-18.82 10.9,0 19.27,8.37 19.27,18.82z"/>
   <path class="fil0" d="M856.7 2186.52c-4.73,3.48 -9.56,6.07 -14.53,7.69 -4.93,1.66 -10.39,2.49 -16.32,2.49 -17.32,0 -31.19,-6.52 -41.58,-19.56 -10.39,-13.05 -15.56,-30.47 -15.56,-52.31 0,-22.71 5.17,-40.82 15.56,-54.28 10.39,-13.49 24.26,-20.22 41.58,-20.22 5.52,0 10.74,0.62 15.67,1.83 4.93,1.21 9.76,3.07 14.55,5.56l0 26.35c-4.38,-2.45 -8.55,-4.34 -12.52,-5.65 -3.97,-1.35 -7.56,-2 -10.69,-2 -9.91,0 -17.61,4.13 -23.05,12.38 -5.45,8.25 -8.18,19.95 -8.18,35.03 0,14.38 2.48,25.39 7.42,33.02 4.97,7.66 12.01,11.49 21.18,11.49 3.69,0 7.52,-0.76 11.49,-2.28 4.01,-1.52 8.97,-4.21 14.98,-8.08l0 28.54zm20.73 7.69l0 -141.39 32.09 0 0 141.39 -32.09 0zm75.81 0l0 -115.93 -28.78 0 0 -25.46 89.44 0 0 25.46 -28.78 0 0 115.93 -31.88 0zm96.1 0l0 -64.18 -39.96 -77.21 34.81 0 20.63 42.23 17.6 -42.23 33.58 0 -34.58 75.8 0 65.59 -32.08 0zm159.75 -115.31l0 89.03 10.8 0c7.87,0 14.01,-3.9 18.39,-11.67 4.42,-7.8 6.62,-18.74 6.62,-32.81 0,-14.16 -2.2,-25.09 -6.62,-32.89 -4.38,-7.76 -10.52,-11.66 -18.39,-11.66l-10.8 0zm-31.67 115.31l0 -141.39 36.22 0c10.77,0 19.46,1.1 26.13,3.34 6.62,2.21 12.42,5.9 17.31,11.01 6.94,6.87 12.12,14.94 15.5,24.26 3.35,9.28 5.03,19.97 5.03,32.02 0,12.07 -1.68,22.8 -5.1,32.16 -3.42,9.35 -8.52,17.49 -15.43,24.35 -4.89,5.04 -10.69,8.7 -17.31,10.91 -6.67,2.24 -15.36,3.34 -26.13,3.34l-36.22 0zm119.28 0l0 -141.39 80.11 0 0 24.84 -48.44 0 0 31.88 44.51 0 0 24.43 -44.51 0 0 34.99 49.27 0 0 25.25 -80.94 0zm102.1 0l0 -141.39 29.6 0 38.3 77.21 0 -77.21 29.6 0 0 141.39 -27.36 0 -40.33 -80.74 0 80.74 -29.81 0zm138.7 0l0 -115.93 -28.78 0 0 -25.46 89.44 0 0 25.46 -28.78 0 0 115.93 -31.88 0zm93.78 -53l20.71 0 -10.49 -48.89 -10.22 48.89zm-41.37 53l34.99 -141.39 33.16 0 35.99 141.39 -31.64 0 -5.87 -29.18 -30.02 0 -5.97 29.18 -30.64 0zm115.56 0l0 -141.39 32.08 0 0 115.93 48.66 0 0 25.46 -80.74 0z"/>
   <path class="fil9" d="M1853.04 2194.21l0 -141.39 31.68 0 0 56.51 32.51 0 0 -56.51 31.67 0 0 141.39 -31.67 0 0 -60.04 -32.51 0 0 60.04 -31.68 0zm147.61 -70.55c0,14.76 1.87,26.15 5.57,34.15 3.72,7.97 8.96,11.97 15.76,11.97 6.87,0 12.15,-3.96 15.81,-11.87 3.69,-7.93 5.51,-19.35 5.51,-34.25 0,-15.09 -1.82,-26.61 -5.45,-34.55 -3.65,-7.9 -8.94,-11.86 -15.87,-11.86 -6.87,0 -12.15,4 -15.8,11.97 -3.69,8 -5.53,19.49 -5.53,34.44zm-32.71 -0.04c0,-22.12 4.98,-39.82 14.88,-53.1 9.9,-13.32 22.95,-19.98 39.13,-19.98 16.21,0 29.26,6.62 39.09,19.88 9.84,13.21 14.77,30.95 14.77,53.2 0,22.15 -4.93,39.89 -14.77,53.17 -9.83,13.28 -22.88,19.91 -39.09,19.91 -16.18,0 -29.23,-6.66 -39.13,-20.01 -9.9,-13.35 -14.88,-31.02 -14.88,-53.07zm123.81 60.86l0 -31.05c5.83,5.21 11.25,9.18 16.15,11.87 4.93,2.73 9.25,4.07 13.04,4.07 3.63,0 6.52,-1.07 8.73,-3.24 2.18,-2.18 3.28,-5.11 3.28,-8.8 0,-6 -4.55,-13.7 -13.7,-23.02 -0.62,-0.58 -1.1,-1.06 -1.41,-1.41 -11.29,-11.7 -18.53,-20.7 -21.81,-26.99 -3.28,-6.24 -4.9,-12.86 -4.9,-19.8 0,-10.77 3.66,-19.39 10.97,-25.88 7.32,-6.45 17.04,-9.69 29.16,-9.69 5.13,0 10.18,0.69 15.07,2.04 4.94,1.34 9.84,3.44 14.78,6.27l0 26.47c-5.8,-3.28 -11.15,-5.77 -16.01,-7.42 -4.91,-1.69 -9.15,-2.52 -12.7,-2.52 -3.38,0 -6.01,0.9 -7.83,2.66 -1.87,1.79 -2.8,4.24 -2.8,7.32 0,3.75 4.55,10.31 13.63,19.66 1.48,1.49 2.59,2.62 3.31,3.45 11.56,11.98 18.98,21.18 22.26,27.64 3.27,6.42 4.9,13.28 4.9,20.57 0,11.79 -3.77,21.42 -11.32,28.84 -7.56,7.46 -17.29,11.18 -29.23,11.18 -5.79,0 -11.42,-1 -16.83,-2.97 -5.46,-2 -11.01,-5.07 -16.74,-9.25zm126.08 -72.66l6.07 0c7.42,0 12.59,-1.28 15.57,-3.8 2.96,-2.52 4.45,-6.86 4.45,-12.97 0,-6 -1.59,-10.46 -4.8,-13.32 -3.21,-2.87 -8.21,-4.28 -15.01,-4.28l-6.28 0 0 34.37zm-31.67 82.39l0 -141.39 40.57 0c16.01,0 28.09,3.58 36.24,10.72 8.13,7.15 12.21,17.71 12.21,31.75 0,13.59 -3.87,23.78 -11.6,30.47 -7.76,6.73 -19.46,10.07 -35.12,10.07l-10.63 0 0 58.38 -31.67 0zm107.27 0l0 -141.39 32.09 0 0 141.39 -32.09 0zm75.8 0l0 -115.93 -28.77 0 0 -25.46 89.43 0 0 25.46 -28.78 0 0 115.93 -31.88 0zm93.79 -53l20.7 0 -10.49 -48.89 -10.21 48.89zm-41.37 53l34.99 -141.39 33.16 0 35.98 141.39 -31.64 0 -5.87 -29.18 -30.02 0 -5.96 29.18 -30.64 0zm115.55 0l0 -141.39 32.09 0 0 115.93 48.65 0 0 25.46 -80.74 0z"/>
  </g>
 </g>
</svg>
