<?xml version="1.0" encoding="UTF-8"?>
<!DOCTYPE svg PUBLIC "-//W3C//DTD SVG 1.1//EN" "http://www.w3.org/Graphics/SVG/1.1/DTD/svg11.dtd">
<!-- Creator: CorelDRAW 2021 (64-Bit) -->
<svg xmlns="http://www.w3.org/2000/svg" xml:space="preserve" width="33.867mm" height="33.867mm" version="1.1" style="shape-rendering:geometricPrecision; text-rendering:geometricPrecision; image-rendering:optimizeQuality; fill-rule:evenodd; clip-rule:evenodd"
viewBox="0 0 3386.7 3386.7"
 xmlns:xlink="http://www.w3.org/1999/xlink"
 xmlns:xodm="http://www.corel.com/coreldraw/odm/2003">
 <defs>
  <style type="text/css">
   <![CDATA[
    .fil2 {fill:#FCFBFB}
    .fil1 {fill:#2D2D2B}
    .fil0 {fill:#312A62}
   ]]>
  </style>
 </defs>
 <g id="Layer_x0020_1">
  <metadata id="CorelCorpID_0Corel-Layer"/>
  <g id="_2060304977344">
   <path class="fil0" d="M1746.78 1993.96l2.93 0c2.98,-1.71 8.32,-3.34 11.19,-5.13 3.21,-2 5.75,-4.73 7.98,-6.8 4.24,-3.92 9.22,-11.73 12.48,-18.1 23.94,-46.71 20.05,-109.18 51.46,-131.87 -1.84,6.99 -6.59,11.47 -8.6,22.56 -1.49,8.28 -3.05,20.52 -2.92,29.22 11.47,-3.69 17.74,-16.78 20.05,-32.6 5.09,-35 10.82,-20.01 22.11,-28.4 -13.14,-6 -25.65,-4.86 -38,2.43 -19.23,11.36 -41.75,66.98 -52.18,88.78 -4.48,-5.95 -19.4,-37.7 -22.21,-45.83 -13.14,-37.93 7,-42.79 10.54,-48.14 -23.42,0.89 -38.27,19.33 -45.17,38.02 -3.95,10.66 -3.35,12.48 4.52,17.38 3.15,-5.81 3.98,-16.67 8.76,-22.67 0.61,25.26 14.48,49.38 22.44,71.04 21.06,57.35 -2.87,62.27 -5.38,70.11z"/>
   <path class="fil0" d="M1849.5 1814.12c-4.14,-23.91 -63.75,-58.19 -84.64,-77.72 -59.07,-55.23 28.72,-85.11 42.79,-46.24 6.1,16.85 -1.39,33.78 -18.83,32.49 -16.59,-1.24 -16.85,-19.8 -6.76,-20.1 6.74,-0.2 3.14,4.06 8.21,6.64 3.56,-10.94 -9.58,-15.74 -17.42,-9.15 -8.51,7.14 -4.72,19.84 1.58,25.61 21.93,20.13 65.52,-3.88 49,-38.74 -12.71,-26.82 -55.04,-25.92 -77.3,-10.25 -12.3,8.66 -25.74,25.88 -19.66,49.32 5.12,19.71 19.49,29 33.66,38.96 20.83,14.65 43.94,29.09 63.53,44.26 11.56,8.96 5.07,7.75 25.84,4.92z"/>
   <path class="fil0" d="M1855.46 1993.96l10.38 0c8.28,-4.26 11.24,-2.65 20.33,-9.24 4.45,-3.23 9.71,-10.1 11.26,-18.26 6.29,-33.11 -29.34,-27.97 -20.18,-13.44 2.91,-3.76 1.2,-3.66 5.35,-6.51 10.88,2.01 7.63,16.15 -4.51,18.84 -34.07,7.55 -26.52,-50.44 -36.02,-68.08 -5.78,2.01 -11.22,10.06 -20.74,13.39 -0.02,18.46 -1.01,38.8 4.56,55.23 8.01,23.61 20.9,23.72 29.57,28.07z"/>
   <path class="fil0" d="M1742.31 1913.56c-1.31,-7.37 -7.02,-20.67 -12.45,-24.16 -9.37,-6.02 -14.71,-9.24 -20.01,-17.42 -27.4,-42.3 13.92,-89.72 51.2,-73.93 8.17,3.47 14,10.62 14.87,21.41 1.55,19.26 -9.62,15.21 -15.51,21.52 27.5,8.56 49,-24.47 20.88,-45.02 -41.46,-30.32 -110.73,20.04 -91,75.13 7.69,21.45 32.51,39.6 52.02,42.47z"/>
   <path class="fil0" d="M1641.21 1960.15l0 12.44c3.31,5.78 2.48,8.92 7.52,13.85 4.51,4.4 8.46,4.34 13.85,7.52l13.31 0c8.02,-4.68 13.16,-5.41 20.94,-11.36 23.19,-17.73 18.84,-72.21 18.07,-73.76 -3.19,-3.06 -5.79,-4.53 -9.61,-6.3 -7.32,20.46 -4.35,41.98 -17.66,59.51 -5.73,7.55 -14.19,12.85 -25.91,5.74 -8.63,-5.25 -9.6,-22.91 4.04,-21.01 1.16,1.73 0.68,1.64 1.47,4.04l1.22 3.3c6.58,-10.7 -1.91,-15.49 -12.3,-11.06 -11.05,4.72 -9.53,8.18 -14.94,17.09z"/>
   <path class="fil0" d="M1804.76 1911.81c17.18,-3.68 31.38,-16.85 39.35,-27.02 7.55,-9.63 18.91,-38.49 10.44,-53.22 -16.86,8.18 3.92,43.63 -36.83,60.83 -4.71,1.98 -8.05,2.12 -10.07,5.86 -1.37,2.54 -3.22,10.26 -2.89,13.55z"/>
   <path class="fil1" d="M1927.14 1516.86l0 -0.31c-2.38,-1.46 -0.69,-0.37 -2.54,-1.89l-24.39 -21.71c-36.89,-34.7 -29.97,-26.51 -73.07,-26.51l-125 0c-11.48,-0.03 -13.51,-1.64 -20.32,4.25l-51.54 46.4 140.37 124.8c4.2,4.14 4.62,5.36 9.2,7.7 3.42,-2.54 5.68,-5.76 9.34,-8.73 15.32,-12.41 40.64,-37.77 55.52,-49.66l82.43 -74.34z"/>
   <path class="fil1" d="M1754.73 1393.8l0 0 0.01 61.63c23.15,0.41 43.49,-0.43 51.05,-18.55 3.94,-9.47 2.81,-20.67 -2.1,-28.85 -7.27,-7.77 -12.15,-14.23 -48.96,-14.23z"/>
   <path class="fil1" d="M1844.5 1393.8l-26.2 0 0 61.38 14.2 0.37c0.02,-4 0.05,-7.93 0.02,-11.87 -0.02,-1.83 -0.16,-4.9 -0.04,-6.6 0.2,-2.62 -0.15,0.08 0.28,-2.47 0.07,-0.42 0.18,-0.79 0.26,-1.15l17.8 21.94 16.76 -0.03c-4.57,-8.66 -13.48,-17.65 -17.69,-26.12 5.64,-5.22 11.97,-7.94 10.56,-19.68 -1.28,-10.71 -8.57,-11.81 -15.95,-15.77z"/>
   <polygon class="fil1" points="1740.68,1393.8 1726.29,1393.8 1726.29,1416.31 1702.28,1416.18 1702.27,1393.8 1687.72,1393.8 1687.71,1455.43 1702.3,1455.5 1702.3,1429.56 1725.94,1429.47 1726.33,1455.02 1740.56,1455.55 "/>
   <path class="fil2" d="M1736.16 1484.6l42.29 28.54 42.15 -28.42c-55.42,-16.11 -38.63,-9.97 -84.44,-0.12z"/>
   <path class="fil2" d="M1780.04 1635.9c2.09,-8 5.88,-15.8 9.23,-23.84 5.47,-13.16 6.02,-11.53 2.41,-26.58 -3,-12.51 -11.92,-43.53 -12.52,-54.26 -3.35,4.88 -10.6,44.28 -12.77,54.06 -3.34,15.07 -2.57,13.57 2.79,26.57 1.73,4.2 2.98,7.58 4.85,12.2 0.85,2.09 1.3,3.36 2.25,5.59l3.76 6.26z"/>
   <polygon class="fil2" points="1798.02,1588.16 1826.2,1519.89 1782.14,1519.76 "/>
   <polygon class="fil2" points="1759.44,1588.08 1774.98,1519.87 1732,1519.77 "/>
   <path class="fil2" d="M1752.11 1585.81l-26.35 -65.85 -43.31 -0.16 34.29 32.76c7.82,7.15 28.41,29.65 35.37,33.25z"/>
   <polygon class="fil2" points="1805.82,1585.82 1874.55,1519.95 1831.98,1519.75 "/>
   <path class="fil2" d="M1770.2 1629.98c-8.64,-25.9 -9.24,-27.84 -23.43,-40.49 -4.19,-3.74 -6.92,-7.45 -11.09,-11.19l-22.2 -21.17c-6.49,-6.45 -15.49,-14.68 -23,-20.68 3.02,7.64 28.09,48.53 33.8,53.22l34 30.39c3.74,3.01 8.17,7.91 11.92,9.92z"/>
   <path class="fil2" d="M1788.79 1629.34c3.23,-1.77 0.5,-0.1 2.67,-1.83l41.64 -37.35c6.68,-7.08 28.94,-42.56 32.66,-52.39 -7.09,2.96 -4.82,4.07 -10.76,9.86 -10.05,9.82 -46.2,42.82 -53.58,51.63 -2.96,3.54 -11.35,24.54 -12.63,30.08z"/>
   <path class="fil2" d="M1680.31 1483.6l-2.44 27.36 40.1 -23.88c0.15,-0.1 2.36,-1.6 2.37,-1.61 2.18,-1.69 1.4,-1.02 2.88,-2.66 -6.09,-3.44 -10.46,-9.38 -20.56,-7.15 -5.77,1.27 -18.33,5.19 -22.35,7.94z"/>
   <path class="fil2" d="M1833.63 1482.69l45.24 28.3c-0.48,-6.75 -0.98,-13.73 -1.49,-20.3 -0.76,-9.84 -2.18,-8.85 -10.95,-11.4 -5,-1.45 -13.05,-4.69 -18.2,-4.29 -5.75,0.45 -9.9,5.43 -14.6,7.69z"/>
   <path class="fil2" d="M1854.17 1570.1l4.48 -3.07c1.41,-1.17 2.07,-1.93 3.42,-3.11l34.83 -30.94c3.29,-3.25 3.66,-3.89 6.72,-6.37 1.33,-1.08 2.52,-1.87 3.67,-2.95 2.8,-2.65 1.25,-0.54 3.28,-3.91l-27.26 0.06c-5.84,15.29 -22.74,33.91 -29.14,50.29z"/>
   <path class="fil2" d="M1769.3 1442.25c13.22,0.11 23.52,-3.62 23.93,-16.94 0.45,-14.63 -10.05,-18.55 -23.99,-18.55l0.06 35.49z"/>
   <path class="fil2" d="M1704.42 1571.8c-4,-10.74 -27.02,-41.94 -30.86,-51.96l-27.21 -0.07 58.07 52.03z"/>
   <path class="fil2" d="M1685.25 1514.09c41.71,0.18 39.64,3.48 40.74,-9.96 0.45,-5.45 1.02,-10.15 1.25,-15.65l-41.99 25.61z"/>
   <polygon class="fil2" points="1788.21,1513.93 1826.88,1514.2 1825.75,1488.84 "/>
   <path class="fil2" d="M1833.06 1513.79l38.47 0.4c-9.14,-5.61 -31.74,-21.82 -40.17,-24.48l1.7 24.08z"/>
   <path class="fil2" d="M1730.7 1514.19l37.87 -0.04c-1.35,-0.85 -14.73,-10.37 -17.14,-11.98 -6.36,-4.25 -12.12,-8.65 -18.51,-12.02l-2.22 24.04z"/>
   <path class="fil2" d="M1884.87 1514.24l25.7 -0.1c-1.82,-1.45 -3.56,-3.97 -5.88,-5.98 -2.85,-2.5 -4.5,-3.43 -7.14,-6.07 -5.27,-5.26 -8.9,-8.1 -14.7,-12.32l2.02 24.47z"/>
   <path class="fil2" d="M1646.11 1513.95l25.54 0.27 2.35 -23.78c-6.7,3.5 -9.27,6.72 -14.56,11.72 -2.3,2.17 -11.2,10.32 -13.33,11.79z"/>
   <path class="fil2" d="M1832.64 1422.04c8.17,0.05 14.41,-0.56 14.55,-8.6 0.14,-8.6 -6.98,-8.52 -14.19,-8.54l-0.36 17.14z"/>
   <path class="fil2" d="M1834.42 1474.81l-24.93 0.02c3.31,2.64 15,6.5 19.33,4.75l4.81 -3.83c0.21,-0.22 0.53,-0.62 0.79,-0.94z"/>
   <path class="fil2" d="M1729.77 1480.38l18.38 -4.63 -25.8 -0.89c1.99,2.53 4.82,4.23 7.42,5.52z"/>
   <path class="fil0" d="M855.96 1971.94c-7.82,-7.54 -44.43,-61.22 -46.38,-65.36 13.95,-10.21 18,-8.09 26.86,-25.23 6.77,-13.1 6.97,-30.51 1,-44.07 -16.31,-36.99 -71.88,-33.3 -110.57,-31.99l-7.17 0.48 -0.04 176.41 41.7 0.03c-0.28,-14.48 -2.92,-60.68 2.68,-69.05 9.4,4.13 20.96,26.8 26.76,35.14 5.9,8.46 20.85,33.61 26.04,34.55l78.19 0 11.07 -25.52 71.14 0.3 11.59 25.11 44.03 0.13 -88.06 -183.3c-10.22,8.39 -65.04,129.91 -81.84,160.98 -0.88,1.62 -1.8,3.39 -2.74,4.98l-1.54 2.56c-3.27,5.08 -0.93,1.64 -2.72,3.85z"/>
   <path class="fil0" d="M537.15 1982.84c36.37,0 78.01,3.81 107.2,-12.1 61.83,-33.72 60.91,-121.72 1.22,-152.71 -31.03,-16.1 -70.59,-12.74 -108.42,-12.74l0 177.55z"/>
   <polygon class="fil0" points="1194.17,1982.84 1236.21,1982.86 1236.17,1909.34 1304.12,1908.43 1304.11,1982.67 1346.19,1982.67 1346.06,1806.09 1304.19,1805.26 1304.1,1870.3 1236.31,1870.29 1236.13,1806.42 1194.35,1805.18 "/>
   <path class="fil0" d="M1161.04 1947.62c19.49,-71.01 -76.83,-71.19 -74.47,-101.31 2.39,-30.37 56.75,0.8 62.35,3.44l0.29 -40.67c-21.85,-13.83 -66.37,-12.31 -85.17,2.71 -22.57,18.03 -23.98,51.97 -2.44,73.16 12.78,12.58 58.26,31.36 60.08,47.49 1.9,16.92 -20.37,19.92 -36.38,16.74 -14.17,-2.82 -25.87,-10.77 -36.74,-16.12l2.88 47.61c38.7,8.98 95.59,17.97 109.6,-33.05z"/>
   <polygon class="fil0" points="1366.6,1842.33 1422.77,1842.64 1423.18,1982.91 1465.75,1982.7 1465.66,1842.65 1521.88,1842.6 1521.73,1805.25 1366.71,1805.3 "/>
   <polygon class="fil0" points="1542.5,1982.88 1585.15,1982.76 1585.01,1805.73 1542.54,1805.2 "/>
   <path class="fil2" d="M579.11 1943.21c16.29,4.87 37.75,-1.8 48.41,-8.79 25.7,-16.84 26.13,-62.48 1.07,-79.95 -11.22,-7.82 -32.38,-14.26 -49.5,-9.71l0.02 98.45z"/>
   <path class="fil2" d="M761.21 1885.91c57.84,11.9 51.88,-63.15 0.02,-46.7l-0.02 46.7z"/>
   <polygon class="fil2" points="918.89,1926.03 963.95,1926.33 940.62,1875.59 "/>
   <path class="fil0" d="M2278.69 1988.89l3.91 0 36.36 -99.78c7.38,15.59 13.48,33.37 19.63,49.88 6.18,16.62 13.87,33.91 18.53,49.9l3.5 0 72.95 -183.66 -39.38 0.05 -33.21 94.14c-6.77,-8.22 -15.43,-37.98 -20.11,-50.66 -3.08,-8.34 -6.2,-17.24 -9.39,-25.84 -5.26,-14.19 -4.86,-20.46 -12.08,-23.36l-36.74 99.33c-10.54,-14.04 -27.04,-87.68 -37.31,-93.74l-40.49 0.92 73.83 182.82z"/>
   <polygon class="fil0" points="2084.48,1983.15 2195.02,1983.04 2195.11,1945.34 2126.32,1945.47 2125.72,1910.76 2184.27,1910.52 2184.35,1873.99 2125.79,1873.79 2125.73,1842.28 2194.15,1842.11 2194.12,1805.45 2084.6,1805.24 "/>
   <polygon class="fil0" points="2452.14,1982.24 2562.98,1983.06 2562.92,1945.82 2494.42,1945.44 2493.76,1910.61 2552.08,1910.56 2552.24,1873.7 2493.91,1873.81 2493.81,1842.26 2561.79,1842.18 2561.96,1805.22 2452.39,1805.34 "/>
   <path class="fil0" d="M2817.8 1972.93c21.25,-19.17 23.74,-54.46 4.13,-75.78 -21.38,-23.26 -70.72,-33.54 -62.53,-54.85 14.76,-22.73 46.98,2.24 62.2,7.27l0.15 -40.78c-26.4,-11.79 -64,-13.97 -86.59,3.6 -22.91,17.82 -20.81,55.09 -0.53,74.01 13.9,12.97 59.61,29.71 59.39,47.75 -0.19,15.95 -22.2,18.37 -37.95,14.97 -12.76,-2.76 -26.09,-10.42 -35.02,-15.93 -1.64,8.45 0.24,38.36 2.81,45.28 24.57,14.93 71.73,14.48 93.94,-5.54z"/>
   <polygon class="fil0" points="2595.18,1982.48 2707.45,1982.97 2707.13,1945.44 2637.99,1944.55 2637.89,1805.09 2595.15,1805.38 "/>
   <path class="fil0" d="M1971.35 1988.89l29.64 0 6.25 -2.66c2.05,-0.75 3.89,-1.17 6,-1.95 27.66,-10.1 33.86,-36.78 33.85,-65.75 -0.02,-37.47 0.79,-75.82 -0.12,-113.25l-42.78 0.01c-0.4,33.08 -0.08,66.44 -0.03,99.55 0.05,41.44 -4.18,53.96 -45.14,41.25 0,8.62 1.32,16.95 1.97,25.29 1.27,16.14 -0.25,11.87 10.36,17.51z"/>
  </g>
 </g>
</svg>
