<?xml version="1.0" encoding="UTF-8"?>
<!DOCTYPE svg PUBLIC "-//W3C//DTD SVG 1.1//EN" "http://www.w3.org/Graphics/SVG/1.1/DTD/svg11.dtd">
<!-- Creator: CorelDRAW 2021 (64-Bit) -->
<svg xmlns="http://www.w3.org/2000/svg" xml:space="preserve" width="33.8666mm" height="33.8666mm" version="1.1" style="shape-rendering:geometricPrecision; text-rendering:geometricPrecision; image-rendering:optimizeQuality; fill-rule:evenodd; clip-rule:evenodd"
viewBox="0 0 3386.66 3386.66"
 xmlns:xlink="http://www.w3.org/1999/xlink"
 xmlns:xodm="http://www.corel.com/coreldraw/odm/2003">
 <defs>
  <style type="text/css">
   <![CDATA[
    .str0 {stroke:#2B2A29;stroke-width:39.3;stroke-miterlimit:10}
    .fil12 {fill:none;fill-rule:nonzero}
    .fil13 {fill:#2B2A29;fill-rule:nonzero}
    .fil0 {fill:#EF7F1A;fill-rule:nonzero}
    .fil1 {fill:#277D3C;fill-rule:nonzero}
    .fil8 {fill:url(#id0)}
    .fil10 {fill:url(#id1)}
    .fil7 {fill:url(#id2)}
    .fil4 {fill:url(#id3)}
    .fil9 {fill:url(#id4)}
    .fil2 {fill:url(#id5)}
    .fil11 {fill:url(#id6)}
    .fil5 {fill:url(#id7)}
    .fil3 {fill:url(#id8)}
    .fil6 {fill:url(#id9)}
   ]]>
  </style>
  <radialGradient id="id0" gradientUnits="userSpaceOnUse" gradientTransform="matrix(-0.83314 -2.71683 -2.66846 0.84824 6361 3014)" cx="1015.27" cy="1686.18" r="380.22" fx="1015.27" fy="1686.18">
   <stop offset="0" style="stop-opacity:1; stop-color:#FFDD00"/>
   <stop offset="1" style="stop-opacity:1; stop-color:#EF7F1A"/>
  </radialGradient>
  <radialGradient id="id1" gradientUnits="userSpaceOnUse" gradientTransform="matrix(-0.768548 -2.41406 -2.46154 0.753696 5919 2841)" xlink:href="#id0" cx="1005.14" cy="1682.37" r="423.19" fx="1005.14" fy="1682.37">
  </radialGradient>
  <radialGradient id="id2" gradientUnits="userSpaceOnUse" gradientTransform="matrix(-0.715948 -2.36478 -2.29312 0.738329 5615 2842)" xlink:href="#id0" cx="1015.11" cy="1688.99" r="440.5" fx="1015.11" fy="1688.99">
  </radialGradient>
  <radialGradient id="id3" gradientUnits="userSpaceOnUse" gradientTransform="matrix(-0.760127 -2.44497 -2.43464 0.76337 5879 2854)" xlink:href="#id0" cx="1003.61" cy="1689.35" r="424.04" fx="1003.61" fy="1689.35">
  </radialGradient>
  <radialGradient id="id4" gradientUnits="userSpaceOnUse" gradientTransform="matrix(-0.760276 -2.45163 -2.43504 0.765428 5884 2867)" xlink:href="#id0" cx="1007.87" cy="1687.97" r="424.04" fx="1007.87" fy="1687.97">
  </radialGradient>
  <radialGradient id="id5" gradientUnits="userSpaceOnUse" gradientTransform="matrix(-0.715888 -2.34786 -2.29296 0.733055 5586 2794)" xlink:href="#id0" cx="998.17" cy="1688.99" r="440.49" fx="998.17" fy="1688.99">
  </radialGradient>
  <radialGradient id="id6" gradientUnits="userSpaceOnUse" gradientTransform="matrix(-0.831848 -2.6385 -2.66429 0.823773 6321 2939)" xlink:href="#id0" cx="1001.61" cy="1683.7" r="386.45" fx="1001.61" fy="1683.7">
  </radialGradient>
  <radialGradient id="id7" gradientUnits="userSpaceOnUse" gradientTransform="matrix(-0.768566 -2.45622 -2.46159 0.766861 5937 2866)" xlink:href="#id0" cx="1006.36" cy="1688.71" r="423.18" fx="1006.36" fy="1688.71">
  </radialGradient>
  <radialGradient id="id8" gradientUnits="userSpaceOnUse" gradientTransform="matrix(-0.833129 -2.73969 -2.66843 0.855377 6337 2973)" xlink:href="#id0" cx="996.1" cy="1690.34" r="380.22" fx="996.1" fy="1690.34">
  </radialGradient>
  <radialGradient id="id9" gradientUnits="userSpaceOnUse" gradientTransform="matrix(-0.831882 -2.69551 -2.66447 0.841595 6354 2989)" xlink:href="#id0" cx="1009.62" cy="1690.62" r="386.45" fx="1009.62" fy="1690.62">
  </radialGradient>
 </defs>
 <g id="Layer_x0020_1">
  <metadata id="CorelCorpID_0Corel-Layer"/>
  <g id="_1357756935696">
   <path class="fil0" d="M1622.9 1675.51l-76.74 0c-0.9,4.18 -1.99,8.35 -3.26,12.52 -1.27,4.18 -2.18,8.35 -2.72,12.51 -0.36,2.55 0.45,5.01 2.44,7.36 2,2.36 4.27,3.71 6.81,4.08 15.42,2.36 30.93,3.31 46.53,2.85 15.6,-0.45 30.93,-2.12 45.99,-5.04l-14.42 50.35c-37.73,5.8 -75.65,6.62 -113.74,2.45 -8.53,-0.91 -15.47,-3.72 -20.81,-8.44 -5.36,-4.71 -9.4,-10.43 -12.12,-17.14 -2.72,-6.71 -4.31,-13.97 -4.76,-21.77 -0.46,-7.8 -0.05,-15.14 1.22,-22.04 2.55,-13.79 5.85,-27.34 9.93,-40.68 4.09,-13.33 8.94,-26.34 14.56,-39.04 -2.54,0.9 -5.22,1.63 -8.02,2.16 -2.82,0.56 -5.72,1.27 -8.71,2.19 -3,0.91 -6.08,2.23 -9.26,3.94 -3.17,1.73 -6.39,4.32 -9.65,7.76 -0.54,0.54 -1,0.81 -1.36,0.81 -0.91,0.55 -1.9,0.59 -3,0.14 -1.08,-0.45 -1.35,-1.22 -0.81,-2.31 5.44,-10.52 11.65,-20.13 18.64,-28.85 6.98,-8.7 14.83,-16.19 23.53,-22.44 8.71,-6.26 18.37,-11.12 28.98,-14.57 10.62,-3.44 22.36,-5.16 35.24,-5.16l117.01 0 -14.7 48.7 -86.52 0c-3.81,0 -6.95,1.18 -9.4,3.55 -2.44,2.35 -4.53,5.16 -6.25,8.43 -1.73,3.26 -3.23,6.66 -4.5,10.2 -1.26,3.55 -2.72,6.49 -4.34,8.85 1.62,-0.18 3.57,-0.32 5.84,-0.42 2.27,-0.09 5.95,-0.13 11.02,-0.13 5.26,0 12.56,0.04 21.9,0.13 9.35,0.1 21.82,0.14 37.42,0.14l-11.97 38.91z"/>
   <path class="fil0" d="M1793.5 1716.61l-13.32 0 -18.51 -96.88 -42.45 140.95 -60.14 0 60.96 -202.72 60.95 0c3.26,0 6.53,0.5 9.8,1.5 3.27,1 6.25,2.45 8.97,4.36 2.72,1.9 5.04,4.12 6.95,6.66 1.9,2.55 3.21,5.44 3.94,8.71l8.98 46.53 38.91 -48.98c4.71,-5.81 10.42,-10.38 17.14,-13.74 6.71,-3.36 13.61,-5.04 20.68,-5.04l54.69 0 -60.68 202.72 -60.94 0 41.9 -138.5 -77.83 94.43z"/>
   <polygon class="fil0" points="1983.98,1557.96 2044.65,1557.96 1983.43,1760.69 1921.93,1760.69 "/>
   <path class="fil0" d="M2040.84 1713.06l64.49 0 15.51 0c5.44,0 10.61,-0.31 15.51,-0.94 4.89,-0.64 9.16,-1.86 12.79,-3.68 3.62,-1.81 6.07,-4.63 7.34,-8.43 1.45,-4.73 1.59,-7.99 0.42,-9.81 -1.19,-1.8 -3.68,-3.71 -7.49,-5.71 -3.27,0.18 -7.26,0.27 -11.97,0.27 -4.73,0 -9.76,-0.13 -15.11,-0.4 -5.35,-0.28 -10.79,-0.73 -16.32,-1.37 -5.54,-0.63 -10.62,-1.62 -15.24,-2.99 -4.62,-1.35 -8.67,-3.04 -12.11,-5.03 -3.45,-2 -5.8,-4.54 -7.07,-7.62 -1.46,-3.26 -2.91,-6.89 -4.36,-10.88 -1.45,-3.99 -2.58,-8.25 -3.4,-12.8 -0.81,-4.53 -1.09,-9.33 -0.81,-14.41 0.27,-5.08 1.31,-10.25 3.12,-15.51 -5.08,2 -9.66,4.31 -13.74,6.93 -4.07,2.63 -7.48,5.68 -10.2,9.12 -0.54,0.54 -1,0.82 -1.36,0.82 -0.91,0.54 -1.9,0.58 -3,0.13 -1.08,-0.45 -1.45,-1.22 -1.08,-2.31 5.98,-11.43 11.97,-21.58 17.95,-30.48 5.99,-8.89 12.88,-16.37 20.68,-22.44 7.8,-6.08 17.06,-10.7 27.75,-13.88 10.7,-3.17 23.96,-4.66 39.74,-4.49l99.59 0 -11.7 48.7 -87.35 0.28c-6.35,0.73 -11.83,2 -16.45,3.81 -4.64,1.81 -7.86,4.81 -9.67,8.98 -1.99,4.53 -2.41,8.3 -1.22,11.3 1.17,2.98 3.49,5.29 6.94,6.93 1.44,0.72 2.9,1.22 4.35,1.49 1.45,0.27 3.17,0.46 5.17,0.55 1.99,0.09 4.35,0.13 7.07,0.13l9.8 0c16.14,0 28.57,1.28 37.28,3.81 8.7,2.54 15.23,6.9 19.59,13.07 3.44,4.71 5.34,11.11 5.72,19.18 0.35,8.07 -1,16.45 -4.09,25.16 -3.62,11.08 -8.48,21.27 -14.55,30.62 -6.09,9.35 -14.29,16.46 -24.63,21.36 -6.35,3.08 -14.7,5.22 -25.03,6.4 -10.34,1.18 -23.68,1.77 -40,1.77l-74.56 0 11.7 -47.63z"/>
   <path class="fil0" d="M2335.25 1557.15l-43.8 144.22c-1.28,3.63 -1.32,6.71 -0.14,9.24 1.17,2.55 3.09,4.68 5.71,6.4 2.64,1.73 5.81,3.04 9.53,3.95 3.72,0.91 7.57,1.63 11.56,2.18 4.17,-0.38 8.17,-0.91 11.98,-1.64 3.8,-0.72 7.43,-1.86 10.88,-3.4 3.45,-1.54 6.53,-3.58 9.25,-6.12 2.73,-2.54 5.07,-5.81 7.08,-9.79l44.08 -145.04c0.17,-0.19 0.54,-0.27 1.08,-0.27l61.23 0 -50.34 165.71c-5.44,9.98 -12.57,17.73 -21.36,23.26 -8.8,5.53 -18.24,9.62 -28.29,12.24 -10.08,2.63 -20.24,4.23 -30.49,4.77 -10.25,0.54 -19.54,0.82 -27.89,0.82 -6.17,0 -12.52,-0.14 -19.04,-0.42 -6.54,-0.26 -12.79,-0.99 -18.78,-2.17 -5.99,-1.17 -11.56,-2.89 -16.73,-5.17 -5.17,-2.26 -9.52,-5.35 -13.07,-9.25 -3.53,-3.89 -6.02,-8.71 -7.48,-14.43 -1.45,-5.71 -1.45,-12.65 0,-20.81l47.35 -154.28 57.68 0z"/>
   <path class="fil0" d="M2596.21 1675.51l35.92 -117.55 58.22 0 -60.68 202.72 -72.37 0 -28.58 -140.95 -42.45 140.95 -60.13 0 60.95 -202.72 60.96 0c3.26,0 6.53,0.5 9.79,1.5 3.27,1 6.26,2.45 8.98,4.36 2.72,1.9 5.03,4.12 6.93,6.66 1.92,2.55 3.21,5.44 3.95,8.71l18.51 96.32z"/>
   <path class="fil1" d="M1999.81 1805.58l0 35.5 20.03 0c1.59,0 2.83,0.38 3.68,1.16 0.85,0.77 1.28,1.75 1.28,2.93 0,1.19 -0.43,2.17 -1.26,2.91 -0.86,0.75 -2.08,1.11 -3.7,1.11l-23.84 0c-2.16,0 -3.72,-0.47 -4.66,-1.43 -0.94,-0.95 -1.41,-2.49 -1.41,-4.62l0 -37.56c0,-2 0.45,-3.49 1.35,-4.5 0.9,-1 2.08,-1.49 3.54,-1.49 1.49,0 2.69,0.49 3.61,1.47 0.93,0.99 1.38,2.5 1.38,4.52z"/>
   <path class="fil1" d="M2038.24 1828.64l16.46 0c-0.22,-3.11 -1.06,-5.44 -2.5,-6.98 -1.45,-1.54 -3.37,-2.31 -5.74,-2.31 -2.26,0 -4.13,0.78 -5.57,2.35 -1.46,1.57 -2.34,3.87 -2.65,6.94zm17.76 5.15l-17.76 0c0.02,2.06 0.44,3.88 1.24,5.46 0.81,1.57 1.9,2.76 3.23,3.56 1.34,0.79 2.83,1.2 4.45,1.2 1.08,0 2.07,-0.13 2.97,-0.39 0.9,-0.26 1.77,-0.65 2.62,-1.2 0.84,-0.54 1.62,-1.12 2.33,-1.75 0.7,-0.62 1.63,-1.45 2.75,-2.52 0.47,-0.4 1.14,-0.6 2,-0.6 0.94,0 1.68,0.26 2.26,0.76 0.57,0.51 0.87,1.24 0.87,2.16 0,0.83 -0.32,1.78 -0.96,2.88 -0.65,1.11 -1.62,2.16 -2.92,3.16 -1.3,1.02 -2.92,1.85 -4.89,2.52 -1.96,0.67 -4.22,1 -6.77,1 -5.83,0 -10.36,-1.67 -13.6,-5 -3.25,-3.32 -4.86,-7.84 -4.86,-13.54 0,-2.68 0.39,-5.17 1.2,-7.47 0.79,-2.29 1.96,-4.26 3.48,-5.9 1.54,-1.64 3.43,-2.9 5.67,-3.78 2.23,-0.87 4.72,-1.32 7.45,-1.32 3.54,0 6.59,0.75 9.13,2.25 2.54,1.51 4.44,3.43 5.71,5.81 1.26,2.38 1.89,4.79 1.89,7.25 0,2.29 -0.65,3.77 -1.96,4.45 -1.32,0.67 -3.16,1.01 -5.53,1.01z"/>
   <path class="fil1" d="M2071.64 1813.89l1 0 0 -5.45c0,-1.46 0.04,-2.62 0.12,-3.45 0.07,-0.82 0.29,-1.55 0.64,-2.14 0.36,-0.62 0.87,-1.13 1.54,-1.51 0.66,-0.4 1.41,-0.59 2.23,-0.59 1.15,0 2.19,0.43 3.12,1.3 0.63,0.58 1.02,1.28 1.18,2.12 0.16,0.82 0.25,2.01 0.25,3.54l0 6.18 3.33 0c1.28,0 2.26,0.31 2.95,0.91 0.67,0.62 1.01,1.4 1.01,2.35 0,1.23 -0.48,2.08 -1.45,2.57 -0.96,0.49 -2.34,0.74 -4.15,0.74l-1.69 0 0 16.69c0,1.42 0.05,2.51 0.15,3.28 0.1,0.76 0.37,1.38 0.8,1.86 0.43,0.48 1.14,0.72 2.11,0.72 0.53,0 1.26,-0.1 2.17,-0.29 0.9,-0.19 1.61,-0.28 2.13,-0.28 0.73,0 1.38,0.29 1.98,0.88 0.58,0.59 0.87,1.32 0.87,2.19 0,1.45 -0.78,2.58 -2.39,3.36 -1.6,0.77 -3.89,1.16 -6.88,1.16 -2.85,0 -4.99,-0.48 -6.47,-1.44 -1.46,-0.95 -2.41,-2.27 -2.87,-3.95 -0.46,-1.69 -0.68,-3.94 -0.68,-6.76l0 -17.42 -1.2 0c-1.31,0 -2.3,-0.32 -3,-0.95 -0.69,-0.61 -1.02,-1.4 -1.02,-2.36 0,-0.95 0.35,-1.73 1.08,-2.35 0.72,-0.6 1.76,-0.91 3.14,-0.91z"/>
   <path class="fil1" d="M2144.6 1808.58l-10.77 0 0 35.43c0,2.03 -0.46,3.54 -1.38,4.53 -0.89,0.99 -2.07,1.49 -3.51,1.49 -1.48,0 -2.66,-0.51 -3.58,-1.51 -0.93,-0.99 -1.38,-2.5 -1.38,-4.51l0 -35.43 -10.78 0c-1.69,0 -2.95,-0.38 -3.77,-1.12 -0.81,-0.75 -1.22,-1.73 -1.22,-2.95 0,-1.26 0.41,-2.27 1.28,-3 0.85,-0.73 2.09,-1.09 3.71,-1.09l31.4 0c1.7,0 2.98,0.38 3.81,1.13 0.83,0.76 1.25,1.74 1.25,2.96 0,1.22 -0.42,2.2 -1.27,2.95 -0.83,0.74 -2.1,1.12 -3.79,1.12z"/>
   <path class="fil1" d="M2162.87 1805.11l0 13.47c1.16,-1.33 2.28,-2.38 3.38,-3.16 1.1,-0.77 2.31,-1.36 3.64,-1.74 1.34,-0.4 2.76,-0.58 4.29,-0.58 2.31,0 4.36,0.48 6.14,1.45 1.79,0.98 3.19,2.4 4.21,4.28 0.64,1.08 1.07,2.29 1.3,3.63 0.22,1.34 0.33,2.89 0.33,4.64l0 17.41c0,1.81 -0.42,3.18 -1.24,4.12 -0.83,0.93 -1.94,1.4 -3.31,1.4 -3,0 -4.49,-1.84 -4.49,-5.52l0 -15.35c0,-2.9 -0.43,-5.14 -1.31,-6.7 -0.86,-1.56 -2.5,-2.34 -4.92,-2.34 -1.62,0 -3.08,0.45 -4.38,1.38 -1.29,0.92 -2.26,2.18 -2.9,3.77 -0.49,1.36 -0.74,3.75 -0.74,7.22l0 12.02c0,1.79 -0.4,3.16 -1.22,4.11 -0.8,0.93 -1.93,1.41 -3.37,1.41 -3,0 -4.49,-1.84 -4.49,-5.52l0 -39.4c0,-1.84 0.39,-3.22 1.19,-4.14 0.79,-0.92 1.88,-1.38 3.3,-1.38 1.44,0 2.57,0.47 3.37,1.39 0.82,0.93 1.22,2.31 1.22,4.13z"/>
   <path class="fil1" d="M2202.73 1828.64l16.47 0c-0.23,-3.11 -1.07,-5.44 -2.51,-6.98 -1.45,-1.54 -3.37,-2.31 -5.74,-2.31 -2.27,0 -4.12,0.78 -5.58,2.35 -1.45,1.57 -2.33,3.87 -2.64,6.94zm17.76 5.15l-17.76 0c0.02,2.06 0.44,3.88 1.24,5.46 0.82,1.57 1.89,2.76 3.24,3.56 1.33,0.79 2.81,1.2 4.43,1.2 1.09,0 2.09,-0.13 2.99,-0.39 0.89,-0.26 1.76,-0.65 2.61,-1.2 0.84,-0.54 1.61,-1.12 2.33,-1.75 0.7,-0.62 1.63,-1.45 2.75,-2.52 0.47,-0.4 1.14,-0.6 2,-0.6 0.93,0 1.69,0.26 2.27,0.76 0.57,0.51 0.86,1.24 0.86,2.16 0,0.83 -0.32,1.78 -0.96,2.88 -0.65,1.11 -1.62,2.16 -2.92,3.16 -1.29,1.02 -2.92,1.85 -4.89,2.52 -1.96,0.67 -4.21,1 -6.77,1 -5.83,0 -10.36,-1.67 -13.61,-5 -3.23,-3.32 -4.85,-7.84 -4.85,-13.54 0,-2.68 0.39,-5.17 1.19,-7.47 0.8,-2.29 1.97,-4.26 3.5,-5.9 1.53,-1.64 3.42,-2.9 5.66,-3.78 2.23,-0.87 4.72,-1.32 7.45,-1.32 3.54,0 6.59,0.75 9.13,2.25 2.54,1.51 4.44,3.43 5.71,5.81 1.27,2.38 1.89,4.79 1.89,7.25 0,2.29 -0.65,3.77 -1.96,4.45 -1.31,0.67 -3.15,1.01 -5.53,1.01z"/>
   <path class="fil1" d="M2290.37 1834.55c0,2.96 -0.76,5.6 -2.28,7.95 -1.53,2.36 -3.74,4.2 -6.67,5.53 -2.93,1.33 -6.41,2 -10.42,2 -4.81,0 -8.78,-0.91 -11.91,-2.73 -2.22,-1.31 -4.01,-3.06 -5.41,-5.24 -1.38,-2.19 -2.07,-4.31 -2.07,-6.38 0,-1.19 0.41,-2.22 1.24,-3.07 0.83,-0.85 1.9,-1.28 3.18,-1.28 1.04,0 1.92,0.33 2.65,1 0.72,0.66 1.33,1.64 1.85,2.95 0.61,1.56 1.28,2.85 2,3.9 0.72,1.04 1.74,1.9 3.05,2.58 1.3,0.68 3.02,1.01 5.15,1.01 2.93,0 5.31,-0.68 7.14,-2.04 1.83,-1.37 2.75,-3.07 2.75,-5.11 0,-1.62 -0.49,-2.93 -1.49,-3.94 -0.99,-1.01 -2.25,-1.79 -3.83,-2.32 -1.56,-0.54 -3.65,-1.1 -6.26,-1.69 -3.51,-0.82 -6.44,-1.78 -8.8,-2.88 -2.36,-1.1 -4.24,-2.6 -5.63,-4.49 -1.37,-1.9 -2.08,-4.26 -2.08,-7.07 0,-2.69 0.74,-5.07 2.2,-7.15 1.46,-2.09 3.58,-3.7 6.35,-4.81 2.78,-1.12 6.04,-1.68 9.79,-1.68 2.99,0 5.58,0.37 7.76,1.11 2.19,0.74 4.01,1.73 5.44,2.97 1.45,1.23 2.5,2.52 3.17,3.87 0.66,1.35 0.99,2.67 0.99,3.96 0,1.18 -0.42,2.24 -1.25,3.18 -0.83,0.94 -1.86,1.4 -3.1,1.4 -1.13,0 -1.99,-0.27 -2.58,-0.84 -0.59,-0.56 -1.23,-1.49 -1.92,-2.78 -0.88,-1.83 -1.95,-3.28 -3.19,-4.31 -1.24,-1.03 -3.24,-1.53 -5.99,-1.53 -2.54,0 -4.6,0.55 -6.17,1.67 -1.56,1.12 -2.34,2.46 -2.34,4.04 0,0.98 0.26,1.82 0.79,2.53 0.54,0.71 1.27,1.32 2.2,1.83 0.93,0.51 1.87,0.91 2.82,1.19 0.96,0.29 2.54,0.72 4.73,1.27 2.76,0.64 5.24,1.35 7.47,2.13 2.23,0.78 4.12,1.72 5.69,2.83 1.56,1.11 2.78,2.51 3.66,4.21 0.88,1.7 1.32,3.77 1.32,6.23z"/>
   <path class="fil1" d="M2321.71 1844.9l0 -1.16c-1.09,1.37 -2.23,2.53 -3.44,3.46 -1.19,0.94 -2.49,1.63 -3.92,2.08 -1.42,0.45 -3.03,0.67 -4.86,0.67 -2.19,0 -4.16,-0.45 -5.9,-1.36 -1.74,-0.91 -3.09,-2.16 -4.04,-3.76 -1.13,-1.93 -1.7,-4.71 -1.7,-8.31l0 -18c0,-1.82 0.42,-3.18 1.23,-4.08 0.81,-0.89 1.91,-1.34 3.27,-1.34 1.37,0 2.48,0.45 3.31,1.36 0.85,0.91 1.27,2.26 1.27,4.06l0 14.54c0,2.11 0.18,3.87 0.54,5.3 0.35,1.44 0.98,2.55 1.91,3.36 0.92,0.81 2.17,1.22 3.74,1.22 1.53,0 2.97,-0.46 4.33,-1.37 1.35,-0.91 2.33,-2.1 2.96,-3.56 0.51,-1.28 0.76,-4.1 0.76,-8.45l0 -11.04c0,-1.8 0.43,-3.15 1.27,-4.06 0.85,-0.91 1.94,-1.36 3.29,-1.36 1.35,0 2.44,0.45 3.26,1.34 0.83,0.9 1.23,2.26 1.23,4.08l0 26.31c0,1.74 -0.39,3.04 -1.18,3.9 -0.78,0.87 -1.8,1.3 -3.05,1.3 -1.23,0 -2.26,-0.45 -3.07,-1.35 -0.81,-0.9 -1.21,-2.16 -1.21,-3.78z"/>
   <path class="fil1" d="M2347.52 1818.12l0 1.1c1.6,-2.11 3.34,-3.65 5.24,-4.64 1.9,-0.99 4.08,-1.48 6.53,-1.48 2.4,0 4.54,0.51 6.43,1.55 1.88,1.05 3.29,2.53 4.23,4.43 0.59,1.11 0.98,2.31 1.16,3.59 0.18,1.29 0.27,2.94 0.27,4.92l0 16.92c0,1.81 -0.42,3.18 -1.25,4.12 -0.83,0.93 -1.91,1.4 -3.24,1.4 -1.36,0 -2.45,-0.48 -3.3,-1.44 -0.84,-0.95 -1.26,-2.31 -1.26,-4.08l0 -15.15c0,-2.99 -0.42,-5.28 -1.25,-6.87 -0.83,-1.59 -2.49,-2.37 -4.98,-2.37 -1.62,0 -3.08,0.47 -4.42,1.44 -1.33,0.97 -2.31,2.29 -2.93,3.98 -0.44,1.35 -0.66,3.88 -0.66,7.58l0 11.39c0,1.83 -0.43,3.21 -1.28,4.14 -0.86,0.91 -1.97,1.38 -3.31,1.38 -1.31,0 -2.39,-0.48 -3.23,-1.44 -0.85,-0.95 -1.26,-2.31 -1.26,-4.08l0 -26.26c0,-1.73 0.37,-3.02 1.13,-3.88 0.75,-0.84 1.79,-1.27 3.09,-1.27 0.8,0 1.52,0.18 2.16,0.56 0.64,0.38 1.17,0.95 1.54,1.7 0.4,0.76 0.59,1.67 0.59,2.76z"/>
   <path class="fil1" d="M2414.63 1807.84l-6.66 0 0 14.9 6.66 0c2.33,0 4.27,-0.24 5.84,-0.73 1.56,-0.48 2.75,-1.29 3.57,-2.4 0.82,-1.1 1.23,-2.56 1.23,-4.35 0,-2.15 -0.63,-3.91 -1.89,-5.25 -1.42,-1.45 -4.34,-2.17 -8.75,-2.17zm2.39 22.36l-9.05 0 0 13.81c0,1.96 -0.46,3.47 -1.39,4.49 -0.93,1.02 -2.11,1.53 -3.53,1.53 -1.48,0 -2.69,-0.51 -3.59,-1.51 -0.92,-1.02 -1.37,-2.5 -1.37,-4.44l0 -37.61c0,-2.17 0.5,-3.72 1.5,-4.66 1,-0.92 2.58,-1.39 4.76,-1.39l12.67 0c3.75,0 6.64,0.29 8.65,0.86 2,0.56 3.72,1.48 5.18,2.77 1.45,1.29 2.55,2.86 3.31,4.73 0.75,1.85 1.13,3.95 1.13,6.28 0,4.97 -1.53,8.73 -4.59,11.28 -3.07,2.57 -7.62,3.86 -13.68,3.86z"/>
   <path class="fil1" d="M2462.67 1831.76c-1.33,0.49 -3.26,1 -5.81,1.55 -2.54,0.54 -4.29,0.94 -5.27,1.19 -0.98,0.26 -1.91,0.76 -2.79,1.51 -0.89,0.74 -1.33,1.77 -1.33,3.1 0,1.38 0.52,2.55 1.56,3.51 1.05,0.97 2.4,1.45 4.09,1.45 1.8,0 3.46,-0.39 4.98,-1.17 1.51,-0.8 2.64,-1.81 3.34,-3.05 0.82,-1.38 1.23,-3.64 1.23,-6.79l0 -1.3zm0.6 13.14c-2.19,1.71 -4.32,2.99 -6.38,3.84 -2.05,0.85 -4.35,1.29 -6.89,1.29 -2.33,0 -4.37,-0.47 -6.15,-1.38 -1.76,-0.93 -3.12,-2.18 -4.06,-3.75 -0.97,-1.57 -1.44,-3.28 -1.44,-5.12 0,-2.48 0.79,-4.61 2.36,-6.35 1.58,-1.76 3.74,-2.94 6.49,-3.54 0.58,-0.13 2.01,-0.43 4.29,-0.89 2.28,-0.47 4.24,-0.9 5.87,-1.28 1.63,-0.39 3.4,-0.86 5.31,-1.42 -0.12,-2.39 -0.59,-4.15 -1.44,-5.27 -0.86,-1.11 -2.62,-1.68 -5.32,-1.68 -2.3,0 -4.04,0.33 -5.2,0.96 -1.16,0.65 -2.16,1.62 -3,2.89 -0.83,1.29 -1.42,2.15 -1.76,2.56 -0.35,0.41 -1.08,0.61 -2.21,0.61 -1.02,0 -1.9,-0.32 -2.65,-0.98 -0.74,-0.65 -1.11,-1.5 -1.11,-2.52 0,-1.59 0.57,-3.15 1.69,-4.66 1.14,-1.5 2.9,-2.74 5.3,-3.72 2.39,-0.97 5.38,-1.47 8.94,-1.47 4.01,0 7.14,0.48 9.42,1.42 2.29,0.94 3.9,2.44 4.84,4.48 0.94,2.04 1.41,4.75 1.41,8.11 0,2.13 0,3.94 -0.01,5.42 -0.01,1.5 -0.02,3.15 -0.04,4.97 0,1.7 0.27,3.49 0.84,5.33 0.57,1.86 0.84,3.06 0.84,3.58 0,0.94 -0.43,1.79 -1.3,2.54 -0.88,0.77 -1.87,1.16 -2.98,1.16 -0.94,0 -1.86,-0.44 -2.77,-1.32 -0.91,-0.88 -1.87,-2.14 -2.89,-3.81z"/>
   <path class="fil1" d="M2488.29 1851.15l0.83 -2.03 -11.19 -28.13c-0.67,-1.63 -1.02,-2.8 -1.02,-3.54 0,-0.78 0.2,-1.5 0.6,-2.16 0.4,-0.67 0.94,-1.2 1.64,-1.59 0.7,-0.4 1.43,-0.6 2.19,-0.6 1.3,0 2.29,0.41 2.94,1.24 0.68,0.83 1.27,2.03 1.78,3.58l7.68 22.35 7.28 -20.79c0.58,-1.68 1.1,-3.01 1.58,-3.96 0.46,-0.95 0.95,-1.6 1.47,-1.93 0.52,-0.33 1.26,-0.49 2.21,-0.49 0.69,0 1.35,0.18 1.99,0.54 0.62,0.37 1.11,0.87 1.46,1.48 0.34,0.63 0.52,1.28 0.52,1.97 -0.09,0.42 -0.24,1.02 -0.44,1.79 -0.2,0.78 -0.45,1.57 -0.72,2.36l-11.86 31.01c-1.02,2.73 -2.02,4.87 -2.99,6.43 -0.97,1.54 -2.27,2.74 -3.87,3.57 -1.61,0.84 -3.79,1.25 -6.51,1.25 -2.67,0 -4.66,-0.29 -5.99,-0.86 -1.34,-0.59 -1.99,-1.64 -1.99,-3.16 0,-1.05 0.31,-1.85 0.94,-2.42 0.64,-0.56 1.57,-0.85 2.81,-0.85 0.49,0 0.97,0.07 1.43,0.2 0.59,0.13 1.08,0.2 1.5,0.2 1.05,0 1.86,-0.15 2.46,-0.47 0.6,-0.31 1.14,-0.84 1.62,-1.6 0.48,-0.78 1.02,-1.9 1.65,-3.39z"/>
   <path class="fil1" d="M2554.6 1827.53l-10.29 0 0 14.24 10.61 0c6.68,0 10.03,-2.41 10.03,-7.22 0,-2.46 -0.87,-4.24 -2.6,-5.35 -1.73,-1.11 -4.31,-1.67 -7.75,-1.67zm-10.29 -19.69l0 12.61 9.05 0c2.45,0 4.37,-0.24 5.72,-0.7 1.33,-0.47 2.36,-1.35 3.07,-2.66 0.55,-0.93 0.84,-1.98 0.84,-3.13 0,-2.46 -0.89,-4.09 -2.64,-4.9 -1.76,-0.81 -4.42,-1.22 -8.02,-1.22l-8.02 0zm11.01 41.35l-14.9 0c-2.15,0 -3.69,-0.47 -4.61,-1.44 -0.92,-0.97 -1.38,-2.51 -1.38,-4.61l0 -36.67c0,-2.15 0.47,-3.69 1.42,-4.64 0.94,-0.94 2.46,-1.41 4.57,-1.41l15.8 0c2.33,0 4.35,0.15 6.05,0.43 1.72,0.3 3.25,0.84 4.6,1.67 1.16,0.68 2.18,1.56 3.06,2.61 0.89,1.06 1.57,2.22 2.04,3.49 0.45,1.27 0.69,2.62 0.69,4.04 0,4.89 -2.44,8.45 -7.33,10.72 6.42,2.04 9.62,6.02 9.62,11.9 0,2.73 -0.69,5.19 -2.09,7.37 -1.4,2.19 -3.28,3.8 -5.66,4.84 -1.49,0.63 -3.19,1.07 -5.13,1.32 -1.92,0.26 -4.17,0.38 -6.75,0.38z"/>
   <path class="fil1" d="M2591.96 1818.25l0 26.25c0,1.82 -0.44,3.19 -1.29,4.13 -0.87,0.93 -1.96,1.4 -3.3,1.4 -1.34,0 -2.42,-0.48 -3.25,-1.44 -0.83,-0.95 -1.25,-2.31 -1.25,-4.09l0 -25.98c0,-1.8 0.42,-3.15 1.25,-4.06 0.83,-0.91 1.91,-1.36 3.25,-1.36 1.34,0 2.43,0.45 3.3,1.36 0.85,0.91 1.29,2.17 1.29,3.79zm-4.5 -9.38c-1.26,0 -2.34,-0.38 -3.25,-1.16 -0.9,-0.78 -1.34,-1.88 -1.34,-3.29 0,-1.29 0.46,-2.35 1.38,-3.18 0.92,-0.84 1.99,-1.25 3.21,-1.25 1.18,0 2.23,0.38 3.12,1.13 0.93,0.75 1.38,1.85 1.38,3.3 0,1.39 -0.44,2.49 -1.33,3.27 -0.88,0.79 -1.94,1.18 -3.17,1.18z"/>
   <path class="fil1" d="M2601.35 1844.51l0 -39.41c0,-1.81 0.4,-3.18 1.21,-4.12 0.81,-0.93 1.9,-1.39 3.29,-1.39 1.36,0 2.47,0.45 3.31,1.37 0.85,0.93 1.26,2.31 1.26,4.14l0 39.41c0,1.83 -0.42,3.21 -1.27,4.14 -0.86,0.91 -1.96,1.38 -3.3,1.38 -1.34,0 -2.42,-0.48 -3.26,-1.44 -0.83,-0.95 -1.24,-2.31 -1.24,-4.08z"/>
   <path class="fil1" d="M2619.81 1844.51l0 -39.41c0,-1.81 0.39,-3.18 1.21,-4.12 0.81,-0.93 1.9,-1.39 3.28,-1.39 1.37,0 2.48,0.45 3.32,1.37 0.85,0.93 1.27,2.31 1.27,4.14l0 39.41c0,1.83 -0.43,3.21 -1.29,4.14 -0.85,0.91 -1.96,1.38 -3.3,1.38 -1.34,0 -2.42,-0.48 -3.25,-1.44 -0.83,-0.95 -1.24,-2.31 -1.24,-4.08z"/>
   <path class="fil1" d="M1917.32 1853.82l-372.15 0c-29.83,0 -54.02,-24.1 -54.02,-53.82l426.17 0 0 53.82z"/>
   <polygon class="fil1" points="1934.57,1853.82 1924.69,1853.82 1924.69,1800 1934.57,1800 "/>
   <polygon class="fil1" points="1950.01,1853.82 1941.94,1853.82 1941.94,1800 1950.01,1800 "/>
   <polygon class="fil1" points="1962.57,1853.82 1956.29,1853.82 1956.29,1800 1962.57,1800 "/>
   <polygon class="fil1" points="1973.33,1853.82 1968.85,1853.82 1968.85,1800 1973.33,1800 "/>
   <path class="fil2" d="M658.43 1586.32c-5.03,11.34 -12.14,21.38 -19.38,31.35 -7.23,9.96 -14.52,19.89 -21.59,29.97 -5.22,7.45 -9.29,15.54 -12.25,24.16 -3.46,10.12 -4.11,20.36 -1.8,30.83 1.68,7.57 4.37,14.76 8.24,21.45 4.2,7.24 8.62,14.36 13.28,21.33 5.69,8.52 11.78,16.8 17.6,25.24 6.41,9.31 12.15,19.03 16.17,29.66 0.24,0.61 0.62,1.16 0.88,1.67 2.2,0.53 3.84,-0.64 5.54,-1.3 21.35,-8.31 42.65,-16.68 63.97,-25.04 26.26,-10.28 52.51,-20.56 78.77,-30.83 28.17,-11.03 56.34,-22.05 84.5,-33.06 8.75,-3.43 17.52,-6.81 26.24,-10.33 6.72,-2.72 9.71,-9.64 7.33,-16.43 -1.66,-4.75 -5.09,-7.41 -9.74,-9.05 -49.25,-17.53 -98.49,-35.12 -147.74,-52.7 -32.34,-11.54 -64.68,-23.11 -97.04,-34.65 -3.84,-1.37 -7.71,-2.66 -11.66,-4.02 -0.52,0.69 -1.07,1.15 -1.32,1.75z"/>
   <path class="fil3" d="M929.4 1733.47l-0.2 0c-1.73,0.01 -3.51,0.32 -5.34,0.86 -50.16,14.78 -100.33,29.49 -150.49,44.21 -32.97,9.67 -65.92,19.32 -98.88,29 -3.92,1.15 -7.81,2.39 -11.8,3.6 -0.02,0.87 -0.18,1.56 -0.04,2.2 2.6,12.13 2.74,24.44 2.75,36.75 0.01,12.31 -0.06,24.64 0.15,36.94 0.15,9.09 1.62,18.03 4.29,26.76 3.14,10.22 8.65,18.89 16.66,25.98 5.81,5.15 12.22,9.39 19.28,12.52 7.65,3.39 15.41,6.54 23.27,9.44 9.62,3.56 19.41,6.67 29.08,10.09 10.67,3.77 21.01,8.24 30.51,14.48 0.55,0.36 1.19,0.58 1.7,0.84 2.09,-0.87 2.74,-2.78 3.72,-4.31 12.37,-19.26 24.7,-38.56 37.04,-57.86 15.2,-23.75 30.39,-47.5 45.6,-71.24 16.3,-25.48 32.62,-50.95 48.92,-76.42 5.07,-7.92 10.19,-15.8 15.17,-23.78 3.83,-6.15 2.18,-13.51 -3.73,-17.59 -2.47,-1.71 -5.01,-2.45 -7.66,-2.47z"/>
   <path class="fil4" d="M976.36 1770.61l-0.27 0 -0.08 0c-5.02,0.12 -8.62,2.55 -11.63,6.46 -31.88,41.44 -63.84,82.83 -95.77,124.23 -20.97,27.19 -41.96,54.38 -62.93,81.57 -2.5,3.24 -4.93,6.52 -7.43,9.85 0.49,0.72 0.76,1.38 1.25,1.82 9.23,8.27 16.59,18.14 23.83,28.1 7.24,9.96 14.43,19.96 21.83,29.8 5.47,7.27 11.9,13.64 19.2,19.12 8.55,6.42 18.09,10.2 28.75,11.23 7.72,0.75 15.41,0.41 22.95,-1.21 8.19,-1.74 16.33,-3.77 24.39,-6.03 9.87,-2.78 19.62,-6.01 29.45,-8.93 10.84,-3.23 21.85,-5.69 33.19,-6.23 0.66,-0.04 1.31,-0.22 1.87,-0.32 1.19,-1.92 0.58,-3.85 0.47,-5.67 -1.3,-22.86 -2.68,-45.71 -4.03,-68.58 -1.67,-28.14 -3.33,-56.28 -4.99,-84.43 -1.78,-30.2 -3.55,-60.4 -5.33,-90.58 -0.56,-9.39 -1.06,-18.78 -1.72,-28.15 -0.49,-7.11 -5.98,-12.05 -13,-12.05z"/>
   <path class="fil5" d="M1036.15 1772.94l-0.29 0c-2.75,0.03 -5.52,0.97 -7.97,2.83 -3.99,3.05 -5.46,7.13 -5.6,12.06 -1.44,52.26 -2.96,104.53 -4.46,156.79 -0.98,34.33 -1.98,68.66 -2.97,102.99 -0.12,4.09 -0.15,8.17 -0.22,12.34 0.82,0.29 1.43,0.66 2.07,0.72 12.34,1.27 24.09,4.94 35.82,8.74 11.7,3.81 23.4,7.66 35.17,11.27 8.69,2.67 17.64,4.04 26.77,4.18 10.68,0.18 20.63,-2.37 29.86,-7.8 6.69,-3.93 12.7,-8.73 17.86,-14.47 5.59,-6.22 11,-12.64 16.18,-19.22 6.35,-8.05 12.33,-16.4 18.57,-24.54 6.89,-8.98 14.33,-17.43 23.2,-24.54 0.51,-0.42 0.93,-0.96 1.32,-1.36 -0.18,-2.26 -1.79,-3.45 -2.94,-4.86 -14.5,-17.73 -29.05,-35.41 -43.58,-53.11 -17.89,-21.79 -35.78,-43.58 -53.67,-65.38 -19.18,-23.38 -38.37,-46.76 -57.56,-70.16 -5.96,-7.25 -11.88,-14.56 -17.92,-21.75 -2.6,-3.1 -6.08,-4.68 -9.64,-4.73z"/>
   <path class="fil6" d="M1085.43 1740.04l-0.05 0 -0.05 0 -0.05 0 -0.05 0 -0.05 0 -0.05 0c-5.66,0 -10.49,3.63 -12.23,9.4 -1.43,4.82 -0.22,8.98 2.56,13.05 29.56,43.14 59.05,86.3 88.55,129.47 19.39,28.35 38.76,56.72 58.14,85.07 2.3,3.37 4.68,6.7 7.07,10.11 0.83,-0.25 1.54,-0.3 2.11,-0.63 10.72,-6.22 22.38,-10.17 34.1,-13.98 11.71,-3.81 23.44,-7.56 35.08,-11.56 8.61,-2.95 16.65,-7.11 24.12,-12.35 8.74,-6.13 15.29,-14.06 19.57,-23.87 3.1,-7.11 5.15,-14.52 5.95,-22.2 0.85,-8.33 1.46,-16.7 1.79,-25.05 0.4,-10.25 0.34,-20.52 0.6,-30.78 0.28,-11.31 1.35,-22.52 4.34,-33.5 0.17,-0.63 0.2,-1.3 0.27,-1.87 -1.47,-1.72 -3.48,-1.75 -5.24,-2.21 -22.15,-5.81 -44.31,-11.57 -66.47,-17.35 -27.28,-7.1 -54.57,-14.22 -81.85,-21.35 -29.26,-7.62 -58.53,-15.26 -87.79,-22.91 -9.11,-2.37 -18.19,-4.8 -27.31,-7.07 -1.04,-0.26 -2.06,-0.4 -3.06,-0.42z"/>
   <path class="fil7" d="M1359.25 1584.57l-0.24 0c-1.63,0.03 -2.97,0.9 -4.35,1.43 -21.34,8.31 -42.65,16.68 -63.97,25.03 -26.26,10.29 -52.5,20.56 -78.77,30.83 -28.16,11.03 -56.33,22.05 -84.5,33.07 -8.75,3.43 -17.52,6.8 -26.24,10.33 -6.72,2.71 -9.7,9.64 -7.33,16.42 1.66,4.75 5.1,7.42 9.74,9.07 49.26,17.52 98.5,35.1 147.74,52.68 32.35,11.56 64.69,23.12 97.04,34.65 3.84,1.38 7.72,2.68 11.66,4.04 0.53,-0.7 1.07,-1.17 1.33,-1.76 5.02,-11.35 12.13,-21.38 19.37,-31.35 7.23,-9.97 14.53,-19.89 21.59,-29.97 5.22,-7.45 9.3,-15.54 12.25,-24.17 3.47,-10.11 4.11,-20.36 1.8,-30.82 -1.67,-7.58 -4.37,-14.78 -8.24,-21.45 -4.19,-7.25 -8.63,-14.37 -13.27,-21.33 -5.7,-8.53 -11.79,-16.8 -17.6,-25.25 -6.42,-9.32 -12.15,-19.01 -16.18,-29.64 -0.23,-0.62 -0.61,-1.18 -0.88,-1.68 -0.33,-0.08 -0.64,-0.12 -0.95,-0.13z"/>
   <path class="fil8" d="M1225.73 1403.85c-12.38,19.26 -24.71,38.56 -37.05,57.85 -15.19,23.75 -30.39,47.5 -45.6,71.25 -16.3,25.46 -32.62,50.95 -48.92,76.42 -5.06,7.91 -10.19,15.8 -15.16,23.77 -3.84,6.16 -2.18,13.51 3.73,17.6 4.13,2.86 8.46,3 13.2,1.61 50.15,-14.78 100.32,-29.5 150.49,-44.22 32.96,-9.67 65.92,-19.32 98.87,-29 3.93,-1.15 7.82,-2.38 11.79,-3.59 0.04,-0.88 0.2,-1.57 0.06,-2.21 -2.61,-12.12 -2.75,-24.43 -2.76,-36.75 -0.01,-12.31 0.07,-24.62 -0.14,-36.93 -0.16,-9.11 -1.63,-18.04 -4.31,-26.75 -3.13,-10.23 -8.64,-18.9 -16.65,-26.01 -5.8,-5.14 -12.22,-9.37 -19.28,-12.5 -7.65,-3.39 -15.42,-6.55 -23.27,-9.45 -9.62,-3.55 -19.41,-6.67 -29.08,-10.08 -10.67,-3.77 -21,-8.24 -30.51,-14.48 -0.55,-0.36 -1.19,-0.59 -1.71,-0.83 -2.08,0.85 -2.72,2.76 -3.7,4.3z"/>
   <path class="fil9" d="M1119.54 1303.51l-1.06 0c-4.96,0.02 -9.89,0.53 -14.76,1.58 -8.19,1.76 -16.32,3.77 -24.39,6.04 -9.87,2.77 -19.61,6.01 -29.45,8.94 -10.84,3.21 -21.84,5.68 -33.19,6.22 -0.66,0.02 -1.32,0.21 -1.87,0.31 -1.18,1.94 -0.58,3.86 -0.47,5.67 1.3,22.86 2.68,45.72 4.03,68.57 1.67,28.15 3.34,56.3 5,84.45 1.78,30.19 3.54,60.39 5.32,90.59 0.56,9.38 1.06,18.77 1.72,28.14 0.51,7.23 6.17,12.21 13.35,12.05 5.03,-0.11 8.62,-2.56 11.63,-6.47 31.89,-41.43 63.83,-82.82 95.76,-124.23 20.99,-27.19 41.97,-54.37 62.94,-81.57 2.5,-3.24 4.93,-6.52 7.44,-9.84 -0.49,-0.72 -0.77,-1.38 -1.26,-1.81 -9.23,-8.28 -16.59,-18.16 -23.84,-28.12 -7.23,-9.96 -14.42,-19.96 -21.82,-29.79 -5.47,-7.27 -11.9,-13.64 -19.2,-19.12 -8.54,-6.42 -18.09,-10.2 -28.76,-11.23 -2.37,-0.24 -4.75,-0.36 -7.12,-0.38z"/>
   <path class="fil10" d="M904.71 1301.8l-0.41 0c-10.3,0 -19.9,2.57 -28.85,7.82 -6.69,3.93 -12.7,8.73 -17.85,14.47 -5.6,6.23 -11,12.65 -16.19,19.21 -6.35,8.06 -12.33,16.4 -18.57,24.55 -6.88,8.97 -14.34,17.43 -23.2,24.55 -0.52,0.4 -0.93,0.94 -1.32,1.35 0.18,2.25 1.8,3.46 2.94,4.86 14.49,17.73 29.05,35.4 43.57,53.11 17.9,21.79 35.8,43.58 53.68,65.38 19.19,23.38 38.38,46.77 57.56,70.15 5.97,7.26 11.89,14.56 17.93,21.76 4.66,5.56 12.17,6.25 17.89,1.89 4,-3.04 5.47,-7.12 5.61,-12.06 1.44,-52.27 2.94,-104.52 4.45,-156.78 0.98,-34.34 1.99,-68.67 2.97,-103 0.12,-4.08 0.15,-8.17 0.22,-12.33 -0.82,-0.31 -1.43,-0.66 -2.08,-0.73 -12.33,-1.27 -24.08,-4.93 -35.81,-8.74 -11.7,-3.79 -23.39,-7.65 -35.17,-11.26 -8.69,-2.67 -17.64,-4.04 -26.77,-4.19l-0.6 -0.01z"/>
   <path class="fil11" d="M788.46 1400.17c-10.73,6.23 -22.39,10.17 -34.1,13.98 -11.72,3.81 -23.45,7.56 -35.09,11.55 -8.6,2.96 -16.65,7.11 -24.11,12.35 -8.75,6.15 -15.3,14.06 -19.57,23.87 -3.11,7.12 -5.15,14.53 -5.95,22.21 -0.86,8.32 -1.47,16.68 -1.8,25.05 -0.4,10.26 -0.34,20.52 -0.6,30.77 -0.29,11.32 -1.34,22.54 -4.33,33.5 -0.18,0.63 -0.2,1.32 -0.28,1.88 1.47,1.71 3.48,1.73 5.24,2.2 22.14,5.82 44.31,11.57 66.47,17.34 27.29,7.13 54.57,14.24 81.85,21.36 29.27,7.63 58.53,15.28 87.8,22.91 9.09,2.38 18.17,4.8 27.3,7.08 7.03,1.74 13.52,-2.11 15.58,-9 1.45,-4.8 0.23,-8.98 -2.55,-13.04 -29.55,-43.13 -59.05,-86.3 -88.56,-129.47 -19.37,-28.34 -38.74,-56.71 -58.13,-85.06 -2.31,-3.37 -4.68,-6.7 -7.07,-10.12 -0.83,0.25 -1.54,0.31 -2.1,0.64z"/>
   <path class="fil12 str0" d="M2784.62 1491.69c0,24.84 -20.13,44.97 -44.97,44.97 -24.85,0 -44.98,-20.13 -44.98,-44.97 0,-24.84 20.13,-44.97 44.98,-44.97 24.84,0 44.97,20.13 44.97,44.97z"/>
   <path class="fil13" d="M2747.02 1480.39c0,-4.06 -1.24,-6.75 -3.7,-8.07 -2.47,-1.33 -5.69,-2 -9.67,-2 -0.55,0 -0.98,0.01 -1.29,0.03 -0.32,0 -0.68,0.01 -1.07,0.01l0 20.47 2.36 0c3.78,0 6.95,-0.62 9.52,-1.85 2.56,-1.23 3.85,-4.09 3.85,-8.59zm21.09 37.36l-13.62 0c-0.51,-0.55 -1.12,-1.36 -1.86,-2.41 -0.74,-1.05 -1.55,-2.29 -2.42,-3.7 -0.88,-1.41 -1.61,-2.58 -2.18,-3.5l-3.46 -5.71c-1.56,-2.56 -2.72,-4.3 -3.51,-5.24 -0.79,-0.93 -1.68,-1.54 -2.7,-1.8 -1.02,-0.26 -2.74,-0.4 -5.16,-0.4l-1.91 0 0 13.29c0,1.41 0.14,2.54 0.45,3.38 0.29,0.85 0.99,1.5 2.11,1.95 1.12,0.46 2.74,0.68 4.87,0.68l0 3.46 -25.53 0 0 -3.46c3.1,0 5.09,-0.45 5.98,-1.35 0.89,-0.9 1.35,-2.45 1.35,-4.66l0 -32.14c0,-2.17 -0.44,-3.71 -1.31,-4.64 -0.86,-0.91 -2.86,-1.36 -6.02,-1.36l0 -3.54 11.78 -0.37c0.91,-0.04 1.95,-0.08 3.1,-0.1 1.17,-0.04 2.25,-0.05 3.26,-0.05 0.76,0 2.06,0.03 3.86,0.08 2.52,0.07 4.89,0.23 7.09,0.44 2.21,0.23 3.95,0.52 5.22,0.87 1.88,0.48 3.67,1.27 5.35,2.37 1.69,1.1 3.07,2.55 4.14,4.34 1.05,1.82 1.59,3.9 1.59,6.28 0,1.71 -0.37,3.36 -1.1,4.96 -0.75,1.61 -1.94,3.02 -3.58,4.28 -1.64,1.25 -3.8,2.24 -6.47,2.97 1.82,1.08 3.37,2.41 4.65,3.99 1.28,1.59 3.28,4.51 6.01,8.77 1.57,2.43 2.88,4.27 3.91,5.5 1.02,1.24 1.97,2.07 2.82,2.52 0.87,0.43 1.97,0.71 3.29,0.84l0 3.46z"/>
  </g>
 </g>
</svg>
