<?xml version="1.0" encoding="UTF-8"?>
<!DOCTYPE svg PUBLIC "-//W3C//DTD SVG 1.1//EN" "http://www.w3.org/Graphics/SVG/1.1/DTD/svg11.dtd">
<!-- Creator: CorelDRAW 2021 (64-Bit) -->
<svg xmlns="http://www.w3.org/2000/svg" xml:space="preserve" width="33.867mm" height="33.867mm" version="1.1" style="shape-rendering:geometricPrecision; text-rendering:geometricPrecision; image-rendering:optimizeQuality; fill-rule:evenodd; clip-rule:evenodd"
viewBox="0 0 3386.7 3386.7"
 xmlns:xlink="http://www.w3.org/1999/xlink"
 xmlns:xodm="http://www.corel.com/coreldraw/odm/2003">
 <defs>
  <style type="text/css">
   <![CDATA[
    .str0 {stroke:#2B2A29;stroke-width:10.58;stroke-linecap:round;stroke-linejoin:round;stroke-miterlimit:2.61313}
    .fil0 {fill:#2B2A29;fill-rule:nonzero}
   ]]>
  </style>
 </defs>
 <g id="Layer_x0020_1">
  <metadata id="CorelCorpID_0Corel-Layer"/>
  <g id="_2060280670800">
   <path class="fil0" d="M952.06 1293.06l0 97.34 -31.57 0c-3.29,-10.52 -6.58,-19.73 -9.87,-27.63 -3.29,-7.89 -7.23,-14.46 -10.52,-19.73 -3.95,-5.91 -7.89,-9.86 -12.5,-13.15 -3.95,-3.29 -9.21,-5.26 -15.13,-6.58 -5.92,-1.31 -13.15,-1.97 -21.7,-1.97l-101.29 0 0 168.37 68.4 0c9.21,0 17.1,-1.31 22.36,-3.94 5.27,-2.63 9.87,-7.24 13.16,-13.82 3.29,-5.91 7.23,-16.44 9.87,-30.25l30.25 0 0 123.65 -30.25 0c-2.64,-13.15 -5.92,-22.36 -9.87,-28.94 -3.29,-6.58 -7.89,-11.18 -12.5,-13.81 -5.26,-3.29 -13.15,-4.6 -23.02,-4.6l-68.4 0 0 185.47 99.31 0c10.53,0 19.08,-0.66 25.66,-2.63 6.58,-1.97 12.49,-5.26 17.1,-9.21 4.6,-4.6 8.55,-10.52 12.49,-17.1 3.29,-7.23 6.58,-14.47 9.21,-22.36 2.63,-7.23 5.92,-18.42 9.87,-32.89l32.22 0 -6.57 112.47 -297.29 0 0 -15.78c13.15,-3.29 22.36,-7.23 26.97,-11.18 4.6,-4.61 7.23,-10.53 8.55,-17.76 1.31,-7.89 1.97,-19.73 1.97,-35.52l0 -278.21c0,-14.47 -0.66,-24.99 -1.31,-32.23 -1.32,-6.58 -2.64,-11.84 -5.27,-15.79 -2.63,-3.28 -5.91,-6.57 -9.86,-8.55 -3.95,-2.63 -11.18,-4.6 -21.05,-7.89l0 -15.78 300.58 0z"/>
   <path class="fil0" d="M1092.69 1439.29l0 10.53c-6.58,1.31 -11.84,2.63 -15.35,4.38 -3.07,1.75 -5.7,4.38 -7.45,7.45 -1.75,3.07 -2.63,7.02 -2.63,12.72 0,4.82 0.44,10.08 1.75,15.35 0.88,5.7 2.63,12.28 4.83,19.29l49.98 174.51 61.39 -175.83c0.87,-3.06 1.75,-5.69 2.63,-8.76 0.87,-3.07 1.75,-5.7 2.19,-8.77 0.88,-2.64 1.32,-5.27 1.32,-7.46 0.43,-2.19 0.43,-3.95 0.43,-6.14 0,-8.33 -1.75,-14.47 -5.7,-18.41 -3.94,-3.95 -10.96,-6.58 -20.17,-8.33l0 -10.53 89.89 0 0 10.53c-5.7,1.75 -10.52,3.5 -14.03,6.13 -3.51,3.07 -7.01,7.46 -10.52,13.16 -3.51,6.14 -7.89,15.78 -12.72,28.94l-89.01 237.21 -28.06 0 -72.35 -238.97c-3.51,-12.71 -7.02,-21.92 -9.65,-27.62 -3.06,-5.26 -6.13,-9.65 -9.64,-12.28 -3.51,-3.07 -7.89,-4.82 -14.03,-6.57l0 -10.53 96.9 0zm389.37 0l0 64.9 -21.05 0c-2.19,-7.02 -4.39,-13.16 -6.58,-18.42 -2.19,-5.26 -4.82,-9.65 -7.02,-13.15 -2.63,-3.95 -5.26,-6.58 -8.33,-8.77 -2.63,-2.2 -6.14,-3.51 -10.08,-4.39 -3.95,-0.88 -8.77,-1.31 -14.47,-1.31l-67.52 0 0 112.25 45.6 0c6.14,0 11.4,-0.88 14.9,-2.64 3.51,-1.75 6.58,-4.82 8.77,-9.2 2.2,-3.95 4.83,-10.96 6.58,-20.17l20.17 0 0 82.43 -20.17 0c-1.75,-8.77 -3.95,-14.91 -6.58,-19.29 -2.19,-4.39 -5.26,-7.46 -8.33,-9.21 -3.51,-2.19 -8.77,-3.07 -15.34,-3.07l-45.6 0 0 123.65 66.2 0c7.02,0 12.72,-0.44 17.11,-1.75 4.38,-1.32 8.32,-3.51 11.39,-6.14 3.07,-3.07 5.7,-7.02 8.34,-11.4 2.19,-4.83 4.38,-9.65 6.14,-14.91 1.75,-4.83 3.94,-12.28 6.57,-21.92l21.49 0 -4.39 74.97 -198.19 0 0 -10.52c8.77,-2.19 14.91,-4.82 17.98,-7.45 3.07,-3.07 4.82,-7.02 5.7,-11.84 0.88,-5.26 1.31,-13.16 1.31,-23.68l0 -185.47c0,-9.65 -0.43,-16.67 -0.87,-21.49 -0.88,-4.38 -1.76,-7.89 -3.51,-10.52 -1.76,-2.2 -3.95,-4.39 -6.58,-5.7 -2.63,-1.76 -7.45,-3.07 -14.03,-5.26l0 -10.53 200.39 0zm117.07 165.31l0 72.78c0,10.53 0.43,17.98 1.31,22.37 0.88,4.82 1.76,8.33 3.51,10.52 1.32,2.63 3.51,4.38 6.14,6.14 3.07,1.31 7.46,3.07 14.03,4.82l0 10.52 -90.32 0 0 -10.52c8.76,-2.19 14.9,-4.82 17.97,-7.45 3.07,-3.07 4.83,-7.02 5.7,-11.84 0.88,-5.26 1.32,-13.16 1.32,-23.68l0 -185.47c0,-9.65 -0.44,-16.67 -0.88,-21.49 -0.87,-4.38 -1.75,-7.89 -3.51,-10.52 -1.75,-2.2 -3.94,-4.39 -6.57,-5.7 -2.64,-1.76 -7.46,-3.07 -14.03,-5.26l0 -10.53 106.11 0c33.32,0 58.31,6.14 74.97,18.42 16.67,12.28 24.56,31.13 24.56,56.56 0,19.29 -5.26,35.96 -15.78,49.99 -10.97,13.59 -27.19,24.11 -48.67,32l0 1.76c8.76,3.51 16.22,8.77 22.36,15.35 6.14,6.57 13.15,16.66 20.6,30.69l19.3 35.08c5.7,10.52 10.52,18.41 14.47,23.67 3.94,5.27 7.89,9.65 12.27,12.28 3.95,3.07 9.65,4.83 16.23,6.14l0 10.52 -59.2 0c-5.26,-7.45 -10.52,-15.78 -15.34,-24.55 -4.82,-8.77 -9.65,-17.54 -14.47,-26.31l-18.86 -35.95c-5.7,-10.96 -10.52,-18.86 -14.03,-24.12 -3.51,-4.82 -7.01,-8.33 -10.08,-10.52 -3.07,-2.19 -6.14,-3.51 -9.65,-4.39 -3.51,-0.87 -8.77,-1.31 -15.78,-1.31l-23.68 0zm0 -145.58l0 127.16 24.11 0c12.72,0 22.81,-0.87 30.26,-2.63 7.89,-1.75 14.91,-5.26 21.49,-10.08 6.57,-4.83 11.83,-11.84 15.78,-21.05 3.95,-8.77 5.7,-19.73 5.7,-32.45 0,-13.59 -2.19,-24.99 -7.02,-34.2 -4.38,-8.77 -11.4,-15.78 -21.04,-20.61 -9.21,-4.38 -21.93,-7.01 -38.15,-7.01 -12.71,0 -23.24,0.43 -31.13,0.87zm378.84 156.98c5.26,8.33 9.64,15.78 13.15,22.36 3.51,6.58 7.02,13.59 10.53,21.48l3.07 0c-0.88,-8.77 -1.32,-25.86 -2.2,-51.73 -0.44,-25.87 -0.87,-49.11 -0.87,-70.16l0 -45.16c0,-9.65 0,-16.67 -0.44,-21.49 -0.88,-4.38 -1.76,-7.89 -3.51,-10.52 -1.32,-2.2 -3.51,-4.39 -6.14,-5.7 -2.63,-1.76 -7.01,-3.07 -13.59,-5.26l0 -10.53 77.17 0 0 10.53c-6.58,1.75 -10.96,3.5 -13.59,4.82 -2.63,1.31 -4.83,3.51 -6.58,5.7 -1.75,2.19 -3.07,5.7 -3.95,10.09 -0.87,4.82 -1.31,12.27 -1.31,22.36l0 240.28 -26.75 0 -119.26 -199.94c-7.46,-12.72 -12.72,-21.49 -15.79,-27.19 -3.07,-5.7 -6.14,-11.4 -8.77,-17.1l-3.51 0c0.88,10.96 1.76,31.13 2.2,59.63 0.43,28.94 0.43,57.44 0.43,85.94l0 43.85c0,9.65 0.44,16.66 1.32,21.05 0.44,4.38 1.32,7.89 3.07,10.52 1.32,2.19 3.51,4.39 6.58,6.14 3.07,1.75 7.45,3.51 14.03,5.26l0 10.52 -78.05 0 0 -10.52c8.77,-2.19 14.91,-4.82 17.98,-7.45 3.07,-3.07 4.82,-7.02 5.7,-11.84 0.87,-5.26 1.31,-13.16 1.31,-23.68l0 -185.47c0,-9.65 0,-16.67 -0.87,-21.49 -0.88,-4.38 -1.76,-7.89 -3.51,-10.52 -1.76,-2.2 -3.95,-4.39 -6.58,-5.7 -2.63,-1.76 -7.45,-3.07 -14.03,-5.26l0 -10.53 67.09 0 105.67 176.71zm327.1 -176.71l0 64.9 -21.05 0c-2.19,-7.02 -4.38,-13.16 -6.57,-18.42 -2.2,-5.26 -4.83,-9.65 -7.02,-13.15 -2.63,-3.95 -5.26,-6.58 -8.33,-8.77 -2.63,-2.2 -6.14,-3.51 -10.08,-4.39 -3.95,-0.88 -8.78,-1.31 -14.48,-1.31l-67.52 0 0 112.25 45.6 0c6.14,0 11.4,-0.88 14.91,-2.64 3.51,-1.75 6.57,-4.82 8.77,-9.2 2.19,-3.95 4.82,-10.96 6.58,-20.17l20.16 0 0 82.43 -20.16 0c-1.76,-8.77 -3.95,-14.91 -6.58,-19.29 -2.2,-4.39 -5.26,-7.46 -8.33,-9.21 -3.51,-2.19 -8.77,-3.07 -15.35,-3.07l-45.6 0 0 123.65 66.21 0c7.01,0 12.72,-0.44 17.1,-1.75 4.39,-1.32 8.33,-3.51 11.4,-6.14 3.07,-3.07 5.7,-7.02 8.33,-11.4 2.19,-4.83 4.39,-9.65 6.14,-14.91 1.76,-4.83 3.95,-12.28 6.58,-21.92l21.48 0 -4.38 74.97 -198.19 0 0 -10.52c8.77,-2.19 14.91,-4.82 17.97,-7.45 3.07,-3.07 4.83,-7.02 5.7,-11.84 0.88,-5.26 1.32,-13.16 1.32,-23.68l0 -185.47c0,-9.65 -0.44,-16.67 -0.88,-21.49 -0.87,-4.38 -1.75,-7.89 -3.51,-10.52 -1.75,-2.2 -3.94,-4.39 -6.57,-5.7 -2.63,-1.76 -7.45,-3.07 -14.03,-5.26l0 -10.53 200.38 0zm227.57 54.81l-68.84 239.41 -34.64 0 -62.26 -232.83c-2.63,-9.65 -4.83,-17.54 -7.02,-23.68 -2.19,-6.14 -4.38,-10.96 -6.58,-14.47 -2.19,-3.51 -4.38,-6.14 -7.01,-7.89 -2.2,-1.76 -5.7,-3.51 -10.52,-4.82l0 -10.53 91.63 0 0 10.53c-8.76,1.75 -14.9,4.38 -18.41,7.89 -3.51,3.51 -5.26,8.33 -5.26,14.47 0,4.82 0.44,10.96 1.75,17.54 1.32,7.01 3.07,14.91 5.26,23.23l42.97 169.26 69.28 -242.92 35.96 0 55.68 243.35 50.43 -163.55c6.14,-19.73 9.2,-33.76 9.2,-42.53 0,-8.33 -1.75,-14.91 -5.26,-18.85 -3.5,-3.51 -9.64,-6.14 -17.97,-7.89l0 -10.53 84.18 0 0 10.53c-4.38,1.75 -7.89,3.06 -10.08,4.82 -2.63,1.75 -5.26,4.38 -7.45,7.45 -2.64,3.07 -5.27,7.9 -7.9,14.03 -2.63,6.58 -6.14,15.35 -9.64,25.88l-78.05 231.51 -30.7 0 -58.75 -239.41z"/>
   <path class="fil0 str0" d="M1019.41 1960.48c5.03,0 7.55,2 7.55,6.08 0,3.09 -2.33,5.41 -7.03,6.98 -8.02,2.85 -12.05,8.02 -12.05,15.43 0,5.93 2.32,10.58 6.98,13.9 3.98,2.8 9.01,4.18 15.14,4.18 12.29,0 23.02,-3.56 32.18,-10.73 5.74,-4.56 8.64,-10.3 8.64,-17.23 0,-4.27 -0.86,-8.12 -2.52,-11.58 -1.75,-3.51 -4.46,-7.98 -8.06,-13.34 -5.56,-8.35 -10.26,-15.95 -14.06,-22.83 -4.27,-7.6 -6.4,-15.09 -6.4,-22.41 0,-17.37 8.59,-33.6 25.72,-48.7 9.07,-7.88 19.09,-14.29 30,-19.22 9.07,-3.99 17.8,-5.98 26.25,-5.98 5.46,0 10.11,1.42 13.91,4.27 4.6,3.42 6.93,8.07 6.93,13.95 0,9.31 -4.98,19.32 -15,30.05 -9.44,10.11 -20.5,18.37 -33.08,24.78 -6.32,3.13 -11.06,4.7 -14.34,4.7 -2.14,0 -4.04,-0.86 -5.7,-2.61 -1.09,-1.24 -1.66,-2.57 -1.66,-4.04 0,-3.46 3.04,-6.22 9.16,-8.35 11.21,-3.99 21.13,-9.59 29.72,-16.85 11.11,-9.26 16.66,-17.37 16.66,-24.3 0,-2.71 -1.09,-4.89 -3.32,-6.56 -1.76,-1.28 -3.85,-1.94 -6.27,-1.94 -6.36,0 -14.33,2.47 -23.97,7.36 -12.91,6.59 -23.12,15.09 -30.52,25.48 -6.46,9.03 -9.68,17.76 -9.68,26.3 0,6.22 1.7,12.63 5.17,19.23 2.85,5.26 6.55,11.25 11.01,17.94 4.27,6.41 7.88,12.34 10.82,17.8 3.47,6.51 5.18,12.58 5.18,18.23 0,10.96 -6.27,20.65 -18.85,29.1 -10.68,7.07 -22.78,10.58 -36.26,10.58 -13.29,0 -23.69,-3.65 -31.23,-10.92 -5.65,-5.5 -8.5,-11.91 -8.5,-19.13 0,-8.06 2.7,-14.85 8.12,-20.31 3.27,-3.33 7.16,-5.84 11.62,-7.5 3.09,-1.24 5.65,-1.81 7.74,-1.81zm121.19 32.28c-3.99,5.56 -7.5,10.02 -10.59,13.34 -5.36,5.93 -10.68,8.93 -15.95,8.93 -4.56,0 -8.07,-2.05 -10.54,-6.13 -1.75,-2.85 -2.65,-6.26 -2.65,-10.25 0,-11.96 5.07,-25.68 15.28,-41.11 4.75,-7.21 9.4,-12.77 14.05,-16.52 3.61,-3.08 6.6,-4.6 8.93,-4.6 1.32,0 2.51,0.57 3.65,1.66 0.9,1.04 1.38,2.04 1.38,3.09 0,1.75 -1.71,4.6 -5.13,8.59 -7.69,9.16 -13.58,17.61 -17.56,25.3 -4.61,8.97 -6.93,16.04 -6.93,21.12 0,1.28 0.28,2.28 0.9,2.99 0.61,0.71 1.47,1.05 2.56,1.05 4.75,0 11.3,-6.79 19.75,-20.32 4.36,-7.07 8.12,-14.86 11.25,-23.4 1.66,-4.61 3.84,-8.74 6.55,-12.35 2.56,-3.27 5.12,-4.89 7.59,-4.89 1.38,0 2.61,0.62 3.71,1.81 1.18,1.28 1.8,2.75 1.8,4.32 0,3.32 -3.18,10.82 -9.59,22.5 -4.37,8.07 -6.55,14.76 -6.55,20.17 0,5.75 1.52,10.64 4.56,14.72 0.85,1.14 3.42,2.89 7.69,5.32 2.04,1.23 3.03,3.17 3.03,5.88 0,1.71 -0.71,3.13 -2.13,4.37 -1.47,1.18 -3.18,1.8 -5.22,1.8 -4.66,0 -8.83,-1.9 -12.63,-5.69 -3.42,-3.33 -5.6,-8.17 -6.55,-14.43 -0.19,-0.86 -0.38,-3.28 -0.66,-7.27zm71.72 -62.04c1.57,0 2.85,0.62 3.89,1.8 0.72,1.05 1.1,2.05 1.1,3.09 0,1.66 -1.33,4.42 -4.04,8.35 -9.59,14.91 -16.47,27.2 -20.51,36.84 -4.36,9.92 -8.21,20.13 -11.53,30.62 -1.47,4.65 -3.8,6.97 -6.93,6.97 -1.85,0 -3.32,-0.76 -4.46,-2.23 -1,-1.18 -1.52,-2.51 -1.52,-3.89 0,-2.8 2.94,-12.05 8.87,-27.82 4.65,-12.43 12.11,-26.2 22.5,-41.2 3.33,-4.94 5.84,-8.21 7.5,-9.87 1.66,-1.76 3.37,-2.66 5.13,-2.66zm26.35 -51.55c4.17,0 6.26,2.14 6.26,6.41 0,3.89 -2.04,8.21 -6.12,12.96 -3.9,4.56 -7.64,6.83 -11.25,6.83 -1.76,0 -3.18,-0.66 -4.32,-1.94 -1.09,-1.24 -1.66,-2.71 -1.66,-4.47 0,-4.46 2.47,-9.2 7.35,-14.23 3.61,-3.71 6.89,-5.56 9.74,-5.56zm25.82 45.38c-6.03,9.35 -11.68,19.89 -16.81,31.47 -7.36,16.57 -11.06,28.91 -11.06,37.07 0,2.33 0.48,4.09 1.48,5.32 0.95,1.19 2.41,1.81 4.36,1.81 4.65,0 10.3,-4.37 16.9,-13.06 4.18,-5.41 7.88,-10.77 11.16,-16.14 1.75,-3.08 3.7,-4.6 5.74,-4.6 1.23,0 2.28,0.42 3.08,1.23 0.76,0.86 1.14,1.71 1.14,2.52 0,3.42 -4.51,11.11 -13.53,22.97 -10.77,14.2 -20.6,21.32 -29.52,21.32 -4.75,0 -8.69,-2.19 -11.82,-6.55 -1.94,-2.76 -2.94,-6.74 -2.94,-11.82 0,-11.26 3.27,-24.31 9.82,-39.26 1.57,-3.7 5.99,-12.68 13.15,-26.87 -2.51,0.71 -4.46,1.05 -5.79,1.05 -1.99,0 -3.7,-0.48 -5.22,-1.38 -2.09,-1.33 -3.13,-2.94 -3.13,-4.89 0,-2.32 1.33,-4.18 4.03,-5.55 0.76,-0.38 4.23,-0.95 10.35,-1.81 2.23,-0.38 5.51,-1.23 9.78,-2.61 3.27,-5.88 8.64,-13.81 16.04,-23.83 4.08,-5.55 6.93,-9.21 8.5,-10.87 2.23,-2.32 4.18,-3.46 5.84,-3.46 1.23,0 2.42,0.66 3.61,1.94 1.14,1.19 1.71,2.42 1.71,3.61 0,2.42 -2.62,7.17 -7.79,14.29 -3.47,4.65 -5.98,8.4 -7.69,11.25 10.16,-2.71 17.47,-4.03 21.84,-4.03 5.03,0 7.54,2.13 7.54,6.4 0,2.14 -0.85,3.71 -2.61,4.75 -0.95,0.52 -3.32,1 -7.21,1.38 -1.57,-0.1 -8.5,1.66 -20.84,5.17 -3.42,1.05 -6.79,2.09 -10.11,3.18zm54.92 6.17c1.57,0 2.85,0.62 3.89,1.8 0.71,1.05 1.09,2.05 1.09,3.09 0,1.66 -1.32,4.42 -4.03,8.35 -9.59,14.91 -16.47,27.2 -20.51,36.84 -4.36,9.92 -8.21,20.13 -11.53,30.62 -1.48,4.65 -3.8,6.97 -6.93,6.97 -1.86,0 -3.33,-0.76 -4.46,-2.23 -1,-1.18 -1.52,-2.51 -1.52,-3.89 0,-2.8 2.94,-12.05 8.87,-27.82 4.65,-12.43 12.11,-26.2 22.5,-41.2 3.33,-4.94 5.84,-8.21 7.5,-9.87 1.66,-1.76 3.37,-2.66 5.13,-2.66zm26.34 -51.55c4.18,0 6.27,2.14 6.27,6.41 0,3.89 -2.04,8.21 -6.13,12.96 -3.89,4.56 -7.64,6.83 -11.24,6.83 -1.76,0 -3.19,-0.66 -4.32,-1.94 -1.09,-1.24 -1.66,-2.71 -1.66,-4.47 0,-4.46 2.46,-9.2 7.35,-14.23 3.61,-3.71 6.89,-5.56 9.73,-5.56zm0.71 87.34c1.19,-1.09 2.38,-2.23 3.47,-3.32 19.32,-18.99 32.23,-28.48 38.78,-28.48 3.61,0 5.41,1.99 5.41,5.98 0,2.8 -1.61,6.08 -4.84,9.87 -17.66,20.7 -26.48,38.88 -26.48,54.64 0,5.12 1.37,9.97 4.17,14.62 1.28,2.14 1.95,3.79 1.95,5.03 0,1.09 -0.57,2.14 -1.66,3.18 -1.24,1.28 -2.66,1.95 -4.32,1.95 -3.75,0 -6.93,-2.42 -9.55,-7.22 -2.46,-4.56 -3.7,-10.06 -3.7,-16.56 0,-12.54 4.65,-26.4 13.96,-41.59 -12.53,8.07 -24.21,22.36 -35.03,42.82 -2.81,4.94 -5.79,7.41 -8.93,7.41 -1.61,0 -2.89,-0.57 -3.94,-1.67 -1.28,-1.33 -1.94,-2.99 -1.94,-5.03 0,-4.98 5.69,-18.13 17.13,-39.35 6.13,-11.49 10.97,-19.84 14.48,-25.01 3.56,-5.09 6.55,-7.65 9.07,-7.65 1.23,0 2.37,0.57 3.51,1.66 1.28,1.33 1.95,2.81 1.95,4.47 0,2.04 -1.33,4.98 -4.04,8.78 -3.89,5.69 -7.02,10.82 -9.45,15.47zm88.77 35.84c9.92,-7.21 17.32,-13.81 22.12,-19.74 7.17,-8.64 12.2,-15.62 15.14,-20.99 1.52,-2.42 3.04,-3.65 4.6,-3.65 2.24,0 3.38,1.09 3.38,3.23 0,2.46 -1.81,6.64 -5.32,12.48 -10.92,17.8 -27.29,33.32 -49.13,46.52 -10.2,21.31 -17.7,35.79 -22.55,43.38 -12.77,20.04 -24.82,30.05 -36.12,30.05 -5.93,0 -10.16,-2.32 -12.77,-6.93 -1.47,-2.7 -2.23,-5.79 -2.23,-9.21 0,-14.52 9.35,-28.48 28.05,-41.86 2.95,-2.23 14.96,-9.16 35.98,-20.84 4.09,-8.69 7.31,-15.48 9.54,-20.41 -9.77,10.15 -17.84,15.23 -24.25,15.23 -3.99,0 -7.12,-2.04 -9.35,-6.12 -1.38,-2.66 -2.09,-5.46 -2.09,-8.31 0,-6.64 2.75,-15.23 8.21,-25.68 7.79,-15.09 17.14,-27 28.1,-35.79 9.16,-7.31 17.28,-10.96 24.35,-10.96 3.61,0 6.74,1.33 9.31,4.03 1.75,1.76 2.65,4.37 2.65,7.79 0,4.27 -1.42,9.54 -4.32,15.85 2.14,2.04 3.19,3.61 3.19,4.61 0,0.66 -0.43,1.56 -1.38,2.79 -2.52,3.42 -6.55,9.88 -12.15,19.32 -4.89,8.26 -9.21,16.67 -12.96,25.21zm-0.43 -32.14c-1.33,-1.37 -1.94,-2.37 -1.94,-2.89 0,-0.86 0.66,-1.9 2.04,-3.23 4.51,-4.41 8.16,-9.06 10.91,-13.91 2.24,-3.79 3.38,-6.74 3.38,-8.87 0,-2.52 -1.14,-3.75 -3.47,-3.75 -3.99,0 -9.68,3.8 -17.09,11.39 -8.78,8.97 -15.66,19.03 -20.55,30.19 -2.42,5.55 -3.61,9.83 -3.61,12.77 0,1.66 0.43,2.94 1.23,3.75 0.81,0.85 1.9,1.28 3.28,1.28 3.27,0 7.88,-3.37 13.77,-10.02 3.7,-4.27 6.88,-8.45 9.49,-12.53 1.8,-2.7 2.66,-4.08 2.56,-4.18zm-26.91 60.72c-12.2,5.22 -22.98,13.05 -32.33,23.64 -4.32,4.89 -7.4,10.06 -9.26,15.52 -0.57,1.66 -0.85,3.08 -0.85,4.18 0,1.18 0.28,2.27 0.85,3.17 1,1.67 2.43,2.52 4.28,2.52 5.74,0 12.44,-6.17 20.12,-18.46 6.65,-10.64 12.39,-20.84 17.19,-30.57zm236.43 -110.22c1.57,13.48 2.9,23.07 3.9,28.81 1.14,6.41 3.46,17.23 6.97,32.47 9.59,-14.15 15.38,-26.49 17.33,-37.08 -2.42,-0.19 -3.99,-0.33 -4.75,-0.42 -5.08,-0.19 -8.35,-0.76 -9.87,-1.8 -1.85,-1.29 -2.75,-3.24 -2.75,-5.7 0,-2.28 0.61,-4.09 1.8,-5.46 1.47,-1.66 3.42,-2.52 5.84,-2.52 0.85,0 3.09,0.15 6.83,0.43 0.72,0.1 1.43,0.14 2.05,0.14 6.69,0 17.56,-1.14 32.56,-3.42 4.94,-0.76 9.78,-1.14 14.62,-1.14 8.78,0 13.2,3.09 13.2,9.21 0,3.99 -1.67,5.99 -4.99,5.99 -1.57,0 -4.18,-0.38 -7.78,-1.1 -1.85,-0.47 -3.94,-0.71 -6.22,-0.71 -4.65,0 -14.24,1.47 -28.86,4.47 -1.57,7.87 -4.56,16.89 -8.88,27 -4.94,11.02 -9.97,19.47 -15.05,25.3 2.8,4.94 5.13,8.45 7.07,10.59 3.99,4.46 9.26,6.69 15.72,6.69 3.18,0 6.41,-0.43 9.78,-1.28 3.7,-0.86 6.55,-1.28 8.59,-1.28 3.42,0 5.17,1.71 5.17,5.13 0,3.08 -2.13,5.64 -6.41,7.78 -6.31,3.18 -13.19,4.75 -20.74,4.75 -12.25,0 -22.4,-6.46 -30.47,-19.37 -12.35,11.58 -24.31,17.37 -35.84,17.37 -13.1,0 -23.5,-5.36 -31.24,-16.14 -5.27,-7.31 -7.92,-16.23 -7.92,-26.67 0,-13.1 3.89,-25.16 11.67,-36.32 8.07,-11.29 22.6,-21.45 43.53,-30.42 -0.71,-6.03 -1.09,-11.3 -1.09,-15.72 0,-10.1 1.42,-18.98 4.32,-26.58 2.66,-7.31 7.31,-13.48 13.91,-18.46 6.03,-4.56 12.48,-6.84 19.46,-6.84 5.74,0 10.49,2.04 14.29,6.13 4.08,4.27 6.12,9.4 6.12,15.33 0,8.07 -2.85,16.37 -8.49,24.92 -4.28,6.22 -11.82,12.72 -22.65,19.51 -1.33,0.76 -4.89,2.89 -10.73,6.41zm-0.99 -10.73c7.4,-4.18 13.29,-8.4 17.65,-12.67 7.12,-7.12 10.69,-14.05 10.69,-20.7 0,-3.42 -0.95,-6.36 -2.81,-8.78 -1.75,-2.33 -3.93,-3.47 -6.64,-3.47 -5.65,0 -10.58,3.28 -14.76,9.87 -3.23,5.18 -4.85,13.63 -4.85,25.3 0,1.76 0.24,5.27 0.72,10.45zm-13.25 17.7c-8.3,3.89 -15.33,8.45 -21.03,13.63 -12.76,11.48 -19.12,23.92 -19.12,37.26 0,8.16 2.18,15.14 6.55,20.89 4.65,6.21 11.34,9.3 20.07,9.3 9.03,0 18.18,-4.75 27.49,-14.19 -3.51,-8.36 -6.6,-19.56 -9.26,-33.66 -1.8,-13.15 -3.37,-24.25 -4.7,-33.23zm201.36 32.8c5.04,0 7.55,2 7.55,6.08 0,3.09 -2.32,5.41 -7.03,6.98 -8.02,2.85 -12.05,8.02 -12.05,15.43 0,5.93 2.33,10.58 6.98,13.9 3.98,2.8 9.02,4.18 15.14,4.18 12.29,0 23.02,-3.56 32.18,-10.73 5.75,-4.56 8.64,-10.3 8.64,-17.23 0,-4.27 -0.85,-8.12 -2.51,-11.58 -1.76,-3.51 -4.47,-7.98 -8.07,-13.34 -5.56,-8.35 -10.26,-15.95 -14.06,-22.83 -4.27,-7.6 -6.4,-15.09 -6.4,-22.41 0,-17.37 8.59,-33.6 25.72,-48.7 9.07,-7.88 19.09,-14.29 30.01,-19.22 9.06,-3.99 17.8,-5.98 26.25,-5.98 5.45,0 10.1,1.42 13.9,4.27 4.61,3.42 6.93,8.07 6.93,13.95 0,9.31 -4.98,19.32 -15,30.05 -9.44,10.11 -20.5,18.37 -33.08,24.78 -6.31,3.13 -11.06,4.7 -14.34,4.7 -2.14,0 -4.03,-0.86 -5.69,-2.61 -1.1,-1.24 -1.67,-2.57 -1.67,-4.04 0,-3.46 3.04,-6.22 9.17,-8.35 11.2,-3.99 21.12,-9.59 29.71,-16.85 11.11,-9.26 16.66,-17.37 16.66,-24.3 0,-2.71 -1.09,-4.89 -3.32,-6.56 -1.76,-1.28 -3.84,-1.94 -6.27,-1.94 -6.36,0 -14.33,2.47 -23.97,7.36 -12.91,6.59 -23.12,15.09 -30.52,25.48 -6.46,9.03 -9.68,17.76 -9.68,26.3 0,6.22 1.71,12.63 5.17,19.23 2.85,5.26 6.55,11.25 11.01,17.94 4.28,6.41 7.88,12.34 10.83,17.8 3.46,6.51 5.17,12.58 5.17,18.23 0,10.96 -6.27,20.65 -18.84,29.1 -10.68,7.07 -22.79,10.58 -36.27,10.58 -13.29,0 -23.69,-3.65 -31.23,-10.92 -5.65,-5.5 -8.5,-11.91 -8.5,-19.13 0,-8.06 2.7,-14.85 8.12,-20.31 3.27,-3.33 7.16,-5.84 11.63,-7.5 3.08,-1.24 5.65,-1.81 7.73,-1.81zm116.39 -3.18c6.89,-7.12 13.77,-13.15 20.7,-17.94 8.83,-6.12 15.14,-9.21 18.99,-9.21 1.56,0 3.13,0.67 4.6,1.95 1.66,1.47 2.52,3.18 2.52,5.12 0,2.52 -2,6.41 -5.98,11.68 -7.69,10.16 -13.53,19.42 -17.52,27.72 -3.51,7.22 -5.27,12.11 -5.27,14.72 0,2.51 1.19,3.75 3.61,3.75 5.03,0 13.43,-8.93 25.3,-26.72 2.42,-3.62 4.6,-5.42 6.55,-5.42 1.94,0 2.94,1.14 2.94,3.37 0,3.61 -3.56,10.49 -10.58,20.7 -6.12,8.92 -12.53,15.76 -19.18,20.55 -4.75,3.28 -9.02,4.89 -12.82,4.89 -4.03,0 -6.88,-1.71 -8.68,-5.12 -1.09,-2.14 -1.66,-4.51 -1.66,-7.08 0,-8.26 2.94,-17.65 8.78,-28.19 1.42,-2.52 5.6,-9.64 12.58,-21.41 -18.99,9.54 -35.04,30.19 -48.14,61.9 -1.23,3.6 -3.08,5.41 -5.65,5.41 -1.75,0 -3.22,-0.62 -4.31,-1.81 -1.14,-1.28 -1.71,-2.89 -1.71,-4.74 0,-3.04 2.94,-11.73 8.87,-26.02 11.02,-26.48 21.32,-48.93 30.86,-67.31 9.54,-18.56 20.12,-37.78 31.75,-57.72 2.81,-4.79 4.99,-8.07 6.55,-9.73 1.62,-1.66 3.28,-2.51 5.08,-2.51 1.66,0 3.14,0.9 4.32,2.66 0.95,1.28 1.43,2.79 1.43,4.46 0,2.61 -1.47,6.07 -4.47,10.44 -9.96,15.47 -19.93,32.47 -29.85,51.03 -10.64,19.84 -17.19,33.37 -19.61,40.58zm91.52 -26.58c1.57,0 2.85,0.62 3.89,1.8 0.72,1.05 1.1,2.05 1.1,3.09 0,1.66 -1.33,4.42 -4.04,8.35 -9.59,14.91 -16.47,27.2 -20.5,36.84 -4.37,9.92 -8.22,20.13 -11.54,30.62 -1.47,4.65 -3.8,6.97 -6.93,6.97 -1.85,0 -3.32,-0.76 -4.46,-2.23 -1,-1.18 -1.52,-2.51 -1.52,-3.89 0,-2.8 2.94,-12.05 8.87,-27.82 4.66,-12.43 12.11,-26.2 22.51,-41.2 3.32,-4.94 5.83,-8.21 7.5,-9.87 1.65,-1.76 3.36,-2.66 5.12,-2.66zm26.35 -51.55c4.17,0 6.26,2.14 6.26,6.41 0,3.89 -2.04,8.21 -6.12,12.96 -3.9,4.56 -7.64,6.83 -11.25,6.83 -1.76,0 -3.18,-0.66 -4.32,-1.94 -1.09,-1.24 -1.66,-2.71 -1.66,-4.47 0,-4.46 2.47,-9.2 7.35,-14.23 3.61,-3.71 6.89,-5.56 9.74,-5.56zm0.14 89.29c9.06,-9.73 19.56,-19.22 31.42,-28.53 4.27,-3.32 8.83,-6.46 13.63,-9.35 2.42,-1.42 3.93,-2.14 4.6,-2.14 1.38,0 2.75,1 4.18,3.04 0.8,1.09 1.23,2.14 1.23,3.04 0,1.66 -1.75,3.94 -5.27,6.79 -9.4,7.5 -14.1,13.15 -14.1,16.94 0,2.14 1.19,3.18 3.61,3.18 3.94,0 10.78,-3.27 20.41,-9.87 1.66,-1.09 3.04,-1.66 4.13,-1.66 0.76,0 1.47,0.38 2.23,1.14 0.81,0.8 1.24,1.71 1.24,2.61 0,2.8 -3.9,7.07 -11.63,12.86 -8.12,6.13 -15.85,9.21 -23.17,9.21 -2.94,0 -5.64,-0.8 -8.16,-2.37 -2.14,-1.28 -3.18,-3.61 -3.18,-6.93 0,-2.33 0.99,-4.99 2.94,-7.93 -7.36,5.17 -15.99,14.1 -25.96,26.72 -5.75,7.79 -11.44,17.38 -17.14,28.82 -2.14,4.27 -4.79,6.41 -7.93,6.41 -3.46,0 -5.17,-1.62 -5.17,-4.85 0,-3.18 2.7,-11.63 8.07,-25.34 8.02,-20.37 16.38,-36.17 25.11,-47.37 5.36,-6.98 9.87,-10.45 13.48,-10.45 1.23,0 2.33,0.38 3.37,1.09 1.19,0.95 1.81,2.09 1.81,3.52 0,1.37 -0.95,3.32 -2.81,5.84 -0.33,0.42 -2.8,3.55 -7.36,9.3 -4.17,5.45 -7.35,10.92 -9.58,16.28zm112.74 -43.91c-6.03,9.35 -11.68,19.89 -16.81,31.47 -7.36,16.57 -11.06,28.91 -11.06,37.07 0,2.33 0.48,4.09 1.47,5.32 0.95,1.19 2.42,1.81 4.37,1.81 4.65,0 10.3,-4.37 16.9,-13.06 4.18,-5.41 7.88,-10.77 11.15,-16.14 1.76,-3.08 3.71,-4.6 5.75,-4.6 1.23,0 2.28,0.42 3.08,1.23 0.76,0.86 1.14,1.71 1.14,2.52 0,3.42 -4.51,11.11 -13.53,22.97 -10.77,14.2 -20.6,21.32 -29.52,21.32 -4.75,0 -8.69,-2.19 -11.82,-6.55 -1.94,-2.76 -2.94,-6.74 -2.94,-11.82 0,-11.26 3.27,-24.31 9.82,-39.26 1.57,-3.7 5.98,-12.68 13.15,-26.87 -2.51,0.71 -4.46,1.05 -5.79,1.05 -1.99,0 -3.7,-0.48 -5.22,-1.38 -2.09,-1.33 -3.13,-2.94 -3.13,-4.89 0,-2.32 1.32,-4.18 4.03,-5.55 0.76,-0.38 4.22,-0.95 10.35,-1.81 2.23,-0.38 5.5,-1.23 9.78,-2.61 3.27,-5.88 8.64,-13.81 16.04,-23.83 4.08,-5.55 6.93,-9.21 8.5,-10.87 2.23,-2.32 4.17,-3.46 5.84,-3.46 1.23,0 2.42,0.66 3.61,1.94 1.13,1.19 1.7,2.42 1.7,3.61 0,2.42 -2.61,7.17 -7.78,14.29 -3.47,4.65 -5.98,8.4 -7.69,11.25 10.16,-2.71 17.47,-4.03 21.83,-4.03 5.04,0 7.55,2.13 7.55,6.4 0,2.14 -0.86,3.71 -2.61,4.75 -0.95,0.52 -3.32,1 -7.21,1.38 -1.57,-0.1 -8.5,1.66 -20.84,5.17 -3.42,1.05 -6.79,2.09 -10.11,3.18zm54.92 6.17c1.57,0 2.85,0.62 3.89,1.8 0.71,1.05 1.09,2.05 1.09,3.09 0,1.66 -1.33,4.42 -4.03,8.35 -9.59,14.91 -16.48,27.2 -20.51,36.84 -4.36,9.92 -8.21,20.13 -11.53,30.62 -1.48,4.65 -3.8,6.97 -6.93,6.97 -1.86,0 -3.33,-0.76 -4.47,-2.23 -0.99,-1.18 -1.51,-2.51 -1.51,-3.89 0,-2.8 2.94,-12.05 8.87,-27.82 4.65,-12.43 12.11,-26.2 22.5,-41.2 3.32,-4.94 5.84,-8.21 7.5,-9.87 1.66,-1.76 3.37,-2.66 5.13,-2.66zm26.34 -51.55c4.18,0 6.27,2.14 6.27,6.41 0,3.89 -2.04,8.21 -6.13,12.96 -3.89,4.56 -7.64,6.83 -11.24,6.83 -1.76,0 -3.19,-0.66 -4.33,-1.94 -1.09,-1.24 -1.66,-2.71 -1.66,-4.47 0,-4.46 2.47,-9.2 7.36,-14.23 3.61,-3.71 6.88,-5.56 9.73,-5.56zm0.71 87.34c1.19,-1.09 2.38,-2.23 3.47,-3.32 19.32,-18.99 32.23,-28.48 38.78,-28.48 3.61,0 5.41,1.99 5.41,5.98 0,2.8 -1.61,6.08 -4.84,9.87 -17.66,20.7 -26.49,38.88 -26.49,54.64 0,5.12 1.38,9.97 4.18,14.62 1.28,2.14 1.95,3.79 1.95,5.03 0,1.09 -0.57,2.14 -1.66,3.18 -1.24,1.28 -2.66,1.95 -4.33,1.95 -3.74,0 -6.93,-2.42 -9.54,-7.22 -2.47,-4.56 -3.7,-10.06 -3.7,-16.56 0,-12.54 4.65,-26.4 13.96,-41.59 -12.54,8.07 -24.21,22.36 -35.03,42.82 -2.81,4.94 -5.8,7.41 -8.93,7.41 -1.61,0 -2.89,-0.57 -3.94,-1.67 -1.28,-1.33 -1.94,-2.99 -1.94,-5.03 0,-4.98 5.69,-18.13 17.13,-39.35 6.12,-11.49 10.97,-19.84 14.48,-25.01 3.56,-5.09 6.55,-7.65 9.07,-7.65 1.23,0 2.37,0.57 3.51,1.66 1.28,1.33 1.95,2.81 1.95,4.47 0,2.04 -1.33,4.98 -4.04,8.78 -3.89,5.69 -7.03,10.82 -9.45,15.47z"/>
   <path class="fil0 str0" d="M2349.32 2002.35c9.92,-7.21 17.32,-13.81 22.12,-19.74 7.17,-8.64 12.2,-15.62 15.14,-20.99 1.52,-2.42 3.04,-3.65 4.6,-3.65 2.24,0 3.38,1.09 3.38,3.23 0,2.46 -1.81,6.64 -5.32,12.48 -10.92,17.8 -27.3,33.32 -49.13,46.52 -10.21,21.31 -17.71,35.79 -22.55,43.38 -12.77,20.04 -24.82,30.05 -36.12,30.05 -5.93,0 -10.16,-2.32 -12.77,-6.93 -1.47,-2.7 -2.23,-5.79 -2.23,-9.21 0,-14.52 9.35,-28.48 28.05,-41.86 2.94,-2.23 14.95,-9.16 35.98,-20.84 4.09,-8.69 7.31,-15.48 9.54,-20.41 -9.78,10.15 -17.84,15.23 -24.25,15.23 -3.99,0 -7.12,-2.04 -9.35,-6.12 -1.38,-2.66 -2.09,-5.46 -2.09,-8.31 0,-6.64 2.75,-15.23 8.21,-25.68 7.79,-15.09 17.14,-27 28.1,-35.79 9.16,-7.31 17.28,-10.96 24.35,-10.96 3.61,0 6.74,1.33 9.31,4.03 1.75,1.76 2.65,4.37 2.65,7.79 0,4.27 -1.42,9.54 -4.32,15.85 2.14,2.04 3.18,3.61 3.18,4.61 0,0.66 -0.42,1.56 -1.37,2.79 -2.52,3.42 -6.55,9.88 -12.15,19.32 -4.89,8.26 -9.21,16.67 -12.96,25.21zm-0.43 -32.14c-1.33,-1.37 -1.94,-2.37 -1.94,-2.89 0,-0.86 0.66,-1.9 2.04,-3.23 4.51,-4.41 8.16,-9.06 10.91,-13.91 2.23,-3.79 3.37,-6.74 3.37,-8.87 0,-2.52 -1.14,-3.75 -3.46,-3.75 -3.99,0 -9.69,3.8 -17.09,11.39 -8.78,8.97 -15.66,19.03 -20.55,30.19 -2.42,5.55 -3.61,9.83 -3.61,12.77 0,1.66 0.43,2.94 1.23,3.75 0.81,0.85 1.9,1.28 3.28,1.28 3.27,0 7.88,-3.37 13.76,-10.02 3.71,-4.27 6.88,-8.45 9.5,-12.53 1.8,-2.7 2.66,-4.08 2.56,-4.18zm-26.91 60.72c-12.2,5.22 -22.98,13.05 -32.33,23.64 -4.32,4.89 -7.4,10.06 -9.26,15.52 -0.57,1.66 -0.85,3.08 -0.85,4.18 0,1.18 0.28,2.27 0.85,3.17 1,1.67 2.43,2.52 4.27,2.52 5.75,0 12.44,-6.17 20.13,-18.46 6.65,-10.64 12.39,-20.84 17.19,-30.57z"/>
  </g>
 </g>
</svg>
