<?xml version="1.0" encoding="UTF-8"?>
<!DOCTYPE svg PUBLIC "-//W3C//DTD SVG 1.1//EN" "http://www.w3.org/Graphics/SVG/1.1/DTD/svg11.dtd">
<!-- Creator: CorelDRAW 2021 (64-Bit) -->
<svg xmlns="http://www.w3.org/2000/svg" xml:space="preserve" width="33.867mm" height="33.867mm" version="1.1" style="shape-rendering:geometricPrecision; text-rendering:geometricPrecision; image-rendering:optimizeQuality; fill-rule:evenodd; clip-rule:evenodd"
viewBox="0 0 3386.7 3386.7"
 xmlns:xlink="http://www.w3.org/1999/xlink"
 xmlns:xodm="http://www.corel.com/coreldraw/odm/2003">
 <defs>
  <style type="text/css">
   <![CDATA[
    .fil0 {fill:#2B2A29}
    .fil1 {fill:#D0599C}
    .fil5 {fill:#C83C79}
    .fil2 {fill:#AC3358}
    .fil4 {fill:#7B2626}
    .fil3 {fill:#832D67}
    .fil6 {fill:#2B2A29;fill-rule:nonzero}
   ]]>
  </style>
 </defs>
 <g id="Layer_x0020_1">
  <metadata id="CorelCorpID_0Corel-Layer"/>
  <g id="_2024489224528">
   <path class="fil0" d="M619.06 1532.84l0 285.48 -32.58 0 0 -10.03c0,-194.49 0,-388.98 0,-583.48l0 -10.03 334.76 0 0 32.58 -302.18 0 0 252.07 267.12 0 0 33.41 -267.12 0zm1603.72 219.95l0 -538.85 32.57 0 0 604.38 -28.64 0 -370.36 -535.49 0 535.49 -33.41 0 0 -605.93 27.21 1.91 372.63 538.49zm447.36 -130.63l-281.99 0 -79.31 196.16 -35.7 0 242.5 -612.72 27.82 0 242.5 612.72 -35.68 0 -80.14 -196.16zm-1504.98 -106.02c0,-27.89 3.76,-55.54 11.23,-82.41 7.2,-25.94 17.72,-50.79 31.33,-74.03 13.34,-22.77 29.48,-43.78 47.96,-62.61 18.57,-18.93 39.34,-35.42 62.12,-49.02 23.03,-13.77 47.85,-24.15 73.67,-31.39 26.63,-7.46 54.08,-11.08 81.73,-11.08 27.78,0 55.37,3.58 82.14,11.08 25.82,7.24 50.61,17.65 73.66,31.38 22.88,13.62 43.85,30.04 62.53,49.02 18.52,18.81 34.63,39.85 47.97,62.62 13.61,23.24 24.14,48.09 31.34,74.03 7.47,26.87 11.22,54.52 11.22,82.41 0,27.83 -3.75,55.44 -11.22,82.26 -7.23,25.97 -17.71,50.9 -31.34,74.16 -13.35,22.79 -29.46,43.78 -47.95,62.63 -18.67,19 -39.67,35.4 -62.55,49.02 -23.05,13.73 -47.84,24.14 -73.66,31.37 -26.77,7.51 -54.36,11.09 -82.14,11.09 -27.65,0 -55.1,-3.62 -81.73,-11.09 -25.82,-7.23 -50.64,-17.61 -73.67,-31.37 -22.78,-13.6 -43.59,-30.08 -62.12,-49.04 -18.47,-18.88 -34.61,-39.81 -47.96,-62.61 -13.62,-23.26 -24.1,-48.19 -31.33,-74.16 -7.47,-26.82 -11.23,-54.43 -11.23,-82.26zm-112.65 -269.61l0 539.21 68.85 0 0 32.58 -170.29 0 0 -32.58 68.85 0 0 -539.21 -68.85 0 0 -31.75 170.29 0 0 31.75 -68.85 0zm1476.65 14.33l-127.29 328.72 255.33 0 -128.04 -328.72zm-781.35 255.28c0,-24.84 -3.19,-49.49 -9.79,-73.44 -6.35,-22.97 -15.38,-45.17 -27.38,-65.78 -11.82,-20.29 -26.06,-39.04 -42.57,-55.74 -16.74,-16.95 -35.4,-31.74 -55.88,-43.93 -20.64,-12.27 -42.82,-21.63 -65.91,-28.18 -23.82,-6.75 -48.34,-10.05 -73.08,-10.05 -24.63,0 -49.11,3.29 -72.8,10.05 -22.95,6.55 -45,15.9 -65.48,28.17 -20.42,12.22 -39.05,27.02 -55.77,43.94 -16.53,16.72 -30.79,35.52 -42.72,55.78 -12.14,20.62 -21.45,42.77 -27.93,65.79 -6.73,23.91 -9.92,48.57 -9.92,73.39 0,24.79 3.19,49.49 9.92,73.37 6.49,23.03 15.79,45.18 27.93,65.8 11.93,20.26 26.2,39.05 42.72,55.77 16.74,16.94 35.39,31.68 55.79,43.96 20.45,12.31 42.52,21.62 65.46,28.15 23.69,6.76 48.17,10.06 72.8,10.06 24.75,0 49.26,-3.3 73.08,-10.06 23.07,-6.54 45.29,-15.84 65.9,-28.16 20.46,-12.24 39.14,-26.99 55.89,-43.95 16.51,-16.7 30.75,-35.44 42.57,-55.72 12,-20.62 21.03,-42.81 27.38,-65.8 6.59,-23.92 9.79,-48.62 9.79,-73.42z"/>
   <path class="fil1" d="M1360.28 1707.43c61.99,-50.75 99.36,-125.14 119.16,-203.19 4.13,-16.26 7.39,-36.64 11.84,-51.19 1.9,69.24 -35.03,183.24 -69.61,243.01 -19.06,32.94 -40.96,60.56 -68.94,83.72 -12.3,10.18 -35.04,32.88 -51.28,23.97 -13.77,-7.57 -21.76,-29.35 -25.32,-50.44 40.51,-15.55 54.7,-21.78 84.15,-45.88z"/>
   <path class="fil2" d="M1440.76 1899.07c27.79,-18.61 68.98,-66.74 92.3,-171.94 21.74,-98.07 2.8,-198.06 -13.08,-276.06 48.12,133.53 61.51,243.88 64.05,330.43 0.63,21.72 0.58,41.95 0.23,60.67 -2.12,112.67 -103.36,59.63 -143.5,56.9z"/>
   <path class="fil3" d="M1271.39 1664.42c-12.57,-5.47 -17.67,-24.21 -13.77,-43.02 42.38,-9.49 66.3,-11.8 103.58,-39.8 17.43,-13.1 9.08,-5.01 25.67,-20.91 33.46,-32.07 56.16,-69.87 74.29,-113.14 -6.28,32.97 -37.18,89.11 -57.78,118.4 -25.16,35.79 -28.78,35.48 -56.24,61.25 -9.94,9.33 -61,43.63 -75.75,37.22z"/>
   <path class="fil2" d="M1538.22 1439.07c50.05,62.69 122.5,218.27 142.31,276.2 12.26,35.85 -4.7,68.83 -22.18,72.65 -3.12,-117.63 -60.85,-247.48 -120.13,-348.85z"/>
   <path class="fil2" d="M1525.22 1422.29c-9.08,9.15 -54.56,45.77 -72.39,33.35 -4.69,-3.28 -6.11,-10.96 -6.67,-13.53 20.07,14.03 53.8,-3.57 79.06,-19.82z"/>
   <path class="fil4" d="M1270.44 1294.41c-23.74,-7.75 -41.51,-25.01 -71.21,-39.19 -11.74,-5.61 -25.36,-10.75 -41.95,-14.62 5.5,-1.78 11.92,-0.96 18.02,0 10.43,1.63 19.31,3.87 27.16,6.46 26.8,8.84 41.37,21.71 63.39,27.97 4.61,1.31 9.72,2.16 14.81,3.01 21.93,3.62 27,3.83 63.95,-2.06 5.8,-0.92 11.81,-1.74 17.62,-2.34 28.4,-2.97 65.39,-0.65 85.94,21.44 -27.87,-10.13 -34.57,-11.57 -64.56,-10.45 -6.6,0.61 -15.04,2.84 -23.89,4.92 -45,10.54 -63.86,13.14 -89.28,4.86z"/>
   <path class="fil4" d="M1345.33 1264.52c-14.97,-2.25 -30.66,-7.45 -40.33,-13.74 -9.03,-5.88 -15.38,-11.92 -25.3,-17.98 -10.4,-6.35 -22.21,-10.2 -31.35,-15.47 26.23,3.57 38.61,13.21 58.35,24.4 38.99,22.09 67.98,6.23 106.13,18.37 11.75,3.73 20.99,10.52 28.72,15.92 -43.64,-21.02 -58.47,-5.8 -96.22,-11.5z"/>
   <path class="fil4" d="M1317.37 1457.67c-24.99,-2.45 -41.47,-22.97 -78.45,-30.39l-15.47 -4.07c-0.54,-0.21 -1.47,-0.59 -2.14,-0.99 48.87,-4.57 61.39,14.85 101.58,15.89 23.88,0.61 37.33,-11.37 59.45,-20.09 16.38,-6.46 33.22,-11.01 47.87,-9.12 11.93,1.53 21.34,7.79 29.29,11.89 -40.49,-8.92 -56.52,2.52 -74.93,14.69 -17.5,11.56 -45.74,24.29 -67.2,22.19z"/>
   <path class="fil5" d="M1523.69 1419.7c-23.08,10.61 -37.8,18.83 -61.08,-0.96 38.27,-10.56 23.48,-40.66 12.69,-60.96 -13.4,-25.22 -32.2,-50.09 -15.22,-68.42 65.36,20.18 17.23,35.26 27.36,51.7 17.53,28.48 33.43,66.7 36.25,78.64z"/>
   <path class="fil3" d="M1471.27 1236.76c11.34,0 20.54,9.2 20.54,20.54 0,11.34 -9.2,20.53 -20.54,20.53 -11.33,0 -20.53,-9.19 -20.53,-20.53 0,-11.34 9.2,-20.54 20.53,-20.54z"/>
   <path class="fil6" d="M594.28 2104.83l28.44 -2.56c1.28,11.5 4.48,20.77 9.59,28.44 4.79,7.35 12.46,13.1 23,17.9 10.23,4.47 22.06,6.71 34.83,6.71 11.83,0 21.74,-1.6 30.69,-5.12 8.94,-3.51 15.33,-8.3 19.81,-14.38 4.16,-6.07 6.39,-12.46 6.39,-19.49 0,-7.03 -1.92,-13.42 -6.07,-18.85 -4.16,-5.12 -11.19,-9.59 -20.77,-13.42 -6.07,-2.24 -19.82,-6.08 -40.59,-11.19 -21.09,-5.11 -35.79,-9.59 -44.41,-14.06 -10.88,-5.75 -18.86,-13.1 -24.29,-21.41 -5.44,-8.63 -7.99,-18.21 -7.99,-28.44 0,-11.82 3.19,-22.69 9.9,-32.6 6.4,-9.9 15.98,-17.57 28.77,-23 12.46,-5.12 26.52,-7.67 41.86,-7.67 16.93,0 31.95,2.55 44.73,8.3 13.1,5.44 23.01,13.43 30.04,23.97 7.04,10.55 10.55,22.69 11.19,36.11l-29.08 2.24c-1.6,-14.38 -6.71,-25.25 -15.66,-32.59 -9.27,-7.68 -22.37,-11.19 -39.94,-11.19 -18.54,0 -31.64,3.19 -40.27,9.91 -8.31,6.71 -12.46,15.02 -12.46,24.28 0,8.31 2.87,15.02 8.95,20.45 5.75,5.12 21.09,10.87 45.69,16.3 24.61,5.43 41.54,10.55 50.49,14.7 13.43,6.07 23.33,13.74 29.4,23.01 6.39,9.59 9.59,20.45 9.59,32.59 0,12.15 -3.52,23.65 -10.55,34.2 -6.71,10.86 -16.94,19.17 -29.72,25.24 -13.1,6.07 -27.8,8.95 -44.1,8.95 -20.76,0 -38.02,-2.88 -52.08,-8.95 -14.06,-6.07 -24.93,-15.33 -32.92,-27.48 -7.99,-11.82 -12.14,-25.56 -12.46,-40.9zm213.15 0l28.44 -2.56c1.27,11.5 4.47,20.77 9.59,28.44 4.78,7.35 12.46,13.1 23,17.9 10.23,4.47 22.05,6.71 34.84,6.71 11.82,0 21.73,-1.6 30.68,-5.12 8.94,-3.51 15.33,-8.3 19.81,-14.38 4.15,-6.07 6.39,-12.46 6.39,-19.49 0,-7.03 -1.92,-13.42 -6.08,-18.85 -4.15,-5.12 -11.18,-9.59 -20.76,-13.42 -6.08,-2.24 -19.82,-6.08 -40.59,-11.19 -21.09,-5.11 -35.79,-9.59 -44.42,-14.06 -10.86,-5.75 -18.85,-13.1 -24.29,-21.41 -5.43,-8.63 -7.99,-18.21 -7.99,-28.44 0,-11.82 3.2,-22.69 9.91,-32.6 6.39,-9.9 15.98,-17.57 28.76,-23 12.46,-5.12 26.53,-7.67 41.86,-7.67 16.94,0 31.96,2.55 44.74,8.3 13.11,5.44 23.01,13.43 30.04,23.97 7.03,10.55 10.55,22.69 11.18,36.11l-29.08 2.24c-1.6,-14.38 -6.71,-25.25 -15.66,-32.59 -9.26,-7.68 -22.36,-11.19 -39.94,-11.19 -18.53,0 -31.64,3.19 -40.26,9.91 -8.31,6.71 -12.47,15.02 -12.47,24.28 0,8.31 2.88,15.02 8.95,20.45 5.75,5.12 21.09,10.87 45.7,16.3 24.61,5.43 41.54,10.55 50.49,14.7 13.42,6.07 23.32,13.74 29.4,23.01 6.39,9.59 9.58,20.45 9.58,32.59 0,12.15 -3.51,23.65 -10.54,34.2 -6.71,10.86 -16.94,19.17 -29.72,25.24 -13.1,6.07 -27.8,8.95 -44.1,8.95 -20.77,0 -38.02,-2.88 -52.08,-8.95 -14.07,-6.07 -24.93,-15.33 -32.92,-27.48 -7.99,-11.82 -12.14,-25.56 -12.46,-40.9zm310.61 73.5l0 -228.81 30.36 0 0 201.96 112.49 0 0 26.85 -142.85 0zm184.07 0l0 -228.81 30.36 0 0 228.81 -30.36 0zm85.32 0l0 -228.81 154.34 0 0 26.84 -123.98 0 0 71.27 107.37 0 0 26.84 -107.37 0 0 103.86 -30.36 0zm194.29 0l0 -228.81 165.21 0 0 26.84 -134.85 0 0 70.31 126.22 0 0 26.84 -126.22 0 0 77.97 140.29 0 0 26.85 -170.65 0zm202.6 -73.5l28.45 -2.56c1.27,11.5 4.47,20.77 9.58,28.44 4.8,7.35 12.46,13.1 23.01,17.9 10.23,4.47 22.05,6.71 34.83,6.71 11.83,0 21.73,-1.6 30.68,-5.12 8.95,-3.51 15.34,-8.3 19.81,-14.38 4.16,-6.07 6.39,-12.46 6.39,-19.49 0,-7.03 -1.91,-13.42 -6.07,-18.85 -4.16,-5.12 -11.18,-9.59 -20.77,-13.42 -6.07,-2.24 -19.81,-6.08 -40.59,-11.19 -21.08,-5.11 -35.79,-9.59 -44.41,-14.06 -10.87,-5.75 -18.85,-13.1 -24.29,-21.41 -5.43,-8.63 -7.99,-18.21 -7.99,-28.44 0,-11.82 3.2,-22.69 9.91,-32.6 6.39,-9.9 15.98,-17.57 28.76,-23 12.46,-5.12 26.52,-7.67 41.86,-7.67 16.94,0 31.96,2.55 44.74,8.3 13.1,5.44 23.01,13.43 30.04,23.97 7.03,10.55 10.54,22.69 11.19,36.11l-29.09 2.24c-1.6,-14.38 -6.7,-25.25 -15.65,-32.59 -9.27,-7.68 -22.38,-11.19 -39.95,-11.19 -18.53,0 -31.63,3.19 -40.26,9.91 -8.31,6.71 -12.46,15.02 -12.46,24.28 0,8.31 2.87,15.02 8.94,20.45 5.76,5.12 21.09,10.87 45.7,16.3 24.6,5.43 41.54,10.55 50.49,14.7 13.42,6.07 23.33,13.74 29.4,23.01 6.39,9.59 9.58,20.45 9.58,32.59 0,12.15 -3.52,23.65 -10.54,34.2 -6.71,10.86 -16.94,19.17 -29.72,25.24 -13.11,6.07 -27.8,8.95 -44.1,8.95 -20.77,0 -38.03,-2.88 -52.09,-8.95 -14.06,-6.07 -24.93,-15.33 -32.91,-27.48 -7.99,-11.82 -12.14,-25.56 -12.47,-40.9zm281.21 73.5l0 -201.97 -75.41 0 0 -26.84 181.2 0 0 26.84 -75.42 0 0 201.97 -30.37 0zm201.65 0l0 -96.83 -88.2 -131.98 36.43 0 45.05 69.35c8.64,12.78 16.3,25.56 23.65,38.34 6.71,-11.82 15.34,-25.24 25.25,-40.26l44.1 -67.43 35.47 0 -91.39 131.98 0 96.83 -30.36 0zm147.32 0l0 -228.81 30.35 0 0 201.96 112.49 0 0 26.85 -142.84 0zm179.59 0l0 -228.81 165.21 0 0 26.84 -134.85 0 0 70.31 126.23 0 0 26.84 -126.23 0 0 77.97 140.28 0 0 26.85 -170.64 0z"/>
  </g>
 </g>
</svg>
