<?xml version="1.0" encoding="UTF-8"?>
<!DOCTYPE svg PUBLIC "-//W3C//DTD SVG 1.1//EN" "http://www.w3.org/Graphics/SVG/1.1/DTD/svg11.dtd">
<!-- Creator: CorelDRAW 2021 (64-Bit) -->
<svg xmlns="http://www.w3.org/2000/svg" xml:space="preserve" width="33.867mm" height="33.867mm" version="1.1" style="shape-rendering:geometricPrecision; text-rendering:geometricPrecision; image-rendering:optimizeQuality; fill-rule:evenodd; clip-rule:evenodd"
viewBox="0 0 3386.7 3386.7"
 xmlns:xlink="http://www.w3.org/1999/xlink"
 xmlns:xodm="http://www.corel.com/coreldraw/odm/2003">
 <defs>
  <style type="text/css">
   <![CDATA[
    .fil1 {fill:#6C6C71}
    .fil0 {fill:#CCCCCC}
    .fil2 {fill:#6C6C71;fill-rule:nonzero}
   ]]>
  </style>
 </defs>
 <g id="Layer_x0020_1">
  <metadata id="CorelCorpID_0Corel-Layer"/>
  <ellipse class="fil0" cx="1693.35" cy="1693.35" rx="1641.67" ry="1611.82"/>
  <g id="_2024150162640">
   <g>
    <path class="fil1" d="M1918.91 1271.89l-123.24 0.49c-2.97,5.5 -8.36,28.45 -10.09,36.34l123.79 0.01c-3.27,18.11 -47.39,180.19 -53.32,202.57 -17.97,67.82 -35.12,134.63 -53.41,202.09 -7.94,29.33 -20.34,69.73 -35.16,92.54 -42.82,65.91 -165.79,15.2 -209.69,31.65 -32.87,12.32 -31.15,56.91 14.38,69.11 32.66,8.75 81.16,0.51 110.57,-9.43 86.21,-29.15 155.29,-101.84 193.23,-190.04 30.68,-71.37 62.06,-211.27 85.48,-297.7 4.25,-15.67 22.76,-93.72 27.01,-100.45l138.12 -0.36c1.71,-5.31 8.21,-30.72 7.93,-36.29l-136.17 -0.05 32.56 -128.43c12.43,-41.1 31.03,-82.37 55.83,-104.47 35.41,-31.56 74.43,-12.3 129.79,-4.29 27.79,4.02 49.74,0.24 58.17,-20.68 10.07,-24.99 -11.05,-42.49 -28.66,-48.41 -40.18,-13.51 -99.14,3.33 -131.45,18.92 -41.73,20.13 -65.35,37.3 -94.23,66.11 -46.55,46.44 -74.87,126.15 -92.34,188.68 -2.21,7.89 -6.06,26.44 -9.1,32.09z"/>
    <path class="fil1" d="M1486.26 1272.29l-124.35 0.11 -9.74 36.52 123.86 -0.2c-2.38,14.81 -47.67,180.95 -53.17,202.31 -17.34,67.45 -35.35,135.22 -53.43,202.07 -8.42,31.13 -19.21,66.77 -35.09,92.63 -40.33,65.68 -167.11,15.77 -209.55,31.75 -50.25,18.91 -21.97,107.43 124.99,59.63 89.32,-29.05 156.24,-106.17 193.01,-190.14 30.75,-70.23 61.89,-212.44 85.48,-297.68 4.61,-16.64 22.45,-93.13 27.3,-100.38l137.95 -0.2 8.55 -36.19 -136.69 -0.14c1.74,-13.01 27.24,-110.83 32.36,-128.64 9.24,-32.12 31.23,-84.51 55.89,-104.48 38.87,-31.46 69.17,-12.33 130.04,-4.04 73.16,9.96 76.47,-53.15 29.32,-68.98 -55.51,-18.63 -137.87,16.15 -182.11,47.5 -8.34,5.91 -14.57,11.18 -22.32,17.35 -7.86,6.25 -14.16,13.75 -21.04,20.14 -51.64,48 -85.69,156.32 -101.26,221.06z"/>
   </g>
   <path class="fil2" d="M699.21 2349.84c-5.23,36.29 -13.07,54.92 -30.73,54.92 -5.23,0 -9.48,-2.94 -9.48,-7.85l-5.88 0 -5.23 28.77c6.54,-0.98 32.03,-3.92 49.36,-24.19 18.31,-21.57 26.48,-52.96 30.73,-81.07l14.06 -96.11 33.67 0 3.27 -13.73 -34.98 0 2.62 -24.19c5.88,-53.29 17.32,-72.58 35.96,-72.58 7.52,0 13.07,3.6 14.05,15.37l5.89 0 3.92 -29.1c-3.92,-0.98 -8.17,-1.96 -12.75,-1.96 -10.79,0 -36.61,5.56 -52.96,32.36 -6.21,10.14 -16.35,27.14 -21.57,80.1l-22.89 0 -11.77 13.73 32.69 0 -17.98 125.53zm79.44 11.11l26.16 -5.22c5.22,-25.83 13.4,-58.52 26.8,-83.69 5.23,-9.81 24.19,-35.96 49.36,-35.96 4.91,0 9.81,0.98 13.08,2.28l5.23 -30.07c-1.96,-0.33 -3.92,-0.98 -7.19,-0.98 -32.37,0 -52.96,36.28 -60.48,49.36 -2.94,4.9 -3.92,7.19 -7.52,14.39l-0.65 -0.66c6.54,-21.25 10.79,-35.63 10.79,-44.46 0,-10.46 -3.6,-18.63 -14.06,-18.63 -22.23,0 -50.67,36.61 -51.98,38.57l6.86 5.89c12.1,-13.41 20.27,-22.23 27.46,-22.23 3.6,0 5.56,2.94 5.56,6.54 0,3.92 -1.63,10.46 -3.59,18.63l-25.83 106.24zm130.11 -42.49c-1.96,8.17 -2.94,13.4 -2.94,20.59 0,12.75 7.52,21.9 18.63,21.9 21.25,0 35.97,-24.51 44.14,-38.24l-7.52 -4.25 -5.89 9.48c-3.59,5.88 -9.15,13.4 -17,13.4 -3.92,0 -7.52,-2.94 -7.52,-9.15 0,-2.94 1.31,-8.5 2.29,-12.75l17 -74.86c1.64,-6.22 3.93,-15.7 3.93,-19.29 0,-9.81 -7.2,-17.98 -18.64,-17.98 -17.65,0 -37.59,24.84 -44.13,36.28l-1.31 2.29 7.19 5.23c5.89,-9.15 16.35,-24.19 25.5,-24.19 3.93,0 5.23,3.6 5.23,6.54 0,2.29 -1.63,9.15 -3.27,15.69l-15.69 69.31zm25.5 -158.23c0,6.21 4.25,12.42 11.77,12.42 12.09,0 20.92,-11.44 20.92,-23.21 0,-7.19 -4.25,-12.09 -12.75,-12.09 -11.11,0 -19.94,10.46 -19.94,22.88zm94.81 117.36c-3.27,0 -9.48,-0.33 -14.06,-0.98 4.58,-18.3 26.81,-58.19 51,-58.19 9.81,0 13.73,6.21 13.73,15.04 0,16.35 -17.98,44.13 -50.67,44.13zm50.99 34.98c-16.99,19.29 -33.99,34.65 -48.38,34.65 -17.65,0 -24.84,-19.61 -24.84,-36.61 0,-7.19 2.61,-18.3 4.57,-23.21 3.6,0.65 9.16,1.31 17.33,1.31 54.27,0 75.84,-29.75 75.84,-51.65 0,-16.02 -12.42,-29.75 -33.02,-29.75 -53.93,0 -89.57,72.25 -89.57,107.23 0,26.47 16.02,46.41 40.54,46.41 29.42,0 47.73,-20.92 65.71,-41.19l-8.18 -7.19zm40.21 -60.8c7.85,-9.81 17,-21.91 23.54,-21.91 3.6,0 5.23,3.27 5.23,7.52 0,9.16 -3.92,25.5 -5.88,33.68l-20.27 89.89 26.15 -5.22c5.56,-24.2 10.79,-49.69 30.08,-80.43 17.33,-27.78 37.26,-50.99 48.38,-50.99 4.58,0 8.5,3.27 8.5,8.17 0,12.75 -25.17,94.15 -25.17,111.8 0,9.16 6.21,15.37 17.98,15.37 17.65,0 34,-18.96 50.67,-39.23l-6.87 -6.21 -8.17 10.13c-9.15,11.44 -13.73,13.08 -18.63,13.08 -5.23,0 -7.52,-3.93 -7.52,-8.17 0,-16.02 23.86,-84.02 23.86,-101.35 0,-10.13 -6.21,-20.59 -23.86,-20.59 -31.38,0 -65.38,59.82 -74.21,76.82l-0.65 -0.65c3.92,-16.35 10.46,-41.19 10.46,-56.56 0,-13.73 -5.23,-19.61 -14.39,-19.61 -17.32,0 -42.5,33.67 -46.42,39.55l7.19 4.91zm343.26 -156.27l-53.94 12.43 -2.29 10.13c4.58,-1.31 10.14,-2.29 15.04,-2.29 4.9,0 9.16,3.27 9.16,8.5 0,2.94 -0.99,7.85 -2.29,14.06l-14.06 69.96c-3.6,-0.66 -6.87,-0.98 -10.46,-0.98 -32.04,0 -57.54,9.48 -90.56,51.32 -13.73,17.33 -24.84,44.79 -24.84,67.34 0,18.97 10.13,34.98 27.46,34.98 39.55,0 70.61,-55.24 82.38,-77.8l0.65 0.65 -3.92 16.35c-2.62,11.11 -6.54,30.4 -6.54,41.85 0,9.15 3.27,18.95 14.39,18.95 21.57,0 39.23,-25.49 50.02,-41.84l-8.5 -3.27c-5.56,8.17 -15.7,21.58 -22.56,21.58 -5.23,0 -7.2,-3.6 -7.2,-8.83 0,-3.27 0.66,-7.84 2.3,-15.36l45.76 -217.73zm-148.09 230.47c0,-31.05 18.63,-65.05 26.48,-75.84 15.69,-21.9 29.75,-30.4 58.52,-30.4 5.56,0 7.84,0.66 11.44,1.31 -2.29,25.82 -18.96,55.24 -28.44,70.28 -17.33,26.48 -36.94,53.94 -55.25,53.94 -9.15,0 -12.75,-10.13 -12.75,-19.29zm255.32 23.87c-5.23,36.29 -13.08,54.92 -30.73,54.92 -5.23,0 -9.48,-2.94 -9.48,-7.85l-5.88 0 -5.23 28.77c6.53,-0.98 32.03,-3.92 49.36,-24.19 18.3,-21.57 26.48,-52.96 30.73,-81.07l14.06 -96.11 33.67 0 3.27 -13.73 -34.98 0 2.61 -24.19c5.89,-53.29 17.33,-72.58 35.96,-72.58 7.52,0 13.08,3.6 14.06,15.37l5.89 0 3.92 -29.1c-3.92,-0.98 -8.18,-1.96 -12.75,-1.96 -10.79,0 -36.62,5.56 -52.96,32.36 -6.21,10.14 -16.35,27.14 -21.58,80.1l-22.88 0 -11.77 13.73 32.69 0 -17.98 125.53zm95.79 -26.81c0,-20.59 12.09,-50.01 24.19,-68.65 18.96,-29.42 37.92,-34.65 61.46,-34.65 5.55,0 8.5,0.66 11.44,1.31 -2.62,41.84 -56.89,124.22 -83.69,124.22 -11.44,0 -13.4,-12.09 -13.4,-22.23zm130.43 -7.19c-5.56,8.17 -15.69,21.58 -22.55,21.58 -4.58,0 -7.2,-3.27 -7.2,-7.85 0,-3.6 0.98,-10.13 2.29,-15.69l22.56 -106.57c-3.92,0.65 -7.85,0.98 -11.77,0.98 -5.56,0 -16.02,-0.98 -23.87,-0.98 -76.82,0 -116.05,82.05 -116.05,117.68 0,16.35 7.52,35.96 29.1,35.96 35.3,0 67.67,-51.65 81.4,-78.45l0.65 0.65 -5.23 22.23c-2.29,9.81 -5.23,26.48 -5.23,36.62 0,9.48 2.94,18.95 15.36,18.95 20.6,0 38.91,-26.8 49.04,-41.84l-8.5 -3.27zm23.87 -61.46c6.21,-6.21 18.96,-23.54 27.78,-23.54 2.95,0 4.91,1.97 4.91,4.91 0,8.83 -23.54,84.67 -23.54,102.32 0,12.43 7.19,22.88 22.89,22.88 44.13,0 116.7,-97.41 116.7,-137.95 0,-8.5 -5.23,-15.69 -14.38,-15.69 -8.83,0 -20.27,7.19 -31.38,16.34l3.26 7.52c3.27,-2.61 7.2,-5.56 11.12,-5.56 3.92,0 6.54,4.25 6.54,10.47 0,18.63 -43.81,107.88 -78.13,107.88 -6.54,0 -11.77,-2.95 -11.77,-11.12 0,-16.34 23.53,-86.96 23.53,-108.53 0,-10.79 -3.92,-17 -12.09,-17 -13.73,0 -29.1,16.02 -44.46,33.01l-7.85 8.83 6.87 5.23zm153.65 50.67c0,35.31 23.53,55.9 49.03,55.9 50.35,0 84.67,-60.47 84.67,-104.28 0,-32.04 -21.25,-49.36 -51,-49.36 -38.57,0 -82.7,45.11 -82.7,97.74zm107.55 -55.9c0,21.58 -18.64,102 -57.54,102 -16.01,0 -23.86,-11.77 -23.86,-39.56 0,-36.61 21.58,-94.48 55.25,-94.48 11.11,0 26.15,4.26 26.15,32.04zm49.04 4.9c9.15,-11.44 18.96,-23.21 26.48,-23.21 4.9,0 6.86,3.6 6.86,7.2 0,1.63 -0.33,3.92 -0.98,5.88l-19.61 76.5c-1.64,6.54 -2.95,13.4 -2.95,17.98 0,17.33 11.77,22.55 21.58,22.55 31.71,0 56.23,-41.19 77.48,-76.16l0.65 0.65 -1.63 6.21c-6.21,23.21 -9.15,36.94 -9.15,51.33 0,11.76 3.26,17.97 13.73,17.97 15.03,0 33.67,-20.26 47.07,-39.55l-7.19 -4.9 -12.1 14.38c-4.25,4.9 -7.19,7.85 -10.79,7.85 -4.57,0 -5.88,-5.24 -5.88,-9.48 0,-5.24 1.96,-18.64 8.82,-43.81l21.25 -78.13 -26.8 4.25c-7.52,30.07 -12.42,48.71 -31.06,76.82 -7.84,11.77 -35.96,55.58 -51.98,55.58 -5.23,0 -9.15,-3.27 -9.15,-9.16 0,-3.59 1.31,-8.83 2.61,-14.38l17 -65.39c3.27,-12.74 6.54,-24.19 6.54,-32.03 0,-9.15 -5.23,-15.69 -16.02,-15.69 -21.9,0 -42.82,29.42 -51.97,40.53l7.19 6.21zm185.03 106.9l26.15 -5.22c5.23,-25.83 13.4,-58.52 26.81,-83.69 5.23,-9.81 24.19,-35.96 49.36,-35.96 4.91,0 9.81,0.98 13.08,2.28l5.23 -30.07c-1.96,-0.33 -3.93,-0.98 -7.19,-0.98 -32.37,0 -52.96,36.28 -60.48,49.36 -2.94,4.9 -3.92,7.19 -7.52,14.39l-0.66 -0.66c6.54,-21.25 10.79,-35.63 10.79,-44.46 0,-10.46 -3.59,-18.63 -14.05,-18.63 -22.24,0 -50.68,36.61 -51.98,38.57l6.86 5.89c12.1,-13.41 20.27,-22.23 27.46,-22.23 3.6,0 5.56,2.94 5.56,6.54 0,3.92 -1.63,10.46 -3.6,18.63l-25.82 106.24zm130.11 -42.49c-1.96,8.17 -2.94,13.4 -2.94,20.59 0,12.75 7.52,21.9 18.63,21.9 21.25,0 35.96,-24.51 44.13,-38.24l-7.52 -4.25 -5.88 9.48c-3.6,5.88 -9.16,13.4 -17,13.4 -3.92,0 -7.52,-2.94 -7.52,-9.15 0,-2.94 1.31,-8.5 2.29,-12.75l17 -74.86c1.63,-6.22 3.92,-15.7 3.92,-19.29 0,-9.81 -7.19,-17.98 -18.63,-17.98 -17.66,0 -37.6,24.84 -44.13,36.28l-1.31 2.29 7.19 5.23c5.88,-9.15 16.35,-24.19 25.5,-24.19 3.92,0 5.23,3.6 5.23,6.54 0,2.29 -1.64,9.15 -3.27,15.69l-15.69 69.31zm25.5 -158.23c0,6.21 4.25,12.42 11.76,12.42 12.1,0 20.93,-11.44 20.93,-23.21 0,-7.19 -4.25,-12.09 -12.75,-12.09 -11.12,0 -19.94,10.46 -19.94,22.88zm63.75 151.36c-2.29,11.12 -4.25,18.96 -4.25,28.12 0,13.07 6.86,21.24 18.3,21.24 18.31,0 36.62,-20.92 48.06,-41.19l-8.17 -4.24c-4.58,7.51 -16.35,27.13 -26.16,27.13 -4.25,0 -7.19,-3.27 -7.19,-8.17 0,-2.62 1.31,-8.51 4.25,-21.58l19.29 -88.59 35.96 0 1.63 -13.73 -34.32 0 7.19 -36.29 -25.82 6.54 -6.22 29.75 -23.21 0 -12.42 13.73 32.36 0 -19.28 87.28zm127.82 -34c-3.27,0 -9.48,-0.33 -14.06,-0.98 4.58,-18.3 26.81,-58.19 51,-58.19 9.81,0 13.73,6.21 13.73,15.04 0,16.35 -17.98,44.13 -50.67,44.13zm51 34.98c-17,19.29 -34,34.65 -48.39,34.65 -17.65,0 -24.84,-19.61 -24.84,-36.61 0,-7.19 2.61,-18.3 4.57,-23.21 3.6,0.65 9.16,1.31 17.33,1.31 54.27,0 75.84,-29.75 75.84,-51.65 0,-16.02 -12.42,-29.75 -33.02,-29.75 -53.93,0 -89.57,72.25 -89.57,107.23 0,26.47 16.02,46.41 40.54,46.41 29.42,0 47.73,-20.92 65.71,-41.19l-8.17 -7.19z"/>
  </g>
 </g>
</svg>
