<?xml version="1.0" encoding="UTF-8"?>
<!DOCTYPE svg PUBLIC "-//W3C//DTD SVG 1.1//EN" "http://www.w3.org/Graphics/SVG/1.1/DTD/svg11.dtd">
<!-- Creator: CorelDRAW 2021 (64-Bit) -->
<svg xmlns="http://www.w3.org/2000/svg" xml:space="preserve" width="33.867mm" height="33.867mm" version="1.1" style="shape-rendering:geometricPrecision; text-rendering:geometricPrecision; image-rendering:optimizeQuality; fill-rule:evenodd; clip-rule:evenodd"
viewBox="0 0 3386.7 3386.7"
 xmlns:xlink="http://www.w3.org/1999/xlink"
 xmlns:xodm="http://www.corel.com/coreldraw/odm/2003">
 <defs>
  <style type="text/css">
   <![CDATA[
    .str1 {stroke:#FFED00;stroke-width:10.58;stroke-miterlimit:22.9256}
    .str0 {stroke:black;stroke-width:20;stroke-linecap:round;stroke-linejoin:round;stroke-miterlimit:22.9256}
    .fil2 {fill:#FEFEFE}
    .fil3 {fill:#FFED00}
    .fil4 {fill:#E31E24}
    .fil6 {fill:#1C1B17}
    .fil0 {fill:black}
    .fil1 {fill:#FEFEFE;fill-rule:nonzero}
    .fil5 {fill:#F17E00;fill-rule:nonzero}
   ]]>
  </style>
 </defs>
 <g id="Layer_x0020_1">
  <metadata id="CorelCorpID_0Corel-Layer"/>
  <ellipse class="fil0 str0" cx="1693.35" cy="1693.35" rx="1641.67" ry="1611.82"/>
  <g id="_2061667272064">
   <path class="fil1" d="M1315.31 2044.06l19.42 0 0 -91.76 34.76 0 0 -17.85 -88.94 0 0 17.85 34.76 0 0 91.76zm70.78 0l18.95 0 0 -46.66c0,-12.84 7.68,-20.52 18.64,-20.52 11.27,0 17.69,7.36 17.69,20.2l0 46.98 18.95 0 0 -52.61c0,-19.26 -10.81,-31.79 -29.44,-31.79 -12.84,0 -20.51,6.73 -25.84,14.56l0 -44.47 -18.95 0 0 114.31zm134.99 1.88c15.19,0 26,-6.11 33.82,-15.5l-11.11 -9.87c-6.58,6.42 -13.16,9.87 -22.4,9.87 -12.22,0 -21.77,-7.52 -23.8,-20.98l60.76 0c0.16,-1.89 0.31,-3.61 0.31,-5.33 0,-23.8 -13.31,-44.47 -39.62,-44.47 -23.64,0 -40.4,19.41 -40.4,43.06l0 0.31c0,25.53 18.48,42.91 42.44,42.91zm-23.65 -49.01c1.72,-12.84 9.87,-21.77 21.45,-21.77 12.54,0 19.74,9.55 20.99,21.77l-42.44 0zm129.5 47.13l19.27 0 0 -44.63 55.27 0 0 -17.54 -55.27 0 0 -29.91 62.32 0 0 -17.53 -81.59 0 0 109.61zm165.99 0l0 -49.01c0,-22.08 -11.9,-34.92 -36.32,-34.92 -13.47,0 -22.39,2.81 -31.48,6.89l5.17 15.19c7.52,-3.14 14.41,-5.17 23.65,-5.17 13.15,0 20.35,6.26 20.35,17.7l0 1.56c-6.42,-2.03 -12.84,-3.44 -22.86,-3.44 -19.26,0 -33.51,8.76 -33.51,27.09l0 0.31c0,16.6 13.78,25.52 29.44,25.52 12.52,0 21.14,-5.16 26.77,-11.9l0 10.18 18.79 0zm-18.32 -29.91c0,10.34 -9.39,17.39 -21.92,17.39 -8.92,0 -15.97,-4.39 -15.97,-12.22l0 -0.31c0,-7.99 7.05,-12.84 18.95,-12.84 7.36,0 14.09,1.4 18.94,3.29l0 4.69zm69.22 31.48c17.23,0 30.69,-8.61 30.69,-26l0 -0.31c0,-14.88 -13.62,-20.36 -25.68,-24.12 -9.71,-3.13 -18.64,-5.63 -18.64,-11.58l0 -0.32c0,-4.85 4.23,-8.3 11.59,-8.3 6.89,0 15.35,2.98 23.34,7.83l7.51 -13.46c-8.76,-5.8 -20.04,-9.4 -30.38,-9.4 -16.44,0 -29.43,9.55 -29.43,25.21l0 0.31c0,15.82 13.62,20.83 25.83,24.28 9.71,2.97 18.48,5.17 18.48,11.59l0 0.31c0,5.48 -4.7,8.93 -12.84,8.93 -8.46,0 -18.17,-3.45 -27.09,-10.18l-8.45 12.84c10.33,8.14 23.32,12.37 35.07,12.37zm49.95 -1.57l18.95 0 0 -46.66c0,-12.84 7.68,-20.52 18.64,-20.52 11.27,0 17.69,7.36 17.69,20.2l0 46.98 18.95 0 0 -52.61c0,-19.26 -10.8,-31.79 -29.44,-31.79 -12.84,0 -20.52,6.73 -25.84,14.56l0 -44.47 -18.95 0 0 114.31zm97.41 -95.36l20.36 0 0 -18.01 -20.36 0 0 18.01zm0.78 95.36l18.95 0 0 -82.68 -18.95 0 0 82.68zm83 1.88c25.52,0 44.31,-19.57 44.31,-43.06l0 -0.32c0,-23.64 -18.64,-42.9 -44,-42.9 -25.37,0 -44.17,19.57 -44.17,43.22l0 0.31c0,23.49 18.64,42.75 43.86,42.75zm0.31 -16.44c-14.72,0 -25.22,-12.22 -25.22,-26.62l0 -0.32c0,-14.4 9.72,-26.3 24.91,-26.3 14.87,0 25.36,12.06 25.36,26.62l0 0.31c0,14.25 -9.71,26.31 -25.05,26.31zm63.26 14.56l18.95 0 0 -46.66c0,-12.84 7.67,-20.52 18.63,-20.52 11.28,0 17.7,7.36 17.7,20.2l0 46.98 18.95 0 0 -52.61c0,-19.26 -10.8,-31.79 -29.45,-31.79 -12.83,0 -20.51,6.73 -25.83,14.56l0 -12.84 -18.95 0 0 82.68zm146.26 0l19.26 0 0 -35.23 21.77 0c24.12,0 43.84,-12.84 43.84,-37.43l0 -0.31c0,-22.08 -16.12,-36.64 -41.65,-36.64l-43.22 0 0 109.61zm19.26 -52.61l0 -39.47 22.4 0c14.4,0 23.64,6.74 23.64,19.58l0 0.31c0,11.43 -9.08,19.58 -23.64,19.58l-22.4 0zm112.44 54.33c12.83,0 20.51,-6.73 25.83,-14.56l0 12.84 18.95 0 0 -82.68 -18.95 0 0 46.66c0,12.85 -7.67,20.52 -18.63,20.52 -11.27,0 -17.69,-7.36 -17.69,-20.2l0 -46.98 -18.95 0 0 52.62c0,19.26 10.8,31.78 29.44,31.78zm68.59 -1.72l18.94 0 0 -46.51c0,-12.84 7.2,-20.67 17.69,-20.67 10.5,0 16.77,7.21 16.77,20.05l0 47.13 18.94 0 0 -46.66c0,-13.31 7.36,-20.52 17.69,-20.52 10.66,0 16.76,7.05 16.76,20.2l0 46.98 18.95 0 0 -52.77c0,-20.2 -10.96,-31.63 -28.97,-31.63 -12.53,0 -21.3,5.79 -28.03,14.56 -4.38,-8.77 -12.68,-14.56 -24.58,-14.56 -12.69,0 -19.89,6.89 -25.22,14.25l0 -12.53 -18.94 0 0 82.68zm148.76 25.06l18.94 0 0 -37.9c5.8,7.67 14.41,14.56 28.04,14.56 19.73,0 38.52,-15.5 38.52,-42.9l0 -0.32c0,-27.4 -18.95,-42.9 -38.52,-42.9 -13.31,0 -21.92,6.89 -28.04,15.5l0 -13.78 -18.94 0 0 107.74zm42.6 -39.78c-12.85,0 -24.13,-10.49 -24.13,-26.46l0 -0.32c0,-15.81 11.28,-26.46 24.13,-26.46 12.83,0 23.64,10.49 23.64,26.46l0 0.32c0,16.28 -10.65,26.46 -23.64,26.46z"/>
   <path class="fil2" d="M1693.3 1403.24l0 -112.75 -412.75 0 0 109.39c95.96,0 316.78,3.36 412.75,3.36zm-412.75 77.64l0 426.14 123.53 0 0 -312.74 289.22 0 0 -112.75c-93.47,0 -319.43,-0.65 -412.75,-0.65z"/>
   <path class="fil1" d="M1836.21 1289.77l0 326.78 0 63.91 40.94 0 31.37 0c57.45,0 65.35,-50.26 65.35,-95.51l0 -295.18 127.84 0 0 295.18c0,63.19 -5.2,106.13 -50.28,154.41 -36.07,38.62 -90.48,52.43 -142.91,53.86l0 0 -2.16 0 -29.21 0 -40.94 0 0 0 -112.75 0 0 0 0 -112.76 0 -63.91 0 -326.78 112.75 0z"/>
   <polygon class="fil1" points="2131.87,1793.22 2409.81,1793.22 2409.81,1680.46 2254.68,1680.46 2254.68,1595 2337.27,1595 2337.27,1481.52 2254.68,1481.52 2254.68,1403.24 2409.81,1403.24 2409.81,1290.49 2131.87,1290.49 "/>
   <polygon class="fil1" points="2442.13,1793.22 2719.35,1793.22 2719.35,1679.75 2569.96,1679.75 2569.96,1290.49 2442.13,1290.49 "/>
   <polygon class="fil3" points="1427.25,1865.88 2719.35,1865.88 2719.35,1892.72 1427.25,1892.72 "/>
   <path class="fil3" d="M816.11 2105.03c-38.53,-3.65 -41.05,-77.94 -23.99,-123.37 16.56,-44.12 47.54,-91.41 49.38,-76.47 5.08,41.03 40.11,13.7 40.11,-1.34 0,-12.03 -2.01,-50.12 13.36,-64.83 15.38,-14.7 32.9,-24.95 30.9,-11.58 -11.28,75.22 73.25,95.74 90.38,150.24 22.54,71.71 -69.38,160.82 -129.3,149.4 -14.03,-2.67 -6.68,-8.01 18.05,-16.03 24.73,-8.02 36.76,-33.42 36.76,-47.46 0,-14.03 -4.01,-34.08 -34.09,-58.82 -30.08,-24.72 -32.08,-47.45 -28.07,-55.47 4.01,-8.02 -14.7,-3.34 -15.37,13.37 -0.67,16.71 -0.67,44.78 -7.35,47.45 -6.69,2.68 -8.69,6.02 -16.71,-6.68 -5.83,-9.23 -16.87,9.29 -21.71,20.16 -5.32,11.94 -5.78,25.42 -4.6,37.92 2.26,23.93 10.53,44.29 2.25,43.51z"/>
   <path class="fil4" d="M960.69 2084.02c3.9,-3.65 7.59,-7.5 11,-11.45 18.46,-21.35 34.83,-53.36 25.78,-82.15 -0.77,-2.46 -1.75,-4.84 -2.89,-7.15 -8.23,-16.54 -26.53,-31.81 -39.94,-44.32 -13.22,-12.33 -25.97,-25.15 -35.31,-40.78 -6.45,-10.81 -10.67,-21.98 -12.72,-33.58 -3.01,6 -5.18,15.32 -6.03,19.85 -2.86,15.33 -3.24,32.04 -1.98,47.57 1.49,18.27 7.41,51.41 22.47,63.8 23.53,19.34 41.48,42.89 41.48,74.45 0,4.54 -0.68,9.18 -1.86,13.76z"/>
   <path class="fil4" d="M806.02 2091.45c-0.04,-0.21 -0.08,-0.4 -0.12,-0.57 -1.58,-8.28 -3.11,-16.48 -3.9,-24.88 -1.4,-14.78 -0.57,-29.98 5.55,-43.72 1.65,-3.72 3.54,-7.39 5.62,-10.89 2.37,-4.02 5.14,-8.11 8.38,-11.48 4.43,-4.6 10.14,-7.99 16.79,-6.98 4.82,0.74 8.69,3.65 11.26,7.72 0.12,0.19 0.26,0.41 0.42,0.65 1.78,-9.5 2.06,-29.49 2.3,-35.7 0.34,-8.59 3.98,-16.63 10.52,-22.25 1.25,-1.08 2.65,-2.08 4.13,-2.94l-0.02 -0.57c-4.62,1.72 -9.56,2.41 -14.51,1.5 -8.79,-1.61 -14.47,-7.31 -18.03,-14.47 -2.37,3.46 -4.49,6.85 -5.6,8.65 -7.67,12.47 -14.51,25.86 -20.38,39.28 -2.06,4.72 -4.02,9.49 -5.83,14.31 -4.46,11.89 -7.17,24.93 -8.46,37.53 -1.46,14.31 -1.31,30.25 2.12,44.28 1.61,6.62 4.6,15.11 9.76,20.53z"/>
   <path class="fil5" d="M1112.33 1748.49c-0.38,-0.12 -0.61,-0.18 -0.61,-0.18 0,0 -29.93,-189.97 -32.54,-207.43 -2.6,-17.46 -16.49,-188.49 -14.36,-237.81 0,0 -158.4,34.73 -287.26,5.05 0.09,1.23 0.14,2.4 0.14,4.67 0,1.19 -0.96,1.85 -2.15,1.88 -0.01,0 -0.03,0 -0.05,0 -1.21,0.03 -2.18,-0.71 -2.18,-1.91 0.01,-3.78 -0.21,-5.72 -0.25,-6.02 -9.04,-2.19 -17.93,-4.56 -26.59,-7.45 0,0 -7.81,53.96 -17.11,127.61 0.41,-0.57 0.86,-1.12 1.28,-1.69 0.7,-0.99 2.07,-1.18 3.05,-0.49 0.98,0.71 1.21,2.09 0.5,3.07 -1.26,1.77 -2.57,3.54 -3.91,5.33 -0.42,0.56 -1.05,0.87 -1.7,0.89 -0.04,0 -0.05,0.64 -0.08,0.64 -12.48,99.51 -27.28,229.75 -29.4,316.39 0.21,-0.72 0.45,-1.48 0.74,-2.28 5.9,-16.25 22.9,-20.14 19.27,-42.78 -0.67,-4.2 -1.77,-13.47 3.21,-16.18 -4.41,13.52 -1.77,7.64 -0.74,18.61 1.82,19.56 -5.72,24.56 -9.13,35.75 -2.12,6.92 -0.05,13.29 7.43,13.37 6.57,0.07 9.33,-5.88 9.26,-12.69 -0.03,-3.34 -1.95,-11.15 -2.3,-18.11 -0.33,-6.64 0.06,-13.74 1.77,-20.41 1.47,-5.75 4.03,-12.01 7.48,-15.73 -2.4,7.84 -6.07,13.37 -6.55,24.52 -0.27,6.07 4.05,16.65 6.14,21.55 2.9,6.84 7.32,12.82 4.4,22.52 -2.73,9.04 -8.66,10.65 -15.06,14.37 -3.49,2.02 -16.14,8.75 -11.26,16.59 1.96,3.15 6.8,3.9 11.02,2.99 4.38,-0.94 6.39,-2.15 9.86,-4.28 14.4,-8.83 16.51,-27.49 14.33,-42.91 -1.23,-8.63 -3.42,-14.29 -5.37,-21.98 -9.61,-38.12 21.58,-50.86 38.67,-76.04 16.44,-24.19 -5.35,-37.86 5.76,-59.97 1.85,-3.69 3.63,-7.25 3.2,-11.87 3.9,3.14 -2.71,12.58 -3.79,16.15 -1.82,6 -0.02,12.54 1.6,17.49 3.48,10.65 6.78,21.81 3.93,34.88 -4.61,21.18 -33.13,41.96 -22.4,61.09 5.47,9.76 20.69,7.7 25.3,-5.92 5.15,-15.21 -8.58,-27.47 6.88,-52.83 8.4,-13.79 19.33,-16.84 17.85,-36.27 -0.18,-2.4 -1.12,-6.67 -1.07,-8.34 0.13,0.59 1.43,3.12 1.83,4.43 5.29,17.23 -5.25,24.83 -11.32,37.22 -8.46,17.27 -1.03,30.52 3.06,45.22 2.37,8.53 3.08,14.45 0.53,24.42 -4.09,15.98 -13.74,23.85 -26.72,31.34 -5.22,3.02 -13.12,6.99 -16.47,11.84 -4.25,6.17 -3.85,17 -1.35,23.57 2.31,6.05 7.1,12.22 13.16,15.33 10.45,5.35 18.13,-1.82 13.31,-7.97 -3.75,-4.8 -11.09,-7.23 -13.32,-15.23 -0.96,-3.44 -0.71,-7.91 1.19,-11.55 1.79,-3.44 4.41,-5.14 7.43,-6.92 7.19,-4.27 9.85,-4.64 17.55,-10.46 3.9,-2.94 10.52,-10.22 13.48,-15.52 5.33,-9.55 2.45,-15.78 4.03,-25.75 0.26,0.41 0.21,0.25 0.41,0.9l0.44 3.63c0.15,1.69 0.27,3.07 0.33,4.77 0.13,3.4 0.01,7.1 -0.53,10.49 -4.18,26.25 -28.44,31.16 -25.56,42.36 2.03,7.85 20.6,9.29 25.23,-7.72 1.66,-6.06 2.07,-13.26 5.32,-18.3 1.01,-1.57 2.68,-3.43 4.62,-5.1 0.3,-17.21 1.25,-39 3.89,-55.33 5.09,-31.5 38.1,-117.33 44.4,-190.93l22.62 -0.53c0,0 40.09,53.14 64.57,239.98 1.91,4.66 2.43,10.36 3.78,15.3 4.63,17.01 23.2,15.57 25.23,7.71 2.89,-11.2 -21.38,-16.09 -25.56,-42.35 -0.54,-3.39 -0.66,-7.09 -0.52,-10.5 0.06,-1.69 0.17,-3.07 0.32,-4.76l0.45 -3.63c0.2,-0.65 0.15,-0.5 0.41,-0.91 1.57,9.98 -1.3,16.21 4.03,25.76 2.94,5.3 9.58,12.59 13.47,15.52 7.71,5.81 10.37,6.19 17.56,10.46 3.01,1.78 5.63,3.48 7.42,6.92 1.9,3.64 2.15,8.11 1.2,11.54 -2.24,8.01 -9.58,10.44 -13.33,15.24 -4.81,6.15 2.86,13.32 13.31,7.97 6.06,-3.11 10.85,-9.29 13.16,-15.34 2.51,-6.57 2.9,-17.39 -1.35,-23.57 -3.35,-4.84 -11.25,-8.82 -16.47,-11.83 -12.98,-7.49 -22.63,-15.37 -26.71,-31.34 -2.55,-9.97 -1.84,-15.89 0.53,-24.42 4.08,-14.7 11.52,-27.96 3.05,-45.22 -6.07,-12.39 -16.61,-19.99 -11.32,-37.22 0.41,-1.31 1.7,-3.84 1.83,-4.43 0.06,1.66 -0.89,5.94 -1.07,8.34 -1.47,19.43 9.46,22.48 17.86,36.27 15.46,25.36 1.72,37.62 6.87,52.83 4.61,13.62 19.83,15.68 25.31,5.91 10.72,-19.12 -17.8,-39.9 -22.41,-61.08 -2.84,-13.07 0.44,-24.23 3.93,-34.88 1.62,-4.96 3.42,-11.49 1.61,-17.5 -1.08,-3.56 -7.7,-13 -3.79,-16.14 -0.44,4.62 1.34,8.18 3.2,11.87 11.1,22.1 -10.69,35.78 5.75,59.97 17.1,25.17 48.28,37.92 38.67,76.03 -1.95,7.7 -4.14,13.36 -5.37,21.98 -2.18,15.43 -0.07,34.09 14.33,42.91 3.48,2.14 5.48,3.35 9.87,4.29 4.21,0.91 9.05,0.16 11.02,-2.99 4.87,-7.84 -7.78,-14.57 -11.27,-16.6 -6.4,-3.72 -12.33,-5.32 -15.06,-14.36 -2.92,-9.7 1.5,-15.69 4.41,-22.52 2.08,-4.9 6.4,-15.48 6.13,-21.56 -0.48,-11.14 -4.14,-16.67 -6.55,-24.51 3.45,3.72 6.01,9.98 7.48,15.73 1.71,6.67 2.11,13.77 1.77,20.41 -0.35,6.96 -2.27,14.77 -2.29,18.11 -0.07,6.81 2.68,12.76 9.26,12.69 7.47,-0.09 9.54,-6.46 7.43,-13.37 -3.42,-11.19 -10.96,-16.19 -9.14,-35.75 1.03,-10.97 3.67,-5.09 -0.74,-18.62 4.99,2.71 3.88,11.98 3.21,16.19 -3.63,22.64 13.37,26.53 19.27,42.77 2.71,7.48 1.66,11.04 1.94,18.6 0.22,6.03 0.78,13.63 7.03,14.2 3.22,0.29 5.68,-1.92 5.12,-5.15 -0.49,-2.75 -2.78,-4.32 -3.94,-6.71 -1.08,-2.21 -0.57,-4.49 0.33,-6.29zm-277.29 45.18c4.07,-6.24 5.99,-14.38 5.1,-24.96 -0.21,-2.58 -3.95,-7.33 -3.95,-7.33 0,0 -0.27,-11.36 -0.03,-26.67 -0.25,0.29 -0.52,0.61 -0.78,0.98 -7.57,10.35 -0.22,30.05 -9.63,40.69 -6.41,7.24 -18.98,2 -14.41,14.34 1.44,3.88 3.71,6.62 7.47,8.62 8.63,4.58 10.85,-1.68 8.46,-3.46 -1.62,-0.86 -4.58,0.76 -6.28,-1.27 -1.39,-1.66 -0.87,-4.79 1.57,-5.26 2.86,-0.55 4.52,0.78 6.53,-1.32 1.45,-1.51 1.57,-4.65 2.91,-6.35 0.96,11.07 -7.88,6.79 -7.79,10.28 1.54,4.09 5.08,-0.48 9.5,1.1 0.49,0.18 0.93,0.38 1.33,0.61zm140.83 -32.31c0.05,0.44 0.1,0.86 0.15,1.3 0,0 -8.77,-0.53 -8.01,8.76 0.15,1.75 0.23,4.03 0.43,6.59 4.21,-1.15 7.57,2.99 9.05,-0.96 0.09,-3.5 -8.74,0.79 -7.79,-10.28 1.34,1.7 1.46,4.83 2.91,6.34 2.02,2.1 3.67,0.77 6.53,1.33 2.45,0.47 2.97,3.59 1.57,5.26 -1.7,2.03 -4.65,0.41 -6.28,1.26 -2.39,1.79 -0.17,8.05 8.46,3.47 3.77,-2 6.04,-4.74 7.47,-8.62 4.57,-12.34 -8,-7.1 -14.4,-14.34 -0.03,-0.03 -0.06,-0.07 -0.09,-0.11zm-205.57 -421.62l0 0c0.93,-4.49 1.67,-8.97 2.18,-13.31 0.14,-1.19 1.26,-2.04 2.42,-1.92 1.21,0.14 2.07,1.24 1.93,2.43 -0.53,4.47 -1.28,9.07 -2.24,13.69 -0.21,1.02 -1.1,1.72 -2.09,1.74 -0.17,0 -0.33,0 -0.5,-0.04 -1.19,-0.25 -1.95,-1.41 -1.7,-2.59zm-7.47 25.98l0 0c1.56,-4.29 2.98,-8.61 4.21,-12.86 0.33,-1.17 1.53,-1.82 2.7,-1.5 1.17,0.34 1.83,1.55 1.5,2.71 -1.26,4.36 -2.71,8.78 -4.31,13.15 -0.32,0.87 -1.13,1.41 -2,1.44 -0.27,0 -0.54,-0.04 -0.8,-0.14 -1.14,-0.41 -1.73,-1.67 -1.3,-2.8zm-10.87 24.81l0 0c2.06,-4.04 4.02,-8.16 5.81,-12.25 0.49,-1.11 1.79,-1.61 2.89,-1.12 1.11,0.48 1.61,1.78 1.12,2.89 -1.82,4.16 -3.81,8.36 -5.93,12.47 -0.37,0.74 -1.11,1.17 -1.89,1.19 -0.35,0.01 -0.71,-0.07 -1.04,-0.24 -1.08,-0.55 -1.52,-1.87 -0.96,-2.94zm-13.61 23.46l0 0c2.46,-3.78 4.85,-7.67 7.12,-11.56 0.59,-1.05 1.93,-1.4 2.99,-0.79 1.04,0.61 1.39,1.95 0.79,3 -2.3,3.94 -4.74,7.89 -7.24,11.74 -0.41,0.63 -1.08,0.98 -1.78,0.99 -0.42,0.02 -0.86,-0.1 -1.24,-0.35 -1.01,-0.66 -1.3,-2.01 -0.64,-3.03zm323.68 16.15l0 0c0.94,-0.74 2.32,-0.6 3.08,0.35 1.33,1.69 2.69,3.38 4.1,5.07 0.77,0.93 0.64,2.31 -0.29,3.09 -0.39,0.32 -0.88,0.49 -1.35,0.5 -0.65,0.01 -1.29,-0.25 -1.73,-0.8 -1.42,-1.72 -2.82,-3.44 -4.17,-5.14 -0.75,-0.94 -0.59,-2.32 0.36,-3.07zm-15.83 -22.38l0 0c1.03,-0.66 2.38,-0.37 3.03,0.65 2.44,3.77 5.01,7.54 7.65,11.21 0.71,0.98 0.49,2.35 -0.49,3.05 -0.38,0.27 -0.81,0.41 -1.23,0.42 -0.7,0.01 -1.39,-0.3 -1.83,-0.92 -2.68,-3.72 -5.3,-7.55 -7.78,-11.39 -0.65,-1.01 -0.36,-2.37 0.65,-3.02zm-13.34 -23.88l0 0c1.08,-0.55 2.4,-0.1 2.93,0.99 1.99,3.99 4.14,8.01 6.39,11.94 0.59,1.05 0.23,2.4 -0.82,3 -0.32,0.18 -0.68,0.28 -1.03,0.29 -0.78,0.02 -1.54,-0.39 -1.95,-1.11 -2.3,-4.01 -4.49,-8.1 -6.5,-12.18 -0.54,-1.08 -0.1,-2.39 0.98,-2.93zm-10.3 -25.34l0 0c1.16,-0.38 2.39,0.22 2.78,1.36 1.43,4.2 3.05,8.45 4.82,12.65 0.47,1.11 -0.05,2.39 -1.17,2.86 -0.26,0.11 -0.53,0.17 -0.8,0.17 -0.87,0.02 -1.71,-0.48 -2.06,-1.34 -1.82,-4.29 -3.47,-8.64 -4.94,-12.92 -0.38,-1.15 0.23,-2.39 1.37,-2.78zm-3.9 -24.78l0 0c0.71,4.31 1.66,8.75 2.8,13.19 0.31,1.17 -0.41,2.37 -1.57,2.67 -0.17,0.05 -0.34,0.06 -0.49,0.07 -1,0.02 -1.92,-0.64 -2.18,-1.64 -1.17,-4.57 -2.14,-9.14 -2.88,-13.57 -0.2,-1.19 0.61,-2.32 1.79,-2.52 1.17,-0.17 2.33,0.61 2.53,1.8zm-5.88 -19.9l0 0c0.09,-1.22 1.18,-2.1 2.36,-1.97 1.2,0.09 2.11,1.23 2,2.43 0,0.02 -0.12,3.87 0.09,7.89 0.05,1.21 -0.84,4.06 -2.05,4.09 -0.01,0 -0.04,0 -0.05,0 -1.19,0.02 -2.22,-2.66 -2.28,-3.85 -0.21,-4.34 -0.08,-8.5 -0.07,-8.59zm-262.03 -55.24l-2.71 19.63c7.23,3.51 28.47,6.37 81.12,5.74 0,0 -44.14,5.09 -80.31,-3.56l-0.17 7c0,0 54.2,16.68 125.81,15.58l-1.44 -30.2c0,0 -72.07,-2.97 -122.3,-14.19zm307.33 6.58l2.36 19.65c-7.39,3.2 -28.48,5.06 -81.04,2.09 0,0 43.99,7.03 80.51,0l-1.1 7.15c0,0 -55.51,13.92 -127.35,10.11l-1.43 -29.91c0,0 77.38,-0.11 128.05,-9.09zm-182.86 8.89c0,0 33.67,-1.16 52.66,-0.68l0.7 14.57 -25.27 0.48 25.43 3.07 0.62 12.78 -52.77 -1.4 -1.37 -28.82z"/>
   <path class="fil6 str1" d="M668.27 1787.82l-0.93 8.44c0.4,1.84 0.01,5.38 0.52,7.58l164.65 19.4c-0.02,-10.6 12.1,-26.28 1.33,-30.15 -4.42,-1.59 -7.96,2.98 -9.49,-1.1 -0.11,-3.5 8.74,0.78 7.78,-10.29 -1.33,1.7 -1.45,4.84 -2.9,6.35 -2.02,2.1 -3.67,0.77 -6.54,1.32 -2.45,0.48 -2.97,3.6 -1.57,5.27 1.7,2.02 4.66,0.4 6.28,1.26 2.4,1.79 0.17,8.05 -8.46,3.47 -3.78,-2 -6.04,-4.74 -7.48,-8.62 -4.57,-12.35 8.01,-7.11 14.41,-14.35 9.42,-10.66 2.08,-30.37 9.64,-40.72 1.42,-1.94 2.64,-2.7 4.2,-3.86 2.03,-1.53 3.67,-2.07 4.7,-3.06 -4.49,0.85 -10.36,6.02 -12.71,9.66 -3.24,5.04 -3.66,12.25 -5.31,18.31 -4.64,17.03 -23.22,15.58 -25.26,7.72 -2.88,-11.2 21.4,-16.11 25.58,-42.37 0.54,-3.4 0.66,-7.1 0.53,-10.51 -0.07,-1.69 -0.18,-3.08 -0.33,-4.77l-0.44 -3.63c-0.2,-0.65 -0.15,-0.49 -0.42,-0.91 -1.57,9.98 1.3,16.22 -4.03,25.78 -2.95,5.3 -9.58,12.59 -13.48,15.53 -7.7,5.81 -10.37,6.19 -17.56,10.46 -3.02,1.79 -5.65,3.49 -7.44,6.93 -1.89,3.64 -2.15,8.11 -1.19,11.55 2.24,8.01 9.58,10.44 13.33,15.24 4.82,6.16 -2.86,13.33 -13.31,7.98 -6.07,-3.11 -10.87,-9.29 -13.17,-15.34 -2.51,-6.58 -2.91,-17.41 1.35,-23.59 3.35,-4.85 11.26,-8.83 16.48,-11.84 12.99,-7.5 22.64,-15.38 26.73,-31.36 2.55,-9.98 1.84,-15.9 -0.53,-24.44 -4.09,-14.71 -11.53,-27.97 -3.06,-45.24 6.08,-12.4 16.62,-20 11.32,-37.25 -0.4,-1.31 -1.69,-3.84 -1.82,-4.43 -0.06,1.66 0.89,5.95 1.07,8.35 1.47,19.44 -9.46,22.49 -17.87,36.29 -15.47,25.37 -1.73,37.64 -6.88,52.86 -4.61,13.62 -19.83,15.69 -25.32,5.92 -10.73,-19.14 17.81,-39.93 22.42,-61.12 2.85,-13.08 -0.45,-24.25 -3.93,-34.9 -1.62,-4.97 -3.43,-11.5 -1.6,-17.51 1.07,-3.57 7.69,-13.01 3.78,-16.16 0.44,4.63 -1.34,8.18 -3.2,11.88 -11.11,22.12 10.69,35.8 -5.75,60.01 -17.11,25.19 -48.32,37.94 -38.7,76.08 1.95,7.7 4.15,13.36 5.37,21.99 2.18,15.44 0.08,34.11 -14.33,42.94 -3.48,2.14 -5.49,3.35 -9.88,4.29 -4.22,0.9 -9.05,0.16 -11.02,-3 -4.88,-7.84 7.78,-14.57 11.27,-16.6 6.4,-3.72 12.34,-5.33 15.07,-14.38 2.92,-9.7 -1.5,-15.69 -4.41,-22.52 -2.08,-4.91 -6.41,-15.5 -6.14,-21.58 0.48,-11.14 4.15,-16.69 6.55,-24.53 -3.45,3.72 -6.01,9.99 -7.48,15.75 -1.71,6.67 -2.11,13.77 -1.77,20.42 0.35,6.96 2.27,14.77 2.3,18.12 0.06,6.81 -2.69,12.77 -9.26,12.69 -7.49,-0.08 -9.56,-6.45 -7.45,-13.38 3.42,-11.2 10.97,-16.19 9.14,-35.76 -1.02,-10.99 -3.66,-5.1 0.74,-18.63 -4.98,2.71 -3.88,11.98 -3.2,16.19 3.63,22.66 -13.39,26.55 -19.28,42.8 -2.71,7.48 -1.66,11.04 -1.94,18.61 -0.22,6.04 -0.78,13.64 -7.04,14.21 -3.22,0.3 -5.69,-1.92 -5.12,-5.15 0.48,-2.76 2.78,-4.33 3.94,-6.71 1.36,-2.79 0.2,-5.68 -1.08,-7.61 -2.19,-3.28 -2.88,-2.01 -1.7,-7.3 -3.6,1.72 -0.65,6.64 -1.47,10.46 -1.39,6.42 -8.59,6.14 -13.26,12.93 -2.38,3.47 -2.47,7.01 -3.97,9.63z"/>
   <path class="fil6 str1" d="M1133.52 1772.78l0.92 8.44c-0.39,1.84 0,5.38 -0.52,7.58l-164.64 19.41c0.01,-10.61 -12.1,-26.29 -1.34,-30.16 4.43,-1.59 7.96,2.99 9.5,-1.1 0.1,-3.5 -8.75,0.79 -7.79,-10.29 1.34,1.7 1.46,4.84 2.91,6.35 2.01,2.1 3.67,0.77 6.53,1.33 2.45,0.47 2.98,3.59 1.57,5.26 -1.69,2.03 -4.65,0.41 -6.28,1.27 -2.39,1.78 -0.16,8.04 8.47,3.46 3.76,-1.99 6.04,-4.74 7.48,-8.62 4.56,-12.35 -8.01,-7.11 -14.42,-14.35 -9.42,-10.66 -2.07,-30.36 -9.64,-40.72 -1.42,-1.94 -2.64,-2.7 -4.19,-3.86 -2.03,-1.53 -3.68,-2.07 -4.71,-3.06 4.49,0.85 10.37,6.03 12.72,9.66 3.24,5.04 3.66,12.25 5.31,18.31 4.64,17.03 23.22,15.58 25.24,7.72 2.9,-11.2 -21.39,-16.1 -25.57,-42.37 -0.53,-3.4 -0.66,-7.1 -0.53,-10.51 0.07,-1.69 0.18,-3.08 0.33,-4.77l0.45 -3.63c0.2,-0.65 0.15,-0.49 0.41,-0.9 1.57,9.98 -1.3,16.22 4.02,25.77 2.96,5.3 9.6,12.59 13.49,15.53 7.71,5.82 10.37,6.2 17.57,10.46 3.02,1.79 5.64,3.49 7.43,6.93 1.9,3.64 2.16,8.12 1.2,11.55 -2.24,8.01 -9.58,10.44 -13.33,15.24 -4.83,6.16 2.85,13.34 13.31,7.98 6.06,-3.11 10.86,-9.29 13.17,-15.34 2.51,-6.58 2.91,-17.41 -1.36,-23.59 -3.34,-4.85 -11.25,-8.83 -16.48,-11.84 -12.98,-7.5 -22.63,-15.37 -26.73,-31.36 -2.55,-9.98 -1.84,-15.9 0.54,-24.43 4.09,-14.71 11.52,-27.98 3.06,-45.25 -6.08,-12.4 -16.63,-20 -11.33,-37.25 0.4,-1.31 1.69,-3.84 1.82,-4.43 0.07,1.66 -0.89,5.95 -1.06,8.35 -1.48,19.44 9.45,22.49 17.86,36.29 15.47,25.38 1.73,37.64 6.88,52.86 4.61,13.62 19.84,15.69 25.32,5.92 10.74,-19.13 -17.8,-39.93 -22.42,-61.12 -2.84,-13.08 0.45,-24.25 3.93,-34.9 1.63,-4.97 3.43,-11.5 1.61,-17.51 -1.08,-3.57 -7.7,-13.01 -3.79,-16.16 -0.43,4.63 1.35,8.18 3.2,11.88 11.12,22.12 -10.68,35.8 5.76,60.01 17.11,25.19 48.31,37.94 38.69,76.08 -1.95,7.7 -4.14,13.36 -5.37,21.99 -2.18,15.44 -0.07,34.11 14.33,42.94 3.49,2.14 5.5,3.35 9.88,4.29 4.22,0.91 9.06,0.16 11.02,-2.99 4.88,-7.85 -7.77,-14.58 -11.26,-16.61 -6.41,-3.72 -12.34,-5.33 -15.07,-14.37 -2.93,-9.71 1.5,-15.7 4.41,-22.53 2.08,-4.91 6.4,-15.5 6.14,-21.58 -0.49,-11.14 -4.16,-16.68 -6.56,-24.52 3.45,3.72 6.01,9.98 7.49,15.74 1.71,6.67 2.1,13.78 1.76,20.42 -0.34,6.96 -2.26,14.77 -2.3,18.12 -0.06,6.81 2.7,12.77 9.27,12.69 7.48,-0.08 9.56,-6.45 7.44,-13.38 -3.42,-11.19 -10.96,-16.19 -9.13,-35.76 1.02,-10.98 3.66,-5.1 -0.74,-18.63 4.98,2.71 3.87,11.99 3.2,16.19 -3.63,22.66 13.39,26.55 19.28,42.81 2.71,7.47 1.66,11.03 1.94,18.61 0.22,6.03 0.78,13.63 7.04,14.2 3.22,0.3 5.69,-1.91 5.12,-5.15 -0.49,-2.75 -2.79,-4.33 -3.95,-6.71 -1.35,-2.79 -0.2,-5.67 1.09,-7.6 2.19,-3.29 2.88,-2.02 1.7,-7.3 3.6,1.71 0.63,6.63 1.47,10.45 1.39,6.42 8.59,6.14 13.25,12.93 2.39,3.47 2.48,7.02 3.98,9.63z"/>
  </g>
 </g>
</svg>
