<?xml version="1.0" encoding="UTF-8"?>
<!DOCTYPE svg PUBLIC "-//W3C//DTD SVG 1.1//EN" "http://www.w3.org/Graphics/SVG/1.1/DTD/svg11.dtd">
<!-- Creator: CorelDRAW 2021 (64-Bit) -->
<svg xmlns="http://www.w3.org/2000/svg" xml:space="preserve" width="33.8666mm" height="33.8666mm" version="1.1" style="shape-rendering:geometricPrecision; text-rendering:geometricPrecision; image-rendering:optimizeQuality; fill-rule:evenodd; clip-rule:evenodd"
viewBox="0 0 3386.66 3386.66"
 xmlns:xlink="http://www.w3.org/1999/xlink"
 xmlns:xodm="http://www.corel.com/coreldraw/odm/2003">
 <defs>
  <style type="text/css">
   <![CDATA[
    .str2 {stroke:black;stroke-width:3.15;stroke-miterlimit:22.9256}
    .str0 {stroke:black;stroke-width:5.77;stroke-miterlimit:22.9256}
    .str1 {stroke:black;stroke-width:3.73;stroke-miterlimit:22.9256}
    .fil0 {fill:black;fill-rule:nonzero}
    .fil1 {fill:#D8403F;fill-rule:nonzero}
   ]]>
  </style>
 </defs>
 <g id="Layer_x0020_1">
  <metadata id="CorelCorpID_0Corel-Layer"/>
  <g id="_2381561676880">
   <path class="fil0" d="M859.14 1516.29l-19.15 71.65c-12.45,-7.05 -25.31,-12.33 -38.62,-15.85 -13.29,-3.53 -27.16,-5.29 -41.63,-5.29 -43.85,-0.02 -78.24,11.75 -103.12,35.29 -24.91,23.55 -37.35,55.84 -37.37,96.92 -0.02,29.96 7.58,53.41 22.82,70.46 15.23,17.01 36.22,25.55 62.98,25.56 5.43,0 11.03,-0.47 16.8,-1.34 5.74,-0.91 11.96,-2.27 18.66,-4.06l14.96 -72.87 -54.58 -0.02 12.86 -63.33 138.1 0.06 -39.29 192.91c-16.49,5.71 -34.06,9.99 -52.72,12.85 -18.66,2.84 -39.13,4.29 -61.35,4.28 -53.67,-0.03 -95.26,-14.53 -124.79,-43.51 -29.55,-28.98 -44.29,-69.66 -44.27,-122 0.01,-26.52 4.18,-51.25 12.51,-74.24 8.33,-23 20.59,-43.15 36.78,-60.5 20.22,-22.24 43.94,-38.5 71.17,-48.79 27.23,-10.3 60.35,-15.43 99.39,-15.41 20.06,0.01 39.19,1.38 57.38,4.2 18.2,2.77 35.69,7.12 52.48,13.03z"/>
   <polygon class="fil0" points="951.52,1507.74 1040.87,1507.79 983.81,1787.05 1120.99,1787.12 1106.49,1856.56 880.67,1856.46 "/>
   <path class="fil0" d="M1590.24 1515.9l-20.57 67.97c-12.12,-5.75 -24.41,-10.04 -36.85,-12.89 -12.44,-2.88 -25.18,-4.32 -38.25,-4.32 -19.76,-0.01 -34.88,3.05 -45.38,9.18 -10.5,6.13 -15.75,14.99 -15.76,26.62 0,12.6 11.81,24.07 35.44,34.39 9.49,4.07 16.95,7.51 22.39,10.3 27.53,14.08 46.24,27.83 56.2,41.26 9.94,13.41 14.92,30.52 14.91,51.32 -0.02,38.1 -13.88,68.48 -41.57,91.13 -27.7,22.67 -65.26,33.97 -112.69,33.95 -20.06,-0.01 -39.3,-1.61 -57.73,-4.82 -18.43,-3.19 -36.2,-7.97 -53.29,-14.37l19.15 -71.9c13.84,7.2 27.24,12.6 40.23,16.2 12.99,3.6 25.7,5.43 38.14,5.43 22.71,0.01 40.6,-3.91 53.67,-11.74 13.06,-7.86 19.6,-18.49 19.61,-31.92 0.01,-16.85 -17.33,-32.56 -52,-47.13 -8.71,-3.63 -15.48,-6.5 -20.29,-8.62 -18.82,-8.34 -32.82,-19.34 -41.98,-32.9 -9.17,-13.6 -13.74,-29.94 -13.73,-49.08 0.01,-33.73 12.85,-61.08 38.51,-82.09 25.68,-21.02 59.35,-31.51 101.03,-31.49 23.17,0.01 44.13,1.32 62.87,3.95 18.73,2.62 34.71,6.48 47.94,11.57z"/>
   <polygon class="fil0" points="1636.42,1508.06 1893.04,1508.19 1879.24,1575.43 1794.57,1575.39 1737.51,1856.86 1648.15,1856.82 1705.21,1575.34 1623.1,1575.31 "/>
   <path class="fil0" d="M2126.49 1644.99c0.01,-25.51 -5.3,-45.26 -15.85,-59.15 -10.57,-13.91 -25.51,-20.87 -44.78,-20.88 -13.53,-0.01 -26.23,4.16 -38.14,12.5 -11.89,8.34 -22.59,20.61 -32.1,36.81 -7.78,13.24 -14.09,29.31 -18.91,48.2 -4.84,18.9 -7.25,37.34 -7.26,55.35 -0.01,24.55 5.34,43.9 16.08,58.05 10.72,14.15 25.4,21.25 44.07,21.26 13.53,0 26.04,-4.05 37.56,-12.12 11.51,-8.13 22.55,-20.59 33.14,-37.44 7.77,-12.93 14.1,-28.8 18.93,-47.58 4.81,-18.86 7.25,-37.18 7.26,-55zm-54.77 -144.82c45.88,0.02 81.72,13.24 107.53,39.7 25.8,26.39 38.71,63.11 38.69,110.09 -0.01,25.02 -3.7,49.67 -11.01,74 -7.33,24.28 -17.36,45.51 -30.12,63.66 -18.06,25.35 -39.89,44.69 -65.47,58 -25.6,13.33 -53.85,20 -84.81,19.99 -46.19,-0.02 -82.23,-13.42 -108.1,-40.18 -25.88,-26.78 -38.81,-63.9 -38.79,-111.34 0.01,-24.88 3.26,-48.83 9.72,-71.89 6.46,-23.08 15.6,-43.12 27.44,-60.13 18.96,-27.48 41.3,-48.03 66.96,-61.57 25.69,-13.59 54.99,-20.35 87.96,-20.33z"/>
   <path class="fil0" d="M2367.66 1513.66l113.04 0.06 53.42 183.63c4.82,16.31 8.52,30.31 11.11,42.01 2.56,11.73 4.41,22.93 5.55,33.63l4.1 0c0.64,-10.03 1.95,-21.14 3.91,-33.35 1.93,-12.23 4.61,-26.49 8,-42.78l36.88 -183.08 83.76 0.04 -73.53 361.82 -113.04 -0.05 -58.47 -202.46c-2.73,-9.18 -5.08,-18.57 -7.02,-28.15 -1.91,-9.6 -3.36,-19.68 -4.34,-30.19l-3.62 -0.01c-1.63,13.27 -3.34,25.86 -5.1,37.82 -1.79,11.98 -3.73,23.2 -5.82,33.76l-38.1 189.18 -84.25 -0.04 73.52 -361.84z"/>
   <path class="fil0 str0" d="M1261.67 1434.72l11.99 -66.95 -31.86 67.46c6.69,-0.17 12.98,-0.34 18.89,-0.51l0.98 0z"/>
   <polygon class="fil1" points="1256.63,1453.49 1255.62,1453.53 1236.05,1454.01 1113.99,1712.45 1201.51,1597.63 1200.81,1603.7 1202.64,1601.38 1195.21,1651.2 1166.1,1898.38 1307.2,1588.01 1232.4,1588.87 "/>
   <polygon class="fil0" points="1200.81,1603.7 1117.1,1709.65 1188.36,1697.18 1195.21,1651.2 1202.64,1601.38 "/>
   <polygon class="fil0 str1" points="1472.32,2018.53 1472.34,1969.44 1459.39,1969.43 1459.39,1959.42 1494.09,1959.44 1494.08,1969.45 1481.15,1969.44 1481.13,2018.54 "/>
   <polygon class="fil0 str1" points="1518.07,2018.55 1518.1,1959.46 1526.91,1959.45 1526.89,1982.73 1544.18,1982.74 1544.19,1959.46 1553.01,1959.47 1552.98,2018.57 1544.16,2018.56 1544.17,1992.74 1526.9,1992.73 1526.88,2018.55 "/>
   <polygon class="fil0 str1" points="1580.39,2018.58 1580.42,1959.48 1612.77,1959.5 1612.77,1969.5 1589.22,1969.49 1589.22,1982.58 1611.14,1982.59 1611.14,1992.55 1589.21,1992.54 1589.2,2008.63 1613.59,2008.64 1613.59,2018.6 "/>
   <polygon class="fil0 str1" points="1674.7,2018.62 1674.73,1959.53 1683.3,1959.53 1701.15,1998.99 1701.17,1959.53 1709.35,1959.54 1709.33,2018.65 1700.48,2018.64 1682.9,1980.08 1682.89,2018.63 "/>
   <polygon class="fil0 str1" points="1736.92,2018.65 1736.96,1959.56 1769.32,1959.57 1769.32,1969.57 1745.76,1969.56 1745.75,1982.65 1767.68,1982.66 1767.68,1992.62 1745.75,1992.61 1745.74,2008.7 1770.14,2008.71 1770.14,2018.67 "/>
   <polygon class="fil0 str1" points="1791.47,2018.68 1806.4,1987.85 1792.9,1959.58 1803.21,1959.58 1811.94,1978.57 1820.54,1959.6 1830.74,1959.6 1817.15,1988.3 1832.06,2018.7 1821.43,2018.69 1811.76,1998.25 1802.03,2018.69 "/>
   <polygon class="fil0 str1" points="1864.72,2018.72 1864.74,1969.62 1851.79,1969.61 1851.79,1959.61 1886.48,1959.62 1886.47,1969.63 1873.55,1969.62 1873.52,2018.72 "/>
   <polygon class="fil0 str1" points="1945.91,2018.75 1945.94,1960.14 1954.75,1960.14 1954.73,2008.8 1976.65,2008.81 1976.64,2018.76 "/>
   <polygon class="fil0 str1" points="2001.23,2018.78 2001.26,1959.68 2033.63,1959.69 2033.62,1969.7 2010.07,1969.69 2010.06,1982.77 2031.98,1982.78 2031.97,1992.75 2010.06,1992.74 2010.04,2008.83 2034.45,2008.84 2034.44,2018.79 "/>
   <polygon class="fil0 str1" points="2071.33,2018.82 2055.76,1959.7 2065.34,1959.7 2076.34,2003.45 2087.06,1959.72 2096.41,1959.72 2080.75,2018.81 "/>
   <polygon class="fil0 str1" points="2119.18,2018.83 2119.21,1959.73 2151.57,1959.75 2151.57,1969.75 2128.02,1969.74 2128.01,1982.83 2149.93,1982.84 2149.93,1992.8 2128.01,1992.79 2128,2008.88 2152.4,2008.89 2152.4,2018.85 "/>
   <polygon class="fil0 str1" points="2178.38,2018.86 2178.41,1960.25 2187.25,1960.25 2187.22,2008.91 2209.13,2008.92 2209.13,2018.88 "/>
   <path class="fil0 str1" d="M2265.63 1999.68l8.57 -1.13c0.5,3.89 1.57,6.76 3.14,8.56 1.59,1.84 3.71,2.77 6.38,2.77 2.85,0 4.99,-0.81 6.43,-2.44 1.45,-1.62 2.15,-3.54 2.15,-5.72l-0.91 -3.53 -3.15 -2.59c-1.04,-0.49 -3.4,-1.33 -7.08,-2.57 -4.71,-1.58 -8.02,-3.53 -9.94,-5.85 -2.67,-3.25 -4.01,-7.22 -4.01,-11.88 0,-3.02 0.64,-5.82 1.9,-8.45 1.26,-2.63 3.08,-4.62 5.46,-5.99 2.36,-1.36 5.23,-2.04 8.6,-2.04 5.46,0 9.59,1.64 12.36,4.86 2.78,3.27 4.22,7.59 4.34,13.03l-8.8 0.53c-0.38,-3.03 -1.19,-5.24 -2.43,-6.57 -1.24,-1.32 -3.1,-1.98 -5.57,-1.98 -2.57,0 -4.57,0.7 -6.02,2.14l-1.4 3.66 1.29 3.58c1.13,1.25 3.83,2.59 8.11,3.95 4.3,1.37 7.47,2.79 9.52,4.27 2.06,1.45 3.66,3.46 4.81,6 1.17,2.54 1.74,5.68 1.74,9.41 -0.01,3.38 -0.69,6.56 -2.07,9.51 -1.4,2.96 -3.37,5.15 -5.9,6.57 -2.56,1.44 -5.72,2.17 -9.52,2.17 -5.52,0 -9.74,-1.73 -12.71,-5.19 -2.95,-3.45 -4.73,-8.49 -5.29,-15.08z"/>
   <path class="fil0 str1" d="M2335.67 1969.84l-0.02 16.78 4.83 0c3.47,0 5.8,-0.33 6.96,-0.93l2.76 -2.91 1.01 -4.59c0,-2.14 -0.47,-3.93 -1.4,-5.32l-3.54 -2.63c-1.07,-0.26 -3.17,-0.39 -6.35,-0.4l-4.25 0zm-8.85 49.09l0.03 -59.1 14.15 0.01c5.36,0 8.85,0.31 10.49,0.89 2.49,0.9 4.59,2.83 6.28,5.79 1.68,2.97 2.52,6.82 2.51,11.5 0,3.64 -0.48,6.69 -1.47,9.16 -0.95,2.47 -2.19,4.41 -3.7,5.83l-4.57 2.79c-2.1,0.56 -5.16,0.84 -9.12,0.84l-5.77 0 -0.01 22.29 -8.82 0z"/>
   <path class="fil0 str1" d="M2404.41 1995.58l-6.01 -21.92 -5.88 21.92 11.89 0zm16.23 23.39l-9.58 0 -3.83 -13.42 -17.44 -0.01 -3.61 13.42 -9.36 -0.01 17.05 -59.09 9.32 0.01 17.45 59.1z"/>
   <path class="fil0 str1" d="M2452.47 1984.88l6.52 0.01c4.23,0 6.89,-0.25 7.92,-0.74l2.49 -2.48 0.88 -4.42c0,-2.01 -0.37,-3.6 -1.17,-4.83l-3.31 -2.33c-0.71,-0.13 -2.85,-0.19 -6.44,-0.19l-6.88 -0.01 -0.01 14.99zm-8.83 34.1l0.03 -59.1 18.56 0.01c4.66,0 8.04,0.54 10.17,1.62 2.12,1.04 3.81,2.94 5.06,5.65 1.28,2.72 1.91,5.84 1.91,9.33 0,4.43 -0.97,8.07 -2.88,10.96 -1.95,2.89 -4.84,4.71 -8.65,5.45 1.9,1.53 3.48,3.16 4.71,4.97 1.26,1.81 2.91,4.99 5.02,9.59l5.33 11.54 -10.53 0 -6.38 -12.87c-2.26,-4.6 -3.81,-7.49 -4.65,-8.68l-2.62 -2.47c-0.96,-0.42 -2.44,-0.67 -4.46,-0.68l-1.79 0.01 -0.01 24.68 -8.82 -0.01z"/>
   <polygon class="fil0 str1" points="2506.06,2019.01 2506.09,1959.91 2514.91,1959.92 2514.89,1986.17 2532.72,1959.93 2544.57,1959.93 2528.11,1982.95 2545.44,2019.03 2534.04,2019.03 2522.04,1991.29 2514.89,2001.16 2514.88,2019.02 "/>
   <path class="fil0 str2" d="M2771.31 1382.19c-34.64,0 -62.83,28.18 -62.83,62.83 0,34.65 28.19,62.83 62.83,62.83 34.65,0 62.83,-28.18 62.83,-62.83 0,-34.65 -28.18,-62.83 -62.83,-62.83zm0 134.49c-39.52,0 -71.67,-32.15 -71.67,-71.66 0,-39.52 32.15,-71.66 71.67,-71.66 39.52,0 71.66,32.14 71.66,71.66 0,39.51 -32.14,71.66 -71.66,71.66z"/>
   <path class="fil0 str2" d="M2758.75 1443.15l13.48 0c4.43,0 7.88,-1.11 10.37,-3.34 2.49,-2.23 3.74,-5.28 3.74,-9.16 0,-4.04 -1.16,-7.17 -3.45,-9.38 -2.3,-2.21 -5.73,-3.35 -10.29,-3.42l-13.85 0 0 25.3zm14.62 10.57l-14.62 0 0 29.04 -13.11 0 0 -75.48 26.54 0c8.71,0 15.44,1.95 20.17,5.86 4.73,3.91 7.1,9.56 7.1,16.96 0,5.06 -1.22,9.28 -3.65,12.69 -2.44,3.41 -5.84,6.03 -10.19,7.86l16.95 31.44 0 0.67 -14.05 0 -15.14 -29.04z"/>
  </g>
 </g>
</svg>
