<?xml version="1.0" encoding="UTF-8"?>
<!DOCTYPE svg PUBLIC "-//W3C//DTD SVG 1.1//EN" "http://www.w3.org/Graphics/SVG/1.1/DTD/svg11.dtd">
<!-- Creator: CorelDRAW 2021 (64-Bit) -->
<svg xmlns="http://www.w3.org/2000/svg" xml:space="preserve" width="33.8666mm" height="33.8666mm" version="1.1" style="shape-rendering:geometricPrecision; text-rendering:geometricPrecision; image-rendering:optimizeQuality; fill-rule:evenodd; clip-rule:evenodd"
viewBox="0 0 3386.66 3386.66"
 xmlns:xlink="http://www.w3.org/1999/xlink"
 xmlns:xodm="http://www.corel.com/coreldraw/odm/2003">
 <defs>
  <style type="text/css">
   <![CDATA[
    .str2 {stroke:white;stroke-width:7.62;stroke-miterlimit:10}
    .str0 {stroke:black;stroke-width:20;stroke-linecap:round;stroke-linejoin:round;stroke-miterlimit:22.9256}
    .str4 {stroke:white;stroke-width:3.15;stroke-miterlimit:10}
    .str1 {stroke:white;stroke-width:5.77;stroke-miterlimit:10}
    .str3 {stroke:white;stroke-width:3.73;stroke-miterlimit:10}
    .fil0 {fill:black}
    .fil2 {fill:#D8403F;fill-rule:nonzero}
    .fil1 {fill:white;fill-rule:nonzero}
   ]]>
  </style>
 </defs>
 <g id="Layer_x0020_1">
  <metadata id="CorelCorpID_0Corel-Layer"/>
  <ellipse class="fil0 str0" cx="1693.33" cy="1693.33" rx="1641.67" ry="1611.82"/>
  <g id="_2024385760464">
   <path class="fil1" d="M866.27 1515.76l-19.15 71.65c-12.45,-7.05 -25.31,-12.33 -38.62,-15.85 -13.29,-3.53 -27.16,-5.29 -41.63,-5.29 -43.85,-0.02 -78.24,11.75 -103.12,35.29 -24.91,23.55 -37.35,55.84 -37.37,96.92 -0.02,29.96 7.58,53.41 22.82,70.46 15.23,17.01 36.22,25.55 62.98,25.56 5.43,0 11.03,-0.47 16.8,-1.34 5.74,-0.91 11.96,-2.27 18.66,-4.06l14.96 -72.87 -54.58 -0.02 12.86 -63.33 138.1 0.06 -39.29 192.91c-16.49,5.71 -34.06,9.99 -52.72,12.85 -18.66,2.84 -39.13,4.29 -61.35,4.28 -53.67,-0.03 -95.26,-14.53 -124.79,-43.51 -29.55,-28.98 -44.29,-69.66 -44.27,-122 0.01,-26.52 4.18,-51.25 12.51,-74.24 8.33,-23 20.59,-43.15 36.78,-60.5 20.22,-22.24 43.94,-38.5 71.17,-48.79 27.23,-10.3 60.35,-15.43 99.39,-15.41 20.06,0.01 39.19,1.38 57.38,4.2 18.2,2.77 35.69,7.12 52.48,13.03z"/>
   <polygon class="fil1" points="958.65,1507.21 1048,1507.26 990.94,1786.52 1128.12,1786.59 1113.62,1856.03 887.8,1855.93 "/>
   <path class="fil1" d="M1597.37 1515.37l-20.57 67.97c-12.12,-5.75 -24.41,-10.04 -36.85,-12.89 -12.44,-2.88 -25.18,-4.32 -38.25,-4.32 -19.76,-0.01 -34.88,3.05 -45.38,9.18 -10.5,6.13 -15.75,14.99 -15.76,26.62 0,12.6 11.81,24.07 35.44,34.39 9.49,4.07 16.95,7.51 22.39,10.3 27.53,14.08 46.24,27.83 56.2,41.26 9.94,13.41 14.92,30.52 14.91,51.32 -0.02,38.1 -13.88,68.48 -41.57,91.13 -27.7,22.67 -65.26,33.97 -112.69,33.95 -20.06,-0.01 -39.3,-1.61 -57.73,-4.82 -18.43,-3.19 -36.2,-7.97 -53.29,-14.37l19.15 -71.9c13.84,7.2 27.24,12.6 40.23,16.2 12.99,3.6 25.7,5.43 38.14,5.43 22.71,0.01 40.6,-3.91 53.67,-11.74 13.06,-7.86 19.6,-18.49 19.61,-31.92 0.01,-16.85 -17.33,-32.56 -52,-47.13 -8.71,-3.63 -15.48,-6.5 -20.29,-8.62 -18.82,-8.34 -32.82,-19.34 -41.98,-32.9 -9.17,-13.6 -13.74,-29.94 -13.73,-49.08 0.01,-33.73 12.85,-61.08 38.51,-82.09 25.68,-21.02 59.35,-31.51 101.03,-31.49 23.17,0.01 44.13,1.32 62.87,3.95 18.73,2.62 34.71,6.48 47.94,11.57z"/>
   <polygon class="fil1" points="1643.55,1507.53 1900.17,1507.66 1886.37,1574.9 1801.7,1574.86 1744.64,1856.33 1655.28,1856.29 1712.34,1574.81 1630.23,1574.78 "/>
   <path class="fil1" d="M2133.62 1644.46c0.01,-25.51 -5.3,-45.26 -15.85,-59.15 -10.57,-13.91 -25.51,-20.87 -44.78,-20.88 -13.53,-0.01 -26.23,4.16 -38.14,12.5 -11.89,8.34 -22.59,20.61 -32.1,36.81 -7.78,13.24 -14.09,29.31 -18.91,48.2 -4.84,18.9 -7.25,37.34 -7.26,55.35 -0.01,24.55 5.34,43.9 16.08,58.05 10.72,14.15 25.4,21.25 44.07,21.26 13.53,0 26.04,-4.05 37.56,-12.12 11.51,-8.13 22.55,-20.59 33.14,-37.44 7.77,-12.93 14.1,-28.8 18.93,-47.58 4.81,-18.86 7.25,-37.18 7.26,-55zm-54.77 -144.82c45.88,0.02 81.72,13.24 107.53,39.7 25.8,26.39 38.71,63.11 38.69,110.09 -0.01,25.02 -3.7,49.67 -11.01,74 -7.33,24.28 -17.36,45.51 -30.12,63.66 -18.06,25.35 -39.89,44.69 -65.47,58 -25.6,13.33 -53.85,20 -84.81,19.99 -46.19,-0.02 -82.23,-13.42 -108.1,-40.18 -25.88,-26.78 -38.81,-63.9 -38.79,-111.34 0.01,-24.88 3.26,-48.83 9.72,-71.89 6.46,-23.08 15.6,-43.12 27.44,-60.13 18.96,-27.48 41.3,-48.03 66.96,-61.57 25.69,-13.59 54.99,-20.35 87.96,-20.33z"/>
   <path class="fil1" d="M2374.79 1513.13l113.04 0.06 53.42 183.63c4.82,16.31 8.52,30.31 11.11,42.01 2.56,11.73 4.41,22.93 5.55,33.63l4.1 0c0.64,-10.03 1.95,-21.14 3.91,-33.35 1.93,-12.23 4.61,-26.49 8,-42.78l36.88 -183.08 83.76 0.04 -73.53 361.82 -113.04 -0.05 -58.47 -202.46c-2.73,-9.18 -5.08,-18.57 -7.02,-28.15 -1.91,-9.6 -3.36,-19.68 -4.34,-30.19l-3.62 -0.01c-1.63,13.27 -3.34,25.86 -5.1,37.82 -1.79,11.98 -3.73,23.2 -5.82,33.76l-38.1 189.18 -84.25 -0.04 73.52 -361.84z"/>
   <path class="fil1 str1" d="M1268.8 1434.19l11.99 -66.95 -31.86 67.46c6.69,-0.17 12.98,-0.34 18.89,-0.51l0.98 0z"/>
   <polygon class="fil2" points="1263.76,1452.96 1262.75,1453 1243.18,1453.48 1121.12,1711.92 1208.64,1597.1 1207.94,1603.17 1209.77,1600.85 1202.34,1650.67 1173.23,1897.85 1314.33,1587.48 1239.53,1588.34 "/>
   <polygon class="fil1 str2" points="1207.94,1603.17 1124.23,1709.12 1195.49,1696.65 1202.34,1650.67 1209.77,1600.85 "/>
   <polygon class="fil1 str3" points="1479.45,2018 1479.47,1968.91 1466.52,1968.9 1466.52,1958.89 1501.22,1958.91 1501.21,1968.92 1488.28,1968.91 1488.26,2018.01 "/>
   <polygon class="fil1 str3" points="1525.2,2018.02 1525.23,1958.93 1534.04,1958.92 1534.02,1982.2 1551.31,1982.21 1551.32,1958.93 1560.14,1958.94 1560.11,2018.04 1551.29,2018.03 1551.3,1992.21 1534.03,1992.2 1534.01,2018.02 "/>
   <polygon class="fil1 str3" points="1587.52,2018.05 1587.55,1958.95 1619.9,1958.97 1619.9,1968.97 1596.35,1968.96 1596.35,1982.05 1618.27,1982.06 1618.27,1992.02 1596.34,1992.01 1596.33,2008.1 1620.72,2008.11 1620.72,2018.07 "/>
   <polygon class="fil1 str3" points="1681.83,2018.09 1681.86,1959 1690.43,1959 1708.28,1998.46 1708.3,1959 1716.48,1959.01 1716.46,2018.12 1707.61,2018.11 1690.03,1979.55 1690.02,2018.1 "/>
   <polygon class="fil1 str3" points="1744.05,2018.12 1744.09,1959.03 1776.45,1959.04 1776.45,1969.04 1752.89,1969.03 1752.88,1982.12 1774.81,1982.13 1774.81,1992.09 1752.88,1992.08 1752.87,2008.17 1777.27,2008.18 1777.27,2018.14 "/>
   <polygon class="fil1 str3" points="1798.6,2018.15 1813.53,1987.32 1800.03,1959.05 1810.34,1959.05 1819.07,1978.04 1827.67,1959.07 1837.87,1959.07 1824.28,1987.77 1839.19,2018.17 1828.56,2018.16 1818.89,1997.72 1809.16,2018.16 "/>
   <polygon class="fil1 str3" points="1871.85,2018.19 1871.87,1969.09 1858.92,1969.08 1858.92,1959.08 1893.61,1959.09 1893.6,1969.1 1880.68,1969.09 1880.65,2018.19 "/>
   <polygon class="fil1 str3" points="1953.04,2018.22 1953.07,1959.61 1961.88,1959.61 1961.86,2008.27 1983.78,2008.28 1983.77,2018.23 "/>
   <polygon class="fil1 str3" points="2008.36,2018.25 2008.39,1959.15 2040.76,1959.16 2040.75,1969.17 2017.2,1969.16 2017.19,1982.24 2039.11,1982.25 2039.1,1992.22 2017.19,1992.21 2017.17,2008.3 2041.58,2008.31 2041.57,2018.26 "/>
   <polygon class="fil1 str3" points="2078.46,2018.29 2062.89,1959.17 2072.47,1959.17 2083.47,2002.92 2094.19,1959.19 2103.54,1959.19 2087.88,2018.28 "/>
   <polygon class="fil1 str3" points="2126.31,2018.3 2126.34,1959.2 2158.7,1959.22 2158.7,1969.22 2135.15,1969.21 2135.14,1982.3 2157.06,1982.31 2157.06,1992.27 2135.14,1992.26 2135.13,2008.35 2159.53,2008.36 2159.53,2018.32 "/>
   <polygon class="fil1 str3" points="2185.51,2018.33 2185.54,1959.72 2194.38,1959.72 2194.35,2008.38 2216.26,2008.39 2216.26,2018.35 "/>
   <path class="fil1 str3" d="M2272.76 1999.15l8.57 -1.13c0.5,3.89 1.57,6.76 3.14,8.56 1.59,1.84 3.71,2.77 6.38,2.77 2.85,0 4.99,-0.81 6.43,-2.44 1.45,-1.62 2.15,-3.54 2.15,-5.72l-0.91 -3.53 -3.15 -2.59c-1.04,-0.49 -3.4,-1.33 -7.08,-2.57 -4.71,-1.58 -8.02,-3.53 -9.94,-5.85 -2.67,-3.25 -4.01,-7.22 -4.01,-11.88 0,-3.02 0.64,-5.82 1.9,-8.45 1.26,-2.63 3.08,-4.62 5.46,-5.99 2.36,-1.36 5.23,-2.04 8.6,-2.04 5.46,0 9.59,1.64 12.36,4.86 2.78,3.27 4.22,7.59 4.34,13.03l-8.8 0.53c-0.38,-3.03 -1.19,-5.24 -2.43,-6.57 -1.24,-1.32 -3.1,-1.98 -5.57,-1.98 -2.57,0 -4.57,0.7 -6.02,2.14l-1.4 3.66 1.29 3.58c1.13,1.25 3.83,2.59 8.11,3.95 4.3,1.37 7.47,2.79 9.52,4.27 2.06,1.45 3.66,3.46 4.81,6 1.17,2.54 1.74,5.68 1.74,9.41 -0.01,3.38 -0.69,6.56 -2.07,9.51 -1.4,2.96 -3.37,5.15 -5.9,6.57 -2.56,1.44 -5.72,2.17 -9.52,2.17 -5.52,0 -9.74,-1.73 -12.71,-5.19 -2.95,-3.45 -4.73,-8.49 -5.29,-15.08z"/>
   <path class="fil1 str3" d="M2342.8 1969.31l-0.02 16.78 4.83 0c3.47,0 5.8,-0.33 6.96,-0.93l2.76 -2.91 1.01 -4.59c0,-2.14 -0.47,-3.93 -1.4,-5.32l-3.54 -2.63c-1.07,-0.26 -3.17,-0.39 -6.35,-0.4l-4.25 0zm-8.85 49.09l0.03 -59.1 14.15 0.01c5.36,0 8.85,0.31 10.49,0.89 2.49,0.9 4.59,2.83 6.28,5.79 1.68,2.97 2.52,6.82 2.51,11.5 0,3.64 -0.48,6.69 -1.47,9.16 -0.95,2.47 -2.19,4.41 -3.7,5.83l-4.57 2.79c-2.1,0.56 -5.16,0.84 -9.12,0.84l-5.77 0 -0.01 22.29 -8.82 0z"/>
   <path class="fil1 str3" d="M2411.54 1995.05l-6.01 -21.92 -5.88 21.92 11.89 0zm16.23 23.39l-9.58 0 -3.83 -13.42 -17.44 -0.01 -3.61 13.42 -9.36 -0.01 17.05 -59.09 9.32 0.01 17.45 59.1z"/>
   <path class="fil1 str3" d="M2459.6 1984.35l6.52 0.01c4.23,0 6.89,-0.25 7.92,-0.74l2.49 -2.48 0.88 -4.42c0,-2.01 -0.37,-3.6 -1.17,-4.83l-3.31 -2.33c-0.71,-0.13 -2.85,-0.19 -6.44,-0.19l-6.88 -0.01 -0.01 14.99zm-8.83 34.1l0.03 -59.1 18.56 0.01c4.66,0 8.04,0.54 10.17,1.62 2.12,1.04 3.81,2.94 5.06,5.65 1.28,2.72 1.91,5.84 1.91,9.33 0,4.43 -0.97,8.07 -2.88,10.96 -1.95,2.89 -4.84,4.71 -8.65,5.45 1.9,1.53 3.48,3.16 4.71,4.97 1.26,1.81 2.91,4.99 5.02,9.59l5.33 11.54 -10.53 0 -6.38 -12.87c-2.26,-4.6 -3.81,-7.49 -4.65,-8.68l-2.62 -2.47c-0.96,-0.42 -2.44,-0.67 -4.46,-0.68l-1.79 0.01 -0.01 24.68 -8.82 -0.01z"/>
   <polygon class="fil1 str3" points="2513.19,2018.48 2513.22,1959.38 2522.04,1959.39 2522.02,1985.64 2539.85,1959.4 2551.7,1959.4 2535.24,1982.42 2552.57,2018.5 2541.17,2018.5 2529.17,1990.76 2522.02,2000.63 2522.01,2018.49 "/>
   <path class="fil1 str4" d="M2778.44 1381.66c-34.64,0 -62.83,28.18 -62.83,62.83 0,34.65 28.19,62.83 62.83,62.83 34.65,0 62.83,-28.18 62.83,-62.83 0,-34.65 -28.18,-62.83 -62.83,-62.83zm0 134.49c-39.52,0 -71.67,-32.15 -71.67,-71.66 0,-39.52 32.15,-71.66 71.67,-71.66 39.52,0 71.66,32.14 71.66,71.66 0,39.51 -32.14,71.66 -71.66,71.66z"/>
   <path class="fil1 str4" d="M2765.88 1442.62l13.48 0c4.43,0 7.88,-1.11 10.37,-3.34 2.49,-2.23 3.74,-5.28 3.74,-9.16 0,-4.04 -1.16,-7.17 -3.45,-9.38 -2.3,-2.21 -5.73,-3.35 -10.29,-3.42l-13.85 0 0 25.3zm14.62 10.57l-14.62 0 0 29.04 -13.11 0 0 -75.48 26.54 0c8.71,0 15.44,1.95 20.17,5.86 4.73,3.91 7.1,9.56 7.1,16.96 0,5.06 -1.22,9.28 -3.65,12.69 -2.44,3.41 -5.84,6.03 -10.19,7.86l16.95 31.44 0 0.67 -14.05 0 -15.14 -29.04z"/>
  </g>
 </g>
</svg>
