<?xml version="1.0" encoding="UTF-8"?>
<!DOCTYPE svg PUBLIC "-//W3C//DTD SVG 1.1//EN" "http://www.w3.org/Graphics/SVG/1.1/DTD/svg11.dtd">
<!-- Creator: CorelDRAW 2021 (64-Bit) -->
<svg xmlns="http://www.w3.org/2000/svg" xml:space="preserve" width="33.867mm" height="33.867mm" version="1.1" style="shape-rendering:geometricPrecision; text-rendering:geometricPrecision; image-rendering:optimizeQuality; fill-rule:evenodd; clip-rule:evenodd"
viewBox="0 0 3386.7 3386.7"
 xmlns:xlink="http://www.w3.org/1999/xlink"
 xmlns:xodm="http://www.corel.com/coreldraw/odm/2003">
 <defs>
  <style type="text/css">
   <![CDATA[
    .fil0 {fill:black}
    .fil1 {fill:white}
    .fil2 {fill:black;fill-rule:nonzero}
   ]]>
  </style>
 </defs>
 <g id="Layer_x0020_1">
  <metadata id="CorelCorpID_0Corel-Layer"/>
  <g id="_2059894511312">
   <path class="fil0" d="M1334.4 1751.24l0 62.02 53.72 0.69c3.24,-11.02 1.3,-186.76 1.3,-213.64 0,-187.45 -234.32,-288.76 -367.65,-144.03 -84.8,91.66 -73.79,227.42 9.06,306.68 36.25,33.76 88.67,62.71 157.29,59.26 31.71,-2.07 59.55,-10.33 83.5,-23.43 18.12,-8.96 33.65,-21.36 47.24,-33.77 5.83,-5.51 8.42,-9.65 15.54,-13.78z"/>
   <path class="fil1" d="M1162.23 1443.19c-27.19,4.13 -39.49,5.5 -61.5,18.6 -57.6,34.46 -84.14,86.84 -80.9,159.2 3.88,78.56 82.2,155.06 172.82,146.79 79.61,-7.58 149.52,-82.7 141.1,-178.49 -7.12,-80.64 -82.2,-159.89 -171.52,-146.1z"/>
   <path class="fil0" d="M546.67 1809.13l55.02 0.69c3.24,-51 0,-184.7 0.65,-246.72 0.65,-73.05 55.02,-121.3 127.51,-120.61 68.61,0.7 122.33,55.14 126.22,120.61 1.29,35.83 -3.89,232.94 0.64,246.03 3.24,3.45 51.14,2.07 55.02,1.38 2.59,-29.64 0.65,-157.13 0.65,-197.1 0,-72.37 -3.88,-108.89 -42.07,-155.75 -50.49,-62.72 -141.76,-88.22 -213.6,-50.31 -27.19,13.78 -35.6,27.56 -54.37,45.48l0 -202.61 -55.67 -0.69 0 559.6z"/>
   <path class="fil0" d="M2002.38 1816.71l54.37 0.69c5.18,-24.81 -2.59,-197.79 1.3,-248.1 4.53,-68.22 58.25,-121.98 127.51,-121.98 66.67,0 126.22,55.13 128.8,119.91 1.95,55.83 -3.88,217.09 0.65,250.86l55.02 0.69c3.24,-46.86 0,-104.07 0,-151.62 0,-46.17 3.88,-103.37 -8.41,-143.35 -21.36,-73.73 -86.09,-129.56 -174.12,-130.24 -92.56,-1.38 -154.7,55.82 -176.7,126.11 -12.95,41.35 -9.07,97.17 -9.07,143.35 0,48.24 -2.58,106.82 0.65,153.68z"/>
   <path class="fil0" d="M2487.18 1579.64l317.82 1.38c-17.48,-116.47 -165.06,-175.74 -265.38,-93.73 -23.31,18.61 -55.02,65.47 -52.44,92.35z"/>
   <path class="fil0" d="M1611.43 1455.59l-0.65 -54.45 -51.78 -0.68 0 414.18 57.61 0c2.59,-23.43 0.65,-199.17 0.65,-238.45 -0.65,-40.66 4.53,-68.22 27.18,-90.28 22.66,-21.36 36.9,-35.15 82.21,-37.9l-0.65 -55.14c-27.19,-0.68 -51.78,7.59 -70.56,19.3 -9.7,6.2 -19.41,12.41 -25.24,19.3 -7.76,8.27 -11.65,16.54 -18.77,24.12z"/>
   <polygon class="fil0" points="1770.01,1815.33 1824.38,1816.02 1824.38,1255.73 1770.01,1255.04 "/>
   <polygon class="fil0" points="1887.81,1816.02 1942.83,1816.71 1943.48,1402.52 1887.81,1401.83 "/>
   <polygon class="fil0" points="1447.02,1813.26 1502.69,1813.95 1502.69,1400.46 1447.67,1399.77 "/>
   <path class="fil0" d="M1502.04 1348.77c2.59,-8.27 1.95,-80.64 0.65,-94.42l-55.02 -0.69c-1.29,25.5 0,51.69 -0.65,77.19 0,22.05 -3.88,19.99 18.13,19.99 5.82,0 12.3,0 18.12,0 5.83,0 14.24,1.37 18.77,-2.07z"/>
   <polygon class="fil0" points="1887.81,1352.21 1942.83,1352.9 1942.83,1255.73 1887.81,1255.04 "/>
   <path class="fil0" d="M2811.42 1676.92c-126.47,-4.64 -43.61,9.29 -117.74,53.4 -69.77,41.78 -187.51,11.6 -196.23,-106.79l318.32 0 2.19 -41.79c2.17,-234.46 -357.58,-266.96 -388.1,-9.28 -30.53,250.71 309.6,318.04 381.56,104.46z"/>
   <path class="fil1" d="M2487.18 1564.7l280.33 1.21c-15.42,-102.73 -145.59,-155.01 -234.08,-82.67 -20.56,16.41 -48.53,57.74 -46.25,81.46z"/>
   <path class="fil2" d="M460.16 2084.39l0 -18.67c-9.7,14.3 -23.03,21.33 -39.76,21.33 -7.52,0 -14.3,-1.45 -20.85,-4.36 -6.3,-2.67 -11.15,-6.3 -14.3,-10.67 -2.91,-4.36 -5.09,-9.45 -6.55,-15.75 -0.73,-4.12 -1.21,-10.91 -1.21,-19.88l0 -77.82 21.33 0 0 69.58c0,11.15 0.49,18.66 1.22,22.54 1.45,5.58 4.36,9.94 8.72,13.09 4.12,3.15 9.46,4.85 16,4.85 6.31,0 12.37,-1.7 17.94,-4.85 5.58,-3.39 9.45,-7.75 11.88,-13.33 2.18,-5.82 3.39,-13.82 3.39,-24.73l0 -67.15 21.33 0 0 125.82 -19.14 0zm52.6 0l0 -125.82 19.15 0 0 17.94c9.21,-13.82 22.55,-20.6 40,-20.6 7.51,0 14.54,1.45 20.85,4.12 6.3,2.66 11.15,6.3 14.3,10.66 3.15,4.37 5.33,9.7 6.54,15.76 0.73,3.88 1.22,10.91 1.22,20.61l0 77.33 -21.34 0 0 -76.36c0,-8.73 -0.72,-15.28 -2.42,-19.64 -1.7,-4.12 -4.61,-7.76 -8.73,-10.18 -4.36,-2.67 -9.21,-3.88 -15.03,-3.88 -8.97,0 -16.73,2.91 -23.27,8.73 -6.54,5.57 -9.94,16.48 -9.94,32.73l0 68.6 -21.33 0zm134.78 -149.33l0 -24.24 21.34 0 0 24.24 -21.34 0zm0 149.33l0 -125.82 21.34 0 0 125.82 -21.34 0zm45.33 -37.58l21.09 -3.39c1.22,8.48 4.61,14.79 9.94,19.39 5.33,4.61 13.09,6.79 22.79,6.79 9.7,0 16.97,-1.94 21.82,-6.06 4.6,-3.88 7.03,-8.49 7.03,-14.06 0,-4.6 -2.18,-8.49 -6.31,-11.15 -3.15,-1.94 -10.42,-4.36 -21.81,-7.27 -15.76,-3.88 -26.43,-7.28 -32.49,-10.19 -6.06,-2.91 -10.66,-7.02 -13.81,-12.12 -2.91,-4.85 -4.61,-10.66 -4.61,-16.72 0,-5.58 1.21,-10.67 3.88,-15.52 2.66,-4.85 6.06,-8.72 10.42,-11.88 3.39,-2.42 7.76,-4.6 13.58,-6.3 5.82,-1.7 11.88,-2.42 18.42,-2.42 9.7,0 18.43,1.45 25.94,4.36 7.51,2.67 12.85,6.54 16.48,11.39 3.4,4.85 6.06,11.4 7.27,19.64l-20.84 2.91c-0.97,-6.55 -3.64,-11.64 -8.25,-15.27 -4.36,-3.88 -10.9,-5.58 -19.14,-5.58 -9.7,0 -16.73,1.7 -20.85,4.85 -4.12,3.15 -6.31,7.03 -6.31,11.39 0,2.67 0.98,5.09 2.67,7.52 1.7,2.18 4.37,4.12 8,5.57 2.18,0.73 8.49,2.67 18.91,5.34 15.03,4.12 25.45,7.51 31.51,9.93 6.06,2.67 10.67,6.31 14.07,11.16 3.39,4.85 5.08,10.91 5.08,18.18 0,7.03 -1.93,13.81 -6.3,20.12 -4.12,6.3 -9.94,11.15 -17.94,14.55 -7.76,3.39 -16.48,5.08 -26.42,5.08 -16.24,0 -28.85,-3.39 -37.34,-10.18 -8.72,-6.79 -14.05,-16.72 -16.48,-30.06zm215.51 -3.15l22.06 2.91c-3.39,12.85 -9.94,22.79 -19.15,29.82 -9.45,7.03 -21.34,10.66 -35.88,10.66 -18.42,0 -32.97,-5.57 -43.63,-16.97 -10.91,-11.39 -16.24,-27.15 -16.24,-47.51 0,-21.09 5.33,-37.57 16.24,-49.21 10.9,-11.63 24.97,-17.45 42.42,-17.45 16.73,0 30.3,5.57 40.97,17.21 10.66,11.39 16,27.39 16,48.24 0,1.21 0,3.15 0,5.57l-93.82 0c0.73,13.82 4.61,24.25 11.64,31.76 7.03,7.27 15.76,10.91 26.42,10.91 7.76,0 14.3,-2.18 19.88,-6.3 5.57,-4.12 9.94,-10.67 13.09,-19.64zm-69.81 -34.18l70.05 0c-0.97,-10.66 -3.63,-18.42 -8,-23.76 -6.78,-8.24 -15.51,-12.36 -26.42,-12.36 -9.7,0 -17.94,3.15 -24.49,9.7 -6.78,6.54 -10.42,15.51 -11.14,26.42zm104.23 74.91l46.06 -65.21 -42.66 -60.61 26.18 0 19.88 29.58c3.63,5.57 6.54,10.18 8.72,13.82 3.64,-5.09 6.79,-9.7 9.7,-13.82l20.85 -29.58 26.18 0 -42.91 60.61 45.58 65.21 -25.94 0 -25.94 -38.79 -6.07 -9.46 -33.45 48.25 -26.18 0zm194.66 -37.58l21.09 -3.39c1.21,8.48 4.61,14.79 9.94,19.39 5.33,4.61 13.09,6.79 22.79,6.79 9.7,0 16.97,-1.94 21.82,-6.06 4.6,-3.88 7.02,-8.49 7.02,-14.06 0,-4.6 -2.17,-8.49 -6.3,-11.15 -3.15,-1.94 -10.42,-4.36 -21.81,-7.27 -15.76,-3.88 -26.43,-7.28 -32.49,-10.19 -6.06,-2.91 -10.66,-7.02 -13.82,-12.12 -2.91,-4.85 -4.6,-10.66 -4.6,-16.72 0,-5.58 1.21,-10.67 3.88,-15.52 2.66,-4.85 6.06,-8.72 10.42,-11.88 3.39,-2.42 7.76,-4.6 13.58,-6.3 5.82,-1.7 11.88,-2.42 18.42,-2.42 9.7,0 18.42,1.45 25.94,4.36 7.51,2.67 12.84,6.54 16.48,11.39 3.4,4.85 6.06,11.4 7.27,19.64l-20.84 2.91c-0.97,-6.55 -3.64,-11.64 -8.25,-15.27 -4.36,-3.88 -10.9,-5.58 -19.14,-5.58 -9.7,0 -16.73,1.7 -20.85,4.85 -4.12,3.15 -6.31,7.03 -6.31,11.39 0,2.67 0.97,5.09 2.67,7.52 1.69,2.18 4.37,4.12 8,5.57 2.18,0.73 8.49,2.67 18.91,5.34 15.03,4.12 25.45,7.51 31.51,9.93 6.06,2.67 10.67,6.31 14.06,11.16 3.4,4.85 5.09,10.91 5.09,18.18 0,7.03 -1.94,13.81 -6.3,20.12 -4.12,6.3 -9.94,11.15 -17.94,14.55 -7.76,3.39 -16.48,5.08 -26.42,5.08 -16.24,0 -28.85,-3.39 -37.34,-10.18 -8.72,-6.79 -14.06,-16.72 -16.48,-30.06zm211.87 21.82c-8,6.79 -15.51,11.39 -22.79,14.3 -7.27,2.67 -15.27,4.12 -23.51,4.12 -13.82,0 -24.48,-3.39 -32,-10.18 -7.51,-6.54 -11.15,-15.27 -11.15,-25.69 0,-6.06 1.46,-11.88 4.12,-16.97 2.91,-5.09 6.55,-8.97 11.15,-12.12 4.61,-3.15 9.7,-5.34 15.28,-7.03 4.36,-0.97 10.66,-2.19 19.14,-3.16 17.22,-1.94 29.82,-4.36 38.07,-7.27 0,-2.91 0,-4.85 0,-5.57 0,-8.73 -1.94,-14.79 -6.06,-18.19 -5.34,-4.84 -13.58,-7.27 -24.25,-7.27 -10.18,0 -17.45,1.7 -22.3,5.34 -4.85,3.39 -8.24,9.69 -10.66,18.66l-20.85 -2.91c1.94,-8.97 5.09,-16.24 9.45,-21.57 4.36,-5.58 10.67,-9.7 18.91,-12.85 8.24,-2.91 17.69,-4.36 28.6,-4.36 10.67,0 19.4,1.21 26.18,3.88 6.79,2.42 11.64,5.57 14.8,9.45 3.15,3.88 5.33,8.73 6.78,14.54 0.73,3.64 0.97,10.19 0.97,19.64l0 28.12c0,19.88 0.48,32.24 1.46,37.58 0.72,5.33 2.42,10.42 5.08,15.27l-22.3 0c-2.18,-4.61 -3.39,-9.7 -4.12,-15.76zm-1.69 -47.27c-7.76,3.15 -19.4,5.82 -34.91,8 -8.73,1.21 -15.03,2.67 -18.67,4.12 -3.63,1.7 -6.3,3.88 -8.48,7.03 -1.94,2.91 -2.91,6.3 -2.91,9.94 0,5.82 2.18,10.42 6.54,14.3 4.37,3.64 10.67,5.58 18.91,5.58 8.24,0 15.52,-1.7 21.82,-5.33 6.55,-3.64 11.15,-8.49 14.06,-14.79 2.42,-4.61 3.64,-11.88 3.64,-21.09l0 -7.76zm53.81 63.03l0 -173.57 21.33 0 0 173.57 -21.33 0zm46.3 -63.03c0,-23.03 6.55,-40.24 19.39,-51.64 10.91,-9.21 24.01,-13.81 39.52,-13.81 17.45,0 31.51,5.57 42.42,16.96 10.91,11.16 16.49,26.91 16.49,46.79 0,16.25 -2.43,28.85 -7.28,38.06 -4.84,9.21 -11.87,16.49 -21.08,21.58 -9.46,5.33 -19.4,7.75 -30.55,7.75 -17.45,0 -31.76,-5.57 -42.67,-16.97 -10.91,-11.14 -16.24,-27.39 -16.24,-48.72zm21.82 0.24c0,16 3.63,28.12 10.67,35.88 7.03,8 15.75,12.12 26.42,12.12 10.67,0 19.39,-4.12 26.66,-12.12 7.04,-8 10.43,-20.12 10.43,-36.61 0,-15.51 -3.64,-27.39 -10.67,-35.39 -7.03,-8 -15.75,-11.88 -26.42,-11.88 -10.67,0 -19.39,3.88 -26.42,11.88 -7.04,8 -10.67,19.88 -10.67,36.12zm120.96 62.79l0 -125.82 19.16 0 0 17.94c9.21,-13.82 22.54,-20.6 40,-20.6 7.51,0 14.54,1.45 20.84,4.12 6.3,2.66 11.15,6.3 14.31,10.66 3.15,4.37 5.33,9.7 6.54,15.76 0.73,3.88 1.21,10.91 1.21,20.61l0 77.33 -21.33 0 0 -76.36c0,-8.73 -0.73,-15.28 -2.42,-19.64 -1.7,-4.12 -4.61,-7.76 -8.73,-10.18 -4.36,-2.67 -9.21,-3.88 -15.03,-3.88 -8.97,0 -16.73,2.91 -23.27,8.73 -6.55,5.57 -9.94,16.48 -9.94,32.73l0 68.6 -21.34 0zm301.57 -20.61c-7.03,7.76 -14.79,13.58 -23.03,17.46 -8.24,3.88 -17.21,5.81 -26.91,5.81 -17.69,0 -32,-6.06 -42.42,-17.93 -8.24,-9.7 -12.6,-20.61 -12.6,-32.73 0,-10.67 3.39,-20.36 10.42,-28.85 6.79,-8.72 17.21,-16.24 30.79,-22.78 -7.76,-8.97 -13.09,-16.25 -15.76,-22.07 -2.43,-5.57 -3.88,-10.91 -3.88,-16 0,-10.42 4.12,-19.63 12.36,-27.15 8,-7.75 18.43,-11.63 30.79,-11.63 11.88,0 21.58,3.63 29.09,10.91 7.76,7.27 11.39,16 11.39,26.18 0,16.48 -10.9,30.79 -32.96,42.42l31.51 39.27c3.39,-6.78 6.3,-14.79 8.24,-24l22.06 4.61c-3.88,15.27 -8.97,27.63 -15.51,37.33 8,10.42 17.21,19.39 27.15,26.43l-14.3 16.97c-8.49,-5.58 -17.46,-13.58 -26.43,-24.25zm-43.63 -90.18c9.21,-5.57 15.27,-10.18 17.93,-14.3 2.67,-4.12 4.13,-8.73 4.13,-13.82 0,-5.82 -1.94,-10.66 -5.58,-14.54 -3.88,-3.64 -8.48,-5.58 -14.06,-5.58 -5.82,0 -10.67,1.94 -14.54,5.58 -3.89,3.63 -5.82,8.24 -5.82,13.57 0,2.67 0.72,5.58 2.18,8.49 1.21,3.15 3.39,6.3 6.06,9.45l9.7 11.15zm30.06 73.45l-39.03 -48.48c-11.4,6.79 -19.16,13.09 -23.28,19.15 -4.11,5.82 -6.06,11.64 -6.06,17.21 0,7.04 2.91,14.31 8.49,21.82 5.58,7.52 13.33,11.4 23.76,11.4 6.3,0 12.85,-1.94 19.63,-5.82 6.79,-3.88 12.36,-8.97 16.49,-15.28z"/>
   <path class="fil2" d="M1989.56 2085.7l67.31 -175.46 25.53 0 71.43 175.46 -26.42 0 -20.3 -53.18 -73.89 0 -19.03 53.18 -24.63 0zm50.48 -72.05l59.8 0 -18.3 -48.64c-5.51,-14.79 -9.68,-27 -12.58,-36.64 -2.41,11.44 -5.64,22.67 -9.68,33.78l-19.24 51.5zm212.6 25.49l21.07 2.94c-2.33,14.5 -8.21,25.81 -17.73,34.02 -9.51,8.21 -21.23,12.3 -35.08,12.3 -17.36,0 -31.33,-5.68 -41.87,-17.03 -10.57,-11.36 -15.84,-27.62 -15.84,-48.77 0,-13.72 2.28,-25.69 6.82,-35.98 4.53,-10.26 11.44,-17.98 20.75,-23.08 9.27,-5.15 19.35,-7.72 30.3,-7.72 13.77,0 25.08,3.47 33.82,10.46 8.78,6.98 14.42,16.9 16.87,29.73l-20.83 3.19c-2,-8.54 -5.51,-14.96 -10.62,-19.28 -5.06,-4.29 -11.19,-6.46 -18.38,-6.46 -10.87,0 -19.69,3.88 -26.51,11.65 -6.78,7.79 -10.17,20.05 -10.17,36.88 0,17.07 3.27,29.45 9.8,37.16 6.58,7.72 15.12,11.6 25.61,11.6 8.5,0 15.57,-2.57 21.2,-7.76 5.68,-5.14 9.28,-13.11 10.79,-23.85zm122.53 30.63c-8.01,6.82 -15.73,11.6 -23.12,14.42 -7.39,2.82 -15.32,4.21 -23.81,4.21 -13.97,0 -24.71,-3.39 -32.23,-10.21 -7.51,-6.78 -11.27,-15.48 -11.27,-26.06 0,-6.21 1.43,-11.89 4.25,-17.04 2.86,-5.14 6.57,-9.23 11.15,-12.33 4.61,-3.1 9.76,-5.47 15.52,-7.07 4.25,-1.1 10.66,-2.16 19.19,-3.22 17.4,-2.04 30.27,-4.53 38.48,-7.39 0.08,-2.95 0.12,-4.82 0.12,-5.6 0,-8.74 -2.04,-14.91 -6.12,-18.5 -5.52,-4.86 -13.73,-7.27 -24.59,-7.27 -10.17,0 -17.69,1.8 -22.51,5.35 -4.86,3.55 -8.41,9.84 -10.74,18.91l-21.07 -2.94c1.91,-9.03 5.06,-16.34 9.47,-21.89 4.41,-5.56 10.78,-9.81 19.12,-12.83 8.29,-2.98 17.97,-4.49 28.91,-4.49 10.87,0 19.73,1.26 26.55,3.84 6.78,2.57 11.81,5.76 14.99,9.64 3.19,3.88 5.43,8.78 6.74,14.7 0.69,3.68 1.06,10.29 1.06,19.81l0 28.59c0,19.97 0.45,32.6 1.35,37.94 0.86,5.36 2.65,10.46 5.27,15.36l-22.55 0c-2.16,-4.53 -3.55,-9.84 -4.16,-15.93zm-1.72 -47.78c-7.84,3.18 -19.6,5.88 -35.29,8.08 -8.9,1.27 -15.19,2.7 -18.87,4.29 -3.67,1.59 -6.49,3.92 -8.49,6.94 -2,3.07 -3.02,6.46 -3.02,10.21 0,5.68 2.16,10.46 6.53,14.26 4.37,3.8 10.74,5.72 19.12,5.72 8.29,0 15.68,-1.8 22.17,-5.43 6.46,-3.6 11.23,-8.54 14.26,-14.79 2.33,-4.86 3.47,-12.01 3.47,-21.44l0.12 -7.84zm137.03 63.71l0 -16.13c-8.04,12.54 -19.89,18.83 -35.53,18.83 -10.13,0 -19.44,-2.78 -27.9,-8.38 -8.49,-5.55 -15.07,-13.35 -19.77,-23.32 -4.66,-10 -6.98,-21.48 -6.98,-34.47 0,-12.66 2.12,-24.14 6.33,-34.47 4.25,-10.3 10.58,-18.22 19.03,-23.69 8.41,-5.51 17.89,-8.25 28.31,-8.25 7.67,0 14.5,1.63 20.46,4.86 5.96,3.22 10.82,7.48 14.58,12.66l0 -63.1 21.56 0 0 175.46 -20.09 0zm-68.13 -63.43c0,16.26 3.43,28.39 10.34,36.43 6.86,8.05 14.99,12.05 24.34,12.05 9.43,0 17.44,-3.84 24.06,-11.52 6.57,-7.67 9.88,-19.4 9.88,-35.16 0,-17.32 -3.35,-30.06 -10.09,-38.19 -6.7,-8.13 -14.99,-12.17 -24.83,-12.17 -9.6,0 -17.61,3.88 -24.06,11.68 -6.41,7.8 -9.64,20.1 -9.64,36.88zm209.08 22.26l22.3 2.94c-3.47,12.95 -9.97,23.04 -19.44,30.19 -9.48,7.14 -21.57,10.74 -36.31,10.74 -18.54,0 -33.25,-5.72 -44.11,-17.16 -10.87,-11.39 -16.3,-27.45 -16.3,-48.07 0,-21.32 5.47,-37.9 16.46,-49.67 10.99,-11.8 25.24,-17.68 42.77,-17.68 16.95,0 30.79,5.76 41.53,17.32 10.74,11.56 16.14,27.81 16.14,48.76 0,1.27 -0.05,3.19 -0.13,5.72l-94.71 0c0.81,13.93 4.73,24.63 11.84,32.02 7.07,7.4 15.93,11.11 26.51,11.11 7.88,0 14.62,-2.08 20.17,-6.25 5.6,-4.16 10.01,-10.82 13.28,-19.97zm-70.58 -34.55l70.83 0c-0.94,-10.7 -3.68,-18.71 -8.13,-24.06 -6.82,-8.29 -15.73,-12.46 -26.63,-12.46 -9.89,0 -18.18,3.31 -24.92,9.93 -6.7,6.62 -10.41,15.48 -11.15,26.59zm120.12 75.72l0 -127.18 19.36 0 0 17.97c3.96,-6.21 9.27,-11.24 15.89,-14.99 6.62,-3.8 14.13,-5.68 22.59,-5.68 9.39,0 17.11,1.96 23.11,5.84 6.01,3.92 10.25,9.35 12.71,16.38 10.12,-14.83 23.24,-22.22 39.41,-22.22 12.66,0 22.42,3.47 29.2,10.46 6.83,6.98 10.25,17.72 10.25,32.22l0 87.2 -21.56 0 0 -80.05c0,-8.58 -0.73,-14.79 -2.13,-18.59 -1.38,-3.79 -3.92,-6.82 -7.63,-9.14 -3.68,-2.33 -8.01,-3.48 -12.95,-3.48 -8.99,0 -16.42,2.99 -22.34,8.91 -5.93,5.96 -8.86,15.48 -8.86,28.55l0 73.8 -21.57 0 0 -82.54c0,-9.56 -1.76,-16.75 -5.27,-21.53 -3.51,-4.78 -9.27,-7.19 -17.23,-7.19 -6.05,0 -11.64,1.6 -16.79,4.78 -5.15,3.19 -8.86,7.84 -11.19,14.01 -2.29,6.13 -3.43,14.99 -3.43,26.55l0 65.92 -21.57 0zm203.16 48.89l-2.45 -19.93c4.74,1.26 8.82,1.92 12.33,1.92 4.82,0 8.66,-0.82 11.52,-2.41 2.9,-1.59 5.27,-3.84 7.11,-6.7 1.34,-2.16 3.55,-7.51 6.57,-16.09 0.41,-1.19 1.02,-2.94 1.92,-5.27l-48.27 -127.59 23.03 0 26.55 73.43c3.47,9.27 6.54,19.08 9.27,29.37 2.49,-9.68 5.43,-19.24 8.86,-28.63l27.12 -74.17 21.53 0 -48.07 129.39c-5.19,13.92 -9.24,23.48 -12.14,28.75 -3.83,7.07 -8.25,12.25 -13.19,15.56 -4.98,3.31 -10.9,4.95 -17.76,4.95 -4.17,0 -8.82,-0.86 -13.93,-2.58z"/>
  </g>
 </g>
</svg>
