<?xml version="1.0" encoding="UTF-8"?>
<!DOCTYPE svg PUBLIC "-//W3C//DTD SVG 1.1//EN" "http://www.w3.org/Graphics/SVG/1.1/DTD/svg11.dtd">
<!-- Creator: CorelDRAW 2021 (64-Bit) -->
<svg xmlns="http://www.w3.org/2000/svg" xml:space="preserve" width="33.8666mm" height="33.8666mm" version="1.1" style="shape-rendering:geometricPrecision; text-rendering:geometricPrecision; image-rendering:optimizeQuality; fill-rule:evenodd; clip-rule:evenodd"
viewBox="0 0 3386.66 3386.66"
 xmlns:xlink="http://www.w3.org/1999/xlink"
 xmlns:xodm="http://www.corel.com/coreldraw/odm/2003">
 <defs>
  <style type="text/css">
   <![CDATA[
    .fil0 {fill:#003E63}
   ]]>
  </style>
 </defs>
 <g id="Layer_x0020_1">
  <metadata id="CorelCorpID_0Corel-Layer"/>
  <g id="_1357539553920">
   <path class="fil0" d="M1510.56 1541.84c-9.95,-9.2 -42.07,-0.99 -74.72,10.99l0 -56.47 0 -120.54 -90.1 33.3 0 190.46c-58.75,31.05 -117.27,62.02 -162.96,86.11l0 -109.67 0 -79.66 0 -120.54 -90.1 33.3 0 323.13 -6.96 3.02c-45.26,24.01 -76.14,44.8 -91.62,37.98 -17.25,-7.59 -15.34,-51.3 -11.63,-89.7 0.14,-3.13 0.28,-6.25 0.47,-9.4 0.56,-9.08 1.16,-19.37 1.8,-30.87 0.64,-11.5 1.33,-20.9 2.06,-28.19 0.72,-7.29 1.3,-13.57 1.72,-18.82 0.41,-5.26 0.52,-8.98 0.32,-11.16 -1.36,-14.73 -5.37,-26 -12,-33.81 -6.65,-7.82 -14.95,-11.26 -24.9,-10.34 -9.94,0.92 -18.81,3.75 -26.6,8.47 -7.79,4.75 -14.38,12.77 -19.75,24.11 -1.16,2.52 -2.92,6.4 -5.24,11.62 -2.33,5.25 -4.88,11.24 -7.66,18.02 -2.79,6.79 -5.79,13.89 -9.03,21.31 -3.21,7.43 -6.09,15.87 -8.63,25.34 -2.54,9.47 -4.88,16.75 -7.01,21.87 -2.13,5.11 -3.7,8.81 -4.68,11.11l-5.97 0.56c-0.13,-1.4 -0.08,-4.16 0.12,-8.29 0.23,-4.13 0.4,-10.38 0.54,-18.72 0.13,-8.33 0.39,-15.79 0.78,-22.35 0.4,-6.55 0.77,-12.9 1.1,-19.07 0.34,-6.14 0.56,-11.78 0.7,-16.91 0.12,-5.13 0.05,-9.19 -0.23,-12.17 -1.02,-10.95 -3.92,-19.51 -8.7,-25.69 -4.78,-6.18 -12.55,-8.77 -23.29,-7.77 -10.75,0.99 -18.97,4.86 -24.66,11.61 -5.7,6.75 -9.22,14.8 -10.56,24.16 -1.71,11.99 -3.28,26.39 -4.73,43.18 -1.46,16.79 -2.43,35.6 -2.9,56.41 -0.49,20.82 -0.73,39.91 -0.72,57.26l0 0.27c-7.1,7.45 -14.36,14.72 -21.8,21.8 -8.29,7.9 -16.6,14.73 -24.88,20.52 -8.31,5.79 -16.04,9.01 -23.19,9.67 -6.17,0.57 -10.5,-1.69 -12.97,-6.77 -2.49,-5.08 -4.14,-12.11 -4.97,-21.06 -0.84,-9.15 -0.35,-19.44 1.47,-30.9 1.83,-11.45 3.15,-22.94 3.98,-34.45 0.83,-11.51 3.07,-25.54 6.7,-42.09 3.64,-16.54 6.29,-30.05 7.96,-40.51 1.67,-10.46 3.15,-19.79 4.46,-27.97 1.3,-8.2 1.75,-14.47 1.34,-18.85 -0.48,-5.17 -2.33,-9.16 -5.55,-11.97 -3.22,-2.81 -8.93,-3.84 -17.14,-3.08 -4.49,0.41 -9.47,1.44 -14.94,3.05 -5.47,1.64 -10.69,3.84 -15.66,6.63 -4.96,2.79 -9.32,6.19 -13.1,10.19 -4.12,4.45 -6.44,9.23 -6.95,14.35 -1.1,7.33 -4.34,23.24 -9.69,47.7 -5.44,29.9 -9.11,49.24 -11.04,57.99 -1.24,4.42 -3.13,24.18 -5.66,59.29 -1.24,16.96 -1.28,31.72 -0.11,44.25 0.83,8.95 2.53,17.08 5.11,24.37 2.58,7.28 6.3,13.31 11.15,18.08 4.86,4.76 10.95,8.27 18.29,10.5 7.33,2.23 16.17,2.86 26.51,1.91 11.55,-1.08 23.54,-4.3 35.98,-9.66 12.45,-5.37 24.54,-11.76 36.3,-19.17 11.59,-7.32 22.31,-15.12 32.15,-23.45 0.47,2.75 0.98,5.45 1.55,8.11 1.59,7.37 4,13.87 7.22,19.49 3.24,5.64 7.5,9.95 12.8,12.98 5.29,3.01 12.02,4.14 20.17,3.39 6.58,-0.61 12.2,-2.63 16.91,-6.08 4.5,-3.22 8.47,-9.21 11.87,-17.96l63.83 -162.44 5.97 -15.52 -1.19 15.07c-0.92,16.15 -1.54,31.21 -1.85,45.18 -0.31,13.98 0,26.95 1.2,38.87 1.31,12.97 -0.31,24.88 2.78,40.14 1.52,8.93 3.03,17.86 4.58,26.78 0.85,4.97 2.8,9.84 4.72,14.55 2.39,5.95 8.47,10.57 14.35,13.47 1.34,0.62 2.64,1.28 4.1,1.63 8.5,2.05 16.31,0.01 23.68,-4.1 7.71,-4.3 15.27,-8.84 22.86,-13.35 15.31,-9.08 30.6,-18.2 45.86,-27.35 14.24,-8.54 28.5,-17.07 42.7,-25.69l0 54.92 90.1 0 0 -105.2c45,-24.64 103.59,-56.61 162.96,-89.03l0 194.23 90.1 0 0 -243.46c27.06,-14.81 52.82,-28.9 75.84,-41.55 -0.37,-0.29 -0.73,-0.55 -1.12,-0.9zm623.42 -42.64l-80.78 31.46 0 170.69c-25.35,38.83 -51.68,58.23 -78.98,58.23 -24.38,0 -36.57,-18.23 -36.57,-54.7l0 -205.68 -3.37 0 -83.22 32.41 0 194.62c0,31.4 8.29,56.16 24.87,74.31 16.57,18.13 39.19,27.21 67.87,27.21 44.86,0 81.32,-22.63 109.4,-67.88l0 60.57 86.59 0 0 -321.24 -5.81 0zm430.07 129.02l115.27 0c0,-54.81 -17.67,-82.21 -52.95,-82.21 -35.89,0 -56.67,27.4 -62.32,82.21zm200.39 181.38c-41.15,12.1 -80.15,18.15 -117.01,18.15 -53.64,0 -95.95,-15.22 -126.97,-45.65 -31,-30.42 -46.51,-71.97 -46.51,-124.63 0,-49.73 14.19,-89.76 42.57,-120.09 28.38,-30.32 65.86,-45.49 112.48,-45.49 47,0 81.32,14.82 102.98,44.47 21.64,29.65 32.46,76.55 32.46,140.72l-199.22 0c5.86,61.25 39.49,91.86 100.93,91.86 29.06,0 61.82,-6.73 98.29,-20.19l0 60.85zm-566.83 0.59l0 -63.48c42.9,17.95 79.58,26.91 109.99,26.91 35.5,0 53.24,-12.09 53.24,-36.28 0,-15.59 -14.62,-29.25 -43.88,-40.95l-29.25 -11.71c-31.79,-12.87 -54.52,-26.72 -68.16,-41.54 -13.65,-14.82 -20.48,-33.16 -20.48,-55 0,-30.42 11.6,-54.07 34.82,-70.94 23.21,-16.87 55.67,-25.31 97.4,-25.31 26.14,0 57.24,3.8 93.32,11.41l0 60.85c-34.7,-12.09 -63.47,-18.14 -86.29,-18.14 -35.88,0 -53.83,11.12 -53.83,33.35 0,14.63 13.27,27.03 39.78,37.15l25.17 9.66c37.63,14.24 63.81,28.68 78.55,43.3 14.72,14.63 22.08,33.46 22.08,56.47 0,30.23 -12.54,54.76 -37.6,73.57 -25.06,18.83 -57.67,28.24 -97.85,28.24 -38.61,0 -77.62,-5.85 -117.01,-17.56zm-547.42 -36.57c49.74,0 74.6,-38.12 74.6,-114.39 0,-34.91 -6.59,-62.51 -19.75,-82.79 -13.17,-20.29 -31.25,-30.43 -54.27,-30.43 -22.81,0 -40.8,10.14 -53.97,30.43 -13.16,20.28 -19.75,48.08 -19.75,83.38 0,34.92 6.54,62.6 19.6,83.08 13.07,20.48 30.91,30.72 53.54,30.72zm-1.46 54.12c-50.13,0 -89.96,-15.16 -119.51,-45.49 -29.53,-30.33 -44.31,-71.13 -44.31,-122.43 0,-51.88 14.87,-92.84 44.61,-122.87 29.74,-30.04 70.17,-45.06 121.25,-45.06 51.3,0 91.81,15.02 121.55,45.06 29.74,30.03 44.61,70.79 44.61,122.28 0,52.66 -14.91,93.91 -44.76,123.76 -29.83,29.83 -70.98,44.75 -123.44,44.75zm-997.4 -346.79c-0.43,-4.62 0.08,-9.94 1.53,-15.94 1.45,-6.02 4.18,-11.79 8.18,-17.32 4.01,-5.54 9.57,-10.41 16.7,-14.61 7.14,-4.22 16.28,-6.83 27.42,-7.86 6.97,-0.66 13.61,-0.46 19.92,0.58 6.31,1.03 11.91,3.01 16.8,5.89 4.88,2.89 8.92,6.92 12.11,12.1 3.19,5.17 5.13,11.47 5.81,18.9 0.64,6.83 0.16,13.56 -1.43,20.18 -1.6,6.64 -4.55,12.69 -8.86,18.14 -4.31,5.48 -9.96,10.1 -16.93,13.89 -6.98,3.79 -15.54,6.14 -25.68,7.08 -17.51,1.62 -30.82,-1.34 -39.96,-8.91 -9.13,-7.55 -14.33,-18.26 -15.61,-32.12z"/>
   <path class="fil0" d="M2729.93 1928.83c-3.85,0 -7.27,0.63 -10.3,1.88 -3.02,1.25 -5.66,3.11 -7.94,5.61 -2.29,2.56 -4.13,5.69 -5.48,9.41 -1.18,3.19 -2.01,6.83 -2.46,10.91l48.32 0c-0.12,-4.02 -0.62,-7.63 -1.5,-10.82 -1,-3.64 -2.49,-6.77 -4.47,-9.37l-0.01 0c-1.94,-2.54 -4.25,-4.45 -6.91,-5.71 -2.69,-1.28 -5.77,-1.91 -9.25,-1.91zm2.25 82.02c-6.39,0 -12.12,-1.01 -17.16,-3.02 -5.08,-2.03 -9.44,-5.08 -13.09,-9.15 -3.63,-4.04 -6.34,-8.89 -8.15,-14.52 -1.8,-5.58 -2.69,-11.93 -2.69,-19.02 0,-7.01 0.87,-13.35 2.58,-19.02 1.75,-5.73 4.36,-10.74 7.83,-15.05 3.51,-4.35 7.65,-7.61 12.43,-9.8 4.74,-2.17 10.08,-3.26 16,-3.26 5.26,0 9.99,0.94 14.19,2.82 4.22,1.89 7.87,4.7 10.94,8.46 0.03,0.04 0.06,0.08 0.08,0.12 3.02,3.69 5.28,8.02 6.78,12.98 1.49,4.97 2.24,10.58 2.24,16.82l0 6.33c0,1.08 -0.87,1.95 -1.94,1.95l-59.1 0c0.17,4.88 0.84,9.23 2,13.06 1.28,4.24 3.16,7.81 5.64,10.71l0.02 0.03c2.46,2.84 5.45,4.98 8.97,6.42 3.58,1.44 7.72,2.18 12.43,2.18 2.34,0 4.51,-0.09 6.53,-0.26 2.11,-0.16 4.08,-0.42 5.9,-0.74l0.09 -0.01c1.76,-0.34 3.75,-0.86 5.95,-1.55 2.2,-0.71 4.69,-1.62 7.48,-2.75 1,-0.4 2.12,0.07 2.52,1.06 0.11,0.24 0.15,0.49 0.15,0.73l0 0 0 7.11c0,0.83 -0.52,1.53 -1.26,1.8 -2.36,1.05 -4.64,1.93 -6.85,2.64 -2.34,0.76 -4.58,1.35 -6.73,1.77 -0.05,0.01 -0.09,0.01 -0.15,0.02 -2.06,0.38 -4.22,0.66 -6.45,0.85 -2.3,0.19 -4.69,0.29 -7.18,0.29zm-96.69 -81.86c-4.34,0 -8.12,0.75 -11.32,2.26 -3.18,1.49 -5.83,3.75 -7.95,6.76l-0.06 0.07c-2.15,3.07 -3.79,6.85 -4.88,11.35 -1.12,4.6 -1.68,9.97 -1.68,16.1 0,11.71 2.2,20.43 6.59,26.15 4.27,5.57 10.76,8.35 19.45,8.35 4.56,0 8.47,-0.65 11.74,-1.97 3.19,-1.27 5.79,-3.19 7.83,-5.74 2.05,-2.59 3.6,-6.06 4.65,-10.42 1.07,-4.46 1.61,-9.87 1.61,-16.21l0 -1.33c0,-6.51 -0.54,-12.05 -1.6,-16.67 -1.04,-4.5 -2.56,-8.09 -4.59,-10.77l-0.03 -0.05c-1.98,-2.58 -4.57,-4.54 -7.78,-5.85 -3.31,-1.35 -7.31,-2.03 -11.98,-2.03zm0 -10.99c3.2,0 6.19,0.3 8.99,0.9 2.81,0.6 5.41,1.51 7.81,2.71 2.41,1.22 4.68,2.86 6.83,4.93 0.89,0.86 1.76,1.8 2.61,2.82 -0.05,-1.41 -0.09,-2.82 -0.13,-4.23 -0.08,-3.44 -0.13,-6.68 -0.13,-9.67l0 -30.85c0,-1.07 0.87,-1.94 1.93,-1.94l7.66 0c1.07,0 1.94,0.87 1.94,1.94l0 122.73c0,1.07 -0.87,1.94 -1.94,1.94l-5.05 0c-1.01,0 -1.84,-0.76 -1.92,-1.76l-1.36 -9.07c-2.93,3.62 -6.33,6.46 -10.2,8.5 -4.91,2.6 -10.54,3.9 -16.89,3.9 -6.09,0 -11.5,-0.97 -16.21,-2.91 -4.77,-1.97 -8.8,-4.91 -12.09,-8.83l-0.04 -0.05c-3.25,-3.86 -5.68,-8.6 -7.3,-14.21 -1.6,-5.55 -2.4,-11.94 -2.4,-19.16 0,-7.58 0.79,-14.28 2.37,-20.12 1.59,-5.91 4.02,-10.94 7.24,-15.06 3.28,-4.18 7.29,-7.32 12.04,-9.4 4.72,-2.07 10.14,-3.11 16.24,-3.11zm-57.82 91.27l-7.71 0c-1.06,0 -1.93,-0.87 -1.93,-1.95l0 -85.74c0,-1.07 0.87,-1.93 1.93,-1.93l7.71 0c1.07,0 1.94,0.86 1.94,1.93l0 85.74c0,1.08 -0.87,1.95 -1.94,1.95zm-10.78 -111.49c0,-2.91 0.53,-5.16 1.57,-6.74 1.21,-1.84 2.99,-2.76 5.32,-2.76 1.12,0 2.12,0.23 3.04,0.72 0.91,0.47 1.67,1.15 2.32,2.07l0.04 0.06c0.57,0.83 1,1.83 1.28,2.98 0.26,1.09 0.4,2.32 0.4,3.67 0,1.32 -0.14,2.52 -0.4,3.62 -0.28,1.15 -0.71,2.17 -1.28,3.04l-0.02 0.02c-0.64,0.94 -1.4,1.65 -2.31,2.15 -0.92,0.5 -1.95,0.76 -3.07,0.76 -2.33,0 -4.11,-0.94 -5.32,-2.81l0 0 -0.01 0c-1.03,-1.6 -1.56,-3.86 -1.56,-6.78zm-15.24 87.23c0,4.13 -0.78,7.81 -2.37,11.04 -1.59,3.25 -3.97,5.99 -7.12,8.23l-0.06 0.05c-3.07,2.19 -6.75,3.82 -11.05,4.91 -4.25,1.07 -9.1,1.61 -14.56,1.61 -5.8,0 -11.01,-0.46 -15.64,-1.36 -4.67,-0.91 -8.76,-2.29 -12.26,-4.17 -0.65,-0.35 -1.02,-1.01 -1.02,-1.7l-0.01 0 0 -8.42c0,-1.07 0.87,-1.94 1.94,-1.94 0.36,0 0.71,0.11 1,0.28 4.08,2.05 8.29,3.59 12.58,4.62 4.33,1.04 8.8,1.56 13.41,1.56 4.06,0 7.61,-0.34 10.63,-1.01 2.94,-0.65 5.39,-1.62 7.36,-2.9l0.09 -0.05c1.87,-1.23 3.27,-2.62 4.19,-4.21 0.9,-1.56 1.36,-3.36 1.36,-5.37 0,-1.87 -0.37,-3.57 -1.1,-5.12 -0.75,-1.57 -1.89,-2.99 -3.41,-4.27l-0.04 -0.05c-1.59,-1.35 -3.73,-2.71 -6.42,-4.08 -2.79,-1.42 -6.12,-2.83 -9.96,-4.22l0 0 0 0c-4.29,-1.56 -7.95,-3.02 -10.97,-4.37 -3.08,-1.37 -5.5,-2.64 -7.3,-3.81l0 0 -0.01 0c-1.81,-1.19 -3.41,-2.46 -4.8,-3.82 -1.4,-1.36 -2.57,-2.81 -3.53,-4.34l0 -0.02 -0.01 0c-0.98,-1.58 -1.71,-3.34 -2.19,-5.24 -0.48,-1.88 -0.7,-3.91 -0.7,-6.07 0,-3.5 0.74,-6.69 2.22,-9.53 1.48,-2.81 3.67,-5.25 6.6,-7.29 2.85,-2 6.26,-3.5 10.22,-4.48 3.87,-0.97 8.29,-1.46 13.21,-1.46 4.72,0 9.31,0.44 13.77,1.33 4.45,0.89 8.79,2.23 13.03,4.04 0.98,0.4 1.44,1.52 1.05,2.5l0 0 -2.88 7.08c-0.41,0.99 -1.53,1.47 -2.52,1.07l-0.08 -0.03c-4.05,-1.68 -7.92,-2.94 -11.65,-3.77 -3.7,-0.83 -7.28,-1.25 -10.72,-1.25 -3.32,0 -6.28,0.28 -8.88,0.83 -2.55,0.54 -4.76,1.34 -6.62,2.39l0 0c-1.74,1 -3.03,2.17 -3.86,3.49 -0.82,1.28 -1.23,2.76 -1.23,4.45 0,1.96 0.35,3.7 1.02,5.24 0.67,1.52 1.68,2.86 3.02,4.03 1.44,1.23 3.63,2.55 6.55,3.97 3.01,1.46 6.78,3 11.28,4.64 3.9,1.42 7.24,2.76 10.05,4.03 2.85,1.3 5.19,2.53 7.03,3.72 1.84,1.16 3.47,2.42 4.86,3.77 1.43,1.39 2.64,2.87 3.6,4.43l0.01 0.01 0.01 0c0.96,1.57 1.68,3.3 2.16,5.17 0.49,1.84 0.72,3.8 0.72,5.86zm-89.95 22.33l0 -55.61c0,-4.13 -0.43,-7.68 -1.28,-10.64 -0.81,-2.84 -2.01,-5.13 -3.6,-6.86l-0.09 -0.1c-1.56,-1.67 -3.56,-2.94 -6,-3.8 -2.56,-0.9 -5.62,-1.35 -9.17,-1.35 -4.87,0 -9.05,0.6 -12.54,1.83 -3.39,1.18 -6.16,2.95 -8.29,5.29l-0.09 0.1c-2.11,2.36 -3.7,5.46 -4.78,9.31 -1.12,4.02 -1.68,8.85 -1.68,14.49l0 47.34c0,1.07 -0.87,1.93 -1.94,1.93l-7.74 0c-1.07,0 -1.94,-0.86 -1.94,-1.93l0 -85.76c0,-1.07 0.87,-1.93 1.94,-1.93l6.56 0c1.03,0 1.89,0.82 1.93,1.86l0.93 7.3c2.64,-3.08 5.9,-5.51 9.77,-7.28 0.05,-0.02 0.11,-0.04 0.17,-0.06 5.13,-2.31 11.31,-3.46 18.55,-3.46 10.2,0 17.89,2.82 23.09,8.45 5.15,5.59 7.73,13.85 7.73,24.78l0 56.1c0,1.07 -0.87,1.93 -1.94,1.93l-7.66 0c-1.06,0 -1.93,-0.86 -1.93,-1.93zm-83.98 1.93l-7.72 0c-1.07,0 -1.93,-0.87 -1.93,-1.95l0 -85.74c0,-1.07 0.86,-1.93 1.93,-1.93l7.72 0c1.06,0 1.94,0.86 1.94,1.93l0 85.74c0,1.08 -0.88,1.95 -1.94,1.95zm-10.76 -111.49c0,-2.9 0.52,-5.15 1.54,-6.74 1.21,-1.84 2.98,-2.76 5.31,-2.76 1.12,0 2.14,0.23 3.05,0.7 0.91,0.48 1.69,1.18 2.33,2.1l0.01 0.01 0 0c0.57,0.84 1.01,1.85 1.29,3.02 0.27,1.1 0.4,2.32 0.4,3.67 0,1.31 -0.13,2.52 -0.4,3.61 -0.28,1.16 -0.71,2.18 -1.28,3.04l-0.06 0.09c-0.61,0.92 -1.37,1.61 -2.25,2.1 -0.06,0.03 -0.12,0.05 -0.18,0.08 -0.88,0.44 -1.85,0.67 -2.91,0.67 -2.33,0 -4.1,-0.94 -5.31,-2.81 -1.03,-1.59 -1.54,-3.85 -1.54,-6.78zm-72.31 109.56l0 -55.61c0,-4.13 -0.42,-7.68 -1.27,-10.64 -0.81,-2.84 -2.02,-5.13 -3.6,-6.86l-0.08 -0.1c-1.56,-1.67 -3.56,-2.94 -6,-3.8 -2.57,-0.9 -5.63,-1.35 -9.18,-1.35 -4.88,0 -9.05,0.6 -12.54,1.83 -3.39,1.18 -6.16,2.95 -8.3,5.29l-0.09 0.1c-2.1,2.36 -3.69,5.46 -4.77,9.32 -1.13,4.02 -1.68,8.85 -1.68,14.48l0 47.34c0,1.07 -0.88,1.93 -1.95,1.93l-7.73 0c-1.08,0 -1.94,-0.86 -1.94,-1.93l0 -85.76c0,-1.07 0.86,-1.93 1.94,-1.93l6.55 0c1.04,0 1.9,0.82 1.93,1.86l0.94 7.3c2.64,-3.08 5.89,-5.51 9.77,-7.27 5.17,-2.35 11.41,-3.53 18.72,-3.53 10.19,0 17.88,2.82 23.08,8.45 5.16,5.59 7.73,13.85 7.73,24.78l0 56.1c0,1.07 -0.87,1.93 -1.93,1.93l-7.66 0c-1.07,0 -1.94,-0.86 -1.94,-1.93zm-144.05 -42.98c0,11.36 2.43,20.12 7.29,26.36l0.01 0.01c2.37,3.05 5.22,5.34 8.55,6.86 3.35,1.53 7.22,2.3 11.62,2.3 4.4,0 8.27,-0.77 11.62,-2.3 3.35,-1.52 6.21,-3.81 8.59,-6.86 2.4,-3.1 4.21,-6.82 5.42,-11.16 1.23,-4.41 1.85,-9.47 1.85,-15.21 0,-5.76 -0.62,-10.83 -1.87,-15.24 -1.22,-4.35 -3.05,-8.04 -5.46,-11.11l-0.01 0.01c-2.4,-3.01 -5.27,-5.26 -8.61,-6.77 -3.38,-1.5 -7.27,-2.26 -11.69,-2.26 -4.41,0 -8.29,0.74 -11.64,2.25 -3.32,1.49 -6.15,3.73 -8.49,6.74 -2.38,3.03 -4.16,6.73 -5.36,11.08 -1.22,4.4 -1.82,9.51 -1.82,15.3zm66.92 0c0,7.17 -0.86,13.59 -2.61,19.26 -1.75,5.71 -4.38,10.65 -7.9,14.77 -3.55,4.16 -7.79,7.27 -12.7,9.34 -4.88,2.06 -10.4,3.09 -16.54,3.09 -3.89,0 -7.55,-0.47 -11.01,-1.42 -3.47,-0.96 -6.71,-2.39 -9.7,-4.31l-0.01 0 0 0c-3,-1.91 -5.65,-4.25 -7.94,-7 -2.27,-2.73 -4.21,-5.87 -5.8,-9.45l0 0c-1.58,-3.54 -2.75,-7.34 -3.53,-11.39 -0.78,-4.04 -1.17,-8.34 -1.17,-12.89 0,-7.17 0.88,-13.59 2.61,-19.25 1.76,-5.71 4.4,-10.63 7.92,-14.73 3.56,-4.13 7.77,-7.23 12.66,-9.3 4.85,-2.05 10.33,-3.07 16.42,-3.07 6.1,0 11.55,1.04 16.37,3.11 4.86,2.09 9.04,5.24 12.55,9.44 3.48,4.16 6.08,9.07 7.81,14.76 1.72,5.63 2.57,11.97 2.57,19.04zm-98.83 44.91l-7.71 0c-1.07,0 -1.94,-0.87 -1.94,-1.95l0 -85.74c0,-1.07 0.87,-1.93 1.94,-1.93l7.71 0c1.06,0 1.93,0.86 1.93,1.93l0 85.74c0,1.08 -0.87,1.95 -1.93,1.95zm-10.77 -111.49c0,-2.9 0.51,-5.15 1.54,-6.74 1.2,-1.84 2.97,-2.76 5.3,-2.76 1.12,0 2.15,0.23 3.06,0.72 0.92,0.47 1.68,1.17 2.31,2.08 0.59,0.85 1.03,1.86 1.31,3.03 0.26,1.09 0.4,2.32 0.4,3.67 0,1.32 -0.14,2.52 -0.4,3.62 -0.28,1.15 -0.71,2.17 -1.29,3.04 -0.62,0.95 -1.38,1.66 -2.3,2.17 -0.92,0.5 -1.95,0.76 -3.09,0.76 -2.34,0 -4.11,-0.94 -5.31,-2.81 -1.02,-1.59 -1.53,-3.86 -1.53,-6.78zm-26.49 102.25c2.38,0 4.58,-0.1 6.58,-0.3 2.09,-0.21 4.02,-0.52 5.79,-0.91 1.04,-0.25 2.08,0.41 2.31,1.45 0.03,0.15 0.05,0.29 0.05,0.43l0 0 0 6.33c0,0.89 -0.6,1.64 -1.41,1.87 -1.94,0.64 -4.05,1.12 -6.31,1.43 -2.26,0.33 -4.65,0.49 -7.15,0.49 -3.98,0 -7.45,-0.54 -10.43,-1.63 -3.07,-1.11 -5.61,-2.81 -7.61,-5.08l0 0 -0.01 0c-1.97,-2.24 -3.45,-5.1 -4.42,-8.56 -0.94,-3.36 -1.41,-7.28 -1.41,-11.78l0 -53.44 -10.62 0c-1.07,0 -1.94,-0.87 -1.94,-1.93l0 -4.6c0,-0.94 0.66,-1.71 1.54,-1.9l11.3 -3.19 3.66 -18.23c0.19,-0.92 1,-1.56 1.9,-1.55l0 -0.01 3.98 0c1.07,0 1.93,0.87 1.93,1.93l0 18.81 22.93 0c1.08,0 1.95,0.87 1.95,1.94l0 6.8c0,1.06 -0.87,1.93 -1.95,1.93l-22.93 0 0 52.3c0,3.15 0.28,5.87 0.82,8.15 0.52,2.19 1.27,3.96 2.25,5.33l0.04 0.05c0.93,1.26 2.13,2.21 3.59,2.86 1.54,0.67 3.4,1.01 5.57,1.01zm-106.37 -78.44l0 55.54c0,4.12 0.42,7.66 1.26,10.62 0.83,2.85 2.03,5.14 3.61,6.87l0 0.01 0.01 -0.01c1.57,1.73 3.6,3.03 6.08,3.91 2.56,0.9 5.62,1.36 9.17,1.36 4.84,0 9.02,-0.61 12.5,-1.83 3.42,-1.18 6.2,-2.96 8.35,-5.3l0 -0.01 0 -0.01c2.17,-2.33 3.81,-5.45 4.91,-9.35 1.15,-4.01 1.72,-8.84 1.72,-14.47l0 -47.33c0,-1.07 0.86,-1.94 1.93,-1.94l7.65 0c1.07,0 1.94,0.87 1.94,1.94l0 85.75c0,1.07 -0.87,1.94 -1.94,1.94l-6.56 0c-1.01,0 -1.85,-0.79 -1.93,-1.79l-0.88 -7.44c-2.62,3.07 -5.87,5.49 -9.74,7.26 -5.17,2.36 -11.4,3.54 -18.71,3.54 -10.21,0 -17.93,-2.81 -23.14,-8.45 -5.18,-5.59 -7.77,-13.86 -7.77,-24.8l0 -56.01c0,-1.07 0.87,-1.94 1.94,-1.94l7.65 0c1.08,0 1.95,0.87 1.95,1.94zm-35.42 87.68l-7.71 0c-1.07,0 -1.94,-0.87 -1.94,-1.95l0 -122.73c0,-1.07 0.87,-1.94 1.94,-1.94l7.71 0c1.07,0 1.93,0.87 1.93,1.94l0 122.73c0,1.08 -0.86,1.95 -1.93,1.95zm-94.61 -44.91c0,5.74 0.61,10.8 1.84,15.21 1.22,4.34 3.03,8.05 5.45,11.15l0 0.01c2.37,3.05 5.22,5.34 8.55,6.86 3.35,1.53 7.22,2.3 11.62,2.3 4.4,0 8.28,-0.77 11.63,-2.3 3.34,-1.52 6.2,-3.81 8.58,-6.86 2.4,-3.1 4.22,-6.82 5.42,-11.16 1.23,-4.41 1.86,-9.47 1.86,-15.21 0,-5.76 -0.63,-10.83 -1.88,-15.24 -1.22,-4.35 -3.04,-8.04 -5.46,-11.11l0 0.01c-2.41,-3.01 -5.28,-5.26 -8.62,-6.77 -3.38,-1.5 -7.27,-2.26 -11.69,-2.26 -4.4,0 -8.28,0.74 -11.63,2.25 -3.33,1.49 -6.16,3.73 -8.5,6.74 -2.37,3.04 -4.16,6.73 -5.35,11.09 -1.22,4.41 -1.82,9.5 -1.82,15.29zm66.92 0c0,7.16 -0.87,13.58 -2.61,19.24 -1.75,5.73 -4.39,10.66 -7.9,14.78l0 0.01 0 0c-3.55,4.16 -7.79,7.27 -12.7,9.34 -4.89,2.06 -10.4,3.09 -16.56,3.09 -3.87,0 -7.55,-0.47 -11.01,-1.42 -3.46,-0.96 -6.7,-2.39 -9.69,-4.31l-0.01 0 0 0c-2.99,-1.91 -5.64,-4.26 -7.95,-7.03 -2.29,-2.74 -4.22,-5.89 -5.8,-9.43 -1.56,-3.52 -2.73,-7.31 -3.51,-11.38 -0.78,-4.04 -1.17,-8.34 -1.17,-12.89 0,-7.17 0.88,-13.6 2.61,-19.25 1.75,-5.71 4.39,-10.63 7.91,-14.73 3.56,-4.13 7.78,-7.23 12.66,-9.3 4.85,-2.05 10.33,-3.07 16.42,-3.07 6.09,0 11.55,1.04 16.38,3.11 4.85,2.09 9.03,5.24 12.55,9.44 3.47,4.16 6.08,9.07 7.81,14.76 1.71,5.63 2.57,11.97 2.57,19.04zm-90.36 20.65c0,4.13 -0.78,7.81 -2.36,11.04 -1.6,3.24 -3.96,5.99 -7.12,8.23l-0.06 0.05c-3.07,2.19 -6.76,3.82 -11.05,4.91 -4.26,1.07 -9.12,1.61 -14.57,1.61 -5.8,0 -11,-0.46 -15.63,-1.36 -4.68,-0.91 -8.76,-2.29 -12.27,-4.17 -0.65,-0.35 -1.02,-1.01 -1.02,-1.7l-0.01 0 0 -8.42c0,-1.07 0.87,-1.94 1.95,-1.94 0.36,0 0.69,0.11 0.99,0.28 4.09,2.05 8.28,3.59 12.58,4.63 4.33,1.03 8.8,1.55 13.41,1.55 4.07,0 7.61,-0.34 10.64,-1.01 2.93,-0.65 5.38,-1.62 7.35,-2.9l0.09 -0.05c1.87,-1.23 3.27,-2.62 4.19,-4.21 0.91,-1.56 1.37,-3.36 1.37,-5.37 0,-3.71 -1.51,-6.85 -4.5,-9.39l-0.05 -0.04c-1.59,-1.35 -3.74,-2.72 -6.43,-4.09 -2.79,-1.41 -6.11,-2.82 -9.96,-4.22 -4.29,-1.56 -7.95,-3.02 -10.97,-4.37 -3.07,-1.37 -5.5,-2.64 -7.29,-3.81l-0.01 0 -0.01 0c-1.81,-1.19 -3.41,-2.46 -4.79,-3.82 -1.41,-1.37 -2.59,-2.81 -3.54,-4.33l-0.05 -0.09c-0.97,-1.58 -1.68,-3.3 -2.16,-5.18 -0.46,-1.88 -0.69,-3.91 -0.69,-6.07 0,-3.5 0.74,-6.68 2.22,-9.53 1.49,-2.81 3.68,-5.25 6.6,-7.29 2.86,-2 6.26,-3.5 10.21,-4.48 3.89,-0.97 8.29,-1.46 13.22,-1.46 4.72,0 9.31,0.44 13.78,1.33 4.44,0.89 8.78,2.23 13.03,4.04 0.97,0.4 1.44,1.52 1.04,2.5l0 0 -2.87 7.08c-0.4,0.99 -1.53,1.47 -2.53,1.07l-0.06 -0.03c-4.05,-1.68 -7.94,-2.94 -11.67,-3.77 -3.7,-0.83 -7.27,-1.25 -10.72,-1.25 -3.32,0 -6.28,0.28 -8.87,0.83 -2.56,0.54 -4.76,1.34 -6.62,2.39 -1.74,0.99 -3.04,2.16 -3.87,3.49 -0.81,1.28 -1.22,2.76 -1.22,4.45 0,1.96 0.34,3.7 1.02,5.24 0.66,1.53 1.67,2.86 3.01,4.03 1.44,1.23 3.62,2.55 6.55,3.97 3.01,1.46 6.79,3 11.29,4.64 3.89,1.42 7.24,2.76 10.05,4.03 2.85,1.3 5.19,2.53 7.02,3.72 1.85,1.16 3.46,2.42 4.86,3.77 1.44,1.39 2.65,2.88 3.6,4.43l0.06 0.09c0.94,1.55 1.65,3.25 2.12,5.09 0.48,1.84 0.72,3.8 0.72,5.86z"/>
  </g>
 </g>
</svg>
