<?xml version="1.0" encoding="UTF-8"?>
<!DOCTYPE svg PUBLIC "-//W3C//DTD SVG 1.1//EN" "http://www.w3.org/Graphics/SVG/1.1/DTD/svg11.dtd">
<!-- Creator: CorelDRAW 2021 (64-Bit) -->
<svg xmlns="http://www.w3.org/2000/svg" xml:space="preserve" width="33.8666mm" height="33.8666mm" version="1.1" style="shape-rendering:geometricPrecision; text-rendering:geometricPrecision; image-rendering:optimizeQuality; fill-rule:evenodd; clip-rule:evenodd"
viewBox="0 0 3386.66 3386.66"
 xmlns:xlink="http://www.w3.org/1999/xlink"
 xmlns:xodm="http://www.corel.com/coreldraw/odm/2003">
 <defs>
  <style type="text/css">
   <![CDATA[
    .fil1 {fill:black}
    .fil0 {fill:black;fill-rule:nonzero}
   ]]>
  </style>
 </defs>
 <g id="Layer_x0020_1">
  <metadata id="CorelCorpID_0Corel-Layer"/>
  <g id="_2059622063680">
   <path class="fil0" d="M539.24 2176.3c0,2.62 0.95,4.77 4.05,4.77l25.97 0c3.1,0 4.77,-1.67 4.77,-4.77l7.87 -149.41c0,-2.87 -1.2,-4.77 -4.29,-4.77l-25.74 0c-3.1,0 -4.77,1.67 -5.01,4.77l-7.62 149.41zm79.83 -83.17l59.57 -65.29c0.72,-0.95 1.67,-1.91 1.67,-3.34l0 -0.23c0,-1.91 -2.62,-2.15 -4.05,-2.15l-31.22 0c-1.66,0 -2.86,0.71 -4.05,1.9l-58.62 67.92c-0.71,0.72 -1.67,1.67 -1.67,2.86 0,0.72 0.48,2.14 0.96,2.62l42.17 81.02c0.96,1.67 2.39,2.63 4.29,2.63l34.8 0c1.66,0 4.29,-0.72 4.29,-2.86l0 -0.24c0,-1.19 -0.96,-2.38 -1.44,-3.58l-46.7 -81.26zm63.63 83.17c0,2.62 0.95,4.77 4.05,4.77l25.97 0c3.1,0 4.77,-1.67 5,-4.77l7.63 -149.41c0,-2.87 -1.19,-4.77 -4.29,-4.77l-25.73 0c-3.1,0 -4.77,1.67 -5.01,4.77l-7.62 149.41zm102.23 -56.24l-2.87 56.24c0,3.1 1.43,4.77 4.53,4.77l25.5 0c3.1,0 4.77,-1.67 5,-4.77l3.1 -60.05 60.29 -88.41c0.72,-0.95 1.91,-2.38 1.91,-3.57 0,-1.67 -2.15,-2.15 -3.58,-2.15l-28.12 0c-1.9,0 -3.57,0.95 -4.52,2.62l-40.28 61.48 -27.87 -61.24c-0.96,-2.15 -2.39,-2.86 -4.53,-2.86l-32.41 0c-1.67,0 -3.82,0.48 -3.82,2.62l0 0.24c0.24,0.71 0.72,1.67 0.96,2.38l46.71 92.7zm176.1 17.64l8.34 40.27c0.24,1.91 1.67,3.1 3.81,3.1l28.84 0c2.14,0 4.76,-0.48 4.76,-3.1 0,-0.72 0,-1.67 -0.24,-2.38l-36.22 -146.8c-1.43,-6.19 -3.33,-8.1 -10.01,-8.1l-24.06 0c-5.48,0 -7.63,3.1 -9.54,7.86l-59.09 146.8c-0.24,0.71 -0.48,1.66 -0.48,2.38 0,2.15 2.14,3.34 4.05,3.34l24.31 0c2.14,0 3.57,-1.19 4.28,-3.1l14.78 -40.27 46.47 0zm-4.05 -24.31l-34.56 0c8.35,-12.87 19.78,-52.9 23.83,-68.87 2.39,19.78 5.48,50.52 10.73,68.87zm65.77 62.91c0,2.86 0.95,4.77 4.05,4.77l56.71 0c47.43,0 78.64,-42.66 78.64,-87.7 0,-48.61 -30.97,-71.49 -76.97,-71.49l-50.04 0c-3.1,0 -4.53,1.67 -4.77,4.77l-7.62 149.65zm35.98 -20.73l5.72 -107.95 18.35 0c29.07,0 42.89,21.2 42.89,48.37 0,32.41 -16.68,59.58 -51.47,59.58l-15.49 0zm199.22 -17.87l8.34 40.27c0.24,1.91 1.67,3.1 3.81,3.1l28.84 0c2.14,0 4.76,-0.48 4.76,-3.1 0,-0.72 0,-1.67 -0.23,-2.38l-36.23 -146.8c-1.43,-6.19 -3.33,-8.1 -10.01,-8.1l-24.06 0c-5.48,0 -7.63,3.1 -9.53,7.86l-59.1 146.8c-0.24,0.71 -0.48,1.66 -0.48,2.38 0,2.15 2.14,3.34 4.05,3.34l24.31 0c2.14,0 3.57,-1.19 4.29,-3.1l14.77 -40.27 46.47 0zm-4.05 -24.31l-34.55 0c8.34,-12.87 19.77,-52.9 23.82,-68.87 2.39,19.78 5.48,50.52 10.73,68.87zm250.93 -3.81c-1.67,33.36 -13.59,50.04 -49.33,50.04 -16.68,0 -35.51,-6.2 -35.51,-25.74 0,-20.73 22.17,-24.3 38.37,-24.3 3.1,0 4.76,-1.67 5.01,-4.77 0.23,-5.72 0.71,-11.2 0.71,-16.92 0,-2.62 -1.43,-4.05 -4.29,-4.05 -13.35,0 -28.12,-2.14 -28.12,-18.59 0.71,-14.53 13.58,-20.49 26.69,-20.49 14.54,0 29.79,9.53 33.36,9.53 2.39,0 2.62,-3.34 2.86,-5 0.24,-5.72 0.72,-11.44 0.72,-17.16 0,-9.53 -26.22,-12.87 -39.8,-12.87 -28.36,0 -59.81,13.58 -59.81,45.99 0,15.49 7.62,25.03 21.92,31.46 -19.3,5.48 -34.07,19.78 -34.07,40.75 0,39.08 34.55,47.42 66.96,47.42 19.54,0 37.89,-2.62 54.57,-13.58 23.35,-15.73 29.31,-35.27 30.74,-61.72l15.49 0c3.09,0 4.76,-1.67 5,-4.77 0.24,-5.72 0.71,-11.2 0.71,-16.92 0,-2.62 -1.42,-4.05 -4.29,-4.05l-65.29 0c-2.86,0 -4.29,1.91 -4.52,4.77 -0.24,5.71 -0.72,11.2 -0.72,16.91 0,2.39 1.19,4.06 4.05,4.06l18.59 0zm206.36 28.12l8.35 40.27c0.23,1.91 1.66,3.1 3.81,3.1l28.83 0c2.15,0 4.77,-0.48 4.77,-3.1 0,-0.72 0,-1.67 -0.24,-2.38l-36.22 -146.8c-1.43,-6.19 -3.34,-8.1 -10.01,-8.1l-24.07 0c-5.48,0 -7.62,3.1 -9.53,7.86l-59.1 146.8c-0.24,0.71 -0.47,1.66 -0.47,2.38 0,2.15 2.14,3.34 4.04,3.34l24.31 0c2.15,0 3.58,-1.19 4.29,-3.1l14.78 -40.27 46.46 0zm-4.05 -24.31l-34.55 0c8.34,-12.87 19.78,-52.9 23.83,-68.87 2.38,19.78 5.48,50.52 10.72,68.87zm56.01 55.52c0,12.39 37.41,14.54 45.75,14.54 27.88,0 59.33,-15.25 59.33,-46.95 0,-20.97 -8.33,-29.54 -23.83,-41.7l-23.11 -18.35c-5.48,-4.29 -10.72,-8.81 -10.72,-16.2 0,-12.15 12.63,-15.49 22.4,-15.49 16.68,0 31.45,10.72 34.07,10.72 1.91,0 3.1,-1.9 3.1,-3.57 0.24,-6.91 0.95,-13.58 0.95,-20.49 0,-10.02 -28.35,-12.16 -39.08,-12.16 -29.78,0 -58.14,13.82 -58.14,47.42 0,19.54 11.67,28.6 25.73,39.8l23.83 19.3c4.53,3.57 8.58,7.39 8.58,13.11 0,13.34 -14.29,17.63 -25.26,17.63 -18.11,0 -36.7,-10.72 -39.32,-10.72 -4.53,0 -4.05,17.63 -4.28,23.11zm119.62 0c0,12.39 37.41,14.54 45.76,14.54 27.88,0 59.33,-15.25 59.33,-46.95 0,-20.97 -8.34,-29.54 -23.83,-41.7l-23.11 -18.35c-5.48,-4.29 -10.73,-8.81 -10.73,-16.2 0,-12.15 12.63,-15.49 22.4,-15.49 16.68,0 31.46,10.72 34.08,10.72 1.91,0 3.1,-1.9 3.1,-3.57 0.24,-6.91 0.95,-13.58 0.95,-20.49 0,-10.02 -28.36,-12.16 -39.08,-12.16 -29.79,0 -58.14,13.82 -58.14,47.42 0,19.54 11.67,28.6 25.73,39.8l23.83 19.3c4.53,3.57 8.58,7.39 8.58,13.11 0,13.34 -14.3,17.63 -25.26,17.63 -18.11,0 -36.7,-10.72 -39.32,-10.72 -4.53,0 -4.05,17.63 -4.29,23.11zm125.59 -66.96c-0.24,3.57 -0.48,7.39 -0.48,10.96 0,43.37 20.73,71.97 66.01,71.97 52.19,0 74.59,-46.23 74.59,-92.46 0,-43.37 -19.78,-73.16 -65.77,-73.16 -47.67,0 -71.49,39.32 -74.35,82.69zm36.22 -0.24c1.43,-21.92 7.86,-56.95 36.46,-56.95 15.01,0 25.5,9.77 28.59,24.31 2.15,10.48 2.15,21.68 2.15,32.64 0,22.16 -8.58,57.67 -36.7,57.67 -26.21,0 -30.74,-27.88 -30.74,-48.61 0,-3.1 0,-6.2 0.24,-9.06zm233.53 47.9c0,-1.91 -0.95,-3.81 -2.86,-3.81 -1.19,0.23 -2.14,0.47 -2.86,0.95 -10.48,4.53 -21.44,7.15 -32.88,7.15 -29.07,0 -43.85,-19.78 -43.85,-46.71 0,-31.69 16.68,-61 51.23,-61 12.87,0 26.22,7.86 33.84,7.86 2.15,-0.24 2.63,-2.86 2.63,-4.76l1.19 -19.78c0,-2.62 -1.67,-4.05 -4.29,-4.77 -10.73,-3.57 -22.17,-5.48 -33.37,-5.48 -49.56,0 -87.45,34.55 -87.45,85.08 0,49.32 25.02,77.92 75.54,77.92 10.25,0 41.23,-2.15 42.18,-12.16l0.95 -20.49zm20.97 26.69c0,2.62 0.96,4.77 4.05,4.77l25.98 0c3.1,0 4.76,-1.67 5,-4.77l7.63 -149.41c0,-2.87 -1.19,-4.77 -4.29,-4.77l-25.74 0c-3.09,0 -4.76,1.67 -5,4.77l-7.63 149.41zm144.41 -38.6l8.34 40.27c0.24,1.91 1.67,3.1 3.82,3.1l28.83 0c2.14,0 4.77,-0.48 4.77,-3.1 0,-0.72 0,-1.67 -0.24,-2.38l-36.23 -146.8c-1.42,-6.19 -3.33,-8.1 -10,-8.1l-24.07 0c-5.48,0 -7.63,3.1 -9.53,7.86l-59.1 146.8c-0.24,0.71 -0.48,1.66 -0.48,2.38 0,2.15 2.14,3.34 4.05,3.34l24.31 0c2.15,0 3.57,-1.19 4.29,-3.1l14.77 -40.27 46.47 0zm-4.05 -24.31l-34.55 0c8.34,-12.87 19.77,-52.9 23.83,-68.87 2.38,19.78 5.48,50.52 10.72,68.87zm104.38 -65.77l-6.68 128.68 0 0.71c0,2.62 1.43,4.06 4.29,4.06l25.5 0c3.34,0 5.01,-1.67 5.01,-4.77l6.91 -128.68 45.51 0c3.1,0 5,-1.67 5.24,-4.77 0.24,-5.48 0.72,-11.2 0.72,-16.68 0,-2.38 -1.67,-4.05 -4.53,-4.05l-125.11 0c-3.1,0 -4.76,1.67 -5,4.53 -0.24,5.72 -0.72,11.2 -0.72,16.92 0,2.62 1.43,4.05 4.29,4.05l44.57 0zm132.25 0l55.53 0c3.09,0 5,-1.67 5.24,-4.77 0.24,-5.72 0.71,-11.2 0.71,-16.92 0,-2.86 -1.66,-4.05 -4.52,-4.05l-86.03 0c-3.1,0 -4.77,1.67 -5,4.77l-7.63 149.65c0,2.86 1.19,4.77 4.29,4.77l86.03 0c3.09,0 5,-1.44 5.24,-4.77 0.24,-5.48 0.72,-11.2 0.72,-16.68 0,-2.62 -1.67,-4.05 -4.53,-4.05l-55.77 0 2.39 -45.99 42.41 0c3.1,0 4.77,-1.67 5.01,-4.77 0.24,-5.72 0.71,-11.2 0.71,-16.92 0,-2.62 -1.43,-4.05 -4.28,-4.05l-42.42 0 1.9 -36.22zm63.39 121.29c0,12.39 37.41,14.54 45.76,14.54 27.88,0 59.33,-15.25 59.33,-46.95 0,-20.97 -8.34,-29.54 -23.83,-41.7l-23.11 -18.35c-5.48,-4.29 -10.73,-8.81 -10.73,-16.2 0,-12.15 12.63,-15.49 22.4,-15.49 16.68,0 31.46,10.72 34.08,10.72 1.9,0 3.1,-1.9 3.1,-3.57 0.24,-6.91 0.95,-13.58 0.95,-20.49 0,-10.02 -28.36,-12.16 -39.08,-12.16 -29.79,0 -58.15,13.82 -58.15,47.42 0,19.54 11.68,28.6 25.74,39.8l23.83 19.3c4.53,3.57 8.58,7.39 8.58,13.11 0,13.34 -14.3,17.63 -25.26,17.63 -18.11,0 -36.7,-10.72 -39.32,-10.72 -4.53,0 -4.05,17.63 -4.29,23.11z"/>
   <path class="fil1" d="M1542.78 1464.98l87.3 -39.33 -86.8 320.43 100.33 0.08c7.22,-53.82 16.72,-108.09 24.78,-161.87 2.48,-16.57 23.57,-158.34 25.19,-161.48 1.75,3.38 33.89,218.35 37.46,242.04 4.05,26.84 8.99,54.42 12.46,81.29l100.1 0.06 -84.41 -317.78 81.97 37.08c-1.38,-9.85 -13.05,-55.25 -16.32,-69.05 -2.34,-9.91 -14.39,-64.78 -16.95,-68.84 -13,6.26 -113.7,64.83 -116.41,64.39l-116.59 -64.75 -32.11 137.73z"/>
   <path class="fil1" d="M1679.38 1219.84c64.55,-4.55 136.6,17.68 186.74,50.99 12.64,8.39 22.87,15.92 34.09,25.62 102,88.09 139.71,234.7 86.59,361.09 -45.06,107.21 -147.24,190.14 -279.18,196.5 -102.01,4.92 -181.58,-38.97 -231.66,-85.94 -50.44,-47.32 -93.74,-117.49 -99.88,-216.78 -3.96,-64.06 17.34,-138.63 51.09,-187.49 11.2,-16.22 22.46,-31.74 34.76,-44.25 60.23,-61.24 126.15,-93.31 217.45,-99.74zm-0.7 -17.47c-70.67,4.89 -133.22,25.59 -185.08,65.51 -32.94,25.35 -58.83,51.53 -81.3,86.39 -63.54,98.56 -72.33,223.83 -19.66,330.24 17.13,34.59 43.43,71.97 71.13,96.62 20.11,17.9 23.87,20.98 46.83,36.61 52.49,35.75 130.24,57.91 197.96,53.78 69.71,-4.25 133.09,-26.9 184.28,-65.67 16.17,-12.25 32.1,-25.79 44.64,-39.65 25.19,-27.85 49.2,-60.74 65.59,-102.13 16.06,-40.54 28.15,-90.79 24.68,-142.39 -5.05,-75.31 -25.84,-129.06 -65.64,-184.45 -22.53,-31.33 -53.86,-60.22 -86.43,-81.26 -16.66,-10.76 -34.93,-20.62 -55.32,-28.97 -38.98,-15.96 -91.74,-28.09 -141.68,-24.63z"/>
  </g>
 </g>
</svg>
