<?xml version="1.0" encoding="UTF-8"?>
<!DOCTYPE svg PUBLIC "-//W3C//DTD SVG 1.1//EN" "http://www.w3.org/Graphics/SVG/1.1/DTD/svg11.dtd">
<!-- Creator: CorelDRAW 2021 (64-Bit) -->
<svg xmlns="http://www.w3.org/2000/svg" xml:space="preserve" width="33.8666mm" height="33.8666mm" version="1.1" style="shape-rendering:geometricPrecision; text-rendering:geometricPrecision; image-rendering:optimizeQuality; fill-rule:evenodd; clip-rule:evenodd"
viewBox="0 0 3386.66 3386.66"
 xmlns:xlink="http://www.w3.org/1999/xlink"
 xmlns:xodm="http://www.corel.com/coreldraw/odm/2003">
 <defs>
  <style type="text/css">
   <![CDATA[
    .str0 {stroke:black;stroke-width:20;stroke-linecap:round;stroke-linejoin:round;stroke-miterlimit:22.9256}
    .fil3 {fill:black}
    .fil0 {fill:#E31C26}
    .fil1 {fill:#EEC629}
    .fil2 {fill:#FCCB0B}
   ]]>
  </style>
 </defs>
 <g id="Layer_x0020_1">
  <metadata id="CorelCorpID_0Corel-Layer"/>
  <g id="_1357800702832">
   <path class="fil0" d="M405.39 1204.68l0 651.35 84.72 0c0,-60.97 0,-121.95 0,-183.21 0,-53.21 -5.84,-41.85 23.37,-70.12 16.07,-16.08 29.22,-33.54 48.2,-45.73 12.42,8.31 10.23,8.03 19.72,20.23l205.96 244.46c14.6,16.91 17.52,33.27 46.01,34.65 25.56,1.39 57.69,-0.28 84.72,-0.28 -3.66,-13.02 -24.11,-33.81 -34.33,-45.73l-37.25 -43.52c-5.11,-6.92 -10.95,-15.79 -16.79,-23l-205.96 -245.02 172.36 -184.6c0.73,-0.83 1.46,-1.66 2.19,-2.49 0.73,-0.56 1.46,-1.67 1.46,-2.5l79.61 -85.37c7.3,-8.59 11.68,-11.08 16.07,-19.12l-104.44 0c-13.15,3.32 -17.53,12.75 -37.25,35.75l-197.19 204.56c-5.11,6.37 -4.38,5.26 -10.22,11.92 -16.8,18.57 -36.52,42.13 -56.24,55.43l0 -307.66 -84.72 0z"/>
   <path class="fil0" d="M1225.55 1650.65zm0 0zm0 0c0.73,0.28 62.08,25.78 67.19,-22.73 2.93,-29.1 -30.67,-86.2 -54.04,-110.87 -29.21,-29.93 -55.5,-45.45 -99.32,-56.82 -62.81,-16.07 -119.78,-4.16 -170.9,31.32 -43.82,31.05 -73.77,76.22 -81.8,132.49 -5.11,40.19 -2.92,52.39 7.3,91.19 34.33,136.09 225.68,191.53 339.61,86.2 38.71,-36.03 63.54,-81.76 63.54,-155.22 -2.92,1.67 -42.36,59.04 -71.58,4.44z"/>
   <path class="fil0" d="M2308.63 1788.96c-22.64,0 -39.43,-7.21 -54.77,-20.51 -6.57,-4.99 -3.65,-2.22 -10.22,-8.04 -35.79,-32.15 -24.11,-72.34 33.59,-100.89 31.4,-15.52 39.44,-11.64 69.38,-14.69l82.53 -3.05c0,72.62 9.49,82.87 -43.09,121.96 -14.61,11.08 -54.04,25.22 -77.42,25.22zm-151.17 -258.88l0 17.74 75.95 0c0,-26.33 8.03,-47.95 28.48,-64.86 26.3,-21.34 167.25,-51.83 167.25,64.86l0 31.32c-88.37,0 -152.64,-9.7 -219.1,34.92 -77.41,51.28 -81.07,144.69 -22.64,202.89 52.58,52.39 159.21,49.89 219.83,12.75 8.03,-4.71 18.26,-13.02 26.29,-18.29 1.46,14.69 5.84,26.89 8.77,40.19l80.33 0c0,-35.2 0,-17.74 -5.11,-34.65 -10.23,-32.43 -8.03,-47.39 -8.03,-81.49 0,-40.19 0,-80.38 0,-120.57 0,-65.41 6.57,-143.57 -52.59,-188.2 -105.17,-78.71 -299.43,-21.34 -299.43,103.39z"/>
   <path class="fil0" d="M1684.93 1856.03l80.34 0 0 -290.2c0,-31.04 48.93,-87.86 97.13,-94.79 59.16,-8.59 98.6,21.9 98.6,85.93l0 299.06 80.33 0 0 -290.2c0,-145.79 -113.2,-192.08 -223.48,-152.44 -29.21,10.26 -29.21,19.4 -52.58,31.87l0 -214.25 -80.34 0 0 625.02z"/>
   <path class="fil0" d="M1430.78 1400.64l-80.34 0 0 66.8 80.34 0 0 285.76c0,60.43 36.51,102.83 97.86,102.83 83.26,0 43.09,-6.09 75.96,-8.87l-5.12 -62.36c-111.74,-0.55 -92.75,46.29 -92.75,-317.36l89.1 0 0 -66.8 -89.1 0 0 -169.63 -75.95 0 0 169.63z"/>
   <path class="fil0" d="M2683.29 1436.4l0 -26.89 -80.33 0 0 446.52 80.33 0 0 -290.2c0,-25.5 16.07,-51.55 29.22,-64.58 27.75,-27.99 83.26,-32.43 117.58,-15.8l5.11 -80.38c-32.86,-0.83 -56.96,-13.3 -109.55,6.38 -18.98,6.93 -24.83,20.23 -42.36,24.95z"/>
   <polygon class="fil0" points="2901.66,1856.03 2977.62,1856.03 2977.62,1409.51 2901.66,1409.51 "/>
   <path class="fil1" d="M1069.26 1391.77l8.77 -5.27 -8.77 5.27zm-89.1 -9.15l-4.38 4.44c-3.65,17.74 -4.38,18.29 -17.53,26.88l-4.38 8.87 -4.38 9.15 -4.38 8.87 -5.11 8.87c0,21.34 0.73,8.59 -4.39,13.3l-9.49 31.05c22.64,-5.55 27.02,-26.61 47.47,-42.41 16.07,-12.75 36.52,-32.98 56.24,-37.7 6.57,-9.7 0,-5.82 13.14,-8.87l8.77 -4.43 8.76 -4.43 8.76 -4.44 0 8.87c1.46,-0.28 12.42,-4.16 13.15,-4.16 0.73,-0.83 2.19,-1.38 3.65,-1.94l6.57 -4.71c0.73,-0.55 2.2,-1.66 2.93,-2.77 -12.42,-2.22 -19.72,0.55 -3.66,-4.44 5.12,-4.43 -8.03,-4.43 13.15,-4.43 5.11,-4.44 -7.3,-4.44 13.88,-4.44l26.29 -17.73c0,-58.77 -39.44,-56.55 -81.8,-37.7 -42.36,18.02 -53.31,44.35 -83.26,64.3z"/>
   <path class="fil1" d="M935.61 1463c0,-21.06 0,-8.31 4.39,-13.3l5.11 -8.87 4.38 -8.87 4.38 -9.15 4.38 -8.87c2.92,-12.47 8.77,-20.23 17.53,-26.88l4.38 -4.44c8.77,-31.32 57.7,-50.72 80.34,-84.81 -11.69,-49.62 -63.54,-28.55 -97.13,23 -22.64,34.93 -36.52,85.65 -36.52,142.19l8.76 0z"/>
   <path class="fil0" d="M2892.9 1275.64c0,61.8 78.14,57.09 88.37,28.27l0 -46.29c-2.19,-17.46 -12.42,-26.61 -48.2,-26.61 -24.1,0 -40.17,21.9 -40.17,44.63z"/>
   <path class="fil2" d="M1105.05 1378.19c-4.38,4.71 8.03,4.43 -13.15,4.43l3.66 4.44c-0.73,1.11 -2.2,2.22 -2.93,2.77l-6.57 4.71c-1.46,0.56 -2.92,1.11 -3.65,1.94 -0.73,0 -11.69,3.88 -13.15,4.16l-8.76 -4.43 -8.76 4.43 -8.77 4.43c-6.57,9.71 -0.73,5.83 -13.14,8.87 -8.04,13.59 -2.93,4.99 0,8.87 127.07,-10.53 83.25,18.02 155.56,18.02 6.57,-24.67 8.76,0.83 8.76,-53.77 -35.79,-18.85 -21.91,-13.31 -75.22,-13.31 -5.12,4.72 7.3,4.44 -13.88,4.44z"/>
   <path class="fil0" d="M1261.34 2146.23l17.53 0c0,-59.03 -8.03,-81.21 27.02,-89.25 25.56,17.19 17.53,21.62 17.53,89.25l18.26 0c0,-71.23 -8.77,-80.93 26.29,-89.25 25.56,16.91 18.26,38.81 18.26,89.25l17.53 0c0,-59.59 10.22,-102.55 -40.17,-102.55 -16.07,0 -19.72,4.16 -26.29,13.3 -17.53,-11.64 -14.61,-13.3 -40.17,-13.3 -14.61,0 -5.12,5.54 -16.07,4.43 -0.73,0 -4.38,-4.15 -19.72,-4.43l0 102.55z"/>
   <path class="fil0" d="M463.09 2128.49l-30.67 0 0 -98.39 26.29 0c25.56,0 35.78,21.06 35.78,44.62 0,23.01 -10.22,53.77 -31.4,53.77zm-48.93 17.74c25.56,0 59.15,2.5 78.14,-11.36 34.33,-25.5 32.87,-122.51 -37.97,-122.51l-40.17 0 0 133.87z"/>
   <path class="fil0" d="M748.65 2114.91c0,-42.4 -5.84,-50.44 27.02,-57.93 64.27,47.4 -27.02,104.22 -27.02,57.93zm-22.64 67.08l22.64 0 0 -40.19c78.87,37.97 89.1,-98.12 27.02,-98.12 -10.95,0 -17.53,2.49 -23.37,2.49 -10.95,0.28 -9.49,-2.21 -26.29,-2.49l0 138.31z"/>
   <path class="fil0" d="M2219.53 2038.97c0,21.34 -3.65,33.81 38.71,46.29 21.18,6.37 35.06,9.42 37.25,34.09 -11.69,8.04 -22.64,13.03 -37.98,10.53 -18.26,-2.77 -22.64,-9.98 -24.1,-28.27l-18.26 0c1.46,59.31 97.87,62.92 97.87,8.87 0,-30.21 -31.41,-37.7 -75.23,-53.5 0,-19.68 4.38,-15.79 4.38,-26.88 19.72,-4.71 48.21,-14.69 48.94,22.45l21.91 0c-4.39,-57.65 -76.69,-43.79 -88.37,-26.05 -6.58,10.8 -5.12,-4.72 -5.12,12.47z"/>
   <path class="fil0" d="M1916.45 2128.49c-29.22,0 -9.5,1.67 -21.91,-4.43 2.19,-26.33 10.22,-22.45 40.17,-22.45 -0.73,16.07 -2.2,26.88 -18.26,26.88zm-40.17 -49.33c35.06,-0.56 8.03,-13.58 44.55,-22.18 0.73,0.84 2.19,0.56 2.92,1.94 2.19,7.49 8.76,-1.38 12.42,14.42 6.57,29.38 -59.89,-16.08 -59.89,50.72 0,10.53 7.3,13.03 13.88,22.17l66.46 0c0,-64.3 11.68,-102.55 -35.79,-102.55 -32.14,0 -37.98,8.87 -44.55,35.48z"/>
   <path class="fil0" d="M895.45 2110.48c17.52,-11.64 6.57,-8.87 44.55,-8.87 0,31.32 -25.57,31.6 -33.6,25.78 -13.15,-9.15 -7.3,-10.81 -10.95,-16.91zm-17.53 -31.32l22.64 0c0.73,-14.97 6.57,-22.73 21.18,-21.34 13.87,1.38 17.52,10.25 18.26,26.05 -98.6,0 -57.7,62.36 -39.44,62.36l55.5 -2.21c13.15,-6.93 2.92,5.54 2.19,-33.26 -0.73,-12.2 10.23,-95.91 -64.27,-60.15 -14.6,7.21 -15.33,9.42 -16.06,28.55z"/>
   <path class="fil0" d="M1515.5 2056.98c12.41,8.04 16.06,8.32 17.52,26.89l-44.55 0c4.39,-14.97 12.42,-23.01 27.03,-26.89zm-44.55 17.74c0,55.99 -3.66,71.51 57.69,71.51 14.61,0 3.65,-3.88 22.64,-8.87 -1.46,-13.3 2.19,-8.59 -5.84,-16.9 -16.07,-17.47 6.57,3.32 -25.56,7.76 -4.38,0.83 -16.8,0.27 -22.64,0.27 -5.11,-20.78 -6.58,-4.15 -8.77,-26.88l67.19 0c0,-92.02 -84.71,-54.33 -84.71,-26.89z"/>
   <path class="fil0" d="M619.38 2056.98c14.61,7.76 21.91,8.6 27.02,26.89l-49.66 0c5.11,-19.4 8.76,-17.46 22.64,-26.89zm-40.17 26.89c0,22.73 -5.84,49.89 30.68,62.64 27.02,9.42 68.65,-21.9 41.62,-24.39 -13.14,-1.39 -2.92,4.43 -19.71,7.76 -16.8,3.33 -32.87,-6.65 -35.06,-28.27l67.19 0c0,-33.26 0,-57.93 -44.55,-57.93 -21.91,0 -40.17,18.02 -40.17,40.19z"/>
   <path class="fil0" d="M2795.04 2056.98c13.87,0 21.17,12.48 21.91,26.89l-48.94 0c5.12,-10.26 11.69,-26.89 27.03,-26.89zm-44.55 22.18c0,49.33 1.46,67.07 57.69,67.07 8.77,0 8.77,-1.94 15.34,-6.65 13.14,-8.87 8.03,-3.05 11.68,-15.52 -27.02,-13.03 -10.22,6.37 -40.9,6.37 -15.33,0 -22.64,-12.19 -26.29,-28.82l71.58 0c-8.77,-99.78 -89.1,-48.51 -89.1,-22.45z"/>
   <path class="fil0" d="M2505.09 2110.48c0,-35.76 -2.92,-35.48 17.53,-53.5 25.56,5.82 35.79,13.31 35.79,40.19 0,42.13 -53.32,41.86 -53.32,13.31zm-22.64 -17.74c0,74 94.22,70.68 94.22,4.43 0,-78.99 -94.22,-62.91 -94.22,-4.43z"/>
   <path class="fil0" d="M2901.66 2056.98l0 31.32 48.94 18.3c8.03,5.54 8.03,4.43 8.76,17.46 -10.96,6.37 -11.69,4.43 -30.67,4.43 -13.88,0 -12.42,-5.26 -13.88,-18.01l-17.53 0c2.19,88.14 167.25,2.77 22.64,-31.32 0.73,-13.31 2.92,-22.18 17.53,-22.18 23.37,0 5.84,21.62 40.17,22.18 -3.65,-42.13 -42.36,-44.35 -75.96,-22.18z"/>
   <path class="fil0" d="M1617.74 2146.23l18.26 0c0,-34.37 -5.84,-64.3 12.42,-81.21 32.86,-30.21 32.13,23.84 31.4,45.74 -0.73,27.71 -5.11,33.53 18.26,35.47l0 -89.25c-37.98,-25.5 -43.82,-8.03 -58.43,-8.31 -10.95,-0.28 3.65,0.55 -7.3,-1.94 -2.19,-0.56 -2.19,-2.77 -14.61,-3.05l0 102.55z"/>
   <path class="fil0" d="M2384.59 2043.68l-17.53 0 0 17.74 17.53 0c0,38.8 -2.92,47.67 4.38,80.38 23.37,5.54 35.06,18.85 35.79,-13.31 -24.83,1.94 -17.53,19.13 -17.53,-67.07l17.53 0 0 -17.74 -17.53 0 0 -22.45 -22.64 0 0 22.45z"/>
   <path class="fil0" d="M1774.03 2043.68l-18.26 0 0 17.74 18.26 0c0,93.68 -2.19,85.92 40.17,84.81l0 -17.74c-24.83,1.94 -18.26,19.13 -18.26,-67.07l18.26 0 0 -17.74 -18.26 0 0 -22.45 -21.91 0 0 22.45z"/>
   <path class="fil0" d="M1153.98 2043.68l-13.14 0 0 17.74 13.14 0c0,94.51 -2.92,85.92 40.17,84.81l0 -17.74 -21.91 0 0 -67.07 21.91 0 0 -17.74 -21.91 0 0 -22.45 -18.26 0 0 22.45z"/>
   <path class="fil0" d="M2643.13 2146.23l18.25 0c0,-83.15 -6.57,-84.81 35.06,-84.81l0 -17.74 -53.31 0 0 102.55z"/>
   <path class="fil0" d="M2032.57 2146.23l17.53 0 0 -129.44c0,-13.58 -5.11,-12.47 -17.53,-13.3l0 142.74z"/>
   <path class="fil0" d="M1034.21 2146.23c44.55,-3.6 -7.31,-69.29 32.13,-83.7 18.26,-6.38 14.61,9.98 21.18,-18.85 -12.41,0 -19.72,1.66 -28.48,2.49 -14.61,1.11 -9.5,-1.38 -24.83,-2.49l0 102.55z"/>
   <ellipse class="fil3 str0" cx="1090.58" cy="1654.81" rx="138.13" ry="134.83"/>
  </g>
 </g>
</svg>
