<?xml version="1.0" encoding="UTF-8"?>
<!DOCTYPE svg PUBLIC "-//W3C//DTD SVG 1.1//EN" "http://www.w3.org/Graphics/SVG/1.1/DTD/svg11.dtd">
<!-- Creator: CorelDRAW 2021 (64-Bit) -->
<svg xmlns="http://www.w3.org/2000/svg" xml:space="preserve" width="33.8666mm" height="33.8666mm" version="1.1" style="shape-rendering:geometricPrecision; text-rendering:geometricPrecision; image-rendering:optimizeQuality; fill-rule:evenodd; clip-rule:evenodd"
viewBox="0 0 3386.66 3386.66"
 xmlns:xlink="http://www.w3.org/1999/xlink"
 xmlns:xodm="http://www.corel.com/coreldraw/odm/2003">
 <defs>
  <style type="text/css">
   <![CDATA[
    .str0 {stroke:#009B9C;stroke-width:10;stroke-miterlimit:22.9256}
    .fil1 {fill:#F8AF03}
    .fil0 {fill:#009B9C}
    .fil2 {fill:#009B9C;fill-rule:nonzero}
   ]]>
  </style>
 </defs>
 <g id="Layer_x0020_1">
  <metadata id="CorelCorpID_0Corel-Layer"/>
  <g id="_1357751671680">
   <path class="fil0" d="M1236.54 1647.17c-0.26,-73.15 134.19,-73.11 134.19,0l0 564.4c0,78.35 -131.94,79.99 -132.22,0l-1.97 -564.4z"/>
   <path class="fil0" d="M1516.76 1473.69c-0.45,-75.51 130.25,-82.15 130.25,0l0 151.96 148.01 0c61.72,0 60.17,104.59 0,104.59l-149.98 0 0 369.03c0,28.66 9.65,69.07 51.31,69.07l82.88 0c76.12,0 67.59,102.62 0,102.62l-140.11 0c-73.36,0 -117.94,-68.72 -118.4,-148.01l-3.96 -649.26z"/>
   <path class="fil0" d="M2213.02 1579.74c190.87,0 345.61,154.73 345.61,345.61 0,190.87 -154.74,345.6 -345.61,345.6 -190.87,0 -345.61,-154.73 -345.61,-345.6 0,-190.88 154.74,-345.61 345.61,-345.61zm0 122.36c123.29,0 223.25,99.96 223.25,223.25 0,123.29 -99.96,223.24 -223.25,223.24 -123.29,0 -223.24,-99.95 -223.24,-223.24 0,-123.29 99.95,-223.25 223.24,-223.25z"/>
   <path class="fil1" d="M1257.18 1508.88c-59.47,-124.94 -47.52,-240.94 67.95,-304.45 49.46,-27.21 95.2,-41.33 122.9,-88.72 111.19,125.42 124.16,369.81 -133.25,396.58 -20.02,17.63 -28.19,43.79 -33.68,71.86 -2.1,-40.96 1.44,-90.09 34.43,-124.37 62.53,-64.97 103,-135.69 114.12,-221.17 -25.92,89.92 -76.59,173.03 -172.47,270.27z"/>
   <path class="fil0" d="M732.28 1475.67c-0.23,-73.15 134.2,-73.12 134.2,0l0 482.16 0 99.3 0 42.14c0,28.64 9.66,69.07 51.31,69.07l188.44 0c76.13,0 67.57,102.61 0,102.61l-245.67 0c-73.34,0 -126.13,-68.7 -126.61,-147.99l-1 -165.13 0.97 0 -1.64 -482.16z"/>
   <path class="fil2 str0" d="M2582.3 1482.61c12.36,0 24.22,3.09 35.56,9.29 11.37,6.17 20.29,15.03 26.78,26.57 6.49,11.53 9.74,23.61 9.74,36.23 0,12.56 -3.19,24.51 -9.54,35.9 -6.39,11.38 -15.26,20.25 -26.64,26.64 -11.39,6.35 -23.35,9.54 -35.9,9.54 -12.57,0 -24.51,-3.19 -35.92,-9.54 -11.37,-6.39 -20.23,-15.26 -26.62,-26.64 -6.36,-11.39 -9.55,-23.34 -9.55,-35.9 0,-12.62 3.24,-24.7 9.73,-36.23 6.5,-11.54 15.42,-20.4 26.8,-26.57 11.34,-6.2 23.19,-9.29 35.56,-9.29zm0.06 14.27c-9.93,0 -19.44,2.47 -28.53,7.42 -9.09,4.95 -16.25,12.04 -21.49,21.32 -5.23,9.25 -7.86,18.99 -7.86,29.11 0,10.08 2.57,19.72 7.68,28.84 5.1,9.16 12.24,16.28 21.38,21.43 9.16,5.14 18.77,7.71 28.82,7.71 10.09,0 19.69,-2.57 28.81,-7.71 9.16,-5.15 16.29,-12.27 21.43,-21.43 5.13,-9.12 7.71,-18.76 7.71,-28.84 0,-10.12 -2.64,-19.86 -7.87,-29.11 -5.24,-9.28 -12.4,-16.37 -21.53,-21.32 -9.15,-4.95 -18.66,-7.42 -28.55,-7.42zm-32.63 96.36l0 -76.32 15.48 0c14.52,0 22.67,0.06 24.41,0.19 5.13,0.42 9.12,1.45 11.98,3.05 2.83,1.58 5.21,4.02 7.13,7.33 1.89,3.28 2.86,6.94 2.86,10.92 0,5.52 -1.8,10.21 -5.4,14.13 -3.6,3.92 -8.63,6.33 -15.12,7.3 2.31,0.86 4.11,1.82 5.36,2.85 1.25,1.04 2.98,3 5.17,5.85 0.58,0.77 2.44,3.85 5.65,9.31l8.96 15.39 -19.27 0 -6.33 -12.43c-4.26,-8.32 -7.81,-13.59 -10.6,-15.74 -2.83,-2.15 -6.36,-3.24 -10.66,-3.24l-4.02 0 0 31.41 -15.6 0zm15.6 -43.56l6.26 0c8.94,0 14.5,-0.35 16.64,-1.03 2.16,-0.67 3.86,-1.85 5.11,-3.56 1.25,-1.7 1.87,-3.63 1.87,-5.82 0,-2.08 -0.62,-3.97 -1.83,-5.62 -1.23,-1.64 -2.96,-2.82 -5.21,-3.53 -2.24,-0.71 -7.77,-1.05 -16.58,-1.05l-6.26 0 0 20.61z"/>
  </g>
 </g>
</svg>
