<?xml version="1.0" encoding="UTF-8"?>
<!DOCTYPE svg PUBLIC "-//W3C//DTD SVG 1.1//EN" "http://www.w3.org/Graphics/SVG/1.1/DTD/svg11.dtd">
<!-- Creator: CorelDRAW 2021 (64-Bit) -->
<svg xmlns="http://www.w3.org/2000/svg" xml:space="preserve" width="33.8666mm" height="33.8666mm" version="1.1" style="shape-rendering:geometricPrecision; text-rendering:geometricPrecision; image-rendering:optimizeQuality; fill-rule:evenodd; clip-rule:evenodd"
viewBox="0 0 3386.66 3386.66"
 xmlns:xlink="http://www.w3.org/1999/xlink"
 xmlns:xodm="http://www.corel.com/coreldraw/odm/2003">
 <defs>
  <style type="text/css">
   <![CDATA[
    .fil2 {fill:#898989;fill-rule:nonzero}
    .fil1 {fill:#5B5B5B;fill-rule:nonzero}
    .fil0 {fill:black;fill-rule:nonzero}
   ]]>
  </style>
 </defs>
 <g id="Layer_x0020_1">
  <metadata id="CorelCorpID_0Corel-Layer"/>
  <g id="_1357492629952">
   <path class="fil0" d="M1170.66 2232.79l0 -358.31 -107.44 0 -87.03 224.01 -87.01 -224.01 -106.91 0 0 358.31 76.29 0 0 -258.39 100.99 258.39 33.3 0 101 -258.39 0 258.39 76.81 0zm405.03 0l-138.05 -358.31 -95.61 0 -138.07 358.31 86.49 0 22.56 -60.7 153.64 0 22.57 60.7 86.47 0zm-129.99 -127.85l-111.74 0 55.87 -154.18 55.87 154.18zm303.51 127.85l0 -146.65 136.98 -211.66 -86.48 0 -88.64 143.44 -88.64 -143.44 -87.02 0 137.51 211.66 0 146.65 76.29 0zm331.98 6.44c109.05,0 161.7,-61.23 161.7,-149.87l0 -214.88 -77.89 0 0 212.73c0,49.96 -28.48,84.34 -83.81,84.34 -55.33,0 -84.34,-34.38 -84.34,-84.34l0 -212.73 -77.35 0 0 214.88c0,88.64 52.64,149.87 161.69,149.87zm523.21 -6.44l-81.11 -136.45c38.67,-9.13 78.97,-43.52 78.97,-106.36 0,-66.61 -46.21,-115.5 -120.87,-115.5l-167.6 0 0 358.31 76.28 0 0 -127.32 55.86 0 70.37 127.32 88.1 0zm-133.76 -194.46l-80.57 0 0 -96.69 80.57 0c30.08,0 53.19,18.26 53.19,47.8 0,30.62 -23.11,48.89 -53.19,48.89z"/>
   <path class="fil0" d="M934.19 2473.84c26.54,0 44.52,-12.59 57.12,-29.91l-15.75 -8.54c-8.54,12.58 -24.28,21.8 -41.37,21.8 -32.83,0 -57.79,-25.41 -57.79,-60.94 0,-35.98 24.96,-60.94 57.79,-60.94 17.09,0 32.83,9 41.37,21.82l15.52 -8.77c-11.92,-17.1 -30.35,-29.68 -56.89,-29.68 -43.17,0 -77.12,31.48 -77.12,77.57 0,46.1 33.95,77.59 77.12,77.59zm149.32 0c44.29,0 74.66,-33.28 74.66,-77.59 0,-44.29 -30.37,-77.57 -74.66,-77.57 -44.31,0 -74.43,33.28 -74.43,77.57 0,44.31 30.12,77.59 74.43,77.59zm0 -16.65c-33.73,0 -55.09,-26.08 -55.09,-60.94 0,-35.07 21.36,-60.94 55.09,-60.94 33.5,0 55.31,25.87 55.31,60.94 0,34.86 -21.81,60.94 -55.31,60.94zm227.78 13.94l0 -149.98 -18.66 0 0 117.16 -86.35 -117.16 -19.12 0 0 149.98 18.67 0 0 -119.62 87.47 119.62 17.99 0zm83.65 2.71c40.47,0 55.31,-22.49 55.31,-44.07 0,-56 -88.81,-36.66 -88.81,-70.4 0,-14.15 13.03,-23.83 30.81,-23.83 16.4,0 32.15,5.4 43.39,17.99l11.24 -13.72c-12.59,-13.26 -30.35,-21.13 -53.06,-21.13 -29.68,0 -51.73,17.09 -51.73,41.83 0,53.51 88.83,31.92 88.83,70.6 0,11.69 -8.54,26.08 -35.3,26.08 -21.15,0 -37.33,-10.34 -46.99,-21.58l-11.26 14.38c12.37,13.95 31.71,23.85 57.57,23.85zm137.62 -2.71l0 -133.34 47.67 0 0 -16.64 -113.78 0 0 16.64 47.45 0 0 133.34 18.66 0zm181.25 0l-40.48 -61.15c20.46,-1.81 39.13,-16.65 39.13,-43.63 0,-27.66 -19.8,-45.2 -47.22,-45.2l-60.27 0 0 149.98 18.66 0 0 -59.59 30.14 0 38 59.59 22.04 0zm-50.83 -76l-39.35 0 0 -57.34 39.35 0c17.76,0 30.14,11.46 30.14,28.56 0,16.86 -12.38,28.78 -30.14,28.78zm140.09 78.71c40.71,0 61.39,-23.85 61.39,-61.17l0 -91.52 -18.89 0 0 91.3c0,27.43 -14.84,44.74 -42.5,44.74 -27.66,0 -42.28,-17.31 -42.28,-44.74l0 -91.3 -18.88 0 0 91.75c0,36.87 20.69,60.94 61.16,60.94zm167.53 0c26.53,0 44.52,-12.59 57.11,-29.91l-15.74 -8.54c-8.55,12.58 -24.28,21.8 -41.37,21.8 -32.83,0 -57.79,-25.41 -57.79,-60.94 0,-35.98 24.96,-60.94 57.79,-60.94 17.09,0 32.82,9 41.37,21.82l15.52 -8.77c-11.92,-17.1 -30.36,-29.68 -56.89,-29.68 -43.18,0 -77.13,31.48 -77.13,77.57 0,46.1 33.95,77.59 77.13,77.59zm136.72 -2.71l0 -133.34 47.67 0 0 -16.64 -113.77 0 0 16.64 47.44 0 0 133.34 18.66 0zm91.07 0l0 -149.98 -18.66 0 0 149.98 18.66 0zm103.44 2.71c44.29,0 74.66,-33.28 74.66,-77.59 0,-44.29 -30.37,-77.57 -74.66,-77.57 -44.29,0 -74.42,33.28 -74.42,77.57 0,44.31 30.13,77.59 74.42,77.59zm0 -16.65c-33.73,0 -55.09,-26.08 -55.09,-60.94 0,-35.07 21.36,-60.94 55.09,-60.94 33.51,0 55.31,25.87 55.31,60.94 0,34.86 -21.8,60.94 -55.31,60.94zm227.78 13.94l0 -149.98 -18.66 0 0 117.16 -86.34 -117.16 -19.12 0 0 149.98 18.66 0 0 -119.62 87.48 119.62 17.98 0z"/>
   <polygon class="fil1" points="1335.19,1127.11 1222.81,1057.85 1222.81,1196.31 "/>
   <polygon class="fil1" points="1335.19,1410.6 1222.81,1341.33 1222.81,1479.79 "/>
   <polygon class="fil1" points="1570.45,1272.12 1458.07,1202.85 1458.07,1341.33 "/>
   <polygon class="fil2" points="1222.81,912.84 1222.81,1057.85 1693.33,1347.87 1693.33,1202.85 "/>
   <polygon class="fil1" points="1570.45,1555.61 1458.07,1486.33 1458.07,1624.79 "/>
   <polygon class="fil2" points="1222.81,1196.31 1222.81,1341.33 1693.33,1631.35 1693.33,1486.33 "/>
   <polygon class="fil1" points="1335.19,1694.07 1222.81,1624.79 1222.81,1763.26 "/>
   <polygon class="fil2" points="1458.07,1769.81 1458.07,1624.79 1222.81,1479.79 1222.81,1624.79 "/>
   <polygon class="fil2" points="2051.48,1127.11 2163.85,1057.85 2163.85,1196.31 "/>
   <polygon class="fil2" points="2051.48,1410.6 2163.85,1341.33 2163.85,1479.79 "/>
   <polygon class="fil2" points="1816.22,1272.12 1928.6,1202.85 1928.6,1341.33 "/>
   <polygon class="fil1" points="2163.85,912.84 2163.85,1057.85 1693.33,1347.87 1693.33,1202.85 "/>
   <polygon class="fil2" points="1816.22,1555.61 1928.6,1486.33 1928.6,1624.79 "/>
   <polygon class="fil1" points="2163.85,1196.31 2163.85,1341.33 1693.33,1631.35 1693.33,1486.33 "/>
   <polygon class="fil2" points="2051.48,1694.07 2163.85,1624.79 2163.85,1763.26 "/>
   <polygon class="fil1" points="1928.6,1769.81 1928.6,1624.79 2163.85,1479.79 2163.85,1624.79 "/>
  </g>
 </g>
</svg>
