<?xml version="1.0" encoding="UTF-8"?>
<!DOCTYPE svg PUBLIC "-//W3C//DTD SVG 1.1//EN" "http://www.w3.org/Graphics/SVG/1.1/DTD/svg11.dtd">
<!-- Creator: CorelDRAW 2021 (64-Bit) -->
<svg xmlns="http://www.w3.org/2000/svg" xml:space="preserve" width="33.8666mm" height="33.8666mm" version="1.1" style="shape-rendering:geometricPrecision; text-rendering:geometricPrecision; image-rendering:optimizeQuality; fill-rule:evenodd; clip-rule:evenodd"
viewBox="0 0 3386.66 3386.66"
 xmlns:xlink="http://www.w3.org/1999/xlink"
 xmlns:xodm="http://www.corel.com/coreldraw/odm/2003">
 <defs>
  <style type="text/css">
   <![CDATA[
    .str0 {stroke:#3FA9F5;stroke-width:7.62;stroke-linecap:round;stroke-linejoin:round;stroke-miterlimit:22.9256}
    .fil0 {fill:#3FA9F5;fill-rule:nonzero}
    .fil3 {fill:#4B74B8;fill-rule:nonzero}
    .fil5 {fill:#77D1F6;fill-rule:nonzero}
    .fil6 {fill:#ED4795;fill-rule:nonzero}
    .fil2 {fill:#F49D57;fill-rule:nonzero}
    .fil4 {fill:#F68D3E;fill-rule:nonzero}
    .fil1 {fill:#FBB03B;fill-rule:nonzero}
   ]]>
  </style>
 </defs>
 <g id="Layer_x0020_1">
  <metadata id="CorelCorpID_0Corel-Layer"/>
  <g id="_1359242394000">
   <path class="fil0" d="M2347.2 1398.43c-144.4,-303.36 -488.13,-455.38 -806.93,-365.33 -296.33,83.72 -500.26,353.09 -500.45,660.39 -0.2,307.23 205.36,578.05 502.2,660.82 321.83,89.74 663.14,-66.14 805.82,-365.39 -61.51,143.12 -157.47,257.71 -288.27,342.68 -131.05,85.13 -275.24,125.08 -431.44,120.58 -385.83,-11.13 -702.68,-315.16 -732.21,-702.2 -29.57,-387.78 239.47,-735.57 624.99,-803.81 399.24,-70.68 718.36,181.9 826.29,452.26z"/>
   <path class="fil1" d="M1189.23 1941.26c28.11,52.23 62.21,99.87 103.54,142.59 259.73,268.41 717.37,216.64 909.16,-103.94 12.98,-21.69 26.15,-30.1 50.88,-28.19 30.09,2.31 60.49,0.55 94.8,0.55 -29.54,64.13 -67.52,118.92 -114.52,167.45 -104.07,107.46 -230.54,172.1 -378.75,191.35 -331.23,43.01 -579.81,-164.29 -665.11,-369.81z"/>
   <path class="fil1" d="M1189.73 1446.09c65.03,-165.42 269.15,-372.36 571.51,-375.97 287.45,-3.44 503.29,177.65 585.1,364.47 -12.92,0 -24.56,0 -36.21,0 -25.76,0 -51.53,-0.53 -77.27,0.26 -10.73,0.33 -16.18,-3.77 -21.46,-12.74 -95.81,-162.76 -237.56,-258.14 -424.04,-286.34 -235.54,-35.64 -475.68,84.83 -588.87,294.43 -2.88,5.32 -5.84,10.59 -8.76,15.89z"/>
   <path class="fil0" d="M1358.61 1666.14l-47.69 0 0 20.37c13.18,4.85 22.68,11.21 28.5,19.07 6.01,8.15 9.01,19.16 9.01,33.04 0,19.98 -7.99,37.16 -23.99,51.52 -3.01,2.72 -7.61,6.25 -13.82,10.62 -7.65,5.44 -12.5,8.15 -14.53,8.15 -2.03,0 -11.39,-8.54 -28.06,-25.62 10.27,-0.58 20.98,-3.89 32.13,-9.9 10.56,-5.63 19.53,-12.53 26.9,-20.68 7.94,-8.73 11.92,-18 11.92,-27.8 0,-9.71 -5.38,-16.46 -16.14,-20.24 -5.23,-1.84 -10.42,-2.67 -15.56,-2.47 -31.4,1.25 -50.64,19.57 -57.72,54.95l-29.8 -12.21c0,-8.14 3.15,-17.26 9.45,-27.33 2.33,-3.69 3.53,-5.77 3.63,-6.26 0,-4.55 -6.54,-6.83 -19.63,-6.83 -16.77,0 -29.8,7.37 -39.1,22.1 -4.08,6.49 -6.11,12.99 -6.11,19.48 0,13.57 6.25,26.41 18.76,38.53l27.62 26.76c-16.87,-5.82 -32.52,-14.26 -46.96,-25.31 -19.29,-14.73 -28.94,-30.53 -28.94,-47.39 0,-21.33 10.76,-37.22 32.28,-47.69 9.4,-4.56 19.09,-6.84 29.08,-6.84 12.79,0 25.59,3.83 38.38,11.49 4.85,2.91 7.66,4.46 8.43,4.65 7.37,-3.21 15.47,-6.66 24.29,-10.37 4.65,-1.94 9.35,-3.26 14.1,-3.94l0 -19.85 -150.92 0 0 -17.46 224.49 0 0 17.46z"/>
   <path class="fil0" d="M1478.12 1730.59c0,-13.68 -6.01,-22.86 -18.03,-27.51 -4.46,-1.76 -8.28,-2.63 -11.49,-2.63 -12.02,0 -24.96,5.38 -38.82,16.16 -16.19,12.63 -24.27,28.69 -24.27,48.2 0,9.13 5.23,16.61 15.7,22.43 4.74,2.62 9.54,3.94 14.39,3.94 12.02,0 25.2,-5.83 39.55,-17.48 15.31,-12.43 22.97,-26.8 22.97,-43.11zm33.58 -64.45l-32.71 0 0 40.02c0,0.87 3.88,5.19 11.63,12.95 5.91,7.18 8.87,17.47 8.87,30.86 0,22.21 -9.84,38.66 -29.51,49.34 -9.31,5.04 -19.44,7.56 -30.39,7.56 -15.9,0 -32.28,-7.02 -49.14,-21.08 -17.64,-14.73 -26.46,-30.72 -26.46,-47.97 0,-7.95 2.85,-16.19 8.57,-24.73 5.14,-7.65 11.35,-14 18.61,-19.04 8.73,-6.01 19.24,-9.02 31.56,-9.02 6.78,0 16.81,1.8 30.09,5.38 0.58,0 0.88,-0.38 0.88,-1.16l0 -23.11 -99.74 0 0 -17.45 157.74 0 0 17.45z"/>
   <path class="fil0" d="M1642.56 1718.47c0,5.73 -3.44,12.17 -10.32,19.35 -5.82,6.1 -11.93,10.66 -18.32,13.66l-21.81 -24.71c6.59,-0.58 12.84,-3.01 18.75,-7.28 6.79,-4.84 10.18,-10.37 10.18,-16.57 0,-3.29 -2.13,-6.11 -6.4,-8.44 -3.68,-2.12 -7.31,-3.2 -10.9,-3.2 -7.47,0 -15.46,3.6 -23.99,10.77 -17.35,14.54 -26.03,30.63 -26.03,48.26l0 61.66 -27.91 -14.55 0 -107.58 27.91 0 0 11.04c4.19,-4.16 12.84,-8.52 25.97,-13.08 6.42,-2.23 13.03,-3.35 19.84,-3.35 14.09,0 26.06,5.39 35.88,16.14 4.77,5.24 7.15,11.2 7.15,17.88zm12.07 -52.33l-146.99 0 0 -17.46 146.99 0 0 17.46z"/>
   <path class="fil0" d="M1791.01 1729.82c0,-7.37 -3.84,-14.45 -11.49,-21.23 -3.78,-3.39 -8.58,-5.09 -14.39,-5.09 -11.45,0 -25.65,6.93 -42.6,20.79 -17.45,14.25 -26.17,26.9 -26.17,37.95 0,6.49 6.05,12.21 18.17,17.16 5.42,2.23 10.71,3.34 15.85,3.34 16.86,0 31.5,-6.49 43.91,-19.48 11.14,-11.63 16.72,-22.78 16.72,-33.44zm14.39 16.86c0,10.67 -3.2,20.75 -9.6,30.24 -5.91,8.82 -13.72,16.02 -23.41,21.59 -9.69,5.58 -18.65,8.36 -26.89,8.36 -8.05,0 -18.08,-4.51 -30.1,-13.52 -5.81,-4.36 -14.35,-11.87 -25.58,-22.53l0 123.3 -23.27 -12.23 0 -192.35 22.68 0 0 35.48 8.87 -9.31c20.45,-21.42 37.02,-32.13 49.73,-32.13 13.75,0 26.89,7.12 39.4,21.38 12.11,13.85 18.17,27.76 18.17,41.72zm11.63 -80.54l-166.77 0 0 -17.46 166.77 0 0 17.46z"/>
   <path class="fil0" d="M1855.56 1809.93l-24.43 -13.52 0 -112.25 24.43 0 0 125.77zm16.57 -143.79l-59.17 0 0 -17.46 59.17 0 0 17.46zm-8.58 -32.57c-0.39,0.39 -1.5,0.58 -3.34,0.58 -1.55,0 -2.91,-0.19 -4.07,-0.58l-9.45 -19.34c-3.88,-6.11 -9.14,-10.25 -15.77,-12.43 -6.65,-2.18 -10.74,-4.58 -12.29,-7.2 -1.45,-4.46 -4.27,-11.29 -8.43,-20.5l0 -3.34 5.67 0c7.46,2.33 13.52,4.5 18.17,6.54 7.66,3.4 12.79,7.32 15.41,11.78 1.45,2.43 3.68,8.63 6.69,18.61 2.81,9.4 5.18,15.94 7.12,19.63 0.2,1.74 0.29,3.82 0.29,6.25z"/>
   <path class="fil0" d="M1994.41 1730.11c0,-23.27 -11,-34.89 -33,-34.89 -16.29,0 -29.91,8.52 -40.86,25.58 -9.69,15.12 -14.54,31.21 -14.54,48.28l0 42.3 -23.84 -12.5 0 -109.33 25 0 0 17.29 12.94 -9.74c11.44,-8.63 23.51,-12.94 36.2,-12.94 17.26,0 31.55,6.69 42.89,20.06 10.67,12.61 16,27.69 16,45.22 0,22.01 -9.31,43.13 -27.91,63.4l-28.07 -17.6c8.73,-8.63 16.14,-16.57 22.25,-23.84 8.63,-10.28 12.94,-24.03 12.94,-41.29zm31.26 -63.97l-156.3 0 0 -17.45 156.3 0 0 17.45z"/>
   <path class="fil0" d="M2177.31 1666.14l-30.38 0 0 40.74c6.39,5.94 10.27,9.78 11.62,11.53 2.43,3.12 4.9,7.94 7.42,14.46l-19.04 0c0,-10.56 -3,-18.8 -8.97,-24.71 -5.98,-5.92 -14.27,-8.87 -24.87,-8.87 -11.08,0 -21.44,3.05 -31.06,9.14 -9.24,5.81 -16.68,13.64 -22.31,23.51 -5.35,9.4 -8.03,18.49 -8.03,27.29 0,10.36 3.73,18.25 11.2,23.67 6.59,4.84 15.27,7.26 26.02,7.26 17.94,0 30.44,-4.95 37.52,-14.83l30.96 0c-2.62,10.47 -12.26,19.28 -28.93,26.46 -7.47,3.2 -14.39,4.79 -20.79,4.79 -12.51,0 -25.11,-3.53 -37.8,-10.61 -12.12,-6.69 -22.1,-15.29 -29.95,-25.8 -7.86,-10.52 -11.78,-20.92 -11.78,-31.19 0,-7.76 3.44,-16.53 10.32,-26.32 14.45,-20.54 32.03,-30.82 52.78,-30.82 13.67,0 24.48,2.86 32.42,8.57l0 -24.27 -102.64 0 0 -17.46 156.29 0 0 17.46z"/>
   <path class="fil0" d="M2334.92 1666.14l-117.33 0 0 43.91c10.56,-11.54 20.35,-18.96 29.37,-22.25 5.04,-1.84 10.71,-2.76 17.01,-2.76 23.65,0 41.34,11.63 53.07,34.89 5.14,10.18 7.7,20.21 7.7,30.1 0,18.02 -7.41,34.31 -22.25,48.85 -4.94,4.85 -8.62,8.19 -11.04,10.03l-23.85 -14.25c6.01,-6.3 12.84,-14.05 20.5,-23.26 8.63,-10.37 12.99,-23.45 13.09,-39.26 0.09,-9.39 -2.04,-17.25 -6.4,-23.55 -4.94,-7.36 -11.92,-10.95 -20.94,-10.76 -8.33,0.2 -17.25,3.34 -26.75,9.46 -8.53,5.43 -15.61,11.92 -21.22,19.48 -6.11,8.14 -9.17,15.98 -9.17,23.54l0 57.73 -27.19 -14.56 0 -127.34 -15.99 0 0 -17.46 15.99 0c0,-28.44 -7.41,-52.73 -22.24,-72.87 -8.91,-12.1 -17.15,-20.61 -24.71,-25.56l29.36 -0.28c16.29,8.91 29.23,28.11 38.82,57.64 4.56,14.03 6.84,27.72 6.84,41.07l117.33 0 0 17.46z"/>
   <path class="fil0" d="M2492.96 1666.14l-117.33 0 0 43.91c10.57,-11.54 20.36,-18.96 29.37,-22.25 5.04,-1.84 10.71,-2.76 17.01,-2.76 23.64,0 41.34,11.63 53.06,34.89 5.14,10.18 7.71,20.21 7.71,30.1 0,18.02 -7.42,34.31 -22.24,48.85 -4.95,4.85 -8.63,8.19 -11.05,10.03l-23.85 -14.25c6.01,-6.3 12.84,-14.05 20.51,-23.26 8.62,-10.37 12.98,-23.45 13.08,-39.26 0.09,-9.39 -2.04,-17.25 -6.4,-23.55 -4.94,-7.36 -11.92,-10.95 -20.94,-10.76 -8.33,0.2 -17.25,3.34 -26.75,9.46 -8.53,5.43 -15.6,11.92 -21.23,19.48 -6.1,8.14 -9.16,15.98 -9.16,23.54l0 57.73 -27.18 -14.56 0 -127.34 -16 0 0 -17.46 16 0c0,-28.44 -7.42,-52.73 -22.25,-72.87 -8.91,-12.1 -17.15,-20.61 -24.72,-25.56l29.38 -0.28c16.28,8.91 29.21,28.11 38.82,57.64 4.55,14.03 6.83,27.72 6.83,41.07l117.33 0 0 17.46z"/>
   <path class="fil2" d="M1849.78 1532.41c-4.91,0 -8.9,3.97 -8.9,8.89 0,4.91 3.99,8.89 8.9,8.89 4.9,0 8.89,-3.98 8.89,-8.89 0,-4.92 -3.99,-8.89 -8.89,-8.89zm-107.26 0.93c-4.91,0 -8.89,3.98 -8.89,8.9 0,4.91 3.98,8.89 8.89,8.89 4.92,0 8.9,-3.98 8.9,-8.89 0,-4.92 -3.98,-8.9 -8.9,-8.9zm-103.5 0.94c-4.91,0 -8.89,3.98 -8.89,8.9 0,4.91 3.98,8.88 8.89,8.88 4.92,0 8.89,-3.97 8.89,-8.88 0,-4.92 -3.97,-8.9 -8.89,-8.9zm-98.8 -0.94c-4.91,0 -8.89,3.98 -8.89,8.9 0,4.91 3.98,8.89 8.89,8.89 4.91,0 8.89,-3.98 8.89,-8.89 0,-4.92 -3.98,-8.9 -8.89,-8.9zm-141.04 3.76c-4.92,0 -8.9,3.97 -8.9,8.89 0,4.91 3.98,8.89 8.9,8.89 4.91,0 8.89,-3.98 8.89,-8.89 0,-4.92 -3.98,-8.89 -8.89,-8.89zm-139.17 1.87c-4.91,0 -8.89,3.99 -8.89,8.9 0,4.91 3.98,8.89 8.89,8.89 4.91,0 8.89,-3.98 8.89,-8.89 0,-4.91 -3.98,-8.9 -8.89,-8.9zm-135.32 -14.32l803.88 -1.78 -5.33 5.33 -0.89 22.24 37.35 3.55 -730.07 17.79 -0.89 15.11 -13.34 -19.56c0,0 -29.35,-32.9 -90.71,-42.68z"/>
   <path class="fil3" d="M1583.48 1467.91c66.06,-28.35 113.31,-88.71 123.41,-159.88 1.81,-12.71 2.23,-24.4 1.15,-34.15 -5.33,-48.02 27.56,-67.58 32.9,-67.58 0,0 -35.51,3.62 -67.93,50.13 -11.23,16.11 -25.54,29.89 -42.51,39.77 -5.61,3.28 -11.36,6.13 -16.72,7.91 -21.34,7.12 -145.84,84.48 -113.82,214.32 0,0 -54.15,-42.98 -14.13,-112.35 40.02,-69.36 74.78,-90.22 66.77,-149.8 0,0 7.04,49.32 -54.32,108.01 -7.32,6.88 -14.01,13.34 -18.29,17.5 -2.67,2.6 -5.44,5.07 -8.33,7.41 -16.68,13.46 -85.42,77.31 -37.51,182.58 54.25,119.15 184.97,59.58 208.09,-8.9 0,0 -44.47,52.47 -96.04,47.14 -51.58,-5.34 -52.47,-74.7 -17.79,-98.71 34.68,-24.02 163.72,-32.9 167.13,-148.71 0,0 -26.25,78.98 -112.01,105.47l-0.05 -0.16z"/>
   <path class="fil4" d="M1528.41 1430.39c0,0 4.45,-44.47 40.91,-64.92 36.46,-20.45 57.8,6.23 49.79,25.79 -8,19.57 -39.12,47.13 -69.35,48.02 0,0 52.46,-23.12 53.35,-55.13 0.89,-32.01 -37.86,-8.12 -46.24,0 -6.58,6.37 -21.34,27.57 -28.46,46.24z"/>
   <path class="fil5" d="M1546.2 1418.83c0,0 8.89,-26.68 23.12,-31.13 14.22,-4.44 20.17,8.95 16,16.01 -4.66,7.89 -18.67,18.68 -33.79,18.68 0,0 28.46,-11.56 24.9,-24.91 -3.56,-13.33 -24.01,8.9 -30.23,21.35z"/>
   <polygon class="fil6" points="1675.04,1558.34 1678.7,1667.72 1668.91,1667.72 "/>
   <polygon class="fil6" points="1718.61,1557.4 1722.27,1739.7 1712.49,1739.7 "/>
   <path class="fil6" d="M1674.05 1670.1c-11.53,0 -20.88,9.35 -20.88,20.89 0,11.53 9.35,20.87 20.88,20.87 11.53,0 20.88,-9.34 20.88,-20.87 0,-11.54 -9.35,-20.89 -20.88,-20.89zm26.87 20.83c0,14.74 -11.94,26.68 -26.67,26.68 -14.74,0 -26.68,-11.94 -26.68,-26.68 0,-14.72 11.94,-26.67 26.68,-26.67 14.73,0 26.67,11.95 26.67,26.67z"/>
   <path class="fil6" d="M1717.62 1743.02c-11.53,0 -20.88,9.35 -20.88,20.89 0,11.52 9.35,20.87 20.88,20.87 11.53,0 20.88,-9.35 20.88,-20.87 0,-11.54 -9.35,-20.89 -20.88,-20.89zm26.88 20.84c0,14.73 -11.94,26.67 -26.68,26.67 -14.73,0 -26.68,-11.94 -26.68,-26.67 0,-14.74 11.95,-26.68 26.68,-26.68 14.74,0 26.68,11.94 26.68,26.68z"/>
   <path class="fil0 str0" d="M1518.91 2041.66c0,1.67 -0.21,3.16 -0.62,4.48 -0.43,1.34 -0.98,2.5 -1.67,3.51 -0.7,1.03 -1.52,1.88 -2.44,2.58 -0.92,0.71 -1.88,1.29 -2.87,1.75 -1,0.47 -1.99,0.81 -3.03,1 -1.03,0.22 -1.99,0.33 -2.88,0.33l-32.44 0 0 -8.41 32.44 0c1.61,0 2.87,-0.47 3.77,-1.43 0.88,-0.94 1.33,-2.22 1.33,-3.81 0,-0.76 -0.11,-1.48 -0.36,-2.14 -0.24,-0.64 -0.58,-1.2 -1.01,-1.67 -0.45,-0.46 -1,-0.85 -1.62,-1.11 -0.63,-0.24 -1.35,-0.37 -2.11,-0.37l-19.34 0c-1.37,0 -2.84,-0.25 -4.39,-0.73 -1.58,-0.49 -3.05,-1.28 -4.39,-2.35 -1.36,-1.07 -2.48,-2.5 -3.37,-4.24 -0.9,-1.75 -1.34,-3.87 -1.34,-6.4 0,-2.52 0.44,-4.64 1.34,-6.39 0.89,-1.74 2.01,-3.15 3.37,-4.24 1.34,-1.08 2.81,-1.87 4.39,-2.36 1.55,-0.47 3.02,-0.71 4.39,-0.71l28.61 0 0 8.4 -28.61 0c-1.6,0 -2.85,0.49 -3.73,1.45 -0.91,0.97 -1.36,2.25 -1.36,3.85 0,1.61 0.45,2.89 1.36,3.83 0.88,0.94 2.13,1.4 3.73,1.4l19.34 0 0.05 0c0.92,0.02 1.87,0.16 2.89,0.38 1,0.22 2.01,0.58 3.02,1.05 1,0.47 1.96,1.07 2.86,1.78 0.9,0.74 1.7,1.6 2.4,2.61 0.69,1.02 1.25,2.18 1.67,3.49 0.41,1.32 0.62,2.8 0.62,4.47zm15.45 13.65l-8.4 0 0 -46.36 8.4 0 0 46.36zm56.18 -3.59c0,0.6 -0.11,1.17 -0.34,1.67 -0.25,0.53 -0.55,0.98 -0.92,1.36 -0.38,0.37 -0.83,0.67 -1.33,0.88 -0.53,0.2 -1.07,0.32 -1.65,0.32 -0.51,0 -1.04,-0.1 -1.56,-0.29 -0.55,-0.2 -1.02,-0.5 -1.43,-0.94l-30.71 -32.07 0 32.66 -8.41 0 0 -42.78c0,-0.87 0.25,-1.65 0.73,-2.35 0.49,-0.69 1.11,-1.21 1.86,-1.55 0.81,-0.32 1.62,-0.42 2.46,-0.25 0.85,0.17 1.56,0.57 2.16,1.19l30.73 32.03 0 -32.65 8.41 0 0 42.77zm51.28 3.59l-30.34 0c-0.76,0 -1.61,-0.1 -2.49,-0.28 -0.9,-0.17 -1.78,-0.45 -2.65,-0.84 -0.88,-0.41 -1.71,-0.89 -2.51,-1.51 -0.81,-0.62 -1.51,-1.35 -2.13,-2.24 -0.62,-0.88 -1.1,-1.89 -1.46,-3.03 -0.37,-1.15 -0.56,-2.47 -0.56,-3.91l0 -22.75c0,-0.77 0.09,-1.61 0.28,-2.51 0.19,-0.89 0.47,-1.77 0.86,-2.65 0.4,-0.88 0.9,-1.71 1.52,-2.51 0.62,-0.79 1.38,-1.51 2.25,-2.12 0.87,-0.62 1.88,-1.12 3.03,-1.47 1.14,-0.35 2.42,-0.54 3.86,-0.54l30.34 0 0 8.4 -30.34 0c-1.1,0 -1.93,0.29 -2.51,0.87 -0.58,0.58 -0.88,1.44 -0.88,2.59l0 22.69c0,1.07 0.3,1.92 0.9,2.5 0.58,0.6 1.43,0.9 2.49,0.9l30.34 0 0 8.41zm46.06 -18.94l-26.54 0 0 -8.49 26.54 0 0 8.49zm3.79 18.94l-30.33 0c-1.17,0 -2.44,-0.21 -3.81,-0.62 -1.39,-0.4 -2.67,-1.07 -3.83,-2.01 -1.18,-0.94 -2.16,-2.16 -2.95,-3.66 -0.78,-1.5 -1.18,-3.34 -1.18,-5.52l0 -30.31c0,-0.59 0.11,-1.15 0.32,-1.67 0.21,-0.51 0.51,-0.96 0.9,-1.35 0.38,-0.4 0.83,-0.7 1.33,-0.91 0.51,-0.2 1.07,-0.31 1.67,-0.31l37.88 0 0 8.4 -33.69 0 0 26.15c0,1.11 0.3,1.94 0.88,2.52 0.58,0.58 1.43,0.88 2.54,0.88l30.27 0 0 8.41zm43.1 0l-8.45 0 0 -37.96 -7.59 0 0 -8.4 16.04 0 0 46.36zm7.89 -30.78l0 -3.78c0,-0.77 0.09,-1.61 0.28,-2.51 0.18,-0.89 0.46,-1.77 0.86,-2.65 0.4,-0.88 0.9,-1.71 1.52,-2.51 0.62,-0.79 1.37,-1.51 2.25,-2.12 0.87,-0.62 1.88,-1.12 3.02,-1.47 1.15,-0.35 2.43,-0.54 3.87,-0.54l15.17 0c1.03,0 2.16,0.11 3.34,0.35 1.18,0.25 2.35,0.62 3.49,1.14 1.15,0.53 2.25,1.21 3.32,2.02 1.06,0.82 2,1.82 2.8,2.96 0.81,1.15 1.45,2.48 1.93,4 0.49,1.52 0.74,3.21 0.74,5.11l0 15.21c0,1.9 -0.25,3.61 -0.74,5.12 -0.48,1.52 -1.12,2.84 -1.93,3.99 -0.8,1.16 -1.74,2.14 -2.8,2.95 -1.07,0.81 -2.17,1.48 -3.32,2.01 -1.14,0.52 -2.31,0.9 -3.49,1.14 -1.18,0.25 -2.31,0.36 -3.34,0.36l-20.99 0 0 -8.41 20.99 0c1.05,-0.09 2.01,-0.3 2.89,-0.66 0.88,-0.34 1.63,-0.8 2.27,-1.4 0.64,-0.58 1.13,-1.32 1.48,-2.16 0.34,-0.85 0.51,-1.83 0.51,-2.94l0 -3.37 -22.32 0c-0.8,0 -1.63,-0.09 -2.51,-0.28 -0.88,-0.19 -1.77,-0.49 -2.63,-0.89 -0.88,-0.39 -1.71,-0.9 -2.52,-1.52 -0.8,-0.62 -1.5,-1.37 -2.12,-2.25 -0.62,-0.88 -1.1,-1.88 -1.46,-3.02 -0.38,-1.15 -0.56,-2.44 -0.56,-3.88zm34.12 0c0,-1.11 -0.19,-2.11 -0.55,-2.99 -0.37,-0.88 -0.87,-1.63 -1.5,-2.25 -0.64,-0.62 -1.39,-1.11 -2.27,-1.45 -0.88,-0.32 -1.82,-0.49 -2.83,-0.49l-15.17 0c-1.03,0 -1.86,0.32 -2.48,0.96 -0.62,0.66 -0.91,1.46 -0.91,2.44l0 3.78c0,1.1 0.29,1.93 0.88,2.49 0.58,0.58 1.44,0.86 2.59,0.86l22.24 0 0 -3.35zm15.15 0l0 -3.78c0,-0.77 0.09,-1.61 0.28,-2.51 0.19,-0.89 0.47,-1.77 0.86,-2.65 0.4,-0.88 0.91,-1.71 1.52,-2.51 0.62,-0.79 1.37,-1.51 2.26,-2.12 0.86,-0.62 1.87,-1.12 3.02,-1.47 1.14,-0.35 2.42,-0.54 3.87,-0.54l15.16 0c1.04,0 2.16,0.11 3.34,0.35 1.19,0.25 2.35,0.62 3.49,1.14 1.15,0.53 2.26,1.21 3.33,2.02 1.04,0.82 1.99,1.82 2.79,2.96 0.81,1.15 1.45,2.48 1.94,4 0.48,1.52 0.73,3.21 0.73,5.11l0 15.21c0,1.9 -0.25,3.61 -0.73,5.12 -0.49,1.52 -1.13,2.84 -1.94,3.99 -0.8,1.16 -1.75,2.14 -2.79,2.95 -1.07,0.81 -2.18,1.48 -3.33,2.01 -1.14,0.52 -2.3,0.9 -3.49,1.14 -1.18,0.25 -2.3,0.36 -3.34,0.36l-20.98 0 0 -8.41 20.98 0c1.06,-0.09 2.01,-0.3 2.89,-0.66 0.88,-0.34 1.64,-0.8 2.28,-1.4 0.63,-0.58 1.12,-1.32 1.48,-2.16 0.34,-0.85 0.5,-1.83 0.5,-2.94l0 -3.37 -22.31 0c-0.81,0 -1.64,-0.09 -2.52,-0.28 -0.88,-0.19 -1.77,-0.49 -2.63,-0.89 -0.88,-0.39 -1.7,-0.9 -2.52,-1.52 -0.8,-0.62 -1.49,-1.37 -2.11,-2.25 -0.62,-0.88 -1.11,-1.88 -1.47,-3.02 -0.37,-1.15 -0.56,-2.44 -0.56,-3.88zm34.12 0c0,-1.11 -0.18,-2.11 -0.54,-2.99 -0.38,-0.88 -0.88,-1.63 -1.5,-2.25 -0.64,-0.62 -1.39,-1.11 -2.27,-1.45 -0.89,-0.32 -1.82,-0.49 -2.84,-0.49l-15.16 0c-1.04,0 -1.86,0.32 -2.48,0.96 -0.62,0.66 -0.92,1.46 -0.92,2.44l0 3.78c0,1.1 0.3,1.93 0.88,2.49 0.58,0.58 1.44,0.86 2.59,0.86l22.24 0 0 -3.35zm58.49 30.78l-8.48 0 0 -18.94 -29.87 0c-0.62,0 -1.18,-0.11 -1.68,-0.36 -0.51,-0.23 -0.96,-0.52 -1.34,-0.9 -0.39,-0.38 -0.69,-0.83 -0.9,-1.35 -0.21,-0.51 -0.32,-1.05 -0.32,-1.63l0 -23.18 8.41 0 0 18.93 25.7 0 0 -18.93 8.48 0 0 46.36z"/>
  </g>
 </g>
</svg>
