<?xml version="1.0" encoding="UTF-8"?>
<!DOCTYPE svg PUBLIC "-//W3C//DTD SVG 1.1//EN" "http://www.w3.org/Graphics/SVG/1.1/DTD/svg11.dtd">
<!-- Creator: CorelDRAW 2021 (64-Bit) -->
<svg xmlns="http://www.w3.org/2000/svg" xml:space="preserve" width="33.8666mm" height="33.8666mm" version="1.1" style="shape-rendering:geometricPrecision; text-rendering:geometricPrecision; image-rendering:optimizeQuality; fill-rule:evenodd; clip-rule:evenodd"
viewBox="0 0 3386.66 3386.66"
 xmlns:xlink="http://www.w3.org/1999/xlink"
 xmlns:xodm="http://www.corel.com/coreldraw/odm/2003">
 <defs>
  <style type="text/css">
   <![CDATA[
    .fil0 {fill:#2B2A29}
   ]]>
  </style>
 </defs>
 <g id="Layer_x0020_1">
  <metadata id="CorelCorpID_0Corel-Layer"/>
  <g id="_1357586567152">
   <path class="fil0" d="M2306.44 1796.33c0,-32.4 21.94,-61.06 55.72,-61.06 33.79,0 55.72,28.66 55.72,61.06 0,32.4 -21.93,61.04 -55.72,61.04 -33.78,0 -55.72,-28.64 -55.72,-61.04zm-26.47 0c0,47.61 37.34,84.56 82.19,84.56 44.85,0 82.19,-36.95 82.19,-84.56 0,-47.62 -37.34,-84.57 -82.19,-84.57 -44.85,0 -82.19,36.95 -82.19,84.57zm-50.89 -81.59l0 162.98 24.5 0 0 -162.98 -24.5 0zm-125.37 21.92l14.22 0c33,0 58.49,25.49 58.49,59.67 0,34.18 -25.49,59.47 -58.49,59.47l-14.22 0 0 -119.14zm-24.51 -21.92l0 162.98 41.3 0c44.85,0 82.19,-33.78 82.19,-81.39 0,-47.42 -37.54,-81.59 -82.19,-81.59l-41.3 0zm-151.25 0l0 104.9c0,40.3 20.94,61.25 59.47,61.25 38.53,0 59.47,-20.95 59.47,-61.25l0 -104.9 -24.49 0 0 98.38c0,31.02 -11.67,43.66 -34.98,43.66 -23.32,0 -34.97,-12.64 -34.97,-43.66l0 -98.38 -24.5 0zm-131.69 0l0 21.52 44.85 0 0 141.46 24.49 0 0 -141.46 45.24 0 0 -21.52 -114.58 0zm-103.25 43.65c0,17.78 11.66,32.01 34.38,41.3 24.3,9.67 40.5,17.78 40.5,33.59 0,19.15 -16.99,24.88 -31.41,24.88 -19.76,0 -32.21,-10.07 -39.71,-22.33l-16.41 14.83c6.73,14.03 24.31,30.23 57.7,30.23 30.42,0 56.3,-15.02 56.3,-49 0,-28.45 -27.46,-40.3 -52.55,-50.38 -14.23,-5.54 -24.9,-12.25 -24.9,-23.91 0,-12.25 9.09,-23.51 26.28,-23.51 16.8,0 26.28,7.12 31.42,14.82l15.21 -14.03c-6.92,-10.67 -21.15,-23.12 -48.01,-23.12 -25.29,0 -48.8,18.79 -48.8,46.63zm616.41 -248.15l0 163 24.5 0 0 -121.7 78.24 121.7 24.49 0 0 -163 -24.49 0 0 121.91 -78.24 -121.91 -24.5 0zm-179.19 81.6c0,46.63 35.56,84.56 79.42,84.56 44.26,0 75.47,-32 75.47,-65.6l0 -22.71 -75.47 0 0 19.16 50.58 0 0 3.55c0,26.88 -24.7,43.08 -49.2,43.08 -30.03,0 -54.33,-27.86 -54.33,-62.04 0,-34.58 23.51,-62.43 54.33,-62.43 19.16,0 34.57,7.7 45.45,23.32l16.2 -17.59c-14.23,-17.19 -34.18,-27.86 -63.03,-27.86 -45.84,0 -79.42,37.74 -79.42,84.56zm-49.2 -81.6l0 163 24.5 0 0 -163 -24.5 0zm-126.24 43.67c0,17.78 11.65,32 34.38,41.29 24.3,9.68 40.49,17.77 40.49,33.59 0,19.15 -16.98,24.89 -31.41,24.89 -19.75,0 -32.2,-10.08 -39.7,-22.33l-16.41 14.83c6.72,14.02 24.3,30.22 57.69,30.22 30.43,0 56.31,-15.02 56.31,-49 0,-28.45 -27.46,-40.3 -52.55,-50.38 -14.23,-5.53 -24.89,-12.25 -24.89,-23.9 0,-12.26 9.08,-23.52 26.27,-23.52 16.79,0 26.28,7.12 31.41,14.83l15.21 -14.03c-6.91,-10.67 -21.14,-23.12 -48,-23.12 -25.29,0 -48.8,18.77 -48.8,46.63zm-117.76 -43.67l0 163 86.94 0 0 -21.53 -62.43 0 0 -49.41 60.05 0 0 -21.52 -60.05 0 0 -49 62.43 0 0 -21.54 -86.94 0zm-123.67 21.94l14.22 0c33,0 58.48,25.48 58.48,59.66 0,34.18 -25.48,59.47 -58.48,59.47l-14.22 0 0 -119.13zm-24.5 -21.94l0 163 41.29 0c44.84,0 82.19,-33.78 82.19,-81.4 0,-47.41 -37.54,-81.6 -82.19,-81.6l-41.29 0zm-539.13 370.63l113.95 0 0 -375.1 -110.06 0 -3.89 0 -85.75 0 -27.96 223.02 -27.98 -223.02 -85.76 0 -3.87 0 -110.07 0 0 375.1 113.94 0 0 -367.93 52.13 367.94 123.21 0.01 52.08 -368.02 0.03 368zm144.61 -375.1l323.2 0 0 111.24 -316.29 0 316.29 51.47 0 212.41 -322.82 0 0 -111.24 315.66 0 -316.04 -49.2c0,-71.56 0,-143.11 0,-214.68z"/>
   <path class="fil0" d="M2523.81 1563.82l0 -54.13 9.52 0 17.94 34.13 17.96 -34.13 9.09 0 0 54.13 -8.57 0 0 -38.58 -15.86 29.78 -5.71 0 -15.76 -29.78 0 38.58 -8.61 0zm-31.76 0l0 -46.01 -16.29 0 0 -8.12 41.27 0 0 8.12 -16.25 0 0 46.01 -8.73 0z"/>
  </g>
 </g>
</svg>
