<?xml version="1.0" encoding="UTF-8"?>
<!DOCTYPE svg PUBLIC "-//W3C//DTD SVG 1.1//EN" "http://www.w3.org/Graphics/SVG/1.1/DTD/svg11.dtd">
<!-- Creator: CorelDRAW 2021 (64-Bit) -->
<svg xmlns="http://www.w3.org/2000/svg" xml:space="preserve" width="33.8666mm" height="33.8666mm" version="1.1" style="shape-rendering:geometricPrecision; text-rendering:geometricPrecision; image-rendering:optimizeQuality; fill-rule:evenodd; clip-rule:evenodd"
viewBox="0 0 3386.66 3386.66"
 xmlns:xlink="http://www.w3.org/1999/xlink"
 xmlns:xodm="http://www.corel.com/coreldraw/odm/2003">
 <defs>
  <style type="text/css">
   <![CDATA[
    .fil1 {fill:#007943}
    .fil2 {fill:#A3C626;fill-rule:nonzero}
    .fil0 {fill:#007943;fill-rule:nonzero}
   ]]>
  </style>
 </defs>
 <g id="Layer_x0020_1">
  <metadata id="CorelCorpID_0Corel-Layer"/>
  <g id="_1357497286144">
   <polygon class="fil0" points="1328.02,1721.32 1279.57,1496.8 1197.94,1496.8 1177.41,1653.36 1157.88,1496.8 1077.59,1496.8 1027.04,1721.32 1078.88,1721.32 1119.81,1533.6 1143.96,1721.32 1209.24,1721.32 1236.08,1531.14 1276.83,1721.32 "/>
   <path class="fil0" d="M1530.29 1707.79c4.23,3.16 9.8,6.12 16.7,8.85 6.85,2.73 14.93,5.01 24.17,6.79 9.25,1.79 19.6,2.78 30.96,3.06 10.53,0 20.66,-1 30.29,-3 9.64,-2.01 18.55,-5.07 26.73,-9.14 8.13,-4 15.26,-9.13 21.33,-15.2 6.01,-6.12 10.74,-13.25 14.09,-21.43 3.39,-8.19 5.07,-17.43 5.12,-27.74 -0.05,-9.85 -2.17,-18.54 -6.35,-26.11 -4.12,-7.52 -9.97,-14.14 -17.49,-19.82 -7.56,-5.74 -16.42,-10.8 -26.61,-15.21 -6.57,-2.95 -12.58,-5.95 -18.04,-8.96 -5.51,-3.01 -9.91,-6.29 -13.25,-9.8 -3.34,-3.57 -5.02,-7.69 -5.13,-12.31 0,-3.62 1.28,-7.13 3.9,-10.41 2.62,-3.29 6.63,-5.96 11.92,-8.07 5.29,-2.07 11.92,-3.18 19.93,-3.23 7.18,-0.17 13.92,0.38 20.22,1.67 6.23,1.27 11.74,2.78 16.53,4.56 4.74,1.78 8.41,3.4 11.03,4.79l16.37 -41.76c-3.62,-1.84 -8.18,-3.68 -13.59,-5.51 -5.4,-1.84 -11.92,-3.34 -19.48,-4.57 -7.64,-1.29 -16.55,-1.9 -26.73,-1.95 -10.14,0 -19.83,1.06 -29.13,3.18 -9.24,2.11 -17.76,5.23 -25.61,9.29 -7.79,4.13 -14.59,9.14 -20.44,15.1 -5.79,5.95 -10.3,12.74 -13.47,20.43 -3.23,7.69 -4.85,16.21 -4.9,25.5 0.05,8.08 1.61,15.32 4.62,21.66 3.06,6.41 7.07,12.03 12.19,16.99 5.07,4.89 10.75,9.24 17.04,12.97 6.24,3.73 12.7,7.02 19.27,9.86 7.57,3.28 13.81,6.51 18.65,9.57 4.9,3.07 8.52,6.3 10.92,9.58 2.33,3.29 3.51,6.96 3.51,10.92 -0.06,4.4 -1.12,8.23 -3.18,11.41 -2.06,3.23 -4.79,5.85 -8.3,7.91 -3.5,2.06 -7.4,3.62 -11.8,4.62 -4.34,0.94 -8.86,1.45 -13.48,1.45 -7.9,-0.06 -15.53,-0.78 -22.83,-2.23 -7.24,-1.45 -14.03,-3.46 -20.38,-5.9 -6.35,-2.45 -12.14,-5.18 -17.26,-8.24l-18.04 40.43zm173.71 -148.69l37.43 146.34c0.5,1.79 0.72,3.29 0.66,4.51 -0.05,1.23 -0.5,2.4 -1.33,3.51 -3.51,5.85 -7.57,11.25 -12.25,16.21 -4.63,4.96 -9.81,9.35 -15.49,13.2 -3.5,2.33 -7.07,4.28 -10.68,5.95 -3.63,1.67 -7.13,3.01 -10.48,4.13 -3.33,1.05 -6.28,1.94 -8.9,2.61l9.01 43.43c2.96,-0.33 6.74,-1.11 11.26,-2.39 4.51,-1.28 9.46,-3.18 14.92,-5.57 5.46,-2.45 11.08,-5.51 16.92,-9.3 5.8,-3.73 11.48,-8.24 17.05,-13.47 7.4,-6.97 14.64,-14.98 21.77,-24.06 7.07,-9.02 14.2,-19.44 21.43,-31.18 7.19,-11.81 14.76,-25.22 22.61,-40.32l59.81 -113.6 -53.46 0 -31.41 70.84c-2.5,5.84 -4.67,11.02 -6.51,15.48 -1.78,4.45 -3.34,8.41 -4.68,11.91 -1.33,3.51 -2.61,6.74 -3.84,9.69l-0.67 0c-0.83,-4.95 -1.84,-10.52 -3.06,-16.81 -1.17,-6.24 -2.61,-13.7 -4.29,-22.27l-12.7 -68.84 -53.12 0zm204.79 163.39l12.69 -67.83c1.79,-9.47 4.3,-17.87 7.47,-25.17 3.17,-7.35 6.85,-13.53 10.91,-18.54 4.07,-5.07 8.41,-8.91 12.92,-11.53 4.51,-2.56 9.02,-3.9 13.48,-3.9 4.67,0 8.29,0.95 11.02,2.79 2.67,1.84 4.56,4.4 5.74,7.63 1.11,3.28 1.67,7.01 1.61,11.3 0,3.06 -0.17,6.24 -0.44,9.47 -0.28,3.29 -0.73,6.34 -1.23,9.24l-16.37 86.54 50.11 0 17.71 -93.56c0.44,-2.28 0.9,-5.06 1.28,-8.24 0.39,-3.17 0.73,-6.4 1,-9.57 0.28,-3.17 0.4,-5.96 0.4,-8.25 -0.06,-10.46 -1.9,-19.26 -5.57,-26.33 -3.62,-7.08 -8.86,-12.42 -15.6,-16.04 -6.79,-3.62 -14.86,-5.4 -24.27,-5.4 -11.58,-0.05 -22.67,2.56 -33.13,7.91 -10.47,5.29 -19.94,13.69 -28.35,25.16l-0.67 0 3.68 -29.07 -44.77 0c-1.17,7.19 -2.45,15.21 -3.9,24.07 -1.45,8.84 -3.12,18.54 -5.12,29.06l-20.71 110.26 50.11 0zm277.62 -45.78c-6.9,3.4 -14.59,6.07 -22.99,8.02 -8.47,1.95 -17.38,2.95 -26.79,3.01 -7.57,0 -14.25,-1.01 -20.1,-3.07 -5.85,-2.11 -10.58,-5.29 -14.31,-9.63 -1.11,-1.61 -2.06,-3.34 -2.9,-5.29 -0.78,-1.95 -1.44,-3.84 -1.89,-5.79 -0.5,-1.95 -0.78,-3.73 -0.89,-5.29 24.11,0.73 44.71,-0.56 61.69,-3.9 16.99,-3.34 30.02,-9.02 38.98,-17.04 8.97,-8.02 13.53,-18.76 13.59,-32.18 -0.06,-8.3 -1.61,-15.54 -4.79,-21.83 -3.12,-6.29 -7.46,-11.58 -13.03,-15.81 -5.57,-4.23 -12.08,-7.41 -19.54,-9.58 -7.41,-2.17 -15.42,-3.23 -24.11,-3.23 -12.26,0.05 -23.56,1.89 -33.92,5.56 -10.41,3.63 -19.7,8.64 -27.89,15.04 -8.19,6.41 -15.21,13.87 -20.94,22.28 -5.79,8.4 -10.19,17.42 -13.25,27.06 -3.01,9.69 -4.56,19.54 -4.56,29.62 0.05,15.2 2.94,28.12 8.74,38.81 5.78,10.69 14.3,18.88 25.5,24.5 11.25,5.63 25,8.47 41.26,8.52 4.62,0 9.69,-0.22 15.2,-0.67 5.46,-0.49 11.14,-1.27 16.98,-2.33 5.85,-1.06 11.59,-2.51 17.32,-4.34 5.74,-1.79 11.19,-4.01 16.32,-6.69l-3.68 -35.75zm-23.39 -72.5c0.06,4.73 -2.11,8.47 -6.51,11.14 -4.35,2.67 -11.09,4.51 -20.16,5.57 -9.07,1.06 -20.65,1.5 -34.8,1.33 0.67,-3.06 2.01,-6.4 4.07,-9.96 2.06,-3.62 4.84,-7.02 8.29,-10.25 3.45,-3.23 7.63,-5.9 12.53,-7.96 4.9,-2.12 10.52,-3.18 16.88,-3.23 6.06,0.05 10.85,1.33 14.35,3.73 3.52,2.45 5.3,5.51 5.35,9.3l0 0.33zm95.54 118.28l10.69 -55.8c1.56,-8.52 3.67,-16.54 6.29,-24.11 2.68,-7.58 6.07,-14.26 10.3,-20.11 4.18,-5.84 9.41,-10.46 15.59,-13.8 6.19,-3.35 13.65,-5.07 22.28,-5.13 1.5,0 2.84,0 4.12,0.06 1.23,0 2.39,0.11 3.56,0.28l10.02 -48.45c-1.5,-0.17 -3.11,-0.28 -4.83,-0.28 -1.68,-0.05 -3.29,-0.05 -4.85,-0.05 -8.47,0.05 -16.21,1.84 -23.23,5.34 -7.01,3.46 -13.25,8.13 -18.7,14.03 -5.46,5.97 -10.08,12.59 -13.87,20.05l-1 0c0.5,-5.84 1,-11.75 1.5,-17.7 0.51,-5.96 1,-11.86 1.51,-17.72l-43.44 0c-0.39,3.46 -0.83,7.86 -1.33,13.09 -0.51,5.24 -1.06,11.08 -1.73,17.43 -0.61,6.41 -1.39,13.04 -2.22,19.88 -0.9,6.9 -1.9,13.7 -3.07,20.44l-17.71 92.55 50.12 0zm66.13 59.46c4.29,2.34 9.41,4.35 15.43,6.07 6.01,1.68 12.7,3.01 20.05,3.9 7.4,0.89 15.25,1.39 23.66,1.39 7.19,0.05 14.65,-0.44 22.33,-1.5 7.68,-1 15.26,-2.84 22.71,-5.46 7.41,-2.67 14.38,-6.35 20.78,-11.08 7.07,-5.51 12.97,-12.2 17.71,-20.05 4.67,-7.79 8.51,-16.43 11.47,-25.83 3,-9.47 5.4,-19.33 7.24,-29.63l24.39 -132.63c-9.53,-3.85 -19.72,-6.85 -30.63,-8.91 -10.86,-2.06 -22.5,-3.12 -34.86,-3.12 -14.98,0.05 -28.56,1.89 -40.82,5.56 -12.19,3.63 -23,8.69 -32.29,15.21 -9.36,6.51 -17.21,14.14 -23.56,22.83 -6.34,8.68 -11.13,18.09 -14.36,28.28 -3.29,10.19 -4.9,20.72 -4.9,31.69 0.05,8.57 1.39,16.59 4.12,24.11 2.73,7.46 6.63,14.03 11.69,19.72 5.12,5.73 11.25,10.18 18.43,13.41 7.18,3.18 15.26,4.85 24.23,4.9 10.57,0 19.93,-2.06 28.06,-6.17 8.07,-4.13 15.42,-10.2 22.05,-18.21l0.67 0 -2.68 11.68c-1.83,8.97 -4.45,16.38 -7.73,22.28 -3.35,5.85 -7.25,10.47 -11.76,13.81 -4.45,3.34 -9.41,5.68 -14.81,7.07 -5.4,1.34 -11.13,2.01 -17.14,1.95 -3.96,0 -8.25,-0.22 -12.81,-0.67 -4.51,-0.44 -9.02,-1.05 -13.54,-1.89 -4.5,-0.84 -8.68,-1.89 -12.52,-3.06 -3.85,-1.23 -7.02,-2.57 -9.58,-4.07l-11.03 38.42zm123.96 -147.67c-2.12,10.69 -5.29,19.6 -9.52,26.73 -4.24,7.13 -9.08,12.47 -14.49,16.04 -5.39,3.56 -10.91,5.34 -16.42,5.34 -5.35,-0.05 -9.91,-1.28 -13.7,-3.68 -3.79,-2.44 -6.68,-5.84 -8.69,-10.24 -2,-4.4 -3,-9.52 -3,-15.48 0.05,-8.07 1.34,-15.7 3.9,-22.83 2.61,-7.13 6.23,-13.47 10.96,-18.93 4.74,-5.51 10.3,-9.81 16.71,-12.92 6.4,-3.12 13.48,-4.74 21.21,-4.79 2.62,0 5.18,0.17 7.75,0.5 2.56,0.28 4.9,0.72 7.01,1.22 2.17,0.51 3.9,1.06 5.29,1.62l-7.01 37.42zm69.14 -75.18l37.42 146.34c0.5,1.79 0.72,3.29 0.66,4.51 -0.05,1.23 -0.5,2.4 -1.33,3.51 -3.51,5.85 -7.58,11.25 -12.26,16.21 -4.61,4.96 -9.79,9.35 -15.48,13.2 -3.5,2.33 -7.07,4.28 -10.69,5.95 -3.62,1.67 -7.12,3.01 -10.46,4.13 -3.34,1.05 -6.3,1.94 -8.91,2.61l9.01 43.43c2.96,-0.33 6.74,-1.11 11.26,-2.39 4.5,-1.28 9.46,-3.18 14.92,-5.57 5.46,-2.45 11.08,-5.51 16.93,-9.3 5.79,-3.73 11.46,-8.24 17.04,-13.47 7.4,-6.97 14.64,-14.98 21.76,-24.06 7.08,-9.02 14.21,-19.44 21.44,-31.18 7.19,-11.81 14.76,-25.22 22.62,-40.32l59.8 -113.6 -53.46 0 -31.41 70.84c-2.5,5.84 -4.67,11.02 -6.51,15.48 -1.78,4.45 -3.34,8.41 -4.68,11.91 -1.33,3.51 -2.61,6.74 -3.84,9.69l-0.67 0c-0.83,-4.95 -1.84,-10.52 -3.06,-16.81 -1.17,-6.24 -2.62,-13.7 -4.28,-22.27l-12.71 -68.84 -53.11 0z"/>
   <polygon class="fil0" points="1421.96,1721.32 1529.73,1496.8 1473.6,1496.8 1398.36,1659.38 1362.95,1496.8 1313.36,1496.8 1358.94,1721.32 "/>
   <path class="fil1" d="M1383.22 1768.4c10.37,12.27 17.2,24.06 21.13,34.11 -7.27,18.55 -18.51,41.01 -27.69,58.49l1.2 3.33c0.82,0.92 2.31,0.34 3.97,-2.82 9.17,-17.52 18.04,-34.66 24.91,-52 3.19,10.62 5.41,21.15 5.94,32.47 0.34,7.22 1.2,7.43 1.94,5.29l1.03 -3.61c1.75,-11.96 -1.64,-32.26 -5.33,-42.62l-0.18 -0.56c6.35,-17.42 11.02,-34.74 13.72,-51.96 0.38,-2.48 -0.01,-6.49 -0.72,-7.91l-0.88 -2.2c-2.49,17.06 -8.52,38.61 -14.59,55.3 -4.71,-11.63 -12.58,-24.51 -24.58,-38.96l-1.51 4.59c-0.97,2.36 -0.84,6.11 1.64,9.06zm-133.35 207.04c18.56,-13.67 35.66,-27.55 50.72,-40.48 -11.5,-3.93 -23.37,-10.15 -36.06,-19.1 -3.17,-2.26 -2.17,-4.88 0.18,-6.54l5.48 -2.99c12.68,9.43 25.47,17.13 38.55,21.56 19.99,-17.46 35.95,-32.57 46.69,-42.03 2.19,-1.92 4.25,-2.95 5.8,-2.59l3.26 0.88c-17.44,16.66 -34.65,32.43 -49.53,45.56l0.96 0.26c10.97,2.61 21.92,3.83 37.5,1.89l-3.48 3.04c-1,1.63 -5.03,4.78 -8.51,5.09 -10.06,1.01 -20.32,0.34 -30.9,-2.18l-3.74 -0.94c-18.54,16 -37.71,31.76 -54.93,44.54l-3.39 -0.87c-1.69,-0.73 -1.2,-3.18 1.4,-5.1zm-142.71 31.71c16.7,10.8 32,19.29 49.64,24.64 19.82,-9.12 38.76,-20.22 57.1,-31.52 3.7,-2.28 6.08,-2.11 7.7,-1.64l4.05 1.3c-18.16,11.17 -41.66,25.49 -60.16,34.1 13.94,3.49 31.23,5.13 49.89,4.9l-3.61 1.44c-2.32,1.13 -7.81,2.28 -10.5,2.41 -15.65,0.78 -30.44,-0.89 -44.73,-4.29l-0.71 -0.17c-18.71,8.04 -41.82,15.88 -61.85,18.9l-3.83 -0.84c-2.49,-0.59 -1.9,-1.47 2.21,-2.37 18.65,-4.09 37.1,-10.35 55.01,-18.04 -14.61,-4.56 -30.2,-12.08 -46.52,-22.24 -2.48,-1.56 -2.12,-3.76 0.76,-4.9l5.55 -1.68zm54.07 -226.33c-0.24,-0.22 29.39,40.98 42.49,57.41 20.47,-13.17 39.9,-26.08 57.88,-37.93 3.55,-2.36 6.92,-1.38 8.33,0.77l2.32 3.73c-15.39,10.49 -39.38,27.25 -61.64,41.93 11.92,14.42 27.76,32.13 40.43,43.95l-4.71 3.93c-2.39,1.41 -5.78,1.67 -8.11,-0.49 -11.82,-11.13 -24.3,-24.57 -37.74,-40.73 -18.74,12.2 -45.66,28.08 -66.95,41.17l-3.34 -4.77c-1.37,-2.22 -1.03,-5.37 2.04,-7.25 20.6,-12.7 41.16,-24.96 61.23,-37.75 -12.16,-15.09 -25.03,-32.33 -38.87,-51.96 -2.35,-3.36 -1.38,-6.8 1.08,-8.44l5.56 -3.57zm-58.44 130.29c-19.34,10.17 -42.69,21.74 -67.82,31.53 14.97,16.88 35.08,36.16 48.86,47.32l-4.65 2.52c-2.98,1.21 -7.63,0.23 -10.55,-2.22 -14.67,-12.21 -29.41,-26.56 -44.11,-43.11 -20.73,8.12 -45.5,16.29 -64.96,19.93l-4.25 -3.94c-2.11,-2.13 -1.96,-4.89 2.96,-6.04 18.11,-4.3 37.84,-10.39 58.81,-18.72 -15.2,-17.1 -29.54,-35.35 -43.13,-54.11 -2.35,-3.31 -1.58,-6 1.08,-6.93l5.62 -1.77c15.15,21.25 31.06,40.95 46.9,58.31 22.09,-8.34 42.92,-17.93 62.96,-28.27 3.7,-1.9 8.2,-0.43 9.9,1.97l2.38 3.53zm236.14 68.29c-19.52,17.25 -38.73,29.92 -55.49,38.74 -16.01,8.81 -28.35,14.79 -46.93,20.39 -8.99,2.71 -2.66,-2.82 5.16,-4.81 12.72,-3.32 26.11,-9.13 41.16,-16.58 15.86,-8.55 33.37,-20.13 51.3,-35.82 6.39,-5.58 8.2,-4.91 4.8,-1.92zm-277.5 83.89c-24.24,1.42 -62.6,-8.03 -62.6,-8.03 0,0 -38.51,-8.83 -59.53,-21.01 -5.1,-2.95 -2.72,-6.41 8.32,-0.21 22.65,12.65 37.07,14.66 51.64,19.42 15.13,2.3 28.91,7 54.82,5.91 12.69,-0.57 13.23,3.59 7.35,3.92zm-248.08 -186.18c-10.41,-20.58 -22.36,-46.83 -30,-65.16 12.06,1.67 27.83,1.54 46.1,-1.62l-2.15 -4.35c-1.11,-2.82 -4.5,-5.68 -7.66,-5.18 -14.46,2.3 -28.13,2.94 -40.38,1.17 -9.99,-24.6 -19.31,-50.06 -24.54,-62.94l-2.33 -0.55c-1.22,-0.29 -2.56,1.11 -0.63,6.51 6.78,18.68 13.8,37.39 21.14,55.8l-0.97 -0.2c-10.95,-2.6 -20.79,-6.72 -29.53,-12.2 -2.1,-1.28 -3.19,-0.87 -3.03,1.07l1.29 5.88c13.51,9.48 25.22,12.94 32.53,14.67l3.79 0.86c8.53,20.9 18.25,43.27 26.96,59.94 2.55,4.91 5.04,5.25 5.04,5.25l4.37 1.05zm104.34 86.93c-19.78,2.11 -36.57,1.38 -49.52,-0.9 -13.57,-17.06 -28.27,-39.87 -39.4,-58.01l-4.22 -0.86c-1.51,0.2 -1.99,1.85 0.02,5.12 11.19,18.17 22.19,35.83 34.82,51.84 -13.02,-3.27 -25.24,-7.35 -37.05,-13.37 -7.55,-3.84 -8.36,-3.21 -6.73,-1.32l2.91 2.98c10.84,8.41 33.78,17.06 46.88,19.73l0.7 0.16c13.08,15.6 27.26,29.67 42.75,41.93 2.24,1.76 6.57,3.71 8.5,3.9l2.86 0.48c-15.48,-11.98 -32.97,-29.67 -45.52,-44.6 15.12,2.52 33.74,2.95 56.9,0.62l-3.57 -3.96c-1.69,-2.21 -5.58,-4.24 -10.33,-3.74zm51.65 -222.93c-17.9,9.5 -36.83,19.3 -55.94,28.07 -12.32,-20.96 -26.97,-46.39 -37.72,-65.1l-4.51 2.03c-2.12,1.09 -3.25,3.87 -1.3,7.4 9.02,16.29 20.3,37.04 33.54,60.15 -17.1,7.53 -34.21,14.33 -50.83,19.19 -3.82,1.09 -4.27,4.47 -2.74,7.37l3.16 4.71c16.36,-4.67 37.19,-12.37 56.48,-20.75 11.25,19.34 24.37,39.65 37.47,60.93 2.53,4.13 6.15,4.68 8.59,3.39l4.75 -2.51c-12.68,-20.58 -26.83,-43.49 -40.69,-66.33 19.32,-8.55 42.66,-20.67 63.85,-31.97l-3.02 -5.23c-1.68,-2.68 -5.74,-4.16 -11.09,-1.35zm282.36 -343.14c19.79,-2.13 37.77,-2.78 55.77,0.3 13.58,17.08 25.5,35.53 36.79,53.86 2.35,3.81 5.31,5.04 6.66,5.01l3.13 -0.19c-11.16,-18.16 -24.39,-40.16 -37.82,-56.77 15.33,3.55 30.28,9.3 44.93,17.41l-0.44 -1.64c-0.64,-1.72 -5.83,-5.92 -8.59,-7.48 -13.63,-7.74 -27.59,-12.93 -41.87,-16.32l-0.71 -0.18c-13.09,-15.58 -30.32,-32.79 -47.99,-45.92l-4.05 0.18c-0.56,0.25 -0.03,1.17 2.42,3.18 14.82,12.04 28.46,25.97 41.01,40.86 -15.11,-2.48 -32.41,-2.79 -51.55,-1.06 -2.3,0.2 -3.62,1.77 -2.21,3.89l4.52 4.87zm-320.8 -15.99c-18.54,13.67 -40.8,31.57 -55.87,44.47 14.46,4.79 27.22,12.82 39.89,21.79l-2.82 2.81c-2.09,2.38 -6.9,3.71 -9.68,1.68 -11.88,-8.57 -23.79,-15.3 -35.53,-19.23 -20,17.47 -40,35.82 -50.72,45.29l-2.38 -0.96c-0.85,-0.79 -0.27,-2.8 2.89,-5.8 14.47,-13.66 29.15,-27.18 44.01,-40.35l-0.97 -0.23c-10.95,-2.6 -21.58,-3.36 -31.87,-2.39 -2.59,0.23 -3.83,-0.79 -1.29,-3.45l4.86 -4.18c12.58,-1.29 23.11,-0.38 33.68,2.13l3.76 0.96c16.04,-13.92 32.26,-27.36 48.81,-39.86 5.35,-4.04 7.56,-4.36 9.64,-3.78l3.59 1.1zm132.56 -30.86c-16.71,-10.8 -32.03,-17.7 -44.62,-21.49 -19.81,9.13 -43.04,22.77 -61.39,34.08l-3.6 -0.96c-1.76,-0.68 -1.78,-2.54 1.86,-4.77 18.16,-11.18 35.94,-21.99 54.43,-30.6 -13.1,-2.94 -25.85,-4.77 -39.11,-4.72 -6.02,0 -7.98,-0.46 -7.77,-1.09l3.07 -2.57c18.02,-1.82 38.48,0.5 52.8,3.91l0.68 0.16c18.71,-8.03 37.71,-14.21 57.05,-18.17 3.09,-0.62 8.54,-0.28 9.84,0.56l0.75 0.96c-19.56,3.93 -41.27,11.35 -59.19,19 16.68,4.92 34.24,14.59 50.54,24.74l-3.68 1.9c-2.34,1.52 -7.21,1.93 -11.66,-0.94zm-54.24 222.32c-11.71,-16.55 -24.2,-33.82 -37.32,-50.25 -20.44,13.18 -44.99,29.42 -63.02,41.29l-3.16 -4.08c-1.3,-1.93 -1.03,-4.85 2.25,-7.08 15.39,-10.5 34.8,-23.96 57.03,-38.6 -11.88,-14.45 -24.1,-28.19 -36.75,-40.04 -3.08,-2.88 -1.76,-6.1 0.94,-7.79l5.18 -2.78c11.8,11.09 27.34,27.74 40.78,43.94 18.76,-12.23 39.62,-24.46 60.89,-37.56 4,-2.46 7.39,-1.48 9.05,0.63l3.23 4.71c-20.6,12.7 -46.1,28.05 -66.16,40.78 12.18,15.1 28.86,37.64 42.7,57.28l-4.63 2.98c-2.66,2.05 -7.27,1.82 -11.01,-3.43zm196.14 -91.12l-4.96 1.81c-2.69,0.87 -6.71,0.01 -8.93,-3.05 -13.24,-18.23 -27.53,-36.15 -43.37,-53.56 -22.09,8.39 -47.86,20.44 -67.9,30.75l-4.31 -3.71c-2.01,-1.9 -2.18,-4.76 1.88,-6.88 20.6,-10.62 41.62,-20.51 62.89,-28.93 -14.97,-16.88 -29.86,-31.16 -44.09,-43.14 -3.75,-3.18 -2.84,-5.66 -0.17,-6.67l6.19 -2c14.65,12.18 33.8,30.76 48.54,47.34 20.7,-8.15 40.32,-14.35 58.91,-18.63 5.21,-1.19 10.04,1.63 11.09,3.56l1.77 3.63c-18.11,4.3 -43.38,11.83 -64.35,20.17 15.23,17.1 33.25,40.57 46.81,59.31zm-476.08 352.09c9.64,24.19 21.09,44.15 32.09,59.57 10.36,15.08 18.66,25.97 32.74,39.33 6.79,6.47 3.62,-1.32 -2.43,-6.61 -9.89,-8.69 -19.21,-19.91 -29.33,-33.34 -10.28,-14.77 -20.72,-33 -29.67,-55.08 -3.19,-7.86 -5.08,-8.07 -3.4,-3.87zm107.61 -452.46c19.5,-17.26 38.71,-29.95 55.47,-38.75 16.04,-8.8 28.35,-14.79 46.94,-20.39 8.97,-2.71 2.64,2.81 -5.15,4.82 -12.74,3.31 -26.11,9.11 -41.2,16.58 -15.82,8.54 -33.35,20.12 -51.29,35.83 -6.38,5.56 -8.16,4.87 -4.77,1.91zm-116.5 421.11c-4.66,-16.01 -9.08,-33.31 -12.6,-51.9 4.57,11.31 11.43,24.3 19.96,32.43l-0.3 -2.61c-0.16,-1.54 -2.66,-7.51 -5.58,-11.25 -6.29,-7.95 -11.68,-17.41 -15.86,-28.36 -3.24,-19.19 -5.77,-39.64 -7.39,-61.42 -0.25,-3.22 -0.71,-3.09 -0.58,-0.26 0.78,18.38 2.53,36.06 5.01,52.94 -3.62,-11.86 -6.15,-25.31 -7.54,-40.44 -0.21,-2.21 -0.5,-2.31 -0.29,-0.08 1.45,19.07 4.61,35.78 9.37,50.23 3.6,21.58 8.51,41.71 14.18,60.24 0.45,1.51 4.61,10.79 1.62,0.48zm94.42 -397c-11.37,12.2 -23.1,25.63 -34.62,40.7 9.18,-8.09 20.86,-16.49 32.39,-19.83l-1.13 1.6c-1.16,2.12 -7.12,6.43 -10.32,7.9 -9.2,4.3 -18.27,10.33 -26.94,18.25 -11.53,15.65 -22.99,32.8 -34.23,51.48 -1.68,2.79 -2.04,2.47 -0.64,-0.01 8.96,-16.04 18.48,-31.07 28.29,-45.01 -8.56,8.92 -16.86,19.8 -24.94,32.71 -1.17,1.87 -1.47,1.83 -0.27,-0.1 9.88,-16.35 20.21,-29.83 30.97,-40.59 12.93,-17.66 26.37,-33.43 39.78,-47.41 1.08,-1.17 8.98,-7.54 1.66,0.31zm299.58 -107.99c24.25,-1.41 62.61,8.02 62.61,8.02 0,0 38.5,8.85 59.5,21.02 5.1,2.97 2.77,6.37 -8.32,0.21 -22.64,-12.67 -37.06,-14.66 -51.6,-19.43 -15.16,-2.29 -28.94,-7.01 -54.87,-5.89 -12.63,0.52 -13.21,-3.58 -7.32,-3.93zm-335.19 270.93c-21.06,14.68 -36.69,29.92 -47.2,43.59 2.09,30.58 8.23,68.49 13.66,98.14l-3.34 4.58c-1.64,1.09 -3.58,-0.33 -4.56,-5.69 -5.39,-29.73 -10.5,-58.76 -12.56,-87.36 -9.7,14.82 -17.9,29.85 -23.97,46.68 -3.89,10.75 -5.24,10.75 -5.34,7.26l0.15 -5.81c3,-18.63 17.51,-47.95 27.82,-62.19l0.52 -0.77c-1.25,-28.53 -0.08,-56.31 3.98,-83.21 0.6,-3.87 3.05,-9.76 4.76,-11.64l2.34 -2.98c-4.3,26.57 -5.44,61.22 -4.27,88.54 12.41,-15.79 30.08,-32.28 54.59,-49.63l0.1 7.46c0.33,3.9 -1.62,9.5 -6.68,13.03z"/>
   <path class="fil0" d="M1732.35 2001.95c-0.13,0.5 -0.24,0.95 -0.3,1.35 -0.06,0.43 -0.09,0.81 -0.09,1.19 0,1.4 0.58,2.47 1.68,3.19 1.12,0.74 2.77,1.12 4.93,1.12 2.93,-0.03 5.55,-0.71 7.92,-2.09 2.38,-1.36 4.26,-3.15 5.68,-5.45 1.4,-2.26 2.12,-4.8 2.16,-7.57 -0.02,-3.61 -1.14,-6.8 -3.34,-9.6 -2.23,-2.79 -5.43,-5 -9.62,-6.61 -4.18,-1.63 -9.22,-2.46 -15.12,-2.48 -6.59,0.02 -12.71,1.3 -18.39,3.81 -5.67,2.53 -10.67,6.21 -15.03,11.06 -4.01,4.47 -7.06,9.68 -9.11,15.61 -2.06,5.95 -3.09,12.52 -3.09,19.72 0.04,8.28 1.52,15.4 4.46,21.29 2.95,5.9 7.18,10.44 12.67,13.59 5.49,3.14 12.05,4.73 19.72,4.77 3.18,0 6.22,-0.32 9.12,-0.93 2.93,-0.64 5.69,-1.55 8.28,-2.76l-1.52 7.12c-0.8,3.81 -1.76,7.12 -2.88,9.96 -1.1,2.84 -2.47,5.23 -4.11,7.2l8.51 -1.27c1.94,-0.3 3.46,-0.87 4.6,-1.76 1.15,-0.87 2.04,-2.09 2.67,-3.69 0.64,-1.59 1.19,-3.58 1.63,-5.99l6.36 -34.06c0.42,-2.41 0.89,-4.58 1.42,-6.5 0.52,-1.91 1.27,-3.61 2.26,-5.06l-14.74 0c0.25,0.69 0.47,1.35 0.64,1.99 0.17,0.63 0.25,1.24 0.25,1.82 0,0.7 -0.02,1.31 -0.08,1.84 -0.04,0.53 -0.11,1.02 -0.17,1.46l-1.65 9.02c-0.36,1.98 -0.77,3.61 -1.19,4.9 -0.45,1.29 -1.06,2.28 -1.86,2.99 -1.45,1.12 -3.5,2.05 -6.19,2.83 -2.69,0.79 -5.78,1.19 -9.32,1.23 -5.61,-0.02 -10.48,-1.25 -14.57,-3.64 -4.09,-2.41 -7.27,-5.85 -9.49,-10.29 -2.22,-4.45 -3.37,-9.77 -3.39,-15.93 0.02,-6.38 0.87,-12.12 2.52,-17.2 1.67,-5.09 4.03,-9.45 7.09,-13.05 3.05,-3.6 6.7,-6.38 10.92,-8.28 4.23,-1.93 8.91,-2.88 14.04,-2.9 3.66,0.02 6.8,0.45 9.4,1.31 2.61,0.85 4.62,1.97 6.02,3.39 1.4,1.42 2.09,2.99 2.11,4.7 -0.02,1.25 -0.31,2.37 -0.93,3.39 -0.64,1 -1.46,1.82 -2.54,2.42 -1.06,0.61 -2.26,0.91 -3.64,0.93 -0.7,0 -1.34,-0.09 -1.95,-0.28 -0.62,-0.17 -1.23,-0.42 -1.86,-0.74l-0.89 2.93zm51.59 -0.77l-11.18 2.29c0.13,0.7 0.23,1.4 0.3,2.05 0.06,0.66 0.08,1.26 0.08,1.76 0,0.51 0,1.17 -0.04,2 -0.04,0.8 -0.15,1.75 -0.34,2.83l-8.14 51.47 10.68 0 5.08 -32.02c1,-6.49 2.67,-11.36 5,-14.6 2.35,-3.24 5.51,-4.85 9.49,-4.85 1.02,0 2.01,0.13 3.01,0.38 0.99,0.25 2.01,0.64 3.09,1.14l0.89 -5.72c0.06,-0.25 0.11,-0.52 0.11,-0.8 0.01,-0.27 0.01,-0.52 0.01,-0.72 0,-1.59 -0.44,-2.82 -1.28,-3.66 -0.85,-0.85 -2.08,-1.29 -3.67,-1.29 -2.86,0 -5.53,0.93 -8.03,2.77 -2.48,1.86 -4.81,4.66 -6.96,8.41l1.9 -11.44zm51.47 -0.25c-4.68,-0.03 -8.86,0.87 -12.54,2.64 -3.66,1.78 -6.99,4.56 -9.95,8.29 -1.87,2.31 -3.48,4.91 -4.83,7.81 -1.34,2.92 -2.38,6.06 -3.09,9.39 -0.73,3.34 -1.11,6.8 -1.11,10.37 0.02,5.45 0.94,10.06 2.71,13.9 1.78,3.81 4.3,6.71 7.54,8.72 3.27,2.02 7.14,3.03 11.61,3.05 4.54,-0.02 8.71,-0.99 12.52,-2.9 3.81,-1.93 7.14,-4.68 9.95,-8.26 2.82,-3.56 5,-7.86 6.55,-12.85 1.56,-5 2.35,-10.6 2.37,-16.78 -0.02,-4.89 -0.93,-9.09 -2.69,-12.56 -1.78,-3.48 -4.28,-6.14 -7.54,-8 -3.24,-1.87 -7.07,-2.8 -11.5,-2.82zm-1.27 8.64c4,0 6.99,1.33 8.98,4.03 1.97,2.66 2.96,6.71 2.96,12.11 0,2.78 -0.27,5.57 -0.8,8.34 -0.53,2.78 -1.25,5.41 -2.14,7.84 -0.91,2.44 -1.91,4.56 -3.03,6.31 -1.76,2.79 -3.73,4.87 -5.91,6.23 -2.18,1.35 -4.66,2.03 -7.43,2.03 -2.44,0 -4.51,-0.61 -6.29,-1.8 -1.76,-1.2 -3.11,-2.94 -4.07,-5.21 -0.97,-2.26 -1.44,-5.02 -1.46,-8.23 0.02,-4.75 0.55,-9.07 1.56,-12.95 1.02,-3.85 2.44,-7.2 4.22,-9.98 1.78,-2.79 3.84,-4.93 6.12,-6.43 2.29,-1.51 4.72,-2.27 7.29,-2.29zm51.21 16.78c0.57,-2.48 1.02,-4.64 1.31,-6.51 0.33,-1.84 0.47,-3.41 0.47,-4.68 -0.02,-2.79 -0.53,-5.19 -1.52,-7.16 -1.02,-1.97 -2.44,-3.45 -4.28,-4.49 -1.84,-1.04 -4,-1.56 -6.52,-1.56 -1.57,-0.02 -2.85,0.14 -3.82,0.54 -0.97,0.41 -1.73,1.19 -2.29,2.38l-2.92 5.84c0.7,-0.19 1.34,-0.32 1.95,-0.4 0.59,-0.06 1.16,-0.11 1.73,-0.11 2.3,0 3.99,0.51 5.09,1.55 1.1,1.06 1.65,2.65 1.65,4.81 0,0.82 -0.13,1.84 -0.34,3.07 -0.23,1.2 -0.55,2.65 -0.93,4.3l-3.69 16.01c-0.5,2.04 -0.86,3.9 -1.07,5.61 -0.21,1.7 -0.32,3.23 -0.32,4.56 0.02,3.11 0.59,5.76 1.75,7.94 1.15,2.2 2.8,3.88 4.96,5.04 2.16,1.17 4.75,1.74 7.77,1.76 3.99,-0.02 7.7,-1.04 11.15,-3.09 3.45,-2.04 6.42,-5.02 8.94,-8.99 0.74,3.97 2.28,6.98 4.67,9.05 2.38,2.1 5.4,3.14 9.05,3.16 5.61,0 10.69,-1.79 15.29,-5.32 4.58,-3.56 8.6,-8.85 12.03,-15.9 1.62,-3.31 3.01,-6.87 4.15,-10.73 1.17,-3.87 2.06,-7.79 2.67,-11.81 0.62,-4 0.93,-7.9 0.93,-11.65 0.02,-2.52 -0.27,-4.34 -0.93,-5.46 -0.66,-1.13 -1.82,-1.68 -3.52,-1.66l-8.89 0c0.76,1.02 1.29,2.35 1.59,4.03 0.32,1.65 0.46,3.66 0.45,6.01 0,3.15 -0.3,6.5 -0.88,10.04 -0.59,3.53 -1.45,7.1 -2.6,10.67 -1.16,3.59 -2.58,7.02 -4.28,10.3 -2.22,4.26 -4.55,7.45 -6.97,9.61 -2.41,2.14 -4.82,3.23 -7.26,3.23 -2.22,0 -3.9,-0.77 -5.04,-2.27 -1.13,-1.53 -1.7,-3.77 -1.7,-6.76 0,-1.2 0.09,-2.62 0.28,-4.28 0.17,-1.67 0.42,-3.53 0.74,-5.63l3.69 -22.75c0.25,-1.78 0.59,-3.66 1.03,-5.67 0.43,-2.02 0.94,-4.18 1.51,-6.53l-11.57 0c-0.06,1.59 -0.23,3.28 -0.51,5.06 -0.25,1.81 -0.54,3.71 -0.88,5.74l-1.91 12.2c-1.13,6.74 -2.58,12.37 -4.43,16.93 -1.82,4.53 -3.89,7.96 -6.22,10.25 -2.33,2.31 -4.79,3.45 -7.39,3.45 -2.06,0 -3.65,-0.66 -4.77,-1.92 -1.13,-1.3 -1.7,-3.14 -1.72,-5.57 0,-2.17 0.38,-4.83 1.15,-8.01l3.17 -14.23zm96.33 -50.21c-1.54,0.03 -2.88,0.35 -4.04,0.98 -1.17,0.63 -2.06,1.51 -2.71,2.58 -0.66,1.08 -0.98,2.32 -1,3.69 0.02,1.8 0.59,3.22 1.69,4.26 1.12,1.04 2.67,1.57 4.66,1.59 1.47,-0.02 2.74,-0.35 3.86,-0.96 1.12,-0.61 2.01,-1.43 2.66,-2.52 0.64,-1.06 0.96,-2.29 0.98,-3.64 -0.02,-1.16 -0.27,-2.18 -0.82,-3.07 -0.54,-0.89 -1.25,-1.61 -2.16,-2.12 -0.94,-0.5 -1.95,-0.79 -3.12,-0.79zm1.27 25.17l-12.71 2.42c0.13,0.69 0.26,1.35 0.36,1.98 0.09,0.64 0.15,1.25 0.15,1.82 0,0.58 -0.04,1.3 -0.1,2.17 -0.09,0.86 -0.22,1.84 -0.41,2.92l-4.82 30.12c-0.26,1.59 -0.45,3.07 -0.58,4.45 -0.12,1.37 -0.19,2.6 -0.19,3.68 0.05,4.47 1.14,7.86 3.35,10.19 2.18,2.35 5.27,3.52 9.24,3.54 1.3,0 2.35,-0.22 3.09,-0.64 0.76,-0.44 1.38,-1.17 1.86,-2.16l2.92 -5.46c-0.7,0.06 -1.29,0.1 -1.8,0.1 -0.48,0.02 -0.87,0.02 -1.12,0.02 -2.22,0 -3.88,-0.57 -4.98,-1.71 -1.08,-1.14 -1.63,-2.86 -1.63,-5.15 0,-1.4 0.25,-3.68 0.76,-6.86l6.61 -41.43zm29.99 9.02c-0.67,-3.17 -1.86,-5.51 -3.51,-7.03 -1.68,-1.5 -3.94,-2.26 -6.78,-2.24 -1.59,0 -2.86,0.19 -3.84,0.59 -0.99,0.38 -1.69,0.99 -2.14,1.82l-2.92 5.72c1.15,-0.51 2.42,-0.77 3.82,-0.77 1.8,0.03 3.19,0.54 4.19,1.51 1,0.99 1.5,2.35 1.52,4.09 0,0.51 -0.02,1.14 -0.1,1.92 -0.09,0.77 -0.21,1.7 -0.4,2.78l-7 44.86 10.68 0 5.85 -36.98c0.44,-2.54 1.24,-4.85 2.43,-6.88 1.19,-2.06 2.65,-3.82 4.35,-5.26 1.71,-1.46 3.58,-2.56 5.57,-3.34 2.01,-0.77 4.02,-1.17 6.07,-1.17 1.81,0 3.18,0.42 4.14,1.25 0.97,0.83 1.45,1.97 1.45,3.45 0,0.45 -0.02,0.89 -0.08,1.33 -0.04,0.45 -0.1,0.9 -0.17,1.34l-4.96 31.01c-0.12,0.7 -0.21,1.42 -0.27,2.16 -0.07,0.74 -0.11,1.46 -0.11,2.16 0.02,2.48 0.53,4.62 1.55,6.44 1.02,1.82 2.44,3.24 4.24,4.23 1.8,1 3.89,1.51 6.29,1.53 1.44,0.02 2.62,-0.17 3.53,-0.59 0.89,-0.41 1.63,-1.14 2.19,-2.21l3.04 -5.33c-0.57,0.06 -1.1,0.12 -1.6,0.17 -0.51,0.06 -1,0.08 -1.44,0.08 -2.4,0 -4.17,-0.49 -5.3,-1.48 -1.14,-1 -1.7,-2.52 -1.7,-4.62 0,-0.45 0.03,-0.89 0.09,-1.35 0.05,-0.45 0.11,-0.93 0.17,-1.45l5.09 -31.38c0.25,-1.91 0.38,-3.44 0.38,-4.58 -0.03,-3.58 -1.26,-6.31 -3.71,-8.19 -2.44,-1.89 -6,-2.85 -10.66,-2.86 -3.62,0 -7.11,0.76 -10.44,2.3 -3.35,1.53 -6.52,3.86 -9.51,6.97zm87.31 -6.6c-1.91,-0.9 -3.87,-1.57 -5.89,-2.02 -2.03,-0.45 -4.09,-0.65 -6.19,-0.65 -3.4,0.01 -6.58,0.69 -9.51,2 -2.92,1.34 -5.46,3.17 -7.66,5.49 -2.18,2.33 -3.88,5.02 -5.11,8.05 -1.22,3.03 -1.84,6.29 -1.86,9.75 0,6.73 2.67,11.43 8.01,14.1 -2.99,1.02 -5.24,2.37 -6.76,4.07 -1.51,1.69 -2.27,3.68 -2.27,5.97 0,1.72 0.52,3.24 1.49,4.57 0.97,1.34 2.39,2.48 4.24,3.43 -3.61,0.49 -6.66,1.42 -9.15,2.85 -2.5,1.41 -4.39,3.19 -5.69,5.38 -1.29,2.18 -1.94,4.63 -1.94,7.41 0.02,4.66 2.03,8.26 6.05,10.78 4.01,2.52 9.87,3.81 17.58,3.83 6.43,-0.02 11.85,-0.83 16.32,-2.37 4.45,-1.55 7.83,-3.71 10.16,-6.44 2.33,-2.73 3.49,-5.91 3.52,-9.49 0,-3.07 -0.74,-5.63 -2.25,-7.67 -1.5,-2.03 -3.75,-3.62 -6.73,-4.78 -2.99,-1.17 -6.74,-1.97 -11.23,-2.42 -2.5,-0.23 -4.6,-0.55 -6.29,-0.95 -1.69,-0.4 -2.99,-0.99 -3.86,-1.78 -0.84,-0.78 -1.29,-1.86 -1.29,-3.24 0.03,-1.57 0.55,-2.75 1.57,-3.56 1.04,-0.78 2.39,-1.4 4.11,-1.82 1.7,-0.43 3.58,-0.89 5.63,-1.36 6.68,-1.69 11.67,-4.49 14.98,-8.38 3.33,-3.9 4.97,-8.99 4.97,-15.25 0,-1.4 -0.1,-2.73 -0.31,-4.05 -0.21,-1.29 -0.57,-2.56 -1.08,-3.83l5.08 0.13c1.19,0.02 2.07,-0.18 2.67,-0.58 0.62,-0.4 1.12,-1.1 1.52,-2.1l2.54 -6.1c-0.86,0.39 -1.77,0.64 -2.73,0.79 -0.93,0.17 -1.97,0.24 -3.11,0.24l-9.53 0zm-4.71 14.23c-0.01,2.51 -0.37,4.91 -1.09,7.13 -0.7,2.23 -1.68,4.2 -2.9,5.91 -1.24,1.7 -2.61,3.05 -4.16,4.03 -1.52,0.97 -3.13,1.46 -4.8,1.48 -2.5,-0.02 -4.5,-0.89 -5.93,-2.56 -1.45,-1.7 -2.19,-4.03 -2.21,-6.97 0.02,-2.52 0.38,-4.89 1.12,-7.12 0.73,-2.22 1.7,-4.17 2.95,-5.86 1.25,-1.7 2.62,-3.01 4.19,-3.99 1.55,-0.95 3.16,-1.44 4.83,-1.46 2.56,0.02 4.54,0.83 5.91,2.46 1.38,1.63 2.08,3.94 2.09,6.95zm-14.1 45.62c4.83,0 8.43,0.63 10.8,1.93 2.38,1.27 3.56,3.22 3.56,5.82 0,1.89 -0.76,3.58 -2.27,5.09 -1.5,1.5 -3.68,2.71 -6.56,3.6 -2.86,0.89 -6.38,1.33 -10.48,1.35 -4.7,-0.02 -8.29,-0.72 -10.72,-2.1 -2.42,-1.38 -3.64,-3.35 -3.64,-5.91 0.02,-3.03 1.67,-5.4 4.93,-7.14 3.28,-1.73 8.07,-2.6 14.38,-2.64zm144.62 -89.72c-2.47,0.95 -5.42,1.67 -8.83,2.18 -3.41,0.49 -7.25,0.74 -11.5,0.74 -3.18,-0.02 -6.63,-0.15 -10.38,-0.35 -3.75,-0.24 -7.78,-0.46 -12.08,-0.69 -4.29,-0.23 -8.89,-0.34 -13.76,-0.36 -3.41,-0.02 -6.23,0.11 -8.45,0.38 -2.22,0.3 -3.98,0.92 -5.25,1.87 -1.25,0.95 -2.16,2.39 -2.7,4.36l-1.9 6.99c2.93,-1.5 6.18,-2.56 9.78,-3.18 3.63,-0.61 7.65,-0.91 12.08,-0.89 1.46,0 2.98,0.02 4.59,0.07 1.59,0.04 3.29,0.06 5.06,0.06l-10.41 65.32c-0.53,3.39 -1.19,6.19 -2,8.43 -0.78,2.22 -1.6,3.81 -2.46,4.79l16.02 0c-0.32,-0.76 -0.55,-1.48 -0.68,-2.14 -0.15,-0.66 -0.21,-1.23 -0.21,-1.67 0,-1.08 0.06,-2.29 0.19,-3.65 0.13,-1.33 0.32,-2.84 0.57,-4.48l10.55 -66.22c3.88,0.32 7.25,0.57 10.1,0.75 2.86,0.17 5.21,0.27 7.06,0.27 2.35,0.02 4.32,-0.13 5.91,-0.45 1.56,-0.31 2.83,-0.89 3.83,-1.73 0.97,-0.85 1.76,-2.08 2.33,-3.67l2.54 -6.73zm8.39 27.07c-4.68,-0.03 -8.86,0.87 -12.54,2.64 -3.67,1.78 -6.99,4.56 -9.95,8.29 -1.87,2.31 -3.48,4.91 -4.83,7.81 -1.34,2.92 -2.38,6.06 -3.1,9.39 -0.72,3.34 -1.1,6.8 -1.1,10.37 0.02,5.45 0.93,10.06 2.71,13.9 1.78,3.81 4.3,6.71 7.54,8.72 3.27,2.02 7.14,3.03 11.61,3.05 4.53,-0.02 8.71,-0.99 12.52,-2.9 3.81,-1.93 7.14,-4.68 9.95,-8.26 2.82,-3.56 5,-7.86 6.55,-12.85 1.56,-5 2.35,-10.6 2.37,-16.78 -0.02,-4.89 -0.93,-9.09 -2.69,-12.56 -1.78,-3.48 -4.28,-6.14 -7.54,-8 -3.24,-1.87 -7.07,-2.8 -11.5,-2.82zm-1.27 8.64c4,0 6.99,1.33 8.98,4.03 1.97,2.66 2.96,6.71 2.96,12.11 0,2.78 -0.27,5.57 -0.8,8.34 -0.53,2.78 -1.25,5.41 -2.14,7.84 -0.92,2.44 -1.91,4.56 -3.03,6.31 -1.76,2.79 -3.73,4.87 -5.91,6.23 -2.18,1.35 -4.66,2.03 -7.44,2.03 -2.43,0 -4.5,-0.61 -6.28,-1.8 -1.76,-1.2 -3.12,-2.94 -4.07,-5.21 -0.97,-2.26 -1.44,-5.02 -1.46,-8.23 0.02,-4.75 0.55,-9.07 1.56,-12.95 1.02,-3.85 2.44,-7.2 4.22,-9.98 1.78,-2.79 3.84,-4.93 6.12,-6.43 2.29,-1.51 4.72,-2.27 7.29,-2.29zm73.2 -5.84c-1.91,-0.9 -3.88,-1.57 -5.89,-2.02 -2.03,-0.45 -4.09,-0.65 -6.18,-0.65 -3.41,0.01 -6.59,0.69 -9.52,2 -2.92,1.34 -5.46,3.17 -7.66,5.49 -2.19,2.33 -3.88,5.02 -5.11,8.05 -1.22,3.03 -1.84,6.29 -1.86,9.75 0,6.73 2.67,11.43 8,14.1 -2.99,1.02 -5.23,2.37 -6.75,4.07 -1.51,1.69 -2.27,3.68 -2.27,5.97 0,1.72 0.51,3.24 1.48,4.57 0.98,1.34 2.4,2.48 4.24,3.43 -3.6,0.49 -6.65,1.42 -9.15,2.85 -2.5,1.41 -4.38,3.19 -5.68,5.38 -1.28,2.18 -1.94,4.63 -1.94,7.41 0.01,4.66 2.03,8.26 6.06,10.78 4,2.52 9.87,3.81 17.57,3.83 6.42,-0.02 11.84,-0.83 16.31,-2.37 4.45,-1.55 7.84,-3.71 10.17,-6.44 2.33,-2.73 3.49,-5.91 3.51,-9.49 0,-3.07 -0.73,-5.63 -2.24,-7.67 -1.51,-2.03 -3.75,-3.62 -6.74,-4.78 -2.98,-1.17 -6.73,-1.97 -11.22,-2.42 -2.5,-0.23 -4.6,-0.55 -6.29,-0.95 -1.69,-0.4 -2.99,-0.99 -3.86,-1.78 -0.84,-0.78 -1.29,-1.86 -1.29,-3.24 0.02,-1.57 0.55,-2.75 1.57,-3.56 1.03,-0.78 2.39,-1.4 4.11,-1.82 1.69,-0.43 3.58,-0.89 5.63,-1.36 6.68,-1.69 11.67,-4.49 14.98,-8.38 3.32,-3.9 4.98,-8.99 4.98,-15.25 0,-1.4 -0.11,-2.73 -0.32,-4.05 -0.21,-1.29 -0.57,-2.56 -1.09,-3.83l5.09 0.13c1.19,0.02 2.07,-0.18 2.67,-0.58 0.62,-0.4 1.12,-1.1 1.52,-2.1l2.54 -6.1c-0.86,0.39 -1.78,0.64 -2.73,0.79 -0.93,0.17 -1.97,0.24 -3.11,0.24l-9.53 0zm-4.7 14.23c-0.02,2.51 -0.39,4.91 -1.1,7.13 -0.71,2.23 -1.68,4.2 -2.91,5.91 -1.22,1.7 -2.61,3.05 -4.15,4.03 -1.53,0.97 -3.13,1.46 -4.81,1.48 -2.5,-0.02 -4.49,-0.89 -5.93,-2.56 -1.44,-1.7 -2.18,-4.03 -2.2,-6.97 0.02,-2.52 0.38,-4.89 1.12,-7.12 0.72,-2.22 1.69,-4.17 2.95,-5.86 1.24,-1.7 2.62,-3.01 4.19,-3.99 1.55,-0.95 3.15,-1.44 4.83,-1.46 2.56,0.02 4.53,0.83 5.91,2.46 1.38,1.63 2.08,3.94 2.1,6.95zm-14.11 45.62c4.83,0 8.43,0.63 10.8,1.93 2.38,1.27 3.56,3.22 3.56,5.82 0,1.89 -0.76,3.58 -2.27,5.09 -1.5,1.5 -3.68,2.71 -6.56,3.6 -2.87,0.89 -6.38,1.33 -10.49,1.35 -4.7,-0.02 -8.28,-0.72 -10.71,-2.1 -2.42,-1.38 -3.64,-3.35 -3.64,-5.91 0.01,-3.03 1.66,-5.4 4.93,-7.14 3.28,-1.73 8.07,-2.6 14.38,-2.64zm48.17 -34.56c0.9,-3.23 2.04,-6.09 3.47,-8.59 1.4,-2.5 2.94,-4.61 4.64,-6.33 1.66,-1.73 3.38,-3.05 5.14,-3.94 1.76,-0.91 3.43,-1.36 5.04,-1.36 1.61,0.03 2.88,0.48 3.79,1.34 0.94,0.87 1.4,2.08 1.42,3.62 0,1.76 -0.55,3.52 -1.63,5.23 -1.08,1.74 -2.65,3.33 -4.68,4.77 -2.05,1.46 -4.51,2.65 -7.42,3.58 -2.9,0.93 -6.16,1.5 -9.77,1.68zm-1.15 7.24c5.44,-0.15 10.29,-0.85 14.55,-2.1 4.26,-1.25 7.86,-2.96 10.82,-5.13 2.95,-2.15 5.21,-4.65 6.74,-7.54 1.54,-2.87 2.33,-5.99 2.33,-9.38 -0.02,-2.1 -0.57,-3.98 -1.7,-5.68 -1.1,-1.67 -2.64,-3 -4.66,-3.98 -2,-0.99 -4.38,-1.5 -7.11,-1.52 -2.56,0 -5.11,0.42 -7.67,1.25 -2.54,0.82 -5,2.03 -7.37,3.64 -2.38,1.61 -4.55,3.58 -6.56,5.91 -2.29,2.69 -4.24,5.61 -5.83,8.77 -1.59,3.18 -2.78,6.5 -3.6,9.99 -0.83,3.5 -1.25,7.06 -1.25,10.73 0.02,4.97 0.83,9.2 2.44,12.72 1.6,3.52 3.91,6.23 6.9,8.09 2.98,1.87 6.57,2.8 10.74,2.82 3.41,-0.02 6.45,-0.49 9.12,-1.44 2.7,-0.95 4.86,-2.29 6.53,-4.02 1.66,-1.72 2.67,-3.76 3.03,-6.11l0.89 -5.72c-2.79,2.67 -5.57,4.69 -8.33,6.02 -2.75,1.34 -5.52,1.99 -8.32,1.99 -2.54,-0.02 -4.74,-0.61 -6.55,-1.78 -1.82,-1.18 -3.21,-2.86 -4.19,-5.04 -0.95,-2.18 -1.46,-4.76 -1.46,-7.79 0,-0.7 0.06,-1.44 0.15,-2.2 0.11,-0.79 0.23,-1.61 0.36,-2.5zm66.47 -52.49l-12.46 2.29c0.25,0.64 0.42,1.27 0.51,1.92 0.08,0.64 0.13,1.32 0.13,2.02 0,0.44 -0.03,0.91 -0.09,1.42 -0.04,0.48 -0.11,0.99 -0.17,1.5l-1.4 9.53 -3.94 0c-1.5,-0.02 -2.6,0.25 -3.28,0.81 -0.7,0.57 -1.12,1.56 -1.29,3.01l-0.76 5.08c1.01,-0.19 2.15,-0.32 3.43,-0.41 1.26,-0.08 2.67,-0.1 4.19,-0.1l-4.57 29.23c-0.76,4.7 -1.15,8.38 -1.15,11.06 0,4.57 1.23,7.98 3.71,10.23 2.46,2.24 6.14,3.36 11.03,3.36 2.78,0.02 4.89,-0.36 6.36,-1.12 1.44,-0.76 2.29,-2.01 2.54,-3.71l0.76 -5.33c-1.2,0.57 -2.35,0.99 -3.43,1.25 -1.08,0.27 -2.1,0.4 -3.05,0.4 -2.35,0 -4.13,-0.62 -5.32,-1.84 -1.2,-1.24 -1.79,-3.12 -1.79,-5.66 0,-0.7 0.06,-1.42 0.14,-2.18 0.11,-0.74 0.24,-1.51 0.36,-2.27l5.21 -33.42 4.33 0c1.5,0 2.64,-0.28 3.44,-0.85 0.79,-0.57 1.34,-1.52 1.64,-2.83l1.27 -5.34c-0.95,0.19 -1.91,0.34 -2.84,0.46 -0.95,0.11 -1.87,0.17 -2.76,0.17l-3.68 0 2.93 -18.68zm38.37 -14.23l-12.33 2.54c0.19,0.68 0.34,1.27 0.47,1.75 0.11,0.5 0.17,0.92 0.17,1.3 0,0.63 -0.25,2.54 -0.76,5.72l-13.09 82.73 10.8 0 5.72 -36.98c0.45,-2.54 1.23,-4.85 2.42,-6.86 1.18,-2.04 2.6,-3.78 4.29,-5.21 1.7,-1.45 3.54,-2.55 5.53,-3.31 1.99,-0.76 4,-1.14 6.06,-1.14 1.97,-0.02 3.41,0.38 4.34,1.21 0.93,0.8 1.38,2.09 1.38,3.87 0,0.19 -0.02,0.48 -0.09,0.89 -0.04,0.38 -0.1,0.81 -0.17,1.27l-4.95 31.01c-0.13,0.76 -0.21,1.5 -0.28,2.2 -0.06,0.72 -0.1,1.42 -0.1,2.12 0.02,2.48 0.55,4.62 1.59,6.44 1.03,1.82 2.47,3.24 4.31,4.23 1.85,1 3.99,1.51 6.42,1.53 1.34,-0.02 2.44,-0.21 3.33,-0.61 0.86,-0.39 1.5,-0.92 1.88,-1.55l3.31 -5.97c-0.57,0.06 -1.1,0.12 -1.61,0.17 -0.51,0.06 -1,0.08 -1.44,0.08 -2.35,0 -4.07,-0.49 -5.19,-1.48 -1.12,-1 -1.68,-2.52 -1.68,-4.62 0,-0.32 0,-0.7 0.04,-1.16 0.03,-0.45 0.09,-1 0.22,-1.64l4.96 -31.38c0.12,-0.98 0.23,-1.85 0.29,-2.63 0.06,-0.79 0.08,-1.44 0.08,-1.95 -0.02,-3.51 -1.22,-6.21 -3.59,-8.09 -2.4,-1.86 -5.85,-2.82 -10.38,-2.84 -3.37,0 -6.55,0.64 -9.55,1.93 -3.03,1.27 -5.89,3.22 -8.62,5.82l6.22 -39.39zm50.33 59.48c0.91,-3.23 2.05,-6.09 3.47,-8.59 1.4,-2.5 2.95,-4.61 4.64,-6.33 1.67,-1.73 3.39,-3.05 5.15,-3.94 1.75,-0.91 3.43,-1.36 5.04,-1.36 1.6,0.03 2.88,0.48 3.79,1.34 0.93,0.87 1.4,2.08 1.42,3.62 0,1.76 -0.56,3.52 -1.64,5.23 -1.07,1.74 -2.64,3.33 -4.67,4.77 -2.06,1.46 -4.51,2.65 -7.42,3.58 -2.9,0.93 -6.16,1.5 -9.78,1.68zm-1.15 7.24c5.45,-0.15 10.3,-0.85 14.56,-2.1 4.25,-1.25 7.85,-2.96 10.82,-5.13 2.94,-2.15 5.21,-4.65 6.74,-7.54 1.54,-2.87 2.32,-5.99 2.32,-9.38 -0.02,-2.1 -0.57,-3.98 -1.69,-5.68 -1.11,-1.67 -2.65,-3 -4.66,-3.98 -2.01,-0.99 -4.39,-1.5 -7.12,-1.52 -2.56,0 -5.1,0.42 -7.67,1.25 -2.54,0.82 -4.99,2.03 -7.37,3.64 -2.37,1.61 -4.55,3.58 -6.56,5.91 -2.29,2.69 -4.24,5.61 -5.83,8.77 -1.58,3.18 -2.77,6.5 -3.6,9.99 -0.83,3.5 -1.25,7.06 -1.25,10.73 0.02,4.97 0.83,9.2 2.44,12.72 1.61,3.52 3.92,6.23 6.9,8.09 2.99,1.87 6.57,2.8 10.74,2.82 3.41,-0.02 6.46,-0.49 9.13,-1.44 2.69,-0.95 4.85,-2.29 6.53,-4.02 1.65,-1.72 2.67,-3.76 3.02,-6.11l0.89 -5.72c-2.79,2.67 -5.57,4.69 -8.32,6.02 -2.75,1.34 -5.53,1.99 -8.32,1.99 -2.55,-0.02 -4.75,-0.61 -6.55,-1.78 -1.82,-1.18 -3.22,-2.86 -4.2,-5.04 -0.95,-2.18 -1.45,-4.76 -1.45,-7.79 0,-0.7 0.06,-1.44 0.15,-2.2 0.1,-0.79 0.23,-1.61 0.35,-2.5z"/>
   <path class="fil0" d="M2549.82 2002.53l-11.66 2.39c0.13,0.73 0.24,1.46 0.31,2.14 0.07,0.68 0.09,1.3 0.09,1.83 0,0.53 0,1.22 -0.05,2.08 -0.04,0.83 -0.16,1.83 -0.35,2.95l-8.48 53.67 11.13 0 5.3 -33.39c1.04,-6.76 2.78,-11.84 5.21,-15.22 2.45,-3.38 5.74,-5.06 9.9,-5.06 1.05,0 2.1,0.14 3.13,0.41 1.04,0.26 2.1,0.66 3.23,1.19l0.92 -5.97c0.07,-0.26 0.11,-0.55 0.11,-0.83 0.02,-0.29 0.02,-0.56 0.02,-0.75 0,-1.66 -0.46,-2.94 -1.34,-3.82 -0.88,-0.89 -2.16,-1.36 -3.82,-1.36 -2.98,0 -5.76,0.98 -8.37,2.9 -2.59,1.94 -5.01,4.86 -7.26,8.76l1.98 -11.92z"/>
   <path class="fil2" d="M1574 1803.73c-9.15,-6.84 -18.42,-10.26 -27.85,-10.26 -18.99,0 -28.5,7.3 -28.5,21.96 0,6.19 5.04,13.6 15.11,22.21l17.86 15.45c5.52,4.82 9.31,8.36 11.45,10.54 2.14,2.23 4.35,5.32 6.72,9.24 2.38,3.95 4.16,7.95 5.33,11.94 1.16,4.04 1.77,8.16 1.77,12.32 0,16.19 -5.92,28.8 -17.77,37.91 -11.86,9.1 -27.21,13.63 -46.12,13.63 -15.52,0 -30.15,-3.41 -43.93,-10.26l9.91 -31.02c10.56,8.16 22.81,12.19 36.73,12.19 8.42,0 15.43,-1.81 20.95,-5.48 5.57,-3.66 8.35,-8.85 8.35,-15.65 0,-6.68 -5.04,-14.01 -15.12,-22.09l-18.54 -15.07c-5.68,-4.66 -9.51,-8.04 -11.53,-10.14 -2.02,-2.1 -4.11,-5.02 -6.33,-8.73 -2.18,-3.75 -3.82,-7.58 -4.95,-11.54 -1.09,-3.96 -1.66,-7.99 -1.66,-12.2 0,-16.27 5.28,-29.12 15.85,-38.64 10.55,-9.47 24.34,-14.21 41.43,-14.21 5.68,0 12.94,0.66 21.73,1.97 8.82,1.32 14.99,2.85 18.54,4.54l-9.43 31.39zm32.25 93.52c0,-23.31 6.98,-43.05 20.88,-59.12 13.95,-16.11 31.6,-24.14 52.93,-24.14 16.28,0 28.86,4.32 37.68,12.98 8.79,8.65 13.23,20.93 13.23,36.87 0,23.82 -6.89,43.8 -20.69,59.99 -13.78,16.15 -31.55,24.27 -53.36,24.27 -16.01,0 -28.42,-4.37 -37.33,-13.11 -8.9,-8.73 -13.34,-21.29 -13.34,-37.74zm30.72 -1.44c0,18.42 7.74,27.65 23.26,27.65 12.29,0 22.01,-5.81 29.14,-17.43 7.17,-11.66 10.76,-25.42 10.76,-41.37 0,-17.38 -7.74,-26.07 -23.26,-26.07 -12.05,0 -21.72,5.76 -28.98,17.22 -7.29,11.45 -10.92,24.8 -10.92,40zm168.37 39.72c-4.64,7.54 -11.69,11.33 -21.12,11.33 -7.09,0 -12.65,-2.35 -16.77,-7.13 -4.11,-4.74 -6.13,-10.87 -6.13,-18.45 0,-9.81 1.9,-23.94 5.65,-42.36l23.74 -115.53 29.3 0 -24.34 120.35c-3.47,17.14 -5.2,29.38 -5.2,36.71 0,4.65 1.41,8.32 4.27,11.04 2.82,2.68 6.37,4.04 10.6,4.04zm144.11 10.26l-29.54 0 1.77 -9.44c-10.53,7.84 -23.79,11.75 -39.66,11.75 -10.89,0 -19.39,-3.22 -25.56,-9.56 -6.21,-6.35 -9.27,-15.16 -9.27,-26.42 0,-3.53 0.4,-7.69 1.29,-12.43l15.24 -83.31 29.99 0 -15 82.07c-0.64,3.46 -0.97,6.43 -0.97,8.82 0,10.46 5.77,15.69 17.26,15.69 9.38,0 17.2,-3.09 23.58,-9.35 6.32,-6.22 10.27,-13.72 11.85,-22.49l12.98 -74.74 29.66 0 -23.62 129.41zm137.94 -105.14l-34.82 0 -12.78 57.35c-1.01,4.57 -1.53,8.4 -1.53,11.45 0,8.86 4.88,13.26 14.63,13.26 4.35,0 11.45,-2.06 21.29,-6.26l0 27.15c-8.51,2.97 -20.08,4.5 -34.75,4.5 -9.6,0 -17.29,-3.09 -23.14,-9.19 -5.8,-6.14 -8.75,-14.09 -8.75,-23.9 0,-3.21 0.36,-6.39 1.09,-9.56l14.27 -64.8 -14.63 0 5.08 -24.27 14.63 0 4.96 -26.41 33.77 -12.56 -8.86 38.97 34.62 0 -5.08 24.27zm58.22 -65.8c0,-5.35 1.89,-9.85 5.6,-13.43 3.75,-3.59 8.3,-5.4 13.66,-5.4 5.29,0 9.8,1.81 13.59,5.4 3.79,3.58 5.64,8.08 5.64,13.43 0,5.31 -1.85,9.81 -5.64,13.43 -3.79,3.63 -8.3,5.44 -13.59,5.44 -5.27,0 -9.79,-1.81 -13.58,-5.4 -3.79,-3.58 -5.68,-8.07 -5.68,-13.47zm8.74 170.81l-29.99 0 19.15 -105.01 -16.2 0 4.95 -24.27 45.72 0 -23.63 129.28zm54.1 -48.41c0,-23.31 6.98,-43.05 20.88,-59.12 13.95,-16.11 31.61,-24.14 52.93,-24.14 16.29,0 28.86,4.32 37.69,12.98 8.78,8.65 13.22,20.93 13.22,36.87 0,23.82 -6.89,43.8 -20.68,59.99 -13.79,16.15 -31.56,24.27 -53.37,24.27 -16,0 -28.41,-4.37 -37.32,-13.11 -8.91,-8.73 -13.35,-21.29 -13.35,-37.74zm30.72 -1.44c0,18.42 7.74,27.65 23.26,27.65 12.29,0 22.01,-5.81 29.14,-17.43 7.17,-11.66 10.76,-25.42 10.76,-41.37 0,-17.38 -7.73,-26.07 -23.25,-26.07 -12.06,0 -21.73,5.76 -28.99,17.22 -7.29,11.45 -10.92,24.8 -10.92,40zm223.88 49.85l-30.55 0 13.78 -75.31c1.13,-6.05 1.65,-11.13 1.65,-15.2 0,-10.71 -6.16,-16.07 -18.54,-16.07 -10.52,0 -20.03,4.53 -28.46,13.64l-16.88 92.94 -29.63 0 17.81 -96.94c0.33,-1.69 0.49,-3.99 0.49,-6.96 0,-7.17 -1.13,-14.84 -3.43,-22.95l28.94 -5.44 2.7 14.5c10.4,-9.27 23.42,-13.88 39.1,-13.88 26,0 38.98,12.4 38.98,37.29 0,4.41 -0.56,9.64 -1.65,15.69l-14.31 78.69zm130.97 -93.89c-9.43,-8.45 -18.1,-12.69 -25.96,-12.69 -4.88,0 -9.11,1.15 -12.7,3.46 -3.59,2.27 -5.36,5.36 -5.36,9.23 0,4.74 4.27,9.31 12.78,13.76 8.54,4.41 15.11,7.95 19.67,10.55 4.6,2.63 8.3,6.14 11.24,10.63 2.9,4.45 4.36,9.6 4.36,15.37 0,14.25 -5.2,25.5 -15.64,33.7 -10.44,8.2 -23.78,12.32 -39.99,12.32 -13.86,0 -27.41,-4 -40.63,-11.95l15.6 -27.4c9.83,9.48 19.47,14.21 28.94,14.21 5.97,0 10.93,-1.52 14.8,-4.57 3.91,-3.05 5.84,-7.21 5.84,-12.44 0,-4.33 -3.67,-8.49 -11.09,-12.44 -7.37,-3.92 -13.94,-7.54 -19.58,-10.8 -5.69,-3.26 -10,-7.25 -12.95,-11.95 -2.94,-4.69 -4.43,-9.93 -4.43,-15.61 0,-12.57 4.92,-22.58 14.72,-30 9.79,-7.45 21.8,-11.16 36.07,-11.16 9.76,0 22.45,3.38 38.01,10.14l-13.7 27.64z"/>
  </g>
 </g>
</svg>
