<?xml version="1.0" encoding="UTF-8"?>
<!DOCTYPE svg PUBLIC "-//W3C//DTD SVG 1.1//EN" "http://www.w3.org/Graphics/SVG/1.1/DTD/svg11.dtd">
<!-- Creator: CorelDRAW 2021 (64-Bit) -->
<svg xmlns="http://www.w3.org/2000/svg" xml:space="preserve" width="33.867mm" height="33.867mm" version="1.1" style="shape-rendering:geometricPrecision; text-rendering:geometricPrecision; image-rendering:optimizeQuality; fill-rule:evenodd; clip-rule:evenodd"
viewBox="0 0 3386.7 3386.7"
 xmlns:xlink="http://www.w3.org/1999/xlink"
 xmlns:xodm="http://www.corel.com/coreldraw/odm/2003">
 <defs>
  <style type="text/css">
   <![CDATA[
    .fil0 {fill:#1F1B20}
   ]]>
  </style>
 </defs>
 <g id="Layer_x0020_1">
  <metadata id="CorelCorpID_0Corel-Layer"/>
  <g id="_2060296077696">
   <path class="fil0" d="M2348.4 1336.23c-72.44,7.66 -137.38,57.73 -138.51,132.59 -0.68,44.96 -0.02,90.47 -0.02,135.5 0,46.5 -5.15,82.07 15.84,119.04 14.91,26.26 41.18,48.73 73.52,61.95 39.4,16.1 76.83,13.27 122.44,13.27 52.29,0 234.85,2.46 271.9,-1.19 71.53,-7.05 136.91,-58.77 138.03,-132.87 0.69,-44.94 0.01,-90.45 0.01,-135.45 0,-47.17 5.26,-81.64 -16.29,-119.42 -14.84,-26.06 -41.36,-48.44 -73.77,-61.64 -39.18,-15.97 -78.15,-13.01 -122.57,-13.01 -49.92,0 -236.46,-2.37 -270.58,1.23zm13.69 113.84c-24.04,5.29 -17.24,32.44 -17.24,57.26l-0.03 147.17c-0.19,32.3 13.81,29.78 43.41,29.77 34.65,-0.01 280.93,2.19 293.03,-1.15 21.03,-5.8 15.48,-26.68 15.48,-57.07l0.02 -147.2c0.13,-32.04 -13.2,-29.63 -42.66,-29.61 -19.02,0.01 -280.51,-1.7 -292.01,0.83z"/>
   <path class="fil0" d="M1545.29 1632.23c123.62,4.58 277.29,0.76 406.52,1.05 21.79,0.05 39.28,-1.89 54.58,-12.83 35.72,-25.55 28.21,-68.58 -1.06,-86.41 -12.18,-7.43 -39.59,-15.02 -53.47,-14.9l-270.92 0.05c-44.49,0 -91.38,1.4 -135.56,-0.37 -0.23,-11.45 -1.77,-50.42 1.97,-58.15 7.18,-14.88 29.37,-11.43 48.31,-11.43 40.44,0 81.73,-0.81 122.06,0.13 84.24,1.96 93.64,-82.5 35.78,-104.93 -8.23,-3.19 -9.55,-1.48 -17.05,-6.41 -4.3,-2.83 3.51,-1.64 -5.35,-3.02 -42.35,0.05 -84.72,-0.01 -127.08,-0.01 -42.88,0 -76.74,-0.33 -112.26,16.62 -30.48,14.55 -51.85,34.69 -67.14,61.59 -19.05,33.51 -14.29,73.03 -14.29,114.19 0,42.36 0.01,84.72 0,127.08 -0.02,43.82 11.74,70.71 34.79,93.65 20.84,20.73 43.82,37.34 82.86,45.86 35.43,7.74 86.74,4.59 124.53,4.59 85.28,0 170.56,0 255.83,0 39.89,0 86.5,3.13 108.12,-20.94 26.44,-29.44 11.22,-67.8 -18.25,-82.61 -13.49,-6.77 -20.51,-4.97 -30.23,-8.34 -6.39,-2.2 2.59,-0.65 -6.23,-2.2 -15.31,-2.69 -388.42,2.4 -401.45,-1.41 -20.06,-5.86 -15.16,-28.46 -15.01,-50.85z"/>
   <path class="fil0" d="M694.39 1503.92c15.33,6.25 287.67,185.81 328.66,211.51 23.54,14.76 118.43,75.12 141.22,75.89 30.36,1.03 57.61,-21.52 64.46,-44.03 4.86,-15.91 2.21,-282.2 2.21,-321.89 0,-43.25 2.74,-61.33 -26.3,-82.16 -23.37,-16.76 -60.39,-15.59 -84.06,-1.65 -10,5.89 -20.04,16.29 -24.87,28.69 -5.69,14.65 -3.75,35.15 -3.75,51.78 0,72.39 0.68,145.11 -0.05,217.47 -7.72,-2.79 -81.49,-56.32 -94.64,-65.53l-127.96 -89.39c-45.58,-32.47 -115.49,-79.97 -161.76,-109.11 -21.51,-13.53 -44.17,-28.59 -68.48,-40.23 -29.72,-14.23 -62.19,7.69 -74.07,24.23 -14.72,20.51 -9.62,68.26 -9.62,97.67l0 217.37c0,36.64 -6.05,70.64 14.66,94.3 24.99,28.55 84.15,32.32 112.86,-3.85 9.78,-12.32 11.43,-24.05 11.42,-43.63 -0.04,-72.12 -1.28,-145.46 0.07,-217.44z"/>
   <path class="fil0" d="M1044.93 1939.93c-1.57,6.45 37.46,100.38 42.62,113.93l38.27 0.51c7.48,-10.83 16.91,-62.53 23.68,-70.63 2.78,9.72 20.86,65.53 24.79,70.55l38.45 0.41c5.65,-18.68 40.56,-104.85 39.7,-115.45l-33.42 -0.89 -24.79 75.33c-10.07,-14.85 -17.85,-60.87 -28.3,-74.85l-36.51 -0.33 -22.96 72.74c-0.14,0.21 -0.45,0.68 -0.73,0.98l-26.37 -73.43c-10.05,-1.02 -26.88,-2.49 -34.43,1.13z"/>
   <path class="fil0" d="M2436.17 2052.99c7.46,3.62 25.25,2.61 33.74,0.95l0.7 -41.62 26.31 -0.49c8.87,12.51 22.17,31.39 27.66,42.73 10.29,0.45 27.58,2.04 36.85,-1.15 -0.3,-7.09 -24.46,-37.1 -29.07,-46 11.45,-5.2 16.71,-8.19 21.12,-18.84 4.51,-10.87 2.62,-26.07 -3.46,-34.44 -13.7,-18.84 -40.44,-15.8 -66.48,-15.8 -47.9,0 -48.11,-4.8 -47.87,11.97 0.4,29.33 -2.02,79.46 0.5,102.69zm34.54 -66.87c12.72,0.33 49.83,6.01 50.34,-10.64 0.33,-10.9 -9.22,-10.63 -19.04,-10.95 -9.92,-0.33 -21.19,-0.39 -31.08,0.05l-0.22 21.54z"/>
   <path class="fil0" d="M2706.31 2053.84c13.03,2.9 57.13,1.16 73.19,1.02 24.38,-0.21 43.63,-3.35 50.23,-24.11 7.62,-23.93 -4.96,-41.5 -25.45,-45 -15.38,-2.63 -58.92,4.17 -67.06,-6.87 -5.91,-18.51 23.02,-13.04 35.43,-15.35l0.55 -24.26c-19.17,-3.74 -60.42,-3.98 -70.33,21.36 -4.9,12.53 -2.87,28.17 4.65,36.72 22.09,25.11 105.09,-1.13 86.3,27.22 -4.72,7.12 -54.15,4.33 -66.15,4.3 -23.31,-0.08 -25.59,-3.63 -21.36,24.97z"/>
   <path class="fil0" d="M2296.92 2052.65c0.72,-4.18 1.96,-18.18 -1.46,-21.44 -14.53,-10.96 -71.6,15.76 -73.32,-22.51 12.6,-0.02 67.57,2.57 73.75,-1.78 2.62,-4.18 2.02,-16.23 0.87,-21.62 -7.47,-4.43 -65.94,-2.13 -73.99,-1.9 -1.17,-23.72 30.39,-17.92 38.86,-20.73 2.45,-5.3 2.1,-16.17 0.63,-23.3 -28.88,-7.04 -66.17,2.94 -76.34,37.57 -9.23,31.5 2.98,67.34 37.04,75.48 6.98,1.66 66.22,5.27 73.96,0.23z"/>
   <path class="fil0" d="M1505.29 2053.94c0.58,-4.11 0.8,-7.44 0.84,-11.61 0.1,-11.86 -1.23,-9 -1.98,-10.66 -6.04,-13.36 -69.89,17.01 -73.81,-22.75l73.56 -0.32c1.27,-2.78 0.38,0.84 1.6,-4.83l-0.36 -19.54 -74.26 -1c0.26,-26.21 34.22,-15.87 39.25,-21.58 1.89,-3.17 2.35,-12.87 1.47,-17.88 -1.35,-7.76 -7.35,-5.77 -16.37,-5.43 -12.43,0.47 -24.87,1.83 -35.54,6.67 -17.78,8.07 -28.69,28.77 -28.04,55.56 0.65,27 13.57,42.68 33.63,50.01 13.65,4.98 64.6,6.27 80.01,3.36z"/>
   <path class="fil0" d="M904.99 2053.98c0.58,-4.14 0.79,-7.45 0.83,-11.65 0,-0.97 -0.18,-5.78 -0.35,-6.56l-0.9 -2.83c-5.98,-16.09 -70.76,16.65 -74.51,-24.11l73.62 -0.21c1.07,-2.53 0.48,0.33 1.53,-4.85l-0.39 -19.64 -74.33 -0.9c0.19,-23.32 27.77,-17.91 35.77,-19.98 6.83,-1.76 6.18,-12.45 4.97,-19.47 -1.34,-7.8 -7.39,-5.78 -16.29,-5.43 -37.95,1.48 -64.63,15.16 -63.62,62.29 0.57,26.66 13.97,43.06 33.64,49.89 13.9,4.83 64.24,6.38 80.03,3.45z"/>
   <path class="fil0" d="M1645.17 1939.87c-3.58,10.26 -1.12,45.17 -1.13,59.06 -0.06,52.25 23.53,55.93 68.66,55.93 18.56,-0.01 44.43,1.47 62.11,-0.57l0.24 -23.32c-20.32,-2.66 -83.67,6.24 -93.2,-7.89 -5.3,-7.81 -3.26,-36.43 -3.26,-47.56 0,-44.09 6.06,-37.27 -24.4,-37.2 -6.19,0.05 -4.46,-0.56 -9.02,1.55z"/>
   <path class="fil0" d="M1914.57 1940.03l-0.93 62.24c0.08,64 48.47,52.44 108.4,52.59l16.71 -0.17c0.01,-0.01 -1.56,2.95 5.59,-2.23l0.32 -19.84c-2.94,-1.68 -0.68,-0.81 -4.52,-1.74l-41.51 -0.52c-11.39,0 -34.67,1.7 -43.21,-3.27 -15.71,-9.16 -2.52,-67.87 -8.19,-87.05 -6.27,-3.27 -26.36,-3.25 -32.66,-0.01z"/>
   <path class="fil0" d="M556.38 2031.28l-0.89 22.64c16.43,3.26 75.2,5.53 89.45,-15.85 11.13,-16.69 9.79,-85.27 7.33,-98.82 -8.42,-1.71 -25.95,-2.12 -34.01,0.34 -4.23,19.57 1.61,53.43 -1.7,75.03 -3.84,24.97 -39.07,11.98 -60.18,16.66z"/>
  </g>
 </g>
</svg>
