<?xml version="1.0" encoding="UTF-8"?>
<!DOCTYPE svg PUBLIC "-//W3C//DTD SVG 1.1//EN" "http://www.w3.org/Graphics/SVG/1.1/DTD/svg11.dtd">
<!-- Creator: CorelDRAW 2021 (64-Bit) -->
<svg xmlns="http://www.w3.org/2000/svg" xml:space="preserve" width="33.8666mm" height="33.8666mm" version="1.1" style="shape-rendering:geometricPrecision; text-rendering:geometricPrecision; image-rendering:optimizeQuality; fill-rule:evenodd; clip-rule:evenodd"
viewBox="0 0 3386.66 3386.66"
 xmlns:xlink="http://www.w3.org/1999/xlink"
 xmlns:xodm="http://www.corel.com/coreldraw/odm/2003">
 <defs>
  <style type="text/css">
   <![CDATA[
    .fil0 {fill:#303E7A;fill-rule:nonzero}
   ]]>
  </style>
 </defs>
 <g id="Layer_x0020_1">
  <metadata id="CorelCorpID_0Corel-Layer"/>
  <g id="_1357792559616">
   <path class="fil0" d="M2510.36 1347.23c35.33,0 64.3,-28.76 64.3,-64.1 0,-35.54 -28.97,-64.31 -64.3,-64.31l0 0 -813.64 0c-9.65,0 -19.31,2.05 -28.14,5.75 -3.08,1.24 -6.16,2.88 -9.04,4.73 -3.49,2.06 -6.58,4.31 -9.45,6.78 -4.93,4.11 -9.24,9.04 -12.94,14.38l-2.47 4.11 -0.2 0.41 -0.63 0.82c-5.74,10.69 -9.03,22.8 -9.03,34.94l0 641.24 -692.61 -628.51c-6.57,-6.16 -14.58,-10.89 -22.8,-14.18 -8.22,-3.08 -16.64,-4.51 -25.48,-4.51 -9.24,0 -18.09,1.64 -26.71,5.13 -12.74,4.93 -23.84,13.56 -31.85,24.86 -4.31,5.96 -7.6,12.53 -9.86,19.52 -2.26,7.18 -3.5,14.79 -3.5,22.19l0 747.06 0 0c0,35.33 28.77,64.3 64.31,64.3 35.34,0 64.11,-28.97 64.11,-64.3l0 0 0 -619.27 692.6 628.72 5.35 4.31 3.49 2.47c2.67,1.84 5.76,3.49 8.63,4.93l5.34 2.26c6.99,2.67 14.38,4.31 21.78,4.52l3.71 0.2c9.24,0 18.07,-1.64 26.71,-5.13 12.73,-5.14 23.83,-13.77 31.84,-24.86 4.32,-6.17 7.6,-12.74 9.86,-19.73 2.25,-7.19 3.49,-14.59 3.49,-22.19l0 -712.54 757.13 0z"/>
   <path class="fil0" d="M2505.01 1646.39c-24.24,-16.44 -52.8,-25.28 -82.18,-25.28l-257.03 0c-35.55,0 -64.31,28.97 -64.31,64.31 0,35.34 28.76,64.1 64.31,64.1l257.03 0c2.46,0 4.93,0.62 7.19,1.44 3.28,1.45 6.17,3.91 8.22,6.78 2.06,3.29 3.08,6.58 3.08,10.48l0 252.52c0,2.66 -0.41,4.93 -1.44,7.18 -1.23,3.29 -3.69,6.37 -6.77,8.22 -3.09,2.26 -6.58,3.29 -10.28,3.29l-517.35 0c-35.54,0 -64.31,28.77 -64.31,64.11 0,35.33 28.77,64.3 64.31,64.3l517.35 0c19.72,0 39.04,-3.91 57.12,-11.7 26.3,-11.1 48.69,-29.39 64.72,-53.22 16.44,-24.25 25.06,-52.81 25.06,-82.18l0 -252.52c0,-19.72 -3.9,-39.03 -11.5,-57.32 -11.1,-26.3 -29.59,-48.49 -53.22,-64.51z"/>
  </g>
 </g>
</svg>
