<?xml version="1.0" encoding="UTF-8"?>
<!DOCTYPE svg PUBLIC "-//W3C//DTD SVG 1.1//EN" "http://www.w3.org/Graphics/SVG/1.1/DTD/svg11.dtd">
<!-- Creator: CorelDRAW 2021 (64-Bit) -->
<svg xmlns="http://www.w3.org/2000/svg" xml:space="preserve" width="33.8666mm" height="33.8666mm" version="1.1" style="shape-rendering:geometricPrecision; text-rendering:geometricPrecision; image-rendering:optimizeQuality; fill-rule:evenodd; clip-rule:evenodd"
viewBox="0 0 3386.66 3386.66"
 xmlns:xlink="http://www.w3.org/1999/xlink"
 xmlns:xodm="http://www.corel.com/coreldraw/odm/2003">
 <defs>
  <style type="text/css">
   <![CDATA[
    .fil1 {fill:#2B2A29;fill-rule:nonzero}
    .fil0 {fill:black;fill-rule:nonzero}
   ]]>
  </style>
 </defs>
 <g id="Layer_x0020_1">
  <metadata id="CorelCorpID_0Corel-Layer"/>
  <g id="_1357503231024">
   <path class="fil0" d="M650.38 1396.49c35.25,1.14 57.75,1.72 67.36,1.72 13.18,0 27.94,-0.36 44.28,-1.08 17.41,-0.57 28.09,-0.85 32.17,-0.85 19.56,0 35.76,2.07 48.59,6.09 12.83,4.08 23.43,11.53 31.82,22.28 8.38,10.75 12.61,23.79 12.61,39.05 0,12.62 -2.94,24.8 -8.81,36.55 -5.95,11.75 -14.12,21.71 -24.59,30.03 -10.53,8.23 -21.14,14.11 -31.95,17.7 -10.75,3.58 -21.94,5.37 -33.54,5.37 -8.67,0 -18.35,-1 -29.02,-2.94l-3.52 -12.82 1.87 -2.09c10.46,2.37 19.06,3.59 25.58,3.59 18.34,0 33.11,-6.09 44.21,-18.2 11.11,-12.11 16.7,-27.59 16.7,-46.51 0,-18.99 -5.8,-34.18 -17.34,-45.57 -11.54,-11.32 -29.02,-16.99 -52.38,-16.99 -12.68,0 -26.73,2.37 -42,7.17 -1.21,10.75 -1.86,36.76 -1.86,78.11l0 97.17 0.21 40.91c0.15,15.84 0.58,26.09 1.3,30.67 0.64,4.66 1.65,7.74 3.01,9.25 1.36,1.58 3.87,2.86 7.67,3.87 3.79,1.07 13.1,1.86 27.94,2.43l7.58 1.22 0 10.54 -0.69 21.65c-35.68,-1.08 -62.71,-1.29 -67.15,-1.29 -4.8,0 -26.11,0.79 -61.36,1.86l-0.41 -22.22 0 -10.54 1.72 -1.22c13.04,-0.57 21.71,-1.29 26.01,-2.08 4.37,-0.86 7.24,-1.93 8.74,-3.29 1.43,-1.29 2.65,-4.15 3.58,-8.46 0.87,-4.37 1.44,-14.05 1.51,-29.02l0.21 -44.28 0 -97.17 -0.35 -40.99c-0.15,-15.91 -0.58,-26.23 -1.22,-30.81 -0.58,-4.66 -1.58,-7.74 -2.94,-9.25 -1.29,-1.57 -3.87,-2.79 -7.6,-3.8 -3.8,-1 -13.11,-1.71 -27.94,-2.29l-1.72 -1.51 0 -10.46 1.72 -1.5zm278.17 154.35l-8.16 -2.15 -1.72 -2.08 0 -26.01c24.94,-18.48 49.16,-27.73 72.66,-27.73 16.12,0 29.45,3.01 40.13,9.03 10.6,6.02 18.34,13.54 23.07,22.57 4.73,9.03 7.17,19.56 7.17,31.6l-1.08 42.21 0 62.56c0,8.52 0.58,13.68 1.79,15.54 1.15,1.8 2.51,3.01 4.09,3.66 1.51,0.65 4.37,1.14 8.6,1.57l11.96 1.01 1.65 1.94 0 8.38 -1.65 1.72c-10.24,-0.86 -19.71,-1.29 -28.52,-1.29 -8.45,0 -18.48,0.43 -30.24,1.29l-3.15 -3.01 -3.41 -25.15 -41.52 27.08c-7.74,3.23 -16.12,4.81 -25.22,4.81 -11.18,0 -20.78,-2.01 -28.88,-6.1 -8.02,-4.01 -14.19,-9.67 -18.42,-16.98 -4.3,-7.3 -6.45,-16.12 -6.45,-26.44 0,-20.57 6.45,-36.62 19.35,-48.23 12.9,-11.53 48.01,-21.35 105.34,-29.45 0,-20.71 -4.59,-35.32 -13.83,-43.78 -9.24,-8.46 -21.64,-12.68 -37.12,-12.68 -8.17,0 -15.55,1.14 -22.21,3.58 -6.6,2.36 -10.47,4.3 -11.4,5.73 -1,1.51 -4.8,10.03 -11.32,25.73l-1.51 1.07zm97.39 33.18c-39.13,6.52 -63.56,13.62 -73.24,21.14 -9.67,7.59 -14.47,19.27 -14.47,35.11 0,21.78 10.82,32.75 32.53,32.75 18.63,0 37.05,-10.82 55.18,-32.32l0 -56.68zm80.16 -55.68l0.22 -5.45 0.03 -2.83c13.18,-4.95 27.58,-8.7 35.75,-12.93 0,-36.54 -0.44,-89.61 -1.29,-95.64 14.4,-5.08 26.23,-8.65 35.47,-14.38l10.79 4.07c-1.36,8.82 -8.79,64.61 -10.79,107.02 7.02,0.15 14.54,0.22 22.71,0.22 16.48,0 28.31,-0.43 35.47,-1.29l1.44 1.5 -4.01 17.63 -1.65 1.86c-7.17,-0.14 -15.05,-0.21 -23.72,-0.21 -7.81,0 -17.91,0.07 -30.24,0.21l-1.22 85.5c0,19.7 0.43,32.59 1.36,38.69 0.86,6.09 3.37,10.89 7.53,14.26 4.15,3.44 10.24,5.16 18.34,5.16 9.39,0 18.06,-2.44 26.09,-7.31l5.01 7.53c-3.37,2.36 -11.39,9.38 -24.15,20.99 -7.23,3.37 -14.69,5.02 -22.22,5.02 -31.53,0 -47.29,-15.27 -47.29,-45.72 0,-11.26 0.29,-20.71 0.86,-28.6 0.15,-2.36 0.22,-4.79 0.22,-7.31l0 -87.13 -8.6 0c-6.3,0 -18.31,1.48 -26.4,2.05l0.29 -2.91zm318.76 133.93l-6.74 15.12c-14.54,9.38 -27.51,15.48 -38.91,18.27 -11.46,2.8 -21.63,4.23 -30.59,4.23 -16.77,0 -32.68,-3.29 -47.73,-9.89 -15.05,-6.59 -27.3,-17.7 -36.76,-33.39 -9.45,-15.7 -14.18,-34.54 -14.18,-56.68 0,-14.69 1.86,-27.95 5.51,-39.77 3.59,-11.82 7.45,-20.64 11.39,-26.37 4.02,-5.74 10.76,-12.11 20.29,-19.06 9.52,-7.03 19.56,-12.61 30.23,-16.85 10.61,-4.15 22.08,-6.3 34.4,-6.3 16.84,0 31.61,4.01 44.43,11.89 12.82,7.89 21.78,17.99 26.94,30.32 5.23,12.32 7.82,25.44 7.82,39.27 0,4.36 -0.22,8.52 -0.65,12.61l-2.29 2.29c-9.54,2.08 -22.37,3.51 -38.41,4.23 -16.13,0.72 -26.73,1 -31.96,1l-67.36 0c0.29,29.02 7.52,50.38 21.85,64.06 14.26,13.69 31.74,20.57 52.46,20.57 9.81,0 19.2,-1.65 28.23,-5.02 9.03,-3.37 18.56,-8.02 28.66,-14.05l3.37 3.52zm-134.57 -85.84c2.5,0.42 12.18,0.92 29.09,1.5 16.84,0.5 29.31,0.79 37.48,0.79 19.42,0 31.24,-0.36 35.47,-1.01 0.14,-3.36 0.21,-5.95 0.21,-7.81 0,-21.71 -4.44,-37.84 -13.26,-48.37 -8.81,-10.53 -20.85,-15.83 -36.1,-15.83 -16.64,0 -29.6,5.94 -38.92,17.84 -9.32,11.9 -13.97,29.52 -13.97,52.89zm233.46 -194.2l3.94 2.51c-1.51,16.12 -2.29,48.37 -2.29,96.81l0 131.63c0,3.08 0.28,12.98 0.86,29.67 0.57,16.77 1.14,26.51 1.79,29.31 0.65,2.79 1.57,4.8 2.79,6.09 1.29,1.29 2.8,2.08 4.66,2.44 1.79,0.35 9.39,0.92 22.65,1.79l1.93 1.65 0 8.81 -1.72 1.86c-17.48,-1.07 -34.32,-1.64 -50.59,-1.64 -16.12,0 -32.89,0.57 -50.38,1.64l-1.86 -1.86 0 -8.81 1.86 -1.65c13.55,-0.87 21.21,-1.51 23.01,-1.93 1.71,-0.44 3.29,-1.3 4.58,-2.59 1.37,-1.36 2.22,-3.37 2.73,-6.08 0.5,-2.73 1.07,-11.76 1.72,-27.09 0.64,-15.34 0.93,-26.95 0.93,-34.76l0 -108.78 -0.86 -44.49c-0.43,-15.56 -0.86,-26.3 -1.36,-32.32 -0.5,-6.02 -1.15,-9.61 -2.01,-10.68 -0.79,-1.15 -2.3,-2.01 -4.37,-2.58 -2.15,-0.5 -10.61,-0.79 -25.44,-0.79l-1.86 -1.94 0 -8.81 1.65 -1.86c26.72,-3.08 49.3,-8.24 67.64,-15.55zm475.67 289.93c-11.32,7.95 -23.07,16.98 -35.26,27.08 -4.44,1.01 -9.38,1.44 -14.69,1.44 -12.46,0 -25,-2.58 -37.55,-7.74 -12.61,-5.16 -26,-13.55 -40.12,-25.16 -18.49,13.69 -34.04,22.65 -46.59,26.81 -12.61,4.22 -26.08,6.3 -40.34,6.3 -28.37,0 -50.15,-8.45 -65.21,-25.5 -14.97,-16.99 -22.49,-36.48 -22.49,-58.48 0,-37.48 21.92,-68.07 65.92,-91.72 -8.46,-20.14 -12.61,-38.41 -12.61,-54.75 0,-6.74 0.93,-13.11 2.79,-19.2 1.94,-6.1 4.02,-10.83 6.45,-14.19 2.36,-3.37 6.45,-7.6 12.32,-12.69 5.88,-5.16 11.62,-9.95 17.07,-14.55 5.44,-4.5 10.67,-7.73 15.61,-9.59 4.95,-1.94 10.32,-2.87 16.06,-2.87 12.89,0 22.57,3.65 29.09,11.03 6.52,7.31 9.75,16.85 9.75,28.46 0,29.23 -20.36,57.68 -61.06,85.41 8.81,17.77 22.07,37.83 39.84,60.05 17.77,22.29 33.47,38.69 47.01,49.37 14.33,-15.7 21.42,-32.82 21.42,-51.45 0,-7.45 -0.85,-13.76 -2.57,-18.92 -1.79,-5.16 -4.02,-8.6 -6.81,-10.39 -2.86,-1.72 -7.81,-2.65 -14.98,-2.65 -7.52,-0.07 -15.05,-0.21 -22.43,-0.36l-1.86 -2.72 13.62 -19.99c8.23,1.29 20.2,1.93 35.9,1.93 8.24,0 20.78,-0.44 37.54,-1.07 17.13,-0.65 -0.83,-0.4 14.3,-0.4l0 0c-2.16,8.25 11.13,18.17 10.41,26.84l0 -0.81c-16.12,-2.66 -14.25,-1.48 -32.87,-1.48 -0.72,0 -2.8,0.07 -6.31,0.21 1.72,5.88 2.51,12.11 2.51,18.7 0,24.59 -11.68,48.73 -35.04,72.38 25.65,18.34 50.8,27.51 75.6,27.51 3.65,0 6.8,-0.42 9.46,-1.36 2.64,-0.92 6.88,-2.93 12.75,-6.16l2.58 1.22 1.43 6.52 -0.64 2.94zm-207.81 -164.17c11.47,-8.1 20.92,-17.63 28.3,-28.52 7.45,-10.96 11.18,-21.35 11.18,-31.31 0,-6.89 -2.15,-13.19 -6.45,-19 -4.23,-5.8 -9.82,-8.74 -16.69,-8.74 -7.1,0 -13.47,3.01 -18.99,8.96 -5.52,5.95 -8.24,14.84 -8.24,26.73 0,13.61 3.58,30.89 10.89,51.88zm66.57 149.05c-26.08,-27.59 -44.71,-49.16 -55.97,-64.78 -11.24,-15.55 -21.99,-32.46 -32.24,-50.66 -13.83,9.74 -23.29,19.7 -28.31,29.81 -5.08,10.03 -7.59,20.42 -7.59,31.02 0,19.21 6.95,36.33 20.92,51.46 13.9,15.11 30.74,22.71 50.45,22.71 18.06,0 35.61,-6.52 52.74,-19.56zm559.85 14.04l-13.38 6.1c-31.1,15.83 -64.28,23.71 -99.54,23.71 -50.52,0 -91.58,-14.33 -123.1,-42.99 -31.61,-28.73 -47.37,-66.21 -47.37,-112.58 0,-31.88 7.88,-59.76 23.64,-83.62 15.7,-23.87 36.48,-41.71 62.34,-53.53 25.8,-11.82 54.83,-17.77 87,-17.77 18.63,0 37.05,2 55.25,5.88 18.13,3.94 33.32,8.59 45.5,14.11l1.51 2.08c-3.23,7.81 -6.24,27.23 -9.03,58.19l-1.5 1.65 -9.83 0 -1.72 -1.65 -2.07 -35.76c-10.25,-8.1 -22.58,-14.41 -37.05,-18.99 -14.47,-4.52 -29.6,-6.81 -45.21,-6.81 -23.73,0 -44.86,5.09 -63.64,15.26 -18.77,10.11 -33.32,24.8 -43.71,44.07 -10.32,19.21 -15.48,42.79 -15.48,70.66 0,27.94 6.09,52.52 18.27,73.66 12.11,21.14 28.74,37.33 49.81,48.73 21.06,11.32 45.72,16.98 73.8,16.98 12.47,0 24.44,-1.21 35.91,-3.58 11.46,-2.37 21.07,-5.3 28.66,-8.81 7.59,-3.51 29.37,-17.99 36.39,-23.08l-5.45 28.09zm20.79 -74.09c0,-16.62 3.44,-32.68 10.32,-48.15 6.89,-15.49 18.78,-28.88 35.76,-40.13 17.06,-11.25 37.19,-16.91 60.63,-16.91 29.37,0 53.31,9.31 71.8,27.87 18.41,18.49 27.66,42.35 27.66,71.44 0,32.03 -10.61,58.48 -31.82,79.19 -21.21,20.71 -46.72,31.02 -76.67,31.02 -19.64,0 -37.12,-5.23 -52.53,-15.84 -15.41,-10.53 -26.73,-23.5 -34.11,-38.68 -7.38,-15.27 -11.04,-31.89 -11.04,-49.81zm39.71 -14.48c0,19.56 2.5,37.12 7.52,52.6 5.09,15.48 13.04,27.88 23.93,37.26 10.97,9.39 23.43,14.05 37.41,14.05 16.48,0 30.17,-6.52 40.92,-19.63 10.81,-13.05 16.19,-32.76 16.19,-59.05 0,-29.81 -5.88,-54.25 -17.56,-73.31 -11.68,-18.99 -28.52,-28.52 -50.44,-28.52 -18.21,0 -32.47,6.59 -42.64,19.71 -10.25,13.18 -15.33,32.1 -15.33,56.89zm234.46 64.29c6.74,0 12.54,2.36 17.56,7.09 4.94,4.79 7.45,10.82 7.45,18.06 0,6.87 -2.51,12.75 -7.38,17.62 -4.87,4.95 -10.75,7.38 -17.63,7.38 -7.02,0 -12.97,-2.43 -17.84,-7.23 -4.87,-4.88 -7.38,-10.75 -7.38,-17.77 0,-7.03 2.51,-12.97 7.38,-17.85 4.87,-4.87 10.82,-7.3 17.84,-7.3z"/>
   <path class="fil1" d="M656.88 1853.05l9.51 0.31c6.24,0.21 10.34,0.31 12.26,0.31 1.71,0 8.99,-0.21 21.84,-0.62l0.6 0.54 0 3.8 -0.6 0.54c-3.5,0.1 -6.2,0.26 -8.1,0.45 -1.92,0.2 -3.3,0.59 -4.15,1.13 -0.86,0.58 -1.44,1.87 -1.72,3.92 -0.29,2.06 -0.42,4.92 -0.42,8.58l-0.15 17.51 0 35.22 0.07 14.83c0.05,5.74 0.21,9.45 0.47,11.12 0.23,1.69 0.6,2.8 1.09,3.35 0.5,0.57 1.41,1.04 2.78,1.4 1.38,0.39 4.75,0.68 10.13,0.89l0.6 0.44 0 3.82 -0.6 0.59c-0.26,0 -4.72,-0.13 -13.4,-0.44 -3.61,-0.1 -6.42,-0.15 -8.44,-0.15 -1.59,0 -8.83,0.2 -21.77,0.59l-0.63 -0.59 0 -3.82 0.63 -0.44c4.73,-0.21 7.87,-0.47 9.43,-0.76 1.58,-0.31 2.63,-0.7 3.17,-1.2 0.52,-0.46 0.96,-1.5 1.29,-3.06 0.32,-1.58 0.53,-5.09 0.55,-10.52l0.08 -16.05 0 -35.22 -0.13 -14.86c-0.05,-5.77 -0.21,-9.51 -0.44,-11.17 -0.21,-1.69 -0.57,-2.8 -1.07,-3.35 -0.47,-0.58 -1.4,-1.02 -2.75,-1.38 -1.38,-0.36 -4.75,-0.62 -10.13,-0.83l-0.63 -0.54 0 -3.8 0.63 -0.54zm74.03 35.01l1.45 0.99c-0.31,3.4 -0.52,7.87 -0.62,13.4 4.05,-3.35 7.92,-6.75 11.56,-10.2 1.09,-0.97 2.08,-1.67 3.01,-2.14 0.94,-0.43 2.5,-0.93 4.68,-1.45 2.18,-0.49 4.41,-0.75 6.7,-0.75 3.87,0 7.61,0.78 11.22,2.36 3.64,1.58 6.36,3.43 8.24,5.59 1.84,2.15 3.11,4.7 3.84,7.66 0.7,2.93 1.06,6.57 1.06,10.88l0 13.38c0,0.86 0.14,7.2 0.37,18.96 0.11,4.8 0.65,7.69 1.61,8.6 0.96,0.91 4.1,1.37 9.43,1.37l0.62 0.6 0 3.28 -0.62 0.59c-6.44,-0.39 -10.81,-0.59 -13.1,-0.59 -1.3,0 -5.01,0.2 -11.08,0.59l-0.94 -0.83c0.68,-6.59 0.99,-15.2 0.99,-25.79l0 -9.98c0,-5.97 -0.14,-10.28 -0.42,-12.93 -0.26,-2.62 -1.12,-5.04 -2.55,-7.2 -1.39,-2.16 -3.32,-3.81 -5.71,-5.01 -2.36,-1.2 -5.22,-1.8 -8.52,-1.8 -2.62,0 -4.88,0.27 -6.75,0.81 -1.9,0.52 -4,1.61 -6.34,3.27 -2.31,1.64 -4.05,3.2 -5.17,4.65 -1.12,1.43 -1.79,2.78 -2,4.03 -0.23,1.25 -0.37,3.9 -0.37,7.95l0 13.25c0,1.11 0.11,4.7 0.32,10.75 0.21,6.08 0.41,9.61 0.65,10.63 0.23,1.01 0.57,1.74 1.04,2.2 0.44,0.47 1.01,0.75 1.66,0.89 0.65,0.12 3.4,0.33 8.21,0.64l0.7 0.6 0 3.19 -0.62 0.68c-6.35,-0.39 -12.45,-0.59 -18.34,-0.59 -5.83,0 -11.93,0.2 -18.26,0.59l-0.68 -0.68 0 -3.19 0.68 -0.6c4.93,-0.31 7.71,-0.54 8.34,-0.69 0.61,-0.16 1.19,-0.47 1.66,-0.94 0.49,-0.5 0.83,-1.22 1.01,-2.21 0.15,-0.99 0.36,-4.26 0.6,-9.82 0.23,-5.56 0.33,-9.77 0.33,-12.6l0 -14.99c0,-2.02 -0.1,-4.8 -0.3,-8.31 -0.19,-3.47 -0.37,-5.64 -0.5,-6.46 -0.1,-0.81 -0.52,-1.41 -1.17,-1.79 -0.65,-0.37 -1.97,-0.58 -3.95,-0.58l-6.39 -0.05 -0.7 -0.63 0 -3.27 0.62 -0.59c9.7,-1.17 17.85,-3.07 24.5,-5.72zm115.91 -30.67l0 -3.2 0.59 -0.68c9.69,-1.11 17.87,-2.98 24.52,-5.63l1.43 0.91c-0.55,5.84 -0.83,17.53 -0.83,35.09l0 49.85c0,5.11 0.08,9.58 0.25,13.43 0.19,3.82 0.5,6.1 0.97,6.8 0.44,0.7 1.2,1.3 2.23,1.74 1.04,0.47 4,0.91 8.89,1.3l0.67 0.62 0 2.88 -0.67 0.68c-5.48,-0.33 -9.75,-0.52 -12.81,-0.52 -2.72,0 -6.63,0.19 -11.71,0.52l-0.83 -0.83c0.15,-4.96 0.23,-8.44 0.23,-10.41 0,-0.26 0.03,-1.22 0.07,-2.91 -2.8,2.05 -5.58,4.31 -8.39,6.78 -4.1,3.65 -6.78,5.94 -8.05,6.85 -2.34,1.17 -5.66,1.75 -9.97,1.75 -6.99,0 -12.94,-1.72 -17.84,-5.18 -4.89,-3.45 -8.39,-7.84 -10.47,-13.19 -2.08,-5.35 -3.12,-10.86 -3.12,-16.5 0,-5.71 1.09,-11.25 3.24,-16.54 2.16,-5.3 5.23,-9.17 9.2,-11.59 3.98,-2.44 8.31,-4.96 13.02,-7.58 4.7,-2.62 9.35,-3.92 13.97,-3.92 6.44,0 12.57,1.61 18.41,4.8l-0.3 -16.99c-0.11,-5.86 -0.26,-9.97 -0.47,-12.29 -0.19,-2.31 -0.45,-3.66 -0.76,-4.1 -0.31,-0.44 -0.82,-0.75 -1.55,-0.95 -0.73,-0.19 -3.82,-0.3 -9.25,-0.3l-0.67 -0.69zm13 48.34c-3.13,-3.56 -6.64,-6.29 -10.46,-8.16 -3.85,-1.87 -7.69,-2.81 -11.54,-2.81 -4.25,0 -8.23,1.14 -11.89,3.46 -3.69,2.31 -6.34,5.74 -7.98,10.28 -1.61,4.53 -2.41,9.46 -2.41,14.79 0,8.88 2.23,16.02 6.73,21.4 4.49,5.37 10.12,8.05 16.94,8.05 3.68,0 6.98,-0.86 9.84,-2.54 2.85,-1.7 5.22,-4.01 7.09,-6.89 1.84,-2.89 2.91,-5.79 3.22,-8.67 0.31,-2.89 0.46,-8.21 0.46,-15.9l0 -13.01zm57.31 -17.67l1.43 0.99c-0.55,6.65 -0.83,15.09 -0.83,25.35l0 17.72c0,6.49 0.49,11.01 1.48,13.55 0.99,2.52 2.69,4.47 5.14,5.82 2.44,1.35 5.32,2.03 8.67,2.03 3.72,0 7.07,-0.73 10.14,-2.18 3.04,-1.45 5.58,-3.48 7.63,-6.13 2.05,-2.62 3.25,-4.42 3.54,-5.33 0.3,-0.91 0.51,-3.48 0.62,-7.69l0.23 -8.52 0 -8.21c0,-2.02 -0.1,-4.8 -0.31,-8.31 -0.21,-3.47 -0.36,-5.64 -0.49,-6.46 -0.13,-0.81 -0.53,-1.41 -1.2,-1.79 -0.65,-0.37 -1.97,-0.58 -3.94,-0.58l-6.39 -0.05 -0.68 -0.63 0 -3.27 0.59 -0.59c9.7,-1.17 17.88,-3.07 24.5,-5.72l1.46 0.99c-0.55,6.65 -0.84,15.09 -0.84,25.35l0 13.38c0,0.78 0.14,6.98 0.37,18.65 0.1,4.31 0.39,6.93 0.81,7.87 0.44,0.94 1.03,1.61 1.79,1.97 0.75,0.39 3.01,0.58 6.78,0.58l2.13 0 0.67 0.61 0 3.04 -0.6 0.68c-7.17,-0.39 -11.95,-0.59 -14.39,-0.59 -3.09,0 -6.68,0.18 -10.73,0.54l-0.67 -0.63c0.29,-5.16 0.52,-9.55 0.67,-13.16 -3.19,2.49 -6.86,5.82 -10.96,9.97 -1.56,1.59 -3.82,2.88 -6.77,3.95 -2.94,1.07 -6.29,1.61 -10.03,1.61 -5.69,0 -10.13,-0.91 -13.3,-2.7 -3.17,-1.79 -5.4,-4.29 -6.73,-7.46 -1.33,-3.17 -1.97,-8.64 -1.97,-16.41l0.08 -6 0 -14.84c0,-2.02 -0.11,-4.8 -0.31,-8.31 -0.22,-3.47 -0.37,-5.64 -0.5,-6.46 -0.13,-0.81 -0.52,-1.41 -1.17,-1.79 -0.67,-0.37 -1.97,-0.58 -3.98,-0.58l-6.38 -0.05 -0.68 -0.63 0 -3.27 0.6 -0.59c9.69,-1.17 17.87,-3.07 24.52,-5.72zm75.33 50.16l3.27 0 0.67 0.67c0.11,4.26 0.37,7.92 0.78,10.96 1.56,2.4 4.29,4.32 8.14,5.82 3.87,1.51 7.66,2.24 11.4,2.24 5.4,0 9.68,-1.43 12.91,-4.34 3.22,-2.88 4.82,-6.34 4.82,-10.34 0,-2.18 -0.56,-4.08 -1.73,-5.66 -1.17,-1.61 -2.93,-2.93 -5.3,-3.98 -2.37,-1.03 -6.57,-2.25 -12.68,-3.68 -5.22,-1.22 -8.85,-2.15 -10.96,-2.86 -2.08,-0.68 -4.08,-1.82 -6,-3.46 -1.92,-1.6 -3.41,-3.6 -4.42,-5.97 -1.01,-2.37 -1.53,-4.96 -1.53,-7.79 0,-6.81 2.7,-12.23 8.11,-16.34 5.43,-4.08 12.15,-6.1 20.21,-6.1 3.4,0 7.11,0.46 11.12,1.4 3.99,0.94 7.06,1.84 9.14,2.7l0.67 1.06c-0.41,2.03 -0.64,7.36 -0.75,15.98l-0.71 0.67 -3.03 0 -0.68 -0.67c-0.21,-3.09 -0.49,-5.27 -0.83,-6.49 -0.37,-1.25 -1.27,-2.6 -2.75,-4.06 -1.48,-1.42 -3.56,-2.64 -6.24,-3.63 -2.7,-0.99 -5.53,-1.48 -8.51,-1.48 -3.09,0 -5.7,0.44 -7.82,1.35 -2.11,0.91 -3.8,2.31 -5.09,4.16 -1.3,1.84 -1.96,4.1 -1.96,6.72 0,1.92 0.42,3.67 1.2,5.17 0.78,1.54 2,2.76 3.61,3.71 1.64,0.94 3.32,1.62 5.09,2l8.32 2.14c7.09,1.73 12.18,3.21 15.24,4.49 3.07,1.27 5.43,3.2 7.12,5.74 1.66,2.57 2.52,5.69 2.52,9.33 0,7.01 -2.91,13.01 -8.68,18.02 -5.79,5.04 -13.22,7.56 -22.31,7.56 -3.2,0 -7.17,-0.36 -11.9,-1.06 -4.75,-0.73 -8.8,-1.51 -12.15,-2.37l-0.37 -0.99 0.76 -5.11c0.26,-1.56 0.41,-3.15 0.47,-4.76 0.05,-1.58 0.1,-4.96 0.15,-10.08l0.68 -0.67zm61.87 -37.38l0 -1.97 0.52 -0.75c4.78,-1.8 8.62,-3.44 11.59,-4.97 0,-13.25 -0.16,-20.93 -0.48,-23.12 5.23,-1.84 9.52,-3.79 12.87,-5.87l1.81 1.53c-0.49,3.2 -1.09,12.47 -1.81,27.85 2.54,0.05 5.27,0.08 8.23,0.08 5.98,0 10.26,-0.15 12.86,-0.47l0.52 0.55 -1.46 6.39 -0.59 0.67c-2.61,-0.05 -5.46,-0.07 -8.6,-0.07 -2.83,0 -6.5,0.02 -10.96,0.07l-0.45 30.99c0,7.14 0.16,11.82 0.5,14.03 0.31,2.2 1.22,3.95 2.73,5.17 1.5,1.25 3.71,1.87 6.64,1.87 3.4,0 6.55,-0.88 9.46,-2.65l1.81 2.72c-1.22,0.87 -4.12,3.41 -8.74,7.61 -2.63,1.22 -5.33,1.83 -8.06,1.83 -11.43,0 -17.14,-5.54 -17.14,-16.58 0,-4.08 0.1,-7.5 0.31,-10.36 0.05,-0.86 0.07,-1.74 0.07,-2.65l0 -31.58 -3.11 0c-2.28,0 -4.91,0.1 -7.84,0.3l-0.68 -0.62zm76.55 -12.78l1.45 0.99c-0.31,2.94 -0.54,8.15 -0.7,15.69l5.72 -7.25c1.87,-2.39 3.53,-4.21 4.98,-5.5 1.46,-1.3 3.15,-2.31 5.07,-3.02 1.92,-0.7 3.9,-1.06 5.92,-1.06 2.24,0 4.34,0.46 6.32,1.37l0.54 1.07c-0.8,6.75 -1.27,12.67 -1.38,17.79l-3.43 0c-2.02,-4.65 -5.3,-6.98 -9.82,-6.98 -3.14,0 -5.87,0.98 -8.2,3.01 -2.34,1.99 -3.9,4.49 -4.68,7.53 -0.78,3.01 -1.19,6.83 -1.19,11.45l0 8.45c0,1.51 0.1,5.24 0.31,11.16 0.21,5.96 0.42,9.39 0.65,10.29 0.23,0.91 0.59,1.59 1.06,2.03 0.5,0.42 1.12,0.7 1.9,0.85 0.8,0.16 4.42,0.42 10.85,0.78l0.68 0.6 0 3.19 -0.68 0.68c-6.74,-0.39 -13.79,-0.59 -21.16,-0.59 -5.82,0 -11.92,0.2 -18.26,0.59l-0.68 -0.68 0 -3.19 0.68 -0.6c4.93,-0.31 7.71,-0.54 8.34,-0.69 0.62,-0.16 1.19,-0.47 1.66,-0.94 0.49,-0.5 0.83,-1.22 1.01,-2.21 0.16,-0.99 0.37,-4.26 0.6,-9.82 0.23,-5.56 0.33,-9.77 0.33,-12.6l0 -14.99c0,-2.02 -0.1,-4.8 -0.3,-8.31 -0.19,-3.47 -0.37,-5.64 -0.5,-6.46 -0.11,-0.81 -0.52,-1.41 -1.17,-1.79 -0.65,-0.37 -1.98,-0.58 -3.95,-0.58l-6.39 -0.05 -0.7 -0.63 0 -3.27 0.62 -0.59c9.69,-1.17 17.85,-3.07 24.5,-5.72zm54.26 -34.03c2.39,0 4.42,0.86 6.08,2.52 1.69,1.69 2.52,3.72 2.52,6.08 0,2.34 -0.83,4.34 -2.52,6.03 -1.66,1.66 -3.69,2.52 -6.08,2.52 -2.33,0 -4.36,-0.83 -6.05,-2.5 -1.71,-1.63 -2.55,-3.66 -2.55,-6.05 0,-2.36 0.84,-4.39 2.55,-6.08 1.69,-1.66 3.72,-2.52 6.05,-2.52zm6.47 34.03l1.43 0.99c-0.55,6.65 -0.83,15.09 -0.83,25.35l0 17.2c0,1.11 0.1,4.7 0.31,10.75 0.21,6.08 0.42,9.61 0.65,10.63 0.24,1.01 0.57,1.74 1.01,2.2 0.47,0.47 1.02,0.75 1.69,0.89 0.65,0.12 3.41,0.33 8.21,0.64l0.7 0.6 0 3.19 -0.62 0.68c-6.34,-0.39 -12.44,-0.59 -18.34,-0.59 -5.82,0 -11.92,0.2 -18.26,0.59l-0.68 -0.68 0 -3.19 0.68 -0.6c4.91,-0.31 7.68,-0.54 8.34,-0.69 0.62,-0.16 1.19,-0.47 1.65,-0.94 0.5,-0.5 0.84,-1.22 0.99,-2.21 0.19,-0.99 0.4,-4.26 0.63,-9.82 0.24,-5.56 0.34,-9.77 0.34,-12.6l0 -14.99c0,-2.02 -0.1,-4.8 -0.32,-8.31 -0.2,-3.47 -0.36,-5.64 -0.49,-6.46 -0.13,-0.81 -0.52,-1.41 -1.17,-1.79 -0.68,-0.37 -1.97,-0.58 -3.97,-0.58l-6.39 -0.05 -0.67 -0.63 0 -3.27 0.59 -0.59c9.71,-1.17 17.87,-3.07 24.52,-5.72zm33.09 20.94l-2.96 -0.78 -0.62 -0.75 0 -9.43c9.03,-6.71 17.82,-10.06 26.34,-10.06 5.84,0 10.67,1.09 14.54,3.28 3.85,2.18 6.66,4.9 8.37,8.18 1.71,3.27 2.6,7.09 2.6,11.45l-0.4 15.3 0 22.68c0,3.09 0.22,4.96 0.66,5.64 0.41,0.64 0.9,1.08 1.47,1.32 0.55,0.24 1.59,0.42 3.12,0.57l4.34 0.37 0.59 0.69 0 3.04 -0.59 0.63c-3.72,-0.31 -7.14,-0.47 -10.34,-0.47 -3.06,0 -6.7,0.16 -10.96,0.47l-1.14 -1.09 0.28 -12.24 -16.57 12.94c-2.81,1.17 -5.84,1.74 -9.15,1.74 -4.05,0 -7.52,-0.73 -10.46,-2.21 -2.91,-1.45 -5.15,-3.5 -6.68,-6.16 -1.55,-2.64 -2.33,-5.84 -2.33,-9.57 0,-7.46 2.33,-13.29 7,-17.49 4.69,-4.19 17.41,-7.74 38.19,-10.67 0,-7.51 -1.66,-12.81 -5.01,-15.88 -3.35,-3.06 -7.85,-4.6 -13.45,-4.6 -2.97,0 -5.64,0.42 -8.06,1.3 -2.39,0.87 -3.79,1.56 -4.13,2.08 -0.36,0.55 -1.74,3.64 -4.1,9.33l-0.55 0.39zm35.3 12.03c-14.18,2.36 -23.04,4.93 -26.55,7.66 -3.5,2.75 -5.24,6.99 -5.24,12.72 0,7.9 3.92,11.88 11.79,11.88 6.76,0 13.43,-3.93 20,-11.72l0 -20.54zm54.97 -73.15l1.42 0.91c-0.54,5.84 -0.83,17.53 -0.83,35.09l0 47.72c0,1.11 0.11,4.7 0.31,10.75 0.21,6.08 0.42,9.61 0.65,10.63 0.24,1.01 0.57,1.74 1.02,2.2 0.47,0.47 1.01,0.75 1.69,0.89 0.64,0.12 3.4,0.33 8.21,0.64l0.7 0.6 0 3.19 -0.63 0.68c-6.34,-0.39 -12.44,-0.59 -18.34,-0.59 -5.84,0 -11.92,0.2 -18.26,0.59l-0.67 -0.68 0 -3.19 0.67 -0.6c4.91,-0.31 7.69,-0.54 8.34,-0.69 0.63,-0.16 1.2,-0.47 1.66,-0.94 0.49,-0.5 0.81,-1.22 0.99,-2.21 0.18,-0.99 0.39,-4.26 0.63,-9.82 0.23,-5.56 0.33,-9.77 0.33,-12.6l0 -39.43 -0.31 -16.13c-0.16,-5.63 -0.31,-9.53 -0.49,-11.71 -0.19,-2.18 -0.42,-3.48 -0.73,-3.87 -0.29,-0.42 -0.83,-0.73 -1.59,-0.93 -0.77,-0.19 -3.84,-0.3 -9.22,-0.3l-0.67 -0.69 0 -3.2 0.59 -0.68c9.69,-1.11 17.88,-2.98 24.53,-5.63zm61.84 86.52l0.63 -0.6 3.71 0 0.62 0.6c0.26,6.49 0.6,10.47 1.02,11.93 0.43,1.42 1.81,2.95 4.13,4.54 2.28,1.61 5.37,2.91 9.19,3.93 3.84,1.01 7.71,1.53 11.61,1.53 5.38,0 10.21,-0.99 14.5,-2.97 4.28,-2 7.61,-4.88 9.99,-8.72 2.39,-3.82 3.59,-8.13 3.59,-12.89 0,-3.35 -0.57,-6.29 -1.71,-8.75 -1.15,-2.49 -2.73,-4.5 -4.81,-5.98 -2.05,-1.5 -4.39,-2.62 -7.04,-3.35 -2.62,-0.75 -6.55,-1.53 -11.79,-2.38 -5.07,-0.84 -9.04,-1.56 -11.9,-2.22 -2.86,-0.67 -5.72,-1.68 -8.57,-3.06 -2.83,-1.35 -5.2,-3.09 -7.12,-5.2 -1.9,-2.1 -3.4,-4.7 -4.54,-7.76 -1.15,-3.06 -1.72,-6.36 -1.72,-9.85 0,-9.5 3.3,-17.27 9.9,-23.32 6.57,-6.08 15.43,-9.12 26.55,-9.12 4.41,0 9.22,0.55 14.41,1.64 5.2,1.08 9.95,2.7 14.21,4.83l0.52 0.94c-1.11,4.64 -1.8,11.29 -2.05,19.92l-0.68 0.62 -3.97 0 -0.6 -0.55c-0.1,-6.08 -0.26,-9.92 -0.47,-11.48 -0.2,-1.58 -2.49,-3.53 -6.91,-5.87 -4.41,-2.33 -9.22,-3.51 -14.39,-3.51 -4.31,0 -8.34,0.89 -12.1,2.61 -3.74,1.71 -6.6,4.44 -8.52,8.12 -1.92,3.72 -2.89,7.51 -2.89,11.35 0,3 0.58,5.64 1.75,7.95 1.17,2.32 2.67,4.14 4.51,5.49 1.87,1.34 4.04,2.33 6.48,3.01 2.46,0.65 6.96,1.46 13.5,2.44 8.99,1.24 15.53,2.78 19.61,4.6 4.08,1.79 7.35,4.65 9.82,8.54 2.44,3.93 3.69,8.63 3.69,14.16 0,10.81 -4.41,19.82 -13.2,27.01 -8.8,7.23 -19.48,10.81 -32,10.81 -10.52,0 -19.72,-1.87 -27.64,-5.61l-0.44 -1.01c0.5,-3.2 0.89,-10.65 1.12,-22.37zm102.14 -46.34l1.43 0.99c-0.55,6.65 -0.84,15.09 -0.84,25.35l0 17.72c0,6.49 0.49,11.01 1.48,13.55 0.99,2.52 2.7,4.47 5.14,5.82 2.45,1.35 5.33,2.03 8.68,2.03 3.71,0 7.06,-0.73 10.13,-2.18 3.04,-1.45 5.58,-3.48 7.64,-6.13 2.05,-2.62 3.24,-4.42 3.53,-5.33 0.31,-0.91 0.52,-3.48 0.62,-7.69l0.24 -8.52 0 -8.21c0,-2.02 -0.11,-4.8 -0.32,-8.31 -0.2,-3.47 -0.36,-5.64 -0.49,-6.46 -0.13,-0.81 -0.52,-1.41 -1.19,-1.79 -0.66,-0.37 -1.98,-0.58 -3.95,-0.58l-6.39 -0.05 -0.68 -0.63 0 -3.27 0.6 -0.59c9.69,-1.17 17.87,-3.07 24.5,-5.72l1.45 0.99c-0.54,6.65 -0.83,15.09 -0.83,25.35l0 13.38c0,0.78 0.13,6.98 0.36,18.65 0.11,4.31 0.39,6.93 0.81,7.87 0.44,0.94 1.03,1.61 1.79,1.97 0.75,0.39 3.01,0.58 6.78,0.58l2.13 0 0.68 0.61 0 3.04 -0.6 0.68c-7.17,-0.39 -11.95,-0.59 -14.39,-0.59 -3.09,0 -6.68,0.18 -10.73,0.54l-0.68 -0.63c0.29,-5.16 0.52,-9.55 0.68,-13.16 -3.2,2.49 -6.86,5.82 -10.96,9.97 -1.56,1.59 -3.82,2.88 -6.78,3.95 -2.94,1.07 -6.29,1.61 -10.02,1.61 -5.7,0 -10.14,-0.91 -13.31,-2.7 -3.16,-1.79 -5.4,-4.29 -6.72,-7.46 -1.33,-3.17 -1.98,-8.64 -1.98,-16.41l0.08 -6 0 -14.84c0,-2.02 -0.1,-4.8 -0.31,-8.31 -0.21,-3.47 -0.37,-5.64 -0.5,-6.46 -0.12,-0.81 -0.52,-1.41 -1.17,-1.79 -0.67,-0.37 -1.97,-0.58 -3.97,-0.58l-6.39 -0.05 -0.68 -0.63 0 -3.27 0.6 -0.59c9.69,-1.17 17.88,-3.07 24.53,-5.72zm66.64 -29.98l-0.67 -0.69 0 -3.2 0.6 -0.68c9.69,-1.11 17.84,-2.98 24.49,-5.63l1.46 0.91c-0.55,5.84 -0.84,17.53 -0.84,35.09l0 19.4c0.96,-1.27 2.76,-3.22 5.41,-5.82 2.62,-2.62 4.78,-4.46 6.41,-5.52 1.67,-1.08 3.93,-2.01 6.78,-2.81 2.86,-0.81 5.87,-1.22 9.01,-1.22 5.75,0 10.79,1.42 15.12,4.26 4.35,2.86 7.56,6.65 9.67,11.37 2.1,4.76 3.16,9.82 3.16,15.2 0,5.11 -0.87,9.97 -2.64,14.6 -1.74,4.62 -3.82,8.41 -6.19,11.43 -1.42,1.71 -3.94,3.89 -7.53,6.54 -7.07,5.11 -12.02,8.31 -14.89,9.61 -2.87,1.3 -6.59,1.95 -11.14,1.95 -3.56,0 -6.77,-0.49 -9.66,-1.48 -2.9,-0.99 -5.9,-2.55 -8.99,-4.68l-6.15 5.77 -2.52 -0.99c0.96,-9.22 1.46,-19.74 1.46,-31.51l0 -40.3 -0.32 -14.63c-0.15,-5.59 -0.31,-9.51 -0.5,-11.77 -0.17,-2.26 -0.4,-3.58 -0.72,-3.97 -0.31,-0.42 -0.83,-0.73 -1.56,-0.93 -0.72,-0.19 -3.82,-0.3 -9.25,-0.3zm25.04 54.34l0 28.53c0,2.39 0.11,3.95 0.34,4.68 0.24,0.75 1.25,1.86 3.04,3.34 1.8,1.51 4.13,2.81 6.96,3.9 2.86,1.09 5.79,1.64 8.83,1.64 7.2,0 12.86,-2.81 16.94,-8.39 4.08,-5.56 6.13,-12.65 6.13,-21.23 0,-5.37 -0.86,-10.13 -2.54,-14.26 -1.72,-4.15 -4.26,-7.3 -7.67,-9.47 -3.4,-2.19 -7.22,-3.28 -11.48,-3.28 -5.04,0 -9.45,1.48 -13.27,4.44 -3.85,2.99 -6.27,6.34 -7.28,10.1zm69.85 25.8l3.27 0 0.68 0.67c0.1,4.26 0.36,7.92 0.78,10.96 1.55,2.4 4.29,4.32 8.13,5.82 3.87,1.51 7.66,2.24 11.4,2.24 5.41,0 9.69,-1.43 12.91,-4.34 3.22,-2.88 4.83,-6.34 4.83,-10.34 0,-2.18 -0.57,-4.08 -1.73,-5.66 -1.18,-1.61 -2.94,-2.93 -5.3,-3.98 -2.37,-1.03 -6.58,-2.25 -12.68,-3.68 -5.23,-1.22 -8.86,-2.15 -10.96,-2.86 -2.08,-0.68 -4.08,-1.82 -6.01,-3.46 -1.92,-1.6 -3.4,-3.6 -4.41,-5.97 -1.01,-2.37 -1.53,-4.96 -1.53,-7.79 0,-6.81 2.7,-12.23 8.1,-16.34 5.43,-4.08 12.16,-6.1 20.21,-6.1 3.41,0 7.12,0.46 11.12,1.4 4,0.94 7.07,1.84 9.14,2.7l0.68 1.06c-0.42,2.03 -0.65,7.36 -0.75,15.98l-0.71 0.67 -3.04 0 -0.67 -0.67c-0.21,-3.09 -0.5,-5.27 -0.83,-6.49 -0.37,-1.25 -1.28,-2.6 -2.76,-4.06 -1.48,-1.42 -3.56,-2.64 -6.23,-3.63 -2.7,-0.99 -5.53,-1.48 -8.52,-1.48 -3.09,0 -5.69,0.44 -7.82,1.35 -2.11,0.91 -3.79,2.31 -5.09,4.16 -1.3,1.84 -1.95,4.1 -1.95,6.72 0,1.92 0.42,3.67 1.2,5.17 0.78,1.54 1.99,2.76 3.61,3.71 1.63,0.94 3.32,1.62 5.09,2l8.31 2.14c7.09,1.73 12.18,3.21 15.24,4.49 3.07,1.27 5.44,3.2 7.12,5.74 1.67,2.57 2.52,5.69 2.52,9.33 0,7.01 -2.9,13.01 -8.67,18.02 -5.79,5.04 -13.23,7.56 -22.32,7.56 -3.19,0 -7.17,-0.36 -11.89,-1.06 -4.75,-0.73 -8.8,-1.51 -12.15,-2.37l-0.37 -0.99 0.75 -5.11c0.26,-1.56 0.42,-3.15 0.47,-4.76 0.05,-1.58 0.1,-4.96 0.16,-10.08l0.67 -0.67zm80.29 -84.19c2.39,0 4.42,0.86 6.08,2.52 1.69,1.69 2.52,3.72 2.52,6.08 0,2.34 -0.83,4.34 -2.52,6.03 -1.66,1.66 -3.69,2.52 -6.08,2.52 -2.34,0 -4.36,-0.83 -6.05,-2.5 -1.71,-1.63 -2.55,-3.66 -2.55,-6.05 0,-2.36 0.84,-4.39 2.55,-6.08 1.69,-1.66 3.71,-2.52 6.05,-2.52zm6.47 34.03l1.42 0.99c-0.54,6.65 -0.83,15.09 -0.83,25.35l0 17.2c0,1.11 0.11,4.7 0.32,10.75 0.2,6.08 0.42,9.61 0.65,10.63 0.24,1.01 0.57,1.74 1.01,2.2 0.47,0.47 1.01,0.75 1.69,0.89 0.65,0.12 3.4,0.33 8.21,0.64l0.7 0.6 0 3.19 -0.63 0.68c-6.33,-0.39 -12.44,-0.59 -18.33,-0.59 -5.82,0 -11.93,0.2 -18.27,0.59l-0.67 -0.68 0 -3.19 0.67 -0.6c4.91,-0.31 7.69,-0.54 8.35,-0.69 0.62,-0.16 1.18,-0.47 1.65,-0.94 0.5,-0.5 0.84,-1.22 0.99,-2.21 0.19,-0.99 0.4,-4.26 0.63,-9.82 0.23,-5.56 0.33,-9.77 0.33,-12.6l0 -14.99c0,-2.02 -0.1,-4.8 -0.31,-8.31 -0.21,-3.47 -0.36,-5.64 -0.49,-6.46 -0.13,-0.81 -0.52,-1.41 -1.17,-1.79 -0.67,-0.37 -1.98,-0.58 -3.97,-0.58l-6.4 -0.05 -0.67 -0.63 0 -3.27 0.6 -0.59c9.71,-1.17 17.87,-3.07 24.52,-5.72zm68.19 -30.67l0 -3.2 0.59 -0.68c9.69,-1.11 17.87,-2.98 24.52,-5.63l1.43 0.91c-0.55,5.84 -0.83,17.53 -0.83,35.09l0 49.85c0,5.11 0.08,9.58 0.25,13.43 0.19,3.82 0.5,6.1 0.97,6.8 0.44,0.7 1.2,1.3 2.23,1.74 1.04,0.47 4,0.91 8.89,1.3l0.67 0.62 0 2.88 -0.67 0.68c-5.48,-0.33 -9.75,-0.52 -12.81,-0.52 -2.72,0 -6.62,0.19 -11.71,0.52l-0.83 -0.83c0.15,-4.96 0.23,-8.44 0.23,-10.41 0,-0.26 0.03,-1.22 0.07,-2.91 -2.8,2.05 -5.58,4.31 -8.39,6.78 -4.1,3.65 -6.78,5.94 -8.05,6.85 -2.34,1.17 -5.66,1.75 -9.97,1.75 -6.99,0 -12.94,-1.72 -17.84,-5.18 -4.89,-3.45 -8.39,-7.84 -10.47,-13.19 -2.08,-5.35 -3.12,-10.86 -3.12,-16.5 0,-5.71 1.09,-11.25 3.24,-16.54 2.16,-5.3 5.23,-9.17 9.21,-11.59 3.96,-2.44 8.3,-4.96 13.01,-7.58 4.7,-2.62 9.35,-3.92 13.97,-3.92 6.44,0 12.57,1.61 18.41,4.8l-0.3 -16.99c-0.11,-5.86 -0.26,-9.97 -0.48,-12.29 -0.17,-2.31 -0.44,-3.66 -0.75,-4.1 -0.31,-0.44 -0.82,-0.75 -1.55,-0.95 -0.74,-0.19 -3.82,-0.3 -9.25,-0.3l-0.67 -0.69zm13 48.34c-3.13,-3.56 -6.64,-6.29 -10.46,-8.16 -3.85,-1.87 -7.69,-2.81 -11.54,-2.81 -4.25,0 -8.23,1.14 -11.89,3.46 -3.69,2.31 -6.34,5.74 -7.98,10.28 -1.61,4.53 -2.41,9.46 -2.41,14.79 0,8.88 2.23,16.02 6.73,21.4 4.49,5.37 10.12,8.05 16.93,8.05 3.69,0 6.99,-0.86 9.85,-2.54 2.86,-1.7 5.22,-4.01 7.09,-6.89 1.84,-2.89 2.9,-5.79 3.22,-8.67 0.31,-2.89 0.46,-8.21 0.46,-15.9l0 -13.01z"/>
   <path class="fil1" d="M1842.83 2001.91c1.71,-4.26 3.01,-8.18 3.87,-11.72l1.84 0c2.47,2.68 5.17,4.03 8.06,4.03 3.61,0 6.72,-1.79 9.4,-5.37 2.67,-3.56 6.44,-11.48 11.3,-23.69 -1.92,-5.43 -3.87,-10.58 -5.87,-15.38l-12.08 -29.98c-1.27,-3.09 -3.17,-7.53 -5.64,-13.29 -2.49,-5.75 -3.97,-8.91 -4.46,-9.52 -0.47,-0.57 -1.1,-1.11 -1.85,-1.63 -0.78,-0.49 -2.83,-0.99 -6.18,-1.43l-0.6 -0.62 0 -3.04 0.68 -0.59c5.84,0.33 11.82,0.51 17.97,0.51 7.2,0 12.75,-0.18 16.65,-0.51l0.62 0.59 0 3.04 -0.54 0.62c-0.54,0.06 -2.1,0.16 -4.67,0.34 -2.58,0.18 -4.16,0.57 -4.81,1.22 -0.63,0.62 -0.94,1.35 -0.94,2.15 0,0.86 0.78,3.67 2.37,8.42 1.56,4.73 3.09,8.94 4.54,12.6l4.81 11.87c3.14,7.82 5.58,13.56 7.3,17.27l4.05 -8.91c1.4,-3.24 3.43,-8.15 6.08,-14.75l6.31 -16.13c1.64,-4.18 2.55,-6.75 2.78,-7.77 0.23,-1.01 0.34,-1.77 0.34,-2.2 0,-1.12 -0.39,-1.88 -1.22,-2.29 -0.81,-0.41 -2.6,-0.75 -5.4,-1.07l-3.2 -0.46 -0.52 -0.6 0 -3.35 0.59 -0.59c4.26,0.33 9.33,0.51 15.15,0.51 5.32,0 9.59,-0.18 12.78,-0.51l0.62 0.59 0 3.35 -0.62 0.6c-1.87,0.05 -3.38,0.31 -4.49,0.78 -1.1,0.44 -2.16,1.24 -3.2,2.41 -1.01,1.17 -2.83,4.47 -5.45,9.88 -2.65,5.4 -5.3,10.98 -7.93,16.77l-7.45 16.36 -17.58 41.1c-1.54,3.53 -3.41,7.35 -5.67,11.41 -2.26,4.05 -5.04,6.98 -8.31,8.77 -3.28,1.82 -6.73,2.7 -10.39,2.73 -3.19,-0.03 -6.21,-0.85 -9.04,-2.52zm228.37 -54.18l-2.88 7.07c-11.28,5.74 -23.3,8.59 -36.08,8.59 -18.31,0 -33.2,-5.2 -44.63,-15.59 -11.45,-10.41 -17.17,-24 -17.17,-40.8 0,-11.56 2.86,-21.66 8.57,-30.31 5.69,-8.66 13.22,-15.13 22.6,-19.41 9.36,-4.29 19.87,-6.44 31.53,-6.44 6.76,0 13.44,0.73 20.04,2.13 6.57,1.43 12.07,3.12 16.49,5.11l0.54 0.76c-1.17,2.83 -2.26,9.87 -3.27,21.09l-0.55 0.6 -3.55 0 -0.63 -0.6 -0.75 -12.96c-3.71,-2.93 -8.19,-5.22 -13.43,-6.88 -5.25,-1.64 -10.73,-2.47 -16.39,-2.47 -8.6,0 -16.26,1.85 -23.06,5.53 -6.81,3.67 -12.08,8.99 -15.85,15.97 -3.74,6.97 -5.61,15.51 -5.61,25.62 0,10.13 2.21,19.04 6.62,26.7 4.39,7.66 10.41,13.53 18.05,17.67 7.64,4.1 16.58,6.15 26.76,6.15 4.52,0 8.86,-0.44 13.01,-1.3 4.16,-0.86 7.64,-1.92 10.4,-3.19 2.74,-1.28 5.4,-2.81 7.94,-4.65l1.3 1.61zm9.5 -22c0,-6.03 1.25,-11.85 3.75,-17.46 2.49,-5.61 6.81,-10.47 12.96,-14.54 6.18,-4.08 13.48,-6.14 21.98,-6.14 10.64,0 19.32,3.38 26.03,10.1 6.67,6.71 10.02,15.36 10.02,25.9 0,11.62 -3.85,21.2 -11.53,28.71 -7.69,7.51 -16.94,11.24 -27.8,11.24 -7.11,0 -13.45,-1.89 -19.04,-5.73 -5.58,-3.82 -9.68,-8.53 -12.36,-14.03 -2.68,-5.53 -4.01,-11.56 -4.01,-18.05zm14.4 -5.25c0,7.09 0.91,13.46 2.73,19.07 1.84,5.6 4.72,10.1 8.67,13.5 3.97,3.4 8.49,5.09 13.56,5.09 5.98,0 10.93,-2.36 14.83,-7.12 3.93,-4.72 5.87,-11.87 5.87,-21.39 0,-10.81 -2.13,-19.67 -6.37,-26.58 -4.22,-6.89 -10.33,-10.34 -18.28,-10.34 -6.59,0 -11.77,2.39 -15.45,7.15 -3.72,4.78 -5.56,11.63 -5.56,20.62zm91.53 -32.42l1.46 0.99c-0.32,3.4 -0.52,7.87 -0.63,13.4 4.06,-3.35 7.92,-6.75 11.57,-10.2 1.08,-0.97 2.07,-1.67 3.01,-2.14 0.93,-0.43 2.49,-0.93 4.67,-1.45 2.19,-0.49 4.42,-0.75 6.7,-0.75 3.88,0 7.61,0.78 11.23,2.36 3.63,1.58 6.36,3.43 8.23,5.59 1.84,2.15 3.12,4.7 3.84,7.66 0.71,2.93 1.07,6.57 1.07,10.88l0 13.38c0,0.86 0.13,7.2 0.37,18.96 0.1,4.8 0.64,7.69 1.6,8.6 0.97,0.91 4.1,1.37 9.43,1.37l0.63 0.6 0 3.28 -0.63 0.59c-6.44,-0.39 -10.8,-0.59 -13.09,-0.59 -1.3,0 -5.01,0.2 -11.09,0.59l-0.94 -0.83c0.68,-6.59 0.99,-15.2 0.99,-25.79l0 -9.98c0,-5.97 -0.13,-10.28 -0.41,-12.93 -0.26,-2.62 -1.12,-5.04 -2.55,-7.2 -1.4,-2.16 -3.33,-3.81 -5.72,-5.01 -2.35,-1.2 -5.22,-1.8 -8.51,-1.8 -2.63,0 -4.89,0.27 -6.76,0.81 -1.9,0.52 -4,1.61 -6.33,3.27 -2.32,1.64 -4.06,3.2 -5.17,4.65 -1.12,1.43 -1.79,2.78 -2,4.03 -0.24,1.25 -0.37,3.9 -0.37,7.95l0 13.25c0,1.11 0.11,4.7 0.31,10.75 0.21,6.08 0.42,9.61 0.65,10.63 0.23,1.01 0.57,1.74 1.04,2.2 0.44,0.47 1.01,0.75 1.67,0.89 0.64,0.12 3.39,0.33 8.2,0.64l0.7 0.6 0 3.19 -0.62 0.68c-6.34,-0.39 -12.44,-0.59 -18.34,-0.59 -5.82,0 -11.92,0.2 -18.26,0.59l-0.67 -0.68 0 -3.19 0.67 -0.6c4.94,-0.31 7.72,-0.54 8.34,-0.69 0.62,-0.16 1.2,-0.47 1.66,-0.94 0.5,-0.5 0.83,-1.22 1.02,-2.21 0.15,-0.99 0.36,-4.26 0.59,-9.82 0.24,-5.56 0.34,-9.77 0.34,-12.6l0 -14.99c0,-2.02 -0.1,-4.8 -0.31,-8.31 -0.19,-3.47 -0.37,-5.64 -0.5,-6.46 -0.1,-0.81 -0.52,-1.41 -1.16,-1.79 -0.65,-0.37 -1.97,-0.58 -3.95,-0.58l-6.39 -0.05 -0.71 -0.63 0 -3.27 0.63 -0.59c9.69,-1.17 17.85,-3.07 24.49,-5.72zm72.37 50.16l3.28 0 0.67 0.67c0.11,4.26 0.37,7.92 0.78,10.96 1.56,2.4 4.28,4.32 8.13,5.82 3.87,1.51 7.67,2.24 11.4,2.24 5.41,0 9.69,-1.43 12.91,-4.34 3.23,-2.88 4.83,-6.34 4.83,-10.34 0,-2.18 -0.56,-4.08 -1.74,-5.66 -1.16,-1.61 -2.93,-2.93 -5.3,-3.98 -2.36,-1.03 -6.56,-2.25 -12.67,-3.68 -5.22,-1.22 -8.86,-2.15 -10.96,-2.86 -2.08,-0.68 -4.08,-1.82 -6,-3.46 -1.93,-1.6 -3.41,-3.6 -4.42,-5.97 -1.01,-2.37 -1.53,-4.96 -1.53,-7.79 0,-6.81 2.7,-12.23 8.1,-16.34 5.44,-4.08 12.16,-6.1 20.22,-6.1 3.39,0 7.11,0.46 11.11,1.4 4,0.94 7.06,1.84 9.15,2.7l0.67 1.06c-0.41,2.03 -0.65,7.36 -0.76,15.98l-0.7 0.67 -3.04 0 -0.67 -0.67c-0.21,-3.09 -0.49,-5.27 -0.84,-6.49 -0.36,-1.25 -1.26,-2.6 -2.74,-4.06 -1.48,-1.42 -3.56,-2.64 -6.24,-3.63 -2.7,-0.99 -5.53,-1.48 -8.52,-1.48 -3.09,0 -5.69,0.44 -7.82,1.35 -2.1,0.91 -3.79,2.31 -5.09,4.16 -1.29,1.84 -1.95,4.1 -1.95,6.72 0,1.92 0.42,3.67 1.2,5.17 0.78,1.54 2,2.76 3.61,3.71 1.64,0.94 3.32,1.62 5.09,2l8.32 2.14c7.08,1.73 12.18,3.21 15.24,4.49 3.07,1.27 5.42,3.2 7.12,5.74 1.66,2.57 2.52,5.69 2.52,9.33 0,7.01 -2.91,13.01 -8.68,18.02 -5.79,5.04 -13.22,7.56 -22.31,7.56 -3.2,0 -7.17,-0.36 -11.9,-1.06 -4.76,-0.73 -8.8,-1.51 -12.16,-2.37l-0.36 -0.99 0.76 -5.11c0.25,-1.56 0.41,-3.15 0.46,-4.76 0.06,-1.58 0.11,-4.96 0.16,-10.08l0.67 -0.67zm84.71 -50.16l1.43 0.99c-0.54,6.65 -0.84,15.09 -0.84,25.35l0 17.72c0,6.49 0.5,11.01 1.48,13.55 0.99,2.52 2.71,4.47 5.15,5.82 2.44,1.35 5.33,2.03 8.68,2.03 3.71,0 7.06,-0.73 10.13,-2.18 3.04,-1.45 5.58,-3.48 7.64,-6.13 2.05,-2.62 3.24,-4.42 3.52,-5.33 0.32,-0.91 0.53,-3.48 0.63,-7.69l0.23 -8.52 0 -8.21c0,-2.02 -0.1,-4.8 -0.31,-8.31 -0.2,-3.47 -0.36,-5.64 -0.49,-6.46 -0.14,-0.81 -0.52,-1.41 -1.2,-1.79 -0.65,-0.37 -1.97,-0.58 -3.94,-0.58l-6.4 -0.05 -0.67 -0.63 0 -3.27 0.59 -0.59c9.69,-1.17 17.88,-3.07 24.5,-5.72l1.45 0.99c-0.54,6.65 -0.82,15.09 -0.82,25.35l0 13.38c0,0.78 0.12,6.98 0.36,18.65 0.11,4.31 0.39,6.93 0.8,7.87 0.44,0.94 1.04,1.61 1.8,1.97 0.75,0.39 3.01,0.58 6.77,0.58l2.14 0 0.67 0.61 0 3.04 -0.59 0.68c-7.17,-0.39 -11.95,-0.59 -14.4,-0.59 -3.09,0 -6.67,0.18 -10.72,0.54l-0.68 -0.63c0.28,-5.16 0.52,-9.55 0.68,-13.16 -3.2,2.49 -6.86,5.82 -10.97,9.97 -1.55,1.59 -3.81,2.88 -6.78,3.95 -2.93,1.07 -6.29,1.61 -10.02,1.61 -5.69,0 -10.13,-0.91 -13.3,-2.7 -3.17,-1.79 -5.41,-4.29 -6.73,-7.46 -1.32,-3.17 -1.97,-8.64 -1.97,-16.41l0.08 -6 0 -14.84c0,-2.02 -0.11,-4.8 -0.32,-8.31 -0.21,-3.47 -0.36,-5.64 -0.49,-6.46 -0.13,-0.81 -0.52,-1.41 -1.17,-1.79 -0.68,-0.37 -1.97,-0.58 -3.98,-0.58l-6.38 -0.05 -0.68 -0.63 0 -3.27 0.6 -0.59c9.69,-1.17 17.87,-3.07 24.52,-5.72zm96.11 -40.18l1.43 0.91c-0.55,5.84 -0.83,17.53 -0.83,35.09l0 47.72c0,1.11 0.1,4.7 0.31,10.75 0.2,6.08 0.41,9.61 0.64,10.63 0.24,1.01 0.58,1.74 1.01,2.2 0.47,0.47 1.02,0.75 1.69,0.89 0.65,0.12 3.41,0.33 8.21,0.64l0.7 0.6 0 3.19 -0.62 0.68c-6.33,-0.39 -12.44,-0.59 -18.34,-0.59 -5.84,0 -11.92,0.2 -18.26,0.59l-0.67 -0.68 0 -3.19 0.67 -0.6c4.91,-0.31 7.69,-0.54 8.34,-0.69 0.63,-0.16 1.19,-0.47 1.66,-0.94 0.5,-0.5 0.81,-1.22 0.99,-2.21 0.18,-0.99 0.39,-4.26 0.62,-9.82 0.24,-5.56 0.34,-9.77 0.34,-12.6l0 -39.43 -0.31 -16.13c-0.16,-5.63 -0.32,-9.53 -0.49,-11.71 -0.18,-2.18 -0.42,-3.48 -0.73,-3.87 -0.29,-0.42 -0.83,-0.73 -1.59,-0.93 -0.77,-0.19 -3.84,-0.3 -9.22,-0.3l-0.67 -0.69 0 -3.2 0.6 -0.68c9.68,-1.11 17.86,-2.98 24.52,-5.63zm20.38 52.96l0 -1.97 0.52 -0.75c4.78,-1.8 8.63,-3.44 11.59,-4.97 0,-13.25 -0.16,-20.93 -0.47,-23.12 5.23,-1.84 9.51,-3.79 12.86,-5.87l1.82 1.53c-0.5,3.2 -1.09,12.47 -1.82,27.85 2.55,0.05 5.28,0.08 8.23,0.08 5.98,0 10.27,-0.15 12.86,-0.47l0.52 0.55 -1.46 6.39 -0.59 0.67c-2.6,-0.05 -5.46,-0.07 -8.6,-0.07 -2.83,0 -6.49,0.02 -10.96,0.07l-0.44 30.99c0,7.14 0.16,11.82 0.49,14.03 0.31,2.2 1.22,3.95 2.73,5.17 1.51,1.25 3.71,1.87 6.65,1.87 3.4,0 6.55,-0.88 9.45,-2.65l1.82 2.72c-1.22,0.87 -4.13,3.41 -8.75,7.61 -2.62,1.22 -5.33,1.83 -8.06,1.83 -11.42,0 -17.14,-5.54 -17.14,-16.58 0,-4.08 0.11,-7.5 0.32,-10.36 0.04,-0.86 0.07,-1.74 0.07,-2.65l0 -31.58 -3.11 0c-2.29,0 -4.91,0.1 -7.85,0.3l-0.68 -0.62zm63.46 8.16l-2.96 -0.78 -0.62 -0.75 0 -9.43c9.04,-6.71 17.82,-10.06 26.34,-10.06 5.84,0 10.68,1.09 14.55,3.28 3.84,2.18 6.64,4.9 8.36,8.18 1.72,3.27 2.6,7.09 2.6,11.45l-0.4 15.3 0 22.68c0,3.09 0.21,4.96 0.65,5.64 0.42,0.64 0.92,1.08 1.49,1.32 0.54,0.24 1.58,0.42 3.11,0.57l4.34 0.37 0.6 0.69 0 3.04 -0.6 0.63c-3.71,-0.31 -7.14,-0.47 -10.33,-0.47 -3.08,0 -6.71,0.16 -10.97,0.47l-1.14 -1.09 0.29 -12.24 -16.58 12.94c-2.8,1.17 -5.84,1.74 -9.14,1.74 -4.05,0 -7.54,-0.73 -10.47,-2.21 -2.91,-1.45 -5.14,-3.5 -6.68,-6.16 -1.55,-2.64 -2.33,-5.84 -2.33,-9.57 0,-7.46 2.33,-13.29 7.01,-17.49 4.67,-4.19 17.4,-7.74 38.19,-10.67 0,-7.51 -1.67,-12.81 -5.02,-15.88 -3.35,-3.06 -7.84,-4.6 -13.45,-4.6 -2.96,0 -5.64,0.42 -8.06,1.3 -2.39,0.87 -3.79,1.56 -4.13,2.08 -0.36,0.55 -1.73,3.64 -4.1,9.33l-0.55 0.39zm35.31 12.03c-14.19,2.36 -23.05,4.93 -26.55,7.66 -3.51,2.75 -5.25,6.99 -5.25,12.72 0,7.9 3.92,11.88 11.79,11.88 6.76,0 13.43,-3.93 20.01,-11.72l0 -20.54zm52.52 -32.97l1.45 0.99c-0.31,3.4 -0.52,7.87 -0.62,13.4 4.05,-3.35 7.92,-6.75 11.56,-10.2 1.09,-0.97 2.08,-1.67 3.01,-2.14 0.94,-0.43 2.49,-0.93 4.68,-1.45 2.17,-0.49 4.41,-0.75 6.7,-0.75 3.86,0 7.61,0.78 11.22,2.36 3.63,1.58 6.36,3.43 8.23,5.59 1.85,2.15 3.12,4.7 3.85,7.66 0.69,2.93 1.06,6.57 1.06,10.88l0 13.38c0,0.86 0.13,7.2 0.36,18.96 0.11,4.8 0.66,7.69 1.62,8.6 0.96,0.91 4.1,1.37 9.43,1.37l0.62 0.6 0 3.28 -0.62 0.59c-6.45,-0.39 -10.81,-0.59 -13.1,-0.59 -1.3,0 -5.01,0.2 -11.09,0.59l-0.93 -0.83c0.68,-6.59 0.99,-15.2 0.99,-25.79l0 -9.98c0,-5.97 -0.14,-10.28 -0.42,-12.93 -0.26,-2.62 -1.12,-5.04 -2.55,-7.2 -1.4,-2.16 -3.32,-3.81 -5.71,-5.01 -2.37,-1.2 -5.23,-1.8 -8.52,-1.8 -2.62,0 -4.88,0.27 -6.75,0.81 -1.9,0.52 -4,1.61 -6.34,3.27 -2.31,1.64 -4.05,3.2 -5.17,4.65 -1.12,1.43 -1.8,2.78 -2,4.03 -0.23,1.25 -0.37,3.9 -0.37,7.95l0 13.25c0,1.11 0.11,4.7 0.31,10.75 0.21,6.08 0.42,9.61 0.66,10.63 0.23,1.01 0.57,1.74 1.04,2.2 0.44,0.47 1.01,0.75 1.65,0.89 0.66,0.12 3.41,0.33 8.22,0.64l0.69 0.6 0 3.19 -0.62 0.68c-6.34,-0.39 -12.44,-0.59 -18.33,-0.59 -5.82,0 -11.93,0.2 -18.27,0.59l-0.68 -0.68 0 -3.19 0.68 -0.6c4.94,-0.31 7.71,-0.54 8.34,-0.69 0.62,-0.16 1.2,-0.47 1.66,-0.94 0.5,-0.5 0.84,-1.22 1.02,-2.21 0.16,-0.99 0.36,-4.26 0.6,-9.82 0.23,-5.56 0.33,-9.77 0.33,-12.6l0 -14.99c0,-2.02 -0.1,-4.8 -0.31,-8.31 -0.18,-3.47 -0.37,-5.64 -0.49,-6.46 -0.11,-0.81 -0.52,-1.41 -1.18,-1.79 -0.64,-0.37 -1.96,-0.58 -3.94,-0.58l-6.39 -0.05 -0.7 -0.63 0 -3.27 0.62 -0.59c9.69,-1.17 17.85,-3.07 24.5,-5.72zm68.18 12.78l0 -1.97 0.52 -0.75c4.79,-1.8 8.63,-3.44 11.59,-4.97 0,-13.25 -0.16,-20.93 -0.47,-23.12 5.22,-1.84 9.51,-3.79 12.86,-5.87l1.81 1.53c-0.48,3.2 -1.09,12.47 -1.81,27.85 2.54,0.05 5.27,0.08 8.24,0.08 5.97,0 10.25,-0.15 12.85,-0.47l0.52 0.55 -1.45 6.39 -0.6 0.67c-2.6,-0.05 -5.46,-0.07 -8.6,-0.07 -2.83,0 -6.49,0.02 -10.96,0.07l-0.44 30.99c0,7.14 0.15,11.82 0.49,14.03 0.31,2.2 1.22,3.95 2.73,5.17 1.5,1.25 3.71,1.87 6.64,1.87 3.41,0 6.55,-0.88 9.47,-2.65l1.81 2.72c-1.22,0.87 -4.13,3.41 -8.75,7.61 -2.63,1.22 -5.33,1.83 -8.06,1.83 -11.42,0 -17.14,-5.54 -17.14,-16.58 0,-4.08 0.11,-7.5 0.31,-10.36 0.05,-0.86 0.08,-1.74 0.08,-2.65l0 -31.58 -3.12 0c-2.28,0 -4.91,0.1 -7.84,0.3l-0.68 -0.62z"/>
  </g>
 </g>
</svg>
