<?xml version="1.0" encoding="UTF-8"?>
<!DOCTYPE svg PUBLIC "-//W3C//DTD SVG 1.1//EN" "http://www.w3.org/Graphics/SVG/1.1/DTD/svg11.dtd">
<!-- Creator: CorelDRAW 2021 (64-Bit) -->
<svg xmlns="http://www.w3.org/2000/svg" xml:space="preserve" width="33.8666mm" height="33.8666mm" version="1.1" style="shape-rendering:geometricPrecision; text-rendering:geometricPrecision; image-rendering:optimizeQuality; fill-rule:evenodd; clip-rule:evenodd"
viewBox="0 0 3386.66 3386.66"
 xmlns:xlink="http://www.w3.org/1999/xlink"
 xmlns:xodm="http://www.corel.com/coreldraw/odm/2003">
 <defs>
  <style type="text/css">
   <![CDATA[
    .fil2 {fill:#FEFEFE}
    .fil0 {fill:#EF7F1A}
    .fil1 {fill:#1A5386}
    .fil5 {fill:#EF7F1A;fill-rule:nonzero}
    .fil3 {fill:#1A5386;fill-rule:nonzero}
    .fil4 {fill:url(#id0)}
   ]]>
  </style>
  <linearGradient id="id0" gradientUnits="userSpaceOnUse" x1="1689.72" y1="1664.47" x2="1689.72" y2="1957.88">
   <stop offset="0" style="stop-opacity:1; stop-color:#1A5386"/>
   <stop offset="0.45098" style="stop-opacity:1; stop-color:#0D5085"/>
   <stop offset="1" style="stop-opacity:1; stop-color:#1A5386"/>
  </linearGradient>
 </defs>
 <g id="Layer_x0020_1">
  <metadata id="CorelCorpID_0Corel-Layer"/>
  <g id="_1357858445888">
   <path class="fil0" d="M2477.5 1227.4c0,0 -44.53,45.25 -4.53,118.8 0,0 -11.32,-66.22 18.78,-91.43 0,0 -8.54,26.39 9.63,66.3 18.16,39.9 22.9,82.35 13.21,101.92 0,0 34.67,-46.26 -0.14,-116.51 0,0 65.59,73.62 27.57,157.58 0,0 31.07,-41.02 20.67,-86.59 0,0 66.73,128.61 -43.12,236.74 0,0 27.12,-6.94 42.98,-22.8 0,0 -45.16,106.62 -152.87,77.04 -107.7,-29.58 -89.99,-129.97 -89.99,-129.97 0,0 -24.75,-19.26 -54.96,-31.24 0,0 15.81,3.41 39.62,-2.97 23.82,-6.38 40.65,-14.88 69.49,3.41 28.84,18.29 32.26,13.88 39.03,8.36 0,0 -5.57,18.85 -29,11.62 0,0 -2.4,30.19 29.38,39.48 31.78,9.29 70.34,-9.44 65.59,-61.46 -8.19,-89.59 -138.97,-184.18 -1.34,-278.28z"/>
   <path class="fil1" d="M2477.42 1227.46l0.01 0.01c-1.79,1.87 -43.61,46.73 -4.46,118.73 0,0 -11.32,-66.22 18.78,-91.43 0,0 -8.54,26.39 9.63,66.3 18.16,39.9 22.9,82.35 13.21,101.92 0,0 34.67,-46.26 -0.14,-116.51 0,0 65.59,73.62 27.57,157.58 0,0 31.07,-41.02 20.67,-86.59 0,0 66.73,128.61 -43.12,236.74 0,0 27.12,-6.94 42.98,-22.8 0,0 -45.16,106.62 -152.87,77.04 -18.59,-5.1 -33.43,-12.32 -45.29,-20.77 6.22,3.02 12.63,5.6 19.24,7.55 6.74,1.99 13.63,3.27 20.61,4.02 16.34,1.7 30.7,-1.46 43.5,-7.42 13.09,-6.1 24.42,-15.38 33.82,-26.8 18.59,-22.59 29.66,-53.03 31.94,-80.47 2.04,-23.81 -1.7,-45.9 -8.24,-67.19 -11.29,-36.76 -31.44,-70.96 -46.24,-107.16 -6.57,-16.08 -11.89,-32.59 -15.52,-49.61 -2.57,-13.5 -3.59,-40.73 2.56,-67.24 8.41,-8.64 18.75,-17.27 31.36,-25.9z"/>
   <path class="fil0" d="M2520.81 1664.93c0,0 -26.31,23.41 -61.11,19.37 0,0 27.34,13.94 67.31,17.42 43.81,3.81 63.6,38.35 55.91,67.51 0,0 20.47,-37.91 -17.71,-73.23 -10.39,-9.61 -35.79,-26.97 -44.4,-31.07z"/>
   <path class="fil1" d="M2583.93 1764.39c0.41,-1.64 0.74,-3.32 0.99,-5.03 1.08,-7.05 0.87,-14.37 -0.32,-20.31 -0.81,-4.3 -1.7,-8.53 -3.06,-12.62 -0.85,-2.57 -1.94,-5.06 -3.31,-7.48 -3.96,-7.04 -9.49,-12.41 -15.69,-17.08 -8.97,-6.73 -19.65,-11.45 -29.97,-16.57 -4.36,-2.16 -8.68,-4.34 -12.73,-6.81 -2.87,-1.75 -5.52,-3.7 -8.14,-5.66l-0.98 -0.74c6.42,-3.89 10.09,-7.16 10.09,-7.16 8.61,4.1 34.01,21.46 44.4,31.07 38.18,35.32 17.71,73.23 17.71,73.23 0.42,-1.59 0.75,-3.21 1.01,-4.84z"/>
   <path class="fil0" d="M2542.71 1660.5c0,0 65.93,10.25 63.09,-63.68 0,0 18.73,37.51 -9.9,60.56 -24.48,19.72 -53.19,3.12 -53.19,3.12z"/>
   <path class="fil1" d="M2609.01 1605.32c0.23,6.68 -0.85,13.62 -2.75,20.21 -3.73,12.98 -11.52,24.57 -21.95,31.46 -4.89,3.01 -10.33,5.07 -16,6.1 -5.46,0.98 -11.11,1.08 -16.56,0.58 -1.12,-0.17 -2.22,-0.34 -3.32,-0.54 -3.59,-1.4 -5.72,-2.63 -5.72,-2.63 0,0 65.93,10.25 63.09,-63.68 0,0 1.64,3.28 3.21,8.5z"/>
   <path class="fil0" d="M2547.66 1672.52c0,0 37.67,50.2 91.35,29.07 58.58,-23.05 117.91,-65.83 157.31,13.27 0,0 1.36,-56.46 -57.05,-75.81 -58.41,-19.35 -128.21,58.65 -191.61,33.47z"/>
   <path class="fil1" d="M2795.57 1713.41c-4.42,-10.62 -9.38,-24.83 -11.48,-28.33 -17.37,-29.02 -45.68,-31.47 -60.97,-31.92 -34.02,-1 -74.59,22.86 -102.77,32.59 -23.72,8.19 -53.44,11.7 -72.61,-13.2 63.38,25.08 133.15,-52.84 191.53,-33.5 58.41,19.35 57.05,75.81 57.05,75.81 -0.25,-0.49 -0.51,-0.97 -0.75,-1.45z"/>
   <path class="fil0" d="M2590 1711.28c0,0 15.43,20.27 51.52,15.31 36.08,-4.96 62.08,2.21 72.42,18.85 0,0 -15.23,-35.91 -55.7,-32.16 -40.47,3.75 -53.61,6.38 -68.24,-2z"/>
   <path class="fil2" d="M2349.6 1514.95c0,0 -4.61,3.33 -13.95,-1.38 0,0 3.36,-6.37 13.95,1.38z"/>
   <path class="fil3" d="M590.36 1971.9l0 -304.02 137.1 0c35.48,0 62.45,10.08 80.9,30.24 16.18,17.31 24.27,39.74 24.27,67.27 0,27.54 -8.09,49.96 -24.27,67.28 -18.45,20.16 -45.42,30.23 -80.9,30.23l-70.25 0 0 109 -66.85 0zm66.85 -252.07l0 91.12 51.94 0c18.17,0 31.79,-2.7 40.88,-8.09 11.92,-7.37 17.88,-19.87 17.88,-37.47 0,-17.6 -5.96,-30.09 -17.88,-37.46 -9.09,-5.4 -22.71,-8.1 -40.88,-8.1l-51.94 0z"/>
   <polygon class="fil3" points="874.37,1971.9 874.37,1667.88 941.22,1667.88 941.22,1784.56 1064.27,1784.56 1064.27,1667.88 1131.12,1667.88 1131.12,1971.9 1064.27,1971.9 1064.27,1840.76 941.22,1840.76 941.22,1971.9 "/>
   <polygon class="fil4" points="1788.03,1971.9 1788.03,1915.7 1624.1,1915.7 1624.1,1841.18 1771.42,1841.18 1771.42,1789.24 1624.1,1789.24 1624.1,1724.09 1784.62,1724.09 1784.62,1667.88 1557.25,1667.88 1557.25,1971.9 "/>
   <polygon class="fil3" points="1820.86,1971.9 1820.86,1667.88 1887.28,1667.88 2014.17,1871.84 2015.01,1871.84 2015.01,1667.88 2077.61,1667.88 2077.61,1971.9 2010.76,1971.9 1884.3,1768.37 1883.45,1768.37 1883.45,1971.9 "/>
   <polygon class="fil3" points="2116.51,1971.9 2116.51,1667.88 2183.36,1667.88 2183.36,1971.9 "/>
   <polygon class="fil3" points="2202.11,1971.9 2308.56,1812.65 2210.63,1667.88 2288.12,1667.88 2347.73,1764.97 2409.47,1667.88 2482.71,1667.88 2385.2,1813.08 2491.22,1971.9 2411.6,1971.9 2345.17,1866.73 2277.47,1971.9 "/>
   <path class="fil5" d="M1602.18 2155.99l0 -112.51 -41.36 0 0 -25.51 113.08 0 0 25.51 -41.37 0 0 112.51 -30.35 0zm86.89 -68.44c0,-21.13 5.99,-38.4 17.97,-51.8 12.38,-14.06 29,-21.07 49.88,-21.07 20.87,0 37.5,7.01 49.87,21.07 11.99,13.4 17.98,30.67 17.98,51.8 0,20.62 -5.99,37.57 -17.98,50.84 -12.5,13.92 -29.12,20.88 -49.87,20.88 -20.75,0 -37.38,-6.96 -49.88,-20.88 -11.98,-13.27 -17.97,-30.22 -17.97,-50.84zm30.35 0c0,12.89 2.83,23.46 8.5,31.71 6.7,9.66 16.37,14.49 29,14.49 12.63,0 22.29,-4.83 29,-14.49 5.67,-8.25 8.5,-18.82 8.5,-31.71 0,-13.4 -2.83,-24.29 -8.5,-32.67 -6.58,-9.79 -16.25,-14.69 -29,-14.69 -12.76,0 -22.43,4.9 -29,14.69 -5.67,8.38 -8.5,19.27 -8.5,32.67zm248.48 -69.58l0 85.82c0,18.3 -5.12,32.13 -15.36,41.47 -10.25,9.34 -24.78,14.01 -43.6,14.01 -39.18,0 -58.76,-18.49 -58.76,-55.48l0 -85.82 30.35 0 0 85.82c0,9.15 1.67,16.05 5.02,20.69 4.51,6.18 12.31,9.27 23.39,9.27 10.57,0 18.05,-2.44 22.43,-7.34 4.12,-4.51 6.18,-12.05 6.18,-22.62l0 -85.82 30.35 0zm31.4 138.02l0 -138.02 74.43 0c12.11,0 21.97,3.72 29.57,11.21 7.22,7.21 10.84,16.17 10.84,26.86 0,17.15 -7.29,28.68 -21.85,34.6l0 0.39c12.11,3.09 18.81,13.86 20.1,32.29 0.39,5.54 0.78,11.08 1.17,16.62 0.77,7.48 2.31,12.82 4.63,16.05l-30.35 0c-1.42,-3.48 -2.51,-8.71 -3.28,-15.66 -0.52,-5.8 -1.04,-11.6 -1.55,-17.4 -1.03,-7.47 -3.26,-12.82 -6.67,-16.05 -3.41,-3.22 -8.86,-4.83 -16.34,-4.83l-30.35 0 0 53.94 -30.35 0zm30.35 -114.44l0 38.85 33.25 0c13.92,0 20.88,-6.57 20.88,-19.72 0,-12.76 -6.96,-19.13 -20.88,-19.13l-33.25 0zm114.53 114.44l0 -138.02 30.35 0 0 138.02 -30.35 0zm53.63 -45.82l29.38 0c0,8.63 3.1,15.21 9.28,19.72 5.29,3.86 12.38,5.8 21.27,5.8 6.95,0 12.75,-1.09 17.39,-3.29 6.32,-2.96 9.48,-7.61 9.48,-13.91 0,-7.87 -7.09,-13.8 -21.27,-17.79 -24.48,-6.96 -37.69,-10.96 -39.63,-11.99 -14.17,-6.83 -21.26,-17.59 -21.26,-32.28 0,-13.28 5.48,-23.78 16.43,-31.51 9.79,-6.83 21.52,-10.24 35.18,-10.24 15.85,0 28.68,3.41 38.48,10.24 11.21,7.86 16.81,19.27 16.81,34.21l-29.38 0c-0.77,-13.92 -9.86,-20.87 -27.26,-20.87 -5.54,0 -10.24,1.15 -14.11,3.47 -4.51,2.84 -6.77,6.91 -6.77,12.19 0,5.03 2.51,8.7 7.54,11.01 3.87,1.81 15.08,5.1 33.64,9.86 10.82,2.71 18.88,5.8 24.16,9.28 11.21,7.22 16.82,17.53 16.82,30.93 0,13.15 -4.9,23.72 -14.69,31.71 -10.31,8.38 -24.55,12.56 -42.72,12.56 -16.63,0 -30.28,-3.93 -40.98,-11.79 -11.99,-8.89 -17.92,-21.33 -17.79,-37.31zm139.46 45.82l0 -138.02 42.72 0 32.29 94.91 0.39 0 30.54 -94.91 42.72 0 0 138.02 -28.42 0 0 -97.82 -0.38 0 -33.83 97.82 -23.39 0 -33.83 -96.86 -0.39 0 0 96.86 -28.42 0z"/>
   <path class="fil5" d="M1269.31 1698.85c-0.2,0 -0.39,0.04 -0.58,0.12 -12.13,5.56 -23.02,13.94 -31.49,24.24 -0.27,0.32 -0.38,0.74 -0.3,1.14 0.07,0.4 0.32,0.76 0.67,0.96 4.44,2.57 9.5,4.89 15.03,6.89l0.48 0.08c0.2,0 0.41,-0.03 0.6,-0.13 0.35,-0.17 0.6,-0.46 0.72,-0.82 4.01,-11.94 9.37,-22.11 15.95,-30.2 0.41,-0.5 0.42,-1.22 0.02,-1.74 -0.27,-0.35 -0.68,-0.54 -1.1,-0.54zm71.94 0c-0.42,0 -0.84,0.19 -1.11,0.54 -0.4,0.52 -0.39,1.24 0.02,1.74 6.59,8.1 11.96,18.26 15.96,30.22 0.12,0.36 0.38,0.65 0.71,0.81 0.2,0.09 0.41,0.14 0.61,0.14l0.48 -0.08c5.49,-1.99 10.55,-4.32 15.03,-6.92 0.35,-0.2 0.6,-0.55 0.67,-0.95 0.07,-0.41 -0.04,-0.82 -0.3,-1.14 -8.47,-10.3 -19.36,-18.68 -31.49,-24.24 -0.19,-0.08 -0.39,-0.12 -0.58,-0.12zm-41.75 -7.16l-0.3 0.03c-14.74,3.35 -28.25,19.11 -36.16,42.16 -0.12,0.37 -0.09,0.77 0.1,1.12 0.18,0.35 0.5,0.59 0.88,0.69 11.06,2.85 22.98,4.49 35.44,4.88l0.04 0c0.37,0 0.72,-0.14 0.98,-0.39 0.27,-0.27 0.43,-0.63 0.43,-1l0 -46.1c0,-0.43 -0.2,-0.82 -0.53,-1.1 -0.25,-0.19 -0.56,-0.29 -0.88,-0.29zm11.55 0c-0.31,0 -0.62,0.1 -0.87,0.29 -0.33,0.28 -0.53,0.67 -0.53,1.1l0 46.1c0,0.37 0.16,0.73 0.43,1 0.26,0.25 0.61,0.39 0.97,0.39l0.05 0c12.46,-0.39 24.39,-2.03 35.44,-4.87 0.38,-0.1 0.7,-0.35 0.88,-0.69 0.19,-0.35 0.22,-0.75 0.1,-1.12 -7.91,-23.06 -21.42,-38.82 -36.16,-42.17l-0.31 -0.03zm-79.48 40.44c-0.47,0 -0.92,0.23 -1.19,0.67 -7.54,12.16 -12.03,26.13 -12.98,40.43 -0.02,0.38 0.12,0.76 0.38,1.05 0.26,0.28 0.63,0.44 1.02,0.44l26.98 0c0.76,0 1.37,-0.6 1.4,-1.36 0.36,-10.75 1.75,-21.2 4.12,-31.06 0.17,-0.69 -0.21,-1.41 -0.89,-1.64 -6.74,-2.39 -12.84,-5.19 -18.13,-8.33 -0.22,-0.14 -0.46,-0.2 -0.71,-0.2zm29.59 11.85c-0.26,0 -0.5,0.08 -0.72,0.2 -0.32,0.2 -0.55,0.51 -0.64,0.88 -2.18,8.99 -3.48,18.48 -3.85,28.21 -0.01,0.37 0.13,0.75 0.39,1.02 0.27,0.28 0.63,0.43 1.01,0.43l42.15 0c0.78,0 1.41,-0.63 1.41,-1.4l0 -22.6c0,-0.76 -0.6,-1.38 -1.36,-1.4 -13.3,-0.4 -26.1,-2.18 -38.04,-5.29l-0.35 -0.05zm88.24 0.01l-0.35 0.04c-11.93,3.12 -24.73,4.89 -38.04,5.29 -0.76,0.02 -1.36,0.64 -1.36,1.4l0 22.6c0,0.77 0.63,1.4 1.4,1.4l42.16 0c0.38,0 0.74,-0.15 1.01,-0.43 0.26,-0.27 0.4,-0.65 0.39,-1.02 -0.38,-9.73 -1.67,-19.22 -3.85,-28.21 -0.09,-0.36 -0.32,-0.68 -0.64,-0.87 -0.22,-0.13 -0.46,-0.2 -0.72,-0.2zm29.58 -11.86c-0.24,0 -0.49,0.06 -0.71,0.19 -5.29,3.15 -11.39,5.95 -18.12,8.34 -0.68,0.24 -1.06,0.95 -0.9,1.64 2.38,9.86 3.77,20.31 4.13,31.06 0.02,0.76 0.64,1.36 1.39,1.36l26.99 0c0.38,0 0.76,-0.16 1.02,-0.44 0.26,-0.29 0.4,-0.67 0.37,-1.05 -0.94,-14.3 -5.43,-28.28 -12.98,-40.44 -0.26,-0.43 -0.72,-0.66 -1.19,-0.66zm-67.93 51.34c-0.77,0 -1.4,0.63 -1.4,1.4l0 22.6c0,0.75 0.6,1.37 1.36,1.4 13.31,0.4 26.11,2.18 38.04,5.28l0.35 0.05c0.26,0 0.5,-0.07 0.72,-0.2 0.32,-0.19 0.55,-0.51 0.64,-0.87 2.18,-9 3.47,-18.49 3.85,-28.21 0.01,-0.38 -0.13,-0.75 -0.39,-1.02 -0.27,-0.28 -0.63,-0.43 -1.01,-0.43l-42.16 0zm-53.7 0c-0.38,0 -0.74,0.15 -1.01,0.43 -0.26,0.27 -0.4,0.64 -0.39,1.02 0.37,9.72 1.67,19.21 3.85,28.21 0.09,0.37 0.32,0.68 0.64,0.87 0.22,0.14 0.46,0.2 0.72,0.2l0.35 -0.05c11.94,-3.1 24.74,-4.88 38.04,-5.28 0.76,-0.03 1.36,-0.65 1.36,-1.4l0 -22.6c0,-0.77 -0.63,-1.4 -1.41,-1.4l-42.15 0zm-38.55 0c-0.39,0 -0.76,0.16 -1.02,0.44 -0.26,0.28 -0.4,0.66 -0.38,1.05 0.95,14.29 5.44,28.28 12.98,40.44 0.27,0.42 0.72,0.65 1.19,0.65 0.25,0 0.49,-0.05 0.71,-0.19 5.3,-3.14 11.4,-5.94 18.13,-8.33 0.68,-0.24 1.06,-0.94 0.89,-1.64 -2.37,-9.86 -3.76,-20.32 -4.12,-31.07 -0.03,-0.75 -0.64,-1.35 -1.4,-1.35l-26.98 0zm145.97 0c-0.75,0 -1.37,0.6 -1.39,1.35 -0.36,10.75 -1.75,21.21 -4.13,31.06 -0.16,0.71 0.22,1.41 0.9,1.65 6.72,2.38 12.82,5.19 18.12,8.34 0.22,0.13 0.47,0.2 0.71,0.2 0.47,0 0.93,-0.24 1.19,-0.67 7.55,-12.16 12.04,-26.15 12.98,-40.44 0.03,-0.39 -0.11,-0.77 -0.37,-1.05 -0.26,-0.28 -0.64,-0.44 -1.02,-0.44l-26.99 0zm-7.33 42.42c-0.2,0 -0.41,0.04 -0.61,0.13 -0.33,0.17 -0.59,0.46 -0.71,0.82 -4,11.95 -9.37,22.12 -15.96,30.22 -0.41,0.5 -0.42,1.22 -0.02,1.74 0.27,0.34 0.69,0.54 1.11,0.54 0.19,0 0.39,-0.04 0.58,-0.13 12.13,-5.56 23.02,-13.94 31.49,-24.24 0.26,-0.31 0.37,-0.73 0.3,-1.14 -0.07,-0.39 -0.32,-0.75 -0.67,-0.95 -4.49,-2.6 -9.55,-4.93 -15.03,-6.91l-0.48 -0.08zm-104.32 0.01l-0.48 0.08c-5.53,2 -10.59,4.32 -15.03,6.9 -0.35,0.2 -0.6,0.55 -0.67,0.95 -0.08,0.41 0.03,0.83 0.3,1.14 8.47,10.3 19.36,18.68 31.49,24.24 0.19,0.09 0.38,0.13 0.58,0.13 0.42,0 0.83,-0.2 1.1,-0.54 0.4,-0.52 0.39,-1.24 -0.02,-1.74 -6.58,-8.1 -11.94,-18.26 -15.95,-30.21 -0.12,-0.36 -0.37,-0.65 -0.72,-0.81 -0.19,-0.09 -0.4,-0.14 -0.6,-0.14zm46.34 -8.28c-12.46,0.39 -24.39,2.03 -35.44,4.88 -0.38,0.09 -0.7,0.34 -0.88,0.69 -0.19,0.34 -0.22,0.75 -0.1,1.11 7.91,23.06 21.42,38.82 36.16,42.16l0.3 0.04c0.32,0 0.63,-0.1 0.88,-0.3 0.33,-0.26 0.53,-0.67 0.53,-1.09l0 -46.1c0,-0.37 -0.16,-0.74 -0.43,-1 -0.26,-0.26 -0.61,-0.39 -0.98,-0.39l-0.04 0zm11.59 0c-0.36,0 -0.71,0.13 -0.97,0.39 -0.27,0.26 -0.43,0.63 -0.43,1l0 46.1c0,0.42 0.2,0.83 0.53,1.09 0.25,0.2 0.56,0.3 0.87,0.3l0.31 -0.04c14.73,-3.34 28.25,-19.1 36.16,-42.16 0.12,-0.37 0.09,-0.77 -0.1,-1.12 -0.18,-0.34 -0.5,-0.59 -0.88,-0.69 -11.06,-2.84 -22.99,-4.48 -35.44,-4.87l-0.05 0zm-5.77 58.32c-53.4,0 -96.84,-43.45 -96.84,-96.85 0,-53.4 43.44,-96.83 96.84,-96.83 53.4,0 96.84,43.43 96.84,96.83 0,53.4 -43.44,96.85 -96.84,96.85z"/>
   <g>
    <path class="fil1" d="M1305.8 2009.6c-44.12,-44.12 -104.01,-104.21 -124.85,-178.27 0.02,0 0.02,0 0.04,0.01 20.84,74.05 80.7,134.14 124.81,178.26zm0.14 -124.35c-0.04,0 -0.07,0 -0.11,0 0.04,0 0.07,0 0.11,0zm-0.15 0c-0.02,0 -0.05,0 -0.07,0 0.02,0 0.05,0 0.07,0zm-0.12 0c-0.02,0 -0.04,0 -0.06,0 0.02,0 0.04,0 0.06,0zm-0.11 0c-0.02,0 -0.05,0 -0.07,0 0.02,0 0.04,0 0.07,0zm-0.12 0c-0.02,0 -0.04,0 -0.06,0 0.02,0 0.04,0 0.06,0zm-0.11 0c-0.02,0 -0.05,0 -0.07,0 0.03,0 0.05,0 0.07,0zm1.27 0c0.01,0 0.02,0 0.04,0 -0.02,0 -0.03,0 -0.04,0zm0.06 0c0.05,0 0.1,0 0.15,0 -0.05,0 -0.1,0 -0.15,0zm-1.44 0c-0.04,0 -0.07,0 -0.11,0 0.04,0 0.07,0 0.11,0zm-0.11 0c-0.04,0 -0.08,0 -0.11,0 0.03,0 0.07,0 0.11,0zm1.72 0c0.02,0 0.05,0 0.07,0 -0.02,0 -0.05,0 -0.07,0zm0.1 0c0.02,0 0.03,0 0.05,0 -0.02,0 -0.03,0 -0.05,0zm-1.98 0c-0.02,0 -0.05,0 -0.07,0 0.02,0 0.05,0 0.07,0zm-0.12 0c-0.02,0 -0.04,0 -0.06,0 0.02,0 0.04,0 0.06,0zm2.23 0c0,0 0,0 0.01,0 -0.01,0 -0.01,0 -0.01,0zm0.08 0c0,0 0,0 0.01,0 -0.01,0 -0.01,0 -0.01,0zm-2.42 0c-0.02,0 -0.04,0 -0.06,0 0.02,0 0.04,0 0.06,0zm-0.11 0c-0.03,0 -0.04,-0.01 -0.07,-0.01 0.03,0 0.05,0.01 0.07,0.01zm2.71 0c0,-0.01 0,-0.01 0,-0.01 0,0 0,0 0,0.01zm-2.83 -0.01c-0.02,0 -0.04,0 -0.06,0 0.02,0 0.04,0 0.06,0zm2.91 0c0.01,0 0.01,0 0.01,0l-0.01 0zm0.08 0c0.01,0 0.01,0 0.02,0 -0.01,0 -0.01,0 -0.02,0zm-3.1 0c-0.03,0 -0.06,0 -0.09,0 0.03,0 0.06,0 0.09,0zm3.19 0c0,0 0,0 0.01,0 -0.01,0 -0.01,0 -0.01,0zm-3.3 0c-0.03,0 -0.07,0 -0.11,0 0.04,0 0.07,0 0.11,0zm3.37 0c0.01,0 0.02,0 0.03,0 -0.01,0 -0.02,0 -0.03,0zm0.09 0c0.01,0 0.01,0 0.03,0 -0.02,0 -0.02,0 -0.03,0zm-3.62 0c-0.02,0 -0.04,0 -0.06,0 0.02,0 0.04,0 0.06,0zm3.71 0c0.01,0 0.01,0 0.02,0 -0.01,0 -0.02,0 -0.02,0zm-3.82 0c-0.03,0 -0.04,0 -0.06,0 0.01,0 0.04,0 0.06,0zm3.91 0c0.01,0 0.01,0 0.02,0 -0.01,0 -0.02,0 -0.02,0zm0.08 0c0.01,0 0.02,0 0.02,0 0,0 -0.01,0 -0.02,0zm-4.11 0c-0.02,0 -0.03,0 -0.06,0 0.03,0 0.04,0 0.06,0zm4.2 0c0.01,0 0.01,0 0.02,0 -0.01,0 -0.01,0 -0.02,0zm-4.31 0c-0.02,-0.01 -0.03,-0.01 -0.06,-0.01 0.02,0 0.04,0 0.06,0.01zm4.39 -0.01c0.01,0 0.02,0 0.03,0 -0.01,0 -0.02,0 -0.03,0zm-4.5 0c-0.02,0 -0.04,0 -0.05,0 0.01,0 0.03,0 0.05,0zm4.6 0c0,0 0.01,0 0.01,0 -0.01,0 -0.01,0 -0.01,0zm0.09 0c0,0 0,0 0.01,0 -0.01,0 -0.01,0 -0.01,0zm-4.81 0c-0.01,0 -0.03,0 -0.04,0 0.01,0 0.03,0 0.04,0zm4.89 0c0.01,0 0.01,0 0.01,0 0,0 0,0 -0.01,0zm0.09 -0.01c0,0 0,0 0.01,0 -0.01,0 -0.01,0 -0.01,0zm0.08 0c0.01,0 0.01,0 0.01,0 0,0 0,0 -0.01,0zm-5.34 0c-0.01,0 -0.03,0 -0.04,0 0.01,0 0.03,0 0.04,0zm5.42 0c0.01,0 0.01,0 0.02,0 -0.01,0 -0.01,0 -0.02,0zm-5.53 0c-0.02,0 -0.02,0 -0.04,0 0.02,0 0.02,0 0.04,0zm5.62 0c0.01,0 0.01,0 0.02,0 -0.01,0 -0.01,0 -0.02,0zm-5.73 0c-0.01,0 -0.03,0 -0.05,0 0.02,0 0.04,0 0.05,0zm5.82 0c0.01,0 0.01,0 0.01,0 0,0 0,0 -0.01,0zm0.09 0c0,0 0,0 0.01,0 -0.01,0 -0.01,0 -0.01,0zm-6.02 0c-0.01,0 -0.03,0 -0.04,-0.01 0.01,0.01 0.03,0.01 0.04,0.01zm6.1 -0.01c0,0 0.01,0 0.01,0 0,0 -0.01,0 -0.01,0zm-6.21 0c-0.01,0 -0.03,0 -0.04,0 0.01,0 0.03,0 0.04,0zm6.3 0c0,0 0.01,0 0.01,0 0,0 -0.01,0 -0.01,0zm-6.41 0c-0.01,0 -0.02,0 -0.03,0 0.01,0 0.02,0 0.03,0zm6.49 0c0,0 0.01,0 0.02,0 -0.01,0 -0.02,0 -0.02,0zm0.09 -0.01c0.01,0 0.01,0 0.01,0 0,0 0,0 -0.01,0zm0.08 0c0.01,0 0.01,0 0.02,0 0,0 -0.02,0 -0.02,0zm0.09 0c0.01,0 0.01,0 0.01,0 0,0 0,0 -0.01,0zm-7.06 0c0,0 -0.01,0 -0.01,0 0,0 0.01,0 0.01,0zm7.15 0l0.01 -0.01 -0.01 0.01zm-7.25 -0.01c0,0 -0.01,0 -0.02,0 0.01,0 0.02,0 0.02,0zm7.34 0l0.01 0 -0.01 0zm-7.44 0c-0.01,0 -0.02,0 -0.02,0 0,0 0.01,0 0.02,0zm7.52 0c0.01,0 0.01,0 0.01,0 0,0 0,0 -0.01,0zm-7.63 0c-0.01,0 -0.02,0 -0.02,0 0,0 0.01,0 0.02,0zm7.72 0c0,0 0,0 0.01,0 -0.01,0 -0.01,0 -0.01,0zm0.08 0c0,0 0.01,0 0.01,0 0,0 -0.01,0 -0.01,0zm-7.91 0c0,0 -0.01,0 -0.02,0 0.01,0 0.02,0 0.02,0zm7.99 -0.01c0.01,0 0.02,0 0.02,0 0,0 -0.01,0 -0.02,0zm0.09 -0.01c0.01,0 0.01,0 0.02,0 -0.01,0 -0.01,0 -0.02,0zm0.1 0l-0.1 0 0.1 0zm0.08 0c0,0 0,0 0.01,0l-0.01 0zm0.09 0l-0.09 0 0.09 0zm0.08 0c0,0 0,0 0.01,0l-0.01 0zm0.08 -0.01c0.01,0 0.01,0 0.01,0l-0.01 0zm-9.13 0c-0.01,0 -0.01,0 -0.01,0 0,0 0,0 0.01,0zm-0.11 0l0 0c0,0 0,0 0,0zm9.5 -0.01c0.01,0 0,0 0.01,0l-0.01 0zm0.26 -0.01c0,0 0,0 0,0l0 0zm0.09 0l-0.09 0 0.09 0zm127.35 -107.2c0,-0.01 0,-0.02 0,-0.03 0,0.01 0,0.02 0,0.03zm0 -0.16c0,-0.05 0,-0.1 0,-0.15 0,0.05 0,0.1 0,0.15zm0 -0.17c-0.03,-6.73 -0.56,-13.34 -1.55,-19.79l0 -0.01c0.99,6.46 1.52,13.07 1.55,19.8z"/>
   </g>
   <path class="fil1" d="M1396.57 1720.92c-18.98,-30.03 -52.48,-49.97 -90.63,-49.97 -28.86,0 -55.06,11.41 -74.32,29.97 -2.06,2.19 -4.04,4.46 -5.94,6.8 -6.84,7.81 -12.57,16.62 -16.9,26.19 -0.74,1.64 -1.47,3.27 -2.08,4.96 -1.44,3.32 -2.76,6.71 -3.92,10.17 -2.6,9.24 -3.99,18.98 -3.99,29.06 0,4.45 0.27,8.83 0.8,13.14 -7.94,-0.42 -15.84,-1.18 -23.67,-2.29l-0.01 0 -0.33 -0.05 -0.07 -0.01 -0.26 -0.04 -0.14 -0.02 -0.19 -0.02 -0.21 -0.03 -0.13 -0.02 -0.27 -0.04 -0.06 -0.01 -0.33 -0.05 0.33 0.05 0.06 0.01 0.27 0.04 0.13 0.02 0.21 0.03 0.19 0.02 0.14 0.02 0.26 0.04 0.07 0.01 0.33 0.05 0.01 0c3.72,0.52 7.46,0.97 11.21,1.33 -4.28,-0.43 -8.54,-0.96 -12.76,-1.59 -0.06,0 -0.12,0 -0.19,0 -0.18,-3.48 -0.3,-7.01 -0.3,-10.53 0,-73.22 59.36,-132.53 132.51,-132.53 0.06,0 0.12,0 0.18,0 0,0 0,0 0.06,0 0,0 0.06,0 0.06,0 0.07,0 0.07,0 0.07,0 0.06,0 0.12,0 0.18,0 0,0 0,0 0,0 0.06,0 0.12,0 0.12,0 0.06,0 0.06,0 0.06,0 0.06,0 0.06,0 0.12,0 0,0 0.06,0 0.06,0 0.07,0 0.07,0 0.13,0 0,0 0,0 0,0 0.05,0 0.12,0 0.18,0 0,0 0,0 0.06,0 0,0 0.06,0 0.12,0 0,0 0,0 0,0 0.06,0.04 0.12,0.04 0.18,0.04 0,0 0,0 0,0 0.06,0 0.12,0 0.19,0 0,0 0,0 0,0 0.06,0 0.12,0 0.12,0 0.06,0 0.06,0 0.06,0 0.06,0 0.12,0 0.12,0 0,0 0,0 0.06,0 0,0 0.06,0 0.12,0l0 0c0.06,0 0.13,0 0.19,0 0,0 0,0 0,0 0.18,0 0.36,0 0.55,0 0,0 0,0 0,0 3.01,0.07 5.99,0.22 8.94,0.5l-1.04 -0.09 -0.28 -0.03c-0.58,-0.05 -1.17,-0.09 -1.75,-0.13l-0.49 -0.04c-0.57,-0.03 -1.15,-0.07 -1.72,-0.1l-0.04 0c-0.6,-0.03 -1.2,-0.06 -1.8,-0.08l-0.48 -0.02c-0.61,-0.02 -1.21,-0.04 -1.81,-0.05 0.6,0.01 1.2,0.03 1.81,0.05l0.48 0.02c0.6,0.02 1.2,0.05 1.8,0.08l0.04 0c0.57,0.03 1.15,0.07 1.72,0.1l0.49 0.04c0.58,0.04 1.17,0.08 1.75,0.13l0.28 0.03 1.04 0.09 0.03 0 0.05 0 0.02 0.01 0.03 0 0.02 0 0.03 0.01 0.02 0 0.03 0 0.02 0 0.03 0 0.02 0 0.03 0.01 0.02 0.01 0.01 0 0.02 0 0.02 0 0.03 0 0.02 0 0.03 0 0.02 0 0.03 0.01 0.02 0 0.36 0.04 0.03 0 0.03 0 0.03 0 0.02 0 0.03 0c38.04,3.72 73.57,24.84 95.45,56.31 -5.78,6.39 -11.87,12.52 -18.25,18.35z"/>
   <path class="fil1" d="M1251.32 1843.2c-7.79,0 -15.58,-0.43 -23.37,-1.27 -2.99,-0.34 -5.97,-0.73 -8.94,-1.18 0,-0.01 -0.01,-0.01 -0.01,-0.02 -12.94,-1.97 -25.63,-5.11 -38.02,-9.41 0,0.01 0,0.01 0.01,0.02 -0.02,-0.01 -0.02,-0.01 -0.04,-0.01 -13.11,-4.55 -25.89,-10.39 -38.27,-17.5 14.18,3.9 28.74,6.7 43.63,8.33 8.01,0.88 16.06,1.31 24.16,1.31 93.79,0 192.86,-57.13 263.19,-131.27l-1.82 -1.52 -51.6 -30.12 1.8 -2.16c2.13,-2.54 5.26,-3.98 8.53,-3.98 0.49,0 0.99,0.03 1.49,0.1l52.35 7.1c0.86,0.11 1.72,0.17 2.58,0.17 5.66,0 11.09,-2.5 14.77,-6.9l9.01 -10.79c9.79,-11.7 16.41,-14.06 20.15,-14.06 2.52,0 3.73,1.07 3.73,1.07 0,0 7.82,6.22 -8.56,25.8l-9.01 10.79c-4.24,5.07 -5.58,11.97 -3.55,18.27l16.26 50.26c1.18,3.63 0.4,7.61 -2.04,10.54l-1.81 2.16 -38.78 -45.44c-12.27,16.83 -31.02,36.52 -50.26,54.32l0 0.01c0,-0.01 0,-0.01 0,-0.01 -8,7.4 -16.07,14.46 -23.81,20.88l0 0c0,0 0,0 0,0 -8.26,6.84 -16.11,12.92 -23.05,17.83 -43.52,30.77 -91.03,46.68 -138.72,46.68z"/>
   <path class="fil1" d="M1246.58 1946.57l0.07 0c-8.05,-9.58 -15.9,-19.68 -23.28,-30.12l-6.92 -10.18 -0.41 -0.59 0.01 0.01 -0.01 -0.02c5.79,2.48 11.89,4.58 18.07,6.31 -6.16,-1.7 -12.16,-3.78 -17.97,-6.25 -4.44,-6.78 -8.69,-13.72 -12.66,-20.83 -3.99,-7.21 -7.65,-14.54 -11.05,-22.1 -4.51,-10.15 -8.44,-20.64 -11.45,-31.43 12.43,4.27 25.12,7.38 38,9.4 3.47,4.79 7.39,9.23 11.51,13.38 7.52,7.44 16.03,13.79 25.51,18.75 13.61,7.21 28.97,11.54 45.26,12.23l0 0c0,0 0.06,0 0.06,0 0,0 0,0 0,0 0.26,0.06 0.46,0.06 0.66,0.06 0,0 0,0 0,0 0,0 0.06,0 0.06,0 0,0 0.07,0 0.07,0 0,0 0.07,0 0.07,0 0,0 0,0 0,0 0.06,0 0.06,0 0.12,0 0,0 0,0 0,0 0,0 0.07,0 0.07,0 0,0 0,0 0,0 0.13,0 0.2,0 0.33,0 0,0 0,0 0,0 0.06,0 0.06,0 0.06,0 0,0 0.07,0 0.07,0 0,0 0.06,0 0.06,0 0,0 0,0 0.07,0 0,0 0,0 0.06,0 0,0 0,0 0,0 0.07,0 0.07,0 0.07,0.05 0.07,0 0.07,0 0.07,0 0,0 0.06,0 0.06,0 0,0 0,0 0.07,0 0.06,0 0.13,0 0.19,0 0.07,0 0.07,0 0.07,0 0,0 0.06,0 0.06,0 0,0 0,0 0.07,0 0,0 0,0 0.06,0 0,0 0,0 0,0 0.07,0 0.07,0 0.07,0 0.07,0 0.07,0 0.07,0 0,0 0.06,0 0.06,0 0,0 0.06,0 0.06,0 0,0 0,0 0.07,0 0,0 0,0 0.07,0 0,0 0,0 0,0 0.06,0 0.13,0 0.13,0 0,0 0,0 0,0 0.06,0 0.06,0 0.13,0 0,0 0,0 0,0 0.06,0 0.06,0 0.06,0 0.07,0 0.07,0 0.07,0 0.07,0 0.07,0 0.07,0 0,0 0.06,0 0.06,0 0,0 0.06,0 0.06,0 0,0 0,0 0.07,0 0,0 0,0 0.07,0 0,0 0,0 0,0 0.06,0 0.06,0 0.06,0 0.07,0 0.07,0 0.07,0 0.06,0 0.06,0 0.13,0 0,0 0,0 0,0 0,0 0.06,0 0.13,0 0,0 0,0 0,0 0.06,0 0.06,0 0.06,0 0,0 0.07,0 0.07,0 0,0 0.06,0 0.06,0 0,0 0,0 0.07,0 0,0 0,0 0.07,0 0,0 0,0 0,0 0.06,0 0.06,0 0.06,0 0.06,0 0.06,0 0.06,0 0.07,0 0.07,0 0.07,0 0.07,0 0.07,0 0.07,0 0,0 0.06,0 0.13,0l0 0c0.19,0 0.39,0 0.65,0 0,0 0,0 0,0 0,0 0,0 0.07,0 0,0 0.06,0 0.13,0 0,0 0,0 0,0 0.06,0 0.06,0 0.06,0 0,0 0.07,0 0.07,0 0,0 0,0 0,0 0.06,0 0.06,0 0.13,0 0,0 0,0 0,0 0,0 0,0 0.06,0 0,0 0,0 0,0 0.07,0 0.14,0 0.2,0 0,0 0,0 0,0 0,0 0.06,0 0.06,0l0 0c0,0 0.07,0 0.07,0 0,0 0,0 0,0 0.07,0 0.07,0 0.07,0 0.06,0 0.06,0 0.06,0 0,0 0,0 0.07,0 0,0 0,0 0,0 0,0 0.07,0 0.07,0 0,0 0,0 0,0 0.06,0 0.06,0 0.06,0 0,0 0.06,0 0.06,0 0,0 0,0 0.07,0 0,0 0,0 0,0 0,0 0.07,0 0.07,0 0,0 0,0 0,0 0.06,0 0.06,0 0.06,0 0,0 0.07,0 0.07,0 0,0 0,0 0.06,0 0,0 0,0 0,0 0,0 0.07,0 0.07,0 0,0 0,0 0,0 0.06,0 0.06,0 0.06,0 0,0 0,0 0.07,0 0,0 0,0 0.06,0 0,0 0,0 0,0 0,0 0.07,0 0.07,0 0,0 0,0 0,0 0.06,0 0.06,0 0.06,0 0,0 0,0 0,0 0.07,0 0.07,0 0.07,0 0.07,0 0.07,0 0.07,0 0,0 0.06,0 0.06,0 0,0 0,0 0,0 0,-0.05 0.06,-0.05 0.06,-0.05 0,0 0,0 0,0 0.07,0 0.07,0 0.14,0 0,0 0,0 0,0 0,0 0,0 0.06,0 0,0 0,0 0,0 0,0 0.07,0 0.07,0 0,0 0,0 0,0 0.06,0 0.06,0 0.06,0 0,0 0.07,0 0.07,0 0,0 0,0 0.06,0 0,0 0,0 0,0 0,0 0.07,0 0.07,0 0,0 0,0 0,0 0.07,0 0.07,0 0.07,0 0,0 0.06,0 0.06,0 0,0 0,0 0.06,0l0 0c0,0 0.07,0 0.07,0l0 0c0.07,0 0.07,0 0.07,0 0,0 0,0 0.06,0 0,0 0,0 0.07,0 0,0 0,0 0,0 0,0 0.06,0 0.06,0 0,0 0,0 0,0 0.07,0 0.07,0 0.07,0 0,0 0,0 0,0 0.06,0 0.06,0 0.13,0 0,0 0,0 0,0 0,0 0.06,0 0.06,0l0 0c0,0 0.07,0 0.07,0l0 0c0.06,0 0.06,0 0.13,0l0 0c0,0 0.07,0 0.07,0l0 0c0,0 0.06,0 0.06,0l0 0c0.13,-0.06 0.2,-0.06 0.26,-0.06l0 0c0.07,0 0.2,0 0.26,0l0 0c0.07,0 0.07,0 0.07,0l0 0c32.9,-1.56 61.93,-17.94 80.51,-42.63 6.41,-8.59 11.58,-17.99 15.24,-28.27l1.76 -5.36 -1.37 5.25c-2.68,9.58 -6.34,18.69 -10.86,27.29 -4.72,8.97 -10.36,17.39 -16.8,25.12 7.41,-8.86 13.79,-18.58 18.84,-29.06 4.34,-9 7.85,-18.6 10.22,-28.62l2.3 -9.01c1.4,-6.85 2.1,-13.92 2.17,-21.12 7.72,-6.43 15.83,-13.49 23.81,-20.92 1.03,6.49 1.54,13.05 1.54,19.83 0,0 0,0 0,0 0,0.07 0,0.07 0,0.14 0,0.08 0,0.08 0,0.15 0,0 0,0 0,0 0,0.07 0,0.14 0,0.21l0 0c0,5.27 -0.19,10.46 -0.64,15.58 -1.02,12.48 -3.33,24.58 -6.52,36.41 -2.68,9.73 -6.06,19.25 -9.95,28.56 -3.14,7.49 -6.71,14.84 -10.54,22.05 -7.22,13.49 -15.52,26.39 -24.39,38.73 -25.22,35.04 -55.36,65.25 -80.45,90.27l0 0 0 0c-17.37,-17.38 -37.23,-37.21 -56.12,-59.42 -7.67,-9.01 -15.2,-18.53 -22.35,-28.26l-10.07 -14.41c1.98,2.96 3.99,5.9 6.03,8.81 7.39,10.44 15.11,20.54 23.15,30.12z"/>
  </g>
 </g>
</svg>
