<?xml version="1.0" encoding="UTF-8"?>
<!DOCTYPE svg PUBLIC "-//W3C//DTD SVG 1.1//EN" "http://www.w3.org/Graphics/SVG/1.1/DTD/svg11.dtd">
<!-- Creator: CorelDRAW 2021 (64-Bit) -->
<svg xmlns="http://www.w3.org/2000/svg" xml:space="preserve" width="33.867mm" height="33.867mm" version="1.1" style="shape-rendering:geometricPrecision; text-rendering:geometricPrecision; image-rendering:optimizeQuality; fill-rule:evenodd; clip-rule:evenodd"
viewBox="0 0 3386.7 3386.7"
 xmlns:xlink="http://www.w3.org/1999/xlink"
 xmlns:xodm="http://www.corel.com/coreldraw/odm/2003">
 <defs>
  <style type="text/css">
   <![CDATA[
    .str0 {stroke:black;stroke-width:20;stroke-linecap:round;stroke-linejoin:round;stroke-miterlimit:22.9256}
    .fil1 {fill:#D7B56D}
    .fil0 {fill:black}
    .fil2 {fill:#D7B56D;fill-rule:nonzero}
   ]]>
  </style>
 </defs>
 <g id="Layer_x0020_1">
  <metadata id="CorelCorpID_0Corel-Layer"/>
  <ellipse class="fil0 str0" cx="1693.35" cy="1693.35" rx="1641.67" ry="1611.82"/>
  <g id="_2062830574336">
   <path class="fil1" d="M899.18 2325.92c-4.17,44.79 -50.5,62.04 -42.15,-17.53 10.91,-168.44 -70.43,-228.11 -75.75,-390.36 -7.93,-241.8 46.92,-368.51 115.82,-477.74 -1.09,-131.85 -3.78,-239.68 -4.94,-370.52 -0.46,-57.08 43.94,-65.63 45.28,-5.43 2.46,110.65 -6.85,230.87 -3.62,340.9 119.31,-52.67 329.31,-113.13 313.48,103.59 -1.35,18.5 -3.55,32.33 -9.73,49.98 -26.73,76.29 -102.33,155.7 -183.55,155.27 -26.36,-4.17 -45.99,-15.39 -53.87,-38.95 -6.64,-19.88 -5.44,-43.23 5.29,-61.38 20.31,-34.39 60.62,-33.38 51.71,-2.45 -5.09,17.68 -14.99,24.17 -9.73,47.28 12.74,55.88 132.95,0.5 164.36,-122.3 36.55,-154.26 -152.29,-172.2 -250.62,-93.52 -25.6,20.5 -27.21,21.87 -27.78,52.21 -5.34,285.58 -21.47,573.88 -34.2,830.95zm-50.62 -275.92c-63.9,-130.63 -35.28,-386.52 24.56,-495.61 16.58,-30.25 18.62,-35.99 17.37,-1 -5.86,163.53 -11.72,327.06 -17.58,490.59 -1.52,42.62 0.74,57.34 -24.35,6.02z"/>
   <path class="fil1" d="M1338.13 1662.02c1.91,-87.6 3.81,-175.2 5.72,-262.79 0,-44.52 39.65,-35.2 40.06,-8.35 -1.07,88.71 -2.15,177.42 -3.23,266.12 -0.64,55.11 -43.55,51.98 -42.55,5.02z"/>
   <path class="fil1" d="M1363.04 1296.56c11.99,0 21.7,9.72 21.7,21.7 0,11.99 -9.71,21.7 -21.7,21.7 -11.99,0 -21.7,-9.71 -21.7,-21.7 0,-11.98 9.71,-21.7 21.7,-21.7z"/>
   <path class="fil1" d="M1479.18 1668.68c1.28,-82.58 1.93,-165.16 -10.64,-247.74 -5.78,-37.88 36.17,-39.87 42.25,-13.78 0.09,0.83 0.19,1.67 0.29,2.5 3.52,30.33 7.04,60.66 10.56,90.99 3.15,14.41 12.3,13.01 24.98,3.24 6.33,-4.89 10.49,-10.2 15.89,-16 156.63,-168.36 308.15,-67.03 425.74,111.26 27.76,46.19 59.55,46.67 59.73,14.99 0.06,-11.1 -3.27,-22.55 -3.42,-35.07 -2.49,-201.95 268.55,-318.35 315.59,-167.26 12.93,41.56 -10.63,83.04 -30.35,36.77 -4.99,-11.71 -6.92,-19.21 -14.36,-30.6 -63.69,-97.38 -209.7,-13.76 -219.52,127.74 -6.23,149.34 158.14,161.19 228.64,16.67 7.52,-15.42 9.67,-25.3 23.78,-37.23 18.34,-15.52 34.32,-8.21 36.39,12.22 5.07,123.61 66.06,183.42 177.15,105.96 4.22,-2.94 8.37,-6.33 12.95,-8.65 19.68,-9.97 25.06,9.59 9.02,26.66 -3.68,3.9 -7.59,6.44 -11.97,9.45 -116.44,79.84 -187.07,44.98 -214.77,-31.57 -2.79,-7.71 -3.47,-14.04 -8.77,-20.5 -7.3,-8.89 -14.4,-7.83 -21.37,-1.97 -5.45,4.58 -8.36,9.92 -12.4,15.64 -84.25,119.07 -214.77,131.38 -320.51,43.28 -33.25,-27.71 -46.31,-49.45 -70.45,-83.01 -74.65,-103.79 -158.93,-166.65 -266.45,-130.76 -16.21,5.41 -21.53,8.55 -34.99,18.57 -27.8,20.7 -51.97,41.04 -69.59,60.72 -24.28,27.11 -27.13,35.37 -29.05,69.36 -1.08,19.17 -2.17,38.34 -3.25,57.5 -2.12,37.56 -41.72,43.66 -41.1,0.62z"/>
   <path class="fil2" d="M1089.54 1971.81l7.28 -22.67 1.92 0.69c0,1.77 0.56,3.18 1.64,4.22 1.57,1.51 4.35,2.9 8.32,4.14 3.99,1.24 7.73,1.84 11.24,1.84 5.28,0 9.17,-1.18 11.73,-3.53 2.55,-2.38 3.81,-6.04 3.81,-10.97l0 -46.87c0,-1.55 -0.35,-2.71 -1.03,-3.49 -0.69,-0.79 -1.9,-1.47 -3.67,-2l0 -2.12 29.26 0 0 2.12c-1.76,0.51 -2.98,1.14 -3.66,1.97 -0.68,0.81 -1.04,1.97 -1.04,3.52l0 47.3c0,9.1 -1.54,15.59 -4.6,19.56 -2.5,3.26 -6.24,5.79 -11.16,7.58 -4.93,1.79 -10.54,2.71 -16.81,2.71 -6.9,0 -15.44,-1.62 -25.6,-4.88 -0.93,-0.3 -1.72,-0.46 -2.3,-0.46 -1.13,0 -2.25,0.64 -3.33,1.92l-2 -0.58zm187.36 -33.15l0 20.32 52.45 0c1.52,0 2.71,-0.33 3.52,-1.02 0.81,-0.68 1.46,-1.89 1.94,-3.68l2.13 0 0 24.41 -2.13 0c-0.45,-1.72 -1.08,-2.94 -1.92,-3.64 -0.83,-0.71 -2.02,-1.06 -3.54,-1.06l-77.02 0 0 -2.13c1.72,-0.45 2.93,-1.08 3.64,-1.92 0.71,-0.83 1.06,-2.02 1.06,-3.56l0 -67.72c0,-1.55 -0.35,-2.71 -1.03,-3.49 -0.69,-0.79 -1.9,-1.47 -3.67,-2l0 -2.12 74.83 0c1.56,0 2.75,-0.36 3.56,-1.04 0.83,-0.68 1.49,-1.89 1.97,-3.66l1.97 0 0 24.41 -1.97 0c-0.48,-1.79 -1.14,-3.01 -1.94,-3.69 -0.84,-0.68 -2.03,-1.01 -3.59,-1.01l-50.26 0 0 18.19 31.15 0c1.52,0 2.71,-0.35 3.52,-1.03 0.8,-0.69 1.49,-1.9 2.02,-3.67l1.97 0 0 23.81 -1.97 0c-0.48,-1.75 -1.14,-2.96 -1.95,-3.67 -0.83,-0.68 -2.02,-1.03 -3.59,-1.03l-31.15 0zm219.34 -22.24l-18.14 45.08c-0.91,2.23 -1.34,4.05 -1.34,5.48 0,2.76 1.62,4.45 4.87,5.03l0 1.98 -30.9 0 0 -1.98c2.95,-0.73 4.44,-2.42 4.44,-5.03 0,-1.33 -0.45,-3.15 -1.33,-5.48l-21.94 -56.55c-1.69,-4.35 -3.11,-7.25 -4.27,-8.7 -1.16,-1.46 -2.9,-2.5 -5.23,-3.08l0 -2.12 31.59 0 0 2.12c-3.06,0.99 -4.6,2.55 -4.6,4.68 0,1.03 0.51,2.8 1.49,5.33l15.57 39.14 15.49 -38.87c0.93,-2.32 1.41,-4.09 1.41,-5.33 0,-2.45 -1.67,-4.12 -4.97,-4.95l0 -2.12 36.86 0 0 2.12c-3.18,1.04 -4.8,2.76 -4.8,5.18 0,1.09 0.43,2.71 1.27,4.83l15.08 39.14 15.06 -39.52c0.66,-1.74 0.99,-3.24 0.99,-4.52 0,-1.4 -0.36,-2.45 -1.04,-3.19 -0.71,-0.73 -1.97,-1.39 -3.79,-1.92l0 -2.12 32.37 0 0 2.12c-2.42,0.88 -4.19,2.02 -5.3,3.36 -1.11,1.37 -2.5,4.17 -4.17,8.42l-22.27 56.55c-0.78,2.02 -1.16,3.79 -1.16,5.33 0,2.86 1.67,4.6 5.03,5.18l0 1.98 -32.14 0 0 -1.98c3.16,-0.88 4.75,-2.68 4.75,-5.4 0,-0.68 -0.56,-2.4 -1.65,-5.11l-17.23 -45.08zm185.97 22.24l0 20.32 52.45 0c1.52,0 2.71,-0.33 3.52,-1.02 0.81,-0.68 1.46,-1.89 1.94,-3.68l2.13 0 0 24.41 -2.13 0c-0.45,-1.72 -1.08,-2.94 -1.92,-3.64 -0.83,-0.71 -2.02,-1.06 -3.54,-1.06l-77.02 0 0 -2.13c1.72,-0.45 2.93,-1.08 3.64,-1.92 0.71,-0.83 1.06,-2.02 1.06,-3.56l0 -67.72c0,-1.55 -0.35,-2.71 -1.03,-3.49 -0.69,-0.79 -1.9,-1.47 -3.67,-2l0 -2.12 74.83 0c1.56,0 2.75,-0.36 3.56,-1.04 0.83,-0.68 1.49,-1.89 1.97,-3.66l1.97 0 0 24.41 -1.97 0c-0.48,-1.79 -1.14,-3.01 -1.94,-3.69 -0.84,-0.68 -2.03,-1.01 -3.59,-1.01l-50.26 0 0 18.19 31.15 0c1.52,0 2.71,-0.35 3.52,-1.03 0.8,-0.69 1.49,-1.9 2.02,-3.67l1.97 0 0 23.81 -1.97 0c-0.48,-1.75 -1.14,-2.96 -1.95,-3.67 -0.83,-0.68 -2.02,-1.03 -3.59,-1.03l-31.15 0zm176.48 20.32l46.45 0c1.59,0 2.78,-0.33 3.56,-1.02 0.79,-0.68 1.47,-1.89 2,-3.68l1.97 0 0 24.41 -1.97 0c-0.51,-1.77 -1.14,-2.99 -1.97,-3.67 -0.81,-0.68 -2,-1.03 -3.59,-1.03l-71.01 0 0 -2.13c1.72,-0.45 2.93,-1.08 3.64,-1.92 0.71,-0.83 1.06,-2.02 1.06,-3.56l0 -67.72c0,-1.55 -0.35,-2.71 -1.04,-3.49 -0.68,-0.79 -1.89,-1.47 -3.66,-2l0 -2.12 29.26 0 0 2.12c-1.77,0.48 -2.98,1.14 -3.66,1.97 -0.68,0.81 -1.04,1.97 -1.04,3.52l0 60.32zm166.25 0l46.45 0c1.59,0 2.78,-0.33 3.56,-1.02 0.79,-0.68 1.47,-1.89 2,-3.68l1.97 0 0 24.41 -1.97 0c-0.51,-1.77 -1.14,-2.99 -1.97,-3.67 -0.81,-0.68 -2,-1.03 -3.59,-1.03l-71.01 0 0 -2.13c1.72,-0.45 2.94,-1.08 3.64,-1.92 0.71,-0.83 1.06,-2.02 1.06,-3.56l0 -67.72c0,-1.55 -0.35,-2.71 -1.03,-3.49 -0.69,-0.79 -1.9,-1.47 -3.67,-2l0 -2.12 29.26 0 0 2.12c-1.76,0.48 -2.98,1.14 -3.66,1.97 -0.68,0.81 -1.04,1.97 -1.04,3.52l0 60.32zm166.26 -20.32l0 20.32 52.46 0c1.52,0 2.7,-0.33 3.51,-1.02 0.81,-0.68 1.47,-1.89 1.95,-3.68l2.12 0 0 24.41 -2.12 0c-0.46,-1.72 -1.09,-2.94 -1.92,-3.64 -0.84,-0.71 -2.02,-1.06 -3.54,-1.06l-77.03 0 0 -2.13c1.72,-0.45 2.94,-1.08 3.64,-1.92 0.71,-0.83 1.06,-2.02 1.06,-3.56l0 -67.72c0,-1.55 -0.35,-2.71 -1.03,-3.49 -0.68,-0.79 -1.89,-1.47 -3.67,-2l0 -2.12 74.83 0c1.57,0 2.76,-0.36 3.56,-1.04 0.84,-0.68 1.49,-1.89 1.97,-3.66l1.97 0 0 24.41 -1.97 0c-0.48,-1.79 -1.13,-3.01 -1.94,-3.69 -0.83,-0.68 -2.02,-1.01 -3.59,-1.01l-50.26 0 0 18.19 31.16 0c1.51,0 2.7,-0.35 3.51,-1.03 0.81,-0.69 1.49,-1.9 2.02,-3.67l1.97 0 0 23.81 -1.97 0c-0.48,-1.75 -1.14,-2.96 -1.95,-3.67 -0.83,-0.68 -2.02,-1.03 -3.58,-1.03l-31.16 0zm176.49 1.21l0 26.46c0,1.51 0.35,2.68 1.03,3.51 0.69,0.81 1.9,1.49 3.67,2.02l0 2.13 -29.27 0 0 -2.13c1.72,-0.45 2.93,-1.08 3.64,-1.92 0.71,-0.83 1.06,-2.02 1.06,-3.56l0 -67.72c0,-1.55 -0.35,-2.71 -1.03,-3.49 -0.68,-0.79 -1.9,-1.47 -3.67,-2l0 -2.12 54.41 0c7.05,0 12.43,0.35 16.15,1.06 3.71,0.73 7.02,2.02 9.93,3.89 5.99,3.89 8.97,10.26 8.97,19.08 0,6.7 -1.84,11.93 -5.54,15.72 -3.66,3.76 -9.62,6.49 -17.84,8.16l15.8 21.89c2.88,4.04 5.18,6.79 6.9,8.23 1.69,1.47 3.66,2.38 5.84,2.78l0 2.13 -34.96 0 0 -2.13c2.58,-0.68 3.87,-1.79 3.87,-3.33 0,-1.07 -0.78,-2.73 -2.37,-4.93l-16.66 -23.73 -19.93 0zm0 -15.01l30.01 0c4.55,0 7.94,-0.51 10.12,-1.49 3.05,-1.31 4.59,-3.97 4.59,-7.91 0,-3.51 -1.08,-5.94 -3.23,-7.33 -2.15,-1.39 -5.99,-2.07 -11.48,-2.07l-30.01 0 0 18.8zm236.98 -26.33l-10.01 19.33 -1.77 -0.96c0,-1.62 -0.53,-2.91 -1.56,-3.84 -2.81,-2.53 -6.98,-4.6 -12.46,-6.22 -5.48,-1.64 -11.04,-2.45 -16.68,-2.45 -4.78,0 -9.05,0.66 -12.73,2 -5.34,1.92 -8.02,4.72 -8.02,8.39 0,2.4 1.29,4.12 3.85,5.13 2.57,1.01 7.53,1.82 14.9,2.42l11.71 0.89c10.2,0.78 17.99,2.75 23.32,5.91 2.96,1.79 5.41,4.17 7.33,7.13 2.42,3.69 3.64,7.86 3.64,12.5 0,8.44 -3.79,15.12 -11.4,20.02 -7.28,4.68 -17.08,7.03 -29.49,7.03 -12.48,0 -24.56,-2.64 -36.21,-7.91 -0.79,-0.36 -1.47,-0.54 -2,-0.54 -0.98,0 -1.89,0.61 -2.75,1.8l-1.85 -0.76 8.52 -20.27 1.84 0.74c0,0.3 0,0.5 0,0.6 0,1.29 0.51,2.35 1.49,3.26 2.48,2.18 6.75,4.05 12.81,5.66 6.07,1.6 12.09,2.4 18,2.4 5.23,0 9.93,-0.68 14.07,-2.07 5.13,-1.69 7.71,-4.4 7.71,-8.16 0,-3.03 -1.77,-5.13 -5.33,-6.32 -2.38,-0.78 -6.65,-1.46 -12.84,-1.99l-11.62 -0.96c-6.27,-0.51 -11.07,-1.14 -14.38,-1.95 -3.31,-0.78 -6.19,-1.95 -8.67,-3.46 -3.16,-2 -5.64,-4.68 -7.4,-8.09 -1.8,-3.41 -2.68,-7.15 -2.68,-11.19 0,-9.1 3.91,-16.05 11.72,-20.85 7.1,-4.35 15.9,-6.52 26.39,-6.52 5.68,0 10.99,0.63 15.89,1.9 4.93,1.26 10.79,3.48 17.61,6.64 2.03,0.94 3.44,1.42 4.23,1.42 0.8,0 1.81,-0.53 3.05,-1.65l1.77 0.99z"/>
  </g>
 </g>
</svg>
