<?xml version="1.0" encoding="UTF-8"?>
<!DOCTYPE svg PUBLIC "-//W3C//DTD SVG 1.1//EN" "http://www.w3.org/Graphics/SVG/1.1/DTD/svg11.dtd">
<!-- Creator: CorelDRAW 2021 (64-Bit) -->
<svg xmlns="http://www.w3.org/2000/svg" xml:space="preserve" width="33.8666mm" height="33.8666mm" version="1.1" style="shape-rendering:geometricPrecision; text-rendering:geometricPrecision; image-rendering:optimizeQuality; fill-rule:evenodd; clip-rule:evenodd"
viewBox="0 0 3386.66 3386.66"
 xmlns:xlink="http://www.w3.org/1999/xlink"
 xmlns:xodm="http://www.corel.com/coreldraw/odm/2003">
 <defs>
  <style type="text/css">
   <![CDATA[
    .str0 {stroke:#282626;stroke-width:10;stroke-linecap:round;stroke-linejoin:round;stroke-miterlimit:22.9256}
    .fil2 {fill:#196E42}
    .fil3 {fill:#FDFDFD}
    .fil0 {fill:white}
    .fil1 {fill:black;fill-rule:nonzero}
    .fil4 {fill:#196E42;fill-rule:nonzero}
   ]]>
  </style>
 </defs>
 <g id="Layer_x0020_1">
  <metadata id="CorelCorpID_0Corel-Layer"/>
  <ellipse class="fil0" cx="1693.33" cy="1693.33" rx="1641.67" ry="1611.82"/>
  <g id="_2060282932240">
   <path class="fil1 str0" d="M629.45 2045.57l23.03 4.5c-4.81,14.58 -13.46,25.67 -25.94,33.32 -12.48,7.66 -27.75,11.5 -45.81,11.5 -18.66,0 -33.85,-2.94 -45.56,-8.84 -11.72,-5.87 -20.61,-14.4 -26.71,-25.55 -6.09,-11.18 -9.17,-23.14 -9.17,-35.95 0,-13.96 3.44,-26.14 10.35,-36.54 6.9,-10.4 16.72,-18.3 29.45,-23.71 12.72,-5.4 26.74,-8.08 42.01,-8.08 17.37,0 31.95,3.4 43.75,10.24 11.83,6.84 20.07,16.43 24.72,28.8l-22.54 4.12c-4,-9.75 -9.86,-16.87 -17.5,-21.3 -7.63,-4.47 -17.24,-6.69 -28.84,-6.69 -13.29,0 -24.44,2.47 -33.37,7.41 -8.92,4.93 -15.22,11.58 -18.82,19.89 -3.63,8.34 -5.45,16.93 -5.45,25.77 0,11.4 2.14,21.36 6.42,29.86 4.28,8.52 10.95,14.86 20,19.08 9.05,4.21 18.82,6.31 29.36,6.31 12.85,0 23.68,-2.88 32.56,-8.59 8.89,-5.75 14.91,-14.24 18.06,-25.55zm111.73 -18.24c0,-22.24 7.76,-39.66 23.23,-52.25 15.48,-12.59 35.43,-18.86 59.91,-18.86 16.04,0 30.46,2.96 43.34,8.86 12.85,5.91 22.67,14.15 29.41,24.74 6.75,10.56 10.14,22.55 10.14,35.95 0,13.59 -3.55,25.77 -10.66,36.48 -7.11,10.74 -17.17,18.86 -30.18,24.36 -13.05,5.53 -27.11,8.28 -42.17,8.28 -16.36,0 -30.95,-3.06 -43.83,-9.15 -12.85,-6.1 -22.62,-14.4 -29.25,-24.96 -6.62,-10.52 -9.94,-21.67 -9.94,-33.45zm23.76 0.31c0,16.15 5.61,28.86 16.84,38.14 11.23,9.27 25.33,13.93 42.3,13.93 17.29,0 31.46,-4.69 42.65,-14.06 11.15,-9.37 16.73,-22.67 16.73,-39.91 0,-10.9 -2.39,-20.43 -7.15,-28.55 -4.77,-8.12 -11.76,-14.43 -20.93,-18.89 -9.21,-4.47 -19.51,-6.72 -30.94,-6.72 -16.24,0 -30.22,4.31 -41.93,12.93 -11.72,8.62 -17.57,22.99 -17.57,43.13zm238.65 65l0 -134.18 34.42 0 41.05 94.98c3.79,8.84 6.54,15.46 8.27,19.86 1.99,-4.87 5.09,-12.05 9.29,-21.51l41.78 -93.33 30.74 0 0 134.18 -22.06 0 0 -112.25 -50.65 112.25 -20.69 0 -50.09 -114.31 0 114.31 -22.06 0zm269.24 0l0 -134.18 34.42 0 41.04 94.98c3.8,8.84 6.54,15.46 8.28,19.86 1.98,-4.87 5.09,-12.05 9.29,-21.51l41.77 -93.33 30.75 0 0 134.18 -22.06 0 0 -112.25 -50.66 112.25 -20.68 0 -50.09 -114.31 0 114.31 -22.06 0zm262.7 -65.31c0,-22.24 7.75,-39.66 23.22,-52.25 15.48,-12.59 35.43,-18.86 59.91,-18.86 16.04,0 30.46,2.96 43.35,8.86 12.84,5.91 22.66,14.15 29.4,24.74 6.75,10.56 10.14,22.55 10.14,35.95 0,13.59 -3.55,25.77 -10.66,36.48 -7.11,10.74 -17.17,18.86 -30.17,24.36 -13.06,5.53 -27.11,8.28 -42.18,8.28 -16.36,0 -30.94,-3.06 -43.83,-9.15 -12.84,-6.1 -22.62,-14.4 -29.24,-24.96 -6.63,-10.52 -9.94,-21.67 -9.94,-33.45zm23.75 0.31c0,16.15 5.61,28.86 16.85,38.14 11.22,9.27 25.32,13.93 42.29,13.93 17.29,0 31.47,-4.69 42.66,-14.06 11.15,-9.37 16.72,-22.67 16.72,-39.91 0,-10.9 -2.38,-20.43 -7.15,-28.55 -4.76,-8.12 -11.75,-14.43 -20.92,-18.89 -9.21,-4.47 -19.52,-6.72 -30.95,-6.72 -16.24,0 -30.21,4.31 -41.93,12.93 -11.71,8.62 -17.57,22.99 -17.57,43.13zm239.14 65l0 -134.18 59.79 0c13.49,0 23.79,0.63 30.9,1.91 9.94,1.78 18.42,5 25.45,9.62 9.17,6 16,13.62 20.52,22.92 4.57,9.31 6.83,19.96 6.83,31.92 0,10.18 -1.54,19.21 -4.61,27.08 -3.07,7.87 -7.03,14.4 -11.83,19.55 -4.85,5.16 -10.1,9.22 -15.84,12.15 -5.69,2.97 -12.6,5.22 -20.68,6.75 -8.12,1.53 -17.41,2.28 -27.91,2.28l-62.62 0zm23.03 -15.74l37 0c11.43,0 20.4,-0.82 26.9,-2.47 6.51,-1.66 11.68,-3.97 15.56,-6.96 5.41,-4.22 9.65,-9.91 12.68,-17.03 3.03,-7.12 4.57,-15.74 4.57,-25.89 0,-14.05 -2.99,-24.86 -8.93,-32.42 -5.94,-7.56 -13.17,-12.62 -21.69,-15.18 -6.14,-1.84 -16.04,-2.75 -29.7,-2.75l-36.39 0 0 102.7zm223.23 15.74l0 -134.18 23.02 0 0 134.18 -23.02 0zm170.54 0l0 -118.44 -57.2 0 0 -15.74 137.43 0 0 15.74 -57.2 0 0 118.44 -23.03 0zm170.8 0l0 -134.18 23.02 0 0 134.18 -23.02 0zm131.28 0l0 -134.18 125.31 0 0 15.74 -102.28 0 0 41.23 95.74 0 0 15.74 -95.74 0 0 45.73 106.4 0 0 15.74 -129.43 0zm221.01 -43.1l21.57 -1.5c1.01,6.74 3.39,12.27 7.15,16.61 3.76,4.31 9.57,7.81 17.45,10.5 7.88,2.65 16.77,3.99 26.62,3.99 8.77,0 16.48,-0.99 23.19,-3.02 6.71,-2.03 11.67,-4.81 14.94,-8.34 3.28,-3.53 4.93,-7.37 4.93,-11.5 0,-4.18 -1.57,-7.84 -4.72,-10.99 -3.16,-3.12 -8.36,-5.75 -15.64,-7.9 -4.64,-1.38 -14.94,-3.56 -30.9,-6.53 -15.96,-2.97 -27.1,-5.75 -33.49,-8.37 -8.28,-3.37 -14.42,-7.56 -18.46,-12.52 -4.08,-4.97 -6.1,-10.56 -6.1,-16.71 0,-6.81 2.51,-13.15 7.48,-19.02 4.96,-5.91 12.19,-10.37 21.77,-13.43 9.53,-3.06 20.16,-4.59 31.83,-4.59 12.84,0 24.2,1.59 34.01,4.8 9.82,3.19 17.37,7.91 22.67,14.15 5.29,6.22 8.11,13.28 8.52,21.15l-22.06 1.31c-1.17,-8.46 -5.17,-14.87 -12,-19.18 -6.82,-4.34 -16.92,-6.49 -30.25,-6.49 -13.9,0 -24.04,1.96 -30.38,5.9 -6.34,3.93 -9.53,8.68 -9.53,14.24 0,4.81 2.26,8.78 6.74,11.9 4.45,3.09 15.96,6.31 34.62,9.56 18.67,3.28 31.47,6.12 38.42,8.55 10.06,3.6 17.53,8.13 22.34,13.65 4.81,5.5 7.19,11.84 7.19,19.02 0,7.16 -2.63,13.84 -7.92,20.15 -5.29,6.31 -12.85,11.21 -22.74,14.71 -9.9,3.5 -21.01,5.25 -33.41,5.25 -15.67,0 -28.8,-1.78 -39.38,-5.31 -10.63,-3.53 -18.91,-8.84 -24.93,-15.96 -6.06,-7.09 -9.21,-15.12 -9.53,-24.08z"/>
   <path class="fil2" d="M598.59 1888.68l2.73 -14.44c0.32,-14.81 -2.85,-125.1 1.94,-130.47 4.51,-5.08 8.54,-3.66 19.29,-3.38 25.49,0.67 54.89,-2.29 80.77,0.56 22.4,30.11 41.68,34.79 63.95,62l50.57 43.58c2.66,2.67 3.2,4.14 5.86,7.55 5.47,6.96 21.57,19.27 29.53,25.87 12.51,10.37 11.76,10.27 48.35,8.45 19.48,-0.97 66.89,2.05 81.99,-1.02 2.67,-7.25 -0.77,-6.99 -15.2,-21.28l-126.01 -113.58c-6.7,-6.64 -16.67,-13.89 -18.92,-21.26 19.34,-6.2 29.36,-5.97 49.28,-15.04 13.38,-6.1 14.69,-5.41 27.97,-14.56 19.36,-13.33 30.07,-23.33 39.39,-40.87 2.75,-5.17 5.96,-9.71 9.24,-16.97 25.16,-55.8 0.01,-118.41 -35.7,-150.6 -40.82,-36.79 -97.07,-50.61 -177.57,-50.39 -65.11,0.18 -180.87,-1.35 -239.1,0.72 0.14,47.65 -0.17,88.39 -0.38,137.03 -0.44,101.23 1.5,186.63 0.12,290 -0.25,19.44 -4.86,19.18 18.88,19.05 21.72,-0.11 66.44,1.69 83.02,-0.95z"/>
   <path class="fil2" d="M1320.82 1849.31c4.65,6.45 4.69,30.44 5.48,37.95 12.76,2.18 78.14,1.95 91.71,0.15 3.08,-29.05 -0.54,-284.53 -1.25,-311.88l-90.87 -0.13 -3.55 36.65c-13.65,-1.46 -23.61,-30.84 -94.92,-42.33 -56.62,-9.13 -134.6,10.1 -170.67,39.01l-16.91 16.4c-37.75,43.64 -48.14,83.71 -38.79,140.1 6.3,38.01 27.16,74.7 63.53,99.05 53.33,35.7 155.3,46.14 215.81,14.21 30.79,-16.25 30.84,-23.59 40.43,-29.18z"/>
   <path class="fil2" d="M2394.71 1845.81c-5.87,-8.4 -52.03,-44.22 -59.26,-47.39 -5.24,1.68 -6.76,3.85 -11.54,6.29 -4.54,2.32 -9.49,4.53 -14.15,6.35 -10.06,3.95 -18.13,6.67 -29.92,9.18 -44.01,9.38 -99.76,7.7 -134.16,-16.92 -10.68,-7.64 -19.1,-12.15 -25.2,-29.1 -1.97,-5.45 -4.07,-10.75 -0.89,-13.16 5.93,-4.49 234.17,-2.22 276.97,-1.91 28.07,0.2 25.48,0.34 25.55,-24.67 0.54,-198.49 -248.26,-194.09 -333.47,-132.97 -18.74,13.45 -11.52,6.84 -27.66,23.71 -4.79,5 -8.81,8.35 -12.11,13.23 -7.25,10.74 -14.18,18.89 -17.74,31.21 -3.21,11.1 -6.79,14.27 -10.86,33.74 -8.5,40.69 3.6,88.61 29.32,121.13 20.44,25.86 47.82,47.08 83.98,57.8 62.24,18.46 129.86,18.14 191.96,-0.18 24.53,-7.24 56.88,-22 69.18,-36.34z"/>
   <path class="fil2" d="M2684.41 1452.51c-78.47,-110.58 -243.21,-34.39 -272.59,44.28 -4.18,-5.9 -12.26,-49.11 -34.45,-72.25 -3.81,-3.97 -7.05,-5.98 -10.13,-9.17 -6.21,-6.44 -7.56,-12.93 -28.71,-24.73 -50.14,-27.97 -31.05,-19.22 -82.32,-37.42 -39.66,-14.09 -90.98,-20.94 -135.18,-28.73 -23.44,-4.13 -45.8,-8.64 -67.82,-13.51 -11.05,-2.44 -21.71,-5 -32.14,-7.83 -10.3,-2.79 -21.4,-9.58 -29.63,-10.32 0.93,29.51 3.18,58.6 15.78,84.18l9.26 23.59c2.09,4.47 3.12,7.32 5.84,11.21 3.03,4.36 4.28,5.47 5.94,8.58l7.04 8.96c4.18,5.42 2.33,6.29 7.55,11.68 5.72,5.91 14.46,12.79 19.74,17.59 16.4,14.94 41.4,33.17 63.87,40.57 33.8,11.14 15.21,7 62.91,19.41 32.45,8.44 103.68,16.6 141.32,13.91 -3.57,-4.9 -6.87,-10.88 -11.07,-16.92l-48.44 -52.66c-2.72,-2.36 -6.47,-4.84 -9.14,-6.8l-36.9 -23.07c-8.4,-4.1 -13.39,-6.37 -20.68,-11.4 41.4,1.07 97.28,22.38 125.75,44.8 36.12,28.44 23.37,23.38 41.28,38.89 8.15,7.05 20.04,25.6 26.03,33.99 4.69,6.6 1.37,6.84 9.93,11.75 6.47,-2.53 21.86,-25.53 27.17,-31.67 24.06,-27.83 75.6,-61 123.21,-62.33 -27.96,14.31 -55.29,33.71 -74.95,55.61 -4.23,4.7 -15.65,18.94 -16.54,25.34 52.96,-0.77 93.91,-8.24 133.46,-22.34 30.08,-10.73 49.32,-21.86 70.1,-42.56 5.44,-5.43 14.71,-13.81 14.51,-20.63z"/>
   <path class="fil2" d="M1667.99 1645.62l167.76 0.46c-13.6,18.66 -17.42,24.81 -35.37,43.68 -5.47,5.75 -7.32,9.23 -12.28,14.9l-128.21 143.58c-5.16,7.29 -7.55,6.9 -7.05,17.87 0.24,5.2 -1.67,14.85 1.36,20.36 12.65,5.76 136.69,1.96 161.94,1.96 29.9,0.01 142.36,2.92 162.08,-1.02 0.16,-0.35 0.35,-1.3 0.4,-1.07l2.31 -34.26c1.5,-15.66 -1.19,-26.71 -0.82,-39.91 -29.15,0.75 -60.47,0.1 -89.79,-0.06 -24.41,-0.13 -66.01,2.06 -88.27,-1.32 2.47,-3.85 7.04,-7.8 10.74,-11.87l161.73 -182.08c5.03,-7.4 8.18,-38.71 -0.15,-40.62 -10.48,-2.42 -138.12,-0.82 -149.51,-0.79 -51.89,0.13 -105.78,-1.2 -157.36,0.12l-0.08 35.07c-0.08,14.93 -1,21.15 0.57,35z"/>
   <path class="fil3" d="M1190.71 1639c-10.64,1.63 -13.76,0.96 -24.32,3.92 -54.64,15.33 -75.36,56.79 -70.2,105.73 2.6,24.71 19.68,44.2 41.74,59.83 43.03,30.5 130,22.39 161.84,-18.82 15.76,-20.38 28.95,-56.34 17.69,-80.96 -10.11,-22.11 -9.39,-30.99 -38.88,-51.51 -22.9,-15.93 -57.3,-22.85 -87.87,-18.19z"/>
   <path class="fil3" d="M601.59 1523.27l-0.16 141.45c51.84,1.09 111.43,0.71 160.69,0.24 72.3,-0.69 106.13,-47.22 85.55,-98.97 -22.19,-55.77 -109.58,-43.24 -161.98,-43.82 -18.12,-0.2 -64.23,-1.8 -84.1,1.1z"/>
   <path class="fil2" d="M1496.08 1887.59l96.5 0.56c3.17,-17.91 0.1,-287.5 0.16,-313.84l-95.88 -0.4 -0.41 183.57c0.03,4.57 -0.41,11.19 -0.12,18.53l-0.25 111.58z"/>
   <path class="fil3" d="M2325.09 1694.07c1.41,-5.3 1.42,-6.15 -1.05,-10.58 -1.58,-2.83 -1.02,-1.09 -3.08,-4.35 -12.25,-19.31 -9.71,-24.62 -36.02,-34.45 -43.48,-16.23 -102,-14.37 -138.94,12.29 -7.11,5.14 -28.35,27.26 -25.71,34.52 2.71,7.48 52.18,3.77 64.6,3.66 25.71,-0.22 123.45,1.22 140.2,-1.09z"/>
   <path class="fil2" d="M1496.53 1476.68c0.43,17.4 -2.56,61.39 2.76,68.94 8.25,2.94 81.89,2.71 90.24,-0.09 13.22,-68.04 -14.27,-79.21 -91.41,-75.87l-1.59 7.02z"/>
   <path class="fil2" d="M2420.36 1482.56l6.73 -0.81c15.08,-26.21 60.23,-52.93 95.7,-61.6l2.75 -0.42c0.4,-0.06 1.1,-0.1 1.49,-0.15l17.23 -5.78c1.11,-0.39 2.38,-0.73 3.53,-1.07 3.71,-1.53 1.99,-0.81 -0.01,-1.91 18.59,2.25 33.24,-11.18 38.61,3.35 0.47,-0.99 1.36,-2.52 1.69,-3.48 70.66,32.89 42.3,14.15 77.43,65.73 20.5,-2.95 48.1,-98.69 49.82,-113.77 -11.73,1.77 -28.33,9.07 -40.32,11.89 -72.29,16.98 -139.54,20.23 -206.01,56.22 -15.63,8.47 -46.5,35.5 -48.64,51.8z"/>
   <path class="fil4" d="M2488.97 1887.44l0.23 -313.11 84.57 0.67 8.06 36.87c24.76,-17.74 70.43,-42.73 117.25,-42.73 20.42,0 39.95,1.18 56.99,4.68 8.84,1.81 33.45,10.54 52.55,22.85 19.05,12.29 32.54,27.54 36.13,31.81 6.65,7.9 21.58,40.05 23.22,48.35 3.05,15.39 4.93,30.6 6.01,46.08 3.79,54 -1.28,108.16 -1.21,162.21l-95.43 3.98 0.21 -154.96c0.02,-11.25 -3.38,-41.58 -7.84,-47.12 -0.29,-0.37 -12.01,-37.71 -68.36,-46.92 -5.47,-0.9 -11.13,-0.5 -18,-0.45 -20.65,0.17 -46.95,11.14 -55.04,14.54 -17.68,7.43 -42.73,40.3 -42.9,61.1l-1.44 172.91 -95 -0.76z"/>
  </g>
 </g>
</svg>
