<?xml version="1.0" encoding="UTF-8"?>
<!DOCTYPE svg PUBLIC "-//W3C//DTD SVG 1.1//EN" "http://www.w3.org/Graphics/SVG/1.1/DTD/svg11.dtd">
<!-- Creator: CorelDRAW 2021 (64-Bit) -->
<svg xmlns="http://www.w3.org/2000/svg" xml:space="preserve" width="33.867mm" height="33.867mm" version="1.1" style="shape-rendering:geometricPrecision; text-rendering:geometricPrecision; image-rendering:optimizeQuality; fill-rule:evenodd; clip-rule:evenodd"
viewBox="0 0 3386.7 3386.7"
 xmlns:xlink="http://www.w3.org/1999/xlink"
 xmlns:xodm="http://www.corel.com/coreldraw/odm/2003">
 <defs>
  <style type="text/css">
   <![CDATA[
    .str0 {stroke:#C42373;stroke-width:7.62;stroke-miterlimit:2.61313}
    .fil0 {fill:#291966}
    .fil1 {fill:#A84867}
    .fil5 {fill:#B43766}
    .fil2 {fill:#C42373}
    .fil3 {fill:#EAD3D0}
    .fil4 {fill:white}
   ]]>
  </style>
 </defs>
 <g id="Layer_x0020_1">
  <metadata id="CorelCorpID_0Corel-Layer"/>
  <g id="_2062917723600">
   <path class="fil0" d="M536.78 1542.35l-0.2 254.31 85.72 1.3 0.76 -144.21c38.6,46.59 72.34,95.45 108.6,143.67l95.91 1.39c-5.63,-25.68 -62.7,-73.41 -63.91,-88.71 88.96,-1.66 125.87,-12.67 125.81,-107.57 -0.08,-128.63 -88.86,-106.42 -244.51,-106.41 -126,0.02 -107.98,-7.84 -108.18,46.23z"/>
   <path class="fil0" d="M863.55 1797.88l98.07 0.46 88.25 -175.29c38.19,-80.45 30.66,-71.77 79.07,23.28 7.78,15.26 37.43,67.75 39.29,80.11l-147.44 -0.7c-0.2,21.42 15.42,54.68 21.93,73.02l259.48 0.06c-3.18,-19.76 -64.17,-129.27 -75.96,-151.57 -22.58,-42.69 -54.84,-114.19 -80.11,-149.57l-124.69 -1.53c-10.18,13.92 -154.62,287 -157.89,301.73z"/>
   <path class="fil0" d="M1315.04 1721.65l0.05 76.94c49.73,-0.08 98.83,-0.09 147.92,-0.04 55.87,0.06 87.85,-0.51 118.45,-32.72 27.92,-29.39 26.86,-72.54 26.86,-121.93 -0.01,-27.02 5.77,-130.71 -2.91,-145.62 -6.27,-6.55 -74.77,-3.25 -83.31,-2.44 -4.59,40.44 6.45,185.25 -6.29,208.27 -13.08,23.63 -64.02,17.58 -90.5,17.59 -36.75,0.02 -73.52,-0.21 -110.27,-0.05z"/>
   <path class="fil1" d="M2258.16 1610.05c-28.94,11.94 -39.46,16.78 -55.59,41.88 -52.14,81.15 30.58,175.1 110.06,150.93 48.98,-14.89 85.7,-63.33 70.56,-124.47 -10.68,-43.09 -70.09,-91 -125.03,-68.34z"/>
   <path class="fil2" d="M1953.48 1891.87l37.22 1.6c1.04,-56.42 0.48,-111.95 0.3,-166.94 -0.17,-51.72 15.31,-96.51 71.6,-93.15 75.72,4.52 79.05,124.07 10.24,137.57 -36.26,7.11 -40.35,-4.56 -66.35,-13.23l-0.51 36.66c61.21,25.75 126.11,-0.22 144.74,-47.88 25.52,-65.28 -11.19,-127.5 -61.43,-143.94 -66.29,-21.71 -121.83,23.59 -132.07,75.64 -9.22,46.83 -5.5,159.67 -3.74,213.67z"/>
   <path class="fil2" d="M1736.87 1766.7l-1.13 37.1c230.29,28.36 211.58,-91.8 158.49,-138.74 -24.93,-22.05 -101.83,-46.6 -111.83,-69.01 -28.96,-64.82 89.86,-48.89 129.82,-48.98l1.25 -35.87c-57.85,2.16 -125.75,-12.5 -157.94,25.88 -15.58,18.58 -20.68,47.81 -10.21,72.71 27.48,65.44 150.4,63.17 141.37,127.14 -6.62,46.89 -104.7,24.53 -149.82,29.77z"/>
   <path class="fil3" d="M2265.36 1623.84c-113.85,32.8 -61.25,193.89 43.05,163.91 113.9,-32.74 59.37,-193.4 -43.05,-163.91z"/>
   <path class="fil2" d="M2795.19 1740.11l0.59 21.6c-28.35,17.19 -87.55,3.2 -125.55,10.02l-0.27 32.16c38.67,3.37 122.23,11.05 150.28,-16.76 26.75,-26.51 25.35,-73.14 -42.53,-97.33 -13.73,-4.89 -51.4,-12.07 -61.24,-21.75 -8.17,-8.04 -7.36,-15.63 -3,-21.69 16.46,-16.73 80.45,-4.3 109.08,-7.51 4.78,-44.43 6.56,-36.72 -70.41,-36.38 -33.11,0.14 -70.92,4.58 -79.62,34.26 -22.72,77.49 83.25,78.18 122.67,103.38z"/>
   <path class="fil2" d="M2649.4 1803.95c0,-12.78 1.6,-23.44 -4.12,-34.59l-59.8 -3.62c-10.86,-25.88 -7.9,-92.31 -5.54,-124.32l69.35 -2.2 1.38 -36.13c-16.93,-1.57 -48.43,1.22 -60.43,-1.23 -12.98,-2.65 -10.51,-2.49 -11.21,-17.63 -0.44,-9.47 0.36,-21.15 0.18,-31.15l-36.15 -2.28c-2.21,58.48 0.18,117.69 -0.6,175.86 -1.02,76.75 35.26,80.63 106.94,77.29z"/>
   <path class="fil4" d="M622.76 1643.91l123.98 2.27c28.19,0.03 30.47,1.23 52.02,-9.75 13.57,-79.5 -5.5,-64.54 -134.95,-64.5 -50.65,0.02 -40.3,-8.7 -41.05,71.98z"/>
   <path class="fil2" d="M2458.25 1619.95l-7.54 -17.91 -29.54 0.38 0.12 201.4c50.59,5.65 36.91,-3.63 36.72,-92.21 -0.1,-52.63 12.34,-74.35 58.18,-77.37 14.34,-62.21 -33.69,-32.03 -57.94,-14.29z"/>
   <path class="fil2" d="M2258.26 1612.86c-32.91,12.56 -39.35,15.18 -56.59,41.38 -14.64,22.25 -20.96,48.76 -13.17,78.23 32.91,124.49 226.55,81.33 193.01,-52.07 -11.05,-43.96 -67.71,-88.72 -123.25,-67.54z"/>
   <path class="fil4" d="M2264.68 1626.87c-114.47,35.61 -60.37,189.6 42.05,161.77 113.36,-30.79 57.34,-192.69 -42.05,-161.77z"/>
   <path class="fil5" d="M2227 1712.89c-10.09,21.4 21.83,56.25 60.24,55.06 36.09,-1.12 61.09,-26.62 62.43,-61.67 -30.54,17.33 -53.97,66.41 -122.67,6.61z"/>
   <path class="fil2 str0" d="M2273.76 1679.77c0.25,-5.57 -0.55,-7.81 -4.63,-11.8 -22.83,-22.27 -47.33,26.94 -15.48,28.91 11.95,0.74 19.65,-6.45 20.11,-17.11z"/>
   <path class="fil2" d="M2333.56 1682.91c5.63,-26.43 -47.94,-28.63 -31.08,10.85 17.89,6.55 28.3,2.2 31.08,-10.85z"/>
   <path class="fil5" d="M2267.01 1689.61l-1.22 -20.18 -19.22 -0.71c0.71,11.49 -1.18,6.33 0.3,21.17l20.14 -0.28z"/>
   <path class="fil5" d="M2327.24 1689.78c0.48,-27.58 -2.32,-18.45 -20.75,-20.08l-1.72 20.64 22.47 -0.56z"/>
  </g>
 </g>
</svg>
