<?xml version="1.0" encoding="UTF-8"?>
<!DOCTYPE svg PUBLIC "-//W3C//DTD SVG 1.1//EN" "http://www.w3.org/Graphics/SVG/1.1/DTD/svg11.dtd">
<!-- Creator: CorelDRAW 2021 (64-Bit) -->
<svg xmlns="http://www.w3.org/2000/svg" xml:space="preserve" width="33.8666mm" height="33.8666mm" version="1.1" style="shape-rendering:geometricPrecision; text-rendering:geometricPrecision; image-rendering:optimizeQuality; fill-rule:evenodd; clip-rule:evenodd"
viewBox="0 0 3386.66 3386.66"
 xmlns:xlink="http://www.w3.org/1999/xlink"
 xmlns:xodm="http://www.corel.com/coreldraw/odm/2003">
 <defs>
  <style type="text/css">
   <![CDATA[
    .fil1 {fill:#727271;fill-rule:nonzero}
    .fil0 {fill:#0A4C89;fill-rule:nonzero}
   ]]>
  </style>
 </defs>
 <g id="Layer_x0020_1">
  <metadata id="CorelCorpID_0Corel-Layer"/>
  <g id="_1393709469488">
   <path class="fil0" d="M1119.4 1295.78l-124.84 0 0 180.62 127.41 0c15.38,0 27.26,-1.43 35.56,-4.37 8.29,-2.81 15.67,-8.23 22.24,-15.98 8.6,-12.69 12.91,-37.29 12.91,-73.38 0,-33.39 -3.59,-55.98 -10.56,-67.97 -5.75,-7.99 -13.51,-13.17 -23.46,-15.53 -9.95,-2.21 -23.05,-3.39 -39.26,-3.39zm13.42 -86.79c59.66,0 100.04,13.41 121.14,40.11 18.55,23.97 27.79,63.02 27.79,117.23 0,58.78 -6.77,97.35 -20.4,115.71 -12.09,17.17 -32.59,28.69 -61.38,34.68l0 2.01c27.05,3.05 47.43,13.53 61.38,31.74 11.07,20.23 16.59,50.22 16.59,89.72l0 97.96 -89.05 0 0 -79.73c0,-18.34 -0.81,-33.63 -2.37,-45.75 -1.52,-12.1 -5.42,-22.21 -11.77,-30.33 -6.25,-8.1 -13.74,-13.29 -22.24,-15.64 -8.61,-2.35 -19.99,-3.54 -34.33,-3.54l-9.23 0 -114.39 0 0 174.99 -88.53 0 0 -529.16 226.79 0zm214 529.16l0 -529.16 316.79 0 0 86.79 -228.24 0 0 132.65 216.55 0 0 82.54 -216.55 0 0 140.39 229.48 0 0 86.79 -318.03 0zm485.07 -176.39l159.28 0 -79.33 -275.98 -0.61 0 -79.34 275.98zm12.91 -352.77l129.75 0 157.43 529.16 -90.39 0 -29.43 -99.48 -199.94 0 -29.51 99.48 -91.63 0 105.77 -366.88 47.95 -162.28zm324.08 0l89.17 0 0 442.37 216.44 0 0 86.79 -305.61 0 0 -529.16z"/>
   <path class="fil1" d="M2392.94 2149.09l0 -83.79 21.25 0c22.51,0 37.69,17.27 37.69,41.89l0 0.39c0,24.63 -15.18,41.51 -37.69,41.51l-21.25 0zm-27.5 27.6l48.75 0c39.3,0 66.44,-30.38 66.44,-69.5l0 -0.38c0,-39.13 -27.14,-69.09 -66.44,-69.09l-48.75 0 0 138.97zm-119.66 0l95.2 0 0 -27.21 -67.88 0 0 -29.19 58.94 0 0 -27.19 -58.94 0 0 -28.19 66.97 0 0 -27.19 -94.29 0 0 138.97zm-86.6 0l27.49 0 0 -110.78 38.03 0 0 -28.19 -103.58 0 0 28.19 38.06 0 0 110.78zm-87.88 0l27.5 0 0 -138.97 -27.5 0 0 138.97zm-156.26 0l26.98 0 0 -90.15 34.82 58.78 0.7 0 35.18 -59.35 0 90.72 27.33 0 0 -138.97 -29.65 0 -32.86 58.76 -32.86 -58.76 -29.64 0 0 138.97zm-58.76 0l27.52 0 0 -138.97 -27.52 0 0 138.97zm-111.78 0l89.82 0 0 -27.8 -62.32 0 0 -111.17 -27.5 0 0 138.97zm-173.23 0l95.17 0 0 -27.21 -67.86 0 0 -29.19 58.94 0 0 -27.19 -58.94 0 0 -28.19 66.97 0 0 -27.19 -94.28 0 0 138.97zm-86.62 0l27.5 0 0 -110.78 38.04 0 0 -28.19 -103.59 0 0 28.19 38.05 0 0 110.78zm-115.55 -58.17l16.62 -45.07 16.6 45.07 -33.22 0zm-49.29 58.17l28.04 0 11.45 -31.17 52.84 0 11.43 31.17 28.75 0 -53.57 -139.97 -25.35 0 -53.59 139.97zm-65.54 0.99l24.27 0 50.55 -139.96 -29.64 0 -32.68 97.87 -32.68 -97.87 -30.37 0 50.55 139.96zm-98.58 -0.99l27.51 0 0 -138.97 -27.51 0 0 138.97zm-102.86 -71.47l0 -39.92 27.31 0c13.41,0 21.61,6.76 21.61,19.87l0 0.4c0,11.7 -7.68,19.65 -21.08,19.65l-27.84 0zm-27.5 71.47l27.5 0 0 -44.48 21.61 0 26.78 44.48 32.15 0 -30.55 -49.64c15.91,-6.55 26.79,-20.64 26.79,-43.08l0 -0.39c0,-13.1 -3.75,-24.02 -10.72,-31.77 -8.2,-9.15 -20.52,-14.09 -36.42,-14.09l-57.14 0 0 138.97zm-91.8 -68.9l0 -42.49 21.24 0c13.76,0 22.32,7.35 22.32,21.04l0 0.41c0,11.91 -8.04,21.04 -21.77,21.04l-21.79 0zm-27.5 68.9l27.5 0 0 -41.69 20.88 0c28.05,0 50.55,-16.68 50.55,-48.85l0 -0.4c0,-28.39 -18.04,-48.03 -47.84,-48.03l-51.09 0 0 138.97z"/>
   <path class="fil1" d="M2413.9 1990.19c34.59,0 58.88,-19.88 58.88,-55.28l0 -0.53c0,-31.07 -18.34,-44.07 -50.86,-53.48 -27.74,-7.9 -34.62,-11.75 -34.62,-23.44l0 -0.51c0,-8.67 7.13,-15.54 20.64,-15.54 13.51,0 27.49,6.62 41.7,17.58l18.33 -29.57c-16.27,-14.51 -36.21,-22.66 -59.58,-22.66 -32.76,0 -56.16,21.39 -56.16,53.74l0 0.53c0,35.41 20.87,45.34 53.18,54.5 26.8,7.66 32.32,12.76 32.32,22.68l0 0.51c0,10.44 -8.71,16.82 -23.15,16.82 -18.34,0 -33.46,-8.41 -47.9,-21.64l-20.85 27.74c19.25,19.1 43.78,28.55 68.07,28.55zm-210.61 -2.56l122.14 0 0 -34.89 -87.09 0 0 -37.46 75.63 0 0 -34.9 -75.63 0 0 -36.19 85.95 0 0 -34.89 -121 0 0 178.33zm-93.95 3.06c30.93,0 49.27,-12.23 65.76,-31.85l-22.47 -25.22c-12.58,12.73 -23.81,20.89 -42.15,20.89 -27.49,0 -46.52,-25.47 -46.52,-56.05l0 -0.51c0,-30.57 19.48,-55.53 46.52,-55.53 16.05,0 28.65,7.65 41.03,20.12l22.45 -28.77c-14.89,-16.33 -32.98,-27.52 -63.24,-27.52 -49.28,0 -83.64,41.51 -83.64,92.21l0 0.51c0,51.21 35.05,91.72 82.26,91.72zm-150.56 -3.06l35.31 0 0 -178.33 -35.31 0 0 178.33zm-122.37 1.27l31.18 0 64.83 -179.6 -38.03 0 -41.94 125.61 -41.93 -125.61 -38.95 0 64.84 179.6zm-176.9 -92.97l0 -51.2 35.05 0c17.19,0 27.72,8.64 27.72,25.45l0 0.51c0,15.04 -9.85,25.24 -27.03,25.24l-35.74 0zm-35.31 91.7l35.31 0 0 -57.06 27.72 0 34.39 57.06 41.24 0 -39.19 -63.68c20.39,-8.42 34.37,-26.5 34.37,-55.29l0 -0.52c0,-16.8 -4.82,-30.82 -13.74,-40.75 -10.55,-11.71 -26.37,-18.09 -46.76,-18.09l-73.34 0 0 178.33zm-153.53 0l122.13 0 0 -34.89 -87.06 0 0 -37.46 75.63 0 0 -34.9 -75.63 0 0 -36.19 85.93 0 0 -34.89 -121 0 0 178.33zm-89.59 2.56c34.6,0 58.88,-19.88 58.88,-55.28l0 -0.53c0,-31.07 -18.32,-44.07 -50.86,-53.48 -27.73,-7.9 -34.61,-11.75 -34.61,-23.44l0 -0.51c0,-8.67 7.11,-15.54 20.64,-15.54 13.51,0 27.49,6.62 41.69,17.58l18.33 -29.57c-16.26,-14.51 -36.2,-22.66 -59.58,-22.66 -32.76,0 -56.14,21.39 -56.14,53.74l0 0.53c0,35.41 20.86,45.34 53.17,54.5 26.81,7.66 32.31,12.76 32.31,22.68l0 0.51c0,10.44 -8.7,16.82 -23.15,16.82 -18.35,0 -33.45,-8.41 -47.9,-21.64l-20.84 27.74c19.23,19.1 43.76,28.55 68.06,28.55zm-276.14 -2.56l35.29 0 0 -69.03 76.54 0 0 -35.67 -76.54 0 0 -37.97 86.85 0 0 -35.66 -122.14 0 0 178.33zm-198.91 0l34.61 0 0 -115.65 44.68 75.39 0.92 0 45.13 -76.16 0 116.42 35.08 0 0 -178.33 -38.06 0 -42.15 75.39 -42.16 -75.39 -38.05 0 0 178.33z"/>
  </g>
 </g>
</svg>
