<?xml version="1.0" encoding="UTF-8"?>
<!DOCTYPE svg PUBLIC "-//W3C//DTD SVG 1.1//EN" "http://www.w3.org/Graphics/SVG/1.1/DTD/svg11.dtd">
<!-- Creator: CorelDRAW 2021 (64-Bit) -->
<svg xmlns="http://www.w3.org/2000/svg" xml:space="preserve" width="33.8666mm" height="33.8666mm" version="1.1" style="shape-rendering:geometricPrecision; text-rendering:geometricPrecision; image-rendering:optimizeQuality; fill-rule:evenodd; clip-rule:evenodd"
viewBox="0 0 3386.66 3386.66"
 xmlns:xlink="http://www.w3.org/1999/xlink"
 xmlns:xodm="http://www.corel.com/coreldraw/odm/2003">
 <defs>
  <style type="text/css">
   <![CDATA[
    .str0 {stroke:#C32726;stroke-width:7.62;stroke-miterlimit:2.61313}
    .fil2 {fill:#2B2A29}
    .fil0 {fill:#C32726}
    .fil1 {fill:#C32726;fill-rule:nonzero}
   ]]>
  </style>
 </defs>
 <g id="Layer_x0020_1">
  <metadata id="CorelCorpID_0Corel-Layer"/>
  <g id="_1357744109296">
   <path class="fil0 str0" d="M1759.93 1544.39c0.4,-14.17 -41.47,-122.03 -44.63,-125.39 -10.01,2.67 -9.73,14.98 -14.12,27.03 -7.19,19.74 -28.96,83.87 -28.01,98.71l86.76 -0.35zm172.47 -317.45c1.86,-20.07 3.98,-104.03 -3.65,-116.44 -9.01,-14.66 -26.98,-12.15 -48.46,-11.51 -69.48,2.06 -65.83,83.3 -44.78,107.53 16.83,19.37 61.38,25.16 96.89,20.42zm-460.76 2.16c31.03,-0.13 59.39,-2.91 75.51,-20.71 17.94,-19.82 20.48,-66.1 0.43,-91.27 -2.97,-3.73 -7.49,-7.62 -12.45,-10.74 -11.3,-7.1 -22.08,-7.53 -39.91,-7.54 -31.83,-0.01 -46.47,-0.84 -46.46,47.13 0.04,87.57 -6.7,83.1 22.88,83.13zm238.43 111.36c9.63,11.58 12.82,28.84 19.12,46.15l16.95 -0.35c10.21,-23.16 5.85,-22.96 9.36,-50.73 10.39,-82.4 42.1,-70.83 77.96,-95.23 -14.02,-9.74 -77.66,-7.4 -95.8,-58.48 -10.5,-29.58 2.51,-62.46 29.49,-81.06 4.86,-3.34 18.56,-11.09 23.21,-12.84 35.75,-13.42 97.56,-12.03 142.41,-12.03l115.54 -0.21c14.96,1 12.42,7.88 11.74,22.25 -34.05,9.29 -40.57,5.42 -40.79,45.41l0.01 167.7c0,21.63 -6.43,63.74 8.75,75.36 9.9,7.59 27.3,5.51 30.79,10.73 2.15,3.21 2.7,13.47 1.16,17.71 -2.46,6.72 -4.63,5.45 -14.23,5.59 -27.76,0.41 -56.28,-0.22 -84.15,-0.23 -13.97,0 -27.96,-0.06 -41.93,0.02 -15.81,0.09 -29.81,4.86 -31.38,-9.75 -2.91,-27.22 16.71,-8.87 36.6,-26.18 4.22,-3.68 4.59,-5.22 8.09,-7.75l-0.19 -123.48c-26.79,-4.26 -62.13,-1.32 -76.78,15.32 -31.49,35.78 -10.13,103.58 -38.81,139.1 -16.47,20.39 -40.49,18.04 -69.32,20.04 -0.98,10.33 16.4,54.46 21.62,65.38 9.76,20.42 15.94,41.09 24.61,61.44 9.14,21.43 15.35,44.04 24.6,64.74 15.13,33.85 17.5,28.93 42.42,43.72 1.58,31.13 0.36,21.82 -77.72,22.51 -14.97,0.14 -36.91,4.13 -27.74,-19.35 4.49,-11.5 7.03,-1.37 33.15,-16.42 3,-27.59 -9.97,-72.58 -18.48,-77.57 -11.99,-5.05 -91.82,-3.42 -110.05,-1.33 -7.5,12.33 -24.6,64.3 -19.39,76.6 6.12,14.52 22.53,10.43 35.37,14.6 7.93,23.9 0.5,23.83 -21.11,23.54 -38.22,-0.51 -114.73,2.23 -143.56,-0.98l-0.05 -21.84c7.18,-3.78 34.71,-7.48 45.45,-42.66l22.19 -65.43c3.9,-10.33 8.56,-20.2 11.97,-32.85 7.79,-28.84 34.22,-76.23 31.6,-94.21 -72.5,-2.77 -68.93,-41.67 -75.27,-100.49 -2.47,-22.94 -7.73,-53.31 -24.49,-64.37 -9.22,-6.09 -61.69,-19.68 -71.77,-8.45 -7.81,11.85 -2.57,76.75 -2.53,96.36 0.07,52.92 25.67,34.94 45.81,52.29l-0.51 16.8 -167.83 -0.08c-0.14,-4.27 -0.86,-10.46 0.21,-14.4 6.19,-22.84 39.63,6.69 39.66,-49.42l-0.03 -201.82c0.05,-18.81 2.21,-42.83 -15.62,-51 -0.49,-0.23 -1.17,-0.56 -1.7,-0.74 -20.08,-7.23 -23.55,6.51 -22.45,-23.1l218.45 0.7c103.37,3.59 141.99,97.39 64.71,141.31 -11.29,6.41 -12.11,5.48 -26.05,10.56l-26.7 8.74 9.68 7.8c16.27,9.82 34.83,10.14 53.55,45.58 14.56,27.55 1.14,78.36 22.07,90.09 7.32,-10.72 6.13,-35.64 19.05,-40.64 11.37,-6.16 35.81,-3.16 49.08,-2.67z"/>
   <path class="fil1" d="M915.4 2083.93l-4.19 -35.94c-0.67,-6.45 -2.01,-11.83 -4.04,-16.16 -2.02,-4.34 -5.05,-7.66 -9.09,-9.91 -4.04,-2.26 -9.62,-3.38 -16.74,-3.38l-44.6 -0.14 0 -29.16 46.91 -0.14c10.48,0 18.04,-2.45 22.61,-7.31 4.57,-4.86 6.83,-11.79 6.83,-20.84l0 -3.46c0,-8.95 -2.26,-15.78 -6.83,-20.45 -4.57,-4.66 -12.22,-6.97 -22.9,-6.97l-47.06 0 0 -30.6 52.4 0c21.65,0 37.48,4.37 47.44,13.13 9.95,8.76 14.92,21.22 14.92,37.38l0 4.05c0,12.12 -2.94,21.75 -8.81,28.87 -5.87,7.12 -15.2,11.35 -28,12.69l0 5.2 -10.54 -5.2c10.97,0.78 19.48,3.09 25.5,6.93 6.02,3.85 10.39,9.14 13.19,15.93 2.78,6.79 4.9,15.21 6.35,25.21l5.63 40.27 -38.98 0zm-104.93 0l0 -184.46 36.94 0 0 100.16 0.29 14.01 0 70.29 -37.23 0zm333.71 0l-4.19 -35.94c-0.67,-6.45 -2.02,-11.83 -4.04,-16.16 -2.02,-4.34 -5.05,-7.66 -9.09,-9.91 -4.04,-2.26 -9.62,-3.38 -16.74,-3.38l-44.6 -0.14 0 -29.16 46.91 -0.14c10.48,0 18.04,-2.45 22.61,-7.31 4.57,-4.86 6.83,-11.79 6.83,-20.84l0 -3.46c0,-8.95 -2.26,-15.78 -6.83,-20.45 -4.57,-4.66 -12.22,-6.97 -22.9,-6.97l-47.05 0 0 -30.6 52.39 0c21.65,0 37.48,4.37 47.44,13.13 9.95,8.76 14.91,21.22 14.91,37.38l0 4.05c0,12.12 -2.93,21.75 -8.8,28.87 -5.87,7.12 -15.21,11.35 -28,12.69l0 5.2 -10.54 -5.2c10.97,0.78 19.48,3.09 25.5,6.93 6.02,3.85 10.39,9.14 13.19,15.93 2.78,6.79 4.9,15.21 6.35,25.21l5.62 40.27 -38.97 0zm-104.93 0l0 -184.46 36.94 0 0 100.16 0.29 14.01 0 70.29 -37.23 0zm215.06 0l54.42 -184.46 57.59 0 54.28 184.46 -38.26 0 -43.01 -159.5 -3.47 0 -43.3 159.5 -38.25 0zm41.28 -47.05l0 -30.17 83.44 0 0 30.17 -83.44 0zm194.14 50.52c-11.35,0 -21.41,-1.11 -30.21,-3.28 -8.8,-2.16 -16.31,-4.57 -22.47,-7.26l-3.32 -32.04c7.31,3.37 15.39,6.3 24.2,8.8 8.81,2.5 18.48,3.75 29.06,3.75 9.24,0 15.92,-1.2 20.07,-3.56 4.13,-2.36 6.2,-5.87 6.2,-10.58l0 -0.87c0,-3.17 -0.91,-5.77 -2.79,-7.8 -1.87,-2.01 -5.19,-3.89 -9.91,-5.57 -4.72,-1.69 -11.36,-3.47 -19.92,-5.39 -11.83,-2.79 -21.17,-6.06 -28.05,-9.77 -6.88,-3.71 -11.83,-8.27 -14.82,-13.71 -2.98,-5.44 -4.47,-11.93 -4.47,-19.53l0 -1.31c0,-13.37 4.76,-23.47 14.28,-30.26 9.53,-6.78 23.63,-10.15 42.3,-10.15 11.06,0 20.88,1.06 29.4,3.22 8.51,2.17 15.59,4.77 21.26,7.75l3.32 29.44c-6.73,-3.17 -14.29,-5.86 -22.66,-8.03 -8.37,-2.17 -17.37,-3.22 -26.99,-3.22 -6.26,0 -11.16,0.48 -14.77,1.49 -3.62,1.01 -6.21,2.45 -7.75,4.28 -1.54,1.83 -2.31,4.04 -2.31,6.64l0 0.72c0,2.89 0.86,5.39 2.55,7.51 1.69,2.12 4.77,3.99 9.29,5.67 4.52,1.69 10.87,3.52 19.05,5.44 11.93,2.5 21.51,5.44 28.72,8.81 7.23,3.37 12.46,7.65 15.74,12.89 3.27,5.25 4.91,12.12 4.91,20.6l0 1.72c0,14.63 -4.96,25.55 -14.87,32.77 -9.91,7.22 -24.92,10.83 -45.04,10.83zm131.21 0c-11.35,0 -21.41,-1.11 -30.22,-3.28 -8.8,-2.16 -16.31,-4.57 -22.47,-7.26l-3.32 -32.04c7.32,3.37 15.4,6.3 24.2,8.8 8.81,2.5 18.48,3.75 29.07,3.75 9.24,0 15.92,-1.2 20.06,-3.56 4.14,-2.36 6.21,-5.87 6.21,-10.58l0 -0.87c0,-3.17 -0.91,-5.77 -2.79,-7.8 -1.88,-2.01 -5.2,-3.89 -9.92,-5.57 -4.71,-1.69 -11.35,-3.47 -19.91,-5.39 -11.84,-2.79 -21.17,-6.06 -28.05,-9.77 -6.89,-3.71 -11.84,-8.27 -14.82,-13.71 -2.99,-5.44 -4.48,-11.93 -4.48,-19.53l0 -1.31c0,-13.37 4.77,-23.47 14.29,-30.26 9.52,-6.78 23.63,-10.15 42.3,-10.15 11.06,0 20.88,1.06 29.39,3.22 8.51,2.17 15.59,4.77 21.26,7.75l3.32 29.44c-6.73,-3.17 -14.28,-5.86 -22.65,-8.03 -8.37,-2.17 -17.37,-3.22 -27,-3.22 -6.25,0 -11.16,0.48 -14.77,1.49 -3.61,1.01 -6.21,2.45 -7.75,4.28 -1.53,1.83 -2.31,4.04 -2.31,6.64l0 0.72c0,2.89 0.87,5.39 2.56,7.51 1.68,2.12 4.76,3.99 9.28,5.67 4.53,1.69 10.88,3.52 19.05,5.44 11.94,2.5 21.51,5.44 28.73,8.81 7.22,3.37 12.46,7.65 15.74,12.89 3.26,5.25 4.9,12.12 4.9,20.6l0 1.72c0,14.63 -4.96,25.55 -14.87,32.77 -9.91,7.22 -24.92,10.83 -45.03,10.83zm144.78 0.43c-21.95,0 -38.54,-5.63 -49.85,-16.89 -11.31,-11.26 -16.98,-27.28 -16.98,-48.06l0 -19.2c0,-20.89 5.67,-37 16.98,-48.31 11.31,-11.31 27.9,-16.94 49.85,-16.94 21.84,0 38.39,5.63 49.65,16.94 11.25,11.31 16.89,27.42 16.89,48.31l0 19.2c0,20.78 -5.58,36.8 -16.8,48.06 -11.2,11.26 -27.81,16.89 -49.74,16.89zm0 -29.59c9.61,0 16.98,-2.88 22.03,-8.66 5.05,-5.78 7.56,-14.05 7.56,-24.83l0 -22.95c0,-10.97 -2.51,-19.38 -7.56,-25.21 -5.05,-5.82 -12.42,-8.71 -22.03,-8.71 -9.73,0 -17.09,2.89 -22.14,8.71 -5.05,5.83 -7.6,14.24 -7.6,25.21l0 22.95c0,10.78 2.55,19.05 7.6,24.83 5.05,5.78 12.41,8.66 22.14,8.66zm152.56 29.31c-21.84,0 -38.01,-5.78 -48.55,-17.33 -10.54,-11.54 -15.82,-27.76 -15.82,-48.64l0 -17.32c0,-20.79 5.28,-36.9 15.87,-48.36 10.59,-11.45 26.75,-17.17 48.5,-17.17 5.68,0 11.02,0.43 15.97,1.34 4.96,0.92 9.48,2.17 13.57,3.7 4.09,1.54 7.65,3.18 10.73,4.92l3.03 31.03c-4.71,-2.98 -9.96,-5.48 -15.78,-7.51 -5.82,-2.02 -12.56,-3.03 -20.16,-3.03 -11.93,0 -20.64,3.03 -26.17,9.14 -5.54,6.12 -8.33,15.02 -8.33,26.66l0 15.3c0,11.55 2.89,20.45 8.62,26.7 5.72,6.26 14.53,9.38 26.46,9.38 7.6,0 14.34,-1 20.2,-2.98 5.88,-1.97 11.36,-4.38 16.46,-7.26l-3.03 31.17c-4.71,2.7 -10.63,5.05 -17.76,7.12 -7.12,2.07 -15.06,3.14 -23.81,3.14zm68.99 -3.62l0 -141.6 36.95 0 0 141.6 -36.95 0zm18.48 -158.34c-7.02,0 -12.17,-1.68 -15.49,-5 -3.33,-3.32 -5.01,-7.89 -5.01,-13.76l0 -0.72c0,-5.88 1.68,-10.49 5.01,-13.86 3.32,-3.37 8.47,-5.05 15.49,-5.05 6.93,0 12.08,1.68 15.44,5.05 3.37,3.37 5.05,7.98 5.05,13.86l0 0.72c0,5.96 -1.68,10.58 -5.05,13.85 -3.36,3.28 -8.51,4.91 -15.44,4.91zm132.94 158.34l1.29 -34.64 -1.01 -3.17 0 -44.32 -0.14 -6.35c0,-9.24 -2.5,-16.02 -7.56,-20.35 -5.04,-4.33 -13.32,-6.49 -24.77,-6.49 -9.72,0 -18.81,1.25 -27.33,3.79 -8.52,2.56 -16.41,5.53 -23.63,8.91l3.18 -29.45c4.23,-2.21 9.1,-4.33 14.53,-6.3 5.43,-1.97 11.5,-3.57 18.23,-4.82 6.74,-1.25 14.01,-1.87 21.8,-1.87 11.55,0 21.31,1.34 29.3,4.09 7.99,2.74 14.39,6.69 19.15,11.79 4.76,5.1 8.18,11.16 10.3,18.23 2.12,7.08 3.17,14.92 3.17,23.48l0 87.47 -36.51 0zm-46.34 3.32c-14.04,0 -24.72,-3.51 -32.09,-10.53 -7.36,-7.03 -11.07,-17.04 -11.07,-30.03l0 -4.04c0,-13.76 4.24,-23.96 12.71,-30.55 8.46,-6.59 21.88,-11.12 40.27,-13.62l40.12 -5.48 2.17 23.82 -36.95 5.34c-8.08,1.05 -13.81,2.98 -17.22,5.77 -3.42,2.78 -5.16,6.88 -5.16,12.27l0 1.44c0,5.3 1.69,9.38 5.01,12.32 3.31,2.93 8.51,4.43 15.64,4.43 6.35,0 11.78,-1.02 16.31,-3.03 4.52,-2.03 8.27,-4.72 11.21,-8.04 2.93,-3.32 5,-7.03 6.25,-11.16l5.2 18.32 -6.35 0c-1.54,6.07 -4,11.55 -7.41,16.51 -3.42,4.96 -8.23,8.9 -14.39,11.84 -6.16,2.93 -14.24,4.42 -24.25,4.42zm166.43 -0.29c-12.03,0 -21.61,-1.83 -28.78,-5.44 -7.17,-3.6 -12.36,-9.04 -15.54,-16.35 -3.17,-7.31 -4.76,-16.31 -4.76,-26.99l0 -82.57 36.66 0 0 77.08c0,7.7 1.78,13.33 5.29,16.94 3.52,3.61 9.67,5.43 18.52,5.43 5.21,0 10.21,-0.58 15.02,-1.68 4.81,-1.11 9.24,-2.55 13.28,-4.38l-3.18 30.89c-4.81,2.21 -10.29,3.95 -16.5,5.2 -6.21,1.25 -12.9,1.87 -20.01,1.87zm-69.58 -114.32l0 -29.15 107.97 0 -3.17 29.15 -104.8 0zm20.93 -26.41l-0.14 -37.53 36.8 -3.75 -1.43 41.28 -35.23 0zm173.65 141.17c-24.26,0 -42.3,-5.58 -54.13,-16.74 -11.84,-11.17 -17.76,-27.34 -17.76,-48.5l0 -18.48c0,-20.98 5.53,-37.1 16.6,-48.35 11.07,-11.27 27.14,-16.9 48.22,-16.9 14.24,0 26.11,2.51 35.64,7.51 9.53,5.01 16.7,12.08 21.46,21.27 4.76,9.19 7.12,20.21 7.12,33.01l0 5.05c0,3.46 -0.15,6.98 -0.48,10.58 -0.34,3.61 -0.82,7.03 -1.39,10.2l-33.49 0c0.29,-5.29 0.48,-10.34 0.53,-15.11 0.04,-4.76 0.04,-9.04 0.04,-12.89 0,-6.64 -1.05,-12.32 -3.17,-16.99 -2.12,-4.66 -5.34,-8.17 -9.67,-10.58 -4.33,-2.41 -9.86,-3.61 -16.59,-3.61 -9.92,0 -17.23,2.74 -21.95,8.23 -4.71,5.49 -7.07,13.28 -7.07,23.38l0 13.14 0.15 4.18 0 11.12c0,4.42 0.72,8.52 2.11,12.27 1.4,3.75 3.71,6.97 6.97,9.71 3.28,2.75 7.66,4.91 13.09,6.46 5.44,1.53 12.22,2.3 20.41,2.3 8.85,0 17.31,-1.01 25.35,-2.98 8.03,-1.98 15.64,-4.62 22.86,-7.99l-3.19 29.16c-6.44,3.56 -14,6.35 -22.7,8.42 -8.71,2.07 -18.38,3.13 -28.96,3.13zm-52.26 -61.35l0 -24.54 100.03 0 0 24.54 -100.03 0zm184.76 61.35c-11.36,0 -21.41,-1.11 -30.22,-3.28 -8.8,-2.16 -16.31,-4.57 -22.47,-7.26l-3.32 -32.04c7.32,3.37 15.4,6.3 24.2,8.8 8.81,2.5 18.48,3.75 29.07,3.75 9.23,0 15.92,-1.2 20.06,-3.56 4.14,-2.36 6.21,-5.87 6.21,-10.58l0 -0.87c0,-3.17 -0.92,-5.77 -2.79,-7.8 -1.88,-2.01 -5.2,-3.89 -9.92,-5.57 -4.71,-1.69 -11.35,-3.47 -19.91,-5.39 -11.84,-2.79 -21.17,-6.06 -28.05,-9.77 -6.88,-3.71 -11.84,-8.27 -14.83,-13.71 -2.98,-5.44 -4.47,-11.93 -4.47,-19.53l0 -1.31c0,-13.37 4.77,-23.47 14.29,-30.26 9.52,-6.78 23.62,-10.15 42.3,-10.15 11.06,0 20.87,1.06 29.39,3.22 8.52,2.17 15.59,4.77 21.26,7.75l3.32 29.44c-6.73,-3.17 -14.28,-5.86 -22.66,-8.03 -8.37,-2.17 -17.36,-3.22 -26.98,-3.22 -6.27,0 -11.17,0.48 -14.78,1.49 -3.61,1.01 -6.21,2.45 -7.75,4.28 -1.53,1.83 -2.3,4.04 -2.3,6.64l0 0.72c0,2.89 0.86,5.39 2.55,7.51 1.68,2.12 4.76,3.99 9.28,5.67 4.53,1.69 10.88,3.52 19.06,5.44 11.93,2.5 21.5,5.44 28.72,8.81 7.22,3.37 12.46,7.65 15.73,12.89 3.27,5.25 4.91,12.12 4.91,20.6l0 1.72c0,14.63 -4.96,25.55 -14.86,32.77 -9.92,7.22 -24.93,10.83 -45.04,10.83z"/>
   <path class="fil1" d="M914.65 2238.53l0 -10.21 21.72 0c4.92,0 8.51,-1.24 10.75,-3.68 2.24,-2.44 3.35,-5.82 3.35,-10.17l0 -5.36c0,-4.47 -1.11,-7.89 -3.33,-10.27 -2.21,-2.38 -5.76,-3.57 -10.64,-3.57l-21.91 0 0 -10.15 22.15 0c9.03,0 15.63,2.07 19.8,6.23 4.16,4.17 6.23,9.99 6.23,17.45l0 5.98c0,7.46 -2.09,13.29 -6.27,17.47 -4.19,4.19 -10.8,6.28 -19.82,6.28l-22.03 0zm-8.13 25.23l0 -78.64 12.13 0 0 46.21 0.06 5.54 0 26.89 -12.19 0zm80.26 -36.37l-2.59 -9.41 2.96 0c1.26,-4.76 3.4,-8.52 6.39,-11.25 3,-2.72 7.08,-4.08 12.25,-4.08 1.23,0 2.34,0.09 3.3,0.27 0.96,0.19 1.83,0.41 2.6,0.66l0.74 11.75c-0.98,-0.32 -2.09,-0.6 -3.32,-0.78 -1.23,-0.18 -2.56,-0.26 -4,-0.26 -4.39,0 -8.18,1.12 -11.39,3.38 -3.19,2.25 -5.51,5.5 -6.94,9.72zm-11.58 36.37l0 -60.18 11.76 0 -0.56 17.54 0.87 0.86 0 41.78 -12.07 0zm69.73 1.54c-8.87,0 -15.6,-2.36 -20.19,-7.08 -4.6,-4.71 -6.9,-11.51 -6.9,-20.37l0 -8.55c0,-8.82 2.3,-15.59 6.9,-20.29 4.59,-4.69 11.32,-7.03 20.19,-7.03 8.86,0 15.59,2.34 20.16,7.03 4.57,4.7 6.85,11.47 6.85,20.29l0 8.55c0,8.86 -2.28,15.66 -6.85,20.37 -4.57,4.72 -11.3,7.08 -20.16,7.08zm0 -9.78c4.87,0 8.59,-1.46 11.13,-4.37 2.55,-2.92 3.82,-7.1 3.82,-12.56l0 -10.03c0,-5.42 -1.27,-9.58 -3.82,-12.47 -2.54,-2.9 -6.26,-4.33 -11.13,-4.33 -4.89,0 -8.6,1.43 -11.15,4.33 -2.54,2.89 -3.81,7.05 -3.81,12.47l0 10.03c0,5.46 1.27,9.64 3.81,12.56 2.55,2.91 6.26,4.37 11.15,4.37zm61.9 9.47c-4.8,0 -8.65,-0.74 -11.56,-2.19 -2.92,-1.46 -5.04,-3.66 -6.35,-6.59 -1.31,-2.93 -1.97,-6.59 -1.97,-10.98l0 -36.79 11.94 0 0 35.38c0,3.69 0.84,6.4 2.53,8.13 1.68,1.71 4.51,2.58 8.48,2.58 2.38,0 4.67,-0.25 6.84,-0.74 2.17,-0.49 4.18,-1.19 6.03,-2.09l-1.05 10.21c-1.97,0.99 -4.24,1.74 -6.83,2.28 -2.58,0.53 -5.27,0.8 -8.06,0.8zm-29.29 -51.08l0 -9.59 44.67 0 -1.04 9.59 -43.63 0zm9.54 -8.55l-0.07 -16.55 12.07 -1.42 -0.5 17.97 -11.5 0zm71.01 59.81c-9.6,0 -16.78,-2.29 -21.56,-6.87 -4.78,-4.57 -7.18,-11.16 -7.18,-19.77l0 -9.85c0,-8.49 2.24,-15.07 6.69,-19.73 4.45,-4.65 10.93,-6.97 19.46,-6.97 5.79,0 10.61,1.04 14.47,3.16 3.85,2.11 6.75,5.1 8.67,8.96 1.93,3.86 2.89,8.43 2.89,13.72l0 2.28c0,1.39 -0.06,2.81 -0.18,4.25 -0.12,1.43 -0.29,2.81 -0.49,4.12l-11.08 0c0.09,-2.13 0.15,-4.14 0.17,-6.03 0.02,-1.89 0.02,-3.61 0.02,-5.17 0,-3.32 -0.53,-6.13 -1.6,-8.43 -1.07,-2.3 -2.67,-4.06 -4.8,-5.28 -2.14,-1.21 -4.82,-1.8 -8.07,-1.8 -4.79,0 -8.36,1.36 -10.7,4.09 -2.34,2.72 -3.51,6.62 -3.51,11.66l0 5.66 0.06 1.43 0 5.35c0,2.25 0.35,4.3 1.03,6.15 0.67,1.84 1.77,3.42 3.26,4.76 1.5,1.33 3.42,2.36 5.8,3.08 2.39,0.72 5.28,1.08 8.68,1.08 3.86,0 7.48,-0.49 10.87,-1.47 3.39,-0.99 6.57,-2.3 9.56,-3.95l-1.1 10.28c-2.71,1.6 -5.85,2.87 -9.44,3.84 -3.59,0.96 -7.57,1.45 -11.92,1.45zm-22.34 -26.7l0 -9.05 42.65 0 0 9.05 -42.65 0zm82.15 26.7c-8.94,0 -15.56,-2.37 -19.9,-7.11 -4.32,-4.74 -6.49,-11.43 -6.49,-20.08l0 -8.68c0,-8.7 2.17,-15.41 6.52,-20.12 4.35,-4.72 10.98,-7.08 19.87,-7.08 2.47,0 4.75,0.22 6.82,0.68 2.07,0.45 3.93,1.02 5.62,1.74 1.68,0.72 3.11,1.48 4.3,2.26l1.05 10.34c-1.97,-1.4 -4.25,-2.59 -6.83,-3.56 -2.58,-0.96 -5.6,-1.43 -9.04,-1.43 -5.5,0 -9.57,1.48 -12.21,4.45 -2.65,2.98 -3.98,7.3 -3.98,12.97l0 8.12c0,5.54 1.33,9.8 3.98,12.8 2.64,3 6.71,4.49 12.21,4.49 3.48,0 6.56,-0.49 9.22,-1.45 2.67,-0.97 5.08,-2.14 7.2,-3.53l-1.05 10.46c-1.88,1.19 -4.28,2.27 -7.21,3.26 -2.93,0.98 -6.3,1.47 -10.08,1.47zm52.62 -0.18c-4.8,0 -8.65,-0.74 -11.56,-2.19 -2.92,-1.46 -5.04,-3.66 -6.35,-6.59 -1.31,-2.93 -1.97,-6.59 -1.97,-10.98l0 -36.79 11.95 0 0 35.38c0,3.69 0.84,6.4 2.52,8.13 1.68,1.71 4.51,2.58 8.48,2.58 2.39,0 4.67,-0.25 6.84,-0.74 2.17,-0.49 4.18,-1.19 6.03,-2.09l-1.05 10.21c-1.96,0.99 -4.24,1.74 -6.82,2.28 -2.59,0.53 -5.28,0.8 -8.07,0.8zm-29.29 -51.08l0 -9.59 44.67 0 -1.04 9.59 -43.63 0zm9.54 -8.55l-0.07 -16.55 12.07 -1.42 -0.49 17.97 -11.51 0zm46.22 58.4l0 -60.18 12.06 0 0 60.18 -12.06 0zm6.02 -69.05c-2.37,0 -4.14,-0.61 -5.31,-1.82 -1.16,-1.21 -1.76,-2.87 -1.76,-5.01l0 -0.24c0,-2.13 0.6,-3.82 1.76,-5.03 1.17,-1.21 2.94,-1.8 5.31,-1.8 2.38,0 4.17,0.59 5.34,1.8 1.17,1.21 1.74,2.9 1.74,5.03l0 0.24c0,2.18 -0.57,3.86 -1.74,5.05 -1.17,1.19 -2.96,1.78 -5.34,1.78zm46.22 70.59c-8.87,0 -15.59,-2.36 -20.18,-7.08 -4.6,-4.71 -6.9,-11.51 -6.9,-20.37l0 -8.55c0,-8.82 2.3,-15.59 6.9,-20.29 4.59,-4.69 11.31,-7.03 20.18,-7.03 8.86,0 15.59,2.34 20.16,7.03 4.58,4.7 6.86,11.47 6.86,20.29l0 8.55c0,8.86 -2.28,15.66 -6.86,20.37 -4.57,4.72 -11.3,7.08 -20.16,7.08zm0 -9.78c4.88,0 8.6,-1.46 11.14,-4.37 2.55,-2.92 3.82,-7.1 3.82,-12.56l0 -10.03c0,-5.42 -1.27,-9.58 -3.82,-12.47 -2.54,-2.9 -6.26,-4.33 -11.14,-4.33 -4.88,0 -8.6,1.43 -11.14,4.33 -2.54,2.89 -3.81,7.05 -3.81,12.47l0 10.03c0,5.46 1.27,9.64 3.81,12.56 2.54,2.91 6.26,4.37 11.14,4.37zm79.81 8.24l0 -37.17c0,-2.91 -0.39,-5.43 -1.19,-7.57 -0.8,-2.13 -2.11,-3.79 -3.93,-4.98 -1.83,-1.19 -4.33,-1.79 -7.49,-1.79 -2.91,0 -5.44,0.54 -7.57,1.61 -2.13,1.06 -3.85,2.5 -5.19,4.3 -1.33,1.81 -2.3,3.86 -2.87,6.15l-1.97 -8.36 2.59 0c0.69,-2.55 1.84,-4.87 3.44,-6.94 1.6,-2.07 3.73,-3.71 6.4,-4.94 2.66,-1.23 5.97,-1.84 9.91,-1.84 4.72,0 8.53,0.88 11.44,2.66 2.92,1.78 5.07,4.39 6.45,7.79 1.37,3.41 2.05,7.6 2.05,12.56l0 38.52 -12.07 0zm-39.87 0l0 -60.18 12.06 0 -0.49 14.09 0.49 0.74 0 45.35 -12.06 0zm149.17 0c-0.66,-0.66 -1.62,-1.6 -2.9,-2.83 -1.27,-1.23 -2.62,-2.56 -4.06,-3.98 -1.43,-1.41 -2.76,-2.7 -4.01,-3.9 -1.25,-1.18 -2.18,-2.07 -2.75,-2.65l-1.54 -1.65 -28.74 -26.9 -1.79 -2.15c-2.7,-2.79 -4.7,-5.41 -5.97,-7.88 -1.27,-2.46 -1.91,-5.37 -1.91,-8.73l0 -0.44c0,-5.95 1.89,-10.6 5.64,-13.97 3.76,-3.36 9.46,-5.04 17.14,-5.04 4.88,0 9.04,0.45 12.48,1.37 3.45,0.93 6.33,1.99 8.63,3.18l1.16 11.02c-2.66,-1.31 -5.68,-2.46 -9.07,-3.43 -3.38,-0.96 -7.03,-1.43 -10.93,-1.43 -4.43,0 -7.59,0.76 -9.5,2.3 -1.9,1.53 -2.87,3.67 -2.87,6.37l0 0.31c0,2.13 0.6,4.12 1.76,5.99 1.17,1.86 2.94,3.96 5.32,6.26l26.22 24.98 2.95 3.2c1.23,1.19 2.48,2.4 3.73,3.63 1.25,1.23 2.5,2.46 3.78,3.72 1.27,1.25 2.54,2.52 3.81,3.81 1.27,1.29 2.55,2.61 3.82,3.92 1.27,1.31 2.54,2.62 3.81,3.93l0 0.99 -14.21 0zm-33.67 1.48c-8.94,0 -15.62,-2.05 -20.06,-6.16 -4.43,-4.1 -6.64,-9.92 -6.64,-17.47l0 -1.97c0,-5.74 1.13,-10.46 3.36,-14.14 2.24,-3.67 6.01,-6.91 11.35,-9.74l6.4 8.49c-3,1.44 -5.15,3.28 -6.49,5.54 -1.33,2.26 -2,5.21 -2,8.86l0 1.85c0,4.76 1.29,8.35 3.85,10.79 2.56,2.44 6.34,3.67 11.34,3.67 4.22,0 7.84,-0.86 10.81,-2.56 2.98,-1.7 5.5,-4.15 7.6,-7.35l3.19 -4c2.06,-3.61 3.65,-7.62 4.78,-12.04 1.13,-4.41 1.91,-9.15 2.36,-14.23l11.82 0c-0.74,6.81 -1.95,13.08 -3.66,18.83 -1.7,5.74 -4.08,10.81 -7.11,15.2l-3.33 3.45c-2.13,2.74 -4.49,5.08 -7.09,7.01 -2.61,1.93 -5.58,3.4 -8.93,4.43 -3.34,1.02 -7.19,1.54 -11.55,1.54zm80.19 -1.48l0 -78.64 12.31 0 0 78.64 -12.31 0zm7.02 -31.63l0 -10.34 40.61 0 0 10.34 -40.61 0zm-3.45 -36.68l0 -10.33 44.99 0 0 10.33 -44.99 0zm57.24 68.31l0 -60.18 12.05 0 0 60.18 -12.05 0zm6.02 -69.05c-2.38,0 -4.14,-0.61 -5.31,-1.82 -1.17,-1.21 -1.76,-2.87 -1.76,-5.01l0 -0.24c0,-2.13 0.59,-3.82 1.76,-5.03 1.17,-1.21 2.93,-1.8 5.31,-1.8 2.38,0 4.17,0.59 5.33,1.8 1.17,1.21 1.75,2.9 1.75,5.03l0 0.24c0,2.18 -0.58,3.86 -1.75,5.05 -1.16,1.19 -2.95,1.78 -5.33,1.78zm61.36 69.05l0 -37.17c0,-2.91 -0.39,-5.43 -1.2,-7.57 -0.79,-2.13 -2.11,-3.79 -3.93,-4.98 -1.83,-1.19 -4.33,-1.79 -7.48,-1.79 -2.92,0 -5.44,0.54 -7.58,1.61 -2.13,1.06 -3.85,2.5 -5.19,4.3 -1.33,1.81 -2.3,3.86 -2.87,6.15l-1.97 -8.36 2.59 0c0.7,-2.55 1.84,-4.87 3.44,-6.94 1.6,-2.07 3.73,-3.71 6.4,-4.94 2.67,-1.23 5.97,-1.84 9.91,-1.84 4.72,0 8.53,0.88 11.44,2.66 2.92,1.78 5.07,4.39 6.45,7.79 1.37,3.41 2.05,7.6 2.05,12.56l0 38.52 -12.06 0zm-39.88 0l0 -60.18 12.06 0 -0.49 14.09 0.49 0.74 0 45.35 -12.06 0zm101.84 0l0.5 -14.27 -0.43 -1.85 0 -18.96 0.05 -3.01c0,-4.64 -1.17,-8.04 -3.52,-10.22 -2.36,-2.17 -6.15,-3.26 -11.36,-3.26 -4.23,0 -8.15,0.6 -11.76,1.79 -3.61,1.19 -6.87,2.56 -9.79,4.12l1.11 -10.09c1.65,-0.95 3.57,-1.87 5.79,-2.77 2.21,-0.9 4.72,-1.64 7.5,-2.22 2.79,-0.57 5.86,-0.86 9.18,-0.86 4.55,0 8.4,0.54 11.57,1.62 3.16,1.09 5.7,2.67 7.62,4.72 1.93,2.05 3.35,4.52 4.23,7.39 0.88,2.87 1.31,6.07 1.31,9.59l0 38.28 -12 0zm-20.37 1.35c-5.94,0 -10.49,-1.47 -13.66,-4.41 -3.15,-2.93 -4.74,-7.09 -4.74,-12.5l0 -1.86c0,-5.74 1.79,-10 5.34,-12.78 3.55,-2.77 9.12,-4.67 16.76,-5.74l18.09 -2.58 0.68 8.73 -17.36 2.47c-4.14,0.57 -7.1,1.56 -8.86,2.97 -1.76,1.42 -2.64,3.51 -2.64,6.26l0 0.86c0,2.75 0.86,4.86 2.56,6.34 1.7,1.48 4.28,2.22 7.77,2.22 3.2,0 5.95,-0.54 8.25,-1.6 2.3,-1.07 4.16,-2.51 5.6,-4.29 1.43,-1.79 2.42,-3.76 2.95,-5.93l1.66 8.06 -2.21 0c-0.66,2.46 -1.75,4.74 -3.26,6.83 -1.52,2.09 -3.63,3.77 -6.36,5.05 -2.73,1.27 -6.25,1.9 -10.57,1.9zm86.53 -1.35l0 -37.17c0,-2.91 -0.39,-5.43 -1.19,-7.57 -0.8,-2.13 -2.12,-3.79 -3.94,-4.98 -1.82,-1.19 -4.33,-1.79 -7.49,-1.79 -2.91,0 -5.43,0.54 -7.57,1.61 -2.13,1.06 -3.85,2.5 -5.18,4.3 -1.34,1.81 -2.3,3.86 -2.88,6.15l-1.97 -8.36 2.59 0c0.7,-2.55 1.84,-4.87 3.44,-6.94 1.6,-2.07 3.73,-3.71 6.4,-4.94 2.67,-1.23 5.98,-1.84 9.91,-1.84 4.72,0 8.53,0.88 11.45,2.66 2.91,1.78 5.06,4.39 6.44,7.79 1.37,3.41 2.05,7.6 2.05,12.56l0 38.52 -12.06 0zm-39.88 0l0 -60.18 12.06 0 -0.49 14.09 0.49 0.74 0 45.35 -12.06 0zm90.52 1.41c-8.94,0 -15.57,-2.37 -19.89,-7.11 -4.34,-4.74 -6.51,-11.43 -6.51,-20.08l0 -8.68c0,-8.7 2.17,-15.41 6.53,-20.12 4.34,-4.72 10.97,-7.08 19.87,-7.08 2.46,0 4.74,0.22 6.81,0.68 2.08,0.45 3.94,1.02 5.62,1.74 1.69,0.72 3.12,1.48 4.31,2.26l1.05 10.34c-1.97,-1.4 -4.25,-2.59 -6.83,-3.56 -2.59,-0.96 -5.61,-1.43 -9.05,-1.43 -5.5,0 -9.56,1.48 -12.21,4.45 -2.64,2.98 -3.97,7.3 -3.97,12.97l0 8.12c0,5.54 1.33,9.8 3.97,12.8 2.65,3 6.71,4.49 12.21,4.49 3.49,0 6.56,-0.49 9.23,-1.45 2.67,-0.97 5.07,-2.14 7.2,-3.53l-1.04 10.46c-1.89,1.19 -4.29,2.27 -7.23,3.26 -2.93,0.98 -6.29,1.47 -10.07,1.47zm29.85 -1.41l0 -60.18 12.06 0 0 60.18 -12.06 0zm6.03 -69.05c-2.38,0 -4.14,-0.61 -5.31,-1.82 -1.17,-1.21 -1.77,-2.87 -1.77,-5.01l0 -0.24c0,-2.13 0.6,-3.82 1.77,-5.03 1.17,-1.21 2.93,-1.8 5.31,-1.8 2.38,0 4.16,0.59 5.33,1.8 1.18,1.21 1.74,2.9 1.74,5.03l0 0.24c0,2.18 -0.56,3.86 -1.74,5.05 -1.17,1.19 -2.95,1.78 -5.33,1.78zm56.86 69.05l0.49 -14.27 -0.43 -1.85 0 -18.96 0.06 -3.01c0,-4.64 -1.17,-8.04 -3.52,-10.22 -2.36,-2.17 -6.15,-3.26 -11.37,-3.26 -4.22,0 -8.14,0.6 -11.75,1.79 -3.61,1.19 -6.88,2.56 -9.79,4.12l1.11 -10.09c1.64,-0.95 3.57,-1.87 5.79,-2.77 2.21,-0.9 4.71,-1.64 7.5,-2.22 2.79,-0.57 5.85,-0.86 9.17,-0.86 4.56,0 8.41,0.54 11.57,1.62 3.16,1.09 5.71,2.67 7.63,4.72 1.93,2.05 3.35,4.52 4.23,7.39 0.88,2.87 1.31,6.07 1.31,9.59l0 38.28 -12 0zm-20.37 1.35c-5.94,0 -10.5,-1.47 -13.66,-4.41 -3.16,-2.93 -4.74,-7.09 -4.74,-12.5l0 -1.86c0,-5.74 1.79,-10 5.33,-12.78 3.55,-2.77 9.14,-4.67 16.76,-5.74l18.09 -2.58 0.68 8.73 -17.35 2.47c-4.15,0.57 -7.1,1.56 -8.86,2.97 -1.76,1.42 -2.65,3.51 -2.65,6.26l0 0.86c0,2.75 0.86,4.86 2.57,6.34 1.7,1.48 4.28,2.22 7.77,2.22 3.2,0 5.95,-0.54 8.25,-1.6 2.3,-1.07 4.16,-2.51 5.6,-4.29 1.43,-1.79 2.42,-3.76 2.95,-5.93l1.66 8.06 -2.21 0c-0.66,2.46 -1.75,4.74 -3.26,6.83 -1.52,2.09 -3.64,3.77 -6.37,5.05 -2.72,1.27 -6.25,1.9 -10.56,1.9zm46.9 -1.35l0 -81.47 12.06 0 0 81.47 -12.06 0zm75.81 1.48c-3.73,0 -7.18,-0.29 -10.33,-0.86 -3.17,-0.58 -5.98,-1.3 -8.46,-2.16 -2.48,-0.86 -4.59,-1.72 -6.31,-2.58l-1.17 -12.13c3.16,1.81 6.91,3.41 11.23,4.81 4.33,1.39 9.01,2.09 14.06,2.09 5.74,0 9.96,-0.97 12.68,-2.87 2.7,-1.92 4.06,-4.78 4.06,-8.64l0 -0.92c0,-2.51 -0.54,-4.58 -1.62,-6.2 -1.09,-1.62 -2.94,-3.01 -5.53,-4.18 -2.57,-1.17 -6.09,-2.28 -10.51,-3.35 -5.83,-1.43 -10.53,-3.13 -14.12,-5.08 -3.59,-1.95 -6.21,-4.39 -7.85,-7.32 -1.64,-2.94 -2.47,-6.59 -2.47,-10.98l0 -0.62c0,-6.6 2.19,-11.69 6.59,-15.26 4.39,-3.57 10.97,-5.35 19.75,-5.35 5.62,0 10.44,0.53 14.44,1.62 4,1.09 7.28,2.32 9.87,3.67l1.1 11.26c-2.99,-1.72 -6.43,-3.18 -10.33,-4.34 -3.9,-1.17 -8.29,-1.75 -13.17,-1.75 -3.81,0 -6.87,0.41 -9.17,1.25 -2.3,0.84 -3.96,2.06 -4.99,3.63 -1.02,1.58 -1.53,3.49 -1.53,5.7l0 0.25c0,2.3 0.51,4.26 1.53,5.91 1.03,1.64 2.86,3.07 5.47,4.33 2.6,1.25 6.29,2.5 11.09,3.73 5.7,1.44 10.32,3.04 13.83,4.82 3.5,1.78 6.06,4.1 7.71,6.95 1.64,2.86 2.46,6.61 2.46,11.24l0 1.23c0,7.26 -2.36,12.76 -7.08,16.5 -4.72,3.73 -11.79,5.6 -21.23,5.6zm65.84 0.06c-8.86,0 -15.58,-2.36 -20.18,-7.08 -4.59,-4.71 -6.89,-11.51 -6.89,-20.37l0 -8.55c0,-8.82 2.3,-15.59 6.89,-20.29 4.6,-4.69 11.32,-7.03 20.18,-7.03 8.87,0 15.6,2.34 20.17,7.03 4.58,4.7 6.85,11.47 6.85,20.29l0 8.55c0,8.86 -2.27,15.66 -6.85,20.37 -4.57,4.72 -11.3,7.08 -20.17,7.08zm0 -9.78c4.89,0 8.6,-1.46 11.14,-4.37 2.55,-2.92 3.82,-7.1 3.82,-12.56l0 -10.03c0,-5.42 -1.27,-9.58 -3.82,-12.47 -2.54,-2.9 -6.25,-4.33 -11.14,-4.33 -4.88,0 -8.59,1.43 -11.13,4.33 -2.54,2.89 -3.81,7.05 -3.81,12.47l0 10.03c0,5.46 1.27,9.64 3.81,12.56 2.54,2.91 6.25,4.37 11.13,4.37zm40.19 8.24l0 -81.47 12.06 0 0 81.47 -12.06 0zm38.89 -60.18l0 37.16c0,2.88 0.41,5.38 1.21,7.53 0.8,2.15 2.11,3.84 3.96,5.03 1.85,1.19 4.33,1.79 7.45,1.79 2.95,0 5.5,-0.54 7.61,-1.6 2.11,-1.07 3.83,-2.53 5.19,-4.35 1.35,-1.83 2.3,-3.86 2.83,-6.12l1.97 8.37 -2.58 0c-0.71,2.5 -1.86,4.8 -3.45,6.89 -1.61,2.09 -3.74,3.76 -6.4,4.99 -2.67,1.22 -5.98,1.84 -9.91,1.84 -4.68,0 -8.47,-0.9 -11.4,-2.69 -2.94,-1.78 -5.09,-4.38 -6.47,-7.81 -1.37,-3.43 -2.07,-7.59 -2.07,-12.51l0 -38.52 12.06 0zm39.88 0l0 60.18 -12.07 0 0.5 -14.09 -0.5 -0.74 0 -45.35 12.07 0zm37.85 61.41c-4.81,0 -8.66,-0.74 -11.57,-2.19 -2.91,-1.46 -5.03,-3.66 -6.34,-6.59 -1.32,-2.93 -1.97,-6.59 -1.97,-10.98l0 -36.79 11.94 0 0 35.38c0,3.69 0.84,6.4 2.52,8.13 1.68,1.71 4.51,2.58 8.49,2.58 2.38,0 4.66,-0.25 6.83,-0.74 2.18,-0.49 4.19,-1.19 6.03,-2.09l-1.04 10.21c-1.97,0.99 -4.25,1.74 -6.83,2.28 -2.58,0.53 -5.28,0.8 -8.06,0.8zm-29.29 -51.08l0 -9.59 44.67 0 -1.05 9.59 -43.62 0zm9.53 -8.55l-0.06 -16.55 12.06 -1.42 -0.49 17.97 -11.51 0zm46.22 58.4l0 -60.18 12.06 0 0 60.18 -12.06 0zm6.03 -69.05c-2.38,0 -4.14,-0.61 -5.31,-1.82 -1.17,-1.21 -1.77,-2.87 -1.77,-5.01l0 -0.24c0,-2.13 0.6,-3.82 1.77,-5.03 1.17,-1.21 2.93,-1.8 5.31,-1.8 2.38,0 4.16,0.59 5.33,1.8 1.17,1.21 1.75,2.9 1.75,5.03l0 0.24c0,2.18 -0.58,3.86 -1.75,5.05 -1.17,1.19 -2.95,1.78 -5.33,1.78zm46.22 70.59c-8.87,0 -15.6,-2.36 -20.19,-7.08 -4.59,-4.71 -6.89,-11.51 -6.89,-20.37l0 -8.55c0,-8.82 2.3,-15.59 6.89,-20.29 4.59,-4.69 11.32,-7.03 20.19,-7.03 8.86,0 15.59,2.34 20.16,7.03 4.57,4.7 6.85,11.47 6.85,20.29l0 8.55c0,8.86 -2.28,15.66 -6.85,20.37 -4.57,4.72 -11.3,7.08 -20.16,7.08zm0 -9.78c4.88,0 8.59,-1.46 11.14,-4.37 2.53,-2.92 3.8,-7.1 3.8,-12.56l0 -10.03c0,-5.42 -1.27,-9.58 -3.8,-12.47 -2.55,-2.9 -6.26,-4.33 -11.14,-4.33 -4.89,0 -8.6,1.43 -11.15,4.33 -2.54,2.89 -3.81,7.05 -3.81,12.47l0 10.03c0,5.46 1.27,9.64 3.81,12.56 2.55,2.91 6.26,4.37 11.15,4.37zm79.81 8.24l0 -37.17c0,-2.91 -0.39,-5.43 -1.19,-7.57 -0.8,-2.13 -2.11,-3.79 -3.94,-4.98 -1.82,-1.19 -4.33,-1.79 -7.49,-1.79 -2.91,0 -5.43,0.54 -7.57,1.61 -2.13,1.06 -3.85,2.5 -5.18,4.3 -1.34,1.81 -2.3,3.86 -2.88,6.15l-1.97 -8.36 2.59 0c0.7,-2.55 1.84,-4.87 3.44,-6.94 1.61,-2.07 3.74,-3.71 6.4,-4.94 2.67,-1.23 5.98,-1.84 9.91,-1.84 4.72,0 8.53,0.88 11.45,2.66 2.91,1.78 5.06,4.39 6.44,7.79 1.38,3.41 2.05,7.6 2.05,12.56l0 38.52 -12.06 0zm-39.88 0l0 -60.18 12.06 0 -0.49 14.09 0.49 0.74 0 45.35 -12.06 0z"/>
   <polygon class="fil2" points="861.09,2146.81 1693.32,2139.92 2525.56,2146.81 1693.32,2153.71 "/>
   <polygon class="fil2" points="861.09,2304.08 1693.32,2297.2 2525.56,2304.08 1693.32,2310.98 "/>
  </g>
 </g>
</svg>
