<?xml version="1.0" encoding="UTF-8"?>
<!DOCTYPE svg PUBLIC "-//W3C//DTD SVG 1.1//EN" "http://www.w3.org/Graphics/SVG/1.1/DTD/svg11.dtd">
<!-- Creator: CorelDRAW 2021 (64-Bit) -->
<svg xmlns="http://www.w3.org/2000/svg" xml:space="preserve" width="33.8666mm" height="33.8666mm" version="1.1" style="shape-rendering:geometricPrecision; text-rendering:geometricPrecision; image-rendering:optimizeQuality; fill-rule:evenodd; clip-rule:evenodd"
viewBox="0 0 3386.66 3386.66"
 xmlns:xlink="http://www.w3.org/1999/xlink"
 xmlns:xodm="http://www.corel.com/coreldraw/odm/2003">
 <defs>
  <style type="text/css">
   <![CDATA[
    .fil0 {fill:#2B2A29}
    .fil1 {fill:white}
   ]]>
  </style>
 </defs>
 <g id="Layer_x0020_1">
  <metadata id="CorelCorpID_0Corel-Layer"/>
  <g id="_1357501383808">
   <path class="fil0" d="M1169.25 2349.72l0.01 -337.94 31.79 0 0 291.05c2.01,26.19 -17.07,46.89 -31.8,46.89zm226.83 -1.65l-31.85 0 0 -83.59c0,-15.45 -4.33,-27.48 -12.98,-36.18 -8.33,-8.33 -20.24,-12.5 -35.7,-12.5 -15.35,0 -27.21,4.17 -35.65,12.5 -8.65,8.7 -12.97,20.73 -12.97,36.18l0 83.59 -31.85 0 0 -83.59c0,-24.21 7.43,-43.77 22.25,-58.7 14.61,-14.55 34.01,-21.77 58.22,-21.77 24.21,0 43.66,7.22 58.27,21.77 14.83,14.93 22.26,34.49 22.26,58.7l0 83.59zm190.64 -161l-49.42 138.1c-3.12,7.66 -8.17,13.66 -15.3,18.09 -6.8,4.22 -14.34,6.34 -22.56,6.34 -8.34,0 -15.93,-2.12 -22.73,-6.34 -7.06,-4.43 -12.19,-10.43 -15.3,-18.09l-49.72 -138.1 34.44 0 43.39 122.65c2.38,5.28 5.7,7.91 9.92,7.91 4.22,0 7.38,-2.41 9.44,-7.27l43.55 -123.29 34.29 0zm134.73 51.63c-3,-5.17 -6.65,-9.4 -10.96,-12.72 -8.23,-6.27 -19.15,-9.38 -32.6,-9.38 -15.77,0 -28,4.27 -36.65,12.81 -8.54,8.65 -12.92,20.57 -13.13,35.71 0.11,11.59 2.74,22.19 7.91,31.63 1.42,2.37 3.06,4.44 4.9,6.23 8.5,8.65 20.31,13.07 35.55,13.23l65.98 0 0 31.86 -66.29 0c-24.11,-0.43 -43.41,-7.97 -57.92,-22.73 -14.76,-15.14 -22.09,-34.81 -22.09,-59.01 0,-24.53 7.49,-44.35 22.57,-59.48 14.82,-14.72 34.54,-22.11 59.17,-22.11 20.57,0 37.81,5.33 51.73,15.93 14.25,10.82 23.43,25.58 27.64,44.36 1.16,4.21 0.64,8.22 -1.53,12.01 -2.16,3.85 -5.28,6.38 -9.44,7.6l-94.66 27.21 -8.8 -30.75 78.62 -22.4zm176.93 -51.63l0 31.85 -59.48 0c-11.99,0 -21,2 -27.07,6.01 -4.21,2.69 -6.32,6.12 -6.32,10.34 0,5.59 3.64,9.59 10.97,12.07 4.43,1.53 12.5,2.95 24.26,4.33 21.09,2.48 35.65,5.85 43.56,10.17 13.17,7.23 19.77,19.88 19.77,38.02 0,15.67 -6.91,27.95 -20.66,36.93 -11.45,7.54 -26.27,11.28 -44.51,11.28l-60.6 0 0 -31.86 60.6 0c11.91,0 20.93,-2.01 27.04,-6.01 4.22,-2.79 6.34,-6.22 6.34,-10.34 0,-5.58 -3.7,-9.64 -10.97,-12.23 -4.44,-1.53 -12.56,-2.95 -24.26,-4.32 -21.16,-2.37 -35.65,-5.7 -43.56,-10.02 -13.18,-7.23 -19.78,-19.88 -19.78,-38.02 0,-15.67 6.86,-28 20.67,-37.08 11.45,-7.38 26.26,-11.12 44.52,-11.12l59.48 0zm64.28 31.85l0 48.67c0,15.46 4.33,27.42 12.97,35.97 8.34,8.43 20.21,12.65 35.55,12.65l2.8 0 0 31.86 -2.8 0c-24.21,-0.11 -43.56,-7.49 -58.11,-22.1 -14.82,-14.82 -22.26,-34.28 -22.26,-58.38l0 -145.07 31.85 0 0 64.55 50.21 0 0 31.85 -50.21 0zm198.24 -8.18c1.1,-1.37 2.26,-2.68 3.37,-4.06 13.18,-15.13 30.75,-22.67 52.68,-22.67 22.05,0 39.65,7.54 52.84,22.67 12.76,14.77 19.15,34.02 19.15,57.8l0 83.59 -31.8 0 0 -83.59c0,-15.98 -3.8,-28.26 -11.45,-36.91 -6.8,-7.86 -16.35,-11.77 -28.74,-11.77 -12.34,0 -21.93,3.91 -28.74,11.77 -7.49,8.65 -11.28,20.93 -11.28,36.91l0 83.59 -31.96 0 0 -83.59c0,-15.98 -3.75,-28.26 -11.29,-36.91 -6.8,-7.86 -16.34,-11.77 -28.73,-11.77 -12.35,0 -21.94,3.91 -28.75,11.77 -7.59,8.65 -11.38,20.93 -11.38,36.91l0 83.59 -31.86 0 0 -83.59c0,-23.78 6.38,-43.03 19.14,-57.8 13.18,-15.13 30.8,-22.67 52.85,-22.67 21.93,0 39.49,7.54 52.68,22.67 1.16,1.38 2.21,2.69 3.27,4.06zm278.07 27.96c-3.01,-5.17 -6.65,-9.4 -10.97,-12.72 -8.24,-6.27 -19.14,-9.38 -32.59,-9.38 -15.77,0 -28,4.27 -36.65,12.81 -8.55,8.65 -12.92,20.57 -13.14,35.71 0.11,11.59 2.75,22.19 7.92,31.63 1.42,2.37 3.05,4.44 4.9,6.23 8.49,8.65 20.3,13.07 35.54,13.23l65.98 0 0 31.86 -66.3 0c-24.09,-0.43 -43.4,-7.97 -57.9,-22.73 -14.77,-15.14 -22.09,-34.81 -22.09,-59.01 0,-24.53 7.49,-44.35 22.56,-59.48 14.83,-14.72 34.55,-22.11 59.18,-22.11 20.56,0 37.8,5.33 51.73,15.93 14.24,10.82 23.42,25.58 27.63,44.36 1.16,4.21 0.64,8.22 -1.53,12.01 -2.16,3.85 -5.27,6.38 -9.44,7.6l-94.66 27.21 -8.81 -30.75 78.64 -22.4zm220.96 109.37l-31.85 0 0 -83.59c0,-15.45 -4.34,-27.48 -12.98,-36.18 -8.33,-8.33 -20.25,-12.5 -35.7,-12.5 -15.35,0 -27.21,4.17 -35.65,12.5 -8.65,8.7 -12.97,20.73 -12.97,36.18l0 83.59 -31.85 0 0 -83.59c0,-24.21 7.43,-43.77 22.25,-58.7 14.6,-14.55 34.01,-21.77 58.22,-21.77 24.2,0 43.66,7.22 58.27,21.77 14.82,14.93 22.26,34.49 22.26,58.7l0 83.59zm66.29 -129.15l0 48.67c0,15.46 4.31,27.42 12.96,35.97 8.33,8.43 20.2,12.65 35.55,12.65l2.79 0 0 31.86 -2.79 0c-24.2,-0.11 -43.57,-7.49 -58.12,-22.1 -14.81,-14.82 -22.25,-34.28 -22.25,-58.38l0 -145.07 31.86 0 0 64.55 50.19 0 0 31.85 -50.19 0z"/>
   <path class="fil0" d="M1029.25 1398.99c-35.71,-30.41 4.43,-7.51 -58.09,-44.36 70.19,-126.93 -138.27,-152.7 -82.25,-1.18 -119.23,54.63 -165.36,121.3 -230.93,194.46 -31.88,35.57 -48.45,45.24 -48.83,105.24 65.07,-66.73 14.78,-47.22 169.62,-177.84 34.98,-29.52 180.39,-150.71 217.74,-51.08 -11.58,29.97 -75.84,73.26 -103.87,95.22 -120.59,94.5 -258.9,207.38 -266.17,360.89 -6.2,131.03 61.62,215.18 174.55,236.22 66.89,12.45 121.56,-2.98 175.67,-25.56 70.25,-29.32 91.04,-32.45 79.34,-121.41 -26.92,9.37 -120.53,122.21 -255.8,92.98 -136.56,-29.5 -205.6,-259.59 41.66,-446.74 33.4,-25.27 166.19,-151.63 206.43,-150.58 0,55.95 0.49,111.81 0.59,167.75 0.2,112.78 -11.15,125.22 35.74,148.41l0.28 -473.75c-5.07,-59.3 -47.65,-41.51 -66.81,-96.49 -35.58,-102.1 88.97,-169.91 161.86,-107.63 26.56,22.7 45.23,66.45 27.62,112.24 -15.23,39.63 -59.24,52.39 -93.5,65.94 8.75,84.19 -1.02,429.51 -1.02,552.32l-0.06 409.82c-0.27,43.02 -9.55,86.96 27.98,105.38l18.01 -1041c27.76,-24.02 124.7,-64.8 87.92,-178.5 -55.49,-171.5 -328.38,-83.83 -275.22,89.14 16.49,53.64 38.1,45.19 65.47,73.64 23.38,24.31 17.45,82.98 -7.93,106.47z"/>
   <path class="fil1" d="M932.56 1279.53c12.15,0 25.86,12.5 23.93,28.75 -1.94,16.25 -10.33,26.34 -22.47,26.34 -12.15,0 -24.41,-5.74 -26.58,-25.37 -2.18,-19.63 12.98,-29.72 25.12,-29.72z"/>
   <path class="fil0" d="M862.24 1746.97c-35.65,-0.96 -70.43,12.93 -94.35,27.62 -55.71,34.23 -60.3,85.58 -16.68,75.03 7.76,-1.88 10.39,-7.68 16.35,-13.43l48.68 -42.88c5.78,-5.02 8.99,-9.59 14.71,-14.72 10.29,-9.25 24.03,-17.32 31.29,-31.62z"/>
   <path class="fil0" d="M792.36 1862.99c13.46,8.23 20.02,12.16 38.56,4.2 3.95,-46.91 8.06,-29.75 24.53,-54.84 -27.91,0.7 -59.18,27.69 -63.09,50.64z"/>
   <path class="fil0" d="M832.48 2003.62c-10.74,-10.39 -38.48,25.84 -72.6,61.16 -34.12,35.32 -72.13,54.28 -61.38,64.67 10.76,10.38 57.56,-7.75 91.67,-43.07 20.27,-21 49.22,-43.74 55.72,-60 4.45,-11.09 -9.05,-18.56 -13.41,-22.76z"/>
  </g>
 </g>
</svg>
