<?xml version="1.0" encoding="UTF-8"?>
<!DOCTYPE svg PUBLIC "-//W3C//DTD SVG 1.1//EN" "http://www.w3.org/Graphics/SVG/1.1/DTD/svg11.dtd">
<!-- Creator: CorelDRAW 2021 (64-Bit) -->
<svg xmlns="http://www.w3.org/2000/svg" xml:space="preserve" width="33.8666mm" height="33.8666mm" version="1.1" style="shape-rendering:geometricPrecision; text-rendering:geometricPrecision; image-rendering:optimizeQuality; fill-rule:evenodd; clip-rule:evenodd"
viewBox="0 0 3386.66 3386.66"
 xmlns:xlink="http://www.w3.org/1999/xlink"
 xmlns:xodm="http://www.corel.com/coreldraw/odm/2003">
 <defs>
  <style type="text/css">
   <![CDATA[
    .fil1 {fill:#FEFEFE}
    .fil3 {fill:#9D9E9E;fill-rule:nonzero}
    .fil2 {fill:#727271;fill-rule:nonzero}
    .fil0 {fill:#5567AD;fill-rule:nonzero}
   ]]>
  </style>
 </defs>
 <g id="Layer_x0020_1">
  <metadata id="CorelCorpID_0Corel-Layer"/>
  <g id="_1357509245408">
   <path class="fil0" d="M672.29 1652.38l11.69 0c0,33.89 11.7,62.08 34.94,84.73 29.25,27.74 64.94,40.94 106.78,39.59 10.34,0 19.79,-2.25 28.49,-6.6 8.55,-4.35 15.29,-10.2 20.24,-17.55 4.95,-7.19 8.7,-15.29 11.4,-24.29 2.55,-9 3.14,-18.59 1.5,-28.64 -1.65,-10.05 -4.8,-19.64 -9.44,-29.1 -4.81,-9.29 -12.15,-18.14 -21.9,-26.38 -9.9,-8.25 -21.6,-15 -34.95,-20.25 -2.85,-1.05 -8.69,-3.3 -17.24,-6.45 -8.55,-3.15 -14.69,-5.4 -18.14,-6.89 -3.61,-1.36 -9,-3.76 -16.2,-6.91 -7.35,-3.14 -13.2,-5.84 -17.55,-8.09 -4.34,-2.25 -9.29,-5.25 -14.69,-8.85 -5.55,-3.46 -10.35,-7.05 -14.7,-10.5 -16.19,-13.64 -26.99,-29.54 -32.39,-47.54 -5.55,-17.99 -5.7,-35.09 -0.75,-51.44 4.95,-16.19 15,-30.89 30.14,-43.93 15.15,-13.05 33.89,-21.59 56.54,-25.8 26.09,-3.44 50.99,-2.1 74.52,4.21 11.25,3.9 21.9,9.29 31.8,16.34 0.3,0 0.75,0.15 1.35,0.3 0.45,0.15 1.5,0.45 3.14,0.75 1.66,0.45 3.16,0.75 4.51,1.05 1.35,0.45 3,0.6 4.8,0.6 1.65,0 3.14,-0.15 4.5,-0.6 1.19,-0.3 2.24,-1.05 3.15,-2.1 0.89,-1.05 1.34,-2.25 1.34,-3.6l12.15 0 0 1.05 0 79.78 -12.15 0c0,-4.5 -0.75,-9.75 -2.4,-15.6 -1.64,-5.84 -3.74,-11.39 -6.3,-16.94 -2.69,-5.4 -5.99,-10.8 -9.89,-16.34 -3.9,-5.55 -7.95,-10.5 -12.15,-14.85 -4.2,-4.35 -8.69,-8.25 -13.65,-11.7 -4.94,-3.3 -9.75,-5.4 -14.39,-6.45 -20.54,-5.25 -37.49,-6.3 -50.84,-3 -13.35,3.45 -23.24,9.9 -29.54,19.65 -6.45,9.74 -10.05,20.24 -10.8,31.64 -0.89,11.55 1.05,22.65 5.86,33.59 4.64,10.95 11.09,19.35 19.18,24.89 9.16,6.45 27.6,13.35 55.34,20.7 27.75,7.35 48.89,15.14 63.73,23.24 15.45,8.85 28.05,20.39 37.8,34.94 9.74,14.55 15.89,29.55 18.74,45.15 2.85,15.73 2.1,31.78 -2.1,48.13 -4.2,16.5 -11.4,31.2 -21.59,43.94 -10.35,12.89 -24.75,23.39 -43.2,31.49 -18.43,8.1 -39.58,12 -63.27,11.7 -12.3,0 -23.1,-0.75 -32.4,-2.11 -9.44,-1.34 -19.49,-4.49 -30.14,-9.29 -10.8,-4.8 -18.6,-8.55 -23.4,-11.4 -4.79,-2.85 -14.54,-8.54 -29.38,-17.4 -4.2,-3.59 -7.65,-6.29 -10.5,-8.09 -2.85,-1.65 -5.55,-2.85 -8.1,-3.3 -2.7,-0.45 -4.65,0.3 -5.85,2.4 -1.35,2.1 -1.95,5.4 -1.95,10.05l-11.69 0 0 -97.93zm343.36 123.27c9.9,-4.2 15.89,-11.55 18,-22.19 0,-139.02 0,-242.94 0,-312.08 -2.11,-10.64 -8.1,-17.99 -18,-22.34l0 -6.74 93.13 0 0 6.74c-9.9,4.35 -15.9,11.7 -18,22.34l0 177.11 13.2 -16.94 37.03 -46.94 88.48 -114.87c-3.9,-10.65 -9.75,-17.55 -17.54,-20.7l0 -6.74 56.08 0 0 6.74c-5.99,2.55 -12.14,7.95 -18.44,16.5l-3.75 4.2 -97.33 125.97 0.45 1.04 118.62 176.06 7.35 10.65 1.05 2.09c6.3,8.85 15,15.46 25.94,20.1l0 6.9 -113.22 0 0 -6.9c9.9,-4.2 15.9,-11.55 18,-22.19l-7.5 -10.65 -87.27 -129.57 -21.15 26.99 0 113.23c2.1,10.64 8.1,17.99 18,22.19l0 6.9 -93.13 0 0 -6.9zm409.49 -22.19l0 -156.57 -73.48 -156.55c-4.95,-10.35 -12.45,-17.4 -22.8,-21.3l0 -6.74 103.78 0 0 6.74c-9.45,4.35 -15.45,11.7 -17.99,22.34l61.93 130.62 75.58 -130.62c-1.35,-9.14 -8.85,-16.64 -22.19,-22.34l0 -6.74 62.98 0 0 6.74c-8.85,3.9 -17.25,11.4 -25.5,22.34 -51.73,89.53 -80.22,138.42 -85.17,146.52l0 165.56c2.25,10.64 8.25,17.99 18,22.19l0 6.9 -93.14 0 0 -6.9c9.91,-4.2 15.9,-11.55 18,-22.19zm212.15 22.19c9.89,-4.2 15.89,-11.55 18,-22.19 0,-139.02 0,-242.94 0,-312.08 -2.11,-10.64 -8.11,-17.99 -18,-22.34l0 -6.74 158.21 0c16.64,0 31.19,3.3 43.63,9.74 12.45,6.45 22.2,15.15 29.1,25.8 6.89,10.79 11.99,22.04 15.14,33.59 3.16,11.69 4.65,23.54 4.65,35.54 0,11.99 -3,24.89 -9.14,38.54 -6.16,13.79 -15.75,26.39 -28.8,37.79 -13.05,11.54 -27.74,18.44 -43.94,20.99l119.97 139.61 10.65 12.3c4.2,3.75 9.3,6.9 15.29,9.45l0 6.9 -76.62 0 -143.96 -167.21 -19.06 0 0 138.12c2.1,10.64 8.11,17.99 18,22.19l0 6.9 -93.12 0 0 -6.9zm75.12 -350.16l0 177.26 80.39 0c6.75,-1.8 12.89,-6.46 18.44,-14.1 5.4,-7.65 9.45,-16.65 12.3,-27.29 2.85,-10.5 4.95,-21.9 6.6,-34.04 1.64,-12.16 1.95,-24.3 0.9,-36.29 -1.05,-12 -2.85,-22.95 -5.25,-32.85 -2.55,-9.74 -6.45,-17.69 -11.7,-23.69 -5.25,-6 -11.55,-9 -18.59,-9l-83.09 0zm283.09 350.16c9.9,-4.2 16.04,-11.55 18.45,-22.19l0 -312.08c-2.41,-10.64 -8.55,-17.99 -18.45,-22.34l0 -6.74 93.12 0 0 6.74c-9.59,4.35 -15.6,11.7 -17.99,22.34l0 312.08c2.39,10.64 8.4,17.99 17.99,22.19l0 6.9 -93.12 0 0 -6.9zm156.05 -123.27l11.71 0c0,33.89 11.69,62.08 34.94,84.73 29.24,27.74 64.93,40.94 106.77,39.59 10.35,0 19.79,-2.25 28.49,-6.6 8.55,-4.35 15.3,-10.2 20.25,-17.55 4.94,-7.19 8.69,-15.29 11.39,-24.29 2.55,-9 3.15,-18.59 1.5,-28.64 -1.65,-10.05 -4.8,-19.64 -9.45,-29.1 -4.8,-9.29 -12.15,-18.14 -21.89,-26.38 -9.9,-8.25 -21.59,-15 -34.94,-20.25 -2.85,-1.05 -8.7,-3.3 -17.25,-6.45 -8.54,-3.15 -14.7,-5.4 -18.14,-6.89 -3.6,-1.36 -9,-3.76 -16.2,-6.91 -7.35,-3.14 -13.2,-5.84 -17.54,-8.09 -4.35,-2.25 -9.3,-5.25 -14.7,-8.85 -5.55,-3.46 -10.35,-7.05 -14.7,-10.5 -16.19,-13.64 -26.99,-29.54 -32.39,-47.54 -5.55,-17.99 -5.7,-35.09 -0.75,-51.44 4.95,-16.19 15,-30.89 30.15,-43.93 15.14,-13.05 33.88,-21.59 56.53,-25.8 26.09,-3.44 50.99,-2.1 74.53,4.21 11.25,3.9 21.89,9.29 31.8,16.34 0.29,0 0.74,0.15 1.34,0.3 0.45,0.15 1.5,0.45 3.15,0.75 1.65,0.45 3.15,0.75 4.5,1.05 1.35,0.45 3,0.6 4.8,0.6 1.65,0 3.15,-0.15 4.49,-0.6 1.21,-0.3 2.26,-1.05 3.15,-2.1 0.91,-1.05 1.36,-2.25 1.36,-3.6l12.15 0 0 1.05 0 79.78 -12.15 0c0,-4.5 -0.75,-9.75 -2.4,-15.6 -1.65,-5.84 -3.75,-11.39 -6.3,-16.94 -2.7,-5.4 -6,-10.8 -9.9,-16.34 -3.9,-5.55 -7.95,-10.5 -12.14,-14.85 -4.21,-4.35 -8.71,-8.25 -13.65,-11.7 -4.95,-3.3 -9.75,-5.4 -14.4,-6.45 -20.54,-5.25 -37.49,-6.3 -50.83,-3 -13.35,3.45 -23.25,9.9 -29.55,19.65 -6.44,9.74 -10.04,20.24 -10.8,31.64 -0.89,11.55 1.05,22.65 5.85,33.59 4.65,10.95 11.1,19.35 19.2,24.89 9.15,6.45 27.59,13.35 55.34,20.7 27.74,7.35 48.88,15.14 63.73,23.24 15.45,8.85 28.04,20.39 37.79,34.94 9.74,14.55 15.89,29.55 18.75,45.15 2.84,15.73 2.1,31.78 -2.11,48.13 -4.2,16.5 -11.39,31.2 -21.59,43.94 -10.35,12.89 -24.74,23.39 -43.19,31.49 -18.45,8.1 -39.59,12 -63.28,11.7 -12.3,0 -23.1,-0.75 -32.4,-2.11 -9.44,-1.34 -19.49,-4.49 -30.14,-9.29 -10.79,-4.8 -18.59,-8.55 -23.39,-11.4 -4.8,-2.85 -14.55,-8.54 -29.4,-17.4 -4.19,-3.59 -7.64,-6.29 -10.49,-8.09 -2.85,-1.65 -5.55,-2.85 -8.1,-3.3 -2.69,-0.45 -4.65,0.3 -5.85,2.4 -1.35,2.1 -1.94,5.4 -1.94,10.05l-11.71 0 0 -97.93zm342.92 123.27c9.9,-4.2 16.05,-11.55 18.45,-22.19l0 -312.08c-2.4,-10.64 -8.55,-17.99 -18.45,-22.34l0 -6.74 208.9 0 0 31.18 -6.9 0c-4.2,-9.89 -11.55,-15.89 -22.19,-17.99l-104.68 0 0 165.56 76.18 0c10.65,-2.55 17.85,-8.7 21.59,-18.6l6.91 0 0 49.34 -6.91 0c-4.19,-9.6 -11.39,-15.59 -21.59,-17.99l-76.18 0 0 165.56 104.68 0c10.64,-2.11 17.99,-8.11 22.19,-18l6.9 0 0 31.19 -208.9 0 0 -6.9z"/>
   <polygon class="fil1" points="1837.26,1853.1 1941.37,1853.1 1941.37,1981.03 1837.26,1981.03 "/>
   <path class="fil2" d="M977.59 1939.74l0 -78.57 56.73 0 0 9.22 -46.31 0 0 24.14 43.35 0 0 9.22 -43.35 0 0 26.78 48.17 0 0 9.21 -58.59 0zm86.95 0l30.36 -40.77 -26.74 -37.8 12.38 0 14.33 20.1c2.98,4.18 5.05,7.35 6.24,9.57 1.77,-2.74 3.86,-5.68 6.25,-8.76l15.7 -20.91 11.38 0 -27.29 37.35 29.39 41.22 -12.77 0 -19.83 -28.02c-1.13,-1.59 -2.21,-3.18 -3.22,-4.75 -1.75,2.63 -3,4.48 -3.76,5.53l-19.92 27.24 -12.5 0zm103.13 0l0 -78.57 29.66 0c5.22,0 9.21,0.25 11.97,0.75 3.85,0.64 7.09,1.87 9.7,3.66 2.62,1.81 4.73,4.33 6.32,7.57 1.59,3.24 2.38,6.81 2.38,10.7 0,6.66 -2.13,12.31 -6.39,16.92 -4.24,4.62 -11.94,6.93 -23.06,6.93l-20.16 0 0 32.04 -10.42 0zm10.42 -41.26l20.3 0c6.74,0 11.49,-1.24 14.33,-3.75 2.81,-2.5 4.22,-6.02 4.22,-10.57 0,-3.27 -0.82,-6.09 -2.49,-8.44 -1.66,-2.33 -3.85,-3.89 -6.56,-4.64 -1.76,-0.46 -5,-0.69 -9.69,-0.69l-20.11 0 0 28.09zm81.54 3.02c0,-13.03 3.52,-23.23 10.52,-30.59 7.01,-7.38 16.04,-11.06 27.13,-11.06 7.26,0 13.79,1.74 19.62,5.2 5.82,3.45 10.26,8.28 13.32,14.48 3.05,6.18 4.59,13.21 4.59,21.06 0,7.95 -1.61,15.09 -4.83,21.36 -3.22,6.29 -7.77,11.05 -13.67,14.27 -5.9,3.24 -12.27,4.84 -19.09,4.84 -7.4,0 -14.01,-1.79 -19.84,-5.36 -5.82,-3.56 -10.24,-8.43 -13.24,-14.61 -3.01,-6.16 -4.51,-12.7 -4.51,-19.59zm10.76 0.19c0,9.45 2.54,16.9 7.62,22.32 5.09,5.44 11.48,8.17 19.16,8.17 7.82,0 14.24,-2.75 19.31,-8.23 5.05,-5.49 7.57,-13.29 7.57,-23.38 0,-6.38 -1.08,-11.97 -3.23,-16.72 -2.16,-4.76 -5.33,-8.45 -9.48,-11.07 -4.17,-2.61 -8.83,-3.93 -14.01,-3.93 -7.35,0 -13.68,2.53 -18.98,7.57 -5.31,5.05 -7.96,13.47 -7.96,25.27zm99.96 38.05l0 -78.57 34.83 0c7.01,0 12.33,0.71 15.96,2.13 3.65,1.4 6.55,3.89 8.73,7.46 2.18,3.56 3.26,7.51 3.26,11.83 0,5.58 -1.81,10.28 -5.42,14.11 -3.6,3.81 -9.16,6.23 -16.7,7.27 2.76,1.31 4.85,2.64 6.28,3.92 3.03,2.77 5.9,6.27 8.6,10.46l13.59 21.39 -12.99 0 -10.39 -16.35c-3.02,-4.73 -5.53,-8.34 -7.48,-10.84 -1.98,-2.5 -3.73,-4.25 -5.29,-5.26 -1.53,-0.98 -3.13,-1.67 -4.74,-2.07 -1.17,-0.24 -3.09,-0.37 -5.77,-0.37l-12.04 0 0 34.89 -10.43 0zm10.43 -43.89l22.31 0c4.76,0 8.45,-0.49 11.12,-1.48 2.67,-0.97 4.7,-2.55 6.08,-4.72 1.39,-2.16 2.08,-4.5 2.08,-7.04 0,-3.72 -1.34,-6.79 -4.02,-9.19 -2.7,-2.39 -6.93,-3.58 -12.73,-3.58l-24.84 0 0 26.01zm108.55 43.89l0 -69.35 -25.89 0 0 -9.22 62.22 0 0 9.22 -25.9 0 0 69.35 -10.43 0zm107.83 0l0 -78.57 10.43 0 0 78.57 -10.43 0zm50.47 0l0 -78.57 15.58 0 18.58 55.62c1.72,5.18 2.97,9.06 3.76,11.64 0.89,-2.86 2.3,-7.06 4.2,-12.61l18.91 -54.65 13.93 0 0 78.57 -9.99 0 0 -65.73 -22.94 65.73 -9.36 0 -22.68 -66.93 0 66.93 -9.99 0zm113.59 0l0 -78.57 29.66 0c5.22,0 9.21,0.25 11.97,0.75 3.86,0.64 7.09,1.87 9.71,3.66 2.61,1.81 4.72,4.33 6.31,7.57 1.59,3.24 2.38,6.81 2.38,10.7 0,6.66 -2.12,12.31 -6.39,16.92 -4.24,4.62 -11.94,6.93 -23.06,6.93l-20.16 0 0 32.04 -10.42 0zm10.42 -41.26l20.3 0c6.74,0 11.49,-1.24 14.33,-3.75 2.81,-2.5 4.23,-6.02 4.23,-10.57 0,-3.27 -0.83,-6.09 -2.49,-8.44 -1.67,-2.33 -3.86,-3.89 -6.57,-4.64 -1.76,-0.46 -4.99,-0.69 -9.69,-0.69l-20.11 0 0 28.09zm81.55 3.02c0,-13.03 3.5,-23.23 10.51,-30.59 7.01,-7.38 16.04,-11.06 27.13,-11.06 7.26,0 13.79,1.74 19.62,5.2 5.82,3.45 10.27,8.28 13.32,14.48 3.06,6.18 4.59,13.21 4.59,21.06 0,7.95 -1.61,15.09 -4.82,21.36 -3.23,6.29 -7.78,11.05 -13.67,14.27 -5.91,3.24 -12.28,4.84 -19.09,4.84 -7.41,0 -14.02,-1.79 -19.85,-5.36 -5.81,-3.56 -10.24,-8.43 -13.25,-14.61 -3,-6.16 -4.49,-12.7 -4.49,-19.59zm10.75 0.19c0,9.45 2.54,16.9 7.63,22.32 5.08,5.44 11.47,8.17 19.15,8.17 7.83,0 14.25,-2.75 19.32,-8.23 5.04,-5.49 7.56,-13.29 7.56,-23.38 0,-6.38 -1.07,-11.97 -3.23,-16.72 -2.16,-4.76 -5.33,-8.45 -9.48,-11.07 -4.17,-2.61 -8.83,-3.93 -14.01,-3.93 -7.35,0 -13.68,2.53 -18.98,7.57 -5.31,5.05 -7.96,13.47 -7.96,25.27zm99.96 38.05l0 -78.57 34.83 0c7,0 12.33,0.71 15.96,2.13 3.65,1.4 6.56,3.89 8.73,7.46 2.18,3.56 3.26,7.51 3.26,11.83 0,5.58 -1.81,10.28 -5.42,14.11 -3.6,3.81 -9.16,6.23 -16.69,7.27 2.75,1.31 4.84,2.64 6.27,3.92 3.03,2.77 5.9,6.27 8.6,10.46l13.58 21.39 -12.98 0 -10.39 -16.35c-3.02,-4.73 -5.53,-8.34 -7.48,-10.84 -1.98,-2.5 -3.73,-4.25 -5.29,-5.26 -1.53,-0.98 -3.13,-1.67 -4.73,-2.07 -1.18,-0.24 -3.1,-0.37 -5.79,-0.37l-12.03 0 0 34.89 -10.43 0zm10.43 -43.89l22.32 0c4.75,0 8.44,-0.49 11.12,-1.48 2.67,-0.97 4.69,-2.55 6.06,-4.72 1.4,-2.16 2.09,-4.5 2.09,-7.04 0,-3.72 -1.33,-6.79 -4.02,-9.19 -2.69,-2.39 -6.93,-3.58 -12.73,-3.58l-24.84 0 0 26.01zm108.56 43.89l0 -69.35 -25.9 0 0 -9.22 62.22 0 0 9.22 -25.9 0 0 69.35 -10.42 0zm105.63 0l0 -78.57 10.42 0 0 69.36 38.63 0 0 9.21 -49.05 0zm82.99 0l0 -78.57 10.42 0 0 69.36 38.63 0 0 9.21 -49.05 0zm83.43 0l0 -78.57 29.66 0c5.21,0 9.21,0.25 11.96,0.75 3.86,0.64 7.1,1.87 9.72,3.66 2.61,1.81 4.71,4.33 6.3,7.57 1.6,3.24 2.38,6.81 2.38,10.7 0,6.66 -2.12,12.31 -6.38,16.92 -4.25,4.62 -11.94,6.93 -23.07,6.93l-20.15 0 0 32.04 -10.42 0zm10.42 -41.26l20.3 0c6.73,0 11.49,-1.24 14.32,-3.75 2.82,-2.5 4.23,-6.02 4.23,-10.57 0,-3.27 -0.83,-6.09 -2.49,-8.44 -1.67,-2.33 -3.86,-3.89 -6.56,-4.64 -1.76,-0.46 -5,-0.69 -9.7,-0.69l-20.1 0 0 28.09z"/>
   <polygon class="fil3" points="2472.4,1909.99 2714.38,1909.99 2714.38,1900.53 2472.4,1900.53 "/>
   <polygon class="fil3" points="674.65,1909.99 916.63,1909.99 916.63,1900.53 674.65,1900.53 "/>
  </g>
 </g>
</svg>
