<?xml version="1.0" encoding="UTF-8"?>
<!DOCTYPE svg PUBLIC "-//W3C//DTD SVG 1.1//EN" "http://www.w3.org/Graphics/SVG/1.1/DTD/svg11.dtd">
<!-- Creator: CorelDRAW 2021 (64-Bit) -->
<svg xmlns="http://www.w3.org/2000/svg" xml:space="preserve" width="33.8666mm" height="33.8666mm" version="1.1" style="shape-rendering:geometricPrecision; text-rendering:geometricPrecision; image-rendering:optimizeQuality; fill-rule:evenodd; clip-rule:evenodd"
viewBox="0 0 3386.66 3386.66"
 xmlns:xlink="http://www.w3.org/1999/xlink"
 xmlns:xodm="http://www.corel.com/coreldraw/odm/2003">
 <defs>
  <style type="text/css">
   <![CDATA[
    .str0 {stroke:black;stroke-width:36.02;stroke-miterlimit:22.9256}
    .fil0 {fill:black}
    .fil1 {fill:black;fill-rule:nonzero}
   ]]>
  </style>
 </defs>
 <g id="Layer_x0020_1">
  <metadata id="CorelCorpID_0Corel-Layer"/>
  <g id="_2381564119504">
   <g id="_2023940762928">
    <path class="fil0 str0" d="M2255.43 1407.25l-518.94 0 195.71 -220.74 -166.41 0 -183.55 220.34 0 -220.34 -126.35 0 0 220.74 -225.26 0c28.39,-226.06 221.54,-401.43 455.59,-401.43 183.96,0 342.65,108.29 415.94,264.44l122.15 0c-79.69,-220.04 -290.52,-377.29 -538.09,-377.29 -315.96,0 -572.1,256.22 -572.1,572.18 0,19.48 0.99,38.63 2.89,57.8l338.88 0 0 213.65 126.35 0 0 -213.65 6.83 0 165.14 213.65 165.53 0 -175.91 -213.65 397.98 0c-28.39,226.07 -221.54,401.45 -455.59,401.45 -183.84,0 -342.44,-108.3 -415.79,-264.1l-122.18 0c79.77,219.68 290.52,376.94 537.97,376.94 314.93,0 570.4,-254.56 572.06,-569.1l0 -9.79c-0.2,-17.18 -1.16,-34.13 -2.85,-51.1z"/>
    <path class="fil1" d="M2255.43 1407.25l-518.94 0 195.71 -220.74 -166.41 0 -183.55 220.34 0 -220.34 -126.34 0 0 220.74 -225.27 0c28.39,-226.06 221.54,-401.43 455.59,-401.43 183.96,0 342.65,108.29 415.94,264.44l122.15 0c-79.69,-220.04 -290.52,-377.29 -538.09,-377.29 -315.95,0 -572.09,256.22 -572.09,572.18 0,19.48 0.98,38.63 2.88,57.8l338.89 0 0 213.65 126.34 0 0 -213.65 6.84 0 165.14 213.65 165.52 0 -175.91 -213.65 397.98 0c-28.38,226.07 -221.54,401.45 -455.59,401.45 -183.83,0 -342.43,-108.31 -415.78,-264.11l-122.18 0c79.76,219.68 290.52,376.95 537.96,376.95 314.93,0 570.4,-254.57 572.06,-569.1l0 -9.79c-0.2,-17.18 -1.16,-34.14 -2.85,-51.1z"/>
   </g>
   <path class="fil1" d="M698.41 2442.21l0 -113c0,-2.1 -0.29,-3.46 -0.87,-4.06 -0.58,-0.61 -1.79,-0.84 -3.62,-0.75 -8.02,0.66 -15.3,3.88 -21.87,9.71 -7.48,6.59 -14.71,17.05 -21.78,31.29l-18.2 -8.22 9.93 -29 10.02 -29 0 0 68.46 0 0 0 68.47 0 0 0 9.93 28.96 10.02 28.95 -18.21 8.22c-7.07,-14.25 -14.29,-24.61 -21.78,-31.2 -6.57,-5.83 -13.84,-9.05 -21.87,-9.71 -1.82,-0.09 -3.03,0.14 -3.61,0.75 -0.58,0.6 -0.88,1.96 -0.88,4.06l0 113c0,9.48 1.21,15.78 3.67,18.91 2.4,3.08 7.6,4.91 15.54,5.47l4.74 0.42 0 22.97 -46.02 0 -46.02 0 0 -22.97 4.74 -0.42c7.94,-0.56 13.14,-2.39 15.55,-5.47 2.45,-3.13 3.66,-9.43 3.66,-18.91zm273.38 -15.64c0,23.62 -5.35,40.9 -16.13,51.83 -10.76,10.88 -27.85,16.34 -51.21,16.34 -23.36,0 -40.45,-5.46 -51.21,-16.34 -10.77,-10.93 -16.13,-28.21 -16.13,-51.83l0 -79.61c0,-9.53 -1.04,-15.79 -3.16,-18.87 -2.12,-3.03 -6.57,-4.9 -13.38,-5.51l-4.16 -0.42 0 -22.98 43.15 0 43.15 0 0 22.98 -4.29 0.42c-7.06,0.61 -11.68,2.48 -13.88,5.51 -2.2,3.08 -3.28,9.34 -3.28,18.82l0 76.86c0,13.96 2.61,24.56 7.9,31.8 5.27,7.23 12.97,10.87 23.02,10.87 12.56,0 21.54,-3.73 26.9,-11.2 5.37,-7.47 8.03,-19.99 8.03,-37.5l0 -70.83c0,-9.48 -1.09,-15.74 -3.29,-18.82 -2.2,-3.03 -6.82,-4.9 -13.89,-5.51l-4.28 -0.42 0 -22.98 33.76 0 33.84 0 0 22.98 -4.29 0.42c-7.06,0.61 -11.68,2.48 -13.88,5.51 -2.2,3.08 -3.29,9.34 -3.29,18.87l0 79.61zm35.45 63.41l0 -22.97 4.28 -0.42c7.07,-0.56 11.68,-2.39 13.88,-5.47 2.2,-3.13 3.28,-9.38 3.28,-18.91l0 -95.25c0,-9.53 -1.08,-15.79 -3.28,-18.82 -2.2,-3.08 -6.81,-4.95 -13.88,-5.56l-4.28 -0.42 0 -22.98 43.52 0 43.52 0 0 22.98 -4.28 0.42c-7.07,0.61 -11.68,2.48 -13.88,5.56 -2.21,3.03 -3.29,9.33 -3.29,18.82l0 100.15c0,7.48 1,12.28 2.99,14.43 1.96,2.15 6.24,3.04 12.81,2.66 12.85,-0.84 23.74,-4.66 32.67,-11.53 10.15,-7.75 20.29,-21.11 30.35,-40.01l17.46 10.41 -12.97 33.38 -12.97 33.53 0 0 -70.34 0 0 0 -65.59 0zm290.35 -126.4c-7.57,-13.4 -15.89,-23.54 -25.03,-30.5 -9.11,-6.9 -18.62,-10.36 -28.52,-10.36 -8.61,0 -15.42,1.91 -20.45,5.74 -5.03,3.84 -7.57,9.11 -7.57,15.74 0,4.76 3.12,8.78 9.4,12.05 6.23,3.22 17.83,6.77 34.83,10.69 25.32,5.93 42.66,13.12 52,21.62 9.36,8.5 14.02,21.34 14.02,38.57 0,19.47 -6.74,35.58 -20.21,48.37 -13.42,12.84 -30.34,19.24 -50.76,19.24 -17.25,0 -32.17,-5.09 -44.76,-15.26l0 0 -3.16 12.46 -15.05 0 0 0 -20.46 -70.6 0 0 19.71 -6.73c5.78,15.6 14.47,28.16 26.15,37.64 11.63,9.47 24.19,14.19 37.57,14.19 10.02,0 17.88,-2.33 23.66,-7 5.78,-4.62 8.64,-10.92 8.64,-18.86 0,-5.47 -3.07,-9.95 -9.26,-13.41 -6.07,-3.4 -17.51,-7.05 -34.22,-10.97 -25.69,-5.93 -43.23,-13.17 -52.62,-21.76 -9.44,-8.5 -14.14,-21.29 -14.14,-38.43 0,-17.7 6.03,-32.4 18.13,-44.08 12.1,-11.67 27.26,-17.51 45.6,-17.51 14.38,-0.09 27.73,4.53 40.03,13.92l0 0 2.91 -9.16 15.05 0 0 0 16.46 57.16 0 0 -17.95 7.24zm66.11 78.63l0 -95.25c0,-9.53 -1.12,-15.79 -3.32,-18.82 -2.25,-3.08 -7.03,-4.95 -14.38,-5.56l-4.5 -0.42 0 -22.98 44.27 0 44.28 0 0 22.98 -4.49 0.42c-7.36,0.61 -12.14,2.48 -14.39,5.56 -2.19,3.03 -3.32,9.29 -3.32,18.82l0 95.25c0,9.53 1.13,15.78 3.32,18.82 2.25,3.08 7.03,4.9 14.39,5.56l4.49 0.42 0 22.97 -44.28 0 -44.27 0 0 -22.97 4.5 -0.42c7.35,-0.66 12.17,-2.53 14.42,-5.61 2.2,-3.03 3.28,-9.24 3.28,-18.77zm261.12 52.53c-25.89,0 -47.39,-9.15 -64.47,-27.5 -17.08,-18.3 -25.65,-41.37 -25.65,-69.16 0,-29.74 8.81,-54.49 26.44,-74.15 17.63,-19.66 39.74,-29.51 66.39,-29.51 25.98,0 47.51,9.2 64.59,27.55 17.09,18.35 25.66,41.51 25.66,69.39 0,29.65 -8.82,54.31 -26.44,73.96 -17.63,19.62 -39.79,29.42 -66.52,29.42zm0 -28.3c13.89,0 24.82,-6.58 32.84,-19.7 7.99,-13.17 11.98,-31 11.98,-53.56 0,-21.71 -3.79,-38.89 -11.31,-51.5 -7.57,-12.66 -17.84,-18.96 -30.8,-18.96 -13.72,0 -24.61,6.58 -32.63,19.8 -8.03,13.17 -12.06,31.09 -12.06,53.74 0,21.62 3.78,38.71 11.31,51.32 7.56,12.56 17.79,18.86 30.67,18.86zm132.05 -24.23l0 -95.25c0,-9.53 -1.08,-15.79 -3.28,-18.82 -2.21,-3.08 -6.82,-4.95 -13.89,-5.56l-4.27 -0.42 0 -22.98 43.48 0 0 0 52.58 0c19.79,0 35.25,4.96 46.39,14.81 11.1,9.85 16.67,23.58 16.67,41.18 0,18.17 -5.82,32.36 -17.5,42.59 -11.68,10.22 -27.94,15.31 -48.8,15.31l-27.23 0.15 0 0 0 28.99c0,9.53 1.08,15.78 3.28,18.82 2.21,3.08 6.82,4.9 13.89,5.56l4.28 0.42 0 22.97 -43.52 0 -43.52 0 0 -22.97 4.27 -0.42c7.07,-0.66 11.68,-2.53 13.89,-5.61 2.2,-3.03 3.28,-9.24 3.28,-18.77zm44.15 -54.78l0 0 13.01 0c10.52,0 18.71,-2.79 24.57,-8.4 5.86,-5.65 8.81,-13.54 8.81,-23.67 0,-9.57 -2.66,-17.05 -7.93,-22.37 -5.33,-5.37 -12.72,-8.03 -22.16,-8.03l-1 0c-6.32,0 -10.44,1.08 -12.39,3.27 -1.95,2.19 -2.91,6.86 -2.91,14.01l0 45.19zm164.39 54.78l0 -113c0,-2.1 -0.29,-3.46 -0.87,-4.06 -0.58,-0.61 -1.79,-0.84 -3.62,-0.75 -8.02,0.66 -15.3,3.88 -21.87,9.71 -7.48,6.59 -14.71,17.05 -21.78,31.29l-18.2 -8.22 9.93 -29 10.02 -29 0 0 68.47 0 0 0 68.46 0 0 0 9.93 28.96 10.02 28.95 -18.2 8.22c-7.07,-14.25 -14.31,-24.61 -21.79,-31.2 -6.56,-5.83 -13.84,-9.05 -21.87,-9.71 -1.82,-0.09 -3.02,0.14 -3.61,0.75 -0.58,0.6 -0.87,1.96 -0.87,4.06l0 113c0,9.48 1.21,15.78 3.66,18.91 2.41,3.08 7.6,4.91 15.55,5.47l4.73 0.42 0 22.97 -46.01 0 -46.03 0 0 -22.97 4.74 -0.42c7.94,-0.56 13.14,-2.39 15.55,-5.47 2.46,-3.13 3.66,-9.43 3.66,-18.91zm141.45 0l0 -95.25c0,-9.53 -1.13,-15.79 -3.33,-18.82 -2.24,-3.08 -7.03,-4.95 -14.38,-5.56l-4.5 -0.42 0 -22.98 44.28 0 44.27 0 0 22.98 -4.49 0.42c-7.36,0.61 -12.14,2.48 -14.38,5.56 -2.21,3.03 -3.33,9.29 -3.33,18.82l0 95.25c0,9.53 1.12,15.78 3.33,18.82 2.24,3.08 7.02,4.9 14.38,5.56l4.49 0.42 0 22.97 -44.27 0 -44.28 0 0 -22.97 4.5 -0.42c7.35,-0.66 12.18,-2.53 14.42,-5.61 2.21,-3.03 3.29,-9.24 3.29,-18.77zm258.08 -7.98c-7.23,19.51 -17.91,34.5 -32.04,44.91 -14.1,10.42 -30.89,15.6 -50.3,15.6 -25.66,0 -46.98,-9.38 -63.98,-28.11 -17,-18.77 -25.53,-42.35 -25.53,-70.83 0,-30.45 7.9,-54.96 23.7,-73.55 15.75,-18.54 36.54,-27.83 62.35,-27.83 15.18,0 28.81,3.74 40.91,11.21l0 0 2.95 -6.45 15.01 0 0 0 22.19 66.13 0 0 -19.45 7.8c-7.36,-16.91 -15.8,-29.94 -25.24,-39 -9.43,-9.1 -19.24,-13.63 -29.47,-13.63 -13.75,0 -24.69,6.58 -32.75,19.7 -8.07,13.12 -12.1,30.96 -12.1,53.47 0,22.46 4.33,40.2 12.93,53.23 8.6,13.03 20.29,19.56 35.09,19.56 10.97,0 21.2,-3.78 30.63,-11.29 9.48,-7.52 17.75,-18.5 24.82,-32.92l20.28 12zm29.16 7.98l53.8 -143.03 19.29 0 19.36 0 51.18 143.03c3.49,9.53 6.65,15.78 9.48,18.82 2.86,3.08 7.23,4.9 13.18,5.56l3.53 0.42 0 22.97 -44.86 0 -44.85 0 0 -22.97 5.03 -0.42c8.27,-0.56 13.18,-2.39 14.72,-5.47 1.54,-3.08 0.66,-9.38 -2.66,-18.86l-6.36 -19.24 0 0 -55.88 0 0 0 -6.56 19.24c-3.49,9.48 -4.41,15.73 -2.75,18.82 1.67,3.03 6.91,4.9 15.76,5.51l5.36 0.42 0 22.97 -37.61 0 -37.67 0 0 -22.97 3.78 -0.42c5.61,-0.56 10.35,-2.71 14.26,-6.59 3.87,-3.83 7.36,-9.76 10.47,-17.79zm63.48 -100.86l-19.57 55.89 0 0 38.36 0 0 0 -18.82 -55.89 0.03 0zm120.87 148.63l0 -22.97 4.29 -0.42c7.05,-0.56 11.68,-2.39 13.87,-5.47 2.2,-3.13 3.29,-9.38 3.29,-18.91l0 -95.25c0,-9.53 -1.09,-15.79 -3.29,-18.82 -2.19,-3.08 -6.82,-4.95 -13.87,-5.56l-4.29 -0.42 0 -22.98 43.52 0 43.53 0 0 22.98 -4.28 0.42c-7.07,0.61 -11.68,2.48 -13.89,5.56 -2.2,3.03 -3.29,9.33 -3.29,18.82l0 100.15c0,7.48 1,12.28 3,14.43 1.95,2.15 6.24,3.04 12.8,2.66 12.85,-0.84 23.74,-4.66 32.68,-11.53 10.15,-7.75 20.29,-21.11 30.35,-40.01l17.45 10.41 -12.96 33.38 -12.97 33.53 0 0 -70.35 0 0 0 -65.59 0z"/>
  </g>
 </g>
</svg>
