<?xml version="1.0" encoding="UTF-8"?>
<!DOCTYPE svg PUBLIC "-//W3C//DTD SVG 1.1//EN" "http://www.w3.org/Graphics/SVG/1.1/DTD/svg11.dtd">
<!-- Creator: CorelDRAW 2021 (64-Bit) -->
<svg xmlns="http://www.w3.org/2000/svg" xml:space="preserve" width="33.8666mm" height="33.8666mm" version="1.1" style="shape-rendering:geometricPrecision; text-rendering:geometricPrecision; image-rendering:optimizeQuality; fill-rule:evenodd; clip-rule:evenodd"
viewBox="0 0 3386.66 3386.66"
 xmlns:xlink="http://www.w3.org/1999/xlink"
 xmlns:xodm="http://www.corel.com/coreldraw/odm/2003">
 <defs>
  <style type="text/css">
   <![CDATA[
    .fil0 {fill:#E31E24}
   ]]>
  </style>
 </defs>
 <g id="Layer_x0020_1">
  <metadata id="CorelCorpID_0Corel-Layer"/>
  <g id="_1357500401776">
   <polygon class="fil0" points="643.89,1631.47 743.51,1573.95 743.51,1828.39 777.12,1849.5 777.12,1557.9 825.66,1529.87 874.29,1557.95 874.29,1703.47 907.19,1703.47 907.19,1575.49 1005.32,1632.15 1005.32,1798.38 907.45,1854.89 907.45,1730.41 874.73,1730.41 874.73,1870.02 822.29,1908.03 643.89,1802.4 "/>
   <path class="fil0" d="M622.61 1627.33l-50.69 0.11c-2.8,0.05 -2.03,-1.84 -0.83,-2.43l253.52 -146.37 249.55 144.08c3.79,1.8 3.88,4.73 -0.98,4.61l-46.57 0 -202 -117.26 -202 117.26z"/>
   <path class="fil0" d="M1164.55 1643.39c0,-10.15 -0.07,-18.17 -0.2,-24.06 -0.13,-5.88 -0.34,-9.89 -0.6,-12.03 -1.87,-12.3 -7.89,-22.06 -18.05,-29.27 -5.88,-4.01 -8.82,-7.63 -8.82,-10.84 0,-5.08 2.4,-7.62 7.21,-7.62 1.08,0 3.88,0.81 8.43,2.4 13.64,5.09 26.34,7.63 38.1,7.63 12.57,0 25.8,-3.07 39.71,-9.22 1.87,-1.08 3.75,-1.61 5.62,-1.61 5.61,0 8.42,2.67 8.42,8.02 0,3.22 -3.08,7.09 -9.23,11.63 -8.83,5.89 -14.3,15.78 -16.45,29.68 -0.26,1.34 -0.46,4.95 -0.59,10.84 -0.14,5.88 -0.21,14.03 -0.21,24.45l0 73c0,13.91 0.8,25 2.41,33.3 1.87,10.43 6.88,18.77 15.05,25.06 8.15,6.29 17.57,9.43 28.26,9.43 15.25,0 27.68,-6.02 37.31,-18.05 7.22,-9.1 10.82,-25.8 10.82,-50.14l0 -66.98c0,-17.91 -1.33,-30.87 -4.01,-38.9 -3.74,-12.03 -11.36,-22.06 -22.85,-30.08 -7.49,-5.08 -11.24,-9.36 -11.24,-12.84 0,-4.81 2.28,-7.22 6.82,-7.22 1.88,0 5.22,0.94 10.04,2.81 12.03,4.01 23.12,6.02 33.28,6.02 13.1,0 25.27,-2.55 36.5,-7.62 2.67,-1.61 5.07,-2.41 7.22,-2.41 5.08,0 7.62,2.67 7.62,8.02 0,2.67 -2.68,6.29 -8.02,10.83 -12.3,8.82 -20.19,18.85 -23.66,30.08 -2.95,8.82 -4.42,21.66 -4.42,38.51l0 70.18c0,4.55 0.07,8.37 0.2,11.44 0.14,3.08 0.33,5.27 0.61,6.61 1.33,6.15 4.41,10.96 9.22,14.44 3.21,2.41 4.81,5.09 4.81,8.02 0,13.11 -6.15,27.01 -18.45,41.72 -18.99,22.99 -44.38,34.49 -76.2,34.49 -19.79,0 -37.44,-4.95 -52.95,-14.84 -24.06,-15.51 -37.56,-38.37 -40.51,-68.58 -0.8,-7.22 -1.2,-18.19 -1.2,-32.9l0 -73.4zm374.54 171.67c-2.94,8.83 -7.35,13.24 -13.24,13.24 -5.88,0 -10.02,-4.41 -12.43,-13.24l-54.54 -183.7c3.2,23.8 4.81,49.6 4.81,77.41 0,15.78 -0.6,30.08 -1.81,42.92 -1.2,12.83 -2.87,24.33 -5.01,34.49 -7.22,31.28 -22.6,46.93 -46.13,46.93 -11.22,0 -20.25,-3.81 -27.07,-11.43 -6.82,-7.62 -10.23,-17.05 -10.23,-28.28 0,-11.23 3.48,-20.58 10.44,-28.08 4.81,-5.07 9.75,-7.61 14.83,-7.61 0.27,0 1.07,0.33 2.41,1 1.33,0.67 2.74,1.41 4.21,2.2 1.47,0.81 3.01,1.54 4.61,2.21 1.61,0.67 2.94,1.01 4.01,1.01 14.17,0 21.26,-31.56 21.26,-94.67 0,-23.79 -1.06,-40.63 -3.21,-50.52 -4.01,-15.25 -13.1,-29.02 -27.27,-41.32 -5.35,-4.54 -8.02,-8.16 -8.02,-10.83 0,-5.08 2.4,-7.62 7.22,-7.62 1.6,0 4.81,0.93 9.62,2.8 16.04,5.9 31.55,8.83 46.52,8.83 13.64,0 28.48,-2.68 44.53,-8.02 6.41,-2.4 10.3,-3.61 11.63,-3.61 5.08,0 7.62,2.67 7.62,8.02 0,3.21 -2.41,6.56 -7.22,10.03 -7.22,5.35 -10.83,11.77 -10.83,19.25 0,4.28 1.07,10.03 3.21,17.25l30.08 100.67 29.28 -100.67c2.14,-8.02 3.2,-13.51 3.2,-16.45 0,-7.21 -4.27,-14.3 -12.83,-21.25 -4.27,-3.21 -6.41,-6.28 -6.41,-9.23 0,-5.08 2.67,-7.62 8.02,-7.62 2.14,0 6.82,1.34 14.04,4.01 13.1,4.28 27,6.42 41.7,6.42 14.18,0 28.09,-3.07 41.72,-9.22 1.87,-1.08 3.74,-1.61 5.62,-1.61 5.61,0 8.42,2.67 8.42,8.02 0,3.22 -3.08,7.09 -9.23,11.63 -7.75,5.35 -12.43,11.24 -14.03,17.65 -2.14,8.02 -3.22,23.8 -3.22,47.32l0 121.53c0,14.98 0.55,24.07 1.61,27.28 1.87,7.75 7.89,13.77 18.05,18.05 5.08,1.87 7.62,4.54 7.62,8.02 0,5.35 -3.74,8.02 -11.23,8.02l-85.43 0c-7.22,0 -10.83,-2.67 -10.83,-8.02 0,-3.21 3.48,-6.29 10.42,-9.23 8.03,-3.47 13.11,-9.62 15.25,-18.44 0.8,-3.48 1.2,-12.04 1.2,-25.68l0 -133.56 -52.94 183.7zm291.92 -121.52c8.55,10.95 16.04,25.13 22.46,42.51 3.74,-8.29 9.22,-17.51 16.45,-27.68l-22.06 -76.2 -16.85 61.37zm46.93 42.51c-3.48,4.81 -8.69,14.7 -15.65,29.68 -2.4,5.34 -6.01,8.02 -10.83,8.02 -5.61,0 -9.22,-3.21 -10.82,-9.62 -4.56,-16.86 -10.83,-31.03 -18.86,-42.52 -12.29,41.71 -28.34,72.86 -48.13,93.45 -11.76,12.03 -26.33,18.05 -43.71,18.05 -12.03,0 -21.86,-3.68 -29.48,-11.03 -7.62,-7.36 -11.43,-17.05 -11.43,-29.08 0,-9.89 3.07,-18.59 9.22,-26.07 6.42,-8.02 14.71,-12.03 24.87,-12.03 4.54,0 7.89,2.4 10.03,7.22 2.41,6.68 6.95,10.03 13.64,10.03 12.83,0 24.46,-10.43 34.89,-31.29 4.01,-8.02 9.62,-21.66 16.84,-40.91 -4.54,-2.67 -9.22,-4.01 -14.04,-4.01 -8.55,0 -12.83,3.88 -12.83,11.63 0,1.87 0.54,4.41 1.6,7.62 0.27,0.27 0.4,0.93 0.4,2.01 0,4.54 -3.74,6.82 -11.22,6.82 -6.43,0 -11.9,-2.68 -16.45,-8.03 -3.74,-5.08 -5.61,-10.96 -5.61,-17.64 0,-11.23 4.41,-20.32 13.23,-27.27 6.96,-5.89 15.11,-8.83 24.47,-8.83 9.63,0 19.52,3.2 29.68,9.63l11.63 -39.71c2.94,-10.43 4.41,-18.45 4.41,-24.07 0,-8.82 -4.94,-17.64 -14.84,-26.46 -5.08,-4.29 -7.62,-8.16 -7.62,-11.63 0,-6.7 3.61,-10.04 10.83,-10.04 2.68,0 6.41,0.94 11.23,2.81 15.24,5.09 27.54,7.62 36.9,7.62 9.63,0 21.25,-2.53 34.89,-7.62 5.35,-1.87 9.63,-2.81 12.83,-2.81 6.96,0 10.44,3.08 10.44,9.23 0,3.21 -2.41,6.82 -7.22,10.83 -9.36,7.75 -14.04,16.17 -14.04,25.27 0,3.74 1.07,9.22 3.21,16.44l44.12 150c5.08,17.65 13.5,29.55 25.26,35.7 6.15,2.94 9.23,6.28 9.23,10.02 0,5.89 -5.22,8.83 -15.64,8.83l-74.2 0c-8.03,0 -12.04,-2.4 -12.04,-7.22 0,-3.48 2.28,-6.42 6.82,-8.82 6.69,-3.48 10.03,-7.89 10.03,-13.24 0,-3.74 -0.93,-8.82 -2.81,-15.24l-13.23 -45.72zm281.49 -75.4l0 -17.26c0,-20.05 -0.4,-32.08 -1.21,-36.09 -1.87,-12.3 -7.88,-22.06 -18.04,-29.27 -5.88,-4.01 -8.83,-7.63 -8.83,-10.84 0,-5.08 2.41,-7.62 7.22,-7.62 1.08,0 3.88,0.81 8.43,2.4 13.63,5.09 26.33,7.63 38.1,7.63 12.56,0 25.8,-3.07 39.7,-9.22 1.88,-1.08 3.75,-1.61 5.62,-1.61 5.62,0 8.42,2.67 8.42,8.02 0,3.22 -3.07,7.09 -9.23,11.63 -8.82,5.89 -14.3,15.78 -16.44,29.68 -0.26,1.34 -0.47,4.95 -0.6,10.84 -0.14,5.88 -0.2,14.03 -0.2,24.45l0 121.53c0,14.98 0.54,24.07 1.61,27.28 2.41,7.75 8.42,13.77 18.05,18.05 5.07,1.87 7.62,4.54 7.62,8.02 0,5.35 -3.75,8.02 -11.23,8.02l-85.04 0c-7.49,0 -11.22,-2.67 -11.22,-8.02 0,-3.21 3.6,-6.29 10.83,-9.23 8.02,-3.74 13.1,-9.89 15.23,-18.44 0.81,-3.48 1.21,-12.04 1.21,-25.68l0 -80.61c-9.36,3.74 -15.37,7.09 -18.05,10.02 -3.21,3.22 -5.88,9.23 -8.02,18.05 -2.14,9.63 -6.15,14.44 -12.03,14.44 -4.01,0 -7.63,-3.34 -10.83,-10.03 -3.74,-7.21 -7.75,-10.83 -12.03,-10.83 -2.15,0 -7.62,1.48 -16.45,4.42l0 54.54c0,14.98 0.53,24.07 1.6,27.28 1.87,7.75 7.89,13.77 18.05,18.05 5.09,1.87 7.62,4.54 7.62,8.02 0,5.35 -3.74,8.02 -11.23,8.02l-85.42 0c-7.23,0 -10.83,-2.67 -10.83,-8.02 0,-3.21 3.48,-6.29 10.42,-9.23 8.02,-3.47 13.11,-9.62 15.24,-18.44 0.8,-3.48 1.21,-12.04 1.21,-25.68l0 -121.53c0,-10.15 -0.07,-18.17 -0.21,-24.06 -0.13,-5.88 -0.33,-9.89 -0.6,-12.03 -1.87,-12.3 -7.88,-22.06 -18.04,-29.27 -5.88,-4.01 -8.82,-7.63 -8.82,-10.84 0,-5.08 2.4,-7.62 7.21,-7.62 1.08,0 3.88,0.81 8.43,2.4 13.63,5.09 26.33,7.63 38.1,7.63 12.56,0 25.8,-3.07 39.71,-9.22 1.86,-1.08 3.74,-1.61 5.61,-1.61 5.61,0 8.43,2.67 8.43,8.02 0,3.22 -3.08,7.09 -9.23,11.63 -8.82,5.89 -14.31,15.78 -16.45,29.68 -0.27,1.34 -0.47,4.95 -0.6,10.84 -0.14,5.88 -0.2,14.03 -0.2,24.45l0 42.92 77.41 -25.66zm238.57 32.89c8.56,10.95 16.04,25.13 22.47,42.51 3.74,-8.29 9.22,-17.51 16.44,-27.68l-22.06 -76.2 -16.85 61.37zm46.93 42.51c-3.47,4.81 -8.69,14.7 -15.64,29.68 -2.41,5.34 -6.02,8.02 -10.83,8.02 -5.61,0 -9.23,-3.21 -10.83,-9.62 -4.55,-16.86 -10.83,-31.03 -18.85,-42.52 -12.3,41.71 -28.34,72.86 -48.13,93.45 -11.76,12.03 -26.34,18.05 -43.71,18.05 -12.04,0 -21.87,-3.68 -29.49,-11.03 -7.62,-7.36 -11.43,-17.05 -11.43,-29.08 0,-9.89 3.08,-18.59 9.23,-26.07 6.41,-8.02 14.7,-12.03 24.86,-12.03 4.55,0 7.89,2.4 10.03,7.22 2.41,6.68 6.96,10.03 13.64,10.03 12.83,0 24.46,-10.43 34.89,-31.29 4.01,-8.02 9.63,-21.66 16.85,-40.91 -4.55,-2.67 -9.23,-4.01 -14.04,-4.01 -8.56,0 -12.84,3.88 -12.84,11.63 0,1.87 0.54,4.41 1.6,7.62 0.28,0.27 0.41,0.93 0.41,2.01 0,4.54 -3.74,6.82 -11.23,6.82 -6.42,0 -11.9,-2.68 -16.44,-8.03 -3.75,-5.08 -5.62,-10.96 -5.62,-17.64 0,-11.23 4.41,-20.32 13.24,-27.27 6.95,-5.89 15.1,-8.83 24.46,-8.83 9.63,0 19.52,3.2 29.68,9.63l11.63 -39.71c2.95,-10.43 4.42,-18.45 4.42,-24.07 0,-8.82 -4.95,-17.64 -14.85,-26.46 -5.08,-4.29 -7.62,-8.16 -7.62,-11.63 0,-6.7 3.61,-10.04 10.84,-10.04 2.67,0 6.41,0.94 11.23,2.81 15.23,5.09 27.54,7.62 36.89,7.62 9.63,0 21.26,-2.53 34.89,-7.62 5.35,-1.87 9.63,-2.81 12.84,-2.81 6.95,0 10.43,3.08 10.43,9.23 0,3.21 -2.41,6.82 -7.22,10.83 -9.36,7.75 -14.04,16.17 -14.04,25.27 0,3.74 1.07,9.22 3.21,16.44l44.12 150c5.08,17.65 13.5,29.55 25.26,35.7 6.15,2.94 9.23,6.28 9.23,10.02 0,5.89 -5.21,8.83 -15.64,8.83l-74.2 0c-8.02,0 -12.03,-2.4 -12.03,-7.22 0,-3.48 2.27,-6.42 6.82,-8.82 6.68,-3.48 10.02,-7.89 10.02,-13.24 0,-3.74 -0.93,-8.82 -2.81,-15.24l-13.23 -45.72zm263.85 -28.88c11.5,7.75 23.53,11.63 36.09,11.63 1.61,0 6.02,-0.4 13.24,-1.2 5.61,0 8.42,2.53 8.42,7.62 0,1.34 -0.6,3.74 -1.81,7.22 -1.19,3.48 -1.8,6.15 -1.8,8.02 0,2.94 1.2,6.95 3.61,12.03l13.23 28.48c6.42,14.17 15.79,23.66 28.09,28.47 5.88,1.88 8.82,4.82 8.82,8.83 0,5.35 -5.48,8.02 -16.44,8.02l-80.62 0c-8.03,0 -12.04,-2.8 -12.04,-8.43 0,-3.47 2.14,-6.15 6.42,-8.02 6.68,-2.67 10.03,-6.54 10.03,-11.63 0,-7.75 -5.08,-20.71 -15.24,-38.9 -3.75,-6.95 -7.62,-13.44 -11.63,-19.45 -4.01,-6.02 -7.89,-11.57 -11.64,-16.65 -10.69,-13.9 -17.64,-24.06 -20.85,-30.48 -4.55,-10.43 -6.82,-19.51 -6.82,-27.28 0,-11.22 3.47,-21.11 10.42,-29.67 6.69,-9.09 15.78,-13.63 27.28,-13.63 7.76,0 14.17,2.14 19.25,6.41 5.88,4.81 8.83,10.82 8.83,18.05 0,4.81 -1.54,8.95 -4.62,12.43 -3.07,3.48 -6.88,5.22 -11.43,5.22 -5.07,0 -7.61,-2.14 -7.61,-6.43 0,-1.33 1,-3.07 3,-5.21 2.01,-2.13 3.01,-3.87 3.01,-5.21 0,-5.35 -3.34,-8.03 -10.03,-8.03 -4.81,0 -8.89,1.88 -12.24,5.62 -3.34,3.75 -5,8.16 -5,13.24 0,7.49 2.94,13.36 8.82,17.65 5.07,4.01 11.5,6.01 19.25,6.01 9.89,0 18.31,-3.08 25.27,-9.22 8.55,-7.76 12.83,-17.65 12.83,-29.68 0,-12.03 -4.41,-22.33 -13.23,-30.89 -8.56,-7.75 -19.25,-11.63 -32.09,-11.63 -21.39,0 -36.49,9.76 -45.32,29.28 -3.2,7.75 -4.81,22.2 -4.81,43.32l0 91.84c0,14.98 0.53,24.07 1.61,27.28 1.87,7.48 7.74,13.5 17.64,18.05 5.08,1.87 7.61,4.54 7.61,8.02 0,5.35 -3.6,8.02 -10.82,8.02l-85.43 0c-7.22,0 -10.83,-2.67 -10.83,-8.02 0,-3.21 3.47,-6.29 10.43,-9.23 8.02,-3.47 13.11,-9.62 15.23,-18.44 0.81,-3.48 1.21,-12.04 1.21,-25.68l0 -111.1c0,-15.5 -5.07,-24.72 -15.24,-27.66 -5.88,-1.61 -8.82,-4.69 -8.82,-9.23 0,-4.55 4.27,-11.51 12.83,-20.86 25.94,-28.34 59.76,-42.51 101.47,-42.51 27.55,0 51.21,7.08 71,21.26 22.19,15.77 33.29,37.03 33.29,63.77 0,20.58 -7.09,37.3 -21.26,50.13 -13.9,12.57 -31.02,18.85 -51.34,18.85 -1.34,0 -2.81,0 -4.42,0 -1.33,0 -2.93,-0.13 -4.8,-0.4z"/>
  </g>
 </g>
</svg>
