<?xml version="1.0" encoding="UTF-8"?>
<!DOCTYPE svg PUBLIC "-//W3C//DTD SVG 1.1//EN" "http://www.w3.org/Graphics/SVG/1.1/DTD/svg11.dtd">
<!-- Creator: CorelDRAW 2021 (64-Bit) -->
<svg xmlns="http://www.w3.org/2000/svg" xml:space="preserve" width="33.8666mm" height="33.8666mm" version="1.1" style="shape-rendering:geometricPrecision; text-rendering:geometricPrecision; image-rendering:optimizeQuality; fill-rule:evenodd; clip-rule:evenodd"
viewBox="0 0 3386.66 3386.66"
 xmlns:xlink="http://www.w3.org/1999/xlink"
 xmlns:xodm="http://www.corel.com/coreldraw/odm/2003">
 <defs>
  <style type="text/css">
   <![CDATA[
    .fil0 {fill:#37307D;fill-rule:nonzero}
   ]]>
  </style>
 </defs>
 <g id="Layer_x0020_1">
  <metadata id="CorelCorpID_0Corel-Layer"/>
  <g id="_1357588959568">
   <path class="fil0" d="M2165.23 -44956.77c-12.49,27.37 -30.01,51.15 -52.52,71.3 -22.51,20.22 -49.33,36.06 -80.5,47.58 -31.18,11.47 -65.45,17.22 -102.77,17.22 -37.3,0 -71.58,-5.75 -102.76,-17.22 -31.18,-11.52 -58.14,-27.26 -80.88,-47.17 -22.77,-19.94 -40.39,-43.58 -52.91,-70.94 -12.54,-27.34 -18.79,-56.85 -18.79,-88.58l0 -302.85 157.2 0 0 310.55c0,12.28 2.43,23.91 7.3,34.9 4.81,10.97 11.73,20.69 20.7,29.13 8.91,8.42 19.41,15.07 31.41,19.94 12.04,4.85 24.96,7.29 38.73,7.29 13.81,0 26.61,-2.44 38.37,-7.29 11.73,-4.87 22.07,-11.52 31.02,-19.94 8.95,-8.44 15.86,-18.16 20.7,-29.13 4.87,-10.99 7.33,-22.62 7.33,-34.9l0 -310.55 157.17 0 0 302.09c0,31.73 -6.29,61.24 -18.8,88.57zm593.89 120.76l0 -511.42 -154.9 0 0 276.04 -177.11 -276.04 -160.26 0 0 511.42 154.87 0 0 -290.6 188.98 290.6 148.42 0zm82.81 0.02l154.88 0 0 -511.46 -154.88 0 0 511.46zm608.07 -512.23l-397.99 0 0 123.48 121.97 -0.77 0 389.5 154.84 0 0 -389.5 121.18 0.77 0 -123.48zm552.14 0.79l-173.34 0 -94.3 172.51 -95.11 -172.51 -174.82 0 192.46 308.24 0 203.18 152.6 0 0 -203.18 192.51 -308.24z"/>
   <path class="fil0" d="M1692.35 -44414.35l2250.07 0 0 -286.1 -2250.07 0 0 286.1zm325.38 -85.45c16.6,0 31.21,-10.45 38.05,-23.66l29.71 14.42c-11.45,20.21 -32.17,39.95 -67.76,39.95 -48.97,0 -86.73,-34.11 -86.73,-84.07 0,-50.21 37.76,-84.07 86.73,-84.07 35.59,0 56.31,19.24 67.76,39.7l-29.71 14.63c-6.84,-13.15 -21.45,-23.65 -38.05,-23.65 -29.74,0 -51.2,22.69 -51.2,53.39 0,30.7 21.46,53.36 51.2,53.36zm364.36 -104.3l-80.4 0 0 34.1 78.71 0 0 30.49 -78.71 0 0 37.03 80.4 0 0 30.44 -115.02 0 0 -162.5 115.02 0 0 30.44zm364.12 132.06l-34.83 0 0 -117.19 -45.82 117.19 -15.08 0 -45.85 -117.19 0 117.19 -34.58 0 0 -162.5 48.49 0 39.47 101.59 39.49 -101.59 48.71 0 0 162.5zm308.11 -132.06l-80.4 0 0 34.1 78.7 0 0 30.49 -78.7 0 0 37.03 80.4 0 0 30.44 -115.03 0 0 -162.5 115.03 0 0 30.44zm333.42 132.06l-33.4 0 -77.49 -105.99 0 105.99 -34.62 0 0 -162.5 35.6 0 75.28 102.11 0 -102.11 34.63 0 0 162.5zm312.69 -132.06l-47.28 0 0 132.06 -34.85 0 0 -132.06 -47.53 0 0 -30.44 129.66 0 0 30.44z"/>
   <path class="fil0" d="M2486.72 -47350.83l-480.58 288.38 477.81 -436.67 1186.15 560.82 -1183.38 -412.53zm893.43 156.36l-895.43 -514.48 -334.1 371.84 336.08 -263.7 893.45 406.34zm-106.63 241.51l303.81 80.33 -3.62 742.11c-10.98,341.95 -224.33,594.67 -492.36,604.57 -38.69,5.35 -104.31,12.27 -184.21,12.27 -53.6,0 -113.59,-3.11 -175.98,-11.95 -369.94,-52.33 -584.98,-317.39 -584.98,-674.45l0 -762.84 352.11 -184.74 0.01 0 405.44 100.53 2.73 0.67 -2.73 30.16 0 809.11c0,39.5 1.04,206.56 192.03,235.72 119.79,18.29 176.19,-81.47 176.19,-171.63l0 -812.75 11.56 2.89zm-459.14 1367.19c-209.41,-97.73 -326.39,-295.86 -326.39,-507.06l0 -976.51 -282.45 148.37 0 720.89c0,332.8 196.39,559.24 525.36,605.78 27.08,3.82 55,6.66 83.48,8.53z"/>
   <path class="fil0" d="M1594.04 -44102.75l0 150.22c0,17.31 3.41,30.24 10.18,38.78 6.78,8.54 18.14,12.81 34.05,12.81 15.91,0 27.27,-4.27 34.03,-12.81 6.8,-8.54 10.19,-21.47 10.19,-38.78l0 -150.22 51.94 0 0 144.61c0,18 -1.7,33.61 -5.09,46.84 -3.37,13.22 -8.94,24.11 -16.67,32.64 -7.72,8.54 -17.65,14.86 -29.83,18.95 -12.17,4.11 -27.03,6.16 -44.57,6.16 -17.55,0 -32.41,-2.05 -44.58,-6.16 -12.16,-4.09 -22.11,-10.41 -29.83,-18.95 -7.73,-8.53 -13.28,-19.42 -16.67,-32.64 -3.38,-13.23 -5.1,-28.84 -5.1,-46.84l0 -144.61 51.95 0z"/>
   <path class="fil0" d="M1777.25 -43857.77l0 -184.27 51.95 0 0 31.24 2.1 0c3.29,-9.59 9.02,-17.9 17.2,-24.92 8.19,-7.02 19.55,-10.53 34.05,-10.53 18.95,0 33.28,6.32 42.99,18.96 9.7,12.63 14.57,30.65 14.57,54.04l0 115.48 -51.95 0 0 -111.26c0,-11.94 -1.86,-20.77 -5.61,-26.51 -3.74,-5.72 -10.43,-8.59 -20.01,-8.59 -4.22,0 -8.3,0.51 -12.3,1.57 -3.96,1.06 -7.53,2.76 -10.69,5.1 -3.16,2.33 -5.68,5.19 -7.55,8.6 -1.86,3.4 -2.8,7.31 -2.8,11.75l0 119.34 -51.95 0z"/>
   <path class="fil0" d="M1979.41 -44042.04l51.95 0 0 184.27 -51.95 0 0 -184.27zm25.98 -19.65c-10.54,0 -18.2,-2.39 -22.99,-7.2 -4.79,-4.8 -7.21,-10.92 -7.21,-18.41l0 -7.73c0,-7.49 2.42,-13.62 7.21,-18.43 4.79,-4.8 12.45,-7.19 22.99,-7.19 10.53,0 18.2,2.39 22.99,7.19 4.78,4.81 7.19,10.94 7.19,18.43l0 7.73c0,7.49 -2.41,13.61 -7.19,18.41 -4.79,4.81 -12.46,7.2 -22.99,7.2z"/>
   <path class="fil0" d="M2137.35 -43857.77c-17.99,0 -31.64,-4.57 -40.88,-13.69 -9.25,-9.12 -13.86,-22.47 -13.86,-40.02l0 -90.2 -25.98 0 0 -40.36 12.98 0c7.02,0 11.83,-1.68 14.4,-5.1 2.58,-3.37 3.85,-8.25 3.85,-14.56l0 -30.18 46.67 0 0 49.84 36.52 0 0 40.36 -36.52 0 0 103.55 33.71 0 0 40.36 -30.89 0z"/>
   <path class="fil0" d="M2312.83 -44042.04l48.45 0 -70.9 212.7c-4.67,14.27 -11.27,24.8 -19.83,31.58 -8.53,6.81 -20.76,10.18 -36.69,10.18l-32.28 0 0 -40.37 34.73 0 6.33 -20.35 -64.57 -193.74 51.59 0 27.02 86 13.34 53.34 2.12 0 13.68 -53.34 27.01 -86z"/>
   <path class="fil0" d="M2456.38 -44042.04l51.96 0 0 184.27 -51.96 0 0 -184.27zm25.98 -19.65c-10.52,0 -18.18,-2.39 -22.98,-7.2 -4.8,-4.8 -7.2,-10.92 -7.2,-18.41l0 -7.73c0,-7.49 2.4,-13.62 7.2,-18.43 4.8,-4.8 12.46,-7.19 22.98,-7.19 10.53,0 18.2,2.39 23,7.19 4.79,4.81 7.18,10.94 7.18,18.43l0 7.73c0,7.49 -2.39,13.61 -7.18,18.41 -4.8,4.81 -12.47,7.2 -23,7.2z"/>
   <path class="fil0" d="M2612.23 -43853.56c-17.78,0 -32.76,-2.86 -44.93,-8.59 -12.15,-5.74 -23.05,-13.86 -32.64,-24.4l30.55 -30.9c6.55,7.26 13.79,12.99 21.74,17.2 7.96,4.22 16.97,6.33 27.03,6.33 10.31,0 17.45,-1.58 21.41,-4.74 3.98,-3.16 5.98,-7.43 5.98,-12.82 0,-8.63 -6.21,-13.79 -18.62,-15.44l-20.01 -2.45c-41.41,-5.14 -62.1,-24.1 -62.1,-56.87 0,-8.88 1.69,-17.02 5.08,-24.39 3.39,-7.37 8.2,-13.69 14.4,-18.96 6.19,-5.25 13.68,-9.35 22.46,-12.27 8.77,-2.93 18.65,-4.38 29.65,-4.38 9.59,0 18.08,0.65 25.46,1.92 7.35,1.3 13.92,3.16 19.64,5.62 5.73,2.46 11.01,5.5 15.79,9.11 4.8,3.64 9.53,7.68 14.22,12.12l-29.85 30.55c-5.84,-5.86 -12.45,-10.49 -19.8,-13.88 -7.38,-3.39 -14.94,-5.08 -22.65,-5.08 -8.88,0 -15.2,1.39 -18.96,4.21 -3.73,2.81 -5.61,6.55 -5.61,11.22 0,4.92 1.35,8.72 4.04,11.41 2.68,2.71 7.78,4.63 15.27,5.79l20.69 2.8c40.49,5.41 60.73,23.89 60.73,55.47 0,8.89 -1.86,17.08 -5.61,24.57 -3.74,7.5 -9.08,13.98 -15.98,19.48 -6.9,5.49 -15.21,9.78 -24.91,12.8 -9.71,3.04 -20.54,4.57 -32.47,4.57z"/>
   <path class="fil0" d="M2877.56 -43853.56c-21.51,0 -39.77,-3.69 -54.75,-11.06 -14.96,-7.38 -27.72,-16.9 -38.25,-28.59l35.09 -35.47c16.62,18.74 37.09,28.1 61.42,28.1 13.12,0 22.82,-2.7 29.13,-8.1 6.32,-5.36 9.48,-12.5 9.48,-21.4 0,-6.78 -1.86,-12.45 -5.61,-17.02 -3.74,-4.55 -11.35,-7.66 -22.82,-9.29l-24.22 -3.16c-25.96,-3.29 -44.98,-11.11 -57.02,-23.53 -12.06,-12.4 -18.08,-28.9 -18.08,-49.47 0,-11.02 2.11,-21.08 6.31,-30.18 4.21,-9.14 10.24,-16.98 18.08,-23.53 7.85,-6.54 17.43,-11.63 28.78,-15.28 11.36,-3.62 24.28,-5.43 38.79,-5.43 18.48,0 34.75,2.93 48.79,8.78 14.02,5.85 26.08,14.38 36.14,25.62l-35.46 35.81c-5.83,-6.81 -12.92,-12.36 -21.23,-16.68 -8.3,-4.33 -18.77,-6.5 -31.41,-6.5 -11.93,0 -20.81,2.11 -26.68,6.31 -5.83,4.23 -8.76,10.06 -8.76,17.57 0,8.41 2.28,14.51 6.84,18.25 4.56,3.73 11.99,6.42 22.28,8.07l24.22 3.86c25.28,3.98 44,11.74 56.16,23.33 12.17,11.58 18.26,28.03 18.26,49.31 0,11.72 -2.12,22.48 -6.32,32.3 -4.22,9.83 -10.35,18.24 -18.43,25.26 -8.06,7.02 -18.09,12.45 -30.01,16.33 -11.94,3.85 -25.5,5.79 -40.72,5.79z"/>
   <path class="fil0" d="M3070.25 -43857.77c-18,0 -31.63,-4.57 -40.88,-13.69 -9.24,-9.12 -13.87,-22.47 -13.87,-40.02l0 -90.2 -25.98 0 0 -40.36 12.98 0c7.02,0 11.83,-1.68 14.4,-5.1 2.59,-3.37 3.86,-8.25 3.86,-14.56l0 -30.18 46.68 0 0 49.84 36.5 0 0 40.36 -36.5 0 0 103.55 33.69 0 0 40.36 -30.88 0z"/>
   <path class="fil0" d="M3133.07 -43857.77l0 -184.27 51.95 0 0 40.02 1.76 0c0.94,-5.15 2.57,-10.11 4.9,-14.92 2.35,-4.8 5.45,-9.07 9.31,-12.8 3.87,-3.74 8.5,-6.75 13.85,-8.96 5.41,-2.21 11.71,-3.34 18.96,-3.34l9.14 0 0 48.44 -13 0c-15.2,0 -26.49,1.98 -33.86,5.96 -7.36,4 -11.06,11.36 -11.06,22.12l0 107.75 -51.95 0z"/>
   <path class="fil0" d="M3341.91 -44007.98c-10.53,0 -18.77,3.45 -24.75,10.35 -5.95,6.91 -8.96,16.08 -8.96,27.55l0 2.79 64.59 0 0 -3.16c0,-11.22 -2.5,-20.27 -7.54,-27.18 -5.03,-6.9 -12.83,-10.35 -23.34,-10.35zm1.04 154.42c-14.02,0 -26.55,-2.28 -37.55,-6.85 -11,-4.56 -20.3,-10.99 -27.89,-19.29 -7.6,-8.31 -13.35,-18.43 -17.21,-30.37 -3.84,-11.92 -5.78,-25.26 -5.78,-40.02 0,-14.5 1.88,-27.65 5.62,-39.48 3.75,-11.8 9.3,-21.92 16.67,-30.35 7.37,-8.43 16.43,-14.92 27.19,-19.49 10.77,-4.56 23.07,-6.83 36.87,-6.83 15.2,0 28.24,2.58 39.13,7.71 10.87,5.15 19.76,12.06 26.66,20.72 6.9,8.65 11.94,18.66 15.1,29.99 3.15,11.35 4.73,23.23 4.73,35.63l0 15.45 -118.29 0 0 2.81c0,12.15 3.28,21.82 9.84,28.95 6.55,7.14 16.85,10.71 30.89,10.71 10.77,0 19.55,-2.17 26.33,-6.51 6.77,-4.31 13.1,-9.51 18.94,-15.6l25.97 32.27c-8.17,9.61 -18.88,17.09 -32.1,22.48 -13.21,5.38 -28.26,8.07 -45.12,8.07z"/>
   <path class="fil0" d="M3456.32 -43857.77l0 -184.27 51.96 0 0 31.24 2.09 0c3.28,-9.59 9.03,-17.9 17.21,-24.92 8.19,-7.02 19.53,-10.53 34.04,-10.53 18.96,0 33.29,6.32 43,18.96 9.7,12.63 14.57,30.65 14.57,54.04l0 115.48 -51.96 0 0 -111.26c0,-11.94 -1.85,-20.77 -5.61,-26.51 -3.74,-5.72 -10.42,-8.59 -20,-8.59 -4.22,0 -8.31,0.51 -12.3,1.57 -3.96,1.06 -7.53,2.76 -10.69,5.1 -3.17,2.33 -5.68,5.19 -7.56,8.6 -1.86,3.4 -2.79,7.31 -2.79,11.75l0 119.34 -51.96 0z"/>
   <path class="fil0" d="M3730.08 -43957.1c10.32,0 17.96,-2.18 23.01,-6.51 5.04,-4.31 7.53,-10.57 7.53,-18.76l0 -4.2c0,-8.2 -2.49,-14.45 -7.53,-18.79 -5.05,-4.33 -12.69,-6.49 -23.01,-6.49 -10.29,0 -17.95,2.16 -22.98,6.49 -5.04,4.34 -7.55,10.59 -7.55,18.79l0 4.2c0,8.19 2.51,14.45 7.55,18.76 5.03,4.33 12.69,6.51 22.98,6.51zm50.2 119.69c0,-5.39 -2.11,-9.49 -6.33,-12.29 -4.2,-2.81 -11.57,-4.22 -22.12,-4.22l-63.16 0c-2.34,2.35 -4.02,4.98 -5.08,7.9 -1.06,2.93 -1.59,5.81 -1.59,8.61 0,6.77 2.94,11.75 8.77,14.9 5.86,3.16 15.8,4.75 29.84,4.75l21.06 0c14.04,0 23.99,-1.59 29.83,-4.75 5.86,-3.15 8.78,-8.13 8.78,-14.9zm48.79 -7.02c0,9.83 -1.69,18.49 -5.09,25.97 -3.4,7.49 -8.97,13.85 -16.68,19.13 -7.72,5.25 -17.95,9.24 -30.7,11.93 -12.77,2.69 -28.5,4.03 -47.22,4.03 -15.9,0 -29.41,-0.99 -40.53,-2.98 -11.1,-2 -20.13,-4.8 -27.02,-8.43 -6.9,-3.61 -11.94,-8.08 -15.1,-13.33 -3.16,-5.26 -4.73,-11.27 -4.73,-18.08 0,-10.29 3.04,-18.38 9.1,-24.2 6.12,-5.86 14.53,-9.49 25.28,-10.9l0 -3.86c-8.87,-1.63 -15.55,-5.44 -19.99,-11.4 -4.45,-5.96 -6.68,-12.93 -6.68,-20.9 0,-4.9 1.02,-9.17 3,-12.79 1.98,-3.64 4.57,-6.8 7.72,-9.48 3.14,-2.69 6.83,-4.87 11.04,-6.49 4.21,-1.63 8.43,-2.93 12.65,-3.87l0 -1.41c-11.24,-5.12 -19.55,-12.21 -24.94,-21.22 -5.37,-9.02 -8.08,-19.47 -8.08,-31.41 0,-18.71 6.51,-33.77 19.49,-45.11 13,-11.35 32.82,-17.03 59.49,-17.03 12.19,0 22.59,1.2 31.24,3.53l0 -7.02c0,-9.84 2.42,-16.92 7.2,-21.24 4.78,-4.33 11.65,-6.49 20.52,-6.49l29.14 0 0 38.61 -40.72 0 0 2.1c10.79,5.14 18.73,12.22 23.88,21.22 5.16,9.02 7.73,19.49 7.73,31.43 0,18.49 -6.51,33.28 -19.47,44.39 -13,11.12 -32.83,16.67 -59.52,16.67 -11.92,0 -22.81,-1.27 -32.63,-3.86 -5.37,3.53 -8.07,8.43 -8.07,14.75 0,4.43 1.7,7.89 5.09,10.34 3.38,2.45 9.06,3.69 17.02,3.69l53.34 0c22.47,0 38.79,4.69 48.97,14.04 10.18,9.35 15.27,22.59 15.27,39.67z"/>
   <path class="fil0" d="M3909.78 -43857.77c-18,0 -31.64,-4.57 -40.88,-13.69 -9.24,-9.12 -13.85,-22.47 -13.85,-40.02l0 -90.2 -25.98 0 0 -40.36 12.98 0c7.02,0 11.83,-1.68 14.39,-5.1 2.58,-3.37 3.86,-8.25 3.86,-14.56l0 -30.18 46.67 0 0 49.84 36.52 0 0 40.36 -36.52 0 0 103.55 33.71 0 0 40.36 -30.9 0z"/>
   <path class="fil0" d="M3972.62 -44117.49l51.94 0 0 106.69 2.1 0c3.28,-9.59 9.02,-17.9 17.2,-24.92 8.2,-7.02 19.55,-10.53 34.04,-10.53 18.96,0 33.3,6.32 43.01,18.96 9.7,12.63 14.56,30.65 14.56,54.04l0 115.48 -51.96 0 0 -111.26c0,-11.94 -1.86,-20.77 -5.61,-26.51 -3.74,-5.72 -10.41,-8.59 -20,-8.59 -4.22,0 -8.31,0.51 -12.29,1.57 -3.97,1.06 -7.53,2.76 -10.69,5.1 -3.16,2.33 -5.68,5.19 -7.55,8.6 -1.88,3.4 -2.81,7.31 -2.81,11.75l0 119.34 -51.94 0 0 -259.72z"/>
   <path class="fil0" d="M4085.13 -45521.07l9.5 0c13.52,0 21.92,-0.51 25.19,-1.56 3.27,-1.04 5.84,-2.86 7.73,-5.46 1.89,-2.6 2.83,-5.55 2.83,-8.86 0,-3.23 -0.91,-6.07 -2.76,-8.58 -1.84,-2.51 -4.47,-4.3 -7.88,-5.41 -3.4,-1.08 -11.77,-1.61 -25.11,-1.61l-9.5 0 0 31.48zm-23.41 65.54l0 -115.33 23.41 0c21.93,0 34.23,0.09 36.88,0.29 7.75,0.65 13.78,2.19 18.1,4.6 4.29,2.41 7.88,6.11 10.78,11.07 2.88,4.96 4.31,10.47 4.31,16.52 0,8.33 -2.72,15.45 -8.15,21.37 -5.45,5.9 -13.07,9.56 -22.91,10.98 3.5,1.33 6.19,2.77 8.08,4.33 1.9,1.57 4.49,4.52 7.81,8.86 0.86,1.14 3.69,5.83 8.5,14.06l13.63 23.25 -28.94 0 -9.65 -18.71c-6.54,-12.58 -11.91,-20.52 -16.18,-23.77 -4.26,-3.26 -9.65,-4.9 -16.17,-4.9l-6.09 0 0 47.38 -23.41 0zm49.23 -145.54c-14.95,0 -29.29,3.74 -42.99,11.19 -13.71,7.48 -24.53,18.22 -32.41,32.22 -7.92,13.99 -11.86,28.67 -11.86,43.98 0,15.22 3.85,29.74 11.57,43.54 7.7,13.81 18.47,24.6 32.27,32.36 13.81,7.76 28.28,11.62 43.42,11.62 15.22,0 29.71,-3.86 43.48,-11.62 13.75,-7.76 24.51,-18.55 32.27,-32.36 7.76,-13.8 11.62,-28.32 11.62,-43.54 0,-15.31 -3.93,-29.99 -11.83,-43.98 -7.9,-14 -18.73,-24.74 -32.48,-32.22 -13.77,-7.45 -28.13,-11.19 -43.06,-11.19zm-0.15 -21.29c18.64,0 36.51,4.66 53.63,13.98 17.11,9.32 30.58,22.68 40.35,40.08 9.81,17.39 14.69,35.6 14.69,54.62 0,18.91 -4.79,36.95 -14.39,54.11 -9.6,17.17 -22.99,30.56 -40.16,40.15 -17.16,9.61 -35.21,14.41 -54.12,14.41 -18.91,0 -36.95,-4.8 -54.12,-14.41 -17.17,-9.59 -30.54,-22.98 -40.15,-40.15 -9.6,-17.16 -14.39,-35.2 -14.39,-54.11 0,-19.02 4.89,-37.23 14.66,-54.62 9.81,-17.4 23.25,-30.76 40.37,-40.08 17.12,-9.32 35.01,-13.98 53.63,-13.98z"/>
  </g>
  <g id="_1357588957552">
   <path class="fil0" d="M1376.74 2042.6c-5.52,12.11 -13.28,22.64 -23.24,31.55 -9.96,8.94 -21.82,15.95 -35.62,21.05 -13.79,5.07 -28.96,7.62 -45.46,7.62 -16.51,0 -31.67,-2.55 -45.47,-7.62 -13.79,-5.1 -25.73,-12.06 -35.79,-20.87 -10.07,-8.82 -17.87,-19.28 -23.41,-31.38 -5.55,-12.11 -8.31,-25.16 -8.31,-39.2l0 -134 69.55 0 0 137.41c0,5.43 1.07,10.57 3.23,15.44 2.13,4.85 5.19,9.16 9.16,12.88 3.94,3.73 8.58,6.67 13.89,8.83 5.33,2.15 11.05,3.22 17.15,3.22 6.1,0 11.76,-1.07 16.97,-3.22 5.19,-2.16 9.77,-5.1 13.73,-8.83 3.95,-3.72 7.01,-8.03 9.15,-12.88 2.16,-4.87 3.25,-10.01 3.25,-15.44l0 -137.41 69.54 0 0 133.66c0,14.04 -2.79,27.1 -8.32,39.19zm262.77 53.43l0 -226.28 -68.54 0 0 122.14 -78.37 -122.14 -70.9 0 0 226.28 68.53 0 0 -128.57 83.61 128.57 65.67 0zm36.64 0.01l68.52 0 0 -226.3 -68.52 0 0 226.3zm269.03 -226.64l-176.08 0 0 54.64 53.96 -0.35 0 172.34 68.51 0 0 -172.34 53.61 0.35 0 -54.64zm244.3 0.35l-76.69 0 -41.72 76.33 -42.08 -76.33 -77.36 0 85.16 136.39 0 89.89 67.51 0 0 -89.89 85.18 -136.39z"/>
   <path class="fil0" d="M1167.51 2282.59l995.55 0 0 -126.58 -995.55 0 0 126.58zm143.97 -37.8c7.34,0 13.81,-4.62 16.83,-10.47l13.14 6.38c-5.06,8.94 -14.22,17.68 -29.97,17.68 -21.67,0 -38.38,-15.09 -38.38,-37.2 0,-22.22 16.71,-37.2 38.38,-37.2 15.75,0 24.91,8.51 29.97,17.57l-13.14 6.47c-3.02,-5.82 -9.49,-10.46 -16.83,-10.46 -13.16,0 -22.66,10.03 -22.66,23.62 0,13.59 9.5,23.61 22.66,23.61zm161.2 -46.15l-35.56 0 0 15.09 34.82 0 0 13.49 -34.82 0 0 16.38 35.56 0 0 13.47 -50.88 0 0 -71.89 50.88 0 0 13.46zm161.11 58.43l-15.4 0 0 -51.85 -20.28 51.85 -6.67 0 -20.29 -51.85 0 51.85 -15.3 0 0 -71.89 21.46 0 17.46 44.94 17.48 -44.94 21.54 0 0 71.89zm136.33 -58.43l-35.57 0 0 15.09 34.82 0 0 13.49 -34.82 0 0 16.38 35.57 0 0 13.47 -50.9 0 0 -71.89 50.9 0 0 13.46zm147.52 58.43l-14.77 0 -34.3 -46.89 0 46.89 -15.31 0 0 -71.89 15.75 0 33.31 45.17 0 -45.17 15.32 0 0 71.89zm138.35 -58.43l-20.92 0 0 58.43 -15.42 0 0 -58.43 -21.03 0 0 -13.46 57.37 0 0 13.46z"/>
   <path class="fil0" d="M1518.98 983.34l-212.63 127.6 211.41 -193.21 524.81 248.14 -523.59 -182.53zm395.3 69.19l-396.18 -227.64 -147.82 164.52 148.69 -116.67 395.31 179.79zm-47.17 106.85l134.41 35.55 -1.6 328.34c-4.86,151.3 -99.25,263.11 -217.84,267.49 -17.12,2.37 -46.16,5.44 -81.51,5.44 -23.71,0 -50.26,-1.38 -77.86,-5.29 -163.68,-23.15 -258.82,-140.43 -258.82,-298.41l0 -337.53 155.79 -81.74 0 0 179.39 44.49 1.21 0.29 -1.21 13.34 0 358c0,17.48 0.46,91.39 84.96,104.29 53.01,8.1 77.96,-36.04 77.96,-75.93l0 -359.61 5.12 1.28zm-203.16 604.92c-92.65,-43.25 -144.41,-130.9 -144.41,-224.35l0 -432.06 -124.97 65.64 0 318.97c0,147.25 86.9,247.43 232.45,268.02 11.98,1.69 24.33,2.95 36.93,3.78z"/>
   <path class="fil0" d="M1124.02 2420.46l0 66.47c0,7.66 1.51,13.38 4.5,17.15 3,3.78 8.02,5.68 15.06,5.68 7.04,0 12.07,-1.9 15.06,-5.68 3.01,-3.77 4.51,-9.49 4.51,-17.15l0 -66.47 22.98 0 0 63.98c0,7.97 -0.76,14.88 -2.25,20.73 -1.49,5.85 -3.96,10.66 -7.38,14.45 -3.41,3.77 -7.81,6.56 -13.2,8.38 -5.38,1.82 -11.96,2.72 -19.72,2.72 -7.76,0 -14.34,-0.9 -19.72,-2.72 -5.38,-1.82 -9.79,-4.61 -13.2,-8.38 -3.42,-3.79 -5.88,-8.6 -7.38,-14.45 -1.49,-5.85 -2.25,-12.76 -2.25,-20.73l0 -63.98 22.99 0z"/>
   <path class="fil0" d="M1205.08 2528.85l0 -81.52 22.98 0 0 13.82 0.93 0c1.46,-4.25 3.99,-7.92 7.61,-11.03 3.62,-3.11 8.65,-4.65 15.06,-4.65 8.39,0 14.73,2.79 19.03,8.38 4.29,5.59 6.45,13.56 6.45,23.91l0 51.09 -22.99 0 0 -49.22c0,-5.28 -0.82,-9.19 -2.49,-11.73 -1.65,-2.53 -4.61,-3.8 -8.84,-3.8 -1.88,0 -3.68,0.23 -5.45,0.7 -1.75,0.46 -3.33,1.22 -4.73,2.25 -1.39,1.03 -2.51,2.3 -3.34,3.81 -0.82,1.5 -1.24,3.23 -1.24,5.19l0 52.8 -22.98 0z"/>
   <path class="fil0" d="M1294.52 2447.33l22.99 0 0 81.52 -22.99 0 0 -81.52zm11.5 -8.7c-4.67,0 -8.06,-1.05 -10.18,-3.19 -2.11,-2.12 -3.19,-4.83 -3.19,-8.14l0 -3.42c0,-3.32 1.08,-6.02 3.19,-8.16 2.12,-2.12 5.51,-3.17 10.18,-3.17 4.66,0 8.05,1.05 10.17,3.17 2.12,2.14 3.18,4.84 3.18,8.16l0 3.42c0,3.31 -1.06,6.02 -3.18,8.14 -2.12,2.14 -5.51,3.19 -10.17,3.19z"/>
   <path class="fil0" d="M1364.4 2528.85c-7.96,0 -14,-2.02 -18.09,-6.05 -4.09,-4.03 -6.12,-9.94 -6.12,-17.71l0 -39.9 -11.5 0 0 -17.86 5.74 0c3.11,0 5.23,-0.75 6.37,-2.26 1.14,-1.5 1.7,-3.65 1.7,-6.44l0 -13.36 20.66 0 0 22.06 16.15 0 0 17.86 -16.15 0 0 45.8 14.91 0 0 17.86 -13.67 0z"/>
   <path class="fil0" d="M1442.05 2447.33l21.44 0 -31.38 94.1c-2.07,6.32 -4.98,10.98 -8.77,13.98 -3.77,3.01 -9.18,4.51 -16.24,4.51l-14.28 0 0 -17.87 15.37 0 2.8 -9 -28.57 -85.72 22.83 0 11.96 38.05 5.89 23.6 0.94 0 6.06 -23.6 11.95 -38.05z"/>
   <path class="fil0" d="M1505.56 2447.33l22.99 0 0 81.52 -22.99 0 0 -81.52zm11.5 -8.7c-4.66,0 -8.05,-1.05 -10.17,-3.19 -2.13,-2.12 -3.19,-4.83 -3.19,-8.14l0 -3.42c0,-3.32 1.06,-6.02 3.19,-8.16 2.12,-2.12 5.51,-3.17 10.17,-3.17 4.65,0 8.05,1.05 10.17,3.17 2.12,2.14 3.18,4.84 3.18,8.16l0 3.42c0,3.31 -1.06,6.02 -3.18,8.14 -2.12,2.14 -5.52,3.19 -10.17,3.19z"/>
   <path class="fil0" d="M1574.52 2530.72c-7.87,0 -14.5,-1.27 -19.89,-3.8 -5.37,-2.55 -10.19,-6.14 -14.43,-10.8l13.51 -13.67c2.89,3.21 6.11,5.75 9.62,7.61 3.52,1.87 7.5,2.8 11.96,2.8 4.56,0 7.72,-0.7 9.47,-2.1 1.76,-1.39 2.65,-3.28 2.65,-5.67 0,-3.82 -2.75,-6.1 -8.24,-6.83l-8.85 -1.09c-18.33,-2.27 -27.48,-10.65 -27.48,-25.15 0,-3.94 0.75,-7.54 2.25,-10.8 1.5,-3.26 3.63,-6.06 6.37,-8.39 2.74,-2.32 6.05,-4.14 9.94,-5.43 3.88,-1.29 8.25,-1.93 13.12,-1.93 4.24,0 7.99,0.29 11.26,0.85 3.25,0.57 6.16,1.4 8.69,2.48 2.53,1.09 4.87,2.44 6.98,4.03 2.13,1.62 4.22,3.4 6.3,5.36l-13.21 13.53c-2.58,-2.6 -5.51,-4.65 -8.76,-6.15 -3.27,-1.5 -6.61,-2.25 -10.02,-2.25 -3.93,0 -6.73,0.62 -8.39,1.87 -1.65,1.24 -2.48,2.89 -2.48,4.96 0,2.18 0.6,3.86 1.78,5.05 1.19,1.19 3.45,2.04 6.76,2.56l9.15 1.24c17.92,2.4 26.87,10.57 26.87,24.54 0,3.94 -0.82,7.56 -2.48,10.87 -1.65,3.32 -4.01,6.19 -7.07,8.63 -3.05,2.42 -6.72,4.32 -11.02,5.66 -4.3,1.34 -9.09,2.02 -14.36,2.02z"/>
   <path class="fil0" d="M1691.91 2530.72c-9.51,0 -17.6,-1.63 -24.22,-4.9 -6.62,-3.26 -12.27,-7.47 -16.93,-12.65l15.53 -15.69c7.35,8.3 16.41,12.44 27.17,12.44 5.81,0 10.1,-1.2 12.89,-3.59 2.8,-2.37 4.2,-5.53 4.2,-9.47 0,-3 -0.82,-5.5 -2.49,-7.53 -1.65,-2.01 -5.02,-3.38 -10.09,-4.11l-10.71 -1.4c-11.49,-1.46 -19.91,-4.91 -25.23,-10.41 -5.34,-5.48 -8.01,-12.78 -8.01,-21.88 0,-4.88 0.94,-9.33 2.8,-13.36 1.86,-4.05 4.53,-7.51 7.99,-10.41 3.48,-2.89 7.72,-5.14 12.74,-6.76 5.03,-1.61 10.74,-2.4 17.16,-2.4 8.18,0 15.38,1.29 21.59,3.88 6.2,2.59 11.54,6.36 15.99,11.33l-15.69 15.85c-2.58,-3.01 -5.72,-5.47 -9.4,-7.38 -3.67,-1.92 -8.3,-2.88 -13.89,-2.88 -5.28,0 -9.21,0.94 -11.81,2.8 -2.58,1.87 -3.87,4.45 -3.87,7.77 0,3.72 1.01,6.42 3.02,8.08 2.02,1.64 5.31,2.84 9.86,3.56l10.72 1.71c11.18,1.77 19.47,5.19 24.85,10.32 5.38,5.13 8.08,12.41 8.08,21.82 0,5.19 -0.94,9.95 -2.8,14.3 -1.87,4.35 -4.58,8.06 -8.16,11.17 -3.56,3.11 -8,5.51 -13.27,7.23 -5.29,1.7 -11.28,2.56 -18.02,2.56z"/>
   <path class="fil0" d="M1777.16 2528.85c-7.96,0 -13.99,-2.02 -18.08,-6.05 -4.09,-4.03 -6.14,-9.94 -6.14,-17.71l0 -39.9 -11.49 0 0 -17.86 5.74 0c3.11,0 5.23,-0.75 6.37,-2.26 1.15,-1.5 1.71,-3.65 1.71,-6.44l0 -13.36 20.65 0 0 22.06 16.15 0 0 17.86 -16.15 0 0 45.8 14.91 0 0 17.86 -13.67 0z"/>
   <path class="fil0" d="M1804.96 2528.85l0 -81.52 22.99 0 0 17.7 0.78 0c0.41,-2.28 1.14,-4.48 2.17,-6.6 1.04,-2.13 2.4,-4.01 4.11,-5.66 1.71,-1.66 3.77,-2.99 6.13,-3.97 2.39,-0.97 5.18,-1.47 8.39,-1.47l4.05 0 0 21.43 -5.76 0c-6.72,0 -11.72,0.88 -14.98,2.63 -3.25,1.77 -4.89,5.03 -4.89,9.79l0 47.67 -22.99 0z"/>
   <path class="fil0" d="M1897.37 2462.39c-4.66,0 -8.31,1.53 -10.96,4.59 -2.63,3.05 -3.96,7.11 -3.96,12.18l0 1.24 28.58 0 0 -1.4c0,-4.97 -1.11,-8.97 -3.34,-12.02 -2.23,-3.06 -5.67,-4.59 -10.32,-4.59zm0.45 68.33c-6.2,0 -11.74,-1.01 -16.61,-3.04 -4.87,-2.01 -8.98,-4.85 -12.34,-8.53 -3.36,-3.68 -5.9,-8.16 -7.61,-13.44 -1.7,-5.27 -2.56,-11.17 -2.56,-17.7 0,-6.41 0.83,-12.23 2.48,-17.47 1.67,-5.22 4.12,-9.7 7.38,-13.43 3.26,-3.73 7.27,-6.6 12.03,-8.62 4.76,-2.02 10.21,-3.02 16.32,-3.02 6.72,0 12.49,1.14 17.31,3.41 4.8,2.28 8.74,5.33 11.8,9.17 3.04,3.83 5.28,8.25 6.67,13.26 1.4,5.03 2.09,10.29 2.09,15.77l0 6.84 -52.33 0 0 1.24c0,5.38 1.45,9.66 4.35,12.8 2.9,3.17 7.46,4.74 13.67,4.74 4.77,0 8.65,-0.95 11.65,-2.87 3,-1.91 5.8,-4.21 8.38,-6.9l11.49 14.27c-3.61,4.25 -8.35,7.56 -14.21,9.95 -5.84,2.38 -12.5,3.57 -19.96,3.57z"/>
   <path class="fil0" d="M1947.99 2528.85l0 -81.52 22.98 0 0 13.82 0.93 0c1.45,-4.25 4,-7.92 7.61,-11.03 3.63,-3.11 8.64,-4.65 15.07,-4.65 8.38,0 14.72,2.79 19.02,8.38 4.3,5.59 6.45,13.56 6.45,23.91l0 51.09 -23 0 0 -49.22c0,-5.28 -0.81,-9.19 -2.47,-11.73 -1.66,-2.53 -4.62,-3.8 -8.85,-3.8 -1.87,0 -3.68,0.23 -5.45,0.7 -1.75,0.46 -3.33,1.22 -4.73,2.25 -1.4,1.03 -2.51,2.3 -3.34,3.81 -0.83,1.5 -1.24,3.23 -1.24,5.19l0 52.8 -22.98 0z"/>
   <path class="fil0" d="M2069.11 2484.91c4.56,0 7.95,-0.97 10.18,-2.88 2.23,-1.91 3.33,-4.68 3.33,-8.3l0 -1.86c0,-3.63 -1.1,-6.39 -3.33,-8.31 -2.23,-1.92 -5.62,-2.88 -10.18,-2.88 -4.55,0 -7.94,0.96 -10.16,2.88 -2.24,1.92 -3.35,4.68 -3.35,8.31l0 1.86c0,3.62 1.11,6.39 3.35,8.3 2.22,1.91 5.61,2.88 10.16,2.88zm22.21 52.95c0,-2.38 -0.93,-4.2 -2.8,-5.44 -1.86,-1.23 -5.12,-1.86 -9.79,-1.86l-27.94 0c-1.03,1.04 -1.78,2.2 -2.25,3.49 -0.47,1.3 -0.7,2.57 -0.7,3.81 0,3 1.3,5.2 3.88,6.6 2.59,1.4 6.99,2.09 13.2,2.09l9.31 0c6.22,0 10.62,-0.69 13.2,-2.09 2.6,-1.4 3.89,-3.6 3.89,-6.6zm21.59 -3.1c0,4.35 -0.75,8.18 -2.26,11.49 -1.5,3.31 -3.96,6.13 -7.38,8.46 -3.41,2.33 -7.94,4.09 -13.58,5.28 -5.65,1.19 -12.61,1.78 -20.89,1.78 -7.03,0 -13.01,-0.43 -17.93,-1.31 -4.91,-0.89 -8.91,-2.13 -11.96,-3.74 -3.05,-1.59 -5.28,-3.57 -6.68,-5.9 -1.4,-2.32 -2.09,-4.98 -2.09,-7.99 0,-4.55 1.34,-8.13 4.02,-10.71 2.71,-2.59 6.43,-4.2 11.19,-4.82l0 -1.71c-3.92,-0.72 -6.88,-2.41 -8.85,-5.04 -1.96,-2.64 -2.95,-5.73 -2.95,-9.25 0,-2.17 0.45,-4.06 1.33,-5.66 0.87,-1.61 2.02,-3.01 3.42,-4.2 1.38,-1.18 3.02,-2.15 4.88,-2.87 1.86,-0.72 3.73,-1.29 5.6,-1.71l0 -0.62c-4.98,-2.27 -8.66,-5.41 -11.04,-9.39 -2.38,-3.99 -3.58,-8.62 -3.58,-13.9 0,-8.28 2.89,-14.94 8.63,-19.96 5.75,-5.02 14.52,-7.53 26.32,-7.53 5.4,0 9.99,0.53 13.82,1.56l0 -3.11c0,-4.35 1.07,-7.48 3.19,-9.39 2.11,-1.92 5.15,-2.88 9.07,-2.88l12.9 0 0 17.09 -18.02 0 0 0.92c4.78,2.28 8.29,5.41 10.57,9.39 2.28,3.99 3.42,8.62 3.42,13.91 0,8.18 -2.88,14.72 -8.61,19.65 -5.76,4.92 -14.53,7.37 -26.34,7.37 -5.28,0 -10.09,-0.56 -14.43,-1.71 -2.38,1.56 -3.58,3.73 -3.58,6.53 0,1.95 0.76,3.49 2.26,4.57 1.49,1.08 4,1.63 7.52,1.63l23.6 0c9.95,0 17.16,2.08 21.67,6.22 4.5,4.13 6.76,9.99 6.76,17.55z"/>
   <path class="fil0" d="M2148.62 2528.85c-7.97,0 -14,-2.02 -18.09,-6.05 -4.09,-4.03 -6.13,-9.94 -6.13,-17.71l0 -39.9 -11.49 0 0 -17.86 5.74 0c3.1,0 5.24,-0.75 6.37,-2.26 1.14,-1.5 1.71,-3.65 1.71,-6.44l0 -13.36 20.64 0 0 22.06 16.17 0 0 17.86 -16.17 0 0 45.8 14.92 0 0 17.86 -13.67 0z"/>
   <path class="fil0" d="M2176.42 2413.94l22.98 0 0 47.21 0.94 0c1.44,-4.25 3.99,-7.92 7.6,-11.03 3.63,-3.11 8.65,-4.65 15.07,-4.65 8.38,0 14.73,2.79 19.03,8.38 4.29,5.59 6.44,13.56 6.44,23.91l0 51.09 -23 0 0 -49.22c0,-5.28 -0.82,-9.19 -2.47,-11.73 -1.66,-2.53 -4.61,-3.8 -8.85,-3.8 -1.87,0 -3.68,0.23 -5.45,0.7 -1.75,0.46 -3.33,1.22 -4.72,2.25 -1.4,1.03 -2.51,2.3 -3.35,3.81 -0.83,1.5 -1.24,3.23 -1.24,5.19l0 52.8 -22.98 0 0 -114.91z"/>
   <path class="fil0" d="M2226.2 1792.92l4.21 0c5.97,0 9.69,-0.22 11.14,-0.68 1.45,-0.47 2.59,-1.27 3.42,-2.42 0.84,-1.15 1.26,-2.46 1.26,-3.93 0,-1.42 -0.41,-2.67 -1.22,-3.79 -0.82,-1.11 -1.99,-1.9 -3.5,-2.39 -1.5,-0.48 -5.2,-0.72 -11.1,-0.72l-4.21 0 0 13.93zm-10.36 29l0 -51.02 10.36 0c9.71,0 15.15,0.03 16.32,0.12 3.43,0.29 6.09,0.97 8.01,2.04 1.89,1.07 3.49,2.7 4.77,4.89 1.28,2.2 1.91,4.64 1.91,7.32 0,3.68 -1.2,6.83 -3.61,9.45 -2.42,2.61 -5.78,4.23 -10.14,4.86 1.55,0.59 2.74,1.22 3.58,1.92 0.84,0.69 1.98,2 3.46,3.92 0.38,0.5 1.62,2.57 3.75,6.22l6.03 10.28 -12.8 0 -4.27 -8.27c-2.89,-5.57 -5.27,-9.08 -7.16,-10.52 -1.88,-1.44 -4.27,-2.17 -7.16,-2.17l-2.69 0 0 20.96 -10.36 0zm21.78 -64.39c-6.61,0 -12.95,1.65 -19.01,4.95 -6.07,3.31 -10.86,8.06 -14.35,14.25 -3.5,6.2 -5.24,12.69 -5.24,19.47 0,6.73 1.71,13.15 5.12,19.26 3.41,6.11 8.17,10.88 14.28,14.32 6.11,3.43 12.51,5.13 19.2,5.13 6.74,0 13.16,-1.7 19.24,-5.13 6.09,-3.44 10.85,-8.21 14.28,-14.32 3.44,-6.11 5.15,-12.53 5.15,-19.26 0,-6.78 -1.74,-13.27 -5.24,-19.47 -3.49,-6.19 -8.29,-10.94 -14.38,-14.25 -6.08,-3.3 -12.43,-4.95 -19.05,-4.95zm-0.06 -9.42c8.25,0 16.16,2.06 23.73,6.19 7.57,4.12 13.53,10.03 17.85,17.73 4.35,7.7 6.5,15.75 6.5,24.17 0,8.37 -2.12,16.34 -6.37,23.93 -4.24,7.6 -10.17,13.53 -17.76,17.77 -7.59,4.25 -15.58,6.38 -23.95,6.38 -8.37,0 -16.35,-2.13 -23.94,-6.38 -7.6,-4.24 -13.52,-10.17 -17.77,-17.77 -4.24,-7.59 -6.37,-15.56 -6.37,-23.93 0,-8.42 2.16,-16.47 6.49,-24.17 4.34,-7.7 10.29,-13.61 17.86,-17.73 7.57,-4.13 15.49,-6.19 23.73,-6.19z"/>
  </g>
 </g>
</svg>
