<?xml version="1.0" encoding="UTF-8"?>
<!DOCTYPE svg PUBLIC "-//W3C//DTD SVG 1.1//EN" "http://www.w3.org/Graphics/SVG/1.1/DTD/svg11.dtd">
<!-- Creator: CorelDRAW 2021 (64-Bit) -->
<svg xmlns="http://www.w3.org/2000/svg" xml:space="preserve" width="33.867mm" height="33.867mm" version="1.1" style="shape-rendering:geometricPrecision; text-rendering:geometricPrecision; image-rendering:optimizeQuality; fill-rule:evenodd; clip-rule:evenodd"
viewBox="0 0 3386.7 3386.7"
 xmlns:xlink="http://www.w3.org/1999/xlink"
 xmlns:xodm="http://www.corel.com/coreldraw/odm/2003">
 <defs>
  <style type="text/css">
   <![CDATA[
    .fil1 {fill:#E5097F;fill-rule:nonzero}
    .fil0 {fill:#921E5C;fill-rule:nonzero}
   ]]>
  </style>
 </defs>
 <g id="Layer_x0020_1">
  <metadata id="CorelCorpID_0Corel-Layer"/>
  <g id="_2024151307232">
   <path class="fil0" d="M2815.75 2013.34c0,16.85 10.75,30.92 32.31,42.19l0.76 -0.81c5.51,1.63 13.09,2.45 22.6,2.45l29.9 0 0.82 0.75 0.76 -0.75 8.13 0 0 -254.08 -50.08 0c-21.64,0 -36.72,12.78 -45.2,38.26l0 171.99zm42.79 -226.96l48.42 0 0.83 0.81 0.76 -0.81 26.66 0 0.82 0.81 0.84 -0.81 21.76 0 1.59 1.63 0 321.69c0,28.26 -14.47,53.47 -43.54,75.63 -17.5,10.12 -33.69,15.15 -48.43,15.15l-4.07 0 -1.58 -1.56 0 -12.77c0,-1.44 3.72,-2.52 11.3,-3.2l0.75 0.81c0,-1.08 1.38,-1.63 4.07,-1.63 21.49,-10.19 32.31,-24.53 32.31,-42.94l0 -65.3 -12.95 0c-41.06,0 -64.96,-2.65 -71.86,-7.95 -21.01,-8.64 -37.68,-23.79 -50.01,-45.4 -6.48,-14.88 -9.71,-27.65 -9.71,-38.25l0 -105.13c0,-29.28 15.08,-54.77 45.19,-76.44 16.81,-9.51 32.45,-14.34 46.85,-14.34z"/>
   <path class="fil0" d="M2573.15 1847.74l0 164.04c0,19.91 11.57,34.25 34.73,42.94 2.41,1.09 5.92,1.63 10.47,1.63l6.47 0c19.08,0 33.34,-11.69 42.78,-35.06l0.82 -9.51 0 -164.04c0,-21.54 -12.4,-36.15 -37.12,-43.83l-10.54 -1.56c-20.6,0 -35.9,11.14 -46.02,33.43l-1.59 11.96zm42.78 -61.36l9.71 0c28.8,0 54.36,14.34 76.68,43.01 10.19,17.13 15.29,33.02 15.29,47.77l0 105.13c0,29.35 -15.02,54.84 -45.19,76.44 -16.4,9.58 -32.03,14.34 -46.78,14.34l-8.13 0c-34.71,0 -62.96,-18.07 -84.73,-54.16 -5.92,-14.47 -8.88,-26.63 -8.88,-36.62l0 -103.49c0,-34.26 18.32,-62.12 54.9,-83.66 14.67,-5.84 27,-8.76 37.13,-8.76z"/>
   <polygon class="fil0" points="2428.17,1658.97 2473.43,1658.97 2475.01,1660.6 2475.01,2071.5 2473.43,2073.07 2428.17,2073.07 2426.58,2071.5 2426.58,1660.6 "/>
   <path class="fil0" d="M2232.4 1956.8l0 41.39c0,27.79 8.62,45.26 25.84,52.59l12.12 5.57 0.84 -0.82 3.99 0.82 54.08 0 -0.76 -97.17 0 -61.29 -39.61 0c-26.73,0 -44.5,10.06 -53.25,30.24 -2.14,7.68 -3.25,17.26 -3.25,28.67zm1.66 -170.42l0.76 0.81 0.83 -0.81 53.25 0 0.83 0.81 0.82 -0.81c4.82,0.54 7.23,1.36 7.23,2.38l0.83 -0.75 0.83 0c5.65,0 8.61,1.29 8.88,3.94l1.59 -1.56c14.4,4.62 28.11,13.11 41.2,25.48 17.77,20.05 26.59,40.5 26.59,61.29l0 194.34 -1.58 1.57 -100.1 0c-30.32,0 -56.36,-15.42 -78.33,-46.21 -9.16,-15.63 -13.71,-31.32 -13.71,-46.95l0 -7.21c0,-16.99 6.2,-34.17 18.6,-51.71 8.33,-9.99 14.47,-16.1 18.53,-18.34 9.71,-7.96 19.36,-13.26 29.07,-15.91l0.83 0.82c0.75,-2.72 9.65,-4.55 26.59,-5.64l11.3 0 4.06 -0.75 0 0.75 0.83 -0.75 1.58 0 0.83 0.75 0.83 -0.75 1.58 0 0.83 0.75 0.76 -0.75 4.89 0 0.82 0.75 0.76 -0.75 1.65 0 0.76 0.75 0.83 -0.75 4.82 0 0.83 0.75 0.82 -0.75 4.83 0 0.83 0.75 0.82 -0.75 5.65 0 0 -33.43c0,-20.18 -11.58,-34.52 -34.72,-43.01 -2.41,-1.09 -5.93,-1.64 -10.54,-1.64l-49.19 0 -1.66 -1.56 0 -13.52 1.66 -1.63z"/>
   <path class="fil0" d="M2080.82 1659.78l0.83 0 0 125.85 79.08 0 1.66 1.56 0 13.53 -1.66 1.63 -79.08 0 0 194.28c0,22.14 4.27,37.03 12.88,44.57 8.2,10.6 23.83,15.97 46.84,15.97l20.18 -0.82 0.84 0.82 0 14.33 -1.66 1.57 -35.48 0c-30.58,0 -57.18,-15.9 -79.91,-47.77 -8.61,-14.2 -12.95,-35.47 -12.95,-63.74l0 -159.21 -29.9 0 -1.58 -1.63 0 -13.53 1.58 -1.56 29.9 0 0 -0.81 0.82 -78.83 47.61 -46.21z"/>
   <path class="fil0" d="M1806.73 1956.8l0 41.39c0,27.79 8.62,45.26 25.83,52.59l12.13 5.57 0.83 -0.82 4 0.82 54.07 0 -0.75 -97.17 0 -61.29 -39.61 0c-26.74,0 -44.51,10.06 -53.26,30.24 -2.13,7.68 -3.24,17.26 -3.24,28.67zm1.66 -170.42l0.75 0.81 0.83 -0.81 53.26 0 0.82 0.81 0.83 -0.81c4.82,0.54 7.23,1.36 7.23,2.38l0.82 -0.75 0.84 0c5.64,0 8.61,1.29 8.88,3.94l1.59 -1.56c14.4,4.62 28.1,13.11 41.19,25.48 17.77,20.05 26.59,40.5 26.59,61.29l0 194.34 -1.58 1.57 -100.1 0c-30.31,0 -56.35,-15.42 -78.33,-46.21 -9.16,-15.63 -13.7,-31.32 -13.7,-46.95l0 -7.21c0,-16.99 6.2,-34.17 18.6,-51.71 8.33,-9.99 14.46,-16.1 18.53,-18.34 9.71,-7.96 19.36,-13.26 29.07,-15.91l0.83 0.82c0.75,-2.72 9.64,-4.55 26.58,-5.64l11.31 0 4.06 -0.75 0 0.75 0.82 -0.75 1.59 0 0.82 0.75 0.83 -0.75 1.58 0 0.84 0.75 0.75 -0.75 4.89 0 0.83 0.75 0.76 -0.75 1.65 0 0.76 0.75 0.83 -0.75 4.81 0 0.84 0.75 0.82 -0.75 4.82 0 0.83 0.75 0.82 -0.75 5.66 0 0 -33.43c0,-20.18 -11.58,-34.52 -34.73,-43.01 -2.41,-1.09 -5.92,-1.64 -10.54,-1.64l-49.18 0 -1.66 -1.56 0 -13.52 1.66 -1.63z"/>
   <path class="fil0" d="M1656.17 1786.38l21.77 0 0.82 0.81 0.83 -0.81 28.25 0 1.58 1.63 0 12.71 -1.58 1.63 -53.33 0.74c-10.6,0 -21.9,6.94 -33.89,20.73 -4.82,8.63 -7.23,16.58 -7.23,23.92l0 164.04c0,20.38 12.4,35.27 37.13,44.57l0.83 -0.82 3.99 0.82 52.5 0 1.58 1.57 0 13.58 -1.58 1.57 -51.67 0c-29.49,0 -55.04,-14.61 -76.67,-43.83 -10.27,-16.17 -15.37,-31.8 -15.37,-46.95l0 -103.49c0,-31.33 15.64,-57.63 46.85,-78.9 6.96,-4.49 17.22,-8.49 30.65,-11.89l0 0.75c2.55,-1.57 7.38,-2.38 14.54,-2.38z"/>
   <path class="fil1" d="M1305 1451.24l5.71 230.45 -22.84 0c-10.85,-57.71 -37.31,-104.1 -79.58,-139.21 -37.95,-31.39 -73.65,-48.31 -116.9,-51.64l0 -38.23c15.72,1.19 26.26,3.1 41.33,6.62 17.51,4.17 38.83,11.65 63.96,22.59 25.13,10.95 42.64,16.34 52.73,16.34 9.71,0 17.33,-2.6 22.85,-7.99 5.52,-5.39 10.85,-18.43 15.61,-38.93l17.13 0zm-276.33 42.09c-20.87,4.24 -33.64,12.31 -47.87,24.29 -22.27,18.43 -33.31,39.8 -33.31,63.79 0,15.29 3.99,28.84 11.79,40.84 10.67,15.81 27.99,31.63 51.98,47.27 17.51,11.12 57.87,31.11 121.08,59.61 88.7,39.63 148.49,77.17 179.33,112.45 30.64,35.28 45.87,75.59 45.87,121.13 0,57.7 -24.74,107.23 -74.06,148.76 -49.29,41.54 -111.93,62.39 -187.89,62.39 -23.79,0 -46.45,-2.25 -67.58,-6.6 -21.32,-4.35 -47.97,-12.69 -79.95,-25.03 -17.9,-6.77 -32.56,-10.08 -44.17,-10.08 -9.71,0 -19.8,3.48 -30.65,10.26 -10.86,6.95 -19.61,17.38 -26.28,31.45l-19.41 0 0 -260.68 19.41 0c16.38,73.17 47.98,129.12 94.63,167.54 46.82,38.4 97.08,57.7 151.14,57.7 41.7,0 75.01,-10.44 99.76,-31.12 24.75,-20.68 37.13,-44.66 37.13,-72.29 0,-16.17 -4.76,-31.98 -14.29,-47.28 -9.51,-15.29 -23.79,-29.72 -43.2,-43.62 -19.42,-13.73 -53.69,-31.63 -102.81,-53.7 -68.91,-30.76 -118.41,-57.18 -148.49,-78.9 -29.88,-21.72 -52.92,-46.06 -69.1,-72.82 -16.19,-26.94 -24.18,-56.49 -24.18,-88.64 0,-55.09 22.09,-102.01 66.44,-140.77 37.92,-33.28 79.63,-52.21 134.68,-56.89l0 40.94z"/>
   <path class="fil0" d="M412.22 1187.27l390.64 0 0 17.73 -19.61 0c-29.5,0 -49.69,2.77 -60.72,8.52 -11.04,5.56 -18.86,13.38 -23.42,23.28 -4.76,9.91 -7.04,34.76 -7.04,74.56l0 338.21c0,61.86 5.14,102.71 15.22,122.69 10.28,20.16 27.04,36.67 50.45,50.06 23.42,13.2 53.11,19.81 88.71,19.81 27.13,0 51.59,-3.67 73.36,-11.05l50.34 26.67c-54.04,28.87 -107.88,36.51 -174.9,36.51 -65.49,0 -115.94,-7.99 -151.54,-23.98 -48.74,-21.72 -83.19,-49.53 -103.18,-83.6 -20,-33.89 -30.08,-79.59 -30.08,-136.95l0 -338.37c0,-40.14 -2.47,-65 -7.24,-74.73 -4.95,-9.73 -13.13,-17.55 -25.12,-23.47 -12,-5.73 -33.89,-8.51 -65.87,-8.16l0 -17.73zm621.59 483.61c2.13,-21.76 3.21,-49.55 3.21,-77.8l0 -281.72c0,-31.11 -3.62,-53.53 -10.66,-66.74 -7.05,-13.38 -16,-22.59 -26.84,-27.8 -16.76,-7.82 -40.37,-11.82 -71.01,-11.82l0 -17.73 261.57 0 0 17.73 -15.61 0c-21.14,0 -38.65,4 -52.74,11.82 -14.08,7.82 -24.37,19.64 -30.65,35.45 -4.76,10.95 -7.23,30.59 -7.23,59.09l0 262.43c0,47.79 -2.05,87.74 -6.1,119.88l-43.94 -22.79z"/>
  </g>
 </g>
</svg>
