<?xml version="1.0" encoding="UTF-8"?>
<!DOCTYPE svg PUBLIC "-//W3C//DTD SVG 1.1//EN" "http://www.w3.org/Graphics/SVG/1.1/DTD/svg11.dtd">
<!-- Creator: CorelDRAW 2021 (64-Bit) -->
<svg xmlns="http://www.w3.org/2000/svg" xml:space="preserve" width="33.8666mm" height="33.8666mm" version="1.1" style="shape-rendering:geometricPrecision; text-rendering:geometricPrecision; image-rendering:optimizeQuality; fill-rule:evenodd; clip-rule:evenodd"
viewBox="0 0 3386.66 3386.66"
 xmlns:xlink="http://www.w3.org/1999/xlink"
 xmlns:xodm="http://www.corel.com/coreldraw/odm/2003">
 <defs>
  <style type="text/css">
   <![CDATA[
    .fil2 {fill:#E5DB0B}
    .fil0 {fill:#FCF105}
    .fil1 {fill:white}
   ]]>
  </style>
 </defs>
 <g id="Layer_x0020_1">
  <metadata id="CorelCorpID_0Corel-Layer"/>
  <g id="_1357522803680">
   <path class="fil0" d="M7871.49 2117.13l165.76 0.48 7.29 -277.2c45.54,-0.48 31.88,3.8 56.47,124.57 10.93,50.88 21.85,101.75 32.78,152.63l103.83 0.47 40.07 -227.75c7.29,-45.17 -1.82,-51.35 41.9,-49.44 13.66,27.57 8.2,239.16 10.02,273.39l70.13 2.85 0 -583.87 -129.33 -2.38c-26.41,92.24 -42.81,260.08 -74.68,334.73l-23.68 0 -72.87 -330.93c-39.16,-14.74 -146.63,-4.75 -194.9,-3.33l-32.79 585.78z"/>
   <path class="fil0" d="M7232.14 2117.13l163.94 0.48 -0.91 -215.86c46.44,-6.66 30.96,-9.99 73.77,93.66 17.3,39.47 36.43,80.83 51,121.72l179.42 0.48 0 -586.26 -163.03 0c-3.64,46.6 7.29,225.85 -10.01,238.69 -30.97,22.82 -43.72,-48.5 -65.58,-105.08 -15.48,-41.84 -31.88,-94.62 -51,-134.08l-73.77 0c-16.4,29.95 -101.1,216.81 -103.83,241.54 -9.11,79.88 -2.73,258.65 0,344.71z"/>
   <path class="fil0" d="M9270.42 1714.89l0.91 402.72 68.31 -1.9 13.66 -93.19c161.21,-7.14 123.87,-8.09 140.26,91.29 30.97,8.55 143.9,6.18 180.33,2.37l-138.44 -585.3 -224.95 0c-11.84,26.62 -40.08,148.35 -40.08,184.01z"/>
   <path class="fil0" d="M8786.81 1707.75c-43.72,0.95 -93.81,-9.03 -93.81,13.32 8.2,21.87 38.25,11.88 66.49,13.79l0.91 180.67c-91.99,1.91 -57.38,-6.18 -67.4,16.65 1.82,0.95 4.55,0 5.47,2.37 0.91,2.38 4.55,1.91 5.46,2.38l37.34 4.28c17.31,0 30.97,-0.95 48.27,0.95l1.82 175.45c122.96,0 144.81,5.23 245,-37.56l0.91 -511.61c-80.15,-38.51 -146.63,-44.69 -248.64,-36.14l-1.82 175.45z"/>
   <path class="fil0" d="M6976.22 2117.13l163.93 -0.47 0 -190.67c0,-54.67 16.4,-77.97 35.52,-120.29 32.79,-73.22 22.77,-118.87 21.86,-212.53l0 -60.39 -91.99 -1.9 -30.96 170.22 -28.24 0.95c-22.76,-34.71 -14.57,-135.51 -34.6,-163.09 -11.84,-15.69 -162.12,-8.56 -188.53,-8.08 20.03,108.88 153.01,289.56 153.01,401.3 -0.92,60.86 -2.74,124.57 0,184.95z"/>
   <polygon class="fil0" points="8530.89,2116.66 8658.39,2117.61 8659.3,1975.92 8601.92,1974.97 8599.19,1881.78 8658.39,1881.3 8658.39,1768.61 8599.19,1768.14 8599.19,1674 8655.66,1673.52 8658.39,1531.35 8500.83,1530.88 "/>
   <path class="fil0" d="M9072.79 1535.63c0.91,27.11 22.77,40.42 37.34,59.91 83.79,110.79 81.06,351.85 0.91,456.45 -23.68,31.39 -39.16,21.4 -38.25,65.62l60.11 0c35.52,-148.82 123.86,-432.68 101.09,-586.73 -42.8,-0.48 -127.5,-9.51 -161.2,4.75z"/>
   <path class="fil1" d="M8857.85 1968.31c94.72,10.46 115.67,-60.86 114.75,-145.02 -0.91,-86.53 -21.85,-149.77 -112.02,-143.11l-2.73 288.13z"/>
   <polygon class="fil0" points="8434.34,2116.66 8495.37,2117.13 8464.4,1532.78 8436.17,1531.35 "/>
   <path class="fil0" d="M8611.94 2379.12c74.69,0.47 139.35,-3.33 142.08,-82.73 2.73,-84.64 -65.57,-90.34 -142.08,-90.34l0 173.07z"/>
   <path class="fil0" d="M9071.88 2038.68c71.04,-45.64 76.5,-239.64 51.91,-335.21 -5.46,-22.82 -20.95,-67.04 -38.25,-84.15 -11.84,-11.42 4.55,-0.48 -13.66,-10.46l0 429.82z"/>
   <path class="fil2" d="M7743.99 2378.64l38.25 1.43 0.91 -62.76c49.18,-1.43 89.25,-14.74 77.41,-71.32 -10.01,-46.12 -65.57,-44.22 -115.66,-38.99l-0.91 171.64z"/>
   <path class="fil0" d="M7953.46 2379.12l34.61 0.47 66.49 -172.59c-51.01,-0.95 -40.99,-1.43 -55.56,44.22 -8.2,23.29 -17.3,46.59 -26.41,70.37 -21.86,-31.38 -24.59,-87.97 -50.09,-115.07l-33.7 -0.47 64.66 173.07z"/>
   <polygon class="fil1" points="9371.52,1891.76 9458.95,1892.24 9436.18,1711.08 9397.93,1710.13 "/>
   <path class="fil0" d="M8079.15 2236.48l45.54 5.23 0.91 137.41 35.52 0 0.91 -136.94c33.7,-5.23 33.7,3.81 42.8,-12.36 15.49,-28.05 -10.93,-23.3 -24.59,-24.72 -21.86,-1.91 -81.06,-0.48 -101.09,4.75l0 26.63z"/>
   <path class="fil0" d="M8447.1 2213.65l14.57 24.73c1.82,0.47 3.64,0.47 5.46,0.95 5.47,0.95 18.22,0.95 24.59,0.95l0.91 137.89 36.43 0.95 1.83 -138.84c31.87,-1.43 30.05,1.9 43.71,-7.61l0 -25.67c-22.77,-0.95 -108.38,-7.13 -127.5,6.65z"/>
   <polygon class="fil0" points="8693,2114.76 8755.84,2117.61 8756.75,1975.44 8693,1976.87 "/>
   <polygon class="fil0" points="8325.96,2232.67 8325.96,2322.06 8326.87,2378.17 8420.68,2379.12 8420.68,2347.26 8366.04,2345.36 8363.31,2207.47 8326.87,2206.52 "/>
   <polygon class="fil0" points="8693,1672.09 8751.29,1673.52 8753.11,1532.3 8694.82,1532.3 "/>
   <path class="fil1" d="M8649.28 2343.46c92.9,12.36 88.35,-115.54 0,-100.33l0 100.33z"/>
  </g>
  <g id="_1357522803632">
   <path class="fil0" d="M1316.27 1857.07l165.76 0.48 7.29 -277.2c45.54,-0.48 31.88,3.8 56.47,124.57 10.93,50.88 21.85,101.75 32.78,152.63l103.83 0.47 40.07 -227.75c7.29,-45.17 -1.82,-51.35 41.9,-49.44 13.66,27.57 8.2,239.16 10.02,273.39l70.13 2.85 0 -583.87 -129.33 -2.38c-26.41,92.24 -42.81,260.08 -74.68,334.73l-23.68 0 -72.87 -330.93c-39.16,-14.74 -146.63,-4.75 -194.9,-3.33l-32.79 585.78z"/>
   <path class="fil0" d="M676.92 1857.07l163.94 0.48 -0.91 -215.86c46.44,-6.66 30.96,-9.99 73.77,93.66 17.3,39.47 36.43,80.83 51,121.72l179.42 0.48 0 -586.26 -163.03 0c-3.64,46.6 7.29,225.85 -10.01,238.69 -30.97,22.82 -43.72,-48.5 -65.58,-105.08 -15.48,-41.84 -31.88,-94.62 -51,-134.08l-73.77 0c-16.4,29.95 -101.1,216.81 -103.83,241.54 -9.11,79.88 -2.73,258.65 0,344.71z"/>
   <path class="fil0" d="M2715.2 1454.83l0.91 402.72 68.31 -1.9 13.66 -93.19c161.21,-7.14 123.87,-8.09 140.26,91.29 30.97,8.55 143.9,6.18 180.33,2.37l-138.44 -585.3 -224.95 0c-11.84,26.62 -40.08,148.35 -40.08,184.01z"/>
   <path class="fil0" d="M2231.59 1447.69c-43.72,0.95 -93.81,-9.03 -93.81,13.32 8.2,21.87 38.25,11.88 66.49,13.79l0.91 180.67c-91.99,1.91 -57.38,-6.18 -67.4,16.65 1.82,0.95 4.55,0 5.47,2.37 0.91,2.38 4.55,1.91 5.46,2.38l37.34 4.28c17.31,0 30.97,-0.95 48.27,0.95l1.82 175.45c122.96,0 144.81,5.23 245,-37.56l0.91 -511.61c-80.15,-38.51 -146.63,-44.69 -248.64,-36.14l-1.82 175.45z"/>
   <path class="fil0" d="M421 1857.07l163.93 -0.47 0 -190.67c0,-54.67 16.4,-77.97 35.52,-120.29 32.79,-73.22 22.77,-118.87 21.86,-212.53l0 -60.39 -91.99 -1.9 -30.96 170.22 -28.24 0.95c-22.76,-34.71 -14.57,-135.51 -34.6,-163.09 -11.84,-15.69 -162.12,-8.56 -188.53,-8.08 20.03,108.88 153.01,289.56 153.01,401.3 -0.92,60.86 -2.74,124.57 0,184.95z"/>
   <polygon class="fil0" points="1975.67,1856.6 2103.17,1857.55 2104.08,1715.86 2046.7,1714.91 2043.97,1621.72 2103.17,1621.24 2103.17,1508.55 2043.97,1508.08 2043.97,1413.94 2100.44,1413.46 2103.17,1271.29 1945.61,1270.82 "/>
   <path class="fil0" d="M2517.57 1275.57c0.91,27.11 22.77,40.42 37.34,59.91 83.79,110.79 81.06,351.85 0.91,456.45 -23.68,31.39 -39.16,21.4 -38.25,65.62l60.11 0c35.52,-148.82 123.86,-432.68 101.09,-586.73 -42.8,-0.48 -127.5,-9.51 -161.2,4.75z"/>
   <path class="fil1" d="M2302.63 1708.25c94.72,10.46 115.67,-60.86 114.75,-145.02 -0.91,-86.53 -21.85,-149.77 -112.02,-143.11l-2.73 288.13z"/>
   <polygon class="fil0" points="1879.12,1856.6 1940.15,1857.07 1909.18,1272.72 1880.95,1271.29 "/>
   <path class="fil0" d="M2056.72 2119.06c74.69,0.47 139.35,-3.33 142.08,-82.73 2.73,-84.64 -65.57,-90.34 -142.08,-90.34l0 173.07z"/>
   <path class="fil0" d="M2516.66 1778.62c71.04,-45.64 76.5,-239.64 51.91,-335.21 -5.46,-22.82 -20.95,-67.04 -38.25,-84.15 -11.84,-11.42 4.55,-0.48 -13.66,-10.46l0 429.82z"/>
   <path class="fil2" d="M1188.77 2118.58l38.25 1.43 0.91 -62.76c49.18,-1.43 89.25,-14.74 77.41,-71.32 -10.01,-46.12 -65.57,-44.22 -115.66,-38.99l-0.91 171.64z"/>
   <path class="fil0" d="M1398.24 2119.06l34.61 0.47 66.49 -172.59c-51.01,-0.95 -40.99,-1.43 -55.56,44.22 -8.2,23.29 -17.3,46.59 -26.41,70.37 -21.86,-31.38 -24.59,-87.97 -50.09,-115.07l-33.7 -0.47 64.66 173.07z"/>
   <polygon class="fil1" points="2816.3,1631.7 2903.73,1632.18 2880.96,1451.02 2842.71,1450.07 "/>
   <path class="fil0" d="M1523.93 1976.42l45.54 5.23 0.91 137.41 35.52 0 0.91 -136.94c33.7,-5.23 33.7,3.81 42.8,-12.36 15.49,-28.05 -10.93,-23.3 -24.59,-24.72 -21.86,-1.91 -81.06,-0.48 -101.09,4.75l0 26.63z"/>
   <path class="fil0" d="M1891.88 1953.59l14.57 24.73c1.82,0.47 3.64,0.47 5.46,0.95 5.47,0.95 18.22,0.95 24.59,0.95l0.91 137.89 36.43 0.95 1.83 -138.84c31.87,-1.43 30.05,1.9 43.71,-7.61l0 -25.67c-22.77,-0.95 -108.38,-7.13 -127.5,6.65z"/>
   <polygon class="fil0" points="2137.78,1854.7 2200.62,1857.55 2201.53,1715.38 2137.78,1716.81 "/>
   <polygon class="fil0" points="1770.74,1972.61 1770.74,2062 1771.65,2118.11 1865.46,2119.06 1865.46,2087.2 1810.82,2085.3 1808.09,1947.41 1771.65,1946.46 "/>
   <polygon class="fil0" points="2137.78,1412.03 2196.07,1413.46 2197.89,1272.24 2139.6,1272.24 "/>
   <path class="fil1" d="M2094.06 2083.4c92.9,12.36 88.35,-115.54 0,-100.33l0 100.33z"/>
  </g>
 </g>
</svg>
